<svg xmlns="http://www.w3.org/2000/svg" width="189" height="28"><path fill="#FFEB84" d="M36.048 1.064C43.269 1.064 49.08 6.6 49.08 14c0 7.41-5.823 13-13.032 13s-13.032-5.59-13.032-13c0-7.4 5.81-12.936 13.032-12.936Zm137.76 0c7.221 0 13.032 5.536 13.032 12.936 0 7.41-5.823 13-13.032 13s-13.032-5.59-13.032-13c0-7.4 5.81-12.936 13.032-12.936Zm-20.624 1c3.2 0 5.312 4.288 5.312 10.72 0 9.024-4.768 12.96-8.32 12.96-4.544 0-7.712-5.056-7.712-12.608 0-2.24.704-4.064 1.792-4.544l-1.312-1.44c-.4 3.236-2.463 2.317-3.958-.956l-.17-.388-1.6 1.056c3.168 1.984 4.384 7.2 4.384 11.488 0 4.448-1.664 7.392-4.192 7.392-3.776 0-5.248-4.352-5.248-9.344 0-6.624 2.56-14.336 8.64-14.336 4.864 0 8.096 5.12 8.096 12.832 0 1.696-.096 3.296-.64 4.64l1.888.352c-1.12-6.112 2.432-4.192 3.744-1.344l1.216-1.504c-4.032-2.496-5.76-5.568-5.76-9.376s1.728-5.6 3.84-5.6Zm-136.96 0c3.36 0 4.896 3.136 4.896 7.648 0 6.816-4.16 16.032-10.4 16.032C4.16 25.744 0 16.528 0 9.712 0 5.2 1.536 2.064 5.216 2.064c2.816 0 4.928 2.304 4.928 5.728 0 4.512-2.112 7.968-4.896 8.64L6.368 18l.237-.296c1.988-2.437 4.357-4.016 3.247 3.299l-.092.581h1.92c-1.276-7.684.942-6.484 2.93-4.151l.234.282.228.285 1.12-1.568c-2.784-.672-4.896-4.128-4.896-8.64 0-3.424 2.112-5.728 4.928-5.728Zm107.554.001c2.837.073 4.745 2.908 4.842 13.74l.004.883-.004.597c-.074 5.106-1.135 8.459-4.956 8.459-3.821 0-4.882-3.353-4.956-8.46l-.004-.596.004-.884c.097-10.831 2.005-13.666 4.842-13.739h.228ZM64.224 2c4.096 0 6.24 2.144 6.24 4.096 0 1.664-1.504 3.2-4.608 3.2-3.392 0-4.832-.832-5.024-3.2l-1.6 1.088c4.288 3.2-1.376 8.512-3.776 6.176l-.448 1.888c4.864-1.28 5.28 4.96 2.848 5.408l1.504 1.216c.768-4.48 7.648-2.976 7.52-.448l1.408-1.344c-2.912-1.44-1.056-3.744.512-4.192l-1.568-1.152c-.608 2.08-2.912 3.136-4.544 3.136-1.824 0-2.752-1.248-2.752-2.464 0-2.784 2.432-4.96 5.6-4.96 4.928 0 7.296 3.008 7.296 6.336 0 4.192-3.712 8.96-9.984 8.96-7.904 0-11.616-5.664-11.616-11.488C51.232 8.208 55.296 2 64.224 2Zm40.704.064c3.232 0 4.704 3.392 4.704 7.392s-1.824 8.096-4.576 10.208l1.664.96c.736-2.752 3.04-4.288 5.248-4.288 1.888 0 3.52 1.088 3.52 3.52 0 2.528-2.816 5.888-7.488 5.888-6.683 0-8.294-5.526-8.322-13.293l.002-.691c.064-5.152 1.536-9.696 5.248-9.696ZM86.736 2c6.592 0 9.44 3.904 9.44 7.104 0 2.56-1.568 4.256-4.16 4.256-1.536 0-2.56-.992-2.56-2.464 0-1.28.832-2.656 2.432-3.008L90.48 6.544c-1.016 2.987-4.58 1.648-8.041-.254l-.407-.226-.928 1.696c2.56.352 4.64 1.152 6.016 2.24.992.8 1.472 1.888 1.472 2.976A3.877 3.877 0 0 1 86.8 16.24c-1.312.864-3.2 1.408-5.728 1.216l.512 1.856c3.552-1.984 5.728-.064 5.6 2.848l1.696-.896c-.8-.704-1.184-1.984-1.184-2.72 0-1.696 1.536-4.032 4.32-4.032 2.272 0 4.512 1.568 4.512 4.32 0 4.16-3.936 6.912-9.856 6.912-7.52 0-10.944-4.128-10.944-7.552 0-2.816 1.76-4.288 4.736-4.288 1.056 0 2.144.128 2.944.384l.32-1.888c-.544.224-1.568.352-2.592.352-3.04 0-4.96-1.312-4.96-3.936C76.176 5.68 79.536 2 86.736 2Zm91.359 4.65-.19.372c-.64 1.22-1.335 2.255-2.025 3.004-.724.787-1.426 1.264-2.072 1.264-.646 0-1.348-.477-2.072-1.264l-.207-.233c-.621-.724-1.243-1.673-1.819-2.771l-.191-.37-1.472 1.247.225.168c1.622 1.25 2.784 2.76 2.784 3.831l-.006.168c-.107 1.44-1.588 2.667-3.571 3.141l-.231.052.929 1.697.203-.207c1.322-1.303 2.436-2.003 3.348-2.003.923 0 1.255.656 1.424 1.816l.03.233c.119 1.114.002 2.65-.334 4.511l1.921.001-.067-.378c-.307-1.829-.392-3.31-.238-4.367.17-1.16.5-1.816 1.424-1.816.907 0 2.023.697 3.332 1.988l.219.221.929-1.697c-2.176-.447-3.808-1.791-3.808-3.36l.007-.148c.104-1.11 1.339-2.627 3.001-3.85l-1.473-1.25ZM37.009 6.064h-1.921c.36 1.995.469 3.615.304 4.744-.17 1.16-.5 1.816-1.424 1.816-.912 0-2.026-.7-3.348-2.003l-.203-.207-.929 1.698c2.098.431 3.69 1.697 3.802 3.193l.006.167c0 1.072-1.162 2.581-2.784 3.831l-.224.169 1.471 1.247.191-.37c.576-1.099 1.198-2.047 1.819-2.772l.207-.233c.724-.786 1.426-1.264 2.072-1.264.646 0 1.348.478 2.072 1.264.69.749 1.386 1.784 2.026 3.004l.19.371 1.471-1.247-.223-.169c-1.548-1.193-2.677-2.622-2.777-3.682l-.007-.149c0-1.512 1.517-2.817 3.577-3.309l.231-.051-.928-1.696-.22.22c-1.236 1.22-2.3 1.909-3.179 1.982l-.153.006c-.923 0-1.255-.655-1.424-1.816-.154-1.056-.069-2.538.238-4.367l.067-.377Z"/></svg>