<svg xmlns="http://www.w3.org/2000/svg" width="144" height="24" fill="none">
  <path fill="#E30002" d="M67.319 1.537c4.498 0 7.847 2.362 8.452 5.702.637-3.54 2.38-5.654 5.144-5.654 3.162 0 5.01 2.85 5.01 7.019 0 1.16-.179 2.34-.518 3.47l-.08.248.143-.022c.084-.011.169-.021.254-.029l.257-.016.195-.004c1.575 0 2.845.696 3.541 1.863l-.001-.105.003-.694c.074-8.076 1.497-11.63 5.047-11.728l.161-.002.114.001c3.129.08 4.606 2.82 4.979 8.868.821-5.27 3.627-8.87 7.704-8.87 2.151 0 3.984 1.01 5.307 2.822l.047.067.008-.02c.637-1.666 1.889-2.721 3.554-2.855l.173-.01.167-.003c2.979 0 4.904 2.915 5.36 7.374 1.278-4.335 5.246-7.374 10.053-7.374 5.867 0 10.487 4.529 10.487 10.415 0 5.897-4.631 10.463-10.487 10.463-5.066 0-9.216-3.418-10.242-8.16-.902 4.74-3.792 7.969-7.419 7.969-2.193 0-4.043-1.144-5.324-3.136l-.149-.24-.022.064c-.694 1.923-1.984 3.148-3.713 3.297l-.168.011-.167.004c-2.844 0-4.622-2.144-5.204-5.683-.444 3.815-2.011 5.683-5.068 5.683-2.612 0-4.146-1.391-4.809-4.182l-.052-.222-.058.168c-.895 2.4-3.651 4.236-6.788 4.236-3.87 0-6.145-1.909-7.13-5.848-.458 3.568-3.957 5.848-8.81 5.848-4.747 0-8.405-2.187-9.403-5.359-1.255 3.11-4.52 5.359-8.402 5.359-5.158 0-8.88-3.01-9.897-7.51l-.055.205c-1.255 4.393-5.25 7.496-10.077 7.496-5.29 0-9.58-3.726-10.36-8.793-1.4 4.82-4.742 8.602-8.57 8.602C5.278 22.272 1 15.74 1 8.795c0-4.474 1.897-7.21 5.393-7.21 1.66 0 3.098.759 4.037 2.045l.075.107.108-.15a4.91 4.91 0 0 1 3.623-1.988l.204-.011.18-.003c3.095 0 4.9 2.426 5.13 6.338 1.564-3.776 5.272-6.338 9.686-6.338 4.973 0 9.05 3.253 10.177 7.83 1.145-4.715 5.241-7.878 10.88-7.878 3.483 0 6.159 1.915 6.159 4.556a3.469 3.469 0 0 1-1.091 2.55l-.17.152.085.049c1.426.831 2.398 2.136 2.773 3.728.259-.433.597-.814.997-1.121l.097-.073-.03-.024c-.805-.697-1.28-1.669-1.367-2.846l-.011-.198-.004-.184c0-3.816 3.97-6.59 9.388-6.59ZM29.435 3.079c-4.807 0-8.992 3.636-8.992 8.921 0 5.285 4.185 8.968 8.992 8.968 4.807 0 8.992-3.683 8.992-8.968s-4.185-8.92-8.992-8.92Zm102.957 0c-4.807 0-8.992 3.636-8.992 8.921 0 5.285 4.185 8.968 8.992 8.968 4.807 0 8.993-3.683 8.993-8.968s-4.186-8.92-8.993-8.92Zm-65.075-.047c-5.38 0-7.892 2.75-7.892 5.094 0 1.96 1.435 2.941 3.707 2.941.765 0 1.53-.095 1.937-.263l-.239 1.411c-.598-.191-1.41-.287-2.2-.287-2.224 0-3.54 1.1-3.54 3.205 0 2.559 2.56 5.644 8.18 5.644 4.424 0 7.366-2.057 7.366-5.166 0-2.056-1.674-3.228-3.372-3.228-2.081 0-3.229 1.746-3.229 3.013 0 .55.287 1.507.885 2.033l-1.268.67c.096-2.177-1.53-3.612-4.185-2.129l-.383-1.387c1.89.143 3.3-.263 4.281-.909a2.898 2.898 0 0 0 1.34-2.44c0-.812-.36-1.626-1.1-2.223-1.029-.814-2.583-1.411-4.497-1.675l.694-1.267.304.169.31.168c2.487 1.328 4.97 2.164 5.7.022l1.052 1.004c-1.196.263-1.818 1.292-1.818 2.248 0 1.1.766 1.842 1.914 1.842 1.937 0 3.109-1.268 3.109-3.181 0-2.392-2.129-5.31-7.055-5.31Zm13.597.047c-2.775 0-3.875 3.396-3.923 7.247l-.001.516c.02 5.805 1.225 9.935 6.22 9.935 3.491 0 5.596-2.511 5.596-4.4 0-1.818-1.22-2.631-2.63-2.631-1.651 0-3.373 1.148-3.923 3.205l-1.244-.718c2.057-1.578 3.42-4.64 3.42-7.629 0-2.99-1.1-5.525-3.515-5.525Zm14.087.001h-.17c-2.177.056-3.622 2.288-3.622 10.929l.003.446c.056 3.816.849 6.322 3.704 6.322 2.856 0 3.649-2.506 3.704-6.323l.003-.445-.003-.66C98.55 5.253 97.123 3.134 95.003 3.08Zm21.978 0c-1.579 0-2.87 1.339-2.87 4.185 0 2.846 1.291 5.142 4.305 7.007l-.909 1.124c-.981-2.128-3.635-3.563-2.798 1.005l-1.411-.264c.406-1.004.478-2.2.478-3.467 0-5.764-2.416-9.59-6.051-9.59-4.544 0-6.457 5.763-6.457 10.714l.001.21c.041 3.642 1.152 6.773 3.921 6.773 1.889 0 3.133-2.2 3.133-5.524 0-3.205-.909-7.103-3.276-8.586l1.195-.79.127.29c1.118 2.447 2.659 3.134 2.959.715l.98 1.076c-.813.359-1.339 1.722-1.339 3.396 0 5.644 2.367 9.423 5.764 9.423 2.654 0 6.218-2.942 6.218-9.686 0-4.807-1.579-8.012-3.97-8.012Zm-102.36 0c-2.104 0-3.683 1.721-3.683 4.28 0 3.372 1.579 5.955 3.66 6.458l-.838 1.171-.17-.213-.176-.21-.18-.205c-1.434-1.6-2.925-2.206-2.009 3.307H9.789l.069-.434.062-.43c.663-4.904-.996-3.838-2.43-2.109l-.236.294-.837-1.171c2.08-.503 3.659-3.085 3.659-6.458 0-2.559-1.578-4.28-3.683-4.28-2.75 0-3.898 2.343-3.898 5.715 0 5.094 3.109 11.982 8.012 11.982 4.663 0 7.772-6.888 7.772-11.982 0-3.372-1.148-5.716-3.659-5.716Zm35.874-.048c-6.673 0-9.71 4.64-9.71 9.16 0 4.352 2.774 8.585 8.681 8.585 4.688 0 7.462-3.563 7.462-6.696 0-2.487-1.77-4.736-5.453-4.736-2.367 0-4.185 1.627-4.185 3.707 0 .91.694 1.842 2.057 1.842 1.22 0 2.941-.79 3.396-2.344l1.172.861c-1.172.335-2.56 2.057-.383 3.133l-1.052 1.005c.095-1.89-5.047-3.014-5.62.334l-1.125-.909c1.818-.334 1.507-4.998-2.128-4.041l.335-1.411c1.793 1.746 6.027-2.224 2.822-4.616l1.196-.813c.143 1.77 1.22 2.391 3.754 2.391 2.32 0 3.444-1.148 3.444-2.391 0-1.459-1.602-3.061-4.663-3.061Zm85.103 3.475 1.101.934c-1.242.914-2.165 2.048-2.242 2.877l-.006.111c0 1.173 1.22 2.177 2.846 2.511l-.694 1.269-.164-.166c-.978-.964-1.812-1.485-2.49-1.485-.69 0-.938.49-1.064 1.357-.115.789-.052 1.897.177 3.264l.051.282h-1.436c.251-1.392.338-2.54.249-3.372l-.022-.174c-.127-.867-.374-1.357-1.064-1.357-.682 0-1.514.523-2.502 1.497l-.152.154-.694-1.268.172-.039c1.482-.354 2.589-1.27 2.668-2.347l.006-.126c0-.801-.869-1.928-2.081-2.862l-.168-.127 1.1-.932.143.277c.43.82.895 1.53 1.359 2.07l.155.175c.541.588 1.066.945 1.548.945.483 0 1.008-.357 1.549-.945.516-.56 1.036-1.333 1.514-2.245l.141-.278ZM30.154 6.069l-.05.282c-.23 1.367-.293 2.474-.178 3.263.127.867.374 1.358 1.064 1.358l.115-.005c.657-.054 1.452-.57 2.376-1.48l.164-.166.694 1.268-.173.038c-1.54.368-2.673 1.343-2.673 2.473l.005.111c.075.793.918 1.861 2.075 2.752l.167.127-1.1.932-.141-.277c-.479-.912-.999-1.686-1.515-2.246-.54-.587-1.065-.944-1.548-.944-.483 0-1.008.357-1.549.944l-.154.174c-.465.542-.93 1.25-1.36 2.071l-.143.278-1.099-.932.167-.127c1.213-.934 2.081-2.062 2.081-2.863l-.004-.125c-.083-1.118-1.274-2.064-2.842-2.386l.694-1.269.152.155c.988.973 1.82 1.497 2.502 1.497.69 0 .938-.49 1.065-1.358.123-.844.041-2.054-.228-3.545h1.436Z"/>
</svg>