<?xml version="1.0" standalone="no"?>
<!DOCTYPE svg PUBLIC "-//W3C//DTD SVG 20010904//EN"
 "http://www.w3.org/TR/2001/REC-SVG-20010904/DTD/svg10.dtd">
<svg version="1.0" xmlns="http://www.w3.org/2000/svg"
 width="700.000000pt" height="700.000000pt" viewBox="0 0 700.000000 700.000000"
 preserveAspectRatio="xMidYMid meet">
<metadata>
Created by potrace 1.14, written by Peter Selinger 2001-2017
</metadata>
<g transform="translate(0.000000,700.000000) scale(0.100000,-0.100000)"
fill="#000000" stroke="none">
<path d="M1677 6989 c-27 -4 -68 -10 -91 -13 -64 -9 -193 -44 -262 -72 -33
-13 -65 -24 -71 -24 -6 0 -13 -3 -15 -7 -1 -5 -30 -21 -62 -38 -197 -99 -401
-309 -530 -543 -54 -100 -124 -257 -141 -322 -1 -3 -4 -12 -8 -20 -24 -59 -84
-295 -102 -400 -3 -19 -10 -60 -15 -90 -34 -199 -45 -374 -45 -715 0 -265 7
-441 21 -555 23 -191 36 -289 39 -310 3 -14 10 -54 16 -90 34 -213 120 -587
180 -785 42 -138 99 -316 109 -340 5 -11 17 -45 28 -75 30 -84 92 -239 118
-298 13 -29 24 -54 24 -57 0 -7 72 -159 134 -285 313 -626 703 -1126 1149
-1469 189 -145 417 -272 642 -356 65 -25 261 -79 323 -89 15 -3 59 -10 97 -17
89 -15 399 -20 485 -8 36 5 79 11 95 14 201 27 480 129 695 253 56 32 251 165
287 195 128 107 191 163 269 241 80 80 119 122 223 241 57 65 192 246 272 365
89 130 92 136 196 315 64 108 273 525 273 542 0 5 11 31 24 59 75 157 254 665
301 854 2 8 22 87 44 175 33 135 50 209 87 390 10 52 53 327 59 380 4 33 8 74
10 90 24 186 30 320 30 630 -1 261 -7 423 -20 515 -2 14 -6 50 -10 80 -17 142
-43 278 -82 430 -145 571 -425 955 -813 1117 -116 49 -106 45 -235 74 -133 30
-415 33 -545 6 -523 -109 -896 -451 -1089 -999 -17 -49 -29 -88 -26 -88 2 0
-2 -18 -10 -40 -8 -22 -12 -40 -9 -40 2 0 0 -8 -5 -18 -9 -17 -35 -178 -46
-282 -5 -54 -6 -371 -1 -452 14 -212 53 -476 101 -678 17 -70 72 -250 106
-342 39 -109 160 -365 215 -458 35 -59 138 -210 161 -235 10 -11 34 -41 55
-66 94 -117 274 -278 389 -348 67 -42 275 -138 334 -156 33 -10 63 -21 67 -24
8 -7 -54 -98 -159 -236 -5 -5 -21 -29 -36 -53 -15 -23 -34 -50 -42 -60 -8 -9
-30 -38 -48 -65 l-34 -47 -84 102 c-340 418 -630 627 -803 578 -110 -30 -188
-175 -213 -395 -15 -133 -8 -573 12 -720 10 -71 17 -133 20 -170 2 -22 8 -73
14 -113 6 -40 13 -92 16 -115 3 -24 12 -81 20 -128 8 -46 15 -87 15 -91 0 -5
-128 -8 -284 -8 l-285 0 5 22 c5 25 9 51 19 118 4 25 9 53 11 64 2 10 6 44 9
75 4 31 8 63 10 71 2 8 6 40 10 70 3 30 8 71 10 90 21 145 38 411 38 580 1
548 -151 757 -444 611 -155 -77 -416 -322 -626 -588 l-41 -53 -50 68 c-169
231 -280 392 -274 395 4 2 40 14 80 26 255 76 531 272 732 521 25 30 48 57 51
60 3 3 42 61 87 129 90 136 212 376 262 516 18 50 36 99 40 110 24 61 83 278
109 405 17 82 26 137 47 285 27 195 37 535 21 710 -69 772 -533 1342 -1188
1461 -102 18 -371 26 -452 13z"/>
</g>
</svg>
