<svg xmlns="http://www.w3.org/2000/svg" width="189" height="28" viewBox="0 0 189 28"><path fill="#FF0040" d="M36.048,1.07291953e-12 C43.2693206,1.07291953e-12 49.08,5.53649126 49.08,12.936 C49.08,20.3454029 43.2569017,25.936 36.048,25.936 C28.8390983,25.936 23.016,20.3454029 23.016,12.936 C23.016,5.53649126 28.8266794,1.07291953e-12 36.048,1.07291953e-12 Z M173.808,0 C181.029321,0 186.84,5.53649126 186.84,12.936 C186.84,20.3454029 181.016902,25.936 173.808,25.936 C166.599098,25.936 160.776,20.3454029 160.776,12.936 C160.776,5.53649126 166.586679,0 173.808,0 Z M153.184,1 C156.384,1 158.496,5.288 158.496,11.72 C158.496,20.744 153.728,24.68 150.176,24.68 C145.632,24.68 142.464,19.624 142.464,12.072 C142.464,9.832 143.168,8.008 144.256,7.528 L142.944,6.088 C142.543407,9.32355556 140.481097,8.40481756 138.985881,5.13197988 L138.816,4.744 L137.216,5.8 C140.384,7.784 141.6,13 141.6,17.288 C141.6,21.736 139.936,24.68 137.408,24.68 C133.632,24.68 132.16,20.328 132.16,15.336 C132.16,8.712 134.72,1 140.8,1 C145.664,1 148.896,6.12 148.896,13.832 C148.896,15.528 148.8,17.128 148.256,18.472 L150.144,18.824 C149.024,12.712 152.576,14.632 153.888,17.48 L155.104,15.976 C151.072,13.48 149.344,10.408 149.344,6.6 C149.344,2.792 151.072,1 153.184,1 Z M16.224,1 C19.584,1 21.12,4.136 21.12,8.648 C21.12,15.464 16.96,24.68 10.72,24.68 C4.16,24.68 3.90798505e-14,15.464 3.90798505e-14,8.648 C3.90798505e-14,4.136 1.536,1 5.216,1 C8.032,1 10.144,3.304 10.144,6.728 C10.144,11.24 8.032,14.696 5.248,15.368 L6.368,16.936 L6.60453956,16.6400073 C8.59299955,14.2033895 10.9624126,12.623655 9.85245613,19.9387357 L9.76,20.52 L11.68,20.52 C10.4043203,12.836255 12.6216528,14.0363127 14.6091741,16.3685406 L14.8442955,16.6508423 L15.072,16.936 L16.192,15.368 C13.408,14.696 11.296,11.24 11.296,6.728 C11.296,3.304 13.408,1 16.224,1 Z M123.77797,1.0014483 C126.614894,1.07417374 128.5229,3.90899901 128.620104,14.7403347 L128.624,15.624 L128.619817,16.2208472 C128.546436,21.3268916 127.485037,24.68 123.664,24.68 C119.842963,24.68 118.781564,21.3268916 118.708183,16.2208472 L118.704,15.624 L118.707896,14.7403347 C118.8051,3.90899901 120.713106,1.07417374 123.55003,1.0014483 L123.77797,1.0014483 Z M64.224,0.936 C68.32,0.936 70.464,3.08 70.464,5.032 C70.464,6.696 68.96,8.232 65.856,8.232 C62.464,8.232 61.024,7.4 60.832,5.032 L59.232,6.12 C63.52,9.32 57.856,14.632 55.456,12.296 L55.008,14.184 C59.872,12.904 60.288,19.144 57.856,19.592 L59.36,20.808 C60.128,16.328 67.008,17.832 66.88,20.36 L68.288,19.016 C65.376,17.576 67.232,15.272 68.8,14.824 L67.232,13.672 C66.624,15.752 64.32,16.808 62.688,16.808 C60.864,16.808 59.936,15.56 59.936,14.344 C59.936,11.56 62.368,9.384 65.536,9.384 C70.464,9.384 72.832,12.392 72.832,15.72 C72.832,19.912 69.12,24.68 62.848,24.68 C54.944,24.68 51.232,19.016 51.232,13.192 C51.232,7.144 55.296,0.936 64.224,0.936 Z M104.928,1 C108.16,1 109.632,4.392 109.632,8.392 C109.632,12.392 107.808,16.488 105.056,18.6 L106.72,19.56 C107.456,16.808 109.76,15.272 111.968,15.272 C113.856,15.272 115.488,16.36 115.488,18.792 C115.488,21.32 112.672,24.68 108,24.68 C101.316571,24.68 99.7063314,19.1538482 99.6784431,11.387038 L99.68,10.696 C99.744,5.544 101.216,1 104.928,1 Z M86.736,0.936 C93.328,0.936 96.176,4.84 96.176,8.04 C96.176,10.6 94.608,12.296 92.016,12.296 C90.48,12.296 89.456,11.304 89.456,9.832 C89.456,8.552 90.288,7.176 91.888,6.824 L90.48,5.48 C89.4638491,8.46686792 85.8994774,7.12768672 82.4385329,5.22608559 L82.032,5 L81.104,6.696 C83.664,7.048 85.744,7.848 87.12,8.936 C88.112,9.736 88.592,10.824 88.592,11.912 C88.592,13.16 87.984,14.408 86.8,15.176 C85.488,16.04 83.6,16.584 81.072,16.392 L81.584,18.248 C85.136,16.264 87.312,18.184 87.184,21.096 L88.88,20.2 C88.08,19.496 87.696,18.216 87.696,17.48 C87.696,15.784 89.232,13.448 92.016,13.448 C94.288,13.448 96.528,15.016 96.528,17.768 C96.528,21.928 92.592,24.68 86.672,24.68 C79.152,24.68 75.728,20.552 75.728,17.128 C75.728,14.312 77.488,12.84 80.464,12.84 C81.52,12.84 82.608,12.968 83.408,13.224 L83.728,11.336 C83.184,11.56 82.16,11.688 81.136,11.688 C78.096,11.688 76.176,10.376 76.176,7.752 C76.176,4.616 79.536,0.936 86.736,0.936 Z M178.095,5.58642551 L177.905744,5.95797032 C177.265741,7.17827601 176.569657,8.2134431 175.88,8.96242551 C175.156075,9.7486237 174.453996,10.2264255 173.808,10.2264255 C173.162004,10.2264255 172.459925,9.7486237 171.736,8.96242551 L171.528973,8.72924629 C170.907687,8.0045583 170.286258,7.05624544 169.710256,5.95797032 L169.519,5.58742551 L168.047,6.83542551 L168.271976,7.00320168 C169.894035,8.2531537 171.056,9.76227911 171.056,10.8344255 L171.049805,11.0015712 C170.942863,12.442214 169.462409,13.669163 167.479033,14.1431115 L167.248,14.1954255 L168.177,15.8924255 L168.38049,15.6852699 C169.701667,14.3823213 170.815928,13.6824255 171.728,13.6824255 C172.6514,13.6824255 172.98275,14.3378566 173.152,15.4984255 L173.181295,15.7307756 C173.301043,16.8452736 173.18379,18.3803154 172.848,20.2424255 L174.769,20.2434255 L174.702322,19.8654394 C174.395146,18.0363827 174.310019,16.5542946 174.464,15.4984255 C174.63325,14.3378566 174.9646,13.6824255 175.888,13.6824255 C176.795132,13.6824255 177.91139,14.3788782 179.220102,15.6697873 L179.439,15.8914255 L180.368,14.1944255 C178.191781,13.7472573 176.56,12.4027303 176.56,10.8344255 L176.567136,10.6855806 C176.671319,9.57514713 177.905565,8.05937797 179.568,6.83542551 L178.095,5.58642551 Z M37.009,5 L35.088,5 C35.4477754,6.995118 35.5566787,8.61477482 35.392,9.744 C35.2227504,10.9045689 34.8914003,11.56 33.968,11.56 C33.0559279,11.56 31.9416667,10.8601042 30.6204902,9.55715565 L30.417,9.35 L29.488,11.048 C31.5864966,11.4791979 33.1787498,12.7448022 33.2898055,14.2408543 L33.296,14.408 C33.296,15.4801464 32.1340347,16.9892718 30.5119758,18.2392238 L30.288,18.408 L31.759,19.655 L31.9502559,19.2844552 C32.5262584,18.1861801 33.1476869,17.2378672 33.7689726,16.5131792 L33.976,16.28 C34.6999251,15.4938018 35.4020043,15.016 36.048,15.016 C36.6939957,15.016 37.3960749,15.4938018 38.12,16.28 C38.8096571,17.0289824 39.5057413,18.0641495 40.1457441,19.2844552 L40.336,19.655 L41.807,18.408 L41.5840242,18.2392238 C40.0356952,17.0460878 38.9065838,15.6168041 38.8071363,14.556845 L38.8,14.408 C38.8,12.8957061 40.3173069,11.5914913 42.3769666,11.099314 L42.608,11.048 L41.68,9.352 L41.4601022,9.57263824 C40.2240966,10.7918301 39.1597544,11.4807816 38.2811221,11.5535689 L38.128,11.56 C37.2045997,11.56 36.8732496,10.9045689 36.704,9.744 C36.5500191,8.6881309 36.6351459,7.2060428 36.9423224,5.37698608 L37.009,5 Z" transform="translate(0 1.064)"/></svg>