<svg xmlns="http://www.w3.org/2000/svg" width="189" height="28" viewBox="0 0 189 28"><path fill="#FF0040" d="M88.736,7.01660952e-13 C94.7548384,7.01660952e-13 99.2367818,3.15947665 100.045266,7.63000804 C100.897855,2.89262887 103.228849,0.064 106.928,0.064 C111.160252,0.064 113.632,3.87729671 113.632,9.456 C113.632,11.0091968 113.393179,12.5857425 112.939162,14.098148 L112.833,14.431 L113.022651,14.4013322 C113.135522,14.3859031 113.249015,14.373147 113.363078,14.3630924 L113.70692,14.3410614 L113.968,14.336 C116.074986,14.336 117.774316,15.2673457 118.706244,16.8287448 L118.704,16.688 L118.708242,15.7602839 C118.808901,4.95313237 120.711008,0.1967814 125.461574,0.0667452526 L125.676727,0.0640809852 L125.829224,0.0661051504 C130.015595,0.173424067 131.991582,3.83877448 132.492415,11.9316096 C133.590491,4.88048064 137.345167,0.064 142.8,0.064 C145.677859,0.064 148.131222,1.41532903 149.900824,3.83853606 L149.964,3.928 L149.974895,3.90080336 C150.82743,1.6726449 152.501969,0.260415527 154.728939,0.0823224029 L154.961275,0.0683185122 L155.184,0.064 C159.169807,0.064 161.74632,3.96507623 162.356176,9.93107157 C164.065793,4.13053782 169.376662,0.064 175.808,0.064 C183.658831,0.064 189.84,6.12373169 189.84,14 C189.84,21.8894676 183.642529,28 175.808,28 C169.029359,28 163.476246,23.4255529 162.102547,17.082334 C160.895643,23.4236117 157.028764,27.744 152.176,27.744 C149.242999,27.744 146.76747,26.2133602 145.052694,23.5480538 L144.854,23.227 L144.824051,23.3126415 C143.895035,25.8855243 142.169383,27.5251644 139.856346,27.724484 L139.630677,27.7392597 L139.408,27.744 C135.602504,27.744 133.224445,24.8763313 132.443742,20.1403253 C131.85108,25.2454134 129.754184,27.744 125.664,27.744 C122.168259,27.744 120.116327,25.8829743 119.228663,22.14884 L119.16,21.851 L119.081563,22.0755149 C117.884676,25.2884627 114.195548,27.744 110,27.744 C104.822243,27.744 101.777274,25.1901086 100.458351,19.9189234 C99.8457496,24.6925691 95.1645423,27.744 88.672,27.744 C82.3201768,27.744 77.4249098,24.81795 76.0903413,20.5746044 C74.4101519,24.7345636 70.0413466,27.744 64.848,27.744 C57.9457979,27.744 52.9656265,23.7182669 51.6050121,17.6964982 L51.5309272,17.9697739 C49.8519873,23.8478285 44.5061927,28 38.048,28 C30.9706482,28 25.2292144,23.0135112 24.1855453,16.2337015 C22.3138439,22.6836022 17.8409057,27.744 12.72,27.744 C5.72263472,27.744 0,19.0049236 0,9.712 C0,3.72533045 2.53772984,0.064 7.216,0.064 C9.43607512,0.064 11.3609137,1.08039371 12.6180549,2.80133413 L12.718,2.944 L12.8630618,2.7428883 C14.0160198,1.19856551 15.7223803,0.2304545 17.7099947,0.0831350631 L17.9827508,0.0681565697 L18.224,0.064 C22.365421,0.064 24.7797517,3.30952261 25.0866305,8.5450813 C27.1810041,3.49325342 32.1420638,0.064 38.048,0.064 C44.7023863,0.064 50.1572359,4.41749549 51.6652966,10.5406201 C53.1969813,4.23318868 58.6781245,7.01660952e-13 66.224,7.01660952e-13 C70.8847871,7.01660952e-13 74.464,2.56179541 74.464,6.096 C74.464,7.43293626 73.9388639,8.61151072 73.0034264,9.50851606 L72.777,9.712 L72.8910398,9.77679815 C74.7978873,10.8888273 76.0987792,12.6353046 76.6010756,14.7645088 C76.947676,14.1846665 77.3948846,13.6811478 77.9347274,13.2645302 L78.065,13.168 L78.0242024,13.134621 C76.9482725,12.2025558 76.311062,10.9025162 76.1948193,9.32819066 L76.1802834,9.06327945 L76.176,8.816 C76.176,3.70980808 81.4881268,7.01660952e-13 88.736,7.01660952e-13 Z M38.048,2.064 C31.616,2.064 26.016,6.928 26.016,14 C26.016,21.072 31.616,26 38.048,26 C44.48,26 50.08,21.072 50.08,14 C50.08,6.928 44.48,2.064 38.048,2.064 Z M175.808,2.064 C169.376,2.064 163.776,6.928 163.776,14 C163.776,21.072 169.376,26 175.808,26 C182.24,26 187.84,21.072 187.84,14 C187.84,6.928 182.24,2.064 175.808,2.064 Z M88.736,2 C81.536,2 78.176,5.68 78.176,8.816 C78.176,11.44 80.096,12.752 83.136,12.752 C84.16,12.752 85.184,12.624 85.728,12.4 L85.408,14.288 C84.608,14.032 83.52,13.904 82.464,13.904 C79.488,13.904 77.728,15.376 77.728,18.192 C77.728,21.616 81.152,25.744 88.672,25.744 C94.592,25.744 98.528,22.992 98.528,18.832 C98.528,16.08 96.288,14.512 94.016,14.512 C91.232,14.512 89.696,16.848 89.696,18.544 C89.696,19.28 90.08,20.56 90.88,21.264 L89.184,22.16 C89.312,19.248 87.136,17.328 83.584,19.312 L83.072,17.456 C85.6,17.648 87.488,17.104 88.8,16.24 C89.984,15.472 90.592,14.224 90.592,12.976 C90.592,11.888 90.112,10.8 89.12,10 C87.744,8.912 85.664,8.112 83.104,7.76 L84.032,6.064 L84.4385329,6.29008559 L84.8541729,6.51533724 C88.18055,8.29189954 91.5044951,9.41139321 92.48,6.544 L93.888,7.888 C92.288,8.24 91.456,9.616 91.456,10.896 C91.456,12.368 92.48,13.36 94.016,13.36 C96.608,13.36 98.176,11.664 98.176,9.104 C98.176,5.904 95.328,2 88.736,2 Z M106.928,2.064 C103.216,2.064 101.744,6.608 101.68,11.76 L101.678443,12.451038 C101.706331,20.2178482 103.316571,25.744 110,25.744 C114.672,25.744 117.488,22.384 117.488,19.856 C117.488,17.424 115.856,16.336 113.968,16.336 C111.76,16.336 109.456,17.872 108.72,20.624 L107.056,19.664 C109.808,17.552 111.632,13.456 111.632,9.456 C111.632,5.456 110.16,2.064 106.928,2.064 Z M125.77797,2.0654483 L125.55003,2.0654483 C122.637454,2.14011308 120.704,5.12615385 120.704,16.688 L120.708183,17.2848472 C120.781564,22.3908916 121.842963,25.744 125.664,25.744 C129.485037,25.744 130.546436,22.3908916 130.619817,17.2848472 L130.624,16.688 L130.620104,15.8043347 C130.5229,4.97299901 128.614894,2.13817374 125.77797,2.0654483 Z M155.184,2.064 C153.072,2.064 151.344,3.856 151.344,7.664 C151.344,11.472 153.072,14.544 157.104,17.04 L155.888,18.544 C154.576,15.696 151.024,13.776 152.144,19.888 L150.256,19.536 C150.8,18.192 150.896,16.592 150.896,14.896 C150.896,7.184 147.664,2.064 142.8,2.064 C136.72,2.064 134.16,9.776 134.16,16.4 L134.161578,16.6818576 C134.216367,21.5546771 135.703245,25.744 139.408,25.744 C141.936,25.744 143.6,22.8 143.6,18.352 C143.6,14.064 142.384,8.848 139.216,6.864 L140.816,5.808 L140.985881,6.19597988 C142.481097,9.46881756 144.543407,10.3875556 144.944,7.152 L146.256,8.592 C145.168,9.072 144.464,10.896 144.464,13.136 C144.464,20.688 147.632,25.744 152.176,25.744 C155.728,25.744 160.496,21.808 160.496,12.784 C160.496,6.352 158.384,2.064 155.184,2.064 Z M18.224,2.064 C15.408,2.064 13.296,4.368 13.296,7.792 C13.296,12.304 15.408,15.76 18.192,16.432 L17.072,18 L16.8442955,17.7148423 L16.6091741,17.4325406 L16.3698067,17.1586038 C14.4498551,15.0185221 12.4553475,14.2076048 13.68,21.584 L11.76,21.584 L11.8524561,21.0027357 L11.9349042,20.4289543 C12.8221185,13.8661065 10.602401,15.2915073 8.68535198,17.6057147 L8.368,18 L7.248,16.432 C10.032,15.76 12.144,12.304 12.144,7.792 C12.144,4.368 10.032,2.064 7.216,2.064 C3.536,2.064 2,5.2 2,9.712 C2,16.528 6.16,25.744 12.72,25.744 C18.96,25.744 23.12,16.528 23.12,9.712 C23.12,5.2 21.584,2.064 18.224,2.064 Z M66.224,2 C57.296,2 53.232,8.208 53.232,14.256 C53.232,20.08 56.944,25.744 64.848,25.744 C71.12,25.744 74.832,20.976 74.832,16.784 C74.832,13.456 72.464,10.448 67.536,10.448 C64.368,10.448 61.936,12.624 61.936,15.408 C61.936,16.624 62.864,17.872 64.688,17.872 C66.32,17.872 68.624,16.816 69.232,14.736 L70.8,15.888 C69.232,16.336 67.376,18.64 70.288,20.08 L68.88,21.424 C69.008,18.896 62.128,17.392 61.36,21.872 L59.856,20.656 C62.288,20.208 61.872,13.968 57.008,15.248 L57.456,13.36 C59.856,15.696 65.52,10.384 61.232,7.184 L62.832,6.096 C63.024,8.464 64.464,9.296 67.856,9.296 C70.96,9.296 72.464,7.76 72.464,6.096 C72.464,4.144 70.32,2 66.224,2 Z M180.095,6.65042551 L181.568,7.89942551 C179.905565,9.12337797 178.671319,10.6391471 178.567136,11.7495806 L178.56,11.8984255 C178.56,13.4667303 180.191781,14.8112573 182.368,15.2584255 L181.439,16.9554255 L181.220102,16.7337873 C179.91139,15.4428782 178.795132,14.7464255 177.888,14.7464255 C176.9646,14.7464255 176.63325,15.4018566 176.464,16.5624255 C176.310019,17.6182946 176.395146,19.1003827 176.702322,20.9294394 L176.769,21.3074255 L174.848,21.3064255 C175.18379,19.4443154 175.301043,17.9092736 175.181295,16.7947756 L175.152,16.5624255 C174.98275,15.4018566 174.6514,14.7464255 173.728,14.7464255 C172.815928,14.7464255 171.701667,15.4463213 170.38049,16.7492699 L170.177,16.9564255 L169.248,15.2594255 L169.479033,15.2071115 C171.462409,14.733163 172.942863,13.506214 173.049805,12.0655712 L173.056,11.8984255 C173.056,10.8262791 171.894035,9.3171537 170.271976,8.06720168 L170.047,7.89942551 L171.519,6.65142551 L171.710256,7.02197032 C172.286258,8.12024544 172.907687,9.0685583 173.528973,9.79324629 L173.736,10.0264255 C174.459925,10.8126237 175.162004,11.2904255 175.808,11.2904255 C176.453996,11.2904255 177.156075,10.8126237 177.88,10.0264255 C178.569657,9.2774431 179.265741,8.24227601 179.905744,7.02197032 L180.095,6.65042551 Z M39.009,6.064 L38.9423224,6.44098608 C38.6351459,8.2700428 38.5500191,9.7521309 38.704,10.808 C38.8732496,11.9685689 39.2045997,12.624 40.128,12.624 L40.2811221,12.6175689 C41.1597544,12.5447816 42.2240966,11.8558301 43.4601022,10.6366382 L43.68,10.416 L44.608,12.112 L44.3769666,12.163314 C42.3173069,12.6554913 40.8,13.9597061 40.8,15.472 L40.8071363,15.620845 C40.9065838,16.6808041 42.0356952,18.1100878 43.5840242,19.3032238 L43.807,19.472 L42.336,20.719 L42.1457441,20.3484552 C41.5057413,19.1281495 40.8096571,18.0929824 40.12,17.344 C39.3960749,16.5578018 38.6939957,16.08 38.048,16.08 C37.4020043,16.08 36.6999251,16.5578018 35.976,17.344 L35.7689726,17.5771792 C35.1476869,18.3018672 34.5262584,19.2501801 33.9502559,20.3484552 L33.759,20.719 L32.288,19.472 L32.5119758,19.3032238 C34.1340347,18.0532718 35.296,16.5441464 35.296,15.472 L35.2898055,15.3048543 C35.1787498,13.8088022 33.5864966,12.5431979 31.488,12.112 L32.417,10.414 L32.6204902,10.6211556 C33.9416667,11.9241042 35.0559279,12.624 35.968,12.624 C36.8914003,12.624 37.2227504,11.9685689 37.392,10.808 C37.5566787,9.67877482 37.4477754,8.059118 37.088,6.064 L39.009,6.064 Z"/></svg>