<svg width="24" height="25" viewBox="0 0 24 25" fill="none" xmlns="http://www.w3.org/2000/svg">
<path fill-rule="evenodd" clip-rule="evenodd" d="M6.98177 14.7112H10.1103V14.6691L10.7999 16.6875C10.8168 16.7464 10.8756 16.7885 10.9345 16.7801H12.6922C12.7763 16.7801 12.8015 16.738 12.7763 16.6455L9.70663 8.06728C9.69822 8.02523 9.65617 8 9.5973 8H7.44432H7.41909C7.37704 8.00841 7.3434 8.05046 7.35181 8.09251C7.35181 8.27753 7.33499 8.46255 7.30135 8.63916L7.30135 8.63917C7.26771 8.74009 7.24248 8.81577 7.21725 8.89987L4.50921 16.6623C4.48398 16.7632 4.50921 16.8137 4.60172 16.8137H6.18281C6.2585 16.8221 6.32578 16.7716 6.3426 16.696L6.98177 14.7112ZM9.6057 13.0376H7.46955C7.5957 12.6844 7.73026 12.2891 7.83959 11.8602C7.9229 11.5999 8.00299 11.3395 8.08184 11.0832C8.13036 10.9255 8.17841 10.7693 8.22646 10.6155C8.3442 10.2539 8.43671 9.89225 8.5124 9.53062H8.52922C8.56204 9.64314 8.59485 9.76088 8.62913 9.88385C8.65634 9.98148 8.68446 10.0824 8.71424 10.1866C8.78152 10.4305 8.85721 10.6744 8.94131 10.9351C8.98336 11.0654 9.02331 11.1937 9.06325 11.3219C9.1032 11.4502 9.14315 11.5785 9.1852 11.7088C9.26089 11.9611 9.33658 12.205 9.41227 12.4321C9.48796 12.6507 9.55524 12.861 9.6057 13.0376ZM15.0638 13.9544H17.7297C17.8424 13.9544 17.9506 13.9633 18.0555 13.972C18.1542 13.9802 18.2499 13.9881 18.3437 13.9881C18.5371 13.9881 18.6969 13.9796 18.8315 13.9628C18.8787 13.9599 18.9208 13.9569 18.9576 13.9543C19.0258 13.9495 19.0762 13.946 19.109 13.946C19.1679 13.946 19.2183 13.8955 19.2267 13.8367C19.2305 13.803 19.2342 13.7609 19.2387 13.7105C19.2443 13.6478 19.251 13.5721 19.2604 13.4835C19.2688 13.3237 19.2772 13.1471 19.2772 12.9452C19.2772 12.6004 19.2267 12.2556 19.1174 11.9192C19.0081 11.566 18.8315 11.2464 18.6128 10.9605C18.3773 10.6661 18.0746 10.439 17.7297 10.2877C17.3177 10.1026 16.8719 10.0185 16.4262 10.0269C15.8879 10.0269 15.417 10.0942 15.0217 10.2877C14.6264 10.4811 14.2816 10.7502 14.0041 11.0866C13.7181 11.4314 13.5079 11.8183 13.3733 12.2388C13.2304 12.6761 13.1631 13.1218 13.1631 13.576C13.1631 13.9965 13.222 14.4086 13.3397 14.8038C13.4574 15.2075 13.6509 15.5775 13.92 15.9055C14.2059 16.2504 14.5676 16.5279 14.9797 16.7045C15.417 16.8979 15.9552 16.9988 16.5944 16.9988C16.9981 17.0073 17.3933 16.9736 17.7886 16.8979C18.083 16.8475 18.3605 16.7634 18.6296 16.6456C18.6548 16.6288 18.6717 16.612 18.6885 16.5868L18.6885 16.5867C18.6969 16.5531 18.7053 16.5195 18.7053 16.4858V15.1991C18.7053 15.115 18.6801 15.0982 18.638 15.1318C18.4025 15.2243 18.1502 15.2916 17.8895 15.3252C17.6036 15.3841 17.3092 15.4093 17.0149 15.4178C16.6448 15.4262 16.2748 15.3505 15.9384 15.2075C15.6861 15.1066 15.4758 14.93 15.3245 14.7029C15.1815 14.4758 15.0974 14.2151 15.0638 13.9544ZM16.8383 12.7266H15.0638C15.089 12.5163 15.1479 12.3145 15.2488 12.121C15.4674 11.7005 15.9048 11.4566 16.3673 11.4819C16.8635 11.4651 17.3092 11.7846 17.4606 12.2556C17.4943 12.3565 17.5111 12.4574 17.5111 12.5668V12.6509C17.4522 12.6929 17.3849 12.7097 17.3177 12.7181C17.2167 12.7266 17.0569 12.7266 16.8383 12.7266Z" fill="#E30002"/>
<path d="M20.325 3.03984H3.675C3.00237 3.03984 2.45 3.58211 2.45 4.25977V20.9199C2.45 21.5976 3.00238 22.1398 3.675 22.1398H20.325C20.9976 22.1398 21.55 21.5976 21.55 20.9199V4.25977C21.55 3.5821 20.9976 3.03984 20.325 3.03984Z" stroke="#E30002" stroke-width="1.1"/>
</svg>
