<svg width="24" height="25" viewBox="0 0 24 25" fill="none" xmlns="http://www.w3.org/2000/svg">
<path d="M16.411 4.64016C15.0543 3.92279 13.5403 3.54727 12.001 3.54972C6.78193 3.54972 2.55007 7.78071 2.55007 12.9998C2.55007 18.2189 6.78106 22.45 12.0001 22.45C17.2191 22.45 21.45 18.2189 21.45 12.9998C21.4526 11.3764 21.0348 9.77907 20.2373 8.36501C20.0881 8.10043 20.1816 7.76499 20.4462 7.61577C20.7108 7.46656 21.0462 7.56008 21.1954 7.82466C22.0862 9.40413 22.5529 11.1873 22.55 13.0007C22.5496 18.8269 17.8263 23.55 12.0001 23.55C6.17353 23.55 1.45007 18.8264 1.45007 12.9998C1.45007 7.17336 6.1733 2.44995 11.9997 2.44972C13.746 2.44701 15.4631 2.87981 16.9965 3.70582C17.1981 3.57618 17.4379 3.50098 17.6953 3.50098C18.4097 3.50098 18.9888 4.08012 18.9888 4.79449C18.9888 5.50889 18.4097 6.088 17.6953 6.088C16.981 6.088 16.4019 5.50889 16.4019 4.79449C16.4019 4.74226 16.405 4.69077 16.411 4.64016Z" fill="#E30002"/>
<path d="M13.6713 7.80371H10.3289L6.95728 17.3852H9.16169L9.85323 15.4256H13.1963L12.603 13.7398H10.444L12.0001 9.31658L14.8379 17.3837L14.8385 17.3852H17.0429L13.6713 7.80371Z" fill="#E30002"/>
</svg>
