<svg width="24" height="25" viewBox="0 0 24 25" fill="none" xmlns="http://www.w3.org/2000/svg">
<path d="M17.6632 12.5288C16.513 12.5288 15.4099 12.975 14.5966 13.7694C13.7833 14.5637 13.3264 15.641 13.3264 16.7644C13.3264 17.8877 13.7833 18.9651 14.5966 19.7594C15.4099 20.5537 16.513 21 17.6632 21C18.8134 21 19.9165 20.5537 20.7298 19.7594C21.5431 18.9651 22 17.8877 22 16.7644C22 15.641 21.5431 14.5637 20.7298 13.7694C19.9165 12.975 18.8134 12.5288 17.6632 12.5288ZM6.39678 12.5296C5.82229 12.5218 5.25194 12.6256 4.71886 12.8349C4.18578 13.0442 3.70061 13.3549 3.29152 13.7489C2.88244 14.1429 2.5576 14.6124 2.33589 15.13C2.11417 15.6477 2 16.2033 2 16.7644C2 17.3255 2.11417 17.8811 2.33589 18.3987C2.5576 18.9164 2.88244 19.3859 3.29152 19.7799C3.70061 20.1739 4.18578 20.4846 4.71886 20.6939C5.25194 20.9032 5.82229 21.007 6.39678 20.9992C7.53629 20.9837 8.62376 20.5307 9.42397 19.7382C10.2242 18.9457 10.6728 17.8774 10.6728 16.7644C10.6728 15.6514 10.2242 14.5831 9.42397 13.7906C8.62376 12.9981 7.53629 12.5451 6.39678 12.5296ZM16.366 7.2352C16.366 8.35844 15.9091 9.43568 15.0959 10.2299C14.2826 11.0242 13.1796 11.4704 12.0296 11.4704C10.8795 11.4704 9.77649 11.0242 8.96326 10.2299C8.15003 9.43568 7.69316 8.35844 7.69316 7.2352C7.69316 6.11195 8.15003 5.03471 8.96326 4.24046C9.77649 3.44621 10.8795 3 12.0296 3C13.1796 3 14.2826 3.44621 15.0959 4.24046C15.9091 5.03471 16.366 6.11195 16.366 7.2352Z" fill="#E30002"/>
</svg>
