<svg width="24" height="25" viewBox="0 0 24 25" fill="none" xmlns="http://www.w3.org/2000/svg">
<path d="M9.15932 18.902C8.39048 18.1795 8.16603 16.6614 8.48636 15.5615C9.04178 16.2549 9.81135 16.4746 10.6085 16.5986C11.8391 16.7899 13.0476 16.7184 14.1908 16.1401C14.3215 16.0739 14.4424 15.9859 14.5853 15.8968C14.6926 16.2167 14.7205 16.5397 14.683 16.8684C14.5919 17.669 14.2044 18.2874 13.588 18.7562C13.3415 18.9437 13.0807 19.1113 12.8261 19.2881C12.044 19.8315 11.8325 20.4687 12.1263 21.3955C12.1333 21.4182 12.1396 21.4408 12.1554 21.4959C11.756 21.3121 11.4644 21.0446 11.2421 20.6928C11.0074 20.3217 10.8957 19.9111 10.8899 19.4668C10.8869 19.2506 10.8869 19.0325 10.8586 18.8193C10.7896 18.2996 10.5523 18.0669 10.1052 18.0536C9.64642 18.0398 9.28349 18.3314 9.18725 18.7906C9.1799 18.8258 9.16924 18.8606 9.15858 18.9016L9.15932 18.902Z" fill="#E30002"/>
<path d="M4.77115 15.3783C4.77115 15.3783 7.04782 14.2381 9.33086 14.2381L11.0522 8.76155C11.1166 8.49671 11.3048 8.31672 11.5172 8.31672C11.7296 8.31672 11.9178 8.49671 11.9823 8.76155L13.7036 14.2381C16.4075 14.2381 18.2633 15.3783 18.2633 15.3783C18.2633 15.3783 14.3962 4.54815 14.3886 4.52642C14.2776 4.20622 14.0903 4 13.8376 4H9.19719C8.94458 4 8.76477 4.20622 8.64623 4.52642C8.63786 4.54774 4.77115 15.3783 4.77115 15.3783Z" fill="#E30002"/>
</svg>
