<svg width="24" height="25" viewBox="0 0 24 25" fill="none" xmlns="http://www.w3.org/2000/svg">
<path d="M4.61153 11.7156C7.89101 11.1753 10.4596 8.46415 10.9998 5.18672L11.1806 3.61022C11.2248 3.35921 11.0561 3.01176 10.7387 3.03586C8.26058 3.22865 5.92494 4.04602 4.62159 4.57823C3.9769 4.84126 3.55518 5.46987 3.55518 6.16675V11.3079C3.55518 11.6131 3.8283 11.8441 4.12955 11.7959L4.61153 11.7175V11.7156Z" fill="#E30002"/>
<path d="M12.5805 5.18525C13.1208 8.46476 15.6893 11.1739 18.9689 11.7141L19.4509 11.7924C19.7521 11.8426 20.0252 11.6097 20.0252 11.3044V6.16331C20.0252 5.46644 19.6034 4.83985 18.9588 4.57479C17.6574 4.04259 15.3198 3.22522 12.8416 3.03243C12.5243 3.00832 12.3596 3.35976 12.3978 3.60679L12.5785 5.18329L12.5805 5.18525Z" fill="#E30002"/>
<path d="M18.9668 13.1532C14.4863 14.0368 12.4058 17.0151 12.4058 22.6543C12.4058 22.9375 12.687 23.1323 12.9219 22.9756C14.9824 21.5859 19.5171 17.959 19.985 13.4203C20.0031 12.848 19.2881 13.1171 18.9668 13.1532Z" fill="#E30002"/>
<path d="M4.61299 13.1533C9.09348 14.0369 11.1741 17.0152 11.1741 22.6543C11.1741 22.9375 10.8929 23.1322 10.6579 22.9756C8.59746 21.5859 4.06276 17.959 3.59482 13.4203C3.57675 12.848 4.2917 13.1171 4.61299 13.1533Z" fill="#E30002"/>
</svg>
