<svg width="24" height="25" viewBox="0 0 24 25" fill="none" xmlns="http://www.w3.org/2000/svg">
<path fill-rule="evenodd" clip-rule="evenodd" d="M5.56947 4C4.31417 4 3.38532 5.0987 3.4269 6.29024C3.4668 7.43498 3.41497 8.91756 3.04171 10.1266C2.66734 11.3392 2.03419 12.1074 1 12.206V13.3194C2.03419 13.4181 2.66734 14.1862 3.04171 15.3988C3.41497 16.6079 3.4668 18.0904 3.4269 19.2352C3.38532 20.4265 4.31417 21.5254 5.56966 21.5254H18.4322C19.6875 21.5254 20.6162 20.4267 20.5746 19.2352C20.5347 18.0904 20.5865 16.6079 20.9598 15.3988C21.3343 14.1862 21.9658 13.4181 23 13.3194V12.206C21.9658 12.1074 21.3343 11.3392 20.9598 10.1266C20.5865 8.91775 20.5347 7.43498 20.5746 6.29024C20.6162 5.09888 19.6875 4 18.4322 4H5.56929H5.56947ZM15.9153 14.788C15.9153 16.4287 14.6915 17.4237 12.6606 17.4237H9.20339C9.1045 17.4237 9.00965 17.3844 8.93972 17.3145C8.86979 17.2446 8.83051 17.1497 8.83051 17.0508V8.47458C8.83051 8.37568 8.86979 8.28084 8.93972 8.21091C9.00965 8.14098 9.1045 8.10169 9.20339 8.10169H12.6408C14.3342 8.10169 15.4456 9.01898 15.4456 10.4274C15.4456 11.4159 14.698 12.3009 13.7455 12.4558V12.5075C15.0422 12.6497 15.9153 13.5476 15.9153 14.788ZM12.2836 9.28373H10.3123V12.068H11.9726C13.2561 12.068 13.9638 11.5512 13.9638 10.6274C13.9638 9.76176 13.3552 9.28373 12.2836 9.28373ZM10.3123 13.1729V16.2413H12.3561C13.6923 16.2413 14.4002 15.7051 14.4002 14.6974C14.4002 13.6895 13.6726 13.1727 12.2702 13.1727L10.3123 13.1729Z" fill="#E30002"/>
</svg>
