<svg width="24" height="25" viewBox="0 0 24 25" fill="none" xmlns="http://www.w3.org/2000/svg">
<path d="M8.09317 4.27956L8.0943 4.27886C8.49672 4.02974 8.87369 3.79851 9.23674 3.58384L9.23719 3.58357C10.3555 2.92087 11.2022 2.55 12 2.55C12.8028 2.55 13.5319 2.86537 14.568 3.4782L14.568 3.47826L14.5756 3.48264C14.8842 3.65852 15.1955 3.8514 15.5354 4.06741L15.5354 4.06744L15.5411 4.07098L15.56 4.08266C16.3526 4.57291 17.2591 5.13358 18.4495 5.77379C21.6208 7.48678 23.45 10.3023 23.45 13.2641C23.45 18.1554 18.4338 22.3302 12 22.3302C5.56624 22.3302 0.55 18.1554 0.55 13.2641C0.55 10.3057 2.37902 7.48723 5.54968 5.77426C6.43854 5.30013 7.21178 4.82317 7.89212 4.4035C7.96006 4.36159 8.02706 4.32026 8.09317 4.27956Z" stroke="#E30002" stroke-width="1.1"/>
<path d="M11.0784 3.60989C11.0829 4.36549 10.9242 5.11315 10.6133 5.80183C10.3024 6.4905 9.84651 7.10397 9.2768 7.60033C9.1872 7.68033 9.2576 7.83393 9.3728 7.78913C10.4512 7.36993 11.9072 6.11551 11.2928 3.58429C11.2672 3.44029 11.0784 3.47869 11.0784 3.60989Z" fill="#E30002"/>
<path d="M11.8048 3.60989C12.1963 4.24875 12.4451 4.96473 12.534 5.70874C12.623 6.45274 12.5499 7.20718 12.32 7.92033C12.2816 8.03233 12.4192 8.12833 12.496 8.03553C13.1968 7.13952 13.808 5.36031 11.9776 3.44029C11.8848 3.35709 11.7408 3.48509 11.8048 3.59709V3.60989Z" fill="#E30002"/>
<path d="M12.688 3.55549C13.3012 3.98959 13.8141 4.55013 14.1922 5.19931C14.5704 5.84849 14.8049 6.57121 14.88 7.31873C14.8768 7.34566 14.884 7.37281 14.9003 7.39455C14.9165 7.41628 14.9405 7.43093 14.9672 7.43546C14.994 7.43998 15.0214 7.43404 15.0439 7.41886C15.0664 7.40368 15.0822 7.38043 15.088 7.35393C15.3824 6.23711 15.216 4.3331 12.7936 3.34429C12.6656 3.29309 12.5824 3.46589 12.688 3.54269V3.55549Z" fill="#E30002"/>
<path d="M6.7808 6.88352C7.51017 6.66562 8.18547 6.29655 8.76272 5.80033C9.33998 5.30411 9.80626 4.69188 10.1312 4.00349C10.1888 3.88829 10.3712 3.93309 10.3424 4.06109C9.7888 6.62112 7.936 7.15552 6.784 7.08512C6.6624 7.08832 6.6656 6.91872 6.7808 6.88352Z" fill="#E30002"/>
<path d="M10.6048 17.2611C10.9938 17.6288 11.4956 17.8543 12.0288 17.9011C12.5609 17.8536 13.0615 17.6282 13.4496 17.2611C13.945 16.8421 14.2936 16.2759 14.4448 15.645C14.4563 15.5891 14.4551 15.5313 14.4413 15.4759C14.4274 15.4205 14.4013 15.369 14.3648 15.325C14.3205 15.2726 14.265 15.2308 14.2025 15.2025C14.1399 15.1743 14.0718 15.1604 14.0032 15.1618H10.0544C9.9857 15.1597 9.91739 15.1733 9.85472 15.2016C9.79205 15.2299 9.73668 15.2721 9.69282 15.325C9.65599 15.3688 9.62941 15.4203 9.61502 15.4756C9.60062 15.531 9.59878 15.5889 9.60962 15.645C9.76082 16.2759 10.1095 16.8421 10.6048 17.2611Z" fill="#E30002"/>
<path d="M9.04441 13.9608C8.75403 14.1542 8.41282 14.257 8.06396 14.2564C7.59688 14.2556 7.14922 14.0694 6.81925 13.7388C6.48928 13.4083 6.30396 12.9603 6.30396 12.4932C6.30396 12.1443 6.40745 11.8033 6.60133 11.5133C6.79522 11.2232 7.07078 10.9973 7.39315 10.8639C7.71552 10.7305 8.0702 10.6958 8.41232 10.7641C8.75443 10.8324 9.0686 11.0006 9.31506 11.2475C9.56152 11.4945 9.72919 11.8089 9.79686 12.1512C9.86454 12.4934 9.82916 12.848 9.69522 13.1702C9.56128 13.4923 9.33478 13.7675 9.04441 13.9608Z" fill="#E30002"/>
<path d="M16.9734 13.9655C16.6818 14.1577 16.3396 14.2589 15.9904 14.2564C15.5247 14.2539 15.079 14.0669 14.7509 13.7364C14.4228 13.4059 14.2391 12.9589 14.24 12.4932C14.24 12.1439 14.3437 11.8025 14.538 11.5123C14.7323 11.2221 15.0085 10.9961 15.3314 10.863C15.6543 10.7299 16.0095 10.6958 16.3519 10.7649C16.6942 10.8339 17.0084 11.0031 17.2545 11.251C17.5005 11.4989 17.6674 11.8143 17.734 12.1571C17.8006 12.5 17.7639 12.8549 17.6284 13.1769C17.493 13.4988 17.265 13.7733 16.9734 13.9655Z" fill="#E30002"/>
</svg>
