<svg width="24" height="25" viewBox="0 0 24 25" fill="none" xmlns="http://www.w3.org/2000/svg">
<path d="M3.65328 17.693C3.46598 17.9799 3.25505 18.3494 3.07899 18.6273C2.92094 18.8939 3.00587 19.2426 3.27248 19.4063L6.99609 21.6973C7.26833 21.8644 7.62607 21.7766 7.78975 21.501C7.93937 21.2518 8.12949 20.9295 8.3376 20.5842C9.81411 18.1497 11.2962 18.4456 13.968 19.7258L17.6854 21.4779C17.9785 21.6186 18.3272 21.4898 18.456 21.1939L20.2312 17.1834C20.3544 16.8965 20.2284 16.5624 19.9443 16.4336C18.699 15.8475 17.4599 15.2586 16.2207 14.664C11.1821 12.2268 6.91622 12.3877 3.65272 17.693H3.65328ZM20.3493 8.30633C20.5338 8.00484 20.7448 7.64991 20.9208 7.36867C21.0789 7.10206 20.9911 6.75613 20.7301 6.59526L17.0065 4.30147C16.7343 4.13441 16.3765 4.22216 16.2129 4.49777C16.0666 4.74976 15.8731 5.06925 15.6622 5.41743C14.1885 7.85184 12.7036 7.55317 10.0318 6.27577L6.32899 4.52083C6.03594 4.38021 5.6872 4.51183 5.5584 4.80489L3.78603 8.81537C3.66003 9.10224 3.78884 9.43635 4.07289 9.56516C4.85192 9.93134 6.39874 10.6665 7.7965 11.3347C12.8177 13.7691 17.0892 13.6083 20.3499 8.30577L20.3493 8.30633Z" fill="#E30002"/>
</svg>
