<svg width="24" height="25" viewBox="0 0 24 25" fill="none" xmlns="http://www.w3.org/2000/svg">
<g clip-path="url(#clip0_292_2784)">
<g clip-path="url(#clip1_292_2784)">
<path d="M3.67543 9.75049C4.08391 9.75049 4.40087 9.8581 4.62631 10.0733C4.85177 10.2885 4.97695 10.533 5.00184 10.8068H4.5758C4.52748 10.5989 4.43086 10.4342 4.28592 10.3127C4.14244 10.1912 3.9404 10.1304 3.6798 10.1304C3.3621 10.1304 3.10516 10.2424 2.90897 10.4664C2.71425 10.689 2.61689 11.0308 2.61689 11.492C2.61689 11.8697 2.70473 12.1764 2.88042 12.4121C3.05757 12.6464 3.32109 12.7635 3.67099 12.7635C3.99308 12.7635 4.23831 12.6398 4.40669 12.3923C4.49599 12.262 4.56261 12.0908 4.60653 11.8785H5.03256C4.9945 12.2181 4.86859 12.5029 4.65484 12.7328C4.39863 13.0095 4.05312 13.1478 3.6183 13.1478C3.24351 13.1478 2.92875 13.0344 2.67402 12.8074C2.33877 12.5073 2.17114 12.0439 2.17114 11.4173C2.17114 10.9415 2.29705 10.5514 2.54887 10.2468C2.82118 9.91594 3.19668 9.75049 3.67543 9.75049Z" fill="#E30002"/>
<path d="M5.85171 12.0232C5.86196 12.2062 5.90515 12.3548 5.98128 12.469C6.12622 12.6827 6.3817 12.7896 6.74771 12.7896C6.91169 12.7896 7.06102 12.7662 7.19571 12.7193C7.45631 12.6286 7.58661 12.466 7.58661 12.2318C7.58661 12.0561 7.53171 11.9309 7.4219 11.8563C7.31064 11.7831 7.13642 11.7194 6.89924 11.6652L6.46222 11.5664C6.17673 11.502 5.97469 11.431 5.8561 11.3534C5.65113 11.2187 5.54865 11.0174 5.54865 10.7495C5.54865 10.4596 5.64894 10.2217 5.84951 10.0357C6.05008 9.8498 6.33411 9.75684 6.7016 9.75684C7.03978 9.75684 7.32674 9.83882 7.56248 10.0028C7.79966 10.1653 7.91824 10.4259 7.91824 10.7846H7.50758C7.48562 10.6119 7.43877 10.4794 7.36703 10.3871C7.2338 10.2188 7.00761 10.1346 6.68845 10.1346C6.43078 10.1346 6.24558 10.1888 6.13285 10.2971C6.02012 10.4054 5.96375 10.5313 5.96375 10.6748C5.96375 10.8329 6.02964 10.9486 6.1614 11.0218C6.24778 11.0687 6.44322 11.1272 6.74773 11.1975L7.20012 11.3007C7.41826 11.3505 7.58662 11.4186 7.70519 11.5049C7.91016 11.6557 8.01264 11.8746 8.01264 12.1616C8.01264 12.5188 7.88234 12.7743 7.62174 12.928C7.3626 13.0817 7.06102 13.1586 6.71698 13.1586C6.31584 13.1586 6.00179 13.0561 5.77485 12.8512C5.54792 12.6476 5.43665 12.3717 5.44104 12.0233H5.85171V12.0232Z" fill="#E30002"/>
<path d="M8.84707 12.0232C8.85732 12.2062 8.90051 12.3548 8.97664 12.469C9.12158 12.6827 9.37706 12.7896 9.74307 12.7896C9.90705 12.7896 10.0564 12.7662 10.1911 12.7193C10.4517 12.6286 10.582 12.466 10.582 12.2318C10.582 12.0561 10.5271 11.9309 10.4173 11.8563C10.306 11.7831 10.1318 11.7194 9.8946 11.6652L9.45758 11.5664C9.1721 11.502 8.97006 11.431 8.85146 11.3534C8.6465 11.2187 8.54402 11.0174 8.54402 10.7495C8.54402 10.4596 8.6443 10.2217 8.84488 10.0357C9.04545 9.8498 9.32948 9.75684 9.69696 9.75684C10.0351 9.75684 10.3221 9.83882 10.5578 10.0028C10.795 10.1653 10.9136 10.4259 10.9136 10.7846H10.5029C10.481 10.6119 10.4341 10.4794 10.3624 10.3871C10.2292 10.2188 10.003 10.1346 9.68381 10.1346C9.42614 10.1346 9.24094 10.1888 9.12821 10.2971C9.01548 10.4054 8.95911 10.5313 8.95911 10.6748C8.95911 10.8329 9.025 10.9486 9.15676 11.0218C9.24314 11.0687 9.43859 11.1272 9.74309 11.1975L10.1955 11.3007C10.4136 11.3505 10.582 11.4186 10.7006 11.5049C10.9055 11.6557 11.008 11.8746 11.008 12.1616C11.008 12.5188 10.8777 12.7743 10.6171 12.928C10.358 13.0817 10.0564 13.1586 9.71234 13.1586C9.3112 13.1586 8.99715 13.0561 8.77021 12.8512C8.54328 12.6476 8.43201 12.3717 8.4364 12.0233H8.84707V12.0232Z" fill="#E30002"/>
<path d="M2.30481 15.46H2.93067L3.85741 18.1875L4.77756 15.46H5.39688V18.686H4.98182V16.782C4.98182 16.7161 4.98328 16.607 4.98621 16.4548C4.98914 16.3025 4.9906 16.1393 4.9906 15.9651L4.07045 18.686H3.63783L2.71108 15.9651V16.0639C2.71108 16.1429 2.71255 16.2637 2.71548 16.4262C2.71987 16.5873 2.72206 16.7059 2.72206 16.782V18.686H2.30481L2.30481 15.46Z" fill="#E30002"/>
<path d="M7.45888 15.3721C8.0284 15.3721 8.45004 15.5551 8.72379 15.9211C8.93754 16.2066 9.04442 16.5718 9.04442 17.0169C9.04442 17.4986 8.92217 17.899 8.67767 18.2182C8.39072 18.593 7.98152 18.7804 7.45009 18.7804C6.95379 18.7804 6.56362 18.6164 6.27958 18.2884C6.0263 17.9722 5.89966 17.5725 5.89966 17.0894C5.89966 16.6531 6.008 16.2798 6.22468 15.9694C6.50285 15.5712 6.91426 15.3721 7.45888 15.3721ZM7.5028 18.3895C7.88786 18.3895 8.16602 18.2519 8.3373 17.9766C8.51006 17.6999 8.59644 17.3822 8.59644 17.0235C8.59644 16.6443 8.49688 16.3391 8.29777 16.1078C8.10012 15.8765 7.82927 15.7608 7.48521 15.7608C7.15139 15.7608 6.87907 15.8757 6.66826 16.1056C6.45743 16.334 6.35202 16.6714 6.35202 17.118C6.35202 17.4752 6.44206 17.7768 6.62214 18.0227C6.80368 18.2672 7.09726 18.3895 7.5028 18.3895Z" fill="#E30002"/>
<path d="M10.8015 18.3131C10.9494 18.3131 11.0709 18.2978 11.1661 18.267C11.3359 18.2099 11.475 18.1001 11.5833 17.9376C11.6697 17.8073 11.732 17.6404 11.77 17.4369C11.792 17.3154 11.803 17.2026 11.803 17.0987C11.803 16.699 11.7232 16.3886 11.5636 16.1676C11.4053 15.9467 11.1498 15.8362 10.797 15.8362H10.0218V18.3134H10.8014L10.8015 18.3131ZM9.58271 15.4604H10.8894C11.3329 15.4604 11.677 15.6178 11.9215 15.9326C12.1396 16.2166 12.2487 16.5804 12.2487 17.0241C12.2487 17.3666 12.1843 17.6763 12.0554 17.953C11.8285 18.442 11.4383 18.6865 10.8849 18.6865H9.58264V15.4605L9.58271 15.4604Z" fill="#E30002"/>
<path d="M13.2872 15.46V17.454C13.2872 17.6882 13.3311 17.8829 13.4189 18.0381C13.5492 18.2724 13.7689 18.3895 14.0778 18.3895C14.4482 18.3895 14.7 18.2629 14.8332 18.0096C14.905 17.872 14.9408 17.6868 14.9408 17.454V15.46H15.3844V17.2717C15.3844 17.6685 15.331 17.9737 15.2241 18.1875C15.0279 18.5769 14.6576 18.7716 14.1129 18.7716C13.5683 18.7716 13.1986 18.5769 13.0039 18.1875C12.8971 17.9737 12.8436 17.6685 12.8436 17.2717V15.46H13.2872L13.2872 15.46Z" fill="#E30002"/>
<path d="M16.0547 15.46H16.4917V18.3017H18.1256V18.686H16.0547L16.0547 15.46Z" fill="#E30002"/>
<path d="M18.5998 15.46H20.9518V15.8553H19.0258V16.8347H20.8068V17.2081H19.0258V18.3017H20.9847V18.686H18.5997V15.46L18.5998 15.46Z" fill="#E30002"/>
<path d="M21.8476 17.6452C21.8578 17.8282 21.901 17.9768 21.9771 18.091C22.1221 18.3048 22.3775 18.4117 22.7436 18.4117C22.9075 18.4117 23.0569 18.3882 23.1916 18.3414C23.4522 18.2506 23.5825 18.0881 23.5825 17.8539C23.5825 17.6782 23.5276 17.553 23.4178 17.4783C23.3065 17.4051 23.1323 17.3414 22.8951 17.2873L22.4581 17.1885C22.1726 17.124 21.9705 17.053 21.852 16.9754C21.647 16.8407 21.5445 16.6394 21.5445 16.3715C21.5445 16.0816 21.6448 15.8437 21.8454 15.6578C22.0459 15.4719 22.33 15.3789 22.6975 15.3789C23.0356 15.3789 23.3226 15.4609 23.5583 15.6249C23.7955 15.7874 23.9141 16.048 23.9141 16.4067H23.5034C23.4815 16.2339 23.4346 16.1014 23.3629 16.0092C23.2297 15.8408 23.0035 15.7567 22.6843 15.7567C22.4266 15.7567 22.2414 15.8108 22.1287 15.9192C22.016 16.0275 21.9596 16.1534 21.9596 16.2969C21.9596 16.455 22.0255 16.5707 22.1573 16.6439C22.2436 16.6907 22.4391 16.7493 22.7436 16.8196L23.196 16.9228C23.4141 16.9725 23.5825 17.0406 23.701 17.127C23.906 17.2778 24.0085 17.4967 24.0085 17.7836C24.0085 18.1409 23.8782 18.3964 23.6176 18.5501C23.3585 18.7038 23.0569 18.7807 22.7128 18.7807C22.3117 18.7807 21.9976 18.6782 21.7707 18.4732C21.5438 18.2697 21.4325 17.9938 21.4369 17.6453H21.8476V17.6452Z" fill="#E30002"/>
<path d="M17.6805 4H1V20.6805H17.6805V4Z" stroke="#E30002" stroke-width="1.1"/>
</g>
</g>
<defs>
<clipPath id="clip0_292_2784">
<rect width="24" height="24" fill="white" transform="translate(0 0.589844)"/>
</clipPath>
<clipPath id="clip1_292_2784">
<rect width="24" height="24" fill="white" transform="translate(0 0.589844)"/>
</clipPath>
</defs>
</svg>
