<svg width="24" height="25" viewBox="0 0 24 25" fill="none" xmlns="http://www.w3.org/2000/svg">
<path d="M16.9754 7.71065L16.4902 13.1052L16.492 13.1349L16.4902 13.2016L16.1449 16.9725L16.1077 17.3083L12 18.4333L11.9964 18.4369L7.89688 17.3047L7.61885 14.1861H9.62862L9.77127 15.7719L12 16.3705L14.236 15.7639L14.4722 13.1818H9.79852L9.75855 12.7452L9.66678 11.7228L9.61954 11.1739H14.6512L14.8348 9.16505H7.1682L7.12822 8.72855L7.03737 7.70525L6.98921 7.15625H17.0235L16.9754 7.71065Z" fill="#E30002"/>
<path d="M3.45231 4.05037L4.90209 20.1802C4.92636 20.4501 5.11556 20.6767 5.37686 20.7487L11.8178 22.5229C11.9307 22.554 12.0499 22.5541 12.1628 22.523L18.6207 20.7464C18.882 20.6745 19.0713 20.448 19.0956 20.178L20.538 4.15829C20.5722 3.77783 20.2726 3.45 19.8906 3.45H4.00113C3.67733 3.45 3.42332 3.72786 3.45231 4.05037Z" stroke="#E30002" stroke-width="1.1"/>
</svg>
