<svg width="24" height="25" viewBox="0 0 24 25" fill="none" xmlns="http://www.w3.org/2000/svg">
<path d="M11.9985 4C7.0245 4 3 8.02525 3 13C2.99921 14.1821 3.23147 15.3528 3.68348 16.4451C4.13549 17.5374 4.7984 18.5298 5.63428 19.3657C6.47017 20.2016 7.46263 20.8645 8.55492 21.3165C9.6472 21.7685 10.8179 22.0008 12 22C16.9748 22 21 17.9747 21 13C20.9993 8.02525 16.941 4 11.9985 4ZM7.7775 14.9312C8.0715 15.3235 8.4645 15.4878 9.02025 15.4878C9.28275 15.4878 9.5445 15.4548 9.77325 15.3565C10.0028 15.259 10.2645 15.127 10.5908 14.9312L11.508 16.24C10.7558 16.8625 9.9045 17.1565 8.92275 17.1565C8.13675 17.1565 7.48275 16.993 6.894 16.666C6.32245 16.3288 5.86603 15.8269 5.5845 15.226C5.2905 14.6035 5.12625 13.8835 5.12625 13.0323C5.12625 12.2148 5.2905 11.4617 5.58375 10.84C5.86375 10.2206 6.31965 9.69714 6.89475 9.33475C7.4505 8.97475 8.1375 8.81125 8.8905 8.81125C9.41475 8.81125 9.90525 8.8765 10.2983 9.04C10.7392 9.21067 11.1483 9.45404 11.5088 9.76L10.5923 11.0035C10.3596 10.8317 10.107 10.6887 9.84 10.5775C9.61125 10.48 9.3165 10.447 9.054 10.447C7.94175 10.447 7.38525 11.2975 7.38525 13.0315C7.353 13.9165 7.5165 14.5375 7.77825 14.9305L7.7775 14.9312ZM16.7775 16.96C16.4505 17.9748 15.9593 18.7278 15.2715 19.2835C14.5845 19.8408 13.668 20.1347 12.5228 20.233L12.294 18.6955C13.0463 18.5965 13.6028 18.433 13.9628 18.1705C14.0933 18.073 14.3558 17.7783 14.3558 17.7783L11.6393 9.073H13.8968L15.468 15.5852L17.1375 9.073H19.3298L16.7775 16.96Z" fill="#E30002"/>
</svg>
