<svg width="24" height="25" viewBox="0 0 24 25" fill="none" xmlns="http://www.w3.org/2000/svg">
<path d="M4.55173 5.55176H5.75431C7.62683 5.55176 9.42266 6.29561 10.7467 7.61968C12.0708 8.94376 12.8147 10.7396 12.8147 12.6121C12.8147 14.4846 12.0708 16.2804 10.7467 17.6045C9.42266 18.9286 7.62683 19.6724 5.75431 19.6724H4.55173V16.569H5.75431C6.80375 16.569 7.8102 16.1521 8.55226 15.4101C9.29432 14.668 9.71121 13.6615 9.71121 12.6121C9.71121 11.5627 9.29432 10.5562 8.55226 9.81415C7.8102 9.07209 6.80375 8.65521 5.75431 8.65521H4.55173V5.55176ZM10.1769 5.55176H15.1424C15.9606 5.55175 16.7618 5.78484 17.4523 6.22373C18.1428 6.66263 18.694 7.28916 19.0413 8.02996C19.3886 8.77077 19.5176 9.59519 19.4133 10.4067C19.3091 11.2182 18.9757 11.9832 18.4524 12.6121C18.9757 13.241 19.3091 14.006 19.4133 14.8175C19.5176 15.629 19.3886 16.4534 19.0413 17.1942C18.694 17.9351 18.1428 18.5616 17.4523 19.0005C16.7618 19.4394 15.9606 19.6725 15.1424 19.6724H10.1769C11.3987 18.9071 12.401 17.8378 13.0858 16.569H15.1422C15.3002 16.569 15.4565 16.5379 15.6025 16.4775C15.7484 16.417 15.8809 16.3284 15.9926 16.2168C16.1043 16.1051 16.1929 15.9725 16.2533 15.8266C16.3137 15.6807 16.3448 15.5243 16.3448 15.3664C16.3448 15.2085 16.3137 15.0521 16.2533 14.9062C16.1929 14.7603 16.1043 14.6277 15.9926 14.5161C15.8809 14.4044 15.7484 14.3158 15.6025 14.2554C15.4565 14.1949 15.3002 14.1638 15.1422 14.1638H13.9397C14.134 13.1385 14.134 12.0857 13.9397 11.0604H15.1422C15.3002 11.0604 15.4565 11.0293 15.6025 10.9688C15.7484 10.9084 15.8809 10.8198 15.9926 10.7081C16.1043 10.5965 16.1929 10.4639 16.2533 10.318C16.3137 10.1721 16.3448 10.0157 16.3448 9.85779C16.3448 9.69987 16.3137 9.54349 16.2533 9.39758C16.1929 9.25168 16.1043 9.11911 15.9926 9.00744C15.8809 8.89577 15.7484 8.80718 15.6025 8.74675C15.4565 8.68631 15.3002 8.65521 15.1422 8.65521H13.0858C12.401 7.38645 11.3987 6.31711 10.1769 5.55176Z" fill="#E30002"/>
</svg>
