<svg width="24" height="25" viewBox="0 0 24 25" fill="none" xmlns="http://www.w3.org/2000/svg">
<path fill-rule="evenodd" clip-rule="evenodd" d="M11.88 6.83008H21.96V10.9101H11.88V6.83008Z" fill="white"/>
<path fill-rule="evenodd" clip-rule="evenodd" d="M2.75999 20.1502C1.87223 20.1502 1.09883 19.667 0.683625 18.9502C0.471644 19.3146 0.359976 19.7286 0.359985 20.1502C0.359985 21.4757 1.43447 22.5502 2.75999 22.5502H5.15999V20.1502H2.75999Z" fill="#E30002"/>
<path fill-rule="evenodd" clip-rule="evenodd" d="M17.16 22.55H20.76V17.75H17.16V22.55Z" fill="#E30002"/>
<path fill-rule="evenodd" clip-rule="evenodd" d="M23.16 19.5499C23.1337 19.5499 23.1086 19.5543 23.0833 19.5576C23.0787 19.5396 23.0744 19.5215 23.0694 19.5035C23.1973 19.45 23.3027 19.3539 23.3677 19.2315C23.4328 19.1091 23.4535 18.968 23.4263 18.8321C23.399 18.6962 23.3256 18.5739 23.2184 18.486C23.1113 18.3981 22.977 18.35 22.8384 18.3499C22.7074 18.3504 22.5801 18.3941 22.4765 18.4742C22.4632 18.4607 22.4498 18.4472 22.4363 18.4339C22.5147 18.3308 22.5573 18.205 22.5576 18.0755C22.5575 17.9372 22.5097 17.8032 22.4222 17.6962C22.3348 17.5891 22.213 17.5156 22.0776 17.4879C21.9421 17.4603 21.8013 17.4803 21.6789 17.5445C21.5564 17.6087 21.4599 17.7132 21.4057 17.8404C21.3879 17.8353 21.3701 17.8311 21.3523 17.8266C21.3555 17.8013 21.36 17.7762 21.36 17.7499C21.36 17.5908 21.2968 17.4382 21.1842 17.3256C21.0717 17.2131 20.9191 17.1499 20.76 17.1499C20.6009 17.1499 20.4482 17.2131 20.3357 17.3256C20.2232 17.4382 20.16 17.5908 20.16 17.7499C20.16 17.7762 20.1644 17.8013 20.1677 17.8266C20.1499 17.8311 20.132 17.8353 20.1143 17.8404C20.0602 17.713 19.9638 17.6082 19.8413 17.5438C19.7188 17.4794 19.5778 17.4593 19.4422 17.487C19.3066 17.5147 19.1848 17.5884 19.0973 17.6956C19.0099 17.8029 18.9622 17.9371 18.9624 18.0755C18.9624 18.2105 19.0085 18.3336 19.0837 18.4339C18.6377 18.8697 18.36 19.4771 18.36 20.1499C18.36 21.4754 19.4345 22.5499 20.76 22.5499C21.8807 22.5499 22.8192 21.7807 23.0833 20.7422C23.1086 20.7455 23.1337 20.7499 23.16 20.7499C23.3191 20.7499 23.4717 20.6867 23.5843 20.5742C23.6968 20.4616 23.76 20.309 23.76 20.1499C23.76 19.9908 23.6968 19.8382 23.5843 19.7256C23.4717 19.6131 23.3191 19.5499 23.16 19.5499Z" fill="#E30002"/>
<path fill-rule="evenodd" clip-rule="evenodd" d="M18.36 15.3502H21.96V12.9502H18.36V15.3502Z" fill="#E30002"/>
<path fill-rule="evenodd" clip-rule="evenodd" d="M23.16 14.4502C23.2396 14.4502 23.3159 14.4186 23.3721 14.3623C23.4284 14.306 23.46 14.2297 23.46 14.1502C23.46 14.0706 23.4284 13.9943 23.3721 13.938C23.3159 13.8818 23.2396 13.8502 23.16 13.8502C23.1469 13.8502 23.1343 13.8525 23.1217 13.854C23.1193 13.845 23.1173 13.836 23.1148 13.827C23.1786 13.8002 23.2312 13.7521 23.2637 13.691C23.2962 13.6298 23.3065 13.5592 23.2929 13.4913C23.2793 13.4234 23.2426 13.3623 23.1891 13.3184C23.1355 13.2744 23.0685 13.2503 22.9992 13.2502C22.9309 13.2502 22.8686 13.2738 22.8182 13.3123C22.8116 13.3055 22.8049 13.2988 22.7981 13.2922C22.8358 13.2421 22.8588 13.1805 22.8588 13.1129C22.8588 13.0438 22.8349 12.9767 22.7911 12.9232C22.7474 12.8697 22.6865 12.8329 22.6188 12.819C22.551 12.8052 22.4806 12.8152 22.4194 12.8474C22.3581 12.8795 22.3099 12.9318 22.2828 12.9954C22.1778 12.9657 22.0692 12.9505 21.96 12.9502C21.2974 12.9502 20.76 13.4875 20.76 14.1502C20.76 14.8128 21.2974 15.3502 21.96 15.3502C22.0721 15.3502 22.18 15.3336 22.2828 15.3049C22.3099 15.3685 22.3581 15.4208 22.4194 15.453C22.4806 15.4851 22.551 15.4951 22.6188 15.4813C22.6865 15.4675 22.7474 15.4307 22.7911 15.3772C22.8349 15.3236 22.8588 15.2566 22.8588 15.1875C22.8588 15.1199 22.8358 15.0582 22.7981 15.0082C22.8049 15.0016 22.8116 14.9949 22.8182 14.988C22.8686 15.0265 22.9309 15.0502 22.9992 15.0502C23.0685 15.0502 23.1357 15.0261 23.1894 14.9822C23.243 14.9382 23.2797 14.8771 23.2933 14.8091C23.307 14.7411 23.2966 14.6705 23.2641 14.6093C23.2315 14.5481 23.1787 14.5 23.1148 14.4733C23.1173 14.4645 23.1193 14.4553 23.1217 14.4463C23.1343 14.4479 23.1469 14.4502 23.16 14.4502Z" fill="#E30002"/>
<path fill-rule="evenodd" clip-rule="evenodd" d="M21.96 6.95008L13.5576 7.4752C12.8844 7.51732 12.36 8.07556 12.36 8.75008C12.36 9.07505 12.4839 9.3878 12.7064 9.62465C12.9288 9.86151 13.2333 10.0047 13.5576 10.025L21.96 10.5501V20.1501C21.96 21.4756 20.8855 22.5501 19.56 22.5501H5.15999C3.83447 22.5501 2.75999 21.4756 2.75999 20.1501L2.24039 19.8501C2.00939 19.7168 2.00939 19.3834 2.24039 19.2501L2.75999 18.9501L2.24039 18.6501C2.00939 18.5168 2.00939 18.1834 2.24039 18.0501L2.75999 17.7501L2.24039 17.4501C2.00939 17.3168 2.00939 16.9834 2.24039 16.8501L2.75999 16.5501L2.24039 16.2501C2.00939 16.1168 2.00939 15.7834 2.24039 15.6501L2.75999 15.3501L2.24039 15.0501C2.00939 14.9168 2.00939 14.5834 2.24039 14.4501L2.75999 14.1501L2.24039 13.8501C2.00939 13.7168 2.00939 13.3834 2.24039 13.2501L2.75999 12.9501L2.24039 12.6501C2.00939 12.5168 2.00939 12.1834 2.24039 12.0501L2.75999 11.7501L2.24039 11.4501C2.00939 11.3168 2.00939 10.9834 2.24039 10.8501L2.75999 10.5501L2.24039 10.2501C2.00939 10.1168 2.00939 9.7834 2.24039 9.65008L2.75999 9.35008L2.24039 9.05008C2.00939 8.91676 2.00939 8.5834 2.24039 8.45008L2.75999 8.15008L2.24039 7.85008C2.00939 7.71676 2.00939 7.3834 2.24039 7.25008L2.75999 6.95008L2.24039 6.65008C2.00939 6.51676 2.00939 6.1834 2.24039 6.05008L2.75999 5.75008C2.75999 5.74874 2.76008 5.74744 2.76017 5.74615C2.76026 5.74489 2.76035 5.74364 2.76035 5.7424L2.26331 5.24536C2.07479 5.05684 2.16107 4.73488 2.41883 4.66576L3.03107 4.50172L2.86427 3.87856C2.79515 3.62092 3.03071 3.38524 3.28847 3.45424L3.91151 3.62128L4.07579 3.0088C4.14491 2.75116 4.46675 2.665 4.65515 2.85352L5.15219 3.35044C5.15358 3.35044 5.15489 3.35034 5.15618 3.35025C5.15744 3.35016 5.15868 3.35008 5.15999 3.35008L5.45999 2.83048C5.59331 2.59948 5.92667 2.59948 6.05999 2.83048L6.35999 3.35008L6.65999 2.83048C6.79331 2.59948 7.12667 2.59948 7.25999 2.83048L7.55999 3.35008L7.85999 2.83048C7.99331 2.59948 8.32655 2.59948 8.45999 2.83048L8.75999 3.35008H19.56C20.8855 3.35008 21.96 4.42456 21.96 5.75008V6.95008ZM7.34785 7.16233C7.40411 7.21859 7.48042 7.2502 7.55999 7.2502C7.63955 7.2502 7.71586 7.21859 7.77212 7.16233C7.82838 7.10607 7.85999 7.02976 7.85999 6.9502C7.85999 6.12304 7.18715 5.4502 6.35999 5.4502C5.53283 5.4502 4.85999 6.12304 4.85999 6.9502C4.85999 7.02976 4.89159 7.10607 4.94785 7.16233C5.00411 7.21859 5.08042 7.2502 5.15999 7.2502C5.23955 7.2502 5.31586 7.21859 5.37212 7.16233C5.42838 7.10607 5.45999 7.02976 5.45999 6.9502C5.45999 6.45388 5.86367 6.0502 6.35999 6.0502C6.85631 6.0502 7.25999 6.45388 7.25999 6.9502C7.25999 7.02976 7.29159 7.10607 7.34785 7.16233Z" fill="#E30002"/>
<path d="M19.56 22H12.91V14.15C12.91 13.1282 13.7382 12.3 14.76 12.3H21.41V20.15C21.41 21.1718 20.5817 22 19.56 22Z" fill="#FCFEFF" stroke="#E30002" stroke-width="1.1"/>
<path fill-rule="evenodd" clip-rule="evenodd" d="M21.96 7.98351L21.9559 7.98291C21.5851 7.99551 21.4097 8.36643 21.2549 8.69367C21.0934 9.03567 20.9685 9.25803 20.7637 9.25131C20.5371 9.24315 20.4075 8.98707 20.2702 8.71611C20.1125 8.40483 19.9325 8.05179 19.5546 8.06499C19.1891 8.07747 19.0131 8.40027 18.8578 8.68503C18.6925 8.98839 18.5801 9.17283 18.3633 9.16431C18.132 9.15591 18.0091 8.94771 17.8669 8.70675C17.7084 8.43843 17.5252 8.13675 17.1546 8.14707C16.7953 8.15943 16.6188 8.43327 16.4631 8.67507C16.2983 8.93067 16.1829 9.08643 15.9633 9.07719C15.7265 9.06879 15.6042 8.89599 15.4627 8.69595C15.3039 8.47119 15.1248 8.21679 14.7553 8.22915C14.404 8.24115 14.2275 8.46555 14.0718 8.66331C13.924 8.85099 13.8085 8.99955 13.5643 8.99019C13.5325 8.98904 13.5015 9.00059 13.4782 9.02228C13.4549 9.04398 13.4412 9.07404 13.44 9.10587C13.4389 9.1377 13.4504 9.16867 13.4721 9.19199C13.4938 9.2153 13.5239 9.22904 13.5557 9.23019C13.9177 9.24231 14.1011 9.01419 14.2603 8.81175C14.4016 8.63223 14.5235 8.47731 14.7635 8.46915C14.9946 8.45931 15.103 8.60295 15.2669 8.83455C15.4225 9.05463 15.5992 9.30423 15.9546 9.31707C16.327 9.32955 16.5061 9.05127 16.6648 8.80503C16.8066 8.58495 16.929 8.39499 17.1628 8.38695C17.3779 8.37891 17.4951 8.54895 17.6602 8.82867C17.8158 9.09231 17.9921 9.39099 18.3546 9.40419C18.7296 9.41715 18.9107 9.08979 19.0685 8.79999C19.2052 8.54943 19.3342 8.31279 19.5628 8.30487C19.7779 8.29983 19.8901 8.49627 20.0561 8.82447C20.2111 9.13083 20.3869 9.47787 20.7551 9.49119L20.7754 9.49155C21.1431 9.49155 21.3175 9.12255 21.472 8.79627C21.6087 8.50707 21.738 8.23467 21.96 8.22351V7.98351Z" fill="#E30002" stroke="#E30002" stroke-linejoin="round"/>
<path fill-rule="evenodd" clip-rule="evenodd" d="M9.95996 22.55H14.76V17.75H9.95996V22.55Z" fill="#E30002"/>
<path d="M21.9309 10.0967L12.5975 12.5976C12.4695 12.6319 12.3935 12.7635 12.4278 12.8915L13.3399 16.2955C13.3742 16.4235 13.5058 16.4995 13.6339 16.4652L22.9673 13.9643C23.0953 13.93 23.1713 13.7984 23.137 13.6703L22.2249 10.2664C22.1906 10.1383 22.059 10.0624 21.9309 10.0967Z" fill="#FCFEFF" stroke="#E30002"/>
<path opacity="0.136" d="M13.2902 12.5902L12.9289 12.687C12.8826 12.6994 12.8551 12.747 12.8675 12.7933L12.8676 12.7934C12.88 12.8397 12.9276 12.8671 12.9738 12.8547L13.3351 12.7579C13.3814 12.7455 13.4089 12.698 13.3965 12.6517L13.3965 12.6516C13.384 12.6053 13.3365 12.5778 13.2902 12.5902Z" fill="#FCFEFF"/>
<path opacity="0.136" d="M14.0139 12.3959L13.6527 12.4927C13.6064 12.5051 13.5789 12.5527 13.5913 12.5989L13.5913 12.5991C13.6037 12.6453 13.6513 12.6728 13.6976 12.6604L14.0589 12.5636C14.1052 12.5512 14.1326 12.5036 14.1202 12.4573L14.1202 12.4572C14.1078 12.4109 14.0602 12.3835 14.0139 12.3959Z" fill="#FCFEFF"/>
<path opacity="0.136" d="M14.5708 12.2469L14.2095 12.3438C14.1633 12.3562 14.1358 12.4037 14.1482 12.45L14.1482 12.4501C14.1606 12.4964 14.2082 12.5239 14.2545 12.5115L14.6158 12.4147C14.6621 12.4023 14.6895 12.3547 14.6771 12.3084L14.6771 12.3083C14.6647 12.262 14.6171 12.2345 14.5708 12.2469Z" fill="#FCFEFF"/>
<path opacity="0.136" d="M15.1276 12.0975L14.7663 12.1943C14.72 12.2067 14.6925 12.2543 14.705 12.3006L14.705 12.3007C14.7174 12.347 14.765 12.3745 14.8112 12.3621L15.1725 12.2653C15.2188 12.2529 15.2463 12.2053 15.2339 12.159L15.2339 12.1589C15.2215 12.1126 15.1739 12.0851 15.1276 12.0975Z" fill="#FCFEFF"/>
<path opacity="0.136" d="M15.6844 11.9486L15.3231 12.0454C15.2768 12.0578 15.2493 12.1054 15.2617 12.1517L15.2617 12.1518C15.2741 12.1981 15.3217 12.2255 15.368 12.2131L15.7293 12.1163C15.7756 12.1039 15.803 12.0564 15.7906 12.0101L15.7906 12.01C15.7782 11.9637 15.7306 11.9362 15.6844 11.9486Z" fill="#FCFEFF"/>
<path opacity="0.136" d="M16.3803 11.7621L16.019 11.8589C15.9727 11.8713 15.9452 11.9189 15.9576 11.9652L15.9577 11.9653C15.9701 12.0116 16.0176 12.039 16.0639 12.0266L16.4252 11.9298C16.4715 11.9174 16.499 11.8698 16.4866 11.8235L16.4865 11.8234C16.4741 11.7771 16.4266 11.7497 16.3803 11.7621Z" fill="#FCFEFF"/>
<path opacity="0.136" d="M16.937 11.6127L16.5757 11.7095C16.5295 11.7219 16.502 11.7695 16.5144 11.8157L16.5144 11.8159C16.5268 11.8621 16.5744 11.8896 16.6207 11.8772L16.982 11.7804C17.0283 11.768 17.0557 11.7204 17.0433 11.6741L17.0433 11.674C17.0309 11.6277 16.9833 11.6003 16.937 11.6127Z" fill="#FCFEFF"/>
<path opacity="0.136" d="M17.4938 11.4637L17.1325 11.5606C17.0862 11.573 17.0588 11.6205 17.0712 11.6668L17.0712 11.6669C17.0836 11.7132 17.1312 11.7407 17.1775 11.7283L17.5387 11.6315C17.585 11.6191 17.6125 11.5715 17.6001 11.5252L17.6001 11.5251C17.5877 11.4788 17.5401 11.4513 17.4938 11.4637Z" fill="#FCFEFF"/>
<path opacity="0.136" d="M18.0506 11.3143L17.6893 11.4111C17.643 11.4235 17.6155 11.4711 17.6279 11.5174L17.628 11.5175C17.6404 11.5638 17.6879 11.5913 17.7342 11.5789L18.0955 11.4821C18.1418 11.4697 18.1693 11.4221 18.1569 11.3758L18.1568 11.3757C18.1444 11.3294 18.0969 11.3019 18.0506 11.3143Z" fill="#FCFEFF"/>
<path opacity="0.136" d="M18.7466 11.1278L18.3853 11.2246C18.339 11.237 18.3116 11.2846 18.324 11.3309L18.324 11.331C18.3364 11.3773 18.384 11.4047 18.4303 11.3923L18.7916 11.2955C18.8378 11.2831 18.8653 11.2356 18.8529 11.1893L18.8529 11.1892C18.8405 11.1429 18.7929 11.1154 18.7466 11.1278Z" fill="#FCFEFF"/>
<path opacity="0.136" d="M19.3034 10.9789L18.9421 11.0757C18.8958 11.0881 18.8683 11.1357 18.8807 11.1819L18.8808 11.1821C18.8932 11.2283 18.9407 11.2558 18.987 11.2434L19.3483 11.1466C19.3946 11.1342 19.4221 11.0866 19.4097 11.0403L19.4096 11.0402C19.3972 10.9939 19.3497 10.9665 19.3034 10.9789Z" fill="#FCFEFF"/>
<path opacity="0.136" d="M19.8601 10.8295L19.4988 10.9263C19.4526 10.9387 19.4251 10.9863 19.4375 11.0325L19.4375 11.0327C19.4499 11.0789 19.4975 11.1064 19.5438 11.094L19.9051 10.9972C19.9514 10.9848 19.9788 10.9372 19.9664 10.8909L19.9664 10.8908C19.954 10.8445 19.9064 10.8171 19.8601 10.8295Z" fill="#FCFEFF"/>
<path opacity="0.136" d="M20.5561 10.6429L20.1948 10.7398C20.1485 10.7522 20.121 10.7997 20.1334 10.846L20.1334 10.8461C20.1458 10.8924 20.1934 10.9199 20.2397 10.9075L20.601 10.8107C20.6473 10.7983 20.6748 10.7507 20.6623 10.7044L20.6623 10.7043C20.6499 10.658 20.6023 10.6305 20.5561 10.6429Z" fill="#FCFEFF"/>
<path opacity="0.136" d="M21.1128 10.494L20.7515 10.5908C20.7052 10.6032 20.6778 10.6508 20.6902 10.6971L20.6902 10.6972C20.7026 10.7435 20.7502 10.771 20.7965 10.7585L21.1578 10.6617C21.204 10.6493 21.2315 10.6018 21.2191 10.5555L21.2191 10.5554C21.2067 10.5091 21.1591 10.4816 21.1128 10.494Z" fill="#FCFEFF"/>
<path fill-rule="evenodd" clip-rule="evenodd" d="M17.16 19.5499C17.1337 19.5499 17.1086 19.5543 17.0833 19.5576C17.0787 19.5396 17.0744 19.5215 17.0694 19.5035C17.1973 19.45 17.3027 19.3539 17.3677 19.2315C17.4328 19.1091 17.4535 18.968 17.4263 18.8321C17.399 18.6962 17.3256 18.5739 17.2184 18.486C17.1113 18.3981 16.977 18.35 16.8384 18.3499C16.7074 18.3504 16.5801 18.3941 16.4765 18.4742C16.4632 18.4607 16.4498 18.4472 16.4363 18.4339C16.5147 18.3308 16.5573 18.205 16.5576 18.0755C16.5575 17.9372 16.5097 17.8032 16.4222 17.6962C16.3348 17.5891 16.213 17.5156 16.0776 17.4879C15.9421 17.4603 15.8013 17.4803 15.6789 17.5445C15.5564 17.6087 15.4599 17.7132 15.4057 17.8404C15.3879 17.8353 15.3701 17.8311 15.3523 17.8266C15.3555 17.8013 15.36 17.7762 15.36 17.7499C15.36 17.5908 15.2968 17.4382 15.1842 17.3256C15.0717 17.2131 14.9191 17.1499 14.76 17.1499C14.6009 17.1499 14.4482 17.2131 14.3357 17.3256C14.2232 17.4382 14.16 17.5908 14.16 17.7499C14.16 17.7762 14.1644 17.8013 14.1677 17.8266C14.1499 17.8311 14.132 17.8353 14.1143 17.8404C14.0602 17.713 13.9638 17.6082 13.8413 17.5438C13.7188 17.4794 13.5778 17.4593 13.4422 17.487C13.3066 17.5147 13.1848 17.5884 13.0973 17.6956C13.0099 17.8029 12.9622 17.9371 12.9624 18.0755C12.9624 18.2105 13.0085 18.3336 13.0837 18.4339C12.6377 18.8697 12.36 19.4771 12.36 20.1499C12.36 21.4754 13.4345 22.5499 14.76 22.5499C15.8807 22.5499 16.8192 21.7807 17.0833 20.7422C17.1086 20.7455 17.1337 20.7499 17.16 20.7499C17.3191 20.7499 17.4717 20.6867 17.5843 20.5742C17.6968 20.4616 17.76 20.309 17.76 20.1499C17.76 19.9908 17.6968 19.8382 17.5843 19.7256C17.4717 19.6131 17.3191 19.5499 17.16 19.5499Z" fill="#E30002"/>
<path fill-rule="evenodd" clip-rule="evenodd" d="M9.95996 15.3502H14.76V12.9502H9.95996V15.3502Z" fill="#E30002"/>
<path fill-rule="evenodd" clip-rule="evenodd" d="M15.9599 14.4502C16.0395 14.4502 16.1158 14.4186 16.1721 14.3623C16.2283 14.306 16.2599 14.2297 16.2599 14.1502C16.2599 14.0706 16.2283 13.9943 16.1721 13.938C16.1158 13.8818 16.0395 13.8502 15.9599 13.8502C15.9469 13.8502 15.9343 13.8525 15.9217 13.854C15.9193 13.845 15.9172 13.836 15.9147 13.827C15.9786 13.8002 16.0312 13.7521 16.0636 13.691C16.0961 13.6298 16.1064 13.5592 16.0928 13.4913C16.0792 13.4234 16.0425 13.3623 15.989 13.3184C15.9355 13.2744 15.8684 13.2503 15.7991 13.2502C15.7309 13.2502 15.6686 13.2738 15.6182 13.3123C15.6116 13.3055 15.6049 13.2988 15.598 13.2922C15.6357 13.2421 15.6587 13.1805 15.6587 13.1129C15.6587 13.0438 15.6348 12.9767 15.5911 12.9232C15.5473 12.8697 15.4864 12.8329 15.4187 12.819C15.3509 12.8052 15.2805 12.8152 15.2193 12.8474C15.1581 12.8795 15.1098 12.9318 15.0827 12.9954C14.9777 12.9657 14.8691 12.9505 14.7599 12.9502C14.0973 12.9502 13.5599 13.4875 13.5599 14.1502C13.5599 14.8128 14.0973 15.3502 14.7599 15.3502C14.872 15.3502 14.9799 15.3336 15.0827 15.3049C15.1098 15.3685 15.1581 15.4208 15.2193 15.453C15.2805 15.4851 15.3509 15.4951 15.4187 15.4813C15.4864 15.4675 15.5473 15.4307 15.5911 15.3772C15.6348 15.3236 15.6587 15.2566 15.6587 15.1875C15.6587 15.1199 15.6357 15.0582 15.598 15.0082C15.6049 15.0016 15.6116 14.9949 15.6182 14.988C15.6686 15.0265 15.7309 15.0502 15.7991 15.0502C15.8685 15.0502 15.9357 15.0261 15.9893 14.9822C16.0429 14.9382 16.0796 14.8771 16.0933 14.8091C16.1069 14.7411 16.0965 14.6705 16.064 14.6093C16.0314 14.5481 15.9787 14.5 15.9147 14.4733C15.9172 14.4645 15.9193 14.4553 15.9217 14.4463C15.9343 14.4479 15.9469 14.4502 15.9599 14.4502Z" fill="#E30002"/>
<path fill-rule="evenodd" clip-rule="evenodd" d="M17.16 5.59991C17.1408 5.59991 17.1204 5.59751 17.1012 5.59391C17.0819 5.59016 17.063 5.58453 17.0448 5.57711C17.0268 5.56991 17.01 5.56031 16.9931 5.54951C16.9775 5.53871 16.962 5.52551 16.9475 5.51231C16.9344 5.49791 16.9212 5.48351 16.9104 5.46671C16.8996 5.44991 16.89 5.43311 16.8827 5.41511C16.8679 5.37847 16.8602 5.33939 16.86 5.29991C16.86 5.28071 16.8624 5.26031 16.866 5.24111C16.8696 5.22191 16.8756 5.20391 16.8827 5.18471C16.89 5.16671 16.8996 5.14991 16.9104 5.13311C16.9212 5.11751 16.9344 5.10191 16.9475 5.08751C16.962 5.07431 16.9775 5.06111 16.9931 5.05031C17.01 5.03951 17.0268 5.02991 17.0448 5.02271C17.0627 5.01551 17.082 5.00951 17.1012 5.00591C17.1396 4.99751 17.1792 4.99751 17.2188 5.00591C17.2379 5.00951 17.2572 5.01551 17.2752 5.02271C17.2931 5.02991 17.31 5.03951 17.3268 5.05031C17.3424 5.06111 17.3579 5.07431 17.3724 5.08751C17.3856 5.10191 17.3988 5.11751 17.4096 5.13311C17.4204 5.14991 17.43 5.16671 17.4372 5.18471C17.4444 5.20391 17.4504 5.22191 17.454 5.24111C17.4575 5.26031 17.46 5.28071 17.46 5.29991C17.46 5.37911 17.4275 5.45711 17.3724 5.51231C17.3579 5.52551 17.3424 5.53871 17.3268 5.54951C17.31 5.56031 17.2931 5.56991 17.2752 5.57711C17.2386 5.59203 17.1995 5.59977 17.16 5.59991ZM19.56 5.44991C19.4808 5.44991 19.404 5.41751 19.3475 5.36231C19.3341 5.34792 19.3218 5.33269 19.3104 5.31671C19.2996 5.29991 19.29 5.28311 19.2827 5.26511C19.2679 5.22847 19.2602 5.18939 19.26 5.14991C19.26 5.07071 19.2924 4.99391 19.3475 4.93751C19.362 4.92431 19.3775 4.91111 19.3931 4.90031C19.41 4.88951 19.4268 4.87991 19.4448 4.87271C19.4627 4.86551 19.482 4.85951 19.5012 4.85591C19.5396 4.84751 19.5804 4.84751 19.6188 4.85591C19.6379 4.85951 19.6572 4.86551 19.6752 4.87271C19.6931 4.87991 19.71 4.88951 19.7268 4.90031C19.7424 4.91111 19.7579 4.92431 19.7724 4.93751C19.8275 4.99391 19.86 5.07071 19.86 5.14991C19.86 5.16911 19.8575 5.18951 19.854 5.20871C19.8504 5.22791 19.8444 5.24711 19.8372 5.26511C19.8288 5.28311 19.8204 5.29991 19.8096 5.31671C19.7988 5.33231 19.7856 5.34791 19.7724 5.36231C19.7579 5.37551 19.7424 5.38871 19.7268 5.39951C19.71 5.41031 19.6931 5.41991 19.6752 5.42711C19.6386 5.44203 19.5995 5.44977 19.56 5.44991Z" fill="#E30002"/>
</svg>
