<svg width="24" height="25" viewBox="0 0 24 25" fill="none" xmlns="http://www.w3.org/2000/svg">
<path fill-rule="evenodd" clip-rule="evenodd" d="M20.5639 20.7013C20.1218 20.6573 18.9845 20.5443 17.7644 21.2104C17.4227 21.3795 16.8247 21.8444 16.8247 21.8444C16.8247 21.8444 15.1856 23.5132 11.5281 23.5132C8.66621 23.5132 6.78677 21.7176 6.78677 21.7176C6.78677 21.7176 4.09575 18.9704 3.62589 17.0684C2.64345 17.0684 1.70373 16.2654 1.23387 14.9975C0.678583 13.5182 1.14844 11.9966 2.25902 11.6163C2.60074 11.4895 2.98517 11.4895 3.3696 11.6163V10.94C3.3696 7.51657 5.59076 4.55802 8.66621 3.41687C9.2215 2.6561 9.99036 1.93759 10.9728 1.43041C13.8774 -0.00659479 17.7644 2.36024 19.9429 5.48785C24.257 11.6163 21.0534 19.6043 20.5836 20.7032L20.5639 20.7013ZM2.68617 12.7997C2.34445 12.9265 2.17359 13.6872 2.47259 14.5325C2.68617 15.1243 3.0706 15.5469 3.41232 15.6737C3.3696 15.5046 3.3696 15.3356 3.3696 15.1665V13.0533C3.11331 12.8419 2.85703 12.7574 2.68617 12.7997ZM7.72649 5.31879C5.88976 6.54447 4.69375 8.61545 4.69375 10.94V15.1665C4.69375 18.8858 7.7692 21.9289 11.5281 21.9712C12.9377 21.9712 14.2618 21.5485 15.3724 20.7878C14.7744 18.0828 13.3221 15.5892 11.1437 13.7295L10.9301 13.5182C10.4602 13.0955 7.25663 10.0525 7.68377 5.61464V5.61464C7.68377 5.53011 7.68377 5.40332 7.72649 5.31879ZM9.60594 14.4057C9.69137 14.1521 9.52051 13.8985 9.26422 13.8985H9.17879C9.00794 13.8563 8.87979 13.7295 8.83708 13.5604V13.3914C8.87979 13.1378 8.66622 12.9264 8.45265 12.9264C7.94007 12.9687 7.51293 13.3914 7.4275 13.9408C7.34207 14.6593 7.94007 15.251 8.66622 15.1665C9.09336 15.082 9.4778 14.7861 9.60594 14.4057ZM13.5356 19.2242L13.9201 18.8438C13.9201 18.8438 13.9201 18.8015 13.8774 18.8015L12.9804 17.914C12.8095 17.7449 12.5532 17.5759 12.3396 17.4913C12.0834 17.4068 11.8698 17.4491 11.6562 17.6181C11.5708 17.7027 11.5281 17.7027 11.3999 17.6181C11.1863 17.4491 10.9728 17.4068 10.7165 17.4913C10.6271 17.5208 10.5378 17.5708 10.4629 17.6127C10.4304 17.6309 10.4006 17.6476 10.3748 17.6604C10.2466 17.7449 10.1185 17.8294 10.0331 17.9562L9.13605 18.8438C9.17876 18.8438 9.17876 18.8861 9.17876 18.8861L9.99034 19.6891C10.8446 20.5344 12.1688 20.5344 13.0231 19.6891C13.1085 19.6046 13.1939 19.5306 13.2794 19.4566L13.2794 19.4566C13.3648 19.3827 13.4502 19.3087 13.5356 19.2242Z" fill="#E30002"/>
</svg>
