<svg width="24" height="25" viewBox="0 0 24 25" fill="none" xmlns="http://www.w3.org/2000/svg">
<path d="M22.0447 13.2226L17.4305 21.0051C17.3445 21.141 17.2241 21.2517 17.0815 21.3261C16.9389 21.4004 16.7792 21.4358 16.6186 21.4285H7.3866C7.22555 21.4348 7.06569 21.3985 6.92314 21.3233C6.7806 21.248 6.66042 21.1365 6.57472 21L1.95908 13.2298C1.87685 13.0898 1.8335 12.9304 1.8335 12.768C1.8335 12.6056 1.87685 12.4462 1.95908 12.3061L6.57327 4.4909C6.6558 4.34658 6.77383 4.22573 6.91617 4.13982C7.05851 4.0539 7.22044 4.00578 7.3866 4H16.6157C16.7818 4.00617 16.9435 4.05463 17.0856 4.14079C17.2276 4.22696 17.3454 4.34796 17.4276 4.49235L22.0418 12.325C22.1235 12.4607 22.1667 12.6161 22.1667 12.7745C22.1667 12.9329 22.1235 13.0883 22.0418 13.224L22.0447 13.2226ZM18.2235 16.2726V9.291L12.0001 5.79078L5.7839 9.291V16.2726L12.0001 19.7721L18.2235 16.2726Z" fill="#E30002"/>
<path d="M16.2134 15.0298L12.04 17.379L7.87024 15.0298V10.3314L12.04 7.98145L16.2134 10.3314V15.0298Z" fill="#E30002"/>
</svg>
