<svg width="24" height="25" viewBox="0 0 24 25" fill="none" xmlns="http://www.w3.org/2000/svg">
<path d="M11.6667 3H8.33333C6.49238 3 5 4.49238 5 6.33333C5 8.17428 6.49238 9.66667 8.33333 9.66667H11.6667V3Z" stroke="#E30002" stroke-width="1.1"/>
<path d="M11.6667 9.6665H8.33333C6.49238 9.6665 5 11.1589 5 12.9998C5 14.8408 6.49238 16.3332 8.33333 16.3332H11.6667V9.6665Z" stroke="#E30002" stroke-width="1.1"/>
<path d="M18.3332 12.9998C18.3332 14.8408 16.8408 16.3332 14.9998 16.3332C13.1589 16.3332 11.6665 14.8408 11.6665 12.9998C11.6665 11.1589 13.1589 9.6665 14.9998 9.6665C16.8408 9.6665 18.3332 11.1589 18.3332 12.9998Z" stroke="#E30002" stroke-width="1.1"/>
<path d="M8.33333 16.3335H11.6667V19.6668C11.6667 21.5078 10.1743 23.0002 8.33333 23.0002C6.49238 23.0002 5 21.5078 5 19.6668C5 17.8259 6.49238 16.3335 8.33333 16.3335Z" stroke="#E30002" stroke-width="1.1"/>
<path d="M11.6665 3H14.9998C16.8408 3 18.3332 4.49238 18.3332 6.33333C18.3332 8.17428 16.8408 9.66667 14.9998 9.66667H11.6665V3Z" stroke="#E30002" stroke-width="1.1"/>
</svg>
