<svg width="24" height="25" viewBox="0 0 24 25" fill="none" xmlns="http://www.w3.org/2000/svg">
<path d="M12 2.58984C6.5 2.58984 2 7.08984 2 12.5898C2 18.0898 6.5 22.5898 12 22.5898C17.5 22.5898 22 18.0898 22 12.5898C22 7.08984 17.5 2.58984 12 2.58984ZM6.42857 18.1613C4.92857 16.6613 4.14286 14.6613 4.14286 12.7327L11.9286 20.447C9.92857 20.3756 7.92857 19.6613 6.42857 18.1613ZM13.7143 20.2327L4.35714 10.8756C5.14286 7.37556 8.28571 4.7327 12 4.7327C14.6429 4.7327 16.9286 6.01842 18.3571 7.94699L17.2857 8.87556C16.0714 7.2327 14.1429 6.16127 12 6.16127C9.21429 6.16127 6.85714 7.94699 5.92857 10.447L14.1429 18.6613C16.2143 17.947 17.7857 16.1613 18.2857 14.0184H14.8571V12.5898H19.8571C19.8571 16.3041 17.2143 19.447 13.7143 20.2327Z" fill="#E30002"/>
</svg>
