<svg width="24" height="25" viewBox="0 0 24 25" fill="none" xmlns="http://www.w3.org/2000/svg">
<g clip-path="url(#clip0_278_16692)">
<path d="M12 4C16.9725 4 21 8.0275 21 13C20.9995 14.8857 20.4077 16.7238 19.3078 18.2556C18.2079 19.7873 16.6554 20.9356 14.8688 21.5388C14.4188 21.6288 14.25 21.3475 14.25 21.1113C14.25 20.8075 14.2613 19.84 14.2613 18.6363C14.2613 17.7925 13.98 17.2525 13.6538 16.9712C15.6563 16.7462 17.76 15.9812 17.76 12.5275C17.76 11.5375 17.4113 10.7387 16.8375 10.1087C16.9275 9.88375 17.2425 8.96125 16.7475 7.72375C16.7475 7.72375 15.9938 7.47625 14.2725 8.64625C13.5525 8.44375 12.7875 8.3425 12.0225 8.3425C11.2575 8.3425 10.4925 8.44375 9.7725 8.64625C8.05125 7.4875 7.2975 7.72375 7.2975 7.72375C6.8025 8.96125 7.1175 9.88375 7.2075 10.1087C6.63375 10.7387 6.285 11.5487 6.285 12.5275C6.285 15.97 8.3775 16.7462 10.38 16.9712C10.1213 17.1962 9.885 17.59 9.80625 18.175C9.28875 18.4113 7.995 18.7937 7.185 17.4325C7.01625 17.1625 6.51 16.4987 5.80125 16.51C5.0475 16.5212 5.4975 16.9375 5.8125 17.1062C6.195 17.32 6.63375 18.1187 6.735 18.3775C6.915 18.8837 7.5 19.8513 9.76125 19.435C9.76125 20.1888 9.7725 20.8975 9.7725 21.1113C9.7725 21.3475 9.60375 21.6175 9.15375 21.5388C7.36122 20.9421 5.80208 19.7961 4.6975 18.2635C3.59293 16.7308 2.99901 14.8892 3 13C3 8.0275 7.0275 4 12 4Z" fill="#E30002"/>
</g>
<defs>
<clipPath id="clip0_278_16692">
<rect width="18" height="18" fill="white" transform="translate(3 4)"/>
</clipPath>
</defs>
</svg>
