<svg width="24" height="25" viewBox="0 0 24 25" fill="none" xmlns="http://www.w3.org/2000/svg">
<g clip-path="url(#clip0_278_16702)">
<path d="M5.60659 2C8.15069 2 10.2132 4.06182 10.2132 6.60544C10.2132 9.10537 8.22038 11.1386 5.73644 11.2076C5.73644 11.4191 5.74578 11.8187 5.86548 12.06C6.03155 12.3947 7.0277 13.0178 8.00462 13.0178H8.35558C8.57615 11.4476 9.9245 10.2393 11.5559 10.2393C13.1806 10.2393 14.525 11.4378 14.7537 12.9987H16.5695C16.7982 11.4378 18.1426 10.2393 19.7673 10.2393C21.5526 10.2393 23 11.6861 23 13.4711C23 15.256 21.5526 16.7029 19.7673 16.7029C18.1426 16.7029 16.7982 15.5043 16.5695 13.9434H14.7538C14.5251 15.5043 13.1807 16.7029 11.5559 16.7029C9.93419 16.7029 8.59158 15.5089 8.35913 13.9523L7.97107 13.9638C7.33213 13.959 6.65713 13.7884 6.11497 13.4201C5.96717 13.3196 5.82156 13.2141 5.66967 13.1141L5.66962 13.3239C5.66879 13.3918 5.65656 14.4116 5.65557 15.544L5.65554 15.7837C5.656 16.5263 5.66187 17.2915 5.67935 17.8496C5.7177 19.0739 6.71359 20.0621 7.81256 20.2934C7.9554 20.3234 8.20101 20.3272 8.35574 20.3138C8.5767 18.7442 9.9249 17.5363 11.5559 17.5363C13.3412 17.5363 14.7885 18.9833 14.7885 20.7682C14.7885 22.553 13.3412 24 11.5559 24C9.94293 24 8.60623 22.8189 8.36306 21.2746H8.08344C5.98346 21.16 4.67787 19.2339 4.70063 17.6718C4.72937 15.7058 4.70771 13.739 4.7074 11.7725V11.1225C2.5938 10.7043 1 8.84117 1 6.60544C1 4.06182 3.06241 2 5.60659 2ZM11.5559 18.481C10.2925 18.481 9.26824 19.505 9.26824 20.7682C9.26824 22.0313 10.2925 23.0553 11.5559 23.0553C12.8193 23.0553 13.8436 22.0313 13.8436 20.7682C13.8436 19.505 12.8193 18.481 11.5559 18.481ZM11.5559 11.184C10.2925 11.184 9.26824 12.2079 9.26824 13.4711C9.26824 14.7342 10.2925 15.7581 11.5559 15.7581C12.8193 15.7581 13.8436 14.7342 13.8436 13.4711C13.8436 12.2079 12.8193 11.184 11.5559 11.184ZM19.7673 11.184C18.5039 11.184 17.4797 12.2079 17.4797 13.4711C17.4797 14.7342 18.5039 15.7581 19.7673 15.7581C21.0308 15.7581 22.055 14.7342 22.055 13.4711C22.055 12.2079 21.0308 11.184 19.7673 11.184ZM21.0702 12.5081C21.2502 12.6877 21.2552 12.9762 21.0848 13.1617L21.0711 13.1762L19.6695 14.5808C19.4909 14.7598 19.2042 14.7658 19.0183 14.5978L19.0035 14.5838L18.3173 13.9083C18.1314 13.7253 18.1291 13.4262 18.3121 13.2404C18.4906 13.0592 18.7791 13.0524 18.9658 13.2215L18.9803 13.2352L19.332 13.5813L20.402 12.509C20.5863 12.3242 20.8855 12.3239 21.0702 12.5081ZM12.8211 12.5012C13.0011 12.6808 13.006 12.9693 12.8357 13.1549L12.8219 13.1693L11.4203 14.5739C11.2418 14.7529 10.955 14.7589 10.7692 14.5909L10.7544 14.5769L10.0682 13.9014C9.88229 13.7184 9.87993 13.4193 10.063 13.2334C10.2414 13.0523 10.53 13.0454 10.7167 13.2146L10.7312 13.2283L11.0828 13.5744L12.1529 12.5021C12.3372 12.3174 12.6363 12.317 12.8211 12.5012ZM5.60659 2C3.58434 2 1.00118 4.47817 1.00118 6.5C1.00118 8.08211 2.77694 10.2393 4.24009 10.2393C4.70056 10.4065 5.16684 10.5 5.60659 10.5C7.62884 10.5 10.2132 8.62719 10.2132 6.60544C10.2132 4.58361 7.62884 2 5.60659 2Z" fill="#E30002"/>
<path d="M5.61382 2C8.16296 2 10.2276 4.06469 10.2276 6.61382C10.2274 7.58054 9.924 8.52283 9.36015 9.30808C8.79631 10.0933 8.00041 10.682 7.08448 10.9912C6.85379 11.0373 6.76728 10.8931 6.76728 10.772C6.76728 10.6163 6.77305 10.1203 6.77305 9.50323C6.77305 9.07068 6.62886 8.79385 6.46161 8.64967C7.48819 8.53433 8.56667 8.14215 8.56667 6.3716C8.56667 5.86408 8.38788 5.4546 8.09375 5.13163C8.13989 5.01629 8.30137 4.54337 8.04761 3.90897C8.04761 3.90897 7.66121 3.78209 6.77881 4.38189C6.40971 4.27808 6.01753 4.22617 5.62536 4.22617C5.23318 4.22617 4.84101 4.27808 4.4719 4.38189C3.58951 3.78786 3.2031 3.90897 3.2031 3.90897C2.94934 4.54337 3.11082 5.01629 3.15696 5.13163C2.86283 5.4546 2.68405 5.86984 2.68405 6.3716C2.68405 8.13638 3.75676 8.53433 4.78333 8.64967C4.65069 8.76502 4.52957 8.96687 4.4892 9.26677C4.22391 9.38788 3.56067 9.58397 3.14543 8.88613C3.05892 8.74772 2.79939 8.40745 2.43605 8.41321C2.04965 8.41898 2.28034 8.63237 2.44182 8.71888C2.63791 8.82846 2.86283 9.23793 2.91474 9.37058C3.00701 9.63011 3.30691 10.1261 4.46613 9.91271C4.46613 10.2991 4.4719 10.6625 4.4719 10.772C4.4719 10.8931 4.38539 11.0316 4.1547 10.9912C3.23577 10.6853 2.43648 10.0978 1.87022 9.31212C1.30396 8.5264 0.999492 7.58233 1 6.61382C1 4.06469 3.06469 2 5.61382 2Z" fill="#E30002"/>
<path d="M12.4492 21.2396C12.7101 21.2396 12.9217 21.0282 12.9217 20.7673C12.9217 20.5065 12.7101 20.2949 12.4492 20.2949C12.1883 20.2949 11.9767 20.5065 11.9767 20.7673C11.9767 21.0282 12.1883 21.2396 12.4492 21.2396Z" fill="#E30002"/>
<path d="M10.6404 21.2396C10.9013 21.2396 11.1128 21.0282 11.1128 20.7673C11.1128 20.5065 10.9013 20.2949 10.6404 20.2949C10.3795 20.2949 10.1679 20.5065 10.1679 20.7673C10.1679 21.0282 10.3795 21.2396 10.6404 21.2396Z" fill="#E30002"/>
<path d="M19.7674 23.0551C18.5039 23.0551 17.4797 22.0311 17.4797 20.768C17.4797 19.5048 18.5039 18.4808 19.7674 18.4808C21.0308 18.4808 22.0551 19.5048 22.0551 20.768C22.0551 22.0311 21.0308 23.0551 19.7674 23.0551ZM19.7674 17.5361C18.1426 17.5361 16.7982 18.7347 16.5695 20.2956H16.0408C15.81 20.2956 15.6228 20.5072 15.6228 20.768C15.6228 21.0289 15.81 21.2403 16.0408 21.2403H16.5695C16.7982 22.8012 18.1426 23.9998 19.7674 23.9998C21.5527 23.9998 23 22.5528 23 20.768C23 18.9831 21.5527 17.5361 19.7674 17.5361Z" fill="#E30002"/>
</g>
<defs>
<clipPath id="clip0_278_16702">
<rect width="24" height="24" fill="white" transform="translate(0 0.589844)"/>
</clipPath>
</defs>
</svg>
