<svg width="24" height="25" viewBox="0 0 24 25" fill="none" xmlns="http://www.w3.org/2000/svg">
<g clip-path="url(#clip0_278_16579)">
<path fill-rule="evenodd" clip-rule="evenodd" d="M12 2.24658L20.9575 7.4182V17.7615L12 22.9331L3.04248 17.7615V7.4182L12 2.24658ZM4.04753 7.99847V15.5959L10.6271 4.19978L4.04753 7.99847ZM12 3.83191L4.4154 16.9688H19.5846L12 3.83191ZM18.5796 17.9739H5.42045L12 21.7726L18.5796 17.9739ZM19.9525 15.5959L13.3729 4.19978L19.9525 7.99847V15.5959Z" fill="#E30002"/>
<path d="M12 4.94356C13.1691 4.94356 14.1168 3.99584 14.1168 2.82676C14.1168 1.65768 13.1691 0.709961 12 0.709961C10.8309 0.709961 9.88319 1.65768 9.88319 2.82676C9.88319 3.99584 10.8309 4.94356 12 4.94356Z" fill="#E30002"/>
<path d="M20.455 9.8254C21.6241 9.8254 22.5718 8.87767 22.5718 7.7086C22.5718 6.53952 21.6241 5.5918 20.455 5.5918C19.2859 5.5918 18.3382 6.53952 18.3382 7.7086C18.3382 8.87767 19.2859 9.8254 20.455 9.8254Z" fill="#E30002"/>
<path d="M20.455 19.5881C21.6241 19.5881 22.5718 18.6404 22.5718 17.4713C22.5718 16.3022 21.6241 15.3545 20.455 15.3545C19.2859 15.3545 18.3382 16.3022 18.3382 17.4713C18.3382 18.6404 19.2859 19.5881 20.455 19.5881Z" fill="#E30002"/>
<path d="M12 24.4694C13.1691 24.4694 14.1168 23.5217 14.1168 22.3526C14.1168 21.1836 13.1691 20.2358 12 20.2358C10.8309 20.2358 9.88319 21.1836 9.88319 22.3526C9.88319 23.5217 10.8309 24.4694 12 24.4694Z" fill="#E30002"/>
<path d="M3.54382 19.5881C4.71289 19.5881 5.66062 18.6404 5.66062 17.4713C5.66062 16.3022 4.71289 15.3545 3.54382 15.3545C2.37474 15.3545 1.42702 16.3022 1.42702 17.4713C1.42702 18.6404 2.37474 19.5881 3.54382 19.5881Z" fill="#E30002"/>
<path d="M3.54382 9.8254C4.71289 9.8254 5.66062 8.87767 5.66062 7.7086C5.66062 6.53952 4.71289 5.5918 3.54382 5.5918C2.37474 5.5918 1.42702 6.53952 1.42702 7.7086C1.42702 8.87767 2.37474 9.8254 3.54382 9.8254Z" fill="#E30002"/>
</g>
<defs>
<clipPath id="clip0_278_16579">
<rect width="24" height="24" fill="white" transform="translate(0 0.589844)"/>
</clipPath>
</defs>
</svg>
