<svg width="24" height="25" viewBox="0 0 24 25" fill="none" xmlns="http://www.w3.org/2000/svg">
<path d="M12.8696 4H9.91304V6.21739C9.91304 7.44202 10.9058 8.43478 12.1304 8.43478H15.087V6.21739C15.087 4.99276 14.0942 4 12.8696 4Z" fill="#E30002"/>
<path d="M6.95652 9.91304H4V12.1304C4 13.3551 4.99276 14.3478 6.21739 14.3478H9.17391V12.1304C9.17391 10.9058 8.18115 9.91304 6.95652 9.91304Z" fill="#E30002"/>
<path d="M6.95652 15.8261H4V18.0435C4 19.2681 4.99276 20.2609 6.21739 20.2609H9.17391V18.0435C9.17391 16.8188 8.18115 15.8261 6.95652 15.8261Z" fill="#E30002"/>
<path d="M9.91304 9.91304H12.8696C14.0942 9.91304 15.087 10.9058 15.087 12.1304V14.3478H12.1304C10.9058 14.3478 9.91304 13.3551 9.91304 12.1304V9.91304Z" fill="#E30002"/>
<path d="M9.91304 15.8261H12.8696C14.0942 15.8261 15.087 16.8188 15.087 18.0435V20.2609H12.1304C10.9058 20.2609 9.91304 19.2681 9.91304 18.0435V15.8261Z" fill="#E30002"/>
<path d="M18.7826 9.91304H15.8261V12.1304C15.8261 13.3551 16.8188 14.3478 18.0435 14.3478H21V12.1304C21 10.9058 20.0072 9.91304 18.7826 9.91304Z" fill="#E30002"/>
<path d="M15.8261 4H18.7826C20.0072 4 21 4.99276 21 6.21739V8.43478H18.0435C16.8188 8.43478 15.8261 7.44202 15.8261 6.21739V4Z" fill="#E30002"/>
<path d="M18.7826 15.8261H15.8261V18.0435C15.8261 19.2681 16.8188 20.2609 18.0435 20.2609H21V18.0435C21 16.8188 20.0072 15.8261 18.7826 15.8261Z" fill="#E30002"/>
</svg>
