<svg width="24" height="25" viewBox="0 0 24 25" fill="none" xmlns="http://www.w3.org/2000/svg">
<path d="M16.8304 9.29876H9.16663L9.34921 11.3339H16.6489L16.0989 17.4336L11.9904 18.5631L7.88745 17.4336L7.60734 14.3129H9.61798L9.76086 15.8991L11.9915 16.4954L11.996 16.4943L14.2278 15.8969L14.4591 13.3206H7.51776L6.97796 7.31201H17.0107L16.8304 9.29876Z" fill="#E30002"/>
<path d="M3.45231 4.05037L4.90209 20.1802C4.92636 20.4501 5.11556 20.6767 5.37686 20.7487L11.8178 22.5229C11.9307 22.554 12.0499 22.5541 12.1628 22.523L18.6207 20.7464C18.882 20.6745 19.0713 20.448 19.0956 20.178L20.538 4.15829C20.5722 3.77783 20.2726 3.45 19.8906 3.45H4.00113C3.67733 3.45 3.42332 3.72786 3.45231 4.05037Z" stroke="#E30002" stroke-width="1.1"/>
</svg>
