<svg width="24" height="25" viewBox="0 0 24 25" fill="none" xmlns="http://www.w3.org/2000/svg">
<path d="M11.6667 14.6669H8.56667L7.93334 16.6252C7.91667 16.7002 7.85001 16.7502 7.77501 16.7419H6.20834C6.11667 16.7419 6.09167 16.6919 6.11667 16.5919L8.80001 8.86686C8.82501 8.78353 8.85001 8.69186 8.88334 8.59186C8.91667 8.41686 8.93334 8.23353 8.93334 8.0502C8.92501 8.00853 8.95834 7.96686 9.00001 7.95853H11.1583C11.225 7.95853 11.2583 7.98353 11.2667 8.0252L14.3083 16.6085C14.3333 16.7002 14.3083 16.7419 14.225 16.7419H12.4833C12.425 16.7502 12.3667 16.7085 12.35 16.6502L11.6667 14.6669ZM9.05001 12.9752H11.1667C11.1167 12.8002 11.05 12.5919 10.975 12.3752C10.9 12.1502 10.825 11.9085 10.75 11.6585C10.6667 11.4002 10.5917 11.1502 10.5083 10.8919C10.425 10.6335 10.35 10.3919 10.2833 10.1502C10.2167 9.91686 10.1583 9.7002 10.1 9.5002H10.0833C10.0083 9.85853 9.91667 10.2169 9.80001 10.5752C9.67501 10.9752 9.55001 11.3919 9.41667 11.8085C9.30001 12.2335 9.17501 12.6252 9.05001 12.9752ZM16.1667 9.41686C15.8917 9.4252 15.625 9.31686 15.425 9.1252C15.2333 8.91686 15.1333 8.64186 15.1417 8.35853C15.1333 8.0752 15.2417 7.80853 15.4417 7.61686C15.6417 7.4252 15.9083 7.3252 16.1833 7.3252C16.5083 7.3252 16.7583 7.4252 16.9417 7.61686C17.125 7.81686 17.225 8.08353 17.2167 8.35853C17.225 8.64186 17.125 8.91686 16.925 9.1252C16.7333 9.3252 16.45 9.43353 16.1667 9.41686ZM15.2333 16.6502V10.2335C15.2333 10.1502 15.2667 10.1169 15.3417 10.1169H16.9917C17.0667 10.1169 17.1 10.1585 17.1 10.2335V16.6502C17.1 16.7419 17.0667 16.7835 16.9917 16.7835H15.3583C15.275 16.7835 15.2333 16.7335 15.2333 16.6502Z" fill="#E30002"/>
<path d="M20.325 3.03984H3.675C3.00237 3.03984 2.45 3.58211 2.45 4.25977V20.9199C2.45 21.5976 3.00238 22.1398 3.675 22.1398H20.325C20.9976 22.1398 21.55 21.5976 21.55 20.9199V4.25977C21.55 3.5821 20.9976 3.03984 20.325 3.03984Z" stroke="#E30002" stroke-width="1.1"/>
</svg>
