<svg width="24" height="25" viewBox="0 0 24 25" fill="none" xmlns="http://www.w3.org/2000/svg">
<path fill-rule="evenodd" clip-rule="evenodd" d="M16.7603 18.0902C15.9255 18.0902 15.4537 17.6552 15.0915 17.0627L13.7167 17.8615C14.2132 18.8425 15.228 19.591 16.7992 19.591C18.4057 19.591 19.602 18.757 19.602 17.2337C19.602 15.8215 18.7905 15.1937 17.3535 14.5765L16.9305 14.3957C16.2045 14.0807 15.8903 13.876 15.8903 13.3682C15.8903 12.958 16.2053 12.6437 16.7003 12.6437C17.1855 12.6437 17.4982 12.8485 17.7885 13.3682L19.1055 12.523C18.5483 11.5427 17.7758 11.1685 16.7003 11.1685C15.1898 11.1685 14.223 12.1345 14.223 13.4035C14.223 14.7797 15.033 15.4315 16.254 15.9512L16.677 16.1327C17.4488 16.4702 17.9085 16.6757 17.9085 17.2555C17.9085 17.74 17.4608 18.0902 16.7603 18.0902ZM10.2053 18.079C9.624 18.079 9.38175 17.6815 9.11625 17.209L7.73925 18.043C8.13825 18.8875 8.92275 19.588 10.2765 19.588C11.7758 19.588 12.8025 18.7907 12.8025 17.0395V11.2645H11.1113V17.017C11.1113 17.8622 10.761 18.079 10.2053 18.079Z" fill="#E30002"/>
<path d="M20.325 3.03984H3.675C3.00237 3.03984 2.45 3.58211 2.45 4.25977V20.9199C2.45 21.5976 3.00238 22.1398 3.675 22.1398H20.325C20.9976 22.1398 21.55 21.5976 21.55 20.9199V4.25977C21.55 3.5821 20.9976 3.03984 20.325 3.03984Z" stroke="#E30002" stroke-width="1.1"/>
</svg>
