<svg width="24" height="25" viewBox="0 0 24 25" fill="none" xmlns="http://www.w3.org/2000/svg">
<path d="M19.4301 13.6436C19.5885 13.4066 19.673 13.128 19.673 12.843C19.6724 12.4609 19.5204 12.0947 19.2503 11.8246C18.9801 11.5545 18.6139 11.4025 18.2319 11.4019C17.9469 11.4019 17.6683 11.4864 17.4313 11.6447C17.1943 11.8031 17.0096 12.0282 16.9005 12.2915C16.7914 12.5548 16.7629 12.8446 16.8185 13.1241C16.8741 13.4037 17.0114 13.6604 17.2129 13.862C17.4144 14.0635 17.6712 14.2008 17.9508 14.2564C18.2303 14.312 18.5201 14.2834 18.7834 14.1744C19.0467 14.0653 19.2718 13.8806 19.4301 13.6436Z" fill="#E30002"/>
<path d="M17.6781 10.5365L20 3.68945H10.1713L12.4851 10.5167C12.589 10.5377 12.6914 10.5656 12.7916 10.6001L15.0922 5.94619L17.3855 10.6279C17.481 10.5912 17.5788 10.5607 17.6781 10.5365Z" fill="#E30002"/>
<path d="M12.8219 11.6447C12.5849 11.4864 12.3063 11.4019 12.0213 11.4019C11.6392 11.4023 11.2729 11.5542 11.0027 11.8244C10.7325 12.0946 10.5806 12.4609 10.5802 12.843C10.5802 13.128 10.6647 13.4066 10.8231 13.6436C10.9814 13.8806 11.2065 14.0653 11.4698 14.1744C11.7331 14.2834 12.0229 14.312 12.3024 14.2564C12.582 14.2008 12.8388 14.0635 13.0403 13.862C13.2419 13.6604 13.3791 13.4037 13.4347 13.1241C13.4903 12.8446 13.4618 12.5548 13.3527 12.2915C13.2436 12.0282 13.0589 11.8031 12.8219 11.6447Z" fill="#E30002"/>
<path d="M6.58719 11.6586C6.3502 11.5003 6.07158 11.4158 5.78656 11.4158C5.4046 11.4163 5.03773 11.5684 4.76772 11.8385C4.4977 12.1087 4.34585 12.4749 4.34546 12.8569C4.34546 13.1419 4.42998 13.4205 4.58833 13.6575C4.74668 13.8945 4.97175 14.0792 5.23507 14.1883C5.4984 14.2973 5.78815 14.3259 6.0677 14.2703C6.34724 14.2147 6.60402 14.0774 6.80556 13.8759C7.0071 13.6743 7.14436 13.4176 7.19996 13.138C7.25557 12.8585 7.22703 12.5687 7.11795 12.3054C7.00888 12.0421 6.82417 11.817 6.58719 11.6586Z" fill="#E30002"/>
<path d="M19.3754 17.6815C19.6119 17.347 19.772 16.9645 19.8442 16.5613C19.9472 15.9583 19.8555 15.3375 19.5838 14.7895C19.0938 15.1275 18.4947 15.2687 17.9054 15.1852C17.3161 15.1017 16.7798 14.7995 16.4031 14.3387C16.0642 13.9242 15.8767 13.4086 15.8682 12.8767L14.3924 12.8587C14.3906 13.2007 14.3149 13.5403 14.1679 13.8535C13.9507 14.3165 13.5896 14.6968 13.1386 14.9377C12.6875 15.1787 12.1706 15.2673 11.6651 15.1904C11.2698 15.8123 10.7984 16.3824 10.262 16.8875C9.44955 17.664 8.48377 18.262 7.42662 18.6432L7.23716 18.7112L7.05794 18.619C6.44152 18.3236 5.94931 17.8199 5.66823 17.1969C5.38714 16.5738 5.33526 15.8714 5.52175 15.2138C5.31148 15.1901 5.10532 15.1385 4.90873 15.0602C4.85843 15.1654 4.80724 15.271 4.75516 15.3784C4.74058 15.4085 4.72594 15.4387 4.71122 15.4691C4.27792 16.2616 3.96179 17.1126 3.77268 17.9958C3.61175 18.9658 3.5481 20.7361 4.92848 21.6929C6.80995 22.9987 8.81139 22.006 11.1259 20.8568C12.2643 20.2384 13.4661 19.7447 14.7104 19.3842C15.1777 19.2687 15.6552 19.1999 16.1174 19.1334C16.9364 19.0722 17.7369 18.8562 18.4755 18.4969C18.8316 18.2944 19.1389 18.016 19.3754 17.6815Z" fill="#E30002"/>
</svg>
