<svg width="24" height="25" viewBox="0 0 24 25" fill="none" xmlns="http://www.w3.org/2000/svg">
<path d="M12.0977 4C7.07314 4 3 8.02943 3 13C3 17.9706 7.07314 22 12.0977 22C17.1223 22 21.1954 17.9706 21.1954 13C21.1954 8.02943 17.1229 4 12.0977 4ZM16.4164 15.2069C13.305 18.2843 7.74814 17.3026 7.74814 17.3026C7.74814 17.3026 6.74529 11.8159 9.86636 8.72757C11.5956 7.01693 14.4615 7.08764 16.2731 8.869C18.0846 10.6504 18.1457 13.4963 16.4164 15.2069ZM13.1417 9.27464L12.2514 11.0869L10.4199 11.9676L12.2514 12.8483L13.1417 14.6605L14.0321 12.8483L15.8642 11.9676L14.0321 11.0869L13.1417 9.27464Z" fill="#E30002"/>
</svg>
