<svg width="24" height="25" viewBox="0 0 24 25" fill="none" xmlns="http://www.w3.org/2000/svg">
<g clip-path="url(#clip0_280_17247)">
<path d="M7.76294 19.9088C8.86535 21.0071 11.7992 23.9866 11.7979 23.9894C11.7873 24.0087 14.7128 21.0825 15.8779 19.9225L11.8134 15.8735L7.76294 19.9088Z" stroke="#E30002" stroke-width="1.1" stroke-linejoin="round"/>
<path d="M11.8132 15.8732L15.8778 19.9221C15.8838 19.9154 15.8911 19.9074 15.8978 19.9018L19.9585 15.8567L15.8941 11.8076L11.8132 15.8732Z" stroke="#E30002" stroke-width="1.1" stroke-linejoin="round"/>
<path d="M19.9584 15.8567L19.9688 15.8459C22.2147 13.6084 22.2164 9.98205 19.9755 7.7417L15.8942 11.8076L19.9584 15.8567Z" stroke="#E30002" stroke-width="1.1" stroke-linejoin="round"/>
<path d="M7.73219 11.8076L3.68274 15.842C3.68374 15.8432 3.68424 15.8448 3.68575 15.8457L7.75644 19.9016C7.75864 19.9038 7.7608 19.9058 7.76312 19.9083L11.8134 15.8732L7.73219 11.8076Z" stroke="#E30002" stroke-width="1.1" stroke-linejoin="round"/>
<path d="M11.8132 7.74233L15.8941 11.8083L19.9754 7.74233C19.972 7.74002 19.9709 7.73816 19.9687 7.73552L15.8978 3.68009C15.897 3.67876 15.8955 3.67793 15.8943 3.67676L11.8132 7.74233Z" stroke="#E30002" stroke-width="1.1" stroke-linejoin="round"/>
<path d="M3.66531 7.75635C1.43925 9.99654 1.44477 13.6095 3.6827 15.8427L7.73215 11.8083L3.66531 7.75635Z" stroke="#E30002" stroke-width="1.1" stroke-linejoin="round"/>
<path d="M11.8133 7.74186L7.74612 3.68994L3.68562 7.73501C3.6786 7.74186 3.67241 7.74936 3.66522 7.75584L7.73206 11.8078L11.8133 7.74186Z" stroke="#E30002" stroke-width="1.1" stroke-linejoin="round"/>
<path d="M15.8943 3.67635C13.6455 1.44 10.0035 1.44133 7.75624 3.67968L7.74622 3.69001L11.8134 7.74194L15.8943 3.67635Z" stroke="#E30002" stroke-width="1.1" stroke-linejoin="round"/>
</g>
<defs>
<clipPath id="clip0_280_17247">
<rect width="24" height="24" fill="white" transform="translate(0 0.589844)"/>
</clipPath>
</defs>
</svg>
