<svg width="24" height="25" viewBox="0 0 24 25" fill="none" xmlns="http://www.w3.org/2000/svg">
<g clip-path="url(#clip0_280_16742)">
<path d="M11.2399 22.8154V17.7971L11.3445 17.6924H12.39L12.4946 17.7971V22.8154L12.39 22.9201H11.3445L11.2399 22.8154Z" fill="#E30002"/>
<path d="M11.2399 8.12271V3.10465L11.3445 3H12.39L12.4946 3.10465V8.12271L12.39 8.22736H11.3445L11.2399 8.12271Z" fill="#E30002"/>
<path d="M6.69537 19.1979H6.54754L5.80841 18.4584V18.3105L7.53439 16.585L8.31707 16.5853L8.42209 16.6896V17.4723L6.69537 19.1979Z" fill="#E30002"/>
<path d="M6.69464 6.72168H6.54681L5.80768 7.46118V7.60901L7.53366 9.33463L8.31634 9.33426L8.42135 9.22998V8.44731L6.69464 6.72168Z" fill="#E30002"/>
<path d="M0.10465 12.3325H7.21387L7.31852 12.4372V13.4825L7.21387 13.5873H0.10465L0 13.4825V12.4372L0.10465 12.3325Z" fill="#E30002"/>
<path d="M16.7744 12.3325L23.8952 12.3325L23.9999 12.4372V13.4825L23.8952 13.5873H16.7861L16.6814 13.4825L16.6697 12.4372L16.7744 12.3325Z" fill="#E30002"/>
<path d="M12.9645 15.6033L12.8599 15.4986L12.8605 12.4674C12.8605 11.9446 12.6549 11.5391 12.0237 11.526C11.6992 11.5175 11.3278 11.5252 10.9311 11.5421L10.8718 11.6028L10.8726 15.4986L10.7679 15.6033H9.51285L9.4082 15.4986V10.4213L9.51285 10.3166L12.3373 10.291C13.7523 10.291 14.3249 11.2632 14.3249 12.3606V15.4986L14.2203 15.6033H12.9645Z" fill="#E30002"/>
</g>
<defs>
<clipPath id="clip0_280_16742">
<rect width="24" height="24" fill="white" transform="translate(0 0.589844)"/>
</clipPath>
</defs>
</svg>
