<svg width="24" height="25" viewBox="0 0 24 25" fill="none" xmlns="http://www.w3.org/2000/svg">
<path d="M9.77529 18.2142C9.29693 17.8573 9.31165 16.9521 9.60603 15.9843C9.94455 14.8878 10.6474 13.7508 11.4937 12.68C11.6777 13.2283 11.8469 13.7544 11.972 14.2586C12.3658 15.8997 11.972 16.7423 11.4937 17.5003C11.0006 18.2767 10.2536 18.5711 9.77529 18.2142Z" fill="#E30002"/>
<path d="M11.8028 9.16592C11.8028 8.05098 12.4909 6.78518 13.1826 6.59752C13.8339 6.42826 14.0842 7.41808 14.029 8.51462C13.3814 8.95618 12.6491 9.58908 11.9573 10.3029C11.858 9.90185 11.8028 9.52285 11.8028 9.16592Z" fill="#E30002"/>
<path fill-rule="evenodd" clip-rule="evenodd" d="M8.88481 3.32666H15.28C16.5385 3.32666 17.7013 4.00004 18.3305 5.08921L21.5281 10.6271C22.1573 11.7163 22.1573 13.0593 21.5281 14.1485L21.2271 14.6698C21.217 14.6252 21.2044 14.5849 21.1896 14.5494C21.1013 14.3396 20.9798 14.3396 20.8915 14.5751C20.2255 16.4186 19.3608 18.1554 18.6396 18.2069C18.003 18.2621 17.9 17.0258 18.3562 15.4987C18.5796 14.7455 18.9429 13.8152 19.2856 12.938C19.564 12.2253 19.8288 11.5475 19.9937 11.0279C20.4316 9.6591 19.887 8.37122 19.3056 8.23875C18.7242 8.10628 17.5246 9.55238 16.7298 10.8145C16.9249 9.86884 16.9433 8.97468 16.6783 8.31602C16.5753 8.05477 16.4318 8.02533 16.3104 8.31602C15.1991 10.763 13.845 14.4206 13.4917 16.0764C13.2121 17.39 13.3151 18.2584 13.6684 18.7846C13.8266 19.0201 13.9333 18.9134 14.0032 18.6779C14.7612 16.2052 15.5376 13.681 16.5753 11.9957C17.7049 10.1558 18.7242 9.41624 18.9008 9.52295C19.054 9.62444 18.7703 10.3299 18.3708 11.3234C17.9447 12.3829 17.3868 13.77 17.0868 15.1013C16.579 17.39 16.9285 19.0201 18.4262 19.0201C18.5295 19.0201 18.6339 19.0063 18.7384 18.9799L18.3305 19.6864C17.7013 20.7756 16.5385 21.4453 15.28 21.4453H8.88481C7.62637 21.4453 6.4636 20.7756 5.83437 19.6864L4.91855 18.0985C5.26433 17.7179 5.57472 17.2242 5.81238 16.6487C5.79708 16.7128 5.78353 16.7724 5.77183 16.8271C5.50321 18.1334 5.61728 18.7847 5.84174 19.1637C5.94109 19.333 6.04044 19.2888 6.09563 19.0791C6.91472 16.1472 7.9797 13.2612 8.8102 11.0107C9.10642 10.208 9.37287 9.48599 9.58763 8.8717C10.1249 7.35568 10.0954 6.55719 9.68698 6.00892C9.54715 5.82126 9.4478 5.83966 9.32269 6.00892C8.90321 6.6823 8.39542 7.41823 7.97226 8.02905C7.84715 8.21672 7.76252 8.53317 8.47637 8.47061C7.6831 10.621 6.71543 13.5085 6.16287 15.3738C6.19463 15.0728 6.175 14.8059 6.09932 14.5789C6.02573 14.3691 5.9043 14.3434 5.81599 14.5789C5.49823 15.6667 5.023 16.7268 4.52282 17.4123L3.40925 15.4816C3.62469 14.762 3.93295 13.9247 4.22412 13.1339C4.45506 12.5067 4.67525 11.9087 4.82984 11.4217C5.253 10.1081 5.11317 8.97475 4.84824 8.55527C4.70841 8.31977 4.5833 8.39704 4.42508 8.71349C3.89959 9.81494 3.04354 12.0494 2.50051 13.8804C2.0153 12.8444 2.06195 11.6285 2.64043 10.6271L4.96252 6.59823C4.90867 6.9843 4.94701 7.42861 5.11317 7.84509C5.37811 8.52951 5.87118 8.60678 6.09932 8.23881C6.32746 7.87085 6.45257 7.16068 6.22443 6.47626C6.05815 5.96686 5.74987 5.66003 5.48429 5.69293L5.83437 5.08553C6.4636 3.99636 7.62637 3.32666 8.88481 3.32666ZM12.4946 18.067C13.5212 16.5105 13.3961 14.9099 12.8883 13.2687C12.7486 12.8163 12.5914 12.3638 12.4435 11.9383L12.351 11.6718C13.5175 10.3876 14.8017 9.23215 15.7584 8.45207C15.8982 8.34536 15.8982 8.17977 15.7731 8.07306C15.5928 7.9038 15.2948 7.86332 14.901 8.01051C15.0004 5.94622 13.6904 5.37955 12.4357 6.11548C11.5746 6.6196 10.8314 7.73453 10.7173 9.16592C10.6621 9.77674 10.8314 10.5347 11.0558 11.2928C10.1285 12.4077 9.31165 13.6698 8.88849 14.8068C8.36966 16.1757 8.27031 18.0486 9.48092 18.9317C10.3125 19.5389 11.7623 19.1819 12.4946 18.067Z" fill="#E30002"/>
</svg>
