<svg width="24" height="25" viewBox="0 0 24 25" fill="none" xmlns="http://www.w3.org/2000/svg">
<g clip-path="url(#clip0_278_16554)">
<mask id="mask0_278_16554" style="mask-type:alpha" maskUnits="userSpaceOnUse" x="2" y="3" width="20" height="20">
<path d="M12 23C17.5228 23 22 18.5228 22 13C22 7.47715 17.5228 3 12 3C6.47715 3 2 7.47715 2 13C2 18.5228 6.47715 23 12 23Z" fill="black"/>
</mask>
<g mask="url(#mask0_278_16554)">
<path d="M21.45 13C21.45 18.2191 17.2191 22.45 12 22.45C6.78091 22.45 2.55 18.2191 2.55 13C2.55 7.78091 6.78091 3.55 12 3.55C17.2191 3.55 21.45 7.78091 21.45 13Z" stroke="#E30002" stroke-width="1.1"/>
<path d="M18.612 20.5022L9.68244 9H8V16.9967H9.34596V10.7093L17.5554 21.3161C17.9259 21.0682 18.2788 20.7961 18.612 20.5022Z" fill="url(#paint0_linear_278_16554)"/>
<path d="M16.1111 9H14.7778V17H16.1111V9Z" fill="url(#paint1_linear_278_16554)"/>
</g>
</g>
<defs>
<linearGradient id="paint0_linear_278_16554" x1="14.1111" y1="15.9444" x2="18.0556" y2="20.8333" gradientUnits="userSpaceOnUse">
<stop stop-color="#E30002"/>
<stop offset="1" stop-color="#E30002" stop-opacity="0"/>
</linearGradient>
<linearGradient id="paint1_linear_278_16554" x1="15.4444" y1="9" x2="15.4221" y2="14.875" gradientUnits="userSpaceOnUse">
<stop stop-color="#E30002"/>
<stop offset="1" stop-color="#E30002" stop-opacity="0"/>
</linearGradient>
<clipPath id="clip0_278_16554">
<rect width="20" height="20" fill="white" transform="translate(2 3)"/>
</clipPath>
</defs>
</svg>
