<svg width="24" height="25" viewBox="0 0 24 25" fill="none" xmlns="http://www.w3.org/2000/svg">
<path d="M11.7207 22.0075C11.4635 22.0075 11.2235 21.9386 11.0007 21.8178L8.72079 20.4552C8.37799 20.2654 8.54939 20.1964 8.65224 20.1619C9.1151 20.0067 9.20075 19.9722 9.68073 19.6962C9.73216 19.6617 9.80079 19.679 9.85221 19.7135L11.6007 20.7656C11.6692 20.8001 11.7549 20.8001 11.8063 20.7656L18.6462 16.7812C18.7143 16.7467 18.7492 16.6777 18.7492 16.5915V8.63982C18.7492 8.55362 18.7143 8.48463 18.6462 8.45014L11.8063 4.48295C11.7378 4.44846 11.652 4.44846 11.6007 4.48295L4.76103 8.45014C4.6924 8.48463 4.65818 8.57083 4.65818 8.63982V16.5915C4.65818 16.6605 4.6924 16.7467 4.76103 16.7812L6.6295 17.8679C7.64087 18.3853 8.27513 17.7816 8.27513 17.1779V9.3298C8.27513 9.22632 8.36078 9.12284 8.48084 9.12284H9.35505C9.4579 9.12284 9.56076 9.20903 9.56076 9.3298V17.1779C9.56076 18.5406 8.82364 19.334 7.53801 19.334C7.14379 19.334 6.83521 19.334 5.96092 18.9028L4.161 17.8679C3.71534 17.6091 3.44109 17.1262 3.44109 16.6087V8.65711C3.44109 8.1396 3.71534 7.65667 4.161 7.39791L11.0007 3.41352C11.4292 3.17206 12.012 3.17206 12.4406 3.41352L19.2805 7.39791C19.7258 7.65667 20 8.1396 20 8.65711V16.6087C20 17.1262 19.7258 17.6091 19.2805 17.8679L12.4406 21.8523C12.2349 21.9386 11.9778 22.0075 11.7207 22.0075Z" fill="#E30002"/>
<path d="M13.8465 16.5398C10.8462 16.5398 10.2292 15.1599 10.2292 13.987C10.2292 13.8835 10.3148 13.78 10.4348 13.78H11.3262C11.429 13.78 11.5148 13.849 11.5148 13.9525C11.6519 14.8666 12.0462 15.3151 13.8635 15.3151C15.3033 15.3151 15.9206 14.9874 15.9206 14.2112C15.9206 13.7628 15.7486 13.435 13.5032 13.2108C11.6348 13.021 10.4691 12.6071 10.4691 11.1064C10.4691 9.70932 11.6348 8.88135 13.589 8.88135C15.7836 8.88135 16.8632 9.64033 17.0003 11.2962C17.0003 11.348 16.9833 11.3997 16.9492 11.4514C16.9143 11.4859 16.8632 11.5204 16.8112 11.5204H15.9027C15.8176 11.5204 15.7316 11.4514 15.7146 11.3652C15.5085 10.4165 14.9772 10.1061 13.5719 10.1061C11.9948 10.1061 11.8062 10.658 11.8062 11.0719C11.8062 11.5721 12.029 11.7274 14.1547 12.0034C16.2629 12.2793 17.2574 12.6761 17.2574 14.1594C17.2574 15.6773 16.0058 16.5398 13.8465 16.5398Z" fill="#E30002"/>
</svg>
