<svg width="24" height="25" viewBox="0 0 24 25" fill="none" xmlns="http://www.w3.org/2000/svg">
<g clip-path="url(#clip0_292_8146)">
<path d="M6.72407 8.5856L6.92266 8.58154L7.02668 8.75311L6.82809 8.75717L6.72407 8.5856Z" fill="#E30002"/>
<path d="M6.13508 9.06878L6.41607 9.06293L6.58718 9.34527L6.30619 9.35113L6.13508 9.06878Z" fill="#E30002"/>
<path d="M23.7351 14.4639L23.7349 13.7338H23.7421C23.7421 13.5295 23.7418 13.3251 23.7416 13.1206C23.7409 12.595 23.7403 12.0691 23.7439 11.5435C23.7452 11.335 23.6673 11.1927 23.4832 11.0883C22.5488 10.5578 21.6162 10.0233 20.6868 9.48289C20.4922 9.36986 20.3229 9.37166 20.1302 9.48514C19.8069 9.67549 19.4813 9.86203 19.1557 10.0486C18.8782 10.2076 18.6007 10.3667 18.3245 10.5281C18.2313 10.5821 18.1655 10.5826 18.0718 10.5281C17.7281 10.3278 17.3829 10.1301 17.0377 9.93253C16.7644 9.77608 16.4909 9.61949 16.2184 9.46172C16.0608 9.37031 15.9144 9.36806 15.7564 9.45902C14.8617 9.9746 13.9659 10.4886 13.0692 11.001L13.1756 10.8212C13.2449 10.6636 13.2026 10.597 13.031 10.597C12.8302 10.5968 12.6294 10.5969 12.4285 10.5969C12.0269 10.597 11.6252 10.5971 11.2235 10.5956C11.1348 10.5952 11.0785 10.6271 11.0344 10.7046C10.842 11.0436 10.6464 11.3806 10.4506 11.7179L10.4193 11.7718C10.1831 12.1791 9.70084 12.9781 9.53951 13.2457L9.51251 13.2905L9.51561 13.2848L9.23012 12.8017L9.21237 12.8578L9.01129 12.5127L8.93159 12.3754L8.74876 12.0615L7.9927 12.1637L7.9157 12.0237L7.68199 11.6229L7.42397 11.6261L7.49466 11.7476L6.83722 11.7512L6.69312 11.5031L6.41044 11.5052C6.40196 11.3165 6.31998 11.1873 6.14729 11.0891C5.20255 10.5528 4.26052 10.0111 3.32073 9.46618C3.14961 9.36712 2.99921 9.37072 2.829 9.46934C1.89417 10.0111 0.957533 10.5501 0.0172978 11.0828C-0.179485 11.1945 -0.258739 11.3417 -0.256037 11.5655C-0.25016 12.0863 -0.251148 12.607 -0.252136 13.1277C-0.25251 13.3253 -0.252885 13.5228 -0.252885 13.7203H-0.248382L-0.248582 14.4561C-0.248782 14.9466 -0.248982 15.4372 -0.248382 15.9277C-0.247931 16.2195 -0.135355 16.2817 0.121768 16.1349C0.273588 16.0481 0.425141 15.9609 0.576683 15.8738C0.94642 15.6612 1.31644 15.4484 1.68973 15.2415C1.88066 15.1356 1.96306 14.9969 1.95991 14.7772C1.95445 14.3806 1.95512 13.9839 1.95578 13.5873C1.95621 13.33 1.95665 13.0724 1.95541 12.8152C1.95451 12.6224 2.02025 12.4788 2.19497 12.3833C2.42053 12.26 2.64204 12.1298 2.86355 11.9997C3.00855 11.9146 3.14961 11.9159 3.29416 12.001C3.33793 12.0266 3.38159 12.0525 3.42525 12.0783C3.58781 12.1746 3.75039 12.2708 3.91828 12.3567C4.12723 12.4639 4.20423 12.6251 4.20198 12.8534C4.19865 13.1729 4.19915 13.4924 4.19965 13.812C4.20016 14.1407 4.20068 14.4693 4.19702 14.7979C4.19477 15.0041 4.27628 15.1347 4.45415 15.2338C4.82942 15.4431 5.20221 15.6571 5.57491 15.8711C5.72904 15.9596 5.88315 16.0481 6.03742 16.1362C6.29274 16.2821 6.40216 16.2186 6.40261 15.9219C6.40377 15.384 6.40451 14.8461 6.40524 14.3082C6.40637 13.4798 6.4075 12.6513 6.41019 11.8229L8.50073 15.1092L8.48257 15.1667L8.48117 15.1699C8.59458 15.3495 8.72091 15.5422 8.84653 15.7339C8.95433 15.8984 9.06162 16.0621 9.15978 16.216C9.08856 16.1015 9.1289 16.1561 9.19295 16.2428C9.24633 16.315 9.31621 16.4095 9.35161 16.447C9.51372 16.619 9.65106 16.6213 9.81227 16.4492C9.87576 16.3812 9.9316 16.3051 9.98608 16.2295C10.233 15.8851 10.448 15.5206 10.663 15.1562L10.6732 15.1388C10.9785 14.6216 11.2782 14.1012 11.5779 13.5807L11.5785 13.5797C11.7243 13.3265 11.8701 13.0734 12.0165 12.8206C12.1616 12.5702 12.3081 12.3208 12.4546 12.0713L12.6222 11.7858L12.6538 11.7262C12.6555 12.5008 12.6564 13.2756 12.6572 14.0504C12.6578 14.6861 12.6585 15.3223 12.6596 15.9579C12.6601 16.2079 12.7781 16.2759 12.9933 16.1534C13.2023 16.0345 13.411 15.9149 13.6197 15.7952C13.9533 15.604 14.2869 15.4127 14.6221 15.2244C14.7932 15.128 14.8688 14.9974 14.8666 14.7988C14.863 14.4717 14.8634 14.1446 14.8639 13.8176C14.8643 13.4907 14.8648 13.1634 14.8612 12.8364C14.8585 12.6117 14.9436 12.4604 15.1426 12.3568C15.3448 12.2519 15.5416 12.1357 15.7357 12.0168C15.9027 11.9146 16.0603 11.9105 16.2288 12.0141C16.4228 12.1334 16.6192 12.2501 16.8218 12.3536C17.0289 12.4599 17.1113 12.6189 17.1091 12.8485C17.106 13.1433 17.1066 13.4381 17.1072 13.7328C17.1079 14.0804 17.1086 14.4285 17.1032 14.7759C17.0996 14.9961 17.1838 15.1352 17.3734 15.2406C17.7448 15.447 18.1132 15.6584 18.4815 15.8698C18.6299 15.955 18.7784 16.0402 18.927 16.125C19.2102 16.2867 19.3093 16.2304 19.3102 15.9071L19.3119 15.3024V15.2998C19.3143 14.4453 19.3168 13.59 19.3142 12.7355C19.3138 12.5743 19.3755 12.4694 19.5083 12.3933C19.7366 12.2627 19.9645 12.1321 20.1919 11.9997C20.3432 11.9114 20.4891 11.9164 20.639 12.006L20.7022 12.0437C20.8816 12.1507 21.0616 12.2581 21.2474 12.3536C21.455 12.4604 21.5365 12.6193 21.5342 12.849C21.5311 13.1438 21.5317 13.4386 21.5323 13.7334C21.533 14.081 21.5337 14.4289 21.5284 14.7763C21.5248 14.997 21.6099 15.1361 21.799 15.241C22.1628 15.4432 22.5241 15.6501 22.8853 15.857L22.8864 15.8576L22.8874 15.8582C23.0477 15.95 23.2079 16.0418 23.3683 16.1331C23.63 16.2822 23.7344 16.2236 23.7349 15.9242C23.7355 15.4375 23.7353 14.9507 23.7351 14.4639Z" fill="#E30002"/>
<path d="M6.45704 10.4539L6.16885 10.4598L6.34447 10.7498L6.44759 10.7476L6.61105 11.0177L7.08342 11.0078L6.79567 10.5332L6.50883 10.5391L6.45704 10.4539Z" fill="#E30002"/>
<path d="M5.91173 9.46191L5.67486 9.46686L5.81896 9.70462L6.05582 9.69967L5.91173 9.46191Z" fill="#E30002"/>
<path d="M6.46154 9.87576L6.21207 9.88116L6.34266 10.0969L6.59213 10.0915L6.46154 9.87576Z" fill="#E30002"/>
<path d="M7.28155 10.0221L7.68502 10.0135L8.00159 10.5359L7.48194 10.5467L7.29236 10.2337L7.04199 10.2387L6.85106 9.92303L7.21671 9.91537L7.28155 10.0221Z" fill="#E30002"/>
<path d="M7.25904 9.3115L6.90645 9.31916L7.09107 9.62447L7.44411 9.61681L7.25904 9.3115Z" fill="#E30002"/>
<path d="M5.54248 8.6698L5.70504 8.6662L5.79014 8.8067L5.62758 8.8103L5.54248 8.6698Z" fill="#E30002"/>
<path d="M8.38209 11.097L7.73726 11.111L7.86514 11.3217L8.06238 11.3176L8.18126 11.5131L8.62841 11.5036L8.38209 11.097Z" fill="#E30002"/>
<path d="M5.65646 9.99921L5.85549 9.99515L5.95906 10.1667L5.76048 10.1708L5.65646 9.99921Z" fill="#E30002"/>
</g>
<defs>
<clipPath id="clip0_292_8146">
<rect width="24" height="24" fill="white" transform="translate(0 0.589844)"/>
</clipPath>
</defs>
</svg>
