<svg width="24" height="25" viewBox="0 0 24 25" fill="none" xmlns="http://www.w3.org/2000/svg">
<path fill-rule="evenodd" clip-rule="evenodd" d="M8.56464 14.1972C9.7972 14.1972 10.8882 13.8712 11.5824 13.1771C12.1208 12.667 12.4041 11.9162 12.4042 11.0094C12.4042 10.1169 12.0359 9.36603 11.4691 8.89843C10.8599 8.38834 9.92483 8.11914 8.64961 8.11914C7.47384 8.11914 6.60957 8.20423 5.98621 8.31754V17.739H7.71454V14.1404C7.94127 14.1829 8.23877 14.1972 8.56464 14.1972ZM13.1118 17.399C13.6219 17.6824 14.3727 17.8808 15.2087 17.8808C17.0363 17.8808 18.0138 16.9741 18.0139 15.7274C17.9997 14.7072 17.4188 14.0697 16.1721 13.6163C15.2936 13.3047 14.9678 13.0921 14.9678 12.6528C14.9678 12.2279 15.3078 11.9303 15.9312 11.9303C16.5403 11.9303 17.0929 12.1571 17.3904 12.327L17.7304 11.0944C17.3339 10.882 16.668 10.6836 15.9029 10.6836C14.3019 10.6836 13.2961 11.6328 13.2961 12.8512C13.2819 13.6588 13.8485 14.3955 15.1945 14.8631C16.0446 15.1606 16.3279 15.4015 16.3279 15.8689C16.3279 16.3224 15.9878 16.6341 15.2228 16.6341C14.5995 16.6341 13.8485 16.379 13.4518 16.1381L13.1118 17.399ZM8.56464 12.8371C9.868 12.8371 10.6615 12.1995 10.6615 11.0802C10.6615 10.0177 9.92483 9.451 8.72056 9.451C8.2388 9.451 7.8988 9.4935 7.71454 9.53597V12.7663C7.9271 12.8229 8.21047 12.8371 8.56464 12.8371Z" fill="#E30002"/>
<path d="M20.325 3.03984H3.675C3.00237 3.03984 2.45 3.58211 2.45 4.25977V20.9199C2.45 21.5976 3.00238 22.1398 3.675 22.1398H20.325C20.9976 22.1398 21.55 21.5976 21.55 20.9199V4.25977C21.55 3.5821 20.9976 3.03984 20.325 3.03984Z" stroke="#E30002" stroke-width="1.1"/>
</svg>
