<svg width="24" height="25" viewBox="0 0 24 25" fill="none" xmlns="http://www.w3.org/2000/svg">
<path d="M12.8998 5C9.78856 5 7.26657 7.52199 7.26657 10.6332C7.26657 10.6942 7.26762 10.7546 7.26972 10.8151V16.2286C7.26972 16.2286 7.26972 16.2291 7.26972 16.2296V16.7799C7.26972 16.7799 7.26972 16.7799 7.27025 16.7794V18.1403C7.27025 18.1508 7.26972 18.1608 7.26972 18.1713C7.26972 18.1818 7.27025 18.1923 7.27078 18.2028V18.2281H7.2713C7.30126 19.2735 8.15752 20.1119 9.21036 20.1119C10.2632 20.1119 11.1284 19.2735 11.1584 18.2281V16.2296H12.7678C12.8115 16.2307 12.8556 16.2312 12.8992 16.2312C16.0105 16.2312 18.5325 13.7444 18.5325 10.6332C18.5325 7.52199 16.011 5 12.8998 5ZM12.8998 12.3415C12.5555 12.3415 11.6829 12.3415 11.3208 12.3415H11.1599V10.6337C11.1599 9.67655 11.9426 8.90019 12.8998 8.90019C13.857 8.90019 14.6333 9.67655 14.6333 10.6337C14.6333 11.5909 13.857 12.342 12.8998 12.342V12.3415Z" fill="#E30002"/>
</svg>
