<svg width="24" height="25" viewBox="0 0 24 25" fill="none" xmlns="http://www.w3.org/2000/svg">
<g clip-path="url(#clip0_292_8141)">
<path fill-rule="evenodd" clip-rule="evenodd" d="M16.5795 6.75235C19.1801 7.51365 21.2845 7.30444 22.1617 7.1365C22.3326 7.10381 22.4922 7.06994 22.6404 7.03851C23.5727 6.84077 24.0503 6.73948 23.9958 7.63323C23.9404 8.5476 23.739 9.96571 23.2798 11.8384C22.2847 15.8949 19.0106 23.7143 12.8606 21.9146C11.179 21.4222 10.0126 20.4247 9.22589 19.1521C9.01947 19.2439 8.801 19.3243 8.56985 19.3923C3.82149 20.789 1.30895 14.7793 0.548709 11.6604C0.197307 10.2202 0.0439002 9.12976 0.00302083 8.42645C-0.037507 7.73842 0.330732 7.81544 1.04914 7.9657C1.16335 7.98959 1.28642 8.01533 1.4181 8.04014C2.09522 8.16819 3.7181 8.32496 5.7255 7.73383C7.04097 7.34671 8.06726 6.77209 8.76699 6.28644C9.12079 5.03469 9.46739 4.09696 9.75279 3.46451C10.1149 2.66018 10.4821 3.00876 11.1988 3.68918C11.3126 3.7973 11.4353 3.91379 11.5683 4.03536C12.2521 4.66083 13.9781 5.99151 16.5795 6.75235ZM7.82313 14.2092C7.77718 14.2218 7.73076 14.2353 7.68388 14.2498C5.39201 14.9598 5.06729 17.0203 5.06729 17.0203L8.07185 16.0899C7.94726 15.4756 7.86718 14.8439 7.82313 14.2092ZM12.4163 9.3561C10.7722 8.84574 9.80278 10.4923 9.80278 10.4923L14.1889 11.8528C14.1889 11.8528 14.0615 9.86645 12.4163 9.3561ZM10.4782 14.4373C10.4782 14.4373 10.9243 16.9558 13.8162 17.881C16.6525 18.7862 18.218 16.8453 18.2465 16.8099C18.2468 16.8095 18.2469 16.8094 18.2469 16.8094L10.4782 14.4373ZM19.1748 11.5716C17.5309 11.0598 16.5629 12.7052 16.5629 12.7052L20.948 14.0691C20.948 14.0691 20.8186 12.0827 19.1748 11.5716ZM5.7451 10.7324L2.3706 11.7033C2.3706 11.7033 3.11632 12.8782 4.38171 12.5144C5.64675 12.1502 5.7451 10.7324 5.7451 10.7324Z" fill="#E30002"/>
</g>
<defs>
<clipPath id="clip0_292_8141">
<rect width="24" height="24" fill="white" transform="translate(0 0.589844)"/>
</clipPath>
</defs>
</svg>
