<svg width="24" height="25" viewBox="0 0 24 25" fill="none" xmlns="http://www.w3.org/2000/svg">
<g clip-path="url(#clip0_292_2742)">
<g clip-path="url(#clip1_292_2742)">
<path d="M8.57025 24.0198C8.57025 24.3363 8.316 24.5898 8.00025 24.5898H2.28525C1.52325 24.5898 1.52325 23.4453 2.28525 23.4453H8.00025C8.31675 23.4453 8.57025 23.7033 8.57025 24.0198ZM8.00025 21.1601H6.85575C6.09375 21.1601 6.09375 22.3046 6.85575 22.3046H8.00025C8.76225 22.3046 8.76225 21.1601 8.00025 21.1601ZM2.28525 22.3046H4.5705C5.3325 22.3046 5.3325 21.1601 4.5705 21.1601H2.28525C1.52325 21.1601 1.52325 22.3046 2.28525 22.3046ZM8.00025 18.8748H2.28525C1.52325 18.8748 1.52325 20.0193 2.28525 20.0193H8.00025C8.76225 20.0193 8.76225 18.8748 8.00025 18.8748ZM15.9997 16.5896H5.71425C4.95225 16.5896 4.95225 17.7341 5.71425 17.7341H15.9997C16.7617 17.7341 16.7617 16.5896 15.9997 16.5896ZM2.28525 17.7341H3.42975C4.19175 17.7341 4.19175 16.5896 3.42975 16.5896H2.28525C1.52325 16.5896 1.52325 17.7341 2.28525 17.7341ZM19.4295 14.3043H15.9997C15.2377 14.3043 15.2377 15.4451 15.9997 15.4451H19.4295C20.1915 15.4451 20.1915 14.3043 19.4295 14.3043ZM9.14475 15.4451H13.7152C14.4772 15.4451 14.4772 14.3043 13.7152 14.3043H9.14475C8.38275 14.3043 8.38275 15.4451 9.14475 15.4451ZM2.28525 15.4451H6.85575C7.61775 15.4451 7.61775 14.3043 6.85575 14.3043H2.28525C1.52325 14.3043 1.52325 15.4451 2.28525 15.4451ZM20.5702 12.0198H11.4292C10.6672 12.0198 10.6672 13.1606 11.4292 13.1606H20.5702C21.3322 13.1606 21.3322 12.0198 20.5702 12.0198ZM9.71475 12.5898C9.71475 12.2733 9.45675 12.0198 9.14475 12.0198H5.715C4.953 12.0198 4.953 13.1606 5.715 13.1606H9.14475C9.4575 13.1606 9.71475 12.9056 9.71475 12.5898ZM2.28525 13.1598H3.42975C4.19175 13.1598 4.19175 12.0191 3.42975 12.0191H2.28525C1.52325 12.0191 1.52325 13.1598 2.28525 13.1598ZM21.7147 9.73459H15.9997C15.2377 9.73459 15.2377 10.8753 15.9997 10.8753H21.7147C22.4767 10.8753 22.4767 9.73459 21.7147 9.73459ZM2.28525 10.8753H8.00025C8.76225 10.8753 8.76225 9.73459 8.00025 9.73459H2.28525C1.52325 9.73459 1.52325 10.8753 2.28525 10.8753ZM15.4297 8.01934C15.4297 8.33209 15.684 8.58934 15.9997 8.58934H21.7147C22.4767 8.58934 22.4767 7.44484 21.7147 7.44484H15.9997C15.6832 7.44484 15.4297 7.70284 15.4297 8.01934ZM6.85575 7.44559C6.09375 7.44559 6.09375 8.59009 6.85575 8.59009H8.00025C8.76225 8.59009 8.76225 7.44559 8.00025 7.44559H6.85575ZM2.28525 8.59009H4.5705C5.3325 8.59009 5.3325 7.44559 4.5705 7.44559H2.28525C1.52325 7.44559 1.52325 8.59009 2.28525 8.59009ZM18.8557 5.73409C18.8557 6.04684 19.1137 6.30409 19.4302 6.30409H20.571C21.333 6.30409 21.333 5.15959 20.571 5.15959H19.4302C19.1137 5.15959 18.8602 5.41759 18.8602 5.73409H18.8557ZM17.715 5.73409C17.715 5.41759 17.457 5.15959 17.145 5.15959H12.5707C11.8087 5.15959 11.8087 6.30409 12.5707 6.30409H17.1412C17.4577 6.30409 17.715 6.04609 17.715 5.73409ZM2.28525 6.30484H10.2855C11.0475 6.30484 11.0475 5.16034 10.2855 5.16034H2.28525C1.52325 5.16034 1.52325 6.30484 2.28525 6.30484ZM7.4295 3.44509C7.4295 3.76159 7.68375 4.01959 7.9995 4.01959H19.4295C20.1915 4.01959 20.1915 2.87509 19.4295 2.87509H7.9995C7.683 2.87509 7.4295 3.13309 7.4295 3.44509ZM2.28525 4.01959H5.715C6.477 4.01959 6.477 2.87509 5.715 2.87509H2.28525C1.52325 2.87509 1.52325 4.01959 2.28525 4.01959ZM2.28525 1.73434H15.9997C16.7617 1.73434 16.7617 0.589844 15.9997 0.589844H2.28525C1.52325 0.589844 1.52325 1.73434 2.28525 1.73434Z" fill="#E30002"/>
</g>
</g>
<defs>
<clipPath id="clip0_292_2742">
<rect width="24" height="24" fill="white" transform="translate(0 0.589844)"/>
</clipPath>
<clipPath id="clip1_292_2742">
<rect width="24" height="24" fill="white" transform="translate(0 0.589844)"/>
</clipPath>
</defs>
</svg>
