<svg width="24" height="25" viewBox="0 0 24 25" fill="none" xmlns="http://www.w3.org/2000/svg">
<g clip-path="url(#clip0_295_8288)">
<path d="M3.72325 2.96982C4.81287 1.78598 6.37562 1.02919 7.99265 1.00461C9.22974 0.955452 10.4801 1.30057 11.5073 1.99387C12.8355 2.86332 13.8053 4.25402 14.1832 5.79321C14.2641 6.08712 14.2416 6.4476 14.4956 6.66163C14.9779 6.77736 15.4818 6.69338 15.9692 6.78248C17.2125 7.08048 18.3543 7.77481 19.1981 8.73438C19.4009 8.95558 19.5627 9.2116 19.6784 9.4881C20.3144 10.7979 20.4148 12.2736 20.679 13.6848C20.9237 15.5763 21.2576 17.4544 21.5699 19.3357C21.8546 21.0766 22.1485 22.837 22.0635 24.6066C21.6703 24.4602 21.3303 24.1591 21.1941 23.7566C20.9985 23.1186 20.937 22.4509 20.8561 21.7914C20.8254 21.5129 20.594 21.2456 20.2949 21.2763C19.8607 21.2691 19.6713 21.818 19.8024 22.1693C20.0246 22.6926 20.4281 23.1063 20.8039 23.5211C21.0098 23.7402 21.0886 24.0393 21.2525 24.2861C21.4644 24.5401 21.7696 24.6844 22.0687 24.8104C21.9621 24.8739 21.8751 24.9947 21.7358 24.9763C21.2842 24.9978 20.8326 24.9732 20.381 24.9804C19.8259 24.9743 19.2647 25.0429 18.7158 24.9272C17.9477 23.0193 17.066 21.1596 16.2273 19.2814C15.8156 18.3382 15.3957 17.3981 14.9666 16.4631C14.4843 15.4257 14.0706 14.3576 13.5585 13.3346C13.4827 12.9761 13.2718 12.672 13.1335 12.3381C12.9216 11.8148 12.685 11.2997 12.4146 10.804C11.0721 13.311 9.78684 15.8476 8.48728 18.3761C7.39458 20.5523 6.20358 22.6813 5.201 24.9026C4.18204 24.8954 3.1641 24.8719 2.14514 24.8647C4.78625 19.8917 7.35055 14.8789 9.94762 9.88237C10.175 9.4369 10.4218 8.99961 10.5979 8.53058C10.0961 8.676 9.63937 8.95558 9.11811 9.03955C8.04078 9.25871 6.94092 9.02931 5.93219 8.63811C7.2041 7.47066 9.01775 7.03235 10.7085 7.11633C10.5662 6.66061 10.3613 6.2223 10.0654 5.84544C10.4166 5.20744 10.9809 4.74251 11.5288 4.28167C10.7351 4.18848 10.0541 4.72202 9.56768 5.29039C9.26558 5.08352 8.94607 4.90431 8.61529 4.74967C8.66957 4.17209 8.92354 3.65083 9.19185 3.14699C8.54975 3.29855 8.16981 3.91812 7.98445 4.50799C7.58199 4.44757 7.17441 4.44143 6.76785 4.466C6.69718 4.01029 6.69411 3.54843 6.7361 3.08964C6.23123 3.39481 6.24659 4.06047 6.24249 4.57865C5.86358 4.7169 5.50208 4.89714 5.15594 5.10298C4.95112 4.78859 4.80058 4.44552 4.64902 4.10348C4.39812 4.54486 4.5886 5.06407 4.76781 5.49521C4.56095 5.79526 4.37457 6.10863 4.20662 6.43224C3.93831 6.29706 3.67819 6.14755 3.415 6.00213C3.48771 6.37899 3.73349 6.68109 4.05096 6.88284C3.96289 7.27711 3.92602 7.67855 3.92295 8.08101C3.65464 8.10559 3.3853 8.12198 3.11597 8.14758C3.33615 8.38414 3.65361 8.43944 3.95981 8.46504C4.03867 8.78763 4.13391 9.10714 4.25065 9.41846C4.08373 9.58129 3.91578 9.74207 3.75602 9.91207C3.98439 9.87828 4.20764 9.82297 4.42679 9.75334C4.70944 10.0186 5.0566 10.1937 5.38943 10.3862C5.37305 10.464 5.33925 10.6197 5.32287 10.6975C5.43449 10.6248 5.54509 10.5521 5.65672 10.4794C6.2855 10.6607 6.97061 10.7498 7.60247 10.5306C7.9906 10.4087 8.30499 10.1312 8.688 9.99912C8.54463 10.6668 7.98445 11.1707 7.38946 11.4564C6.52002 11.8681 5.50822 11.7534 4.63263 11.4246C4.03355 11.2516 3.5512 10.8245 3.15284 10.3616C2.51381 9.63659 2.08882 8.71492 2.01303 7.74819C1.89834 6.01032 2.54658 4.24685 3.72325 2.96982ZM16.4823 12.4661C16.4198 12.7908 16.4321 13.1359 16.5396 13.4492C16.8243 14.2357 17.6549 14.6013 18.3461 14.9577C18.2949 14.7836 18.2447 14.6095 18.1956 14.4354C17.3005 14.3443 16.7946 13.0662 17.4951 12.4446C17.4091 12.2439 17.322 12.0432 17.236 11.8414C16.9462 11.9869 16.5816 12.1241 16.4823 12.4661ZM17.6456 13.0099C17.5729 13.3745 17.6446 13.822 18.0502 13.951C17.9529 13.6254 17.8812 13.27 17.6456 13.0099Z" fill="#E30002"/>
</g>
<defs>
<clipPath id="clip0_295_8288">
<rect width="24" height="24" fill="white" transform="translate(0 0.589844)"/>
</clipPath>
</defs>
</svg>
