<svg width="24" height="25" viewBox="0 0 24 25" fill="none" xmlns="http://www.w3.org/2000/svg">
<path d="M12 15C13.1046 15 14 14.1046 14 13C14 11.8954 13.1046 11 12 11C10.8954 11 10 11.8954 10 13C10 14.1046 10.8954 15 12 15Z" fill="#E30002"/>
<path d="M12 17.4102C17.5228 17.4102 22 15.3954 22 12.9102C22 10.4249 17.5228 8.41016 12 8.41016C6.47715 8.41016 2 10.4249 2 12.9102C2 15.3954 6.47715 17.4102 12 17.4102Z" stroke="#E30002" stroke-width="1.1"/>
<path d="M8.10288 15.1603C10.8643 19.9432 14.8477 22.8131 17 21.5705C19.1523 20.3279 18.6585 15.4432 15.8971 10.6603C13.1357 5.87733 9.15231 3.00736 7 4.25C4.84768 5.49264 5.34146 10.3773 8.10288 15.1603Z" stroke="#E30002" stroke-width="1.1"/>
<path d="M8.10288 10.6603C5.34146 15.4432 4.84768 20.3279 7 21.5705C9.15231 22.8131 13.1357 19.9432 15.8971 15.1603C18.6585 10.3773 19.1523 5.49264 17 4.25C14.8477 3.00736 10.8643 5.87733 8.10288 10.6603Z" stroke="#E30002" stroke-width="1.1"/>
</svg>
