<svg width="24" height="25" viewBox="0 0 24 25" fill="none" xmlns="http://www.w3.org/2000/svg">
<path fill-rule="evenodd" clip-rule="evenodd" d="M8.70748 18.9941C7.8463 18.9941 7.12864 18.3052 7.09993 17.444C7.07123 17.1282 7.15735 16.8124 7.30088 16.6115C5.69333 13.827 4.83214 10.2961 6.15263 6.62171C7.09993 3.86591 9.48255 2 12.0661 2C14.8219 2 17.6925 4.41133 18.037 9.06175C17.6064 8.91821 16.9749 8.71727 16.6017 8.63115C16.5156 7.10972 15.2238 3.32049 12.1809 3.3779C11.0901 3.40661 9.48255 3.92332 8.65007 4.98545C7.64535 6.21982 7.07123 7.71255 6.9564 9.43493C6.78417 11.7314 7.27217 13.8557 8.44913 15.8077C8.50654 15.779 8.59266 15.779 8.65007 15.779H8.70748C9.56867 15.779 10.2863 16.468 10.315 17.3292C10.3437 18.219 9.65479 18.9654 8.76489 18.9941H8.70748ZM21.6827 13.3964C19.5011 10.8415 16.286 9.43492 12.6116 9.43492H12.1523C11.8939 8.91821 11.3485 8.57373 10.7457 8.57373H10.6883C9.79838 8.60244 9.10943 9.3488 9.13813 10.2387C9.16684 11.0999 9.88449 11.7888 10.7457 11.7888H10.8031C11.4346 11.7601 11.98 11.3582 12.2097 10.8128H12.7264C14.9081 10.8128 16.9749 11.4444 18.8408 12.6787C20.2761 13.626 21.3096 14.8604 21.8837 16.3531C22.3717 17.5588 22.343 18.7358 21.8263 19.7405C21.0225 21.2619 19.6733 22.0944 17.8935 22.0944C16.7453 22.0944 15.6544 21.7499 15.0803 21.4916C14.7646 21.7786 14.1904 22.2379 13.7885 22.525C15.0229 23.0991 16.286 23.4149 17.4916 23.4149C20.2474 23.4149 22.2856 21.8934 23.0606 20.372C23.8931 18.707 23.8357 15.8364 21.6827 13.3964ZM16.6304 16.9563C17.4629 16.8702 18.0944 16.1525 18.0657 15.2914C18.037 14.4302 17.3194 13.7412 16.4582 13.7412H16.4008C15.5109 13.7699 14.8219 14.5163 14.8506 15.4062C14.8793 15.8368 15.0516 16.21 15.3099 16.4683C14.3339 18.3916 12.8412 19.7982 10.6021 20.9752C9.08069 21.779 7.50185 22.066 5.92301 21.8651C4.63123 21.6929 3.62651 21.1187 2.99497 20.1714C2.07638 18.7648 1.99026 17.2434 2.76532 15.7219C3.31074 14.6311 4.17193 13.8273 4.71735 13.4254C4.60252 13.0523 4.43028 12.4207 4.34417 11.9614C0.181765 14.9756 0.612358 19.0519 1.87543 20.9752C2.82274 22.4105 4.74605 23.3004 6.87031 23.3004C7.44444 23.3004 8.01856 23.243 8.59268 23.0995C12.2671 22.3818 15.0516 20.2001 16.6304 16.9563Z" fill="#E30002"/>
</svg>
