<svg width="24" height="25" viewBox="0 0 24 25" fill="none" xmlns="http://www.w3.org/2000/svg">
<path d="M14.6011 5H14.414V5.18713V6.92745V7.11458H14.6011H16.3415H16.5287V6.92745V5.18713V5H16.3415H14.6011Z" fill="#E30002"/>
<path d="M9.00585 5C8.33216 5 7.67721 5.13101 7.05967 5.393C6.46084 5.64563 5.9275 6.01054 5.46902 6.46902C5.01054 6.9275 4.64563 7.46084 4.393 8.05967C4.13101 8.67721 4 9.33216 4 10.0058V17.3416V17.5287H4.18713H5.92745H6.11458V17.3416V9.9778C6.15201 9.2199 6.47014 8.50881 7.00347 7.98483C7.54616 7.4515 8.25727 7.14265 9.01517 7.11458H12.8702H13.0573V6.92745V5.18713V5H12.8702H9.00585Z" fill="#E30002"/>
<path d="M18.0726 11.9429H17.8854V12.13V13.8703V14.0575H18.0726H19.8129H20V13.8703V12.13V11.9429H19.8129H18.0726Z" fill="#E30002"/>
<path d="M18.0726 8.47119H17.8854V8.65833V10.3987V10.5859H18.0726H19.8129H20V10.3987V8.65833V8.47119H19.8129H18.0726Z" fill="#E30002"/>
<path d="M19.8129 5H18.0726H17.8854V5.18713V6.92745V7.11458H18.0726H19.8129H20V6.92745V5.18713V5H19.8129Z" fill="#E30002"/>
<path d="M18.0726 15.4141H17.8854V15.6012V17.3416V17.5287H18.0726H19.8129H20V17.3416V15.6012V15.4141H19.8129H18.0726Z" fill="#E30002"/>
<path d="M18.0726 18.8853H17.8854V19.0724V20.8127V20.9998H18.0726H19.8129H20V20.8127V19.0724V18.8853H19.8129H18.0726Z" fill="#E30002"/>
<path d="M14.6011 18.8853H14.414V19.0724V20.8127V20.9998H14.6011H16.3415H16.5287V20.8127V19.0724V18.8853H16.3415H14.6011Z" fill="#E30002"/>
<path d="M11.1298 18.8853H10.9427V19.0724V20.8127V20.9998H11.1298H12.8701H13.0573V20.8127V19.0724V18.8853H12.8701H11.1298Z" fill="#E30002"/>
<path d="M7.65845 18.8853H7.47131V19.0724V20.8127V20.9998H7.65845H9.39885H9.58599V20.8127V19.0724V18.8853H9.39885H7.65845Z" fill="#E30002"/>
<path d="M4.18713 18.8853H4V19.0724V20.8127V20.9998H4.18713H5.92745H6.11458V20.8127V19.0724V18.8853H5.92745H4.18713Z" fill="#E30002"/>
</svg>
