<svg width="24" height="25" viewBox="0 0 24 25" fill="none" xmlns="http://www.w3.org/2000/svg">
<path d="M19.2095 14.1341C18.5137 14.1377 17.909 14.3053 17.4026 14.553C17.2168 14.1851 17.031 13.8572 16.9982 13.6168C16.9618 13.3362 16.9181 13.165 16.9618 12.8299C17.0055 12.4947 17.2022 12.0175 17.1986 11.9811C17.1949 11.9446 17.1549 11.7734 16.7541 11.7698C16.3534 11.7661 16.0073 11.8463 15.9673 11.9519C15.9272 12.0576 15.8507 12.298 15.7997 12.5457C15.7305 12.91 14.9982 14.2106 14.5793 14.8918C14.4445 14.6259 14.3279 14.3927 14.3024 14.2069C14.266 13.9264 14.2223 13.7552 14.266 13.42C14.3097 13.0849 14.5064 12.6076 14.5028 12.5712C14.4991 12.5348 14.4591 12.3636 14.0583 12.3599C13.6576 12.3563 13.3115 12.4364 13.2715 12.5421C13.2314 12.6477 13.1877 12.8954 13.1039 13.1359C13.0201 13.3763 12.0474 15.5475 11.7924 16.1086C11.6612 16.3964 11.5483 16.6259 11.4682 16.7825C11.4682 16.7825 11.4645 16.7934 11.4536 16.8117C11.3844 16.9464 11.3443 17.0193 11.3443 17.0193C11.3443 17.0193 11.3443 17.0193 11.3443 17.0229C11.2897 17.1213 11.2314 17.2124 11.2022 17.2124C11.1804 17.2124 11.1403 16.9501 11.2095 16.5931C11.3552 15.839 11.7013 14.6659 11.6977 14.6259C11.6977 14.604 11.7633 14.4 11.4718 14.2943C11.1877 14.1887 11.0857 14.3636 11.0602 14.3636C11.0347 14.3636 11.0164 14.4255 11.0164 14.4255C11.0164 14.4255 11.3334 13.1067 10.4117 13.1067C9.83611 13.1067 9.04194 13.737 8.6485 14.3053C8.40078 14.4401 7.87254 14.7279 7.30788 15.0375C7.09294 15.1577 6.87072 15.278 6.66307 15.3909C6.6485 15.3763 6.63393 15.3581 6.61936 15.3435C5.5046 14.1523 3.44267 13.3107 3.5301 11.7115C3.56289 11.1286 3.76325 9.59854 7.49003 7.74061C10.5574 6.22877 12.9982 6.64772 13.4208 7.57668C14.0255 8.90273 12.113 11.3654 8.94358 11.7224C7.73411 11.8572 7.10023 11.3909 6.93994 11.216C6.77236 11.0339 6.74686 11.0229 6.68493 11.0594C6.58293 11.114 6.6485 11.278 6.68493 11.3727C6.77965 11.6204 7.16945 12.0576 7.82883 12.2725C8.4117 12.4619 9.82883 12.5676 11.5447 11.9045C13.4645 11.1614 14.9654 9.0958 14.5246 7.36539C14.0838 5.60947 11.1694 5.03023 8.4117 6.01019C6.77236 6.59307 4.99458 7.5111 3.71589 8.706C2.19677 10.1268 1.95633 11.3617 2.05469 11.879C2.40806 13.7151 4.93994 14.91 5.95269 15.7953C5.90169 15.8244 5.85433 15.8499 5.81426 15.8718C5.30788 16.1231 3.3771 17.1322 2.89622 18.1996C2.34977 19.4091 2.98365 20.2761 3.4026 20.3927C4.70314 20.7534 6.04012 20.1049 6.75779 19.0339C7.47546 17.9628 7.38803 16.5712 7.05651 15.9337C7.05287 15.9264 7.04923 15.9191 7.04194 15.9118C7.17309 15.8353 7.30788 15.7552 7.43903 15.6787C7.69768 15.5257 7.95269 15.3836 8.17127 15.267C8.04741 15.6058 7.95633 16.0102 7.91262 16.5931C7.85797 17.278 8.13848 18.1668 8.50642 18.5166C8.67036 18.6696 8.86344 18.6732 8.9873 18.6732C9.41717 18.6732 9.61025 18.3162 9.82518 17.8936C10.0875 17.3763 10.3243 16.7752 10.3243 16.7752C10.3243 16.7752 10.0292 18.4 10.8306 18.4C11.1221 18.4 11.4172 18.0211 11.5483 17.828V17.8317C11.5483 17.8317 11.5556 17.8208 11.5702 17.7953C11.5993 17.7479 11.6175 17.7188 11.6175 17.7188V17.7115C11.7341 17.5075 11.9964 17.0448 12.3862 16.2761C12.8889 15.2852 13.3735 14.0466 13.3735 14.0466C13.3735 14.0466 13.4172 14.349 13.5665 14.8517C13.654 15.1468 13.8361 15.471 13.9818 15.7843C13.8653 15.9483 13.7924 16.0393 13.7924 16.0393C13.7924 16.0393 13.7924 16.0393 13.796 16.043C13.7013 16.1668 13.5993 16.3016 13.4864 16.4328C13.0893 16.9064 12.6157 17.4492 12.5501 17.6058C12.4736 17.7916 12.4919 17.9264 12.6376 18.0357C12.7432 18.1158 12.9327 18.1268 13.1257 18.1158C13.4827 18.0903 13.7341 18.0029 13.858 17.9483C14.051 17.879 14.2769 17.7734 14.4882 17.6168C14.878 17.329 15.1148 16.9173 15.0929 16.3745C15.082 16.0758 14.9837 15.777 14.8634 15.4965C14.8999 15.4455 14.9327 15.3945 14.9691 15.3435C15.5847 14.4437 16.062 13.4565 16.062 13.4565C16.062 13.4565 16.1057 13.7588 16.2551 14.2616C16.3279 14.5166 16.4773 14.7934 16.6084 15.063C16.0292 15.533 15.6722 16.0794 15.5447 16.4364C15.3152 17.0994 15.4937 17.3982 15.8325 17.4674C15.9855 17.5002 16.2041 17.4273 16.3643 17.3581C16.5684 17.2925 16.8088 17.1796 17.0383 17.012C17.4281 16.7242 17.8033 16.3235 17.7815 15.7807C17.7705 15.533 17.705 15.2889 17.6139 15.0521C18.1057 14.8481 18.7396 14.7351 19.5483 14.8299C21.2824 15.0339 21.6248 16.1158 21.5592 16.5712C21.4937 17.0266 21.1294 17.2743 21.0092 17.3508C20.8889 17.4273 20.8489 17.4528 20.8598 17.5075C20.8744 17.5876 20.9327 17.584 21.0347 17.5694C21.1767 17.5439 21.9454 17.2015 21.9782 16.3636C22.0328 15.2925 21.0128 14.1231 19.2095 14.1341ZM5.83247 18.6441C5.25688 19.2707 4.45542 19.5075 4.10934 19.3071C3.73775 19.0922 3.88347 18.1668 4.59021 17.5038C5.02008 17.0994 5.57382 16.7242 5.94176 16.4947C6.02555 16.4437 6.14941 16.3708 6.29877 16.2798C6.32427 16.2652 6.33885 16.2579 6.33885 16.2579C6.36799 16.2397 6.39713 16.2215 6.42628 16.2033C6.68493 17.1504 6.43721 17.9847 5.83247 18.6441ZM10.0219 15.7953C9.82154 16.2834 9.4026 17.533 9.14759 17.4637C8.92901 17.4055 8.79422 16.4583 9.10387 15.522C9.26052 15.0521 9.59203 14.4911 9.78511 14.2725C10.0984 13.9228 10.4445 13.8062 10.5283 13.9483C10.6339 14.1341 10.1458 15.4892 10.0219 15.7953ZM13.4791 17.4492C13.3953 17.4929 13.3152 17.522 13.2787 17.5002C13.2532 17.4856 13.3152 17.4273 13.3152 17.4273C13.3152 17.4273 13.7487 16.961 13.9199 16.7497C14.0183 16.6259 14.1348 16.4801 14.2587 16.3162V16.3636C14.2587 16.9209 13.7195 17.2962 13.4791 17.4492ZM16.1458 16.8408C16.0838 16.7971 16.0948 16.6514 16.3024 16.196C16.3826 16.0175 16.572 15.7188 16.8962 15.431C16.9327 15.5475 16.9582 15.6605 16.9545 15.7661C16.9509 16.4692 16.4481 16.7315 16.1458 16.8408Z" fill="#E30002"/>
</svg>
