<svg width="24" height="25" viewBox="0 0 24 25" fill="none" xmlns="http://www.w3.org/2000/svg">
<path d="M7.05 13.2749C9.63193 13.2749 11.725 15.368 11.725 17.9499C11.725 20.5318 9.63193 22.6249 7.05 22.6249C4.46807 22.6249 2.375 20.5318 2.375 17.9499C2.375 15.368 4.46807 13.2749 7.05 13.2749ZM21.35 13.5499V22.3499H12.55V13.5499L16.95 17.9499L21.35 13.5499ZM11.45 3.6499V8.0499C11.45 10.48 9.48005 12.4499 7.05 12.4499C4.61995 12.4499 2.65 10.48 2.65 8.0499V3.6499H11.45ZM21.35 3.6499V8.0499H19.15V12.4499H14.75V8.0499H12.55V3.6499H21.35Z" fill="#E30002"/>
</svg>
