<svg width="24" height="25" viewBox="0 0 24 25" fill="none" xmlns="http://www.w3.org/2000/svg">
<path d="M6.52987 10.4884L11.974 21.9464L17.4695 10.4884H6.52987ZM12 22L11.974 21.9524L11.9673 21.9625L12 22ZM22 10.4884H18.245L11.976 21.9498L12 22L22 10.4884ZM17.6248 4.62841L18.3197 9.91961L21.9993 10.4891L17.6248 4.62841ZM2 10.4884L11.9653 21.9605L11.972 21.9491L5.70232 10.4891L2 10.4884ZM6.37517 4.62841L2 10.4884L5.67965 9.91894L6.37517 4.62841ZM12 4L6.37517 4.62841V9.5565L12 4ZM12 4L6.95866 9.85998H17.042L12 4ZM12 4L17.6248 9.5565V4.62841L12 4Z" fill="#E30002"/>
</svg>
