<svg width="24" height="25" viewBox="0 0 24 25" fill="none" xmlns="http://www.w3.org/2000/svg">
<path fill-rule="evenodd" clip-rule="evenodd" d="M3.77811 5.72513L4.33453 20.5512C4.35216 21.0208 4.72699 21.3984 5.19645 21.4195L17.2506 21.9609C17.2641 21.9615 17.2777 21.9618 17.2912 21.9618C17.7899 21.9618 18.1942 21.5575 18.1942 21.0587V4.9031C18.1942 4.88431 18.1936 4.86553 18.1925 4.84677C18.1614 4.34899 17.7326 3.97068 17.2348 4.00179L16.2433 4.06376L16.3157 6.13649C16.3182 6.21085 16.2601 6.27323 16.1857 6.27583C16.1539 6.27694 16.1227 6.26673 16.0977 6.24702L15.4298 5.72091L14.6391 6.32072C14.5798 6.36568 14.4953 6.35408 14.4504 6.2948C14.4314 6.26985 14.4218 6.23908 14.4231 6.20779L14.5077 4.17223L4.62422 4.78995C4.13518 4.82052 3.75974 5.23549 3.77811 5.72513ZM14.8926 10.7062C14.5749 10.953 12.2083 11.1214 12.2083 10.77C12.2583 9.42937 11.6581 9.3706 11.3246 9.3706C11.0078 9.3706 10.4743 9.46636 10.4743 10.1846C10.4743 10.9165 11.254 11.3297 12.1691 11.8146C13.4692 12.5036 15.0427 13.3374 15.0427 15.4356C15.0427 17.4466 13.4087 18.5575 11.3246 18.5575C9.1738 18.5575 7.29424 17.6873 7.50651 14.6704C7.58988 14.3161 10.3242 14.4003 10.3242 14.6704C10.2909 15.9153 10.5743 16.2815 11.2913 16.2815C11.8415 16.2815 12.0916 15.9782 12.0916 15.4675C12.0916 14.6945 11.2792 14.2384 10.3446 13.7137C9.07924 13.0033 7.58988 12.1671 7.58988 10.2484C7.58988 8.33317 8.90704 7.05634 11.2579 7.05634C13.6088 7.05634 14.8926 8.31361 14.8926 10.7062Z" fill="#E30002"/>
</svg>
