<svg width="24" height="25" viewBox="0 0 24 25" fill="none" xmlns="http://www.w3.org/2000/svg">
<path fill-rule="evenodd" clip-rule="evenodd" d="M17.46 15.6398C17.46 18.6098 15.15 20.2998 11.73 20.2998C10.1953 20.2986 8.67725 19.9821 7.27 19.3698V15.4398C8.65 16.1898 10.37 16.7498 11.73 16.7498C12.65 16.7498 13.26 16.5098 13.26 15.7498C13.26 13.7698 7 14.5098 7 9.9498C7 7.0398 9.28 5.2998 12.62 5.2998C13.98 5.2998 15.34 5.4998 16.71 6.0498V9.9298C15.444 9.26349 14.0403 8.90061 12.61 8.8698C11.75 8.8698 11.17 9.1198 11.17 9.7698C11.17 11.6198 17.46 10.7398 17.46 15.6498V15.6398Z" fill="#E30002"/>
<path d="M20.325 3.03984H3.675C3.00237 3.03984 2.45 3.58211 2.45 4.25977V20.9199C2.45 21.5976 3.00238 22.1398 3.675 22.1398H20.325C20.9976 22.1398 21.55 21.5976 21.55 20.9199V4.25977C21.55 3.5821 20.9976 3.03984 20.325 3.03984Z" stroke="#E30002" stroke-width="1.1"/>
</svg>
