<svg width="24" height="25" viewBox="0 0 24 25" fill="none" xmlns="http://www.w3.org/2000/svg">
<path d="M18.5382 3L18.394 3.75156C18.1711 5.17589 18.2518 5.58338 18.863 6.11198L19.4531 6.60021L18.8419 9.32583C18.4767 10.952 18.0288 12.3148 17.7444 12.7627C17.5002 13.149 17.2158 13.718 17.1543 14.0236C17.0524 14.3888 16.7064 14.7559 16.1778 15.0808C15.7107 15.346 14.7939 16.0572 14.1442 16.6281C13.6252 17.0952 13.2677 17.3816 13.0735 17.5046L12.4392 18.0063C12.2355 18.3331 12.1201 18.5964 12.0759 18.7963C12.0317 19.002 12.0567 19.1385 12.1221 19.2384C12.1855 19.3345 12.2951 19.4018 12.445 19.4441C12.6225 19.4857 12.8052 19.5006 12.987 19.4883C13.3985 19.4602 13.8058 19.388 14.2018 19.273C14.3364 19.2365 14.4421 19.2019 14.5344 19.1711C14.6766 18.9962 15.0053 18.6656 15.5877 18.0909C17.1331 16.5666 17.7232 15.7324 17.1139 15.9573C16.889 16.038 16.9909 15.8343 17.3772 15.4268C18.1922 14.6329 18.6593 13.4335 19.6358 9.67182C20.4085 6.70208 20.4085 6.65979 20.9774 6.65979C21.2446 6.65979 22 6.70593 22 6.70593V3H20.2662H18.5382ZM11.6915 9.35274C11.1302 9.3489 9.92311 10.2043 6.30947 13.1548C6.15377 13.5258 6.14032 13.7814 6.21144 13.9467C6.25757 14.0601 6.34214 14.1389 6.4594 14.1966C6.57472 14.2543 6.72465 14.2889 6.88996 14.3023C7.21865 14.3311 7.60692 14.2792 7.92023 14.2177L8.13167 14.1697C8.20404 14.0726 8.29907 13.9948 8.40846 13.9429C8.63143 13.8198 9.56752 12.9664 10.5036 12.0515C12.1509 10.383 12.5372 9.62953 11.8664 9.38542C11.8114 9.36352 11.7507 9.35243 11.6915 9.35274ZM15.9125 10.5118C15.4185 10.5253 14.5286 11.0981 13.0043 12.3148C12.2393 12.9356 11.7549 13.2701 11.4954 13.3393L10.4882 14.1351C10.1096 14.8271 10.0538 15.2557 10.1538 15.4921C10.1788 15.5504 10.2151 15.6032 10.2606 15.6474C10.3062 15.6916 10.36 15.7264 10.419 15.7497C10.5659 15.8077 10.7225 15.837 10.8803 15.8362C11.2576 15.8322 11.6326 15.7772 11.9952 15.6728C12.1842 15.6221 12.3708 15.5631 12.5545 15.496L12.6103 15.4729L12.7122 15.4191C12.9044 15.1711 13.3465 14.704 13.9 14.1658C15.6492 12.4782 16.543 11.2787 16.3604 10.8309C16.2778 10.6137 16.1355 10.5041 15.9125 10.5118ZM11.2532 12.5877C11.111 12.6031 10.7919 12.8492 10.2172 13.3528C9.38683 14.087 8.4815 14.5099 8.16819 14.3215C8.09538 14.338 8.02233 14.3534 7.94906 14.3677C7.62999 14.4311 7.2321 14.483 6.8765 14.4542C6.70896 14.444 6.54473 14.403 6.39212 14.3331C6.24817 14.2672 6.1333 14.151 6.0692 14.0063C5.99808 13.8333 5.99808 13.618 6.07881 13.3431L4.82941 14.3696L2.00192 16.7089V20.5013L11.2667 13.2028C11.2649 13.1229 11.2753 13.0432 11.2975 12.9664C11.3686 12.7088 11.3647 12.5781 11.2532 12.5897V12.5877ZM15.2398 13.816C15.0995 13.816 14.865 14.014 14.4901 14.4119C13.9808 14.9558 13.1792 15.4825 12.7544 15.5902L12.6891 15.6248C12.6193 15.6536 12.5488 15.6805 12.4777 15.7055C12.3623 15.7439 12.2124 15.7901 12.0394 15.8362C11.6934 15.9304 11.2629 16.0169 10.8784 16.0073C10.6972 16.007 10.5177 15.9718 10.3498 15.9035C10.1916 15.8383 10.0648 15.7142 9.99616 15.5575C9.88467 15.2903 9.92888 14.9155 10.173 14.383L2 20.8204V23.1366H5.59058L13.2062 17.1548C13.4041 16.9357 13.7021 16.6358 14.1038 16.261C15.1802 15.2634 15.4243 14.9193 15.4243 14.4099C15.4243 14.014 15.3801 13.8141 15.2398 13.8141V13.816ZM17.0524 17.5642L16.4008 18.2139C16.0356 18.5599 15.384 18.9866 14.938 19.1692L14.8496 19.2077L14.8438 19.2173L14.8246 19.2365C14.8073 19.2499 14.7996 19.2519 14.7862 19.2576C14.6081 19.325 14.4273 19.3847 14.2441 19.4364C13.8368 19.5549 13.4179 19.6291 12.9947 19.6574C12.7946 19.6703 12.5937 19.6528 12.3988 19.6055C12.2297 19.5683 12.0804 19.4697 11.9798 19.3288C11.8876 19.1865 11.8606 18.9962 11.9125 18.7617C11.9538 18.5948 12.0151 18.4334 12.0951 18.2812L5.95002 23.1366H14.123L15.0995 22.0179C16.4411 20.4532 17.0524 19.3345 17.0524 18.3773V17.5642Z" fill="#E30002"/>
</svg>
