<svg width="24" height="25" viewBox="0 0 24 25" fill="none" xmlns="http://www.w3.org/2000/svg">
<g clip-path="url(#clip0_295_8213)">
<g clip-path="url(#clip1_295_8213)">
<path d="M3.01569 9.83116C3.28757 9.83116 3.50751 9.86829 3.67457 9.94273C3.84163 10.017 3.92507 10.1096 3.92507 10.2212C3.92507 10.3574 3.89076 10.5119 3.82288 10.685C3.75472 10.8583 3.68976 11.0004 3.62797 11.1118C3.60313 11.1366 3.57238 11.1396 3.53526 11.1212C3.49813 11.1025 3.47947 11.0687 3.47947 11.0191C3.51669 10.9327 3.53526 10.8089 3.53526 10.6478C3.53526 10.4748 3.48885 10.3323 3.39604 10.2211C3.30332 10.1097 3.17629 10.0541 3.01569 10.0541C2.80513 10.0541 2.63526 10.119 2.50532 10.2489C2.37547 10.3788 2.31051 10.5615 2.31051 10.7961C2.31051 10.9943 2.36291 11.183 2.46819 11.3622C2.57681 11.5473 2.69448 11.727 2.82079 11.9005C2.95353 12.0844 3.0744 12.2766 3.18266 12.4759C3.29404 12.68 3.34972 12.912 3.34972 13.1718C3.34972 13.617 3.17029 13.9634 2.8116 14.2107C2.45272 14.4585 1.98257 14.5819 1.40132 14.5819C0.980662 14.5819 0.649725 14.514 0.408506 14.3779C0.1671 14.2419 0.0466309 14.0936 0.0466309 13.9325C0.0466309 13.8833 0.0650996 13.8151 0.102225 13.7284C0.13935 13.642 0.188662 13.5493 0.250818 13.4499C0.314677 13.3481 0.3828 13.249 0.455006 13.1529C0.529162 13.0541 0.609412 12.9739 0.696131 12.912C0.733256 12.8871 0.767287 12.8931 0.798318 12.9304C0.829068 12.9675 0.832256 13.0046 0.807693 13.0417C0.73335 13.1158 0.67785 13.1933 0.640537 13.2738C0.603412 13.3541 0.58485 13.4626 0.58485 13.5984C0.58485 13.821 0.6591 14.0038 0.807693 14.1456C0.9561 14.2881 1.14772 14.3592 1.38285 14.3592C1.70441 14.3592 1.95491 14.2695 2.13444 14.0901C2.31369 13.911 2.40351 13.6911 2.40351 13.4313C2.40351 13.1963 2.35082 12.9767 2.24572 12.7726C2.14089 12.5692 2.02635 12.371 1.90251 12.1787C1.77968 11.9888 1.6651 11.7937 1.5591 11.5939C1.45483 11.4 1.40063 11.1832 1.40141 10.963C1.40141 10.6416 1.53735 10.3724 1.80969 10.156C2.08147 9.94001 2.48357 9.83116 3.01569 9.83116ZM8.08157 9.92426C8.14344 9.94901 8.16819 9.98323 8.15601 10.0264C8.14335 10.0699 8.08785 10.1037 7.98885 10.1284C7.80322 10.1284 7.58994 10.1348 7.34872 10.1469C7.10732 10.1593 6.85044 10.178 6.57857 10.2025C6.33079 10.809 6.12679 11.3994 5.9661 11.9749C5.80513 12.55 5.72497 13.0172 5.72497 13.3759C5.72497 13.7964 5.88547 14.0066 6.20732 14.0066C6.52888 14.0066 6.88766 13.7284 7.28385 13.1719C7.32079 13.147 7.35482 13.147 7.38566 13.1719C7.41651 13.1966 7.42579 13.2397 7.41369 13.3017C7.20398 13.6473 6.93366 13.9522 6.61569 14.2018C6.29385 14.4555 5.97838 14.582 5.66929 14.582C5.34735 14.582 5.10932 14.5052 4.95482 14.3501C4.80004 14.1954 4.72279 13.9821 4.72279 13.7098C4.72279 13.3513 4.80922 12.8562 4.98247 12.2253C5.15572 11.5943 5.37838 10.9514 5.65072 10.2953C5.32879 10.3324 5.03197 10.3824 4.76001 10.4439C4.69794 10.4319 4.68238 10.4008 4.71351 10.3511C4.74426 10.3019 4.79994 10.249 4.88057 10.1934C4.96072 10.1375 5.05682 10.0883 5.1681 10.0448C5.27938 10.0017 5.38457 9.97995 5.48357 9.97995H5.63207C5.68147 9.97995 5.73107 9.97385 5.78057 9.96148C5.93758 9.61031 6.10465 9.26373 6.28157 8.92216C6.45472 8.58804 6.62779 8.28523 6.80122 8.01279C6.87529 7.92635 6.97747 7.84901 7.10732 7.78076C7.23716 7.71307 7.364 7.66029 7.48766 7.62307C7.61122 7.58595 7.71332 7.56448 7.79404 7.5581C7.87429 7.5521 7.90813 7.57385 7.89622 7.62307C7.68557 7.94501 7.47866 8.3036 7.27438 8.69941C7.06491 9.10682 6.86994 9.52151 6.68985 9.94273C6.92479 9.93054 7.1631 9.92426 7.40422 9.92426H8.08157Z" fill="#E30002"/>
<path d="M19.3405 0.63916C19.526 0.63916 19.6773 0.68566 19.7952 0.778379C19.9124 0.871098 19.9929 0.994941 20.0363 1.14963C20.0796 1.30422 20.0856 1.48057 20.0549 1.67847C20.0239 1.87657 19.9529 2.07447 19.8415 2.27229C19.8166 2.29704 19.7858 2.29704 19.7487 2.27229C19.7116 2.24744 19.6868 2.21669 19.6745 2.17947C19.6992 2.03097 19.6468 1.90741 19.5167 1.80832C19.3869 1.7095 19.1856 1.65982 18.9136 1.65982C18.4063 1.65982 17.896 1.84854 17.3827 2.22588C16.8692 2.60341 16.3712 3.1015 15.8889 3.71969C15.4064 4.33844 14.9547 5.05 14.5342 5.85391C14.1138 6.65726 13.748 7.48802 13.4392 8.34054C13.13 9.19413 12.8854 10.0416 12.7063 10.8828C12.5269 11.7243 12.4374 12.4911 12.4374 13.1841C12.4374 13.555 12.5424 13.7407 12.7529 13.7407C12.9013 13.7407 13.0466 13.6788 13.1888 13.555C13.3309 13.4314 13.4952 13.246 13.6807 12.9983C13.7177 12.9739 13.7518 12.9769 13.7826 13.0077C13.8134 13.0389 13.8227 13.0789 13.8106 13.1282C13.5629 13.4994 13.2724 13.8087 12.9383 14.056C12.6044 14.3037 12.301 14.4273 12.029 14.4273C11.7939 14.4273 11.6301 14.3592 11.5374 14.223C11.4447 14.087 11.3982 13.9141 11.3982 13.7036C11.3982 13.1221 11.5216 12.395 11.7694 11.5232C12.0167 10.6509 12.3474 9.72935 12.7622 8.758C13.1766 7.78694 13.6559 6.81888 14.2004 5.85391C14.7447 4.88894 15.3107 4.01997 15.8984 3.24672C16.4859 2.47357 17.0769 1.84563 17.6706 1.363C18.264 0.880285 18.8207 0.63916 19.3406 0.63916H19.3405ZM2.86401 23.4422C2.67839 23.4422 2.52698 23.3958 2.40923 23.303C2.29185 23.2103 2.21142 23.0865 2.16801 22.9318C2.12489 22.777 2.1187 22.6008 2.14945 22.4029C2.18057 22.2048 2.25154 22.007 2.36282 21.8091C2.38776 21.7842 2.41851 21.7842 2.45564 21.8091C2.49267 21.8337 2.51751 21.8647 2.52979 21.9019C2.50523 22.0504 2.55764 22.174 2.68757 22.2731C2.81742 22.3718 3.0186 22.4214 3.29067 22.4214C3.79804 22.4214 4.30842 22.2327 4.8216 21.8553C5.33507 21.4782 5.83317 20.9802 6.3156 20.3618C6.79804 19.7431 7.24973 19.0317 7.67029 18.2276C8.09063 17.4242 8.45637 16.5934 8.76501 15.7409C9.07439 14.8873 9.31889 14.0399 9.49814 13.1986C9.67748 12.3572 9.76701 11.5903 9.76701 10.8975C9.76701 10.5262 9.66201 10.3408 9.45154 10.3408C9.30304 10.3408 9.15773 10.4024 9.0156 10.5262C8.87348 10.6497 8.70923 10.8356 8.5237 11.0831C8.48667 11.1075 8.45273 11.1045 8.42179 11.0737C8.39104 11.0426 8.38176 11.0024 8.39385 10.9529C8.64154 10.582 8.93198 10.2724 9.2661 10.025C9.60004 9.77772 9.90332 9.65416 10.1754 9.65416C10.4105 9.65416 10.5743 9.72185 10.667 9.85807C10.7598 9.99429 10.8063 10.1674 10.8063 10.3779C10.8063 10.9593 10.6828 11.686 10.4351 12.5583C10.1878 13.4306 9.85701 14.3521 9.44226 15.3234C9.02789 16.2945 8.54845 17.2625 8.00414 18.2275C7.45973 19.1925 6.89376 20.0614 6.30604 20.8347C5.7186 21.6078 5.1276 22.2359 4.53379 22.7182C3.94026 23.2008 3.38357 23.4422 2.86401 23.4422Z" fill="#E30002"/>
<path d="M15.3998 14.5821C14.8801 14.5821 14.6204 14.2976 14.6204 13.7285C14.6204 13.5307 14.6417 13.3017 14.6852 13.0421C14.7285 12.782 14.7968 12.5133 14.8894 12.2348C14.9822 11.9562 15.0902 11.6751 15.2141 11.3902C15.3379 11.1053 15.4869 10.8321 15.6595 10.5739C15.5262 10.6586 15.3963 10.7483 15.27 10.843C15.1519 10.9308 15.0402 11.0268 14.9358 11.1305C14.8987 11.1556 14.8646 11.1462 14.8337 11.1027C14.8028 11.0595 14.7997 11.0193 14.8245 10.9822C15.0347 10.7593 15.3348 10.5308 15.7245 10.2954C16.1141 10.0607 16.4882 9.87489 16.8473 9.73877C16.9091 9.73877 16.9554 9.75443 16.9864 9.78527C17.0172 9.81639 17.0205 9.85652 16.9958 9.90574C16.6016 10.4224 16.28 10.9906 16.04 11.5945C15.7988 12.2008 15.6781 12.7886 15.6781 13.3574C15.6781 13.7165 15.7897 13.8956 16.0123 13.8956C16.1729 13.8956 16.3709 13.7874 16.606 13.5709C16.841 13.3543 17.0886 13.0699 17.3485 12.7171C17.6082 12.3646 17.8709 11.9656 18.1371 11.5204C18.4007 11.0794 18.6453 10.6273 18.8702 10.1654C18.9072 10.0915 19.0155 10.0171 19.1948 9.94286C19.3741 9.86843 19.5567 9.8313 19.7423 9.8313C19.9279 9.8313 19.9835 9.88118 19.9094 9.97999C19.7494 10.2756 19.5977 10.5758 19.4547 10.88C19.3288 11.148 19.2204 11.4238 19.13 11.7057C19.0439 11.9755 18.9787 12.2516 18.9351 12.5314C18.8915 12.8099 18.8701 13.1159 18.8701 13.4499C18.8701 13.8461 18.9751 14.0437 19.1857 14.0437C19.3959 14.0437 19.631 13.8582 19.8908 13.487C19.928 13.4626 19.9651 13.4626 20.0021 13.487C20.0393 13.5121 20.0515 13.5493 20.0393 13.5985C19.8288 13.9201 19.5968 14.1644 19.3434 14.3316C19.0897 14.4985 18.8578 14.5819 18.6476 14.5819C18.1278 14.5819 17.8681 14.2789 17.8681 13.6727C17.8681 13.0418 17.9793 12.4171 18.2021 11.7983C17.7318 12.6519 17.2371 13.3293 16.7176 13.8304C16.1978 14.3318 15.7584 14.5821 15.3998 14.5821ZM23.0636 9.8313C23.3355 9.8313 23.5555 9.86843 23.7225 9.94286C23.8895 10.0171 23.973 10.1097 23.973 10.2213C23.973 10.3575 23.9387 10.512 23.871 10.6852C23.8026 10.8584 23.7378 11.0006 23.676 11.1119C23.651 11.1368 23.6204 11.1398 23.5831 11.1213C23.5461 11.1026 23.5275 11.0688 23.5275 11.0192C23.5647 10.9329 23.5832 10.809 23.5832 10.648C23.5832 10.4749 23.5369 10.3324 23.4441 10.2212C23.3513 10.1098 23.2244 10.0542 23.0637 10.0542C22.8533 10.0542 22.6833 10.1191 22.5534 10.2491C22.4234 10.379 22.3586 10.5616 22.3586 10.7963C22.3586 10.9945 22.411 11.1832 22.5163 11.3623C22.6249 11.5475 22.7426 11.7271 22.8689 11.9006C23.0016 12.0845 23.1225 12.2767 23.2307 12.476C23.3421 12.6802 23.3978 12.9121 23.3978 13.1719C23.3978 13.6171 23.2184 13.9635 22.8597 14.2108C22.5006 14.4586 22.0305 14.5821 21.4493 14.5821C21.0285 14.5821 20.6977 14.5141 20.4565 14.378C20.2151 14.2421 20.0946 14.0937 20.0946 13.9327C20.0946 13.8835 20.1131 13.8152 20.1502 13.7285C20.1873 13.6421 20.2365 13.5494 20.2987 13.4501C20.3625 13.3482 20.4306 13.2491 20.5028 13.1531C20.577 13.0542 20.6574 12.974 20.7441 12.9121C20.7812 12.8873 20.8152 12.8933 20.8461 12.9305C20.8769 12.9676 20.8801 13.0047 20.8555 13.0419C20.7812 13.1159 20.7256 13.1935 20.6884 13.2739C20.6513 13.3542 20.6327 13.4627 20.6327 13.5986C20.6327 13.8211 20.707 14.0039 20.8555 14.1458C21.004 14.2883 21.1955 14.3593 21.4307 14.3593C21.7522 14.3593 22.0028 14.2696 22.1824 14.0903C22.3615 13.9111 22.4514 13.6913 22.4514 13.4314C22.4514 13.1965 22.3986 12.9768 22.2937 12.7727C22.1888 12.5694 22.0743 12.3712 21.9504 12.1788C21.8276 11.9889 21.713 11.7938 21.607 11.5941C21.5027 11.4002 21.4485 11.1833 21.4493 10.9631C21.4493 10.6418 21.5852 10.3725 21.8575 10.1561C22.1294 9.94014 22.5314 9.8313 23.0636 9.8313Z" fill="#E30002"/>
</g>
</g>
<defs>
<clipPath id="clip0_295_8213">
<rect width="24" height="24" fill="white" transform="translate(0 0.589844)"/>
</clipPath>
<clipPath id="clip1_295_8213">
<rect width="24" height="22.8768" fill="white" transform="translate(0 0.589844)"/>
</clipPath>
</defs>
</svg>
