<svg width="24" height="25" viewBox="0 0 24 25" fill="none" xmlns="http://www.w3.org/2000/svg">
<path d="M0 13.0128C0.0057732 14.4643 1.18763 15.6528 2.64 15.6528C3.33976 15.6519 4.01062 15.3736 4.50551 14.8789C5.00039 14.3841 5.27891 13.7134 5.28 13.0136V12.6392C5.28116 12.4153 5.35133 12.1972 5.48095 12.0146C5.61056 11.832 5.79333 11.6939 6.00432 11.6189C6.21532 11.544 6.44429 11.5359 6.66003 11.5959C6.87577 11.6558 7.06778 11.7808 7.2099 11.9538H8.91711C8.76541 11.3934 8.43353 10.8985 7.97267 10.5454C7.51182 10.1923 6.94758 10.0006 6.36701 10C5.66725 10.0011 4.99647 10.2796 4.50175 10.7745C4.00702 11.2694 3.72871 11.9402 3.72783 12.64V13.0128C3.7274 13.3012 3.61251 13.5777 3.40839 13.7815C3.20428 13.9853 2.92762 14.0998 2.63918 14.0998C2.35102 14.0994 2.07478 13.9847 1.87102 13.7809C1.66727 13.5772 1.5526 13.3009 1.55216 13.0128C1.55216 12.972 1.54412 12.9315 1.5285 12.8938C1.51287 12.8561 1.48997 12.8218 1.4611 12.7929C1.43222 12.7641 1.39795 12.7411 1.36022 12.7255C1.3225 12.7099 1.28207 12.7019 1.24124 12.7019H0.310103C0.227783 12.7021 0.148909 12.7349 0.0907769 12.7932C0.0326448 12.8515 -2.89596e-07 12.9305 0 13.0128ZM10.1023 15.6528C9.52226 15.6506 8.95898 15.4582 8.4988 15.1051C8.03862 14.7521 7.70695 14.2578 7.55464 13.6981H9.25938C9.40054 13.873 9.59251 13.9998 9.80877 14.0609C10.025 14.122 10.2549 14.1145 10.4668 14.0393C10.6786 13.9642 10.8618 13.8252 10.9912 13.6414C11.1207 13.4577 11.1899 13.2383 11.1893 13.0136V12.6392C11.1904 11.9394 11.4689 11.2686 11.9638 10.7739C12.4587 10.2792 13.1295 10.0009 13.8293 10C15.2668 10 16.4388 11.1546 16.4685 12.5839L16.4767 13.0128C16.4779 13.2367 16.548 13.4548 16.6776 13.6374C16.8073 13.8199 16.99 13.9581 17.201 14.033C17.412 14.108 17.641 14.116 17.8567 14.0561C18.0725 13.9962 18.2645 13.8712 18.4066 13.6981H20.1138C19.9623 14.2586 19.6306 14.7536 19.1699 15.1068C18.7092 15.4601 18.1451 15.6519 17.5645 15.6528C16.1122 15.6528 14.9303 14.4635 14.9245 13.0136L14.9163 12.626V12.6095C14.9079 12.3267 14.7898 12.0582 14.5869 11.861C14.384 11.6638 14.1122 11.5533 13.8293 11.553C13.5411 11.5534 13.2649 11.6681 13.0611 11.8718C12.8574 12.0756 12.7427 12.3518 12.7423 12.64V13.0128C12.7414 13.7127 12.463 14.3837 11.9681 14.8786C11.4732 15.3735 10.8022 15.6519 10.1023 15.6528ZM20.4487 11.9546C20.5899 11.7797 20.7819 11.6529 20.9982 11.5919C21.2146 11.5308 21.4446 11.5384 21.6564 11.6136C21.8683 11.6888 22.0515 11.828 22.1809 12.0118C22.3102 12.1957 22.3793 12.4152 22.3786 12.64C22.3786 12.6808 22.3866 12.7213 22.4022 12.759C22.4179 12.7967 22.4408 12.831 22.4696 12.8599C22.4985 12.8887 22.5328 12.9116 22.5705 12.9273C22.6082 12.9429 22.6487 12.9509 22.6895 12.9509H23.6214C23.7038 12.9507 23.7826 12.9179 23.8408 12.8596C23.8989 12.8013 23.9315 12.7223 23.9315 12.64C23.9307 11.9401 23.6523 11.2691 23.1573 10.7742C22.6624 10.2793 21.9914 10.0009 21.2915 10C20.7109 10.0007 20.1465 10.1925 19.6857 10.5457C19.2248 10.899 18.893 11.3941 18.7414 11.9546H20.4487Z" fill="#E30002"/>
</svg>
