<svg width="24" height="25" viewBox="0 0 24 25" fill="none" xmlns="http://www.w3.org/2000/svg">
<path fill-rule="evenodd" clip-rule="evenodd" d="M12.0002 6C9.33329 6 7.66692 7.33342 6.9999 10.0003C8.00004 8.66684 9.16674 8.16691 10.5 8.50007C11.2607 8.6901 11.8046 9.24208 12.4062 9.8532C13.3867 10.8483 14.5217 12 17.0001 12C19.6666 12 21.3334 10.6666 22 8.00013C21.0003 9.33355 19.8336 9.83349 18.5003 9.49993C17.7392 9.3099 17.1953 8.75792 16.5937 8.14719C15.6132 7.15127 14.4786 6 12.0002 6ZM6.9999 12C4.33339 12 2.66663 13.3334 2 16.0003C3.00014 14.6668 4.16683 14.1669 5.4997 14.5001C6.26077 14.6901 6.80473 15.2421 7.40631 15.8532C8.38685 16.8483 9.52141 18 12.0002 18C14.6667 18 16.3335 16.667 17.0001 14.0001C16 15.3336 14.8333 15.8335 13.5 15.5003C12.7393 15.3099 12.1954 14.7579 11.5938 14.1472C10.6132 13.1521 9.4783 12 6.9999 12Z" fill="#E30002"/>
</svg>
