<svg width="24" height="25" viewBox="0 0 24 25" fill="none" xmlns="http://www.w3.org/2000/svg">
<g clip-path="url(#clip0_280_16828)">
<mask id="mask0_280_16828" style="mask-type:luminance" maskUnits="userSpaceOnUse" x="0" y="1" width="24" height="24">
<path d="M12 24C18.0751 24 23 19.0751 23 13C23 6.92487 18.0751 2 12 2C5.92487 2 1 6.92487 1 13C1 19.0751 5.92487 24 12 24Z" stroke="black" stroke-width="0.868878"/>
</mask>
<g mask="url(#mask0_280_16828)">
<path d="M4.11062 29.6816C8.22789 29.6816 11.5656 26.7878 11.5656 23.2182C11.5656 19.6486 8.22789 16.7549 4.11062 16.7549C-0.00665355 16.7549 -3.34436 19.6486 -3.34436 23.2182C-3.34436 26.7878 -0.00665355 29.6816 4.11062 29.6816Z" stroke="#E30002" stroke-width="0.868878"/>
</g>
<mask id="mask1_280_16828" style="mask-type:luminance" maskUnits="userSpaceOnUse" x="0" y="1" width="24" height="24">
<path d="M12 24C18.0751 24 23 19.0751 23 13C23 6.92487 18.0751 2 12 2C5.92487 2 1 6.92487 1 13C1 19.0751 5.92487 24 12 24Z" stroke="black" stroke-width="0.868878"/>
</mask>
<g mask="url(#mask1_280_16828)">
<path d="M19.8894 29.6816C24.0067 29.6816 27.3444 26.7878 27.3444 23.2182C27.3444 19.6486 24.0067 16.7549 19.8894 16.7549C15.7722 16.7549 12.4344 19.6486 12.4344 23.2182C12.4344 26.7878 15.7722 29.6816 19.8894 29.6816Z" stroke="#E30002" stroke-width="0.868878"/>
</g>
<mask id="mask2_280_16828" style="mask-type:luminance" maskUnits="userSpaceOnUse" x="0" y="1" width="24" height="24">
<path d="M12 24C18.0751 24 23 19.0751 23 13C23 6.92487 18.0751 2 12 2C5.92487 2 1 6.92487 1 13C1 19.0751 5.92487 24 12 24Z" stroke="black" stroke-width="0.868878"/>
</mask>
<g mask="url(#mask2_280_16828)">
<path d="M4.11062 31.0019C8.22789 31.0019 11.5656 28.1082 11.5656 24.5385C11.5656 20.9689 8.22789 18.0752 4.11062 18.0752C-0.00665355 18.0752 -3.34436 20.9689 -3.34436 24.5385C-3.34436 28.1082 -0.00665355 31.0019 4.11062 31.0019Z" stroke="#E30002" stroke-width="0.868878"/>
</g>
<mask id="mask3_280_16828" style="mask-type:luminance" maskUnits="userSpaceOnUse" x="0" y="1" width="24" height="24">
<path d="M12 24C18.0751 24 23 19.0751 23 13C23 6.92487 18.0751 2 12 2C5.92487 2 1 6.92487 1 13C1 19.0751 5.92487 24 12 24Z" stroke="black" stroke-width="0.868878"/>
</mask>
<g mask="url(#mask3_280_16828)">
<path d="M19.8894 31.0019C24.0067 31.0019 27.3444 28.1082 27.3444 24.5385C27.3444 20.9689 24.0067 18.0752 19.8894 18.0752C15.7722 18.0752 12.4344 20.9689 12.4344 24.5385C12.4344 28.1082 15.7722 31.0019 19.8894 31.0019Z" stroke="#E30002" stroke-width="0.868878"/>
</g>
<mask id="mask4_280_16828" style="mask-type:luminance" maskUnits="userSpaceOnUse" x="0" y="1" width="24" height="24">
<path d="M12 24C18.0751 24 23 19.0751 23 13C23 6.92487 18.0751 2 12 2C5.92487 2 1 6.92487 1 13C1 19.0751 5.92487 24 12 24Z" stroke="black" stroke-width="0.868878"/>
</mask>
<g mask="url(#mask4_280_16828)">
<path d="M4.11062 32.2534C8.22789 32.2534 11.5656 29.3596 11.5656 25.79C11.5656 22.2204 8.22789 19.3267 4.11062 19.3267C-0.00665355 19.3267 -3.34436 22.2204 -3.34436 25.79C-3.34436 29.3596 -0.00665355 32.2534 4.11062 32.2534Z" stroke="#E30002" stroke-width="0.868878"/>
</g>
<mask id="mask5_280_16828" style="mask-type:luminance" maskUnits="userSpaceOnUse" x="0" y="1" width="24" height="24">
<path d="M12 24C18.0751 24 23 19.0751 23 13C23 6.92487 18.0751 2 12 2C5.92487 2 1 6.92487 1 13C1 19.0751 5.92487 24 12 24Z" stroke="black" stroke-width="0.868878"/>
</mask>
<g mask="url(#mask5_280_16828)">
<path d="M19.8894 32.2534C24.0067 32.2534 27.3444 29.3596 27.3444 25.79C27.3444 22.2204 24.0067 19.3267 19.8894 19.3267C15.7722 19.3267 12.4344 22.2204 12.4344 25.79C12.4344 29.3596 15.7722 32.2534 19.8894 32.2534Z" stroke="#E30002" stroke-width="0.868878"/>
</g>
<mask id="mask6_280_16828" style="mask-type:luminance" maskUnits="userSpaceOnUse" x="0" y="1" width="24" height="24">
<path d="M12 24C18.0751 24 23 19.0751 23 13C23 6.92487 18.0751 2 12 2C5.92487 2 1 6.92487 1 13C1 19.0751 5.92487 24 12 24Z" fill="white" stroke="black" stroke-width="0.868878"/>
</mask>
<g mask="url(#mask6_280_16828)">
<path d="M12 37.4329C16.8659 37.4329 20.8104 32.7025 20.8104 26.8673C20.8104 21.0321 16.8659 16.3018 12 16.3018C7.13414 16.3018 3.18958 21.0321 3.18958 26.8673C3.18958 32.7025 7.13414 37.4329 12 37.4329Z" stroke="#E30002" stroke-width="0.868878"/>
</g>
<mask id="mask7_280_16828" style="mask-type:luminance" maskUnits="userSpaceOnUse" x="0" y="1" width="24" height="24">
<path d="M12 24C18.0751 24 23 19.0751 23 13C23 6.92487 18.0751 2 12 2C5.92487 2 1 6.92487 1 13C1 19.0751 5.92487 24 12 24Z" fill="white" stroke="black" stroke-width="0.799368"/>
</mask>
<g mask="url(#mask7_280_16828)">
<path d="M20.654 8.65548C22.6119 8.65548 24.1991 7.06832 24.1991 5.11045C24.1991 3.15259 22.6119 1.56543 20.654 1.56543C18.6962 1.56543 17.109 3.15259 17.109 5.11045C17.109 7.06832 18.6962 8.65548 20.654 8.65548Z" stroke="#E30002" stroke-width="0.799368"/>
</g>
<path d="M12 24C18.0751 24 23 19.0751 23 13C23 6.92487 18.0751 2 12 2C5.92487 2 1 6.92487 1 13C1 19.0751 5.92487 24 12 24Z" stroke="#E30002" stroke-width="0.417062" stroke-linecap="round" stroke-linejoin="bevel"/>
<path d="M15.8752 5.12793H14.8325" stroke="#E30002" stroke-width="0.417062" stroke-linecap="round" stroke-linejoin="bevel"/>
<path d="M12 24C18.0751 24 23 19.0751 23 13C23 6.92487 18.0751 2 12 2C5.92487 2 1 6.92487 1 13C1 19.0751 5.92487 24 12 24Z" stroke="#E30002" stroke-width="0.417062" stroke-linecap="round" stroke-linejoin="bevel"/>
<path d="M15.9969 3.96361L15.0759 3.77246" stroke="#E30002" stroke-width="0.417062" stroke-linecap="round" stroke-linejoin="bevel"/>
<path d="M12 24C18.0751 24 23 19.0751 23 13C23 6.92487 18.0751 2 12 2C5.92487 2 1 6.92487 1 13C1 19.0751 5.92487 24 12 24Z" stroke="#E30002" stroke-width="0.417062" stroke-linecap="round" stroke-linejoin="bevel"/>
<path d="M16.0142 6.2749L15.0063 6.55294" stroke="#E30002" stroke-width="0.417062" stroke-linecap="round" stroke-linejoin="bevel"/>
<path d="M12 24C18.0751 24 23 19.0751 23 13C23 6.92487 18.0751 2 12 2C5.92487 2 1 6.92487 1 13C1 19.0751 5.92487 24 12 24Z" stroke="#E30002" stroke-width="0.417062" stroke-linecap="round" stroke-linejoin="bevel"/>
<path d="M16.3965 7.35254L15.5624 7.80436" stroke="#E30002" stroke-width="0.417062" stroke-linecap="round" stroke-linejoin="bevel"/>
<path d="M12 24C18.0751 24 23 19.0751 23 13C23 6.92487 18.0751 2 12 2C5.92487 2 1 6.92487 1 13C1 19.0751 5.92487 24 12 24Z" stroke="#E30002" stroke-width="0.417062" stroke-linecap="round" stroke-linejoin="bevel"/>
<path d="M17.1611 8.29102L16.466 8.95136" stroke="#E30002" stroke-width="0.417062" stroke-linecap="round" stroke-linejoin="bevel"/>
<path d="M12 24C18.0751 24 23 19.0751 23 13C23 6.92487 18.0751 2 12 2C5.92487 2 1 6.92487 1 13C1 19.0751 5.92487 24 12 24Z" stroke="#E30002" stroke-width="0.417062" stroke-linecap="round" stroke-linejoin="bevel"/>
<path d="M18.1125 9.08984L17.6317 9.88388" stroke="#E30002" stroke-width="0.417062" stroke-linecap="round" stroke-linejoin="bevel"/>
<path d="M12 24C18.0751 24 23 19.0751 23 13C23 6.92487 18.0751 2 12 2C5.92487 2 1 6.92487 1 13C1 19.0751 5.92487 24 12 24Z" stroke="#E30002" stroke-width="0.417062" stroke-linecap="round" stroke-linejoin="bevel"/>
<path d="M19.2638 9.66357L19.0032 10.5151" stroke="#E30002" stroke-width="0.417062" stroke-linecap="round" stroke-linejoin="bevel"/>
<path d="M12 24C18.0751 24 23 19.0751 23 13C23 6.92487 18.0751 2 12 2C5.92487 2 1 6.92487 1 13C1 19.0751 5.92487 24 12 24Z" stroke="#E30002" stroke-width="0.417062" stroke-linecap="round" stroke-linejoin="bevel"/>
<path d="M20.654 9.97656L20.6714 10.8281" stroke="#E30002" stroke-width="0.417062" stroke-linecap="round" stroke-linejoin="bevel"/>
<path d="M12 23.5657C17.8352 23.5657 22.5656 18.8353 22.5656 13.0001C22.5656 7.16493 17.8352 2.43457 12 2.43457C6.16481 2.43457 1.43445 7.16493 1.43445 13.0001C1.43445 18.8353 6.16481 23.5657 12 23.5657Z" stroke="#E30002" stroke-width="0.868878"/>
<path fill-rule="evenodd" clip-rule="evenodd" d="M7.71893 9.05498C7.99938 10.3506 8.20538 11.614 8.33693 12.8453C8.46849 14.0767 8.43435 15.4572 8.23452 16.9871L10.3627 16.4079C9.81963 14.3558 9.48823 13.0054 9.36843 12.3569C9.24863 11.7084 9 10.5 8.33694 9.05516L7.71893 9.05498Z" fill="#E30002"/>
<path fill-rule="evenodd" clip-rule="evenodd" d="M7.81098 8.17895C7.81098 8.17895 7.37306 7.41032 6.54401 7.14004C5.9913 6.95985 5.34831 7.08824 4.61504 7.5252C5.16771 8.02072 5.63907 8.30949 6.02911 8.39151C6.61417 8.51455 7.81098 8.17895 7.81098 8.17895Z" stroke="#E30002" stroke-width="0.451817"/>
<path fill-rule="evenodd" clip-rule="evenodd" d="M7.81088 8.00722C7.78152 7.2461 7.91278 6.50441 8.42021 6.14877C8.92764 5.79313 9.45421 5.61536 10 5.61565C9.78925 6.35794 9.60555 7.04344 9.23331 7.30555C8.86107 7.56767 8.38694 7.80163 7.81088 8.00722Z" stroke="#E30002" stroke-width="0.451817"/>
<path fill-rule="evenodd" clip-rule="evenodd" d="M7.80982 8.4123C9.05503 8.1492 10.0883 8.40367 10.9096 9.17572C11.7309 9.94776 12.2209 10.8784 12.3794 11.9678C10.9977 11.6303 10.0072 11.1394 9.40803 10.4952C8.80887 9.85097 8.27613 9.15668 7.80982 8.4123Z" stroke="#E30002" stroke-width="0.451817"/>
<path d="M7.80988 8.4121L7.65562 8.2483L7.36241 8.52444L7.75128 8.62934L7.80988 8.4121ZM11.1708 7.40281L11.2409 7.189L11.2409 7.189L11.1708 7.40281ZM7.81048 8.41226L7.75188 8.6295L7.80407 8.64358L7.85696 8.63241L7.81048 8.41226ZM10.8266 9.10017L10.6777 9.26886L10.7264 9.31189L10.7906 9.32228L10.8266 9.10017ZM13.0687 9.45622L13.0338 9.67849L13.3316 9.72528L13.2917 9.42646L13.0687 9.45622ZM7.96413 8.5759C9.03214 7.57008 10.0694 7.27858 11.1007 7.61661L11.2409 7.189C10.0079 6.78487 8.8046 7.16623 7.65562 8.2483L7.96413 8.5759ZM7.86908 8.19503C7.86901 8.19501 7.86894 8.19499 7.86884 8.19496C7.86874 8.19494 7.86861 8.1949 7.86847 8.19486L7.75128 8.62934C7.75235 8.62962 7.75065 8.62917 7.75188 8.6295L7.86908 8.19503ZM7.85696 8.63241C9.00198 8.39063 9.9317 8.61039 10.6777 9.26886L10.9755 8.93149C10.1066 8.16457 9.02562 7.92572 7.76399 8.19212L7.85696 8.63241ZM13.1036 9.23395C12.1444 9.08326 11.3974 8.96464 10.8625 8.87806L10.7906 9.32228C11.3266 9.40902 12.0743 9.52777 13.0338 9.67849L13.1036 9.23395ZM11.1007 7.61661C11.6403 7.79347 12.0451 8.03986 12.3291 8.34719C12.6114 8.65261 12.7847 9.02913 12.8457 9.48598L13.2917 9.42646C13.2195 8.88545 13.01 8.4208 12.6596 8.04175C12.311 7.66461 11.8334 7.38322 11.2409 7.189L11.1007 7.61661Z" fill="#E30002"/>
<path fill-rule="evenodd" clip-rule="evenodd" d="M7.80982 8.4126C6.6426 8.8926 5.94594 9.6529 5.71984 10.6935C5.49374 11.7341 5.59451 12.8882 6.02217 14.1556C6.97394 12.7558 7.52293 11.7363 7.66912 11.0971C7.81532 10.458 7.86222 9.56312 7.80982 8.4126Z" stroke="#E30002" stroke-width="0.451817"/>
<path d="M7.80982 8.41238L7.97689 8.56308L8.24806 8.26247L7.84958 8.19092L7.80982 8.41238ZM4.91784 8.95857L5.04423 9.14472L5.04423 9.14472L4.91784 8.95857ZM7.80924 8.41301L7.89484 8.62109L7.94205 8.60168L7.97625 8.56379L7.80924 8.41301ZM5.73988 10.6072L5.89731 10.7679L5.94305 10.7231L5.95836 10.661L5.73988 10.6072ZM5.69056 10.6554L5.84768 10.8164L5.84768 10.8164L5.69056 10.6554ZM3.81991 12.4114L3.59525 12.4237L3.62131 12.899L3.97203 12.5772L3.81991 12.4114ZM7.80982 8.41238C7.84958 8.19092 7.84951 8.19091 7.84942 8.19089C7.84939 8.19089 7.8493 8.19087 7.84923 8.19086C7.84909 8.19083 7.84893 8.1908 7.84873 8.19077C7.84835 8.1907 7.84787 8.19062 7.84728 8.19051C7.84612 8.19031 7.84455 8.19004 7.84259 8.18971C7.83868 8.18905 7.8332 8.18814 7.82621 8.18703C7.81224 8.18482 7.79224 8.1818 7.76673 8.17833C7.71573 8.17141 7.64256 8.16268 7.55129 8.15502C7.36901 8.13971 7.11323 8.12854 6.81687 8.14483C6.2277 8.17722 5.45894 8.31923 4.79146 8.77242L5.04423 9.14472C5.6178 8.75529 6.29502 8.6242 6.84158 8.59415C7.11308 8.57923 7.3476 8.5895 7.51364 8.60344C7.59655 8.6104 7.66205 8.61825 7.70618 8.62424C7.72823 8.62724 7.74492 8.62976 7.75574 8.63148C7.76114 8.63234 7.76508 8.63299 7.76749 8.6334C7.76869 8.6336 7.76952 8.63374 7.76995 8.63382C7.77016 8.63386 7.77028 8.63388 7.7703 8.63388C7.7703 8.63388 7.77029 8.63388 7.77025 8.63387C7.77023 8.63387 7.77018 8.63386 7.77017 8.63386C7.77011 8.63385 7.77005 8.63384 7.80982 8.41238ZM7.97625 8.56379C7.97645 8.56356 7.97661 8.56339 7.97671 8.56328C7.97677 8.56322 7.97681 8.56317 7.97684 8.56314C7.97685 8.56312 7.97686 8.56311 7.97687 8.5631C7.97687 8.5631 7.97688 8.56309 7.97688 8.56309C7.97688 8.56309 7.97688 8.56309 7.97688 8.56309C7.97688 8.56309 7.97688 8.56309 7.97689 8.56309C7.97689 8.56309 7.97689 8.56309 7.97689 8.56309C7.97689 8.56308 7.97689 8.56308 7.97689 8.56308C7.97689 8.56308 7.97689 8.56308 7.97689 8.56308C7.97689 8.56308 7.97689 8.56308 7.80982 8.41238C7.64275 8.26167 7.64275 8.26167 7.64275 8.26167C7.64275 8.26167 7.64275 8.26167 7.64275 8.26167C7.64275 8.26167 7.64275 8.26167 7.64275 8.26167C7.64275 8.26167 7.64275 8.26167 7.64275 8.26167C7.64275 8.26167 7.64275 8.26167 7.64275 8.26167C7.64275 8.26167 7.64275 8.26167 7.64275 8.26167C7.64275 8.26167 7.64275 8.26167 7.64274 8.26167C7.64274 8.26168 7.64273 8.26168 7.64272 8.26169C7.64271 8.26172 7.64267 8.26175 7.64263 8.2618C7.64255 8.26189 7.64241 8.26204 7.64223 8.26224L7.97625 8.56379ZM7.72365 8.20493C6.53768 8.6928 5.78733 9.47344 5.52141 10.5534L5.95836 10.661C6.18303 9.74856 6.81226 9.06643 7.89484 8.62109L7.72365 8.20493ZM5.84768 10.8164C5.86445 10.8001 5.88099 10.7839 5.89731 10.7679L5.58245 10.4464C5.56635 10.4622 5.55001 10.4782 5.53345 10.4943L5.84768 10.8164ZM3.97203 12.5772C4.76472 11.8499 5.39018 11.2627 5.84768 10.8164L5.53345 10.4943C5.08069 10.936 4.45905 11.5196 3.66779 12.2456L3.97203 12.5772ZM4.79146 8.77242C3.86145 9.40386 3.49875 10.6639 3.59525 12.4237L4.04458 12.3991C3.95024 10.6787 4.3195 9.63678 5.04423 9.14472L4.79146 8.77242ZM5.84923 10.8149L5.89882 10.7656L5.58149 10.4465L5.5319 10.4958L5.84923 10.8149Z" fill="#E30002"/>
<path d="M7.86263 8.33582C7.34776 9.08686 6.99071 9.7749 6.79149 10.3999C6.59227 11.025 6.46311 11.5476 6.40402 11.9677" stroke="#E30002" stroke-width="0.278041" stroke-linecap="round"/>
<path d="M7.8067 8.45302C6.95831 8.51296 6.28573 8.76582 5.78897 9.21162C5.29221 9.65742 4.92956 10.0956 4.70102 10.5261" stroke="#E30002" stroke-width="0.278041" stroke-linecap="round"/>
<path d="M8.14367 8.12979C9.17619 7.8959 9.9526 7.83743 10.4729 7.95438C10.9932 8.07132 11.4085 8.25504 11.7186 8.50553" stroke="#E30002" stroke-width="0.278041" stroke-linecap="round"/>
<path d="M7.86462 8.30615C8.56873 8.64935 9.19326 9.01911 9.73823 9.41543C10.2832 9.81174 10.6896 10.1829 10.9574 10.529" stroke="#E30002" stroke-width="0.278041" stroke-linecap="round"/>
<path d="M12 24C18.0751 24 23 19.0751 23 13C23 6.92487 18.0751 2 12 2C5.92487 2 1 6.92487 1 13C1 19.0751 5.92487 24 12 24Z" stroke="#E30002" stroke-width="0.382306" stroke-linecap="round" stroke-linejoin="bevel"/>
<path fill-rule="evenodd" clip-rule="evenodd" d="M12.9937 14.6161L16.388 15.2146C16.5891 15.2885 16.6715 15.4285 16.6351 15.6345C16.5988 15.8405 16.4716 15.9547 16.2536 15.977L12.5705 15.3276L10.5729 13.2697C10.462 13.1015 10.4708 12.9531 10.5994 12.8245C10.7281 12.696 10.8865 12.6715 11.0747 12.7508L12.9937 14.6161Z" stroke="#E30002" stroke-width="0.382306" stroke-linecap="round" stroke-linejoin="bevel"/>
<path d="M16.1886 16.0142L16.0136 17.0067" stroke="#E30002" stroke-width="0.382306" stroke-linecap="round" stroke-linejoin="bevel"/>
<path d="M11.1475 13.8682L10.7672 16.0245" stroke="#E30002" stroke-width="0.382306" stroke-linecap="round" stroke-linejoin="bevel"/>
<path d="M12.6061 15.3504L12.4554 16.2916" stroke="#E30002" stroke-width="0.382306" stroke-linecap="round" stroke-linejoin="bevel"/>
<path d="M15.9187 15.3622L15.9487 15.1365" stroke="#E30002" stroke-width="0.382306" stroke-linecap="round" stroke-linejoin="bevel"/>
<path d="M14.7718 15.1884L14.8018 14.9627" stroke="#E30002" stroke-width="0.382306" stroke-linecap="round" stroke-linejoin="bevel"/>
<path d="M13.6248 14.9816L13.6553 14.7693" stroke="#E30002" stroke-width="0.382306" stroke-linecap="round" stroke-linejoin="bevel"/>
<path d="M12.3037 14.2088L12.4485 14.0732" stroke="#E30002" stroke-width="0.382306" stroke-linecap="round" stroke-linejoin="bevel"/>
<path d="M11.5738 13.514L11.7186 13.3784" stroke="#E30002" stroke-width="0.382306" stroke-linecap="round" stroke-linejoin="bevel"/>
</g>
<defs>
<clipPath id="clip0_280_16828">
<rect width="24" height="24" fill="white" transform="translate(0 0.589844)"/>
</clipPath>
</defs>
</svg>
