<svg width="24" height="25" viewBox="0 0 24 25" fill="none" xmlns="http://www.w3.org/2000/svg">
<g clip-path="url(#clip0_280_17223)">
<g clip-path="url(#clip1_280_17223)">
<path d="M7.03125 1.13984H16.9688C20.5482 1.13984 23.45 4.0416 23.45 7.62109V17.5586C23.45 21.1381 20.5482 24.0398 16.9688 24.0398H7.03125C3.45175 24.0398 0.55 21.1381 0.55 17.5586V7.62109C0.55 4.0416 3.45175 1.13984 7.03125 1.13984Z" stroke="#E30002" stroke-width="1.1"/>
<path fill-rule="evenodd" clip-rule="evenodd" d="M11.974 4.10547L15.3057 6.02772V7.08466L19.3384 9.4135V13.3972L20.4202 14.0217V17.8683L17.0906 19.7905L15.6124 18.9357L12.0184 21.0107L8.44582 18.9477L6.98834 19.7905L3.65875 17.8651V14.0217L4.69831 13.4215V9.4135L8.64443 7.13538L8.64664 7.13528V6.02772L11.974 4.10547ZM15.3057 8.08417V9.87217L11.9762 11.7944L8.64664 9.87217V8.13372L8.64443 8.13381L5.56367 9.91328V12.9219L6.98834 12.0994L10.3179 14.0217V17.8651L9.31057 18.4476L12.0184 20.0112L14.7477 18.4357L13.761 17.8651V14.0217L17.0906 12.0994L18.473 12.8976V9.91328L15.3057 8.08417ZM14.6264 17.3696V15.0234L16.6579 16.196V18.5423L14.6264 17.3696ZM19.5548 15.0201L17.5233 16.1927V18.5423L19.5548 17.3664V15.0201ZM4.52414 17.3664V15.0201L6.55564 16.1927V18.539L4.52414 17.3664ZM9.45251 15.0201L7.421 16.1927V18.539L9.45251 17.3664V15.0201ZM15.0591 14.2737L17.0906 13.1012L19.1221 14.2737L17.0906 15.4474L15.0591 14.2737ZM6.98834 13.0979L4.95682 14.2737L6.98834 15.4442L9.01981 14.2737L6.98834 13.0979ZM9.512 9.37244V7.02616L11.5413 8.19981V10.545L9.512 9.37244ZM14.4382 7.02616L12.4089 8.19981V10.5439L14.4382 9.37244V7.02616ZM9.9447 6.27756L11.974 5.10499L14.0055 6.27756L11.974 7.45019L9.9447 6.27756Z" fill="#E30002"/>
</g>
</g>
<defs>
<clipPath id="clip0_280_17223">
<rect width="24" height="24" fill="white" transform="translate(0 0.589844)"/>
</clipPath>
<clipPath id="clip1_280_17223">
<rect width="24" height="24" fill="white" transform="translate(0 0.589844)"/>
</clipPath>
</defs>
</svg>
