<svg width="24" height="25" viewBox="0 0 24 25" fill="none" xmlns="http://www.w3.org/2000/svg">
<path d="M20.325 3.03984H3.675C3.00237 3.03984 2.45 3.58211 2.45 4.25977V20.9199C2.45 21.5976 3.00238 22.1398 3.675 22.1398H20.325C20.9976 22.1398 21.55 21.5976 21.55 20.9199V4.25977C21.55 3.5821 20.9976 3.03984 20.325 3.03984Z" stroke="#E30002" stroke-width="1.1"/>
<path fill-rule="evenodd" clip-rule="evenodd" d="M13.0061 13.0941V11.6289H6.59999V13.0941H8.88707V19.6178H10.7078V13.0941H13.0061ZM13.732 19.4456C14.0256 19.5941 14.3728 19.7056 14.7737 19.7798C15.1746 19.8541 15.5971 19.8913 16.0413 19.8913C16.4742 19.8913 16.8854 19.8504 17.275 19.7687C17.6646 19.687 18.0061 19.5523 18.2997 19.3648C18.5933 19.1772 18.8258 18.9321 18.9971 18.6294C19.1683 18.3266 19.254 17.9524 19.254 17.5067C19.254 17.1836 19.205 16.9004 19.1071 16.6571C19.0093 16.4138 18.8682 16.1974 18.6837 16.008C18.4993 15.8186 18.2781 15.6486 18.0202 15.4982C17.7624 15.3478 17.4717 15.2057 17.148 15.072C16.9108 14.9754 16.6981 14.8816 16.5099 14.7907C16.3217 14.6997 16.1617 14.6068 16.03 14.5121C15.8982 14.4174 15.7966 14.3171 15.7251 14.2112C15.6536 14.1054 15.6178 13.9856 15.6178 13.8519C15.6178 13.7293 15.6498 13.6188 15.7138 13.5204C15.7778 13.422 15.8681 13.3374 15.9848 13.2669C16.1015 13.1963 16.2445 13.1416 16.4139 13.1025C16.5833 13.0636 16.7715 13.0441 16.9785 13.0441C17.1291 13.0441 17.2881 13.0552 17.4557 13.0775C17.6232 13.0998 17.7916 13.1341 17.961 13.1805C18.1304 13.227 18.2951 13.2854 18.4551 13.3561C18.615 13.4266 18.7628 13.5083 18.8983 13.6012V11.9354C18.6235 11.8313 18.3233 11.7542 17.9977 11.7041C17.6721 11.654 17.2985 11.6289 16.8769 11.6289C16.4478 11.6289 16.0413 11.6744 15.6573 11.7654C15.2734 11.8564 14.9356 11.9985 14.6438 12.1916C14.3521 12.3848 14.1215 12.6308 13.9522 12.9298C13.7827 13.2288 13.6981 13.5863 13.6981 14.0023C13.6981 14.5335 13.8533 14.9866 14.1639 15.3617C14.4745 15.7369 14.9459 16.0544 15.5783 16.3144C15.8267 16.4148 16.0582 16.5132 16.2728 16.6098C16.4873 16.7063 16.6727 16.8066 16.8289 16.9106C16.9851 17.0146 17.1084 17.1278 17.1987 17.2504C17.2891 17.373 17.3343 17.5123 17.3343 17.6683C17.3343 17.7835 17.306 17.8902 17.2495 17.9886C17.1931 18.0871 17.1074 18.1725 16.9926 18.2449C16.8778 18.3173 16.7348 18.374 16.5636 18.4148C16.3923 18.4557 16.1918 18.4761 15.9622 18.4761C15.5707 18.4761 15.183 18.4084 14.7991 18.2728C14.4152 18.1373 14.0594 17.9339 13.732 17.6627V19.4456Z" fill="#E30002"/>
</svg>
