<svg width="24" height="25" viewBox="0 0 24 25" fill="none" xmlns="http://www.w3.org/2000/svg">
<path fill-rule="evenodd" clip-rule="evenodd" d="M9.85456 7.05031L9.56968 11.9332C9.56077 12.0861 9.69916 12.2048 9.84623 12.1704L11.5607 11.7688C11.7211 11.7313 11.866 11.8747 11.8331 12.0384L11.3237 14.5697C11.2894 14.74 11.447 14.8857 11.611 14.8352L12.6699 14.5087C12.834 14.4581 12.9918 14.6042 12.9571 14.7747L12.1476 18.7508C12.0969 18.9995 12.4229 19.1351 12.5589 18.9219L12.6497 18.7794L17.6675 8.61684C17.7515 8.44668 17.6066 8.25266 17.4224 8.28872L15.6577 8.63438C15.4919 8.66682 15.3508 8.51009 15.3976 8.34543L15.8139 6.88092L20.6371 5.98874C21.0134 5.91915 21.2996 6.32551 21.1129 6.66427L12.7918 21.7649C12.62 22.0767 12.1786 22.0785 12.0042 21.7683L3.51809 6.66573C3.32811 6.32763 3.61299 5.9181 3.99052 5.98658L9.85456 7.05031Z" fill="#E30002"/>
<path d="M16.0793 3.46526L16.0792 3.46526L10.0143 4.68754C10.0143 4.68754 10.0143 4.68754 10.0143 4.68754C9.6601 4.75893 9.41424 5.06216 9.3944 5.40628L9.3944 5.40634L9.02132 11.887L9.02132 11.887C8.99268 12.3851 9.44542 12.8148 9.96972 12.6905L9.9698 12.6905L11.1627 12.4073L10.7585 14.4431L11.2958 14.5498L10.7585 14.4431C10.6493 14.9931 11.1568 15.5239 11.7449 15.3402L11.7449 15.3402L12.2604 15.1791L11.5702 18.6152C11.5702 18.6153 11.5702 18.6153 11.5702 18.6153C11.4882 19.0233 11.7245 19.3602 12.0293 19.4887C12.3372 19.6185 12.7523 19.5492 12.98 19.1872L13.0694 19.0451L13.0853 19.0199L13.0983 18.9931L18.0403 8.84926C18.3066 8.30289 17.8597 7.60992 17.1975 7.74135L17.1975 7.74135L15.981 7.98284L16.9743 4.44122L16.9743 4.44113C17.1235 3.90868 16.6736 3.34551 16.0793 3.46526ZM11.2602 11.9164L11.2601 11.9165L11.2602 11.9164ZM12.3674 14.6465L12.3673 14.6469C12.3674 14.6467 12.3674 14.6466 12.3674 14.6465L12.3674 14.6465ZM15.8399 8.48596L15.8399 8.48596L15.8399 8.48596Z" stroke="#E30002" stroke-width="1.1"/>
</svg>
