<svg width="24" height="25" viewBox="0 0 24 25" fill="none" xmlns="http://www.w3.org/2000/svg">
<g clip-path="url(#clip0_278_16659)">
<path d="M17.1966 15.2984C16.9064 15.4214 16.6161 15.483 16.3226 15.483C15.8582 15.483 15.439 15.402 15.0681 15.2401C14.6972 15.0781 14.3844 14.8547 14.1296 14.5697C13.8748 14.2847 13.6781 13.9511 13.5427 13.5657C13.4072 13.1803 13.3395 12.7657 13.3395 12.3221C13.3395 11.8654 13.4072 11.4444 13.5427 11.0525C13.6781 10.6606 13.8716 10.3206 14.1264 10.0323C14.3812 9.74086 14.694 9.51416 15.0649 9.34898C15.4358 9.18381 15.8518 9.09961 16.3194 9.09961C16.6322 9.09961 16.9322 9.14819 17.2224 9.24211C17.5127 9.33603 17.7771 9.47529 18.0126 9.65666C18.248 9.83802 18.4415 10.0647 18.5931 10.3335C18.7446 10.6023 18.8382 10.91 18.8736 11.2565H17.603C17.5223 10.9165 17.3708 10.6606 17.145 10.489C16.9193 10.3173 16.6451 10.2331 16.3194 10.2331C16.0195 10.2331 15.7647 10.2914 15.5551 10.408C15.3455 10.5246 15.1745 10.6801 15.0455 10.8776C14.9165 11.0752 14.8198 11.2986 14.7617 11.548C14.7037 11.7974 14.6714 12.0565 14.6714 12.3253C14.6714 12.5811 14.7004 12.8305 14.7617 13.0734C14.8198 13.3163 14.9165 13.5333 15.0455 13.7276C15.1745 13.9219 15.3455 14.0774 15.5551 14.194C15.7647 14.3106 16.0195 14.3689 16.3194 14.3689C16.7612 14.3689 17.1031 14.2555 17.345 14.0321C17.5868 13.8086 17.7255 13.4847 17.7675 13.0572H16.4258V12.05H18.9704V15.3437H18.1222L17.9868 14.6539C17.7513 14.9615 17.4869 15.1753 17.1966 15.2984Z" fill="#E30002"/>
<path d="M21.1343 9.25244V14.2108H24.0917V15.3411H19.8024V9.25244H21.1343Z" fill="#E30002"/>
<path d="M23.4635 16.0988C21.4285 17.3424 18.3777 18.0485 14.9752 18.0485C8.84445 18.0485 3.8779 15.4867 3.8779 12.3226C3.8779 9.16165 8.84768 6.59665 14.9752 6.59665C18.3906 6.59665 21.4511 7.31886 23.4861 8.56898C21.2673 6.47358 17.2811 5.00324 12.7274 5C5.74842 5 0.0917053 8.2775 0.0917053 12.3226C0.0917053 16.3676 5.74842 19.6484 12.7242 19.6484C17.2618 19.6484 21.235 18.1813 23.4635 16.0988Z" fill="#E30002"/>
<path d="M7.10951 13.8605L5.93388 8.77588H4.82303L6.56542 15.4054H7.60826L9.07536 10.1976L10.523 15.4054H11.5691L13.373 8.77588H12.1974L11.0218 13.8605L9.60326 8.77588H8.52803L7.10951 13.8605Z" fill="#E30002"/>
</g>
<defs>
<clipPath id="clip0_278_16659">
<rect width="24" height="24" fill="white" transform="translate(0 0.589844)"/>
</clipPath>
</defs>
</svg>
