<svg xmlns="http://www.w3.org/2000/svg" width="24" height="25" fill="none"><path fill="#E30002" d="m12.67 22.632 8.36-4.73-3.15-1.82-5.21 2.866v3.684ZM21.604 7.492v9.891l-3.059-1.765V9.26l3.059-1.768ZM11.935 22.632l-8.362-4.73 3.149-1.82 5.213 2.866v3.684ZM3 7.492v9.891l3.059-1.765V9.26L3 7.492ZM11.935 2 3.359 6.851l3.037 1.757.044-.025 5.495-3.023V2ZM12.67 2l8.575 4.851-3.037 1.754-.044-.025-5.495-3.02V2ZM6.793 15.281l5.142 2.829v-5.46L6.793 9.682v5.6ZM17.81 15.284l-5.14 2.826v-5.46l5.14-2.968v5.602ZM12.302 6.199l-5.16 2.836 5.16 2.98 5.16-2.98-5.16-2.836Z"/></svg>