<svg width="24" height="25" viewBox="0 0 24 25" fill="none" xmlns="http://www.w3.org/2000/svg">
<path d="M12.6691 22.6317L21.0308 17.9013L17.8791 16.0815L12.6691 18.9483V22.6317Z" fill="#E30002"/>
<path d="M21.6036 7.49229V17.3834L18.545 15.6184V9.26002L21.6036 7.49229Z" fill="#E30002"/>
<path d="M11.9346 22.6317L3.5728 17.9013L6.72182 16.0815L11.9346 18.9483V22.6317Z" fill="#E30002"/>
<path d="M3 7.49229V17.3834L6.05858 15.6184V9.26002L3 7.49229Z" fill="#E30002"/>
<path d="M11.9346 2L3.35903 6.85098L6.39568 8.60774L6.43953 8.58308L11.9346 5.56012V2Z" fill="#E30002"/>
<path d="M12.6691 2L21.2446 6.85098L18.2079 8.605L18.1641 8.58034L12.6691 5.56012V2Z" fill="#E30002"/>
<path d="M6.79321 15.2813L11.9347 18.1097V12.6503L6.79321 9.68212V15.2813Z" fill="#E30002"/>
<path d="M17.8107 15.284L12.6692 18.1097V12.6503L17.8107 9.68212V15.284Z" fill="#E30002"/>
<path d="M12.3019 6.19873L7.14128 9.03532L12.3019 12.0144L17.4626 9.03532L12.3019 6.19873Z" fill="#E30002"/>
</svg>
