<svg xmlns="http://www.w3.org/2000/svg" width="32" height="32"><g fill="none" fill-rule="evenodd"><path fill="#FFF" d="M0 0h32v32H0z"/><path fill="#1D2C4D" fill-rule="nonzero" d="M9.413 22.095h3.652c1.348 0 2.522-.476 2.522-2.238 0-1.738-1-2.428-2.457-2.428H9.413v4.666Zm0-7.214h3.456c1.196 0 2.088-.595 2.088-2.024 0-1.619-1.13-1.952-2.348-1.952H9.413v3.976ZM6 8h7.304c2.957 0 4.957 1.048 4.957 4.214 0 1.667-.76 2.834-2.109 3.548 1.892.595 2.848 2.19 2.848 4.31C19 23.524 16.326 25 13.522 25H6V8Zm13 2V8h8v2h-8Zm6.535 8.847c-.65.854-1.524 1.153-2.34 1.153C20.581 20 19 17.975 19 15.536 19 12.986 20.617 11 23.23 11c1.728 0 3.462 1.048 3.66 3.074H24.9c-.168-.972-1.019-1.314-1.734-1.314-1.475 0-2.131 1.314-2.131 2.818 0 1.432.66 2.662 2.137 2.662 1.053 0 1.878-.536 1.977-1.58h-1.701v-1.54H27v4.688h-1.304l-.16-.961Z"/></g></svg>