<svg xmlns="http://www.w3.org/2000/svg" width="512" height="512" fill="none"><rect width="512" height="512" fill="#fff" rx="45"/><mask id="a" width="512" height="512" x="0" y="0" maskUnits="userSpaceOnUse" style="mask-type:luminance"><rect width="512" height="512" fill="#fff" rx="45"/></mask><g mask="url(#a)"><path fill="#000" fill-rule="evenodd" d="M1493.33 42.667c0-23.565-19.1-42.667-42.66-42.667H42.667C19.102 0 0 19.102 0 42.667v426.666C0 492.897 19.102 512 42.667 512H1450.67c23.56 0 42.66-19.103 42.66-42.667V42.667ZM42.667 21.333h426.666l2.488.144c10.61 1.232 18.846 10.25 18.846 21.19v426.666l-.144 2.488c-1.232 10.61-10.249 18.846-21.19 18.846H42.667l-2.488-.144c-10.61-1.232-18.846-10.249-18.846-21.19V42.667l.144-2.488c1.232-10.61 10.25-18.846 21.19-18.846Zm917.333 0H533.333c-10.94 0-19.957 8.236-21.189 18.846L512 42.667v426.666c0 10.941 8.236 19.958 18.845 21.19l2.488.144H960c10.941 0 19.958-8.236 21.19-18.846l.143-2.488V42.667c0-10.94-8.235-19.958-18.845-21.19L960 21.333Zm64 0h426.67l2.48.144c10.61 1.232 18.85 10.25 18.85 21.19v426.666l-.14 2.488c-1.24 10.61-10.25 18.846-21.19 18.846H1024l-2.49-.144c-10.61-1.232-18.84-10.249-18.84-21.19V42.667l.14-2.488c1.23-10.61 10.25-18.846 21.19-18.846Z" clip-rule="evenodd"/><path fill="#000" fill-rule="evenodd" d="M225.018 192.199c-6.414 0-11.613 5.143-11.613 11.488v19.486c0 3.047 1.224 5.968 3.402 8.123a11.677 11.677 0 0 0 8.211 3.364h99.027c3.576 0 6.952 1.63 9.154 4.418a11.394 11.394 0 0 1 2.112 9.856c-4.873 19.28-13.409 46.736-17.419 62.604-1.292 5.113-5.937 8.701-11.265 8.701h-81.609c-6.414 0-11.613 5.143-11.613 11.487v62.12c0 6.344-5.199 11.487-11.612 11.487h-83.514c-6.413 0-11.612-5.143-11.612-11.487v-83.587c0-6.345 5.199-11.488 11.612-11.488h83.514c6.413 0 11.612-5.142 11.612-11.487v-19.797c0-6.344-5.199-11.487-11.612-11.487h-83.514c-6.413 0-11.612-5.143-11.612-11.487v-62.285c0-6.344 5.199-11.487 11.612-11.487h83.514c6.413 0 11.612-5.143 11.612-11.487v-41.1c0-6.345 5.199-11.487 11.613-11.487h168.703c3.576 0 6.952 1.629 9.153 4.418a11.386 11.386 0 0 1 2.112 9.855c-4.872 19.28-13.408 46.691-17.418 62.558-1.293 5.114-5.937 8.701-11.266 8.701H225.018Z" clip-rule="evenodd"/></g></svg>