<svg xmlns="http://www.w3.org/2000/svg" width="40" height="40"><g fill="none" fill-rule="evenodd"><path fill="#FFF" d="M0 0h40v40H0z"/><path fill="#1D2C4D" fill-rule="nonzero" d="M17 24.7c0 1.989-.522 3.493-2.555 4.9l-2.225-1.65c1.154-.97 1.538-1.698 1.566-2.886H12V21h5v3.7ZM12 14h5v4h-5v-4Zm7 11V12h5.701c2.62 0 3.747.269 4.552.784 1.172.763 1.747 1.995 1.747 3.61 0 1.5-.598 2.8-1.678 3.563-.92.65-2.138.964-4.207.964h-2.023V25H19Zm5.7-7c.875 0 1.5-.121 1.85-.387.325-.266.45-.653.45-1.113 0-.435-.125-.823-.45-1.113-.325-.29-.85-.387-1.775-.387H23v3h1.7Z"/></g></svg>