<svg xmlns="http://www.w3.org/2000/svg" width="40" height="40" viewBox="0 0 40 40"><g fill="none"><rect width="40" height="40" fill="#FFF"/><path fill="#1D2C4D" d="M26.5290137,17.4333669 L29.3679947,17.4333669 L29.3679947,27 L26.5290137,27 L26.5290137,17.4333669 Z M17.2642587,13 L20.1033638,13 L20.1033638,26.9998741 L17.2642587,26.9998741 L17.2642587,13 Z M8,13 L10.838919,13 L10.838919,26.9999371 L8,26.9999371 L8,13 Z M12.6320053,13.0000629 L15.4711724,13.0000629 L15.4711724,22.566759 L12.6320053,22.566759 L12.6320053,13.0000629 Z M26.5100966,13.0000629 L34,13.0000629 L34,15.8001007 L26.5100966,15.8001007 L26.5100966,13.0000629 Z M21.8777192,13.0000629 L24.7355552,13.0000629 L24.7355552,15.8001007 L21.8777192,15.8001007 L21.8777192,13.0000629 Z M21.9020322,17.4192707 L24.7409512,17.4192707 L24.7409512,26.9858409 L21.9020322,26.9858409 L21.9020322,17.4192707 Z"/></g></svg>