<svg xmlns="http://www.w3.org/2000/svg" width="40" height="40" viewBox="0 0 40 40">
  <g fill="none" fill-rule="evenodd">
    <rect width="40" height="40" fill="#FFF"/>
    <path fill="#1D2C4D" fill-rule="nonzero" d="M25.5290137,17.4333669 L28.3679947,17.4333669 L28.3679947,27 L25.5290137,27 L25.5290137,17.4333669 Z M16.2642587,13 L19.1033638,13 L19.1033638,26.9998741 L16.2642587,26.9998741 L16.2642587,13 Z M7,13 L9.83891899,13 L9.83891899,26.9999371 L7,26.9999371 L7,13 Z M11.6320053,13.0000629 L14.4711724,13.0000629 L14.4711724,22.566759 L11.6320053,22.566759 L11.6320053,13.0000629 Z M25.5100966,13.0000629 L33,13.0000629 L33,15.8001007 L25.5100966,15.8001007 L25.5100966,13.0000629 Z M20.8777192,13.0000629 L23.7355552,13.0000629 L23.7355552,15.8001007 L20.8777192,15.8001007 L20.8777192,13.0000629 Z M20.9020322,17.4192707 L23.7409512,17.4192707 L23.7409512,26.9858409 L20.9020322,26.9858409 L20.9020322,17.4192707 Z"/>
  </g>
</svg>
