<svg xmlns="http://www.w3.org/2000/svg" width="900" height="609" fill="none"><path stroke="#E30002" stroke-width="2" d="M649.62 361.05a.276.276 0 0 1-.164.034.278.278 0 0 1-.236-.374c4.45-11.07 4.82-31.81-8.5-37.61a2.568 2.568 0 0 1-1.55-2.29c-.2-6.74-4.38-17.46-11.08-19.68-9.06-3-11.5 8.29-10.07 14.45.927 4.02 1.86 8.027 2.8 12.02.073.32.057.637-.05.95-1.49 4.33-1.56 8.1-4.27 12.48-.187.3-.31.277-.37-.07-.67-3.56-.64-7.41-2.69-10.33-5.61-7.98-14.01-7.79-22.7-5.2a.428.428 0 0 1-.507-.545.425.425 0 0 1 .177-.235c4.5-2.56 9.273-4.43 14.32-5.61a.334.334 0 0 0 .256-.263.327.327 0 0 0-.146-.337 55.3 55.3 0 0 0-12.27-5.94.47.47 0 0 1 .16-.92c3.833.1 7.47.977 10.91 2.63a1.548 1.548 0 0 0 1.803-.341c.15-.161.265-.351.337-.559l1.28-3.74c.147-.427.02-.74-.38-.94a96.865 96.865 0 0 0-12.35-5.3c-3.46-1.207-6.123-.273-7.99 2.8-6.53 10.76-18.19 34.97-13.3 47.33 6.32 15.94 23.17 24 38.2 29.67 21.28 8.027 43.393 11.66 66.34 10.9 1.427-.053 2.823.217 4.19.81 23.61 10.17 52.52 7.04 75.34-3.41 3.06-1.393 6.013-3.303 8.86-5.73a2.071 2.071 0 0 0 .721-1.445 2.043 2.043 0 0 0-.541-1.515c-4.37-4.77-18.06-4.77-24.11-4.29-.253.02-.36-.093-.32-.34l1.99-12.18c.107-.647.47-.863 1.09-.65 10.34 3.64 22.36 3.75 32.87 1.3 16.74-3.9 31.2-16.23 24.71-35.44-1.06-3.15-3.48-8.03-1.12-11.11 12.15-15.86 15.93-33.17 14.47-53.03-1.29-17.61-9.01-32.26-19.9-45.66-4.133-5.08-8.123-8.43-11.97-10.05-7.19-3.03-17.55-1.7-23.2 5.14-.287.347-.553.33-.8-.05l-7.14-10.65c-.26-.4-.173-.697.26-.89 15.34-6.98 21.57-26.64 19.83-41.79-3.89-33.67-41.43-52.02-71.9-41.11-14.58 5.22-24.19 15.36-27.65 30.46a.527.527 0 0 1-.538.405.538.538 0 0 1-.232-.065l-13.79-7.47c-.367-.2-.407-.453-.12-.76 12.24-13.38 18.45-36.75 15.02-54.34-4.87-24.98-20.73-47.07-41.79-60.8-41.78-27.23-97.37-22.77-137.59 4.98-9.08 6.27-15.4 11.24-15.95 21.92-.433 8.253 2.907 14.683 10.02 19.29.373.24.387.5.04.78l-10.56 8.43c-.32.26-.537.193-.65-.2-.39-1.31-.81-2.6-1.51-3.75-18.26-30.2-51.71-45.25-86.55-42.98-42.95 2.8-82.45 31.5-97.17 72.43-5.99 16.66-8.57 54.52 7.51 67.8.24.193.237.387-.01.58l-11.66 9.07c-.273.22-.447.157-.52-.19-1.41-6.57-2.65-14.21-10.26-16.16-9.08-2.33-7.68 8.53-4.61 13a123.29 123.29 0 0 0 14.97 17.94c.253.253.23.47-.07.65l-13.91 8.39c-.387.233-.57.123-.55-.33.293-6.52-1.86-12.13-6.46-16.83-17.03-17.39-43.99-20.68-65.91-12.33-15.1 5.76-22.24 21.76-21.25 37.46.35 5.64 1.62 11.79 1.15 16.94-1.47 16.28-11.63 29.6-19.73 45.09-.2.38-.483.453-.85.22l-13.8-8.7c-.387-.247-.38-.487.02-.72 18.93-11.09 28.25-33.92 22.38-54.8-6.96-24.74-33.3-42.35-33.84-69.17a1.213 1.213 0 0 0-.214-.673 1.25 1.25 0 0 0-.556-.447c-14.26-5.68-27.93-17.99-29.89-34.02a.522.522 0 0 1 .722-.531.522.522 0 0 1 .258.241c5.08 10.43 15.6 22.33 27.63 24.74 10.16 2.04 25.52-4.17 34.39-9.03 1.12-.61 3.05-.63 4.01-.1 8.34 4.69 25.18 10.13 27.7-3.8.987-5.46.777-10.46-.63-15-2.16-6.97-13.82-16.92-20.75-9.6-8.02 8.47.14 21.01 8.5 25.76.36.207.383.44.07.7-3.16 2.66-12.64-6.11-14.44-8.47a1.317 1.317 0 0 0-1.65-.38c-5.48 2.82-10.853 2.7-16.12-.36a1.84 1.84 0 0 0-1.91.04c-4.72 2.96-10.8 5.56-16.44 4.12-10.88-2.767-17.173-9.74-18.88-20.92-1.38-9.04 6.93-14.91 15.37-14.47.58.033.64.227.18.58-5.98 4.633-7.483 10.63-4.51 17.99 4.42 10.98 17.49 8.02 21.59-.91 6.53-14.23-10.55-47.48-28.8-41.68-11.91 3.78-14.51 12.99-12.83 24.61.77 5.32 2.77 13.65-5.55 14.31a1.44 1.44 0 0 0-.88.39c-11.14 10.05-10.58 29.44-4.56 41.7.153.307.17.62.05.94-10.62 28.86-14.467 58.5-11.54 88.92 2.33 24.21 7.99 48.2 22.72 68.16 18.15 24.57 64.62 23.32 90.72 15.72 5.847-1.7 10.71-3.227 14.59-4.58 3.63-1.26 15.52 6.22 19.63 7.51 11.39 3.58 54.78 12.52 55.5-7.28.213-5.907.473-11.833.78-17.78a.684.684 0 0 1 .074-.269.683.683 0 0 1 .427-.339.657.657 0 0 1 .279-.012l13.65 2.2c.367.06.493.267.38.62-4.667 14.18-3.383 27.443 3.85 39.79 10.47 17.87 29.96 34.44 50.83 38.87 9.14 1.94 23.19.26 30.52-4.97.24-.173.463-.153.67.06l9.59 10.02a.742.742 0 0 1 .194.659.738.738 0 0 1-.424.541c-10.88 4.93-21.05 6.05-32.79 7.23-1.88.187-3.09 1.41-3.63 3.67-.067.3-.03.583.11.85 1.693 3.173 3.033 5.347 4.02 6.52 24.82 29.48 63.51 43.92 101.73 36.39 9.21-1.81 20.81-6.87 19.66-17.63-.8-7.45-7.2-13.01-14.11-15.29a.458.458 0 0 1-.301-.366.435.435 0 0 1 .191-.424l16.4-10.91c.313-.207.54-.137.68.21 1.753 4.287 4.293 8.337 7.62 12.15 14.28 16.35 28.4 26.59 50.39 29.34 31.89 4 63.04-7.09 83.89-31.66.22-.26.163-.427-.17-.5a180.745 180.745 0 0 1-46.82-17.36c-2.66-1.43-4.77-3.71-7.22-5.61-9.7-7.57-20.04-22.1-18.15-34.8 2.087-14.06 7.26-28.01 15.52-41.85 9.51-15.95 22.01-10.06 35.22-3.61.34.167.627.103.86-.19 7.72-9.51 18.54-8.93 27.25-1.25 6.26 5.51 8.72 11.97 11 20.07.107.367.34.61.7.73 5.013 1.647 8.31 5 9.89 10.06.08.247.25.383.51.41l6.06.61c.413.04.713-.127.9-.5a55.405 55.405 0 0 1 9.28-13.25c.28-.3.233-.537-.14-.71-25.13-11.11-31.03-35.87-20.99-59.86 3.59-8.58 15.28-17.1 8.01-26.86-4.893-6.573-10.77-12.173-17.63-16.8a.556.556 0 0 1-.247-.44.561.561 0 0 1 .207-.46l13.57-11.42a.533.533 0 0 1 .699.011.542.542 0 0 1 .141.209c2.57 6.71 5.71 13.85 10.19 19.12 7.08 8.34 20.16 16.42 31.22 14.1 13.08-2.75 19.23-18.66 18.88-30.68-.007-.313.133-.407.42-.28l14.43 6.31c.313.14.4.367.26.68-7.54 17.5-20.9 37.81-42.45 34.92-6.75-.91-11.61-1.06-17.1 3.34-19.19 15.34-19.68 43.27 2.35 56.3 5.45 3.23 10.95 2.08 16.03-1.57 5.9-4.233 12.04-8.06 18.42-11.48 7.73-4.15 19.83-8.99 29.49-14.14a.358.358 0 0 1 .52.23l4.58 19.16c.113.467-.067.663-.54.59-23.12-3.47-51.13 15.25-65.2 32.18-3.43 4.13-5.76 9.42-8.53 14.3-.173.307-.44.46-.8.46H661.5c-.333 0-.51.163-.53.49-.567 8.22-4.35 14.407-11.35 18.56Z"/><path stroke="#E30002" stroke-width="2" d="M186.6 87.75c2.287.613 4.557 1.217 6.81 1.81.313.087.517-.027.61-.34 3.35-11.48-7.68-43-24.4-30.85a.706.706 0 0 0-.286.5.719.719 0 0 0 .186.55c6.44 6.973 9.973 15.257 10.6 24.85.29 4.31 3.7 2.74 6.48 3.48Zm-28.33 22.17c3.06 1.693 5.943 1.487 8.65-.62.327-.253.47-.587.43-1-.58-5.76.253-11.227 2.5-16.4 1.39-3.18 1.26-5.15.55-8.31-2.65-11.81-12.45-27.95-26.71-24.38-1.22.3-1.397.903-.53 1.81 7.78 8.21 14.24 19.22 15.56 30.52.57 4.94.89 11.35-1.22 16.04-.46 1.013-.203 1.793.77 2.34Zm392.74 464.63-7.73-11.95a.323.323 0 0 1-.045-.127.314.314 0 0 1 .014-.133.283.283 0 0 1 .181-.18l9.83-3.47a.579.579 0 0 0 .32-.81c-15.7-30.3-31.437-60.557-47.21-90.77-3.16-6.06-5.627-10.16-7.4-12.3-3.12-3.78-17.77-17.37-19.54-4.74-.94 6.62 2.92 12.96 6.39 19.63a21794.649 21794.649 0 0 1 49.59 96.12c.187.36.103.633-.25.82-12.58 6.58-16.82 17.83-17.84 31.52-.027.373.147.56.52.56l138.85.37c.36 0 .58-.173.66-.52 6.15-26.07-27.72-38.4-47.1-39.53-19.05-1.11-45.79 1.92-58.59 15.57-.24.26-.457.24-.65-.06Z"/><path stroke="#E30002" stroke-width="2" d="M554.59 451.41c-3.59-3.16-14.54-9.64-16.31-.23-.9 4.81 4.04 13.75 5.92 18.47 5.21 13.04-2.25 17.2-13.97 17.39-.473.007-.6.217-.38.63l10.71 20.54c.173.333.443.457.81.37 17.62-4.13 30.72-13.99 26.69-34.21-1.793-8.993-6.283-16.647-13.47-22.96ZM466 599.69c3.72-16.91-9.21-36.5-28.25-29.68a.576.576 0 0 1-.514-.075.555.555 0 0 1-.236-.455v-14.74c0-.427.193-.553.58-.38 4.04 1.83 13.46 3.56 14.59-2.92.753-4.353 1.38-10.19 1.88-17.51.48-7.16 1.97-13.29-5.8-14.82-2.47-.49-5.01.88-7.28 1.89-.48.22-.72.063-.72-.47v-14.8c0-.48.223-.633.67-.46 3.213 1.213 5.74 1.877 7.58 1.99 14.267.84 29.023 1.77 44.27 2.79.813.053 1.033-.28.66-1l-9.99-19.29a.852.852 0 0 0-.79-.49c-4.553-.04-9.1-.05-13.64-.03-2.6.01-10.72 3.08-7.29 6.77a1.01 1.01 0 0 1-.73 1.69l-7.99.07c-.433.007-.637-.207-.61-.64.52-8.99-3.45-22.47-14.25-22.78-13.25-.38-18.27 46.43-19.05 55.92a527.365 527.365 0 0 0-1.14 69.16c.02.4.227.6.62.6l46.63.3c.44 0 .707-.213.8-.64ZM358.81 143.11c.473.047.7.31.68.79-.82 18.58 1.927 36.347 8.24 53.3 5.95 15.96 21.79 38.03 41.77 29.71 26.37-10.97 28.92-58.85 26.05-81.85a.98.98 0 0 1 .289-.821 1.011 1.011 0 0 1 .831-.279 49.98 49.98 0 0 1 15.45 4.69c.42.207.63.077.63-.39v-16.77c0-.42-.197-.563-.59-.43-6.473 2.093-11.61 3.173-15.41 3.24-7.86.127-26.8-.187-56.82-.94-12.02-.3-25.143-1.47-39.37-3.51-.313-.047-.473.09-.48.41l-.31 14.26c-.013.507.227.687.72.54a46.64 46.64 0 0 1 18.32-1.95Zm134.92 1.06a.293.293 0 0 1 .25.34c-4.22 23.49-.84 56.04 16.38 74.32 12.32 13.07 28.6 15.41 42.74 2.71 19.87-17.84 23.99-52.01 19.87-76.93a.53.53 0 0 1 .108-.41.507.507 0 0 1 .372-.19c6.7-.34 12.673 1.517 17.92 5.57a.396.396 0 0 0 .2.081.396.396 0 0 0 .372-.183.394.394 0 0 0 .058-.208v-18.55c0-.447-.213-.597-.64-.45-3.73 1.25-7.32 2.75-11.13 3.17-6.22.687-12.457.97-18.71.85-26.56-.53-52.04-.05-67.52-.53-4.087-.127-9.18-1.307-15.28-3.54-.48-.173-.72-.007-.72.5v16.03c0 .547.233.68.7.4 4.607-2.767 9.617-3.76 15.03-2.98Zm-44.67 76.6c1.87 7.97 9.02 15.06 17.83 12.2 9.58-3.11 17.13-11.7 21.97-19.82.18-.3.133-.56-.14-.78l-11.15-8.95c-.207-.167-.34-.12-.4.14a42.595 42.595 0 0 1-5.6 13.5c-1.79 2.82-8.8 11.1-11.86 4.32-4.99-11.09-.09-24.52 8.89-31.12.347-.253.34-.5-.02-.74l-11.22-7.49c-.373-.247-.667-.173-.88.22-6.03 11.14-10.34 26.05-7.42 38.52ZM128.4 245.08c2.95 7.99 13.04 5.39 10.17-2.38-3.66-9.933-5.04-20.207-4.14-30.82.24-2.74 2.18-4.9 1.78-7.57-.54-3.58-4.15-5.58-7.43-3.68-9.88 5.75-3.68 35.52-.38 44.45Zm243.52 19.11c25.06 65.74 122.38 79.06 167.02 26.25 9.34-11.047 14.94-24.083 16.8-39.11.59-4.73-.98-8.51-6.24-8.34-58.667 1.967-117.333 3.97-176 6.01-9.18.32-3.06 11.3-1.58 15.19ZM183.43 285.8c13.66 17.1 41 21.54 59.76 10.9 8.29-4.71 3.76-14.89-3.75-9.96-13.32 8.74-31.04 6.07-43.36-3.06-2.44-1.8-6.97-9.05-11.58-6.93-3.99 1.83-3.5 6.01-1.07 9.05Z"/><path stroke="#E30002" stroke-width="2" d="M392.71 166.55c20.78 11.91 9.14 33.71-9.99 36.32a.832.832 0 0 0-.716.827.836.836 0 0 0 .096.383c4.88 9.36 16.86 20.72 27.65 11.42 17.33-14.92 18.98-50.28 15.86-70.97-.053-.353-.26-.53-.62-.53H414.2c-.36 0-.59.173-.69.52-2.61 9.26-11.59 18.74-20.71 21.31a.386.386 0 0 0-.29.329.383.383 0 0 0 .04.226c.035.07.091.127.16.165Zm133.08-.98c9.26 7.19 13.63 18.91 6.66 29.11-4.52 6.61-11.17 9.58-18.9 11.45-.3.073-.37.243-.21.51 14.6 24.3 36.18 12.04 44.52-8.58 6.94-17.16 8.657-35.03 5.15-53.61-.053-.3-.233-.45-.54-.45h-13.92c-.3 0-.503.14-.61.42-3.18 8.33-11.78 20.3-21.85 20.29-.94 0-1.04.287-.3.86Zm6.7 88.1-1.39 14.86c-.027.313.113.47.42.47h8.75c.433 0 .73-.197.89-.59a79.383 79.383 0 0 0 4.48-14.88c.08-.393-.083-.59-.49-.59l-12.07.19c-.36.007-.557.187-.59.54Zm-29.86.49a.31.31 0 0 0-.31.3l-.37 15.32a.327.327 0 0 0 .021.124.312.312 0 0 0 .299.196l18.62-.52a.312.312 0 0 0 .3-.28l1.34-15.08a.326.326 0 0 0-.014-.128.319.319 0 0 0-.065-.111.326.326 0 0 0-.105-.075.323.323 0 0 0-.126-.026l-19.59.28Zm-41.84 1.64a.628.628 0 0 0-.61.64l.19 14.08a.618.618 0 0 0 .195.446.635.635 0 0 0 .455.174l30.29-.83a.633.633 0 0 0 .61-.61l.44-14.26a.62.62 0 0 0-.184-.466.62.62 0 0 0-.466-.184l-30.92 1.01Zm-42.08 16.08a.313.313 0 0 0 .31.26l31.4-.62a.312.312 0 0 0 .3-.32l-.3-14.79a.323.323 0 0 0-.094-.223.317.317 0 0 0-.226-.087l-33.11 1.23a.304.304 0 0 0-.221.112.304.304 0 0 0-.069.238l2.01 14.2Zm-31.14 1.14 20.94-.35c.273-.007.39-.143.35-.41l-2.01-14.04c-.053-.373-.27-.553-.65-.54l-25.63.84a.377.377 0 0 0-.366.325.384.384 0 0 0 .016.175 70.085 70.085 0 0 0 6.44 13.5c.213.34.517.507.91.5ZM530.4 279a.321.321 0 0 0-.32.3l-.38 6.04a.321.321 0 0 0 .412.342.322.322 0 0 0 .168-.122l4.72-6.04a.317.317 0 0 0 .036-.343.321.321 0 0 0-.296-.177h-4.34Zm-28.68 1.29-.58 25.36c-.013.367.15.477.49.33a90.458 90.458 0 0 0 16.47-9.32 1.82 1.82 0 0 0 .75-1.3l1.41-15.42a.554.554 0 0 0-.34-.566.551.551 0 0 0-.23-.044l-17.48.47c-.32.013-.483.177-.49.49Zm-10.69 28.92 1.02-28.53c.02-.427-.187-.637-.62-.63l-29.94.87c-.373.013-.56.207-.56.58l.17 30.75a.97.97 0 0 0 .94.96c9.667.3 19.157-.813 28.47-3.34.333-.093.507-.313.52-.66Zm-67.33-4.76a95.694 95.694 0 0 0 27.24 7.87c.4.06.597-.117.59-.53l-.69-30.07c-.013-.413-.223-.613-.63-.6l-29.43.96c-.42.013-.6.227-.54.64l2.98 21.08c.04.307.2.523.48.65Zm-25.2-21.91-3.48.23c-.433.027-.5.193-.2.5l3.39 3.48"/><path stroke="#E30002" stroke-width="2" d="M398.21 286.75a83.693 83.693 0 0 0 13.84 11.21c.28.18.397.103.35-.23l-2.02-14.93a.728.728 0 0 0-.74-.62l-11.14.36"/><path stroke="#FFEF9B" stroke-width="2" d="m398.21 286.75.29-4.21"/><path fill="#E30002" d="M474.69 609h-67.32a519.156 519.156 0 0 1 .14-79c1.15-14.79 3.72-31.13 9.14-46.57 6.65-18.93 20.78-28.99 37.28-11.02 5.92 6.45 14.63 4.22 22.3 5.28a.455.455 0 0 0 .448-.186.463.463 0 0 0 .032-.484 1082.346 1082.346 0 0 0-8.16-15.82c-2.033-3.867-3.977-6.517-5.83-7.95-4.78-3.7-8.64-3.21-14.45-3.32-44.6-.85-86.61-24.72-104.35-66.7a1.285 1.285 0 0 0-.7-.7c-22.06-9.74-38.387-25.447-48.98-47.12a.747.747 0 0 0-.72-.45c-12.01.14-23.73 1.25-35.76.8-9.18-.347-18.74-2.113-28.68-5.3-5.11-1.64-10.6-4.73-15.93-7.06-.313-.14-.63-.15-.95-.03-33.51 12.55-92.12 15.83-115.06-18.73-20.92-31.51-25.52-69.87-23.2-106.78 1.147-18.347 4.843-36.143 11.09-53.39a1.28 1.28 0 0 0-.01-.93c-6.47-16.45-4.53-41.27 11.64-52.23.287-.2.413-.47.38-.81-.34-3.29-1.13-6.72-1.13-9.67 0-17.4 12.64-29.94 29.96-29.99 2.55-.01 5.39 1.36 8.29 1.38.333 0 .627-.107.88-.32 7.01-5.98 18.41-4.55 25.57-.06.307.187.583.157.83-.09 11.18-10.96 26.62-7.76 34.89 4.66 7.78 11.69 11.4 26.47 6.74 40a.99.99 0 0 0 .13.95c6.087 8.8 8.01 18.52 5.77 29.16-4.38 20.78-23.86 19.99-39.29 13.01-2.57-1.16-20.99 6.06-24.46 7.32-.633.233-.89.683-.77 1.35 3.17 17.46 14.14 30.13 23.84 44.66.2.293.403.3.61.02 19.7-26.93 57.32-31.85 86.54-19.24.32.14.577.067.77-.22 5.28-7.633 11.747-14.097 19.4-19.39a.908.908 0 0 0 .42-.82c-.07-4.22-.6-8.83-.52-12.61 1.13-57.02 47.6-103.67 102.54-112.21 30.4-4.727 58.263 2.043 83.59 20.31.28.2.537.173.77-.08C488.077 19.967 519.873 4.037 557.8.83c59.23-5 115.67 30.19 126.98 90.88.3 1.6-.11 3.99.88 5.9.167.327.253.673.26 1.04l.12 17.87c0 .493.217.62.65.38 18.767-10.367 37.927-11.74 57.48-4.12 32.07 12.5 49.09 47.81 34.17 79.9-.14.307-.06.54.24.7 16.74 8.67 29.65 24.01 38.23 40.51 14.51 27.86 13.58 64.16-5.22 90.04a.837.837 0 0 0-.11.85c6.34 16.593 3.17 30.5-9.51 41.72-2.53 2.23-6.59 3.59-8.45 6.67-20.99 34.56-76.41 47.11-112.21 32.92a10.34 10.34 0 0 0-4.3-.73c-10.3.473-20.55-.067-30.75-1.62a.817.817 0 0 0-.81.33c-16.793 21.753-38.68 35.147-65.66 40.18-2.76.51-7.83.8-11.72 1.62-.447.093-.54.33-.28.71 19.94 28.51 17.69 62.14-20.68 72.27a.655.655 0 0 0-.441.373.663.663 0 0 0 .021.577l17.33 33.39c.173.327.433.433.78.32 21.71-6.86 42.51-8.61 64.67-2.68 17.65 4.72 37.03 17.34 39.51 37.08.27 2.11 1.05 3.71 1.04 5.8-.02 4.567-.027 8.857-.02 12.87a2.348 2.348 0 0 1-.689 1.668 2.327 2.327 0 0 1-1.671.682l-161.62-1.06a.452.452 0 0 1-.45-.42c-.83-15.74 3.15-33.73 14.87-44.83.22-.213.26-.457.12-.73l-20.38-39.5a.87.87 0 0 0-.78-.51l-32.11-2a.359.359 0 0 0-.39.33l-4.1 41.95a1 1 0 0 0 .41.95c14.21 10.66 18.88 29.81 11.48 45.89Zm174.93-247.95a.276.276 0 0 1-.164.034.273.273 0 0 1-.154-.065.27.27 0 0 1-.089-.142.273.273 0 0 1 .007-.167c4.45-11.07 4.82-31.81-8.5-37.61a2.568 2.568 0 0 1-1.55-2.29c-.2-6.74-4.38-17.46-11.08-19.68-9.06-3-11.5 8.29-10.07 14.45.927 4.02 1.86 8.027 2.8 12.02.073.32.057.637-.05.95-1.49 4.33-1.56 8.1-4.27 12.48-.187.3-.31.277-.37-.07-.67-3.56-.64-7.41-2.69-10.33-5.61-7.98-14.01-7.79-22.7-5.2a.428.428 0 0 1-.507-.545.425.425 0 0 1 .177-.235c4.5-2.56 9.273-4.43 14.32-5.61a.334.334 0 0 0 .256-.263.327.327 0 0 0-.146-.337 55.3 55.3 0 0 0-12.27-5.94.47.47 0 0 1 .16-.92c3.833.1 7.47.977 10.91 2.63a1.548 1.548 0 0 0 1.803-.341c.15-.161.265-.351.337-.559l1.28-3.74c.147-.427.02-.74-.38-.94a96.865 96.865 0 0 0-12.35-5.3c-3.46-1.207-6.123-.273-7.99 2.8-6.53 10.76-18.19 34.97-13.3 47.33 6.32 15.94 23.17 24 38.2 29.67 21.28 8.027 43.393 11.66 66.34 10.9 1.427-.053 2.823.217 4.19.81 23.61 10.17 52.52 7.04 75.34-3.41 3.06-1.393 6.013-3.303 8.86-5.73a2.071 2.071 0 0 0 .721-1.445 2.043 2.043 0 0 0-.541-1.515c-4.37-4.77-18.06-4.77-24.11-4.29-.253.02-.36-.093-.32-.34l1.99-12.18c.107-.647.47-.863 1.09-.65 10.34 3.64 22.36 3.75 32.87 1.3 16.74-3.9 31.2-16.23 24.71-35.44-1.06-3.15-3.48-8.03-1.12-11.11 12.15-15.86 15.93-33.17 14.47-53.03-1.29-17.61-9.01-32.26-19.9-45.66-4.133-5.08-8.123-8.43-11.97-10.05-7.19-3.03-17.55-1.7-23.2 5.14-.287.347-.553.33-.8-.05l-7.14-10.65c-.26-.4-.173-.697.26-.89 15.34-6.98 21.57-26.64 19.83-41.79-3.89-33.67-41.43-52.02-71.9-41.11-14.58 5.22-24.19 15.36-27.65 30.46a.527.527 0 0 1-.538.405.538.538 0 0 1-.232-.065l-13.79-7.47c-.367-.2-.407-.453-.12-.76 12.24-13.38 18.45-36.75 15.02-54.34-4.87-24.98-20.73-47.07-41.79-60.8-41.78-27.23-97.37-22.77-137.59 4.98-9.08 6.27-15.4 11.24-15.95 21.92-.433 8.253 2.907 14.683 10.02 19.29.373.24.387.5.04.78l-10.56 8.43c-.32.26-.537.193-.65-.2-.39-1.31-.81-2.6-1.51-3.75-18.26-30.2-51.71-45.25-86.55-42.98-42.95 2.8-82.45 31.5-97.17 72.43-5.99 16.66-8.57 54.52 7.51 67.8.24.193.237.387-.01.58l-11.66 9.07c-.273.22-.447.157-.52-.19-1.41-6.57-2.65-14.21-10.26-16.16-9.08-2.33-7.68 8.53-4.61 13a123.29 123.29 0 0 0 14.97 17.94c.253.253.23.47-.07.65l-13.91 8.39c-.387.233-.57.123-.55-.33.293-6.52-1.86-12.13-6.46-16.83-17.03-17.39-43.99-20.68-65.91-12.33-15.1 5.76-22.24 21.76-21.25 37.46.35 5.64 1.62 11.79 1.15 16.94-1.47 16.28-11.63 29.6-19.73 45.09-.2.38-.483.453-.85.22l-13.8-8.7c-.387-.247-.38-.487.02-.72 18.93-11.09 28.25-33.92 22.38-54.8-6.96-24.74-33.3-42.35-33.84-69.17a1.213 1.213 0 0 0-.214-.673 1.25 1.25 0 0 0-.556-.447c-14.26-5.68-27.93-17.99-29.89-34.02a.517.517 0 0 1 .37-.551.52.52 0 0 1 .61.261c5.08 10.43 15.6 22.33 27.63 24.74 10.16 2.04 25.52-4.17 34.39-9.03 1.12-.61 3.05-.63 4.01-.1 8.34 4.69 25.18 10.13 27.7-3.8.987-5.46.777-10.46-.63-15-2.16-6.97-13.82-16.92-20.75-9.6-8.02 8.47.14 21.01 8.5 25.76.36.207.383.44.07.7-3.16 2.66-12.64-6.11-14.44-8.47a1.317 1.317 0 0 0-1.65-.38c-5.48 2.82-10.853 2.7-16.12-.36a1.838 1.838 0 0 0-1.91.04c-4.72 2.96-10.8 5.56-16.44 4.12-10.88-2.767-17.173-9.74-18.88-20.92-1.38-9.04 6.93-14.91 15.37-14.47.58.033.64.227.18.58-5.98 4.633-7.483 10.63-4.51 17.99 4.42 10.98 17.49 8.02 21.59-.91 6.53-14.23-10.55-47.48-28.8-41.68-11.91 3.78-14.51 12.99-12.83 24.61.77 5.32 2.77 13.65-5.55 14.31a1.44 1.44 0 0 0-.88.39c-11.14 10.05-10.58 29.44-4.56 41.7.153.307.17.62.05.94-10.62 28.86-14.467 58.5-11.54 88.92 2.33 24.21 7.99 48.2 22.72 68.16 18.15 24.57 64.62 23.32 90.72 15.72 5.847-1.7 10.71-3.227 14.59-4.58 3.63-1.26 15.52 6.22 19.63 7.51 11.39 3.58 54.78 12.52 55.5-7.28.213-5.907.473-11.833.78-17.78a.669.669 0 0 1 .78-.62l13.65 2.2c.367.06.493.267.38.62-4.667 14.18-3.383 27.443 3.85 39.79 10.47 17.87 29.96 34.44 50.83 38.87 9.14 1.94 23.19.26 30.52-4.97.24-.173.463-.153.67.06l9.59 10.02a.742.742 0 0 1 .194.659.738.738 0 0 1-.424.541c-10.88 4.93-21.05 6.05-32.79 7.23-1.88.187-3.09 1.41-3.63 3.67-.067.3-.03.583.11.85 1.693 3.173 3.033 5.347 4.02 6.52 24.82 29.48 63.51 43.92 101.73 36.39 9.21-1.81 20.81-6.87 19.66-17.63-.8-7.45-7.2-13.01-14.11-15.29a.458.458 0 0 1-.301-.366.435.435 0 0 1 .191-.424l16.4-10.91c.313-.207.54-.137.68.21 1.753 4.287 4.293 8.337 7.62 12.15 14.28 16.35 28.4 26.59 50.39 29.34 31.89 4 63.04-7.09 83.89-31.66.22-.26.163-.427-.17-.5a180.745 180.745 0 0 1-46.82-17.36c-2.66-1.43-4.77-3.71-7.22-5.61-9.7-7.57-20.04-22.1-18.15-34.8 2.087-14.06 7.26-28.01 15.52-41.85 9.51-15.95 22.01-10.06 35.22-3.61.34.167.627.103.86-.19 7.72-9.51 18.54-8.93 27.25-1.25 6.26 5.51 8.72 11.97 11 20.07.107.367.34.61.7.73 5.013 1.647 8.31 5 9.89 10.06.08.247.25.383.51.41l6.06.61c.413.04.713-.127.9-.5a55.405 55.405 0 0 1 9.28-13.25c.28-.3.233-.537-.14-.71-25.13-11.11-31.03-35.87-20.99-59.86 3.59-8.58 15.28-17.1 8.01-26.86-4.893-6.573-10.77-12.173-17.63-16.8a.556.556 0 0 1-.247-.44.561.561 0 0 1 .207-.46l13.57-11.42a.533.533 0 0 1 .699.011.542.542 0 0 1 .141.209c2.57 6.71 5.71 13.85 10.19 19.12 7.08 8.34 20.16 16.42 31.22 14.1 13.08-2.75 19.23-18.66 18.88-30.68-.007-.313.133-.407.42-.28l14.43 6.31c.313.14.4.367.26.68-7.54 17.5-20.9 37.81-42.45 34.92-6.75-.91-11.61-1.06-17.1 3.34-19.19 15.34-19.68 43.27 2.35 56.3 5.45 3.23 10.95 2.08 16.03-1.57 5.9-4.233 12.04-8.06 18.42-11.48 7.73-4.15 19.83-8.99 29.49-14.14a.358.358 0 0 1 .52.23l4.58 19.16c.113.467-.067.663-.54.59-23.12-3.47-51.13 15.25-65.2 32.18-3.43 4.13-5.76 9.42-8.53 14.3-.173.307-.44.46-.8.46H661.5c-.333 0-.51.163-.53.49-.567 8.22-4.35 14.407-11.35 18.56ZM186.6 87.75c2.287.613 4.557 1.217 6.81 1.81.313.087.517-.027.61-.34 3.35-11.48-7.68-43-24.4-30.85a.706.706 0 0 0-.286.5.719.719 0 0 0 .186.55c6.44 6.973 9.973 15.257 10.6 24.85.29 4.31 3.7 2.74 6.48 3.48Zm-28.33 22.17c3.06 1.693 5.943 1.487 8.65-.62.327-.253.47-.587.43-1-.58-5.76.253-11.227 2.5-16.4 1.39-3.18 1.26-5.15.55-8.31-2.65-11.81-12.45-27.95-26.71-24.38-1.22.3-1.397.903-.53 1.81 7.78 8.21 14.24 19.22 15.56 30.52.57 4.94.89 11.35-1.22 16.04-.46 1.013-.203 1.793.77 2.34ZM518.26 440c-1.52-3.03-5.46-5.4-8.18-6.08a.903.903 0 0 0-.91.23c-4.21 3.89-1.15 10.94.96 15.11a2020.672 2020.672 0 0 0 13.1 25.33.86.86 0 0 0 .77.48l9.48.24c.427.007.56-.187.4-.58A430.415 430.415 0 0 0 518.26 440Zm32.75 134.55-7.73-11.95a.323.323 0 0 1-.045-.127.314.314 0 0 1 .014-.133.283.283 0 0 1 .181-.18l9.83-3.47a.579.579 0 0 0 .32-.81c-15.7-30.3-31.437-60.557-47.21-90.77-3.16-6.06-5.627-10.16-7.4-12.3-3.12-3.78-17.77-17.37-19.54-4.74-.94 6.62 2.92 12.96 6.39 19.63a21794.649 21794.649 0 0 1 49.59 96.12c.187.36.103.633-.25.82-12.58 6.58-16.82 17.83-17.84 31.52-.027.373.147.56.52.56l138.85.37c.36 0 .58-.173.66-.52 6.15-26.07-27.72-38.4-47.1-39.53-19.05-1.11-45.79 1.92-58.59 15.57-.24.26-.457.24-.65-.06Zm3.58-123.14c-3.59-3.16-14.54-9.64-16.31-.23-.9 4.81 4.04 13.75 5.92 18.47 5.21 13.04-2.25 17.2-13.97 17.39-.473.007-.6.217-.38.63l10.71 20.54c.173.333.443.457.81.37 17.62-4.13 30.72-13.99 26.69-34.21-1.793-8.993-6.283-16.647-13.47-22.96ZM466 599.69c3.72-16.91-9.21-36.5-28.25-29.68a.576.576 0 0 1-.514-.075.555.555 0 0 1-.236-.455v-14.74c0-.427.193-.553.58-.38 4.04 1.83 13.46 3.56 14.59-2.92.753-4.353 1.38-10.19 1.88-17.51.48-7.16 1.97-13.29-5.8-14.82-2.47-.49-5.01.88-7.28 1.89-.48.22-.72.063-.72-.47v-14.8c0-.48.223-.633.67-.46 3.213 1.213 5.74 1.877 7.58 1.99 14.267.84 29.023 1.77 44.27 2.79.813.053 1.033-.28.66-1l-9.99-19.29a.852.852 0 0 0-.79-.49c-4.553-.04-9.1-.05-13.64-.03-2.6.01-10.72 3.08-7.29 6.77a1.01 1.01 0 0 1-.73 1.69l-7.99.07c-.433.007-.637-.207-.61-.64.52-8.99-3.45-22.47-14.25-22.78-13.25-.38-18.27 46.43-19.05 55.92a527.365 527.365 0 0 0-1.14 69.16c.02.4.227.6.62.6l46.63.3c.44 0 .707-.213.8-.64Z"/><path fill="#FFEF9B" d="M649.62 361.05c7-4.153 10.783-10.34 11.35-18.56.02-.327.197-.49.53-.49h11.77c.36 0 .627-.153.8-.46 2.77-4.88 5.1-10.17 8.53-14.3 14.07-16.93 42.08-35.65 65.2-32.18.473.073.653-.123.54-.59l-4.58-19.16a.351.351 0 0 0-.204-.242.361.361 0 0 0-.316.012c-9.66 5.15-21.76 9.99-29.49 14.14a166.547 166.547 0 0 0-18.42 11.48c-5.08 3.65-10.58 4.8-16.03 1.57-22.03-13.03-21.54-40.96-2.35-56.3 5.49-4.4 10.35-4.25 17.1-3.34 21.55 2.89 34.91-17.42 42.45-34.92.14-.313.053-.54-.26-.68l-14.43-6.31c-.287-.127-.427-.033-.42.28.35 12.02-5.8 27.93-18.88 30.68-11.06 2.32-24.14-5.76-31.22-14.1-4.48-5.27-7.62-12.41-10.19-19.12a.534.534 0 0 0-.615-.333.533.533 0 0 0-.225.113l-13.57 11.42a.566.566 0 0 0-.207.46.555.555 0 0 0 .247.44c6.86 4.627 12.737 10.227 17.63 16.8 7.27 9.76-4.42 18.28-8.01 26.86-10.04 23.99-4.14 48.75 20.99 59.86.373.173.42.41.14.71a55.405 55.405 0 0 0-9.28 13.25c-.187.373-.487.54-.9.5l-6.06-.61a.555.555 0 0 1-.51-.41c-1.58-5.06-4.877-8.413-9.89-10.06a1.03 1.03 0 0 1-.7-.73c-2.28-8.1-4.74-14.56-11-20.07-8.71-7.68-19.53-8.26-27.25 1.25-.233.293-.52.357-.86.19-13.21-6.45-25.71-12.34-35.22 3.61-8.26 13.84-13.433 27.79-15.52 41.85-1.89 12.7 8.45 27.23 18.15 34.8 2.45 1.9 4.56 4.18 7.22 5.61a180.745 180.745 0 0 0 46.82 17.36c.333.073.39.24.17.5-20.85 24.57-52 35.66-83.89 31.66-21.99-2.75-36.11-12.99-50.39-29.34-3.327-3.813-5.867-7.863-7.62-12.15-.14-.347-.367-.417-.68-.21l-16.4 10.91a.435.435 0 0 0-.157.183.446.446 0 0 0 .065.465.458.458 0 0 0 .202.142c6.91 2.28 13.31 7.84 14.11 15.29 1.15 10.76-10.45 15.82-19.66 17.63-38.22 7.53-76.91-6.91-101.73-36.39-.987-1.173-2.327-3.347-4.02-6.52a1.208 1.208 0 0 1-.11-.85c.54-2.26 1.75-3.483 3.63-3.67 11.74-1.18 21.91-2.3 32.79-7.23a.753.753 0 0 0 .407-.894.742.742 0 0 0-.177-.306l-9.59-10.02c-.207-.213-.43-.233-.67-.06-7.33 5.23-21.38 6.91-30.52 4.97-20.87-4.43-40.36-21-50.83-38.87-7.233-12.347-8.517-25.61-3.85-39.79.113-.353-.013-.56-.38-.62l-13.65-2.2a.657.657 0 0 0-.528.136.683.683 0 0 0-.178.215.684.684 0 0 0-.074.269 1145.66 1145.66 0 0 0-.78 17.78c-.72 19.8-44.11 10.86-55.5 7.28-4.11-1.29-16-8.77-19.63-7.51-3.88 1.353-8.743 2.88-14.59 4.58-26.1 7.6-72.57 8.85-90.72-15.72-14.73-19.96-20.39-43.95-22.72-68.16-2.927-30.42.92-60.06 11.54-88.92a1.13 1.13 0 0 0-.05-.94c-6.02-12.26-6.58-31.65 4.56-41.7a1.44 1.44 0 0 1 .88-.39c8.32-.66 6.32-8.99 5.55-14.31-1.68-11.62.92-20.83 12.83-24.61 18.25-5.8 35.33 27.45 28.8 41.68-4.1 8.93-17.17 11.89-21.59.91-2.973-7.36-1.47-13.357 4.51-17.99.46-.353.4-.547-.18-.58-8.44-.44-16.75 5.43-15.37 14.47 1.707 11.18 8 18.153 18.88 20.92 5.64 1.44 11.72-1.16 16.44-4.12a1.838 1.838 0 0 1 1.91-.04c5.267 3.06 10.64 3.18 16.12.36a1.317 1.317 0 0 1 1.65.38c1.8 2.36 11.28 11.13 14.44 8.47.313-.26.29-.493-.07-.7-8.36-4.75-16.52-17.29-8.5-25.76 6.93-7.32 18.59 2.63 20.75 9.6 1.407 4.54 1.617 9.54.63 15-2.52 13.93-19.36 8.49-27.7 3.8-.96-.53-2.89-.51-4.01.1-8.87 4.86-24.23 11.07-34.39 9.03-12.03-2.41-22.55-14.31-27.63-24.74a.522.522 0 0 0-.895-.052.522.522 0 0 0-.085.342c1.96 16.03 15.63 28.34 29.89 34.02.225.092.419.248.556.447.137.199.211.433.214.673.54 26.82 26.88 44.43 33.84 69.17 5.87 20.88-3.45 43.71-22.38 54.8-.4.233-.407.473-.02.72l13.8 8.7c.367.233.65.16.85-.22 8.1-15.49 18.26-28.81 19.73-45.09.47-5.15-.8-11.3-1.15-16.94-.99-15.7 6.15-31.7 21.25-37.46 21.92-8.35 48.88-5.06 65.91 12.33 4.6 4.7 6.753 10.31 6.46 16.83-.02.453.163.563.55.33l13.91-8.39c.3-.18.323-.397.07-.65a123.29 123.29 0 0 1-14.97-17.94c-3.07-4.47-4.47-15.33 4.61-13 7.61 1.95 8.85 9.59 10.26 16.16.073.347.247.41.52.19l11.66-9.07c.247-.193.25-.387.01-.58-16.08-13.28-13.5-51.14-7.51-67.8 14.72-40.93 54.22-69.63 97.17-72.43 34.84-2.27 68.29 12.78 86.55 42.98.7 1.15 1.12 2.44 1.51 3.75.113.393.33.46.65.2l10.56-8.43c.347-.28.333-.54-.04-.78-7.113-4.607-10.453-11.037-10.02-19.29.55-10.68 6.87-15.65 15.95-21.92 40.22-27.75 95.81-32.21 137.59-4.98 21.06 13.73 36.92 35.82 41.79 60.8 3.43 17.59-2.78 40.96-15.02 54.34-.287.307-.247.56.12.76l13.79 7.47a.538.538 0 0 0 .469.02.538.538 0 0 0 .301-.36c3.46-15.1 13.07-25.24 27.65-30.46 30.47-10.91 68.01 7.44 71.9 41.11 1.74 15.15-4.49 34.81-19.83 41.79-.433.193-.52.49-.26.89l7.14 10.65c.247.38.513.397.8.05 5.65-6.84 16.01-8.17 23.2-5.14 3.847 1.62 7.837 4.97 11.97 10.05 10.89 13.4 18.61 28.05 19.9 45.66 1.46 19.86-2.32 37.17-14.47 53.03-2.36 3.08.06 7.96 1.12 11.11 6.49 19.21-7.97 31.54-24.71 35.44-10.51 2.45-22.53 2.34-32.87-1.3-.62-.213-.983.003-1.09.65l-1.99 12.18c-.04.247.067.36.32.34 6.05-.48 19.74-.48 24.11 4.29a2.04 2.04 0 0 1 .541 1.515 2.067 2.067 0 0 1-.721 1.445c-2.847 2.427-5.8 4.337-8.86 5.73-22.82 10.45-51.73 13.58-75.34 3.41-1.367-.593-2.763-.863-4.19-.81-22.947.76-45.06-2.873-66.34-10.9-15.03-5.67-31.88-13.73-38.2-29.67-4.89-12.36 6.77-36.57 13.3-47.33 1.867-3.073 4.53-4.007 7.99-2.8a96.865 96.865 0 0 1 12.35 5.3c.4.2.527.513.38.94l-1.28 3.74a1.577 1.577 0 0 1-.871.931 1.556 1.556 0 0 1-1.269-.031 26.509 26.509 0 0 0-10.91-2.63.466.466 0 0 0-.49.389.467.467 0 0 0 .33.531 55.3 55.3 0 0 1 12.27 5.94.327.327 0 0 1 .146.337.336.336 0 0 1-.256.263 53.392 53.392 0 0 0-14.32 5.61.425.425 0 0 0-.177.235c-.03.096-.025.2.015.293a.426.426 0 0 0 .492.252c8.69-2.59 17.09-2.78 22.7 5.2 2.05 2.92 2.02 6.77 2.69 10.33.06.347.183.37.37.07 2.71-4.38 2.78-8.15 4.27-12.48.107-.313.123-.63.05-.95-.94-3.993-1.873-8-2.8-12.02-1.43-6.16 1.01-17.45 10.07-14.45 6.7 2.22 10.88 12.94 11.08 19.68a2.568 2.568 0 0 0 1.55 2.29c13.32 5.8 12.95 26.54 8.5 37.61a.28.28 0 0 0 .4.34ZM358.81 143.11c.473.047.7.31.68.79-.82 18.58 1.927 36.347 8.24 53.3 5.95 15.96 21.79 38.03 41.77 29.71 26.37-10.97 28.92-58.85 26.05-81.85a.98.98 0 0 1 .289-.821 1.011 1.011 0 0 1 .831-.279 49.98 49.98 0 0 1 15.45 4.69c.42.207.63.077.63-.39v-16.77c0-.42-.197-.563-.59-.43-6.473 2.093-11.61 3.173-15.41 3.24-7.86.127-26.8-.187-56.82-.94-12.02-.3-25.143-1.47-39.37-3.51-.313-.047-.473.09-.48.41l-.31 14.26c-.013.507.227.687.72.54a46.64 46.64 0 0 1 18.32-1.95Zm134.92 1.06a.293.293 0 0 1 .25.34c-4.22 23.49-.84 56.04 16.38 74.32 12.32 13.07 28.6 15.41 42.74 2.71 19.87-17.84 23.99-52.01 19.87-76.93a.53.53 0 0 1 .108-.41.507.507 0 0 1 .372-.19c6.7-.34 12.673 1.517 17.92 5.57a.396.396 0 0 0 .2.081.398.398 0 0 0 .212-.038.4.4 0 0 0 .16-.145.403.403 0 0 0 .058-.208v-18.55c0-.447-.213-.597-.64-.45-3.73 1.25-7.32 2.75-11.13 3.17-6.22.687-12.457.97-18.71.85-26.56-.53-52.04-.05-67.52-.53-4.087-.127-9.18-1.307-15.28-3.54-.48-.173-.72-.007-.72.5v16.03c0 .547.233.68.7.4 4.607-2.767 9.617-3.76 15.03-2.98Zm-44.67 76.6c1.87 7.97 9.02 15.06 17.83 12.2 9.58-3.11 17.13-11.7 21.97-19.82.18-.3.133-.56-.14-.78l-11.15-8.95c-.207-.167-.34-.12-.4.14a42.595 42.595 0 0 1-5.6 13.5c-1.79 2.82-8.8 11.1-11.86 4.32-4.99-11.09-.09-24.52 8.89-31.12.347-.253.34-.5-.02-.74l-11.22-7.49c-.373-.247-.667-.173-.88.22-6.03 11.14-10.34 26.05-7.42 38.52ZM128.4 245.08c2.95 7.99 13.04 5.39 10.17-2.38-3.66-9.933-5.04-20.207-4.14-30.82.24-2.74 2.18-4.9 1.78-7.57-.54-3.58-4.15-5.58-7.43-3.68-9.88 5.75-3.68 35.52-.38 44.45Zm243.52 19.11c25.06 65.74 122.38 79.06 167.02 26.25 9.34-11.047 14.94-24.083 16.8-39.11.59-4.73-.98-8.51-6.24-8.34-58.667 1.967-117.333 3.97-176 6.01-9.18.32-3.06 11.3-1.58 15.19ZM183.43 285.8c13.66 17.1 41 21.54 59.76 10.9 8.29-4.71 3.76-14.89-3.75-9.96-13.32 8.74-31.04 6.07-43.36-3.06-2.44-1.8-6.97-9.05-11.58-6.93-3.99 1.83-3.5 6.01-1.07 9.05Z"/><path fill="#FFEF9B" d="M186.6 87.75c-2.78-.74-6.19.83-6.48-3.48-.627-9.593-4.16-17.877-10.6-24.85a.716.716 0 0 1-.097-.832.706.706 0 0 1 .197-.218c16.72-12.15 27.75 19.37 24.4 30.85-.093.313-.297.427-.61.34a1562.04 1562.04 0 0 1-6.81-1.81Zm-28.33 22.17c-.973-.547-1.23-1.327-.77-2.34 2.11-4.69 1.79-11.1 1.22-16.04-1.32-11.3-7.78-22.31-15.56-30.52-.867-.907-.69-1.51.53-1.81 14.26-3.57 24.06 12.57 26.71 24.38.71 3.16.84 5.13-.55 8.31-2.247 5.173-3.08 10.64-2.5 16.4.04.413-.103.747-.43 1-2.707 2.107-5.59 2.313-8.65.62Z"/><path fill="#E30002" d="M358.81 143.11a46.64 46.64 0 0 0-18.32 1.95c-.493.147-.733-.033-.72-.54l.31-14.26c.007-.32.167-.457.48-.41 14.227 2.04 27.35 3.21 39.37 3.51 30.02.753 48.96 1.067 56.82.94 3.8-.067 8.937-1.147 15.41-3.24.393-.133.59.01.59.43v16.77c0 .467-.21.597-.63.39a49.98 49.98 0 0 0-15.45-4.69 1.011 1.011 0 0 0-1.072.657.98.98 0 0 0-.048.443c2.87 23 .32 70.88-26.05 81.85-19.98 8.32-35.82-13.75-41.77-29.71-6.313-16.953-9.06-34.72-8.24-53.3.02-.48-.207-.743-.68-.79Zm33.9 23.44c20.78 11.91 9.14 33.71-9.99 36.32a.832.832 0 0 0-.716.827.836.836 0 0 0 .096.383c4.88 9.36 16.86 20.72 27.65 11.42 17.33-14.92 18.98-50.28 15.86-70.97-.053-.353-.26-.53-.62-.53H414.2c-.36 0-.59.173-.69.52-2.61 9.26-11.59 18.74-20.71 21.31a.386.386 0 0 0-.29.329.392.392 0 0 0 .2.391Zm101.02-22.38c-5.413-.78-10.423.213-15.03 2.98-.467.28-.7.147-.7-.4v-16.03c0-.507.24-.673.72-.5 6.1 2.233 11.193 3.413 15.28 3.54 15.48.48 40.96 0 67.52.53 6.253.12 12.49-.163 18.71-.85 3.81-.42 7.4-1.92 11.13-3.17.427-.147.64.003.64.45v18.55a.394.394 0 0 1-.218.353.396.396 0 0 1-.212.038.396.396 0 0 1-.2-.081c-5.247-4.053-11.22-5.91-17.92-5.57a.508.508 0 0 0-.469.383.53.53 0 0 0-.011.217c4.12 24.92 0 59.09-19.87 76.93-14.14 12.7-30.42 10.36-42.74-2.71-17.22-18.28-20.6-50.83-16.38-74.32a.288.288 0 0 0-.139-.302.293.293 0 0 0-.111-.038Zm32.06 21.4c9.26 7.19 13.63 18.91 6.66 29.11-4.52 6.61-11.17 9.58-18.9 11.45-.3.073-.37.243-.21.51 14.6 24.3 36.18 12.04 44.52-8.58 6.94-17.16 8.657-35.03 5.15-53.61-.053-.3-.233-.45-.54-.45h-13.92c-.3 0-.503.14-.61.42-3.18 8.33-11.78 20.3-21.85 20.29-.94 0-1.04.287-.3.86Z"/><path fill="#fff" d="M392.71 166.55a.392.392 0 0 1-.106-.6.386.386 0 0 1 .196-.12c9.12-2.57 18.1-12.05 20.71-21.31.1-.347.33-.52.69-.52h10.79c.36 0 .567.177.62.53 3.12 20.69 1.47 56.05-15.86 70.97-10.79 9.3-22.77-2.06-27.65-11.42a.836.836 0 0 1-.005-.766.832.832 0 0 1 .625-.444c19.13-2.61 30.77-24.41 9.99-36.32Zm133.08-.98c-.74-.573-.64-.86.3-.86 10.07.01 18.67-11.96 21.85-20.29.107-.28.31-.42.61-.42h13.92c.307 0 .487.15.54.45 3.507 18.58 1.79 36.45-5.15 53.61-8.34 20.62-29.92 32.88-44.52 8.58-.16-.267-.09-.437.21-.51 7.73-1.87 14.38-4.84 18.9-11.45 6.97-10.2 2.6-21.92-6.66-29.11Z"/><path fill="#E30002" d="M466.89 232.97c-8.81 2.86-15.96-4.23-17.83-12.2-2.92-12.47 1.39-27.38 7.42-38.52.213-.393.507-.467.88-.22l11.22 7.49c.36.24.367.487.02.74-8.98 6.6-13.88 20.03-8.89 31.12 3.06 6.78 10.07-1.5 11.86-4.32a42.595 42.595 0 0 0 5.6-13.5c.06-.26.193-.307.4-.14l11.15 8.95c.273.22.32.48.14.78-4.84 8.12-12.39 16.71-21.97 19.82Zm-328.32 9.73c2.87 7.77-7.22 10.37-10.17 2.38-3.3-8.93-9.5-38.7.38-44.45 3.28-1.9 6.89.1 7.43 3.68.4 2.67-1.54 4.83-1.78 7.57-.9 10.613.48 20.887 4.14 30.82Zm400.37 47.74c-44.64 52.81-141.96 39.49-167.02-26.25-1.48-3.89-7.6-14.87 1.58-15.19 58.667-2.04 117.333-4.043 176-6.01 5.26-.17 6.83 3.61 6.24 8.34-1.86 15.027-7.46 28.063-16.8 39.11Zm-6.45-36.77-1.39 14.86c-.027.313.113.47.42.47h8.75c.433 0 .73-.197.89-.59a79.383 79.383 0 0 0 4.48-14.88c.08-.393-.083-.59-.49-.59l-12.07.19c-.36.007-.557.187-.59.54Zm-29.86.49a.312.312 0 0 0-.31.3l-.37 15.32a.31.31 0 0 0 .196.298.31.31 0 0 0 .124.022l18.62-.52a.31.31 0 0 0 .3-.28l1.34-15.08a.326.326 0 0 0-.014-.128.319.319 0 0 0-.065-.111.326.326 0 0 0-.105-.075.323.323 0 0 0-.126-.026l-19.59.28Zm-41.84 1.64a.628.628 0 0 0-.61.64l.19 14.08a.618.618 0 0 0 .195.446.635.635 0 0 0 .455.174l30.29-.83a.631.631 0 0 0 .61-.61l.44-14.26a.62.62 0 0 0-.184-.466.62.62 0 0 0-.466-.184l-30.92 1.01Zm-42.08 16.08a.313.313 0 0 0 .31.26l31.4-.62a.3.3 0 0 0 .216-.098.298.298 0 0 0 .064-.103.301.301 0 0 0 .02-.119l-.3-14.79a.311.311 0 0 0-.094-.223.307.307 0 0 0-.226-.087l-33.11 1.23a.304.304 0 0 0-.221.112.316.316 0 0 0-.069.238l2.01 14.2Zm-31.14 1.14 20.94-.35c.273-.007.39-.143.35-.41l-2.01-14.04c-.053-.373-.27-.553-.65-.54l-25.63.84a.377.377 0 0 0-.365.325.37.37 0 0 0 .015.175 70.085 70.085 0 0 0 6.44 13.5c.213.34.517.507.91.5ZM530.4 279a.319.319 0 0 0-.32.3l-.38 6.04a.321.321 0 0 0 .412.342.322.322 0 0 0 .168-.122l4.72-6.04a.327.327 0 0 0 .069-.166.32.32 0 0 0-.329-.354h-4.34Zm-28.68 1.29-.58 25.36c-.013.367.15.477.49.33a90.458 90.458 0 0 0 16.47-9.32 1.82 1.82 0 0 0 .75-1.3l1.41-15.42a.554.554 0 0 0-.149-.433.553.553 0 0 0-.421-.177l-17.48.47c-.32.013-.483.177-.49.49Zm-10.69 28.92 1.02-28.53c.02-.427-.187-.637-.62-.63l-29.94.87c-.373.013-.56.207-.56.58l.17 30.75a.974.974 0 0 0 .94.96c9.667.3 19.157-.813 28.47-3.34.333-.093.507-.313.52-.66Zm-67.33-4.76a95.694 95.694 0 0 0 27.24 7.87c.4.06.597-.117.59-.53l-.69-30.07c-.013-.413-.223-.613-.63-.6l-29.43.96c-.42.013-.6.227-.54.64l2.98 21.08c.04.307.2.523.48.65Zm-25.2-21.91-3.48.23c-.433.027-.5.193-.2.5l3.39 3.48a83.693 83.693 0 0 0 13.84 11.21c.28.18.397.103.35-.23l-2.02-14.93a.728.728 0 0 0-.74-.62l-11.14.36Z"/><path fill="#fff" d="m531.1 268.53 1.39-14.86c.033-.353.23-.533.59-.54l12.07-.19c.407 0 .57.197.49.59a79.383 79.383 0 0 1-4.48 14.88c-.16.393-.457.59-.89.59h-8.75c-.307 0-.447-.157-.42-.47Zm-28.47-14.37 19.59-.28c.043 0 .086.009.126.026.04.018.075.043.105.075.029.032.051.07.065.111a.326.326 0 0 1 .014.128l-1.34 15.08a.312.312 0 0 1-.3.28l-18.62.52a.31.31 0 0 1-.229-.091.312.312 0 0 1-.07-.105.327.327 0 0 1-.021-.124l.37-15.32a.31.31 0 0 1 .31-.3Zm-41.84 1.64 30.92-1.01a.62.62 0 0 1 .466.184.635.635 0 0 1 .184.466l-.44 14.26a.633.633 0 0 1-.61.61l-30.29.83a.62.62 0 0 1-.455-.174.637.637 0 0 1-.195-.446l-.19-14.08a.63.63 0 0 1 .61-.64Zm-42.08 16.08-2.01-14.2a.304.304 0 0 1 .069-.238.304.304 0 0 1 .221-.112l33.11-1.23a.32.32 0 0 1 .226.087.323.323 0 0 1 .094.223l.3 14.79a.301.301 0 0 1-.02.119.312.312 0 0 1-.28.201l-31.4.62a.313.313 0 0 1-.31-.26Zm-10.2.79-20.94.35c-.393.007-.697-.16-.91-.5a70.085 70.085 0 0 1-6.44-13.5.384.384 0 0 1 .049-.338.377.377 0 0 1 .301-.162l25.63-.84c.38-.013.597.167.65.54l2.01 14.04c.04.267-.077.403-.35.41Z"/><path fill="#E30002" d="M243.19 296.7c-18.76 10.64-46.1 6.2-59.76-10.9-2.43-3.04-2.92-7.22 1.07-9.05 4.61-2.12 9.14 5.13 11.58 6.93 12.32 9.13 30.04 11.8 43.36 3.06 7.51-4.93 12.04 5.25 3.75 9.96Z"/><path fill="#fff" d="M530.4 279h4.34a.321.321 0 0 1 .26.52l-4.72 6.04a.322.322 0 0 1-.376.116.324.324 0 0 1-.204-.336l.38-6.04a.316.316 0 0 1 .101-.213.317.317 0 0 1 .219-.087Zm-29.26 26.65.58-25.36c.007-.313.17-.477.49-.49l17.48-.47a.551.551 0 0 1 .421.177.566.566 0 0 1 .149.433l-1.41 15.42a1.82 1.82 0 0 1-.75 1.3 90.458 90.458 0 0 1-16.47 9.32c-.34.147-.503.037-.49-.33Zm-9.09-24.97-1.02 28.53c-.013.347-.187.567-.52.66a96.673 96.673 0 0 1-28.47 3.34.97.97 0 0 1-.94-.96l-.17-30.75c0-.373.187-.567.56-.58l29.94-.87c.433-.007.64.203.62.63Zm-68.35 23.77a.782.782 0 0 1-.48-.65l-2.98-21.08c-.06-.413.12-.627.54-.64l29.43-.96c.407-.013.617.187.63.6l.69 30.07c.007.413-.19.59-.59.53a95.694 95.694 0 0 1-27.24-7.87Zm-25.49-17.7.29-4.21 11.14-.36a.728.728 0 0 1 .74.62l2.02 14.93c.047.333-.07.41-.35.23a83.693 83.693 0 0 1-13.84-11.21Z"/><path fill="#FFEF9B" d="m398.5 282.54-.29 4.21-3.39-3.48c-.3-.307-.233-.473.2-.5l3.48-.23Zm153.16 292.07c12.8-13.65 39.54-16.68 58.59-15.57 19.38 1.13 53.25 13.46 47.1 39.53-.08.347-.3.52-.66.52l-138.85-.37c-.373 0-.547-.187-.52-.56 1.02-13.69 5.26-24.94 17.84-31.52.353-.187.437-.46.25-.82a21794.649 21794.649 0 0 0-49.59-96.12c-3.47-6.67-7.33-13.01-6.39-19.63 1.77-12.63 16.42.96 19.54 4.74 1.773 2.14 4.24 6.24 7.4 12.3 15.773 30.213 31.51 60.47 47.21 90.77a.572.572 0 0 1 .023.477.571.571 0 0 1-.343.333l-9.83 3.47a.283.283 0 0 0-.181.18.314.314 0 0 0-.014.133.323.323 0 0 0 .045.127l7.73 11.95c.193.3.41.32.65.06Z"/><path fill="#FFEF9B" d="M554.59 451.41c7.187 6.313 11.677 13.967 13.47 22.96 4.03 20.22-9.07 30.08-26.69 34.21-.367.087-.637-.037-.81-.37l-10.71-20.54c-.22-.413-.093-.623.38-.63 11.72-.19 19.18-4.35 13.97-17.39-1.88-4.72-6.82-13.66-5.92-18.47 1.77-9.41 12.72-2.93 16.31.23Zm-116.84 118.6c19.04-6.82 31.97 12.77 28.25 29.68-.093.427-.36.64-.8.64l-46.63-.3c-.393 0-.6-.2-.62-.6a527.365 527.365 0 0 1 1.14-69.16c.78-9.49 5.8-56.3 19.05-55.92 10.8.31 14.77 13.79 14.25 22.78-.027.433.177.647.61.64l7.99-.07a1.008 1.008 0 0 0 .98-1.176 1.01 1.01 0 0 0-.25-.514c-3.43-3.69 4.69-6.76 7.29-6.77 4.54-.02 9.087-.01 13.64.03.36.007.623.17.79.49l9.99 19.29c.373.72.153 1.053-.66 1a5556.52 5556.52 0 0 0-44.27-2.79c-1.84-.113-4.367-.777-7.58-1.99-.447-.173-.67-.02-.67.46v14.8c0 .533.24.69.72.47 2.27-1.01 4.81-2.38 7.28-1.89 7.77 1.53 6.28 7.66 5.8 14.82-.5 7.32-1.127 13.157-1.88 17.51-1.13 6.48-10.55 4.75-14.59 2.92-.387-.173-.58-.047-.58.38v14.74a.556.556 0 0 0 .483.554c.09.013.181.005.267-.024Z"/></svg>