<svg xmlns="http://www.w3.org/2000/svg" width="900" height="646" fill="none"><g clip-path="url(#a)"><path stroke="#E30002" stroke-width="2" d="M707.01 311.69c-3.3 2.18-6.573 4.257-9.82 6.23-20.77 12.63-52.95 21.07-76.69 12.31-10.78-3.97-18.46-16.14-29.93-17.42-.373-.04-.497.113-.37.46 4.02 10.97-6.94 18.98-16.47 20.73-1.88.34-4.77.397-8.67.17-.34-.02-.63.087-.87.32a108.012 108.012 0 0 0-17.14 21.36c-1.4 2.28-4.09 10.11.21 11.15 4.6 1.11 8.04-2.2 10.63-5.55.287-.38.52-.35.7.09l.7 1.71"/><path stroke="#E30002" stroke-width="2" d="M559.96 365c1.37 4.43 6.16 8.78 10.05 3.5.493-.667.48-1.323-.04-1.97-5.58-7.04-5.82-16.88 4.1-20.25.327-.107.477-.333.45-.68-.58-8.23 4.25-15.44 13.38-13.47 7.18 1.56 12.55 8.69 14.87 15.39.127.36.357.447.69.26l1.94-1.07c.32-.18.66-.213 1.02-.1 3.093.947 5.787 1.493 8.08 1.64 7.86.5 16.52 1.45 23.69 1.24 17.7-.51 32.08-5.13 50.04-11.54 6.08-2.173 11.087-4.587 15.02-7.24M415.54 88.75l17.17 89m0 0 9.41 49.83a.47.47 0 0 0 .225.322.481.481 0 0 0 .192.065.481.481 0 0 0 .203-.017c44.01-13.36 90.65-24.15 136.98-19.96 8.947.813 17.4 3.107 25.36 6.88a.381.381 0 0 0 .191.038.384.384 0 0 0 .32-.2.385.385 0 0 0 .049-.188l.57-54.02m0 0c.88-27.29 1.13-54.61 1.42-81.91m0 0c.56-17.26.627-31.39.2-42.39-.59-15.52-10.54-18.77-24.28-22.01-16.89-3.96-35.23-4.46-52.48-3.78-45.45 1.8-91.03 10.81-134.59 23.62-4.44 1.307-7.51 2.747-9.21 4.32-7.15 6.63-3.52 16.39-.09 25.28.113.293.31.367.59.22a102.116 102.116 0 0 0 19.55-13.61.41.41 0 0 1 .415-.086.433.433 0 0 1 .285.326l7.52 38.27"/><path stroke="#FFEF9B" stroke-width="2" d="M607.63 78.59c-22.14-8.8-47.33-9.67-71.13-8.48a582.652 582.652 0 0 0-116 17.65c-2.407.62-4.06.95-4.96.99m190.67 71.75c-6.18-1.02-12.37-1.99-18.57-2.91-52.15-7.73-106.21.71-154.93 20.16"/><path stroke="#E30002" stroke-width="2" d="M176.75 49.46c-29.38 5.38-62.7 16.79-88.45 25.93-7.83 2.78-13.69 7.3-10.87 16.43 6.18 20.007 14.037 44.413 23.57 73.22m0 0 3.86 12.28m0 0 3.68 11.43m0 0 5.92 18.25m0 0 3.54 11.04m0 0 5.21 16.46m0 0 3.58 11m0 0c2.09 10.4 9.88 10.43 18.85 8.26 13.02-3.16 26.003-6.47 38.95-9.93 30.24-8.08 61.31-12.69 92.65-9.33 6.58.71 7.44-5.63 6.01-10.54"/><path stroke="#E30002" stroke-width="2" d="M283.25 223.96c-1.29-14.13-6.81-31.5-10.04-42.71m0 0-3.5-13.25m0 0-4.21-15.54m0 0-2.25-8.5m0 0-5.04-19.21m0 0-4.71-16.63m0 0-3.84-14.75m0 0c-1.053-5.1-2.377-9.777-3.97-14.03m0 0-3.72-15.37m0 0c-15.89-22.44-41.32-19.36-65.22-14.51"/><path stroke="#FFEF9B" stroke-width="2" d="m241.97 63.97-1.2.54a1.25 1.25 0 0 1-.88.06c-18.96-5.5-38.71-4.31-57.92.13a.749.749 0 0 1-.88-.52l-4.34-14.72m68.94 29.88c-10.153-4.153-19.633-6.35-28.44-6.59a115.97 115.97 0 0 0-32.13 3.57.569.569 0 0 0-.41.7l4.18 15.01c.1.353.323.487.67.4 20.62-4.87 39.86-5.2 60.1.94m3.84 14.75c-19.24-9.09-40.48-9.23-60.79-4.22-.3.073-.407.26-.32.56l5.54 19.71c.043.151.142.28.277.359.134.078.293.1.443.061 19.82-5.173 39.673-5.12 59.56.16m5.04 19.21-.51.42c-.267.213-.487.173-.66-.12a8.16 8.16 0 0 1-1.07-3.98 1.564 1.564 0 0 0-.262-.854 1.588 1.588 0 0 0-.688-.576c-28.33-12.32-56.18-3.76-85.64 4.04-.913.247-1.637.103-2.17-.43"/><path stroke="#E30002" stroke-width="2" d="m172.25 142.46-1.39-4.17c-.1-.307-.023-.56.23-.76l2.87-2.27c.433-.34.373-.51-.18-.51h-3.69c-.287 0-.477-.137-.57-.41l-1.13-3.18c-.26-.72-.513-.717-.76.01l-1.13 3.31c-.12.347-.363.52-.73.52h-3.01a.38.38 0 0 0-.21.7l2.31 1.54c.38.247.493.583.34 1.01l-1.51 4.16c-.213.593-.067.697.44.31l3.57-2.73c.267-.2.533-.203.8-.01l3.5 2.56"/><path stroke="#FFEF9B" stroke-width="2" d="M172 142.54c.51.61.27 1.06-.43 1.25a267.637 267.637 0 0 0-18.53 5.71"/><path stroke="#E30002" stroke-width="2" d="m153.04 149.5-1.52-3.76c-.147-.367-.06-.667.26-.9l2.66-1.97c.64-.473.563-.693-.23-.66l-3.38.15c-.34.013-.573-.137-.7-.45l-1.29-3.24c-.247-.62-.477-.613-.69.02l-1.1 3.27c-.12.36-.37.54-.75.54h-2.87c-.7 0-.777.217-.23.65l2.24 1.77c.3.24.387.537.26.89l-1.45 4.12a.311.311 0 0 0 .302.425.312.312 0 0 0 .188-.075l3.26-2.59c.32-.253.64-.257.96-.01l3.04 2.28"/><path stroke="#FFEF9B" stroke-width="2" d="M152 149.96c-1.193.133-3.027.57-5.5 1.31a8260.517 8260.517 0 0 0-33.06 9.93c-.593.18-1.407.293-2.44.34"/><path stroke="#E30002" stroke-width="2" d="M111 161.54a4.241 4.241 0 0 1-.72-1.66c-.073-.373.04-.673.34-.9l2.6-1.94c.48-.36.42-.54-.18-.54h-3.41c-.38 0-.637-.177-.77-.53l-1.11-2.98a.41.41 0 0 0-.78.01l-.98 2.9c-.107.313-.323.487-.65.52l-3.1.32c-.733.08-.793.323-.18.73l2.15 1.41c.287.187.38.443.28.77l-1.49 4.81"/><path stroke="#FFEF9B" stroke-width="2" d="m103 164.46-2 .58m164.5-12.58c-.68.13-.96.35-1.66.15-17.547-4.873-34.83-5.41-51.85-1.61-30.307 6.767-66.017 15.54-107.13 26.32"/><path stroke="#E30002" stroke-width="2" d="m103 164.46 3.77-2.67a1.056 1.056 0 0 1 1.27.03l3.16 2.51c.547.433.72.317.52-.35l-.72-2.44m41-11.58.54.19c.253.087.4-.003.44-.27l.06-.38m19.21-7.04c-.08.027-.163.053-.25.08"/><path stroke="#FFEF9B" stroke-width="2" d="M269.71 168c-13.29-6.1-26.54-8.25-41.06-7.34-6.047.38-10.433.9-13.16 1.56-35.74 8.63-71.18 17.25-106.95 26.53m164.67-7.5-.85.15a2.09 2.09 0 0 1-.93-.05c-17.08-4.91-35.4-4.33-52.56-.3-34.98 8.21-70.03 16.41-104.41 25.95m168.79 16.96c-17.69-7.92-37.66-7.81-56.22-3.32-33.51 8.1-67.05 15.95-100.24 24.86m-3.58-11c32.96-9.95 66.49-17.1 99.79-25.26 17.5-4.29 36.61-5.04 54.13-.29a.534.534 0 0 0 .611-.245.553.553 0 0 0 .07-.345.55.55 0 0 0-.151-.32c-3.04-3.107-3.35-6.483-.93-10.13.167-.254.229-.563.173-.862a1.196 1.196 0 0 0-.473-.748c-.907-.66-1.983-1.22-3.23-1.68-15.73-5.86-34.42-6.49-50.63-2.52-26.21 6.42-52.7 12.17-78.72 19.26a1074.069 1074.069 0 0 1-25.85 6.68"/><path stroke="#E30002" stroke-width="2" d="m617.54 116.5-1.5 104.75m0 0c-.23 3.68.16 8.4-1.05 11.64-2.62 6.98-13.21 13.55-20.06 16.53-9.94 4.33-25.95 6.15-38.21 11.84-4.33 2.01-14.14 9.42-5.77 13.31 9.62 4.48 21.33 5.4 31.8 5.33 27.29-.21 55.05-3.72 82.26-6.13 6.913-.613 10.933-4.4 12.06-11.36.06-.4.283-.537.67-.41l11.16 3.6c.38.12.477.357.29.71-2.413 4.46-4.143 9.093-5.19 13.9m0 0-7.83 36.02a.223.223 0 0 0 .072.21.223.223 0 0 0 .218.04 74.977 74.977 0 0 0 22.77-13.32c.331-.279.559-.663.65-1.09l4.58-23.07m0 0 12.75-64.25m0 0L735.46 123m0 0c3.173-14.7 6.05-29.46 8.63-44.28 1.22-6.97 3.71-14.98-3.76-19.6-3.827-2.36-7.52-3.223-11.08-2.59-35.65 6.33-74.59 12.93-110.61 6.19-.387-.073-.58.087-.58.48l-.52 53.3"/><path stroke="#FFEF9B" stroke-width="2" d="m735.46 123-7.71-.04"/><path stroke="#E30002" stroke-width="2" d="M727.75 122.96c-.46-11.95-5.21-33.16-21.38-30.34-14.07 2.45-22.44 22.48-25.41 34.38"/><path stroke="#FFEF9B" stroke-width="2" d="m680.96 127-9.92-1"/><path stroke="#E30002" stroke-width="2" d="M671.04 126c-.46-10.49-4.41-35.62-19.55-35.18-12.83.38-19.8 18.98-22.49 28.97"/><path stroke="#FFEF9B" stroke-width="2" d="m629 119.79-11.46-3.29"/><path stroke="#E30002" stroke-width="2" d="M671.04 126c.16 12.44-1.62 24.56-5.34 36.36-.1.333-.02.613.24.84l4.53 4c.253.22.26.447.02.68l-8.12 7.74c-.307.293-.54.247-.7-.14-4.14-10.013-11.363-13.117-21.67-9.31-3.587 1.32-5.943 4.13-7.07 8.43-.12.467-.37.553-.75.26l-10.32-7.99c-.353-.273-.317-.473.11-.6 2.053-.62 3.743-1.827 5.07-3.62.213-.28.293-.593.24-.94-2.18-14.053-1.607-28.027 1.72-41.92m98.75 3.17c-.127 16.587-4.67 31.76-13.63 45.52-.187.293-.19.587-.01.88a10.95 10.95 0 0 0 4.49 4.11c.44.227.45.47.03.73l-12.14 7.4c-.607.367-.793.213-.56-.46l.79-2.29a1.9 1.9 0 0 0 .04-1.09c-2.27-8.83-13.33-11.4-20.18-6.57-2.05 1.45-3.39 4.2-4.64 6.46-.167.3-.367.32-.6.06l-8.19-9.15a.27.27 0 0 1-.052-.099.258.258 0 0 1 .027-.213.254.254 0 0 1 .075-.078l7.08-4.81c.38-.26.503-.61.37-1.05-3.27-10.91-2.24-24.37.31-35.31"/><path stroke="#FFEF9B" stroke-width="2" d="m717.21 214.75-9.9 4.46a.52.52 0 0 0-.32.47c-.007.093-.003.187.01.28"/><path stroke="#E30002" stroke-width="2" d="M707 219.96c-6.7.88-11.34-12.63-2.63-15.14a.36.36 0 0 0 .247-.258.332.332 0 0 0-.107-.332l-8.48-7.51c-.22-.2-.423-.18-.61.06-3.407 4.433-5.473 9.413-6.2 14.94-.233 1.787-1.033 3.237-2.4 4.35-13.69 11.17-32.01 9.96-44.04-3a1.573 1.573 0 0 1-.41-.86c-.87-5.67-4.11-8.46-6.93-13.04-.233-.38-.517-.423-.85-.13l-6.58 5.73a.441.441 0 0 0-.158.38.453.453 0 0 0 .218.35c7.59 4.51 7.2 13.95-1.54 16.35-.327.093-.5.31-.52.65l-.05 1"/><path stroke="#FFEF9B" stroke-width="2" d="M625.96 223.5a48.167 48.167 0 0 1-9.92-2.25M704.46 279c-6.36.193-12.7.673-19.02 1.44-.34.04-.82-.037-1.44-.23"/><path stroke="#E30002" stroke-width="2" d="m707 219.96.38.23c.313.2.36.45.14.75l-6.46 8.9c-.227.313-.477.333-.75.06l-6.38-6.37c-.273-.273-.553-.283-.84-.03-15.72 13.39-36.52 13.4-52.67 1.02-.3-.227-.587-.21-.86.05a22.133 22.133 0 0 1-8.68 5.03c-.34.107-.64.287-.9.54l-1.3 1.3c-.32.32-.537.263-.65-.17l-2.07-7.77M264.21 106.25l4.33 16m0 0 4.78 17.6m0 0 3.67 13.51m0 0 4.48 16.72m0 0 3.57 13.92m0 0 4.75 17.5m0 0 3.69 13.64m0 0 5.81 21.86m0 0 4.25 15.75m0 0c1.36 8.12-.07 15.69-4.29 22.71m0 0-10.79 16.79m0 0a119.236 119.236 0 0 0-12.17 18.5m0 0c-2.88 5.1-2.497 9.04 1.15 11.82 17.57 13.4 105.92-27.37 126.95-36.08 6.79-2.81 10.22-6.16 7.57-13.74"/><path stroke="#E30002" stroke-width="2" d="m411.96 272.75-.84-1.82c-.153-.347-.04-.537.34-.57l13.54-1.18c.38-.033.513.13.4.49-.707 2.327-.84 4.603-.4 6.83 4.13 20.75 11.04 53.05 17.03 85.13a69178.878 69178.878 0 0 1 39.8 215.06c1.22 6.66 2.73 13.51 11.5 12.56.427-.047.583.14.47.56l-3.38 11.93c-.087.307-.267.38-.54.22-2-1.18-3.81-2.38-6.02-3.14-37.5-13.04-99.29-15.09-109.15 36.82-.087.46.103.687.57.68l133.09-1.45a.63.63 0 0 0 .61-.75l-56.74-297.14c-.073-.407.067-.503.42-.29a131.295 131.295 0 0 0 32.02 14.17c17.86 5.21 31.14 8.29 48.63 6.81a.79.79 0 0 0 .68-.46c5.41-10.92 14.82-24.89 25.72-30.9 5.66-3.11 11.47-1.72 17.46-2.93 3.98-.81 6-3.66 2.79-7.16a1.907 1.907 0 0 0-1.5-.62c-8.17.29-16.97.51-24.34 3.23-10.26 3.79-23.57 13.16-26.93 24.43a1.006 1.006 0 0 1-1.01.73c-25.88-.9-48.35-8.67-70.23-22.19-2.59-1.6-6.68-3.93-7.31-7.13-4.64-23.4-9.34-46.79-14.1-70.17m0 0-2.58-13.75m0 0L428.71 214m0 0-2.75-14m0 0-2.92-15.75m0 0-2.83-15.5m0 0-3.5-17.5m0 0-2.96-15.04m0 0-2.62-14.33m0 0-2.42-12.63m0 0-3.81-19.6m0 0c-.347-4.287-1.493-8.42-3.44-12.4m0 0c-3.75-5.12-8.23-3.83-13.53-1.31a2065.845 2065.845 0 0 0-11.57 5.57c-32.93 15.99-77.88 29.45-113.83 16.9-.367-.127-.5-.003-.4.37l2.08 7.47"/><path stroke="#FFEF9B" stroke-width="2" d="M401.46 77.25C378.61 92.64 353.8 101.56 326 107c-.327.06-.653.057-.98-.01-.847-.193-1.34.143-1.48 1.01"/><path stroke="#E30002" stroke-width="2" d="m323.54 108-2.54.46"/><path stroke="#FFEF9B" stroke-width="2" d="M321 108.46a2.23 2.23 0 0 0-1.5-.2 168.07 168.07 0 0 1-33.75 3.15c-8.34-.07-14.64-.53-20.39-5.77-.273-.253-.553-.26-.84-.02-.253.207-.357.417-.31.63"/><path stroke="#E30002" stroke-width="2" d="M321 108.46c-6.727 2.873-11.073 7.887-13.04 15.04"/><path stroke="#FFEF9B" stroke-width="2" d="M307.96 123.5c-1.953-.28-3.44-.363-4.46-.25a123.85 123.85 0 0 1-34.96-1m136.36-32.6-17.65 10.89"/><path stroke="#E30002" stroke-width="2" d="M387.25 100.54c-13.733-8.1-22.887-4.38-27.46 11.16"/><path stroke="#FFEF9B" stroke-width="2" d="m359.79 111.7-19 5.05"/><path stroke="#E30002" stroke-width="2" d="M340.79 116.75c-4.7-5.18-10.11-8.91-17.25-8.75m17.25 8.75a65.725 65.725 0 0 1 9.75 17m0 0 3.96 12.54m0 0a105.233 105.233 0 0 1 2.28 18.15m0 0-.56 12.2m0 0c-1.59 9.04-4.48 17.73-13.22 22.32m0 0-5.5 1.08m0 0c-9.75-.81-16.17-8.09-21-15.83m0 0-5.75-12.5m0 0a165.432 165.432 0 0 1-4.54-17.71m0 0-1-12.25m0 0a73.795 73.795 0 0 1 2.75-18.25"/><path stroke="#FFEF9B" stroke-width="2" d="M305.21 141.75a95.682 95.682 0 0 1-31.89-1.9m84.14-7.85-6.92 1.75"/><path stroke="#E30002" stroke-width="2" d="m398.04 115.5 4.25 11.25m0 0a117.14 117.14 0 0 1 3.75 16.75m0 0 .75 14m0 0c-.133 8.447-2.207 16.38-6.22 23.8m0 0c-3.96 5.32-9.207 7.61-15.74 6.87m0 0c-7.57-3.05-11.56-7.68-16.08-14.46m0 0-5.25-11m0 0a113.797 113.797 0 0 1-4.79-18.71m0 0-1.25-12m0 0c-.22-7.04.557-13.807 2.33-20.3"/><path stroke="#FFEF9B" stroke-width="2" d="M408.71 109.25a54.022 54.022 0 0 1-10.67 6.25"/><path stroke="#E30002" stroke-width="2" d="M398.04 115.5a53.093 53.093 0 0 0-10.79-14.96"/><path stroke="#FFEF9B" stroke-width="2" d="M368.75 173.71c-3.973 1.687-8.15 2.663-12.53 2.93m7.28-13.93c-2.407.027-4.647.603-6.72 1.73m66.26 19.81c-30.92 18.58-68.53 28.19-104.21 31.07-3.953.32-8.177.417-12.67.29-4.22-.113-8.447-.27-12.68-.47m-3.69-13.64c14.64 3.15 31.41 1.65 45.67-.64.7-.11 1.38-.53 2.04-.82m5.5-1.08c.5.12.987.14 1.46.06a234.51 234.51 0 0 0 40.37-10.85m-74.08-16.46-.85.39a2.788 2.788 0 0 1-.93.24 86.045 86.045 0 0 1-27.5-2.26M358.71 144l-4.21 2.29m-38 37.92a118.104 118.104 0 0 1-31.46-.21m21.17-30c-9.74.873-19.48.66-29.22-.64m139.72-2.11a26.007 26.007 0 0 1-9.92 6.25m6.96-21.29c-2 3.04-4.57 5.47-7.71 7.29m5.09-21.62-8.84 4.87m17.92 42c-5.553 5.767-12.1 9.95-19.64 12.55m25.39 18.7c-7.97 7.41-18.01 11.97-28.07 15.82a295.463 295.463 0 0 1-48.54 13.99"/><path stroke="#E30002" stroke-width="2" d="M349.35 229.81c-.153-1.713.183-3.197 1.01-4.45.42-.64.263-.867-.47-.68l-12.18 3c-.513.127-.647.423-.4.89l1.4 2.68"/><path stroke="#FFEF9B" stroke-width="2" d="M338.71 231.25c-.59.53-.89.94-1.73 1.1a323.66 323.66 0 0 1-37.69 4.65m24.44 12.99-20.19 2.76"/><path stroke="#E30002" stroke-width="2" d="M399.07 249.86c-7.7 6.207-16.487 9.47-26.36 9.79m0 0c-2.68-.353-5.267-.683-7.76-.99-6.38-.8-12.53-2.77-18.57-4.68-1.987-.627-3.967-.3-5.94.98-3.38 2.187-7.617 4.427-12.71 6.72-.273.127-.453.043-.54-.25l-3.46-11.44M323.73 249.99c6.24-.1 10.753-3.163 13.54-9.19 1.56-3.373 2.04-6.557 1.44-9.55M353 244.04c.573.58 1.093.963 1.56 1.15 14.73 5.97 39.93 6.07 42.9-14.94"/><path stroke="#FFEF9B" stroke-width="2" d="M428.71 214a152.93 152.93 0 0 1-17.75 10.25"/><path stroke="#E30002" stroke-width="2" d="M410.96 224.25c-2.38-.45-4.53-.1-6.92-.63a25.738 25.738 0 0 0-7.63-.55c-.413.033-.533.237-.36.61 1.013 2.133 1.483 4.323 1.41 6.57"/><path stroke="#FFEF9B" stroke-width="2" d="M397.46 230.25A500.38 500.38 0 0 1 353 244.04"/><path stroke="#E30002" stroke-width="2" d="M353 244.04c-5.29-2.5-3.83-9.52-3.65-14.23"/><path stroke="#FFEF9B" stroke-width="2" d="M431.96 230.75c-4.133 3.907-9.27 7.587-15.41 11.04-6.413 3.607-12.24 6.297-17.48 8.07"/><path stroke="#E30002" stroke-width="2" d="M399.07 249.86c7.12-7.68 8.88-16.04 11.89-25.61"/><path stroke="#FFEF9B" stroke-width="2" d="M434.54 244.5c-13.13 10.73-31.64 18.82-46.95 24.63-30.473 11.58-61.917 19.24-94.33 22.98-1.06.12-2.66.167-4.8.14m10.79-16.79c.78.05 1.23.32 2.01.23a352.78 352.78 0 0 0 71.45-16.04m39.25 13.1c-29.973 16.227-61.543 28.31-94.71 36.25-11.34 2.72-33.44 7.82-40.96 1.75"/><path stroke="#E30002" stroke-width="2" d="M585.21 346.16c3.513 2.093 6.333 4.847 8.46 8.26a.796.796 0 0 0 .662.369.798.798 0 0 0 .668-.359c2.89-4.42-2.19-10.66-5.45-13.26-2.88-2.29-8.48-1.15-6.81 2.7.32.733 1.143 1.497 2.47 2.29Zm2.088 20.492c.899-.964 1.112-2.494.593-4.252-.52-1.759-1.729-3.602-3.362-5.125-1.633-1.523-3.557-2.6-5.347-2.995-1.79-.396-3.301-.076-4.2.888s-1.112 2.494-.593 4.252c.52 1.759 1.729 3.602 3.362 5.125 1.633 1.523 3.556 2.6 5.347 2.995 1.79.396 3.301.076 4.2-.888ZM642.25 619.05l-9.07-11.93c-.247-.327-.17-.513.23-.56 3.987-.473 6.407-2.847 7.26-7.12 14.1-70.467 28.18-140.933 42.24-211.4 1.753-8.8.28-16.63-4.42-23.49-3.62-5.28-10.56-3.94-11.77 2.2a375440.728 375440.728 0 0 0-52.91 268.72.438.438 0 0 0 .008.194.446.446 0 0 0 .432.336h148.94a.3.3 0 0 0 .3-.3c-.08-31.43-19.78-50.71-51.43-48.33-22.16 1.66-43.81 10.97-62.38 22.8-3.533 2.253-5.853 5.187-6.96 8.8-.1.327-.257.353-.47.08ZM171.65 62l-1.11-2.97a.37.37 0 0 0-.69.01l-1.09 3.18c-.113.353-.357.53-.73.53h-3.02c-.86 0-.94.247-.24.74l2.42 1.7c.32.22.413.513.28.88l-1.43 3.91a.37.37 0 0 0 .58.42l3.19-2.48c.307-.24.617-.243.93-.01l3.48 2.58c.453.333.587.233.4-.3l-1.46-4.16c-.127-.373-.03-.673.29-.9l2.72-1.94c.327-.233.313-.443-.04-.63-.52-.29-2.77.34-3.72.11a1.009 1.009 0 0 1-.76-.67Zm-18.58 8.62a.311.311 0 0 1 .11-.37l3.23-2.18a.31.31 0 0 0-.17-.57h-4.03a.31.31 0 0 1-.29-.2l-1.34-3.63a.311.311 0 0 0-.469-.138.31.31 0 0 0-.111.148l-1.29 3.86a.312.312 0 0 1-.29.21h-3.39a.311.311 0 0 0-.3.21.303.303 0 0 0-.002.193.306.306 0 0 0 .112.157l2.68 2.02a.312.312 0 0 1 .11.36l-1.69 4.43a.312.312 0 0 0 .101.365.31.31 0 0 0 .379-.005l3.9-2.98a.31.31 0 0 1 .38.01l3.57 2.92a.311.311 0 0 0 .5-.148.312.312 0 0 0-.01-.202l-1.69-4.46Zm-18.48 2.65a.361.361 0 0 1-.34-.23l-1.37-3.5a.36.36 0 0 0-.68.01l-1.26 3.71a.36.36 0 0 1-.34.24h-3.16a.36.36 0 0 0-.21.65l2.6 1.88a.362.362 0 0 1 .13.42l-1.72 4.38a.362.362 0 0 0 .124.418.36.36 0 0 0 .436-.008l3.65-2.93a.36.36 0 0 1 .44-.01l3.6 2.77a.36.36 0 0 0 .55-.42l-1.67-4.21a.357.357 0 0 1 .12-.42l3.01-2.13a.357.357 0 0 0 .129-.4.357.357 0 0 0-.339-.25l-3.7.03Zm-27.33 11.3-1.55 4.34c-.193.56-.057.66.41.3l3.52-2.69c.32-.247.64-.25.96-.01l3.55 2.68c.433.32.553.23.36-.27L113 84.87c-.153-.413-.063-.757.27-1.03l2.48-2.03c.453-.373.387-.56-.2-.56h-3.47c-.347 0-.573-.167-.68-.5l-1.03-3.32c-.227-.747-.463-.75-.71-.01l-1.11 3.28c-.12.353-.363.543-.73.57l-3.12.23c-.533.04-.583.217-.15.53l2.48 1.79c.267.193.343.443.23.75Zm53.63-2.32h-2.88c-.847 0-.93.25-.25.75l2.21 1.6c.34.247.443.567.31.96l-1.29 3.89c-.227.693-.05.82.53.38l3.31-2.48c.273-.2.547-.2.82 0l3.32 2.5c.633.473.813.34.54-.4l-1.42-3.87c-.127-.353-.04-.643.26-.87l2.52-1.93c.307-.24.277-.417-.09-.53a5.263 5.263 0 0 0-3.22.05c-.427.14-.71-.003-.85-.43l-1.1-3.37c-.24-.72-.497-.723-.77-.01l-1.25 3.28c-.127.32-.36.48-.7.48Zm-13.64 3.56a.302.302 0 0 1-.3-.21l-1.22-4.21a.302.302 0 0 0-.285-.206.3.3 0 0 0-.285.206l-1.17 4.22a.297.297 0 0 1-.3.22l-4.38-.14a.3.3 0 0 0-.18.55l3.66 2.42a.3.3 0 0 1 .11.35l-1.49 4.12a.298.298 0 0 0 .293.394.301.301 0 0 0 .177-.064l3.43-2.72a.3.3 0 0 1 .37-.01l3.46 2.7a.3.3 0 0 0 .46-.35l-1.53-4.1a.3.3 0 0 1 .11-.35l3.63-2.46a.301.301 0 0 0 .005-.498.3.3 0 0 0-.185-.052l-4.38.19Zm-55.15.75-1.16-3.18c-.267-.74-.53-.737-.79.01l-1.08 3.07a1.235 1.235 0 0 1-.63.704 1.255 1.255 0 0 1-.95.056 3.365 3.365 0 0 0-2.03-.09c-.58.16-.633.423-.16.79l2.21 1.71c.267.207.343.47.23.79l-1.42 4.07c-.22.633-.063.75.47.35l3.49-2.62c.267-.2.533-.197.8.01l3.44 2.66a.3.3 0 0 0 .46-.34l-1.47-4.04c-.14-.387-.047-.707.28-.96l2.66-2.05c.433-.333.377-.5-.17-.5h-3.56c-.307 0-.513-.147-.62-.44ZM123.57 93a.31.31 0 0 1-.29.22l-3.69.09a.312.312 0 0 0-.284.22.307.307 0 0 0 .114.34l2.91 1.93a.313.313 0 0 1 .12.36l-1.64 4.56a.31.31 0 0 0 .48.35l3.72-2.85a.309.309 0 0 1 .38 0l3.7 2.96a.306.306 0 0 0 .382.017.308.308 0 0 0 .108-.367l-1.71-4.47a.309.309 0 0 1 .1-.36l2.86-2.19a.31.31 0 0 0-.18-.56h-3.82a.31.31 0 0 1-.3-.22l-1.16-3.91a.31.31 0 0 0-.59 0L123.57 93Zm50.62 3a.311.311 0 0 0-.3.21.303.303 0 0 0-.002.193.306.306 0 0 0 .112.157l2.76 2.06a.309.309 0 0 1 .1.36l-1.58 4.31a.312.312 0 0 0 .101.366.311.311 0 0 0 .379-.006l3.69-2.73a.31.31 0 0 1 .38 0l3.52 2.69a.308.308 0 0 0 .37.004.31.31 0 0 0 .11-.354l-1.49-4.3a.312.312 0 0 1 .1-.35l3.06-2.38a.307.307 0 0 0 .115-.162.307.307 0 0 0-.132-.352.308.308 0 0 0-.193-.046l-3.81.25a.31.31 0 0 1-.3-.2l-1.39-3.4a.308.308 0 0 0-.29-.2.31.31 0 0 0-.29.2l-1.42 3.49a.308.308 0 0 1-.29.19h-3.31Zm-69.62 9.76a.319.319 0 0 1 .39 0l3.62 2.71c.055.039.121.06.188.06a.323.323 0 0 0 .303-.223.323.323 0 0 0-.001-.197l-1.57-4.28a.32.32 0 0 1 .11-.37l2.89-2.13a.323.323 0 0 0 .118-.36.326.326 0 0 0-.118-.16.316.316 0 0 0-.19-.06h-3.71a.318.318 0 0 1-.3-.21l-1.31-3.76a.32.32 0 0 0-.61.01l-1.17 3.7a.318.318 0 0 1-.3.23l-3.87.09a.321.321 0 0 0-.17.59l3.03 2.03a.32.32 0 0 1 .13.37l-1.56 4.38a.317.317 0 0 0 .114.369.322.322 0 0 0 .194.061.327.327 0 0 0 .192-.07l3.6-2.78Zm49.1-1.78c.05.041.087.097.105.159a.327.327 0 0 1-.005.191l-1.5 4.29a.317.317 0 0 0 .114.369.322.322 0 0 0 .194.061.327.327 0 0 0 .192-.07l3.62-2.76a.322.322 0 0 1 .188-.068.327.327 0 0 1 .192.058l3.51 2.6a.327.327 0 0 0 .192.07.322.322 0 0 0 .308-.43l-1.44-4.19a.322.322 0 0 1 .11-.36l3.26-2.42a.322.322 0 0 0 .1-.366.32.32 0 0 0-.32-.204l-4.09.38a.32.32 0 0 1-.33-.22l-1.26-3.75a.323.323 0 0 0-.297-.214.317.317 0 0 0-.303.204l-1.33 3.73a.32.32 0 0 1-.31.21h-3.33a.323.323 0 0 0-.302.214.322.322 0 0 0 .102.356l2.63 2.16Zm-13.9 1.52a.308.308 0 0 1-.29-.2l-1.32-3.62a.31.31 0 0 0-.59.01l-1.23 3.84a.31.31 0 0 1-.3.22h-3.53a.319.319 0 0 0-.181.06.315.315 0 0 0-.111.346.31.31 0 0 0 .112.154l2.87 2.07a.31.31 0 0 1 .1.36l-1.68 4.34a.312.312 0 0 0 .101.366.31.31 0 0 0 .379-.006l3.69-2.78a.312.312 0 0 1 .37-.01l3.69 2.67a.307.307 0 0 0 .376-.005.313.313 0 0 0 .094-.365l-1.62-4.15a.308.308 0 0 1 .11-.36l3.12-2.38a.306.306 0 0 0 .112-.157.31.31 0 0 0-.302-.403h-3.97Zm-25.93 7.75a.282.282 0 0 0-.262.19.274.274 0 0 0-.003.17.275.275 0 0 0 .095.14l2.89 2.16a.28.28 0 0 1 .1.32l-1.57 4.39a.286.286 0 0 0-.005.176.288.288 0 0 0 .101.144.279.279 0 0 0 .334 0l3.81-2.8a.281.281 0 0 1 .34.01l3.58 2.78a.279.279 0 0 0 .334 0 .288.288 0 0 0 .101-.144.286.286 0 0 0-.005-.176l-1.51-4.31a.279.279 0 0 1 .09-.31l2.8-2.25a.28.28 0 0 0-.03-.45l-.48-.31a.28.28 0 0 0-.19-.05l-3.12.42a.28.28 0 0 1-.3-.19l-1.33-3.9a.284.284 0 0 0-.265-.19.283.283 0 0 0-.265.19l-1.42 3.81a.279.279 0 0 1-.26.18h-3.56Zm58.69.75a.318.318 0 0 1-.3-.21l-1.32-3.55a.32.32 0 0 0-.6.01l-1.13 3.53a.32.32 0 0 1-.3.22h-3.77a.316.316 0 0 0-.19.06.322.322 0 0 0 0 .52l2.95 2.19a.322.322 0 0 1 .11.36l-1.48 4.29a.316.316 0 0 0 .115.357c.054.04.12.062.187.063a.326.326 0 0 0 .188-.06l3.56-2.7a.322.322 0 0 1 .188-.068.327.327 0 0 1 .192.058l3.61 2.68c.055.039.121.06.188.06a.323.323 0 0 0 .303-.223.323.323 0 0 0-.001-.197l-1.59-4.28a.32.32 0 0 1 .11-.37l3.03-2.16a.317.317 0 0 0 .119-.355.322.322 0 0 0-.299-.225h-3.87Zm-79.34 9.06 1.82 1.57c.28.24.357.53.23.87l-1.37 3.8c-.26.707-.083.837.53.39l3.42-2.51c.22-.16.44-.16.66 0l3.54 2.49c.527.373.677.253.45-.36l-1.44-3.87c-.147-.393-.053-.713.28-.96l2.57-1.91c.513-.38.453-.57-.18-.57h-2.79a1.745 1.745 0 0 1-1.045-.346 1.763 1.763 0 0 1-.635-.904l-.73-2.39c-.267-.873-.543-.873-.83 0l-.99 3.01c-.14.42-.43.63-.87.63h-3.07a.333.333 0 0 0-.293.178.33.33 0 0 0 .023.342c.22.32.46.5.72.54Zm55.3.44h-2.81c-.713 0-.787.217-.22.65l2.25 1.7c.253.187.333.433.24.74l-1.48 4.58c-.16.507-.037.59.37.25l3.45-2.88c.307-.253.617-.263.93-.03l3.64 2.72c.473.353.607.253.4-.3l-1.56-4.19c-.133-.353-.047-.647.26-.88l2.52-1.91c.66-.507.573-.747-.26-.72l-3.2.08c-.387.013-.647-.16-.78-.52l-1.19-3.17c-.273-.72-.517-.713-.73.02l-.95 3.2c-.127.44-.42.66-.88.66Zm-17.93 2.3a.312.312 0 0 1-.3.2h-3.49a.31.31 0 0 0-.19.55l2.76 2.18a.312.312 0 0 1 .1.35l-1.5 4.28a.31.31 0 0 0 .48.35l3.68-2.65a.314.314 0 0 1 .18-.058c.065 0 .127.021.18.058l3.66 2.71a.31.31 0 0 0 .48-.36l-1.63-4.37a.308.308 0 0 1 .11-.36l3.08-2.23a.31.31 0 0 0-.2-.56l-3.92.16a.31.31 0 0 1-.3-.21l-1.23-3.7a.308.308 0 0 0-.291-.22.317.317 0 0 0-.184.056.315.315 0 0 0-.115.154l-1.36 3.67Zm59.01 3.78a.308.308 0 0 1 .11.36l-1.62 4.35a.312.312 0 0 0 .101.366.311.311 0 0 0 .379-.006l3.76-2.72a.312.312 0 0 1 .37.01l3.65 2.74a.31.31 0 0 0 .48-.36l-1.61-4.46a.308.308 0 0 1 .11-.36l3.1-2.19a.31.31 0 0 0-.18-.56h-4.04a.309.309 0 0 1-.29-.21l-1.21-3.51a.308.308 0 0 0-.291-.22.317.317 0 0 0-.184.056.315.315 0 0 0-.115.154l-1.34 3.77a.312.312 0 0 1-.29.21h-3.45a.319.319 0 0 0-.181.06.315.315 0 0 0-.111.346.31.31 0 0 0 .112.154l2.74 2.02Zm-78.68 5.82-2.97.15c-.58.027-.633.21-.16.55l2.31 1.69c.253.187.33.427.23.72l-1.45 4.25c-.213.627-.057.74.47.34l3.55-2.72c.233-.18.467-.18.7 0l3.52 2.71c.507.387.653.28.44-.32l-1.46-4.11c-.127-.353-.04-.64.26-.86l2.6-1.93c.56-.413.49-.62-.21-.62h-3.17a.96.96 0 0 1-.81-.4c-.56-.73-.98-3.17-1.41-3.39-.287-.147-.483-.067-.59.24l-1.07 3.11c-.133.373-.393.57-.78.59Zm16.14 9.89a.315.315 0 0 1-.111.155.313.313 0 0 1-.179.065l-3.38.14a.321.321 0 0 0-.299.225.323.323 0 0 0 .119.355l2.69 1.99a.322.322 0 0 1 .11.36l-1.33 4.2a.322.322 0 0 0 .319.427.323.323 0 0 0 .191-.077l3.36-2.67a.322.322 0 0 1 .4-.01l3.7 2.89a.315.315 0 0 0 .383-.002.313.313 0 0 0 .115-.166.325.325 0 0 0-.008-.202l-1.69-4.39a.32.32 0 0 1 .11-.38l3.35-2.49a.322.322 0 0 0 .1-.366.32.32 0 0 0-.32-.204l-4.04.38a.324.324 0 0 1-.33-.2l-1.46-3.66a.321.321 0 0 0-.307-.199.323.323 0 0 0-.293.219l-1.2 3.61Zm424.99-67.87c-.19 5.41 5.18 7.75 9.6 4.36a1.217 1.217 0 0 1 1.44-.02c4.47 3.15 8.59-.84 8.37-5.55a.34.34 0 0 0-.65-.14c-2.02 3.973-4.853 4.633-8.5 1.98-.313-.227-.613-.203-.9.07-3.333 3.207-6.303 2.93-8.91-.83-.28-.4-.43-.357-.45.13Z"/><path stroke="#E30002" stroke-width="2" d="M569.48 133.95c-.473-14.98-1.263-29.96-2.37-44.94-.25-3.37-1.83-4.66-4.69-5.85-.333-.14-.627-.083-.88.17l-3.24 3.25c-.253.247-.36.547-.32.9l4.62 46.58c.073.74-.203.907-.83.5-16.29-10.48-19.95-30.52-12.23-47.69.167-.373.113-.407-.16-.1-3.467 3.88-5.937 8.19-7.41 12.93-5.11 16.46 2.89 32.74 18.11 40.52a.323.323 0 0 1 .175.296.328.328 0 0 1-.056.171.326.326 0 0 1-.139.113 38.046 38.046 0 0 1-11.81 2.92c-.94.08-.943.197-.01.35 4.933.827 9.82.67 14.66-.47.353-.08.643.023.87.31l2.96 3.82c.36.467.683.443.97-.07l2.41-4.3a.647.647 0 0 1 .67-.35c5.147.46 10.163-.187 15.05-1.94.953-.34.923-.463-.09-.37a39.05 39.05 0 0 1-12.47-.83.383.383 0 0 1-.271-.506.37.37 0 0 1 .131-.164c19.05-13.77 20.14-39.25 2.36-54.49a.22.22 0 0 0-.299.002.218.218 0 0 0-.021.298c11.02 15.18 9.39 36.76-5.12 49.19-.36.307-.55.223-.57-.25Z"/><path stroke="#E30002" stroke-width="2" d="M578.94 83.81c16.26 11.52 20.42 32.58 10.47 49.52a.19.19 0 0 0-.046.139.191.191 0 0 0 .336.111c19.32-15.67 13.28-44.66-10.98-50.44a.23.23 0 0 0-.273.189.229.229 0 0 0 .013.121c.1.24.26.36.48.36Zm-33.2 2.09c-22.59 8.96-24.65 39.35-3.12 51.29.813.453.927.32.34-.4-12.69-15.69-11.26-36.46 2.97-50.6.4-.4.337-.497-.19-.29Zm145.55 72.6.43.32c.24.187.513.267.82.24 4.6-.433 8.953.393 13.06 2.48.34.173.63.113.87-.18 9.41-11.5 12.07-31.1 10.38-45.33-.6-5.073-1.83-8.73-3.69-10.97-5.23-6.32-12.13 1.01-14.32 5.89-.153.34-.057.587.29.74 7.05 3.19 11 12.53 2.01 16.62-.34.16-.363.357-.07.59 13.32 10.57 1.54 23.3-11.38 23.01-.367-.007-.573.17-.62.53-.22 1.58.02 3.017.72 4.31m-44.69-49.08c9.51 3.7 13.83 15.42 2.43 20.44-.447.2-.463.43-.05.69 5.68 3.6 8.18 10.55 3.92 16.3-3.407 4.6-8.303 6.697-14.69 6.29-.24-.013-.353.097-.34.33l.2 4.29a.603.603 0 0 0 .54.569.595.595 0 0 0 .28-.039c6.32-2.52 12.69-2.623 19.11-.31a.566.566 0 0 0 .448-.03.558.558 0 0 0 .282-.35 101.64 101.64 0 0 0 3.78-23.85c.32-8.48-.85-24.96-8.05-30.85a2.033 2.033 0 0 0-1.148-.457 1.989 1.989 0 0 0-1.192.297 15.761 15.761 0 0 0-5.73 6.12c-.14.267-.07.453.21.56Zm-265.43 63.24c2.25 2.97 4.46 5.84 8.21 7.02.353.113.687.067 1-.14 2.7-1.8 4.407-4.317 5.12-7.55.087-.38-.06-.607-.44-.68-10.92-2.3-17.18-11.65-11.94-22.5a48.13 48.13 0 0 1 3.07-5.41c.22-.347.133-.573-.26-.68-5.78-1.6-9.06-5.79-8.87-11.92.21-6.7 3.53-11.32 8.18-15.93.22-.22.24-.457.06-.71a16.66 16.66 0 0 0-6.88-5.82 1.546 1.546 0 0 0-1.05-.09c-4.16 1.12-6.26 7.79-6.8 11.51-2.4 16.44.29 39.23 10.6 52.9Zm-47.73 15.65c4.31 4.45 9.11 3.18 11.09-2.51.107-.3.003-.483-.31-.55-12.6-2.63-18.58-17.44-8.21-26.91.293-.267.263-.487-.09-.66-16.54-8.28-16-21.27-.04-29.13.333-.16.4-.397.2-.71-1.88-2.91-6.05-7.53-9.89-7.36-7.25.32-8.65 17.54-8.6 22.51.17 15.91 4.44 33.57 15.85 45.32Z"/><path fill="#E30002" d="M707.01 311.69c-3.3 2.18-6.573 4.257-9.82 6.23-20.77 12.63-52.95 21.07-76.69 12.31-10.78-3.97-18.46-16.14-29.93-17.42-.373-.04-.497.113-.37.46 4.02 10.97-6.94 18.98-16.47 20.73-1.88.34-4.77.397-8.67.17-.34-.02-.63.087-.87.32a108.012 108.012 0 0 0-17.14 21.36c-1.4 2.28-4.09 10.11.21 11.15 4.6 1.11 8.04-2.2 10.63-5.55.287-.38.52-.35.7.09l.7 1.71c-.42.873-.197 1.457.67 1.75 1.37 4.43 6.16 8.78 10.05 3.5.493-.667.48-1.323-.04-1.97-5.58-7.04-5.82-16.88 4.1-20.25.327-.107.477-.333.45-.68-.58-8.23 4.25-15.44 13.38-13.47 7.18 1.56 12.55 8.69 14.87 15.39.127.36.357.447.69.26l1.94-1.07c.32-.18.66-.213 1.02-.1 3.093.947 5.787 1.493 8.08 1.64 7.86.5 16.52 1.45 23.69 1.24 17.7-.51 32.08-5.13 50.04-11.54 6.08-2.173 11.087-4.587 15.02-7.24.627-.033 1.093-.277 1.4-.73a.386.386 0 0 1 .211-.161.384.384 0 0 1 .265.011.39.39 0 0 1 .234.44c-1.44 7.46-3.37 14.94-4.71 21.64-16.1 81.047-32.263 162.247-48.49 243.6a.567.567 0 0 0 .225.584.57.57 0 0 0 .625.026c22.17-12.89 52.59-23.64 78.95-17.83 23.21 5.12 37.02 22.01 40.95 44.94.97 5.68 3.48 19.83-2.72 22.77h-168.5c.08-2.72.26-4.807.54-6.26 18.433-93.74 36.887-187.487 55.36-281.24.073-.367-.073-.52-.44-.46-15.44 2.65-31.38 4.05-46.77.27-7.34-1.8-7.6 4.54-12.63 6.87-.3.14-.48.373-.54.7-1.56 8.93-10.22 12.63-18.12 7.83-.293-.18-.55-.137-.77.13-6.1 7.31-16.86 7.01-23.7 1.17a1.152 1.152 0 0 0-.89-.28c-6.66.69-12.86.7-16.89-5.33-.82-1.23-1.62-1.99-2.99-.94-.26.2-.56.313-.9.34-22.26 1.59-44.87-3.22-65.2-11.98a.559.559 0 0 0-.77.62 708439.12 708439.12 0 0 1 49.7 260.57c2.327 12.233 3.853 21.56 4.58 27.98l-5.07.01a675.38 675.38 0 0 0-41.25 0h-111.5c-.46-2.44-.313-5.843.44-10.21 5.53-31.96 28.05-50.28 59.39-54.43 9.18-1.21 16.8-1.97 24.84-.54 1.95.35 4.08.07 5.85.3a236.01 236.01 0 0 1 16.96 2.94c.68.147.957-.123.83-.81a306912.268 306912.268 0 0 1-52.1-276.84c-1.61-8.54-7.43-11.81-15.56-8.38-32.76 13.84-64.55 28.21-99.56 35.65-13.86 2.94-34.2 5.38-40.23-11.98-8.833-25.44-17.65-50.883-26.45-76.33-.127-.367-.38-.533-.76-.5-15.09 1.19-30.6 4.21-43.86 7.55a1316.981 1316.981 0 0 0-70.68 19.93c-.287.087-.473-.01-.56-.29L59.93 74.63a.485.485 0 0 1 .028-.354.505.505 0 0 1 .262-.246 390.897 390.897 0 0 1 23.54-8.74c32.067-10.747 55.23-17.93 69.49-21.55 13.347-3.387 27.343-5.98 41.99-7.78 10.54-1.29 19.48-1.63 30.06 1.39 4.58 1.307 8.373 2.967 11.38 4.98 15.7 10.53 16.83 24.7 21.54 41.47.093.32.28.57.56.75 20.47 12.79 51.48 8.47 73.78 2.27 15.387-4.28 30.277-10.087 44.67-17.42.233-.127.313-.317.24-.57L367.04 33.1c-.113-.387.013-.67.38-.85.847-.427 1.937-.857 3.27-1.29 45.3-14.77 91.34-25.06 138.29-29.8.247-.027 1.76-.08 4.54-.16 2.08-.06 4.16-.67 6.08-.74a552.719 552.719 0 0 1 42.7.01c1.29.05 2.68.57 4.45.66 5.86.32 12.027 1.27 18.5 2.85 14.52 3.55 25.97 7 30.22 21.86 2.213 7.713 3.02 15.883 2.42 24.51a1.82 1.82 0 0 0 1.4 1.9c17.57 4.16 37.89 3.57 56.71 1.53a728.815 728.815 0 0 0 85.73-14.56.73.73 0 0 1 .66.178.713.713 0 0 1 .21.642 2031.052 2031.052 0 0 1-8.12 42.96 424153.575 424153.575 0 0 1-45.32 226.06c-.067.32-.207.603-.42.85l-1.73 1.98ZM415.54 88.75l17.17 89 9.41 49.83a.47.47 0 0 0 .225.322.481.481 0 0 0 .192.065.481.481 0 0 0 .203-.017c44.01-13.36 90.65-24.15 136.98-19.96 8.947.813 17.4 3.107 25.36 6.88a.381.381 0 0 0 .191.038.384.384 0 0 0 .32-.2.385.385 0 0 0 .049-.188l.57-54.02c.88-27.29 1.13-54.61 1.42-81.91.56-17.26.627-31.39.2-42.39-.59-15.52-10.54-18.77-24.28-22.01-16.89-3.96-35.23-4.46-52.48-3.78-45.45 1.8-91.03 10.81-134.59 23.62-4.44 1.307-7.51 2.747-9.21 4.32-7.15 6.63-3.52 16.39-.09 25.28.113.293.31.367.59.22a102.116 102.116 0 0 0 19.55-13.61.41.41 0 0 1 .415-.086.433.433 0 0 1 .285.326l7.52 38.27ZM176.75 49.46c-29.38 5.38-62.7 16.79-88.45 25.93-7.83 2.78-13.69 7.3-10.87 16.43 6.18 20.007 14.037 44.413 23.57 73.22l3.86 12.28 3.68 11.43 5.92 18.25 3.54 11.04 5.21 16.46 3.58 11c2.09 10.4 9.88 10.43 18.85 8.26 13.02-3.16 26.003-6.47 38.95-9.93 30.24-8.08 61.31-12.69 92.65-9.33 6.58.71 7.44-5.63 6.01-10.54-1.29-14.13-6.81-31.5-10.04-42.71l-3.5-13.25-4.21-15.54-2.25-8.5-5.04-19.21-4.71-16.63-3.84-14.75c-1.053-5.1-2.377-9.777-3.97-14.03l-3.72-15.37c-15.89-22.44-41.32-19.36-65.22-14.51Zm440.79 67.04-1.5 104.75c-.23 3.68.16 8.4-1.05 11.64-2.62 6.98-13.21 13.55-20.06 16.53-9.94 4.33-25.95 6.15-38.21 11.84-4.33 2.01-14.14 9.42-5.77 13.31 9.62 4.48 21.33 5.4 31.8 5.33 27.29-.21 55.05-3.72 82.26-6.13 6.913-.613 10.933-4.4 12.06-11.36.06-.4.283-.537.67-.41l11.16 3.6c.38.12.477.357.29.71-2.413 4.46-4.143 9.093-5.19 13.9l-7.83 36.02a.223.223 0 0 0 .072.21.223.223 0 0 0 .218.04 74.977 74.977 0 0 0 22.77-13.32c.331-.279.559-.663.65-1.09l4.58-23.07 12.75-64.25L735.46 123c3.173-14.7 6.05-29.46 8.63-44.28 1.22-6.97 3.71-14.98-3.76-19.6-3.827-2.36-7.52-3.223-11.08-2.59-35.65 6.33-74.59 12.93-110.61 6.19-.387-.073-.58.087-.58.48l-.52 53.3Zm-353.33-10.25 4.33 16 4.78 17.6 3.67 13.51 4.48 16.72 3.57 13.92 4.75 17.5 3.69 13.64 5.81 21.86 4.25 15.75c1.36 8.12-.07 15.69-4.29 22.71l-10.79 16.79a119.236 119.236 0 0 0-12.17 18.5c-2.88 5.1-2.497 9.04 1.15 11.82 17.57 13.4 105.92-27.37 126.95-36.08 6.79-2.81 10.22-6.16 7.57-13.74l-.84-1.82c-.153-.347-.04-.537.34-.57l13.54-1.18c.38-.033.513.13.4.49-.707 2.327-.84 4.603-.4 6.83 4.13 20.75 11.04 53.05 17.03 85.13a69178.878 69178.878 0 0 1 39.8 215.06c1.22 6.66 2.73 13.51 11.5 12.56.427-.047.583.14.47.56l-3.38 11.93c-.087.307-.267.38-.54.22-2-1.18-3.81-2.38-6.02-3.14-37.5-13.04-99.29-15.09-109.15 36.82-.087.46.103.687.57.68l133.09-1.45a.63.63 0 0 0 .61-.75l-56.74-297.14c-.073-.407.067-.503.42-.29a131.295 131.295 0 0 0 32.02 14.17c17.86 5.21 31.14 8.29 48.63 6.81a.79.79 0 0 0 .68-.46c5.41-10.92 14.82-24.89 25.72-30.9 5.66-3.11 11.47-1.72 17.46-2.93 3.98-.81 6-3.66 2.79-7.16a1.907 1.907 0 0 0-1.5-.62c-8.17.29-16.97.51-24.34 3.23-10.26 3.79-23.57 13.16-26.93 24.43a1.006 1.006 0 0 1-1.01.73c-25.88-.9-48.35-8.67-70.23-22.19-2.59-1.6-6.68-3.93-7.31-7.13-4.64-23.4-9.34-46.79-14.1-70.17l-2.58-13.75-3.25-16.75-2.75-14-2.92-15.75-2.83-15.5-3.5-17.5-2.96-15.04-2.62-14.33-2.42-12.63-3.81-19.6c-.347-4.287-1.493-8.42-3.44-12.4-3.75-5.12-8.23-3.83-13.53-1.31a2058.873 2058.873 0 0 0-11.57 5.57c-32.93 15.99-77.88 29.45-113.83 16.9-.367-.127-.5-.003-.4.37l2.08 7.47ZM460.9 314.96c3.533 2.433 7.053 4.367 10.56 5.8 3.18 1.3 6.37 3.17 8.75 4.19 11.573 4.98 23.337 8.33 35.29 10.05 1.453.213 2.9-.063 4.34-.83.287-.153.477-.39.57-.71.3-1.047.77-2.007 1.41-2.88 9.71-13.15 24.39-22.6 40.89-24.37 4.4-.47 8.9 1.02 13.68.76a1.35 1.35 0 0 0 .87-.35c13.94-12.18 30.06 2.29 41 10.24 2.093 1.527 4.257 2.66 6.49 3.4 13.03 4.3 26.26 3.54 39.65-1.33a.78.78 0 0 0 .53-.62 1022.84 1022.84 0 0 1 4.86-22.05c1.18-5.04.95-12.48-6.05-11.87a19109.108 19109.108 0 0 0-55.59 4.86c-5.613.5-10.887.773-15.82.82-13.87.15-52.65 1.83-55.49-18.39-.64-4.56-1.027-10.143-1.16-16.75-.1-5.42-.81-11.26-.91-16.94-.09-5.6-1.16-11.98-.68-17.92.087-1.073-.403-1.54-1.47-1.4-27.94 3.67-54.92 10.05-81.8 17.68-1.667.473-3.563 1.173-5.69 2.1a1.069 1.069 0 0 0-.62 1.18c3.807 20.26 7.67 40.49 11.59 60.69.59 3.01.44 7.57 1.82 11.06.547 1.4 1.54 2.593 2.98 3.58Zm124.31 31.2c3.513 2.093 6.333 4.847 8.46 8.26a.788.788 0 0 0 1.042.275.788.788 0 0 0 .288-.265c2.89-4.42-2.19-10.66-5.45-13.26-2.88-2.29-8.48-1.15-6.81 2.7.32.733 1.143 1.497 2.47 2.29Zm2.088 20.492c.899-.964 1.112-2.494.593-4.252-.52-1.759-1.729-3.602-3.362-5.125-1.633-1.523-3.557-2.6-5.347-2.995-1.79-.396-3.301-.076-4.2.888s-1.112 2.494-.593 4.252c.52 1.759 1.729 3.602 3.362 5.125 1.633 1.523 3.557 2.6 5.347 2.995 1.79.396 3.301.076 4.2-.888ZM642.25 619.05l-9.07-11.93c-.247-.327-.17-.513.23-.56 3.987-.473 6.407-2.847 7.26-7.12 14.1-70.467 28.18-140.933 42.24-211.4 1.753-8.8.28-16.63-4.42-23.49-3.62-5.28-10.56-3.94-11.77 2.2a375440.728 375440.728 0 0 0-52.91 268.72.438.438 0 0 0 .008.194.446.446 0 0 0 .432.336h148.94a.3.3 0 0 0 .3-.3c-.08-31.43-19.78-50.71-51.43-48.33-22.16 1.66-43.81 10.97-62.38 22.8-3.533 2.253-5.853 5.187-6.96 8.8-.1.327-.257.353-.47.08Z"/><path fill="#fff" d="M607.63 78.59c-22.14-8.8-47.33-9.67-71.13-8.48a582.659 582.659 0 0 0-116 17.65c-2.407.62-4.06.95-4.96.99l-7.52-38.27a.438.438 0 0 0-.285-.326.417.417 0 0 0-.415.086 102.116 102.116 0 0 1-19.55 13.61c-.28.147-.477.073-.59-.22-3.43-8.89-7.06-18.65.09-25.28 1.7-1.573 4.77-3.013 9.21-4.32 43.56-12.81 89.14-21.82 134.59-23.62 17.25-.68 35.59-.18 52.48 3.78 13.74 3.24 23.69 6.49 24.28 22.01.427 11 .36 25.13-.2 42.39Z"/><path fill="#FFEF9B" d="m241.97 63.97-1.2.54a1.25 1.25 0 0 1-.88.06c-18.96-5.5-38.71-4.31-57.92.13a.749.749 0 0 1-.88-.52l-4.34-14.72c23.9-4.85 49.33-7.93 65.22 14.51Z"/><path fill="#fff" d="m176.75 49.46 4.34 14.72a.749.749 0 0 0 .88.52c19.21-4.44 38.96-5.63 57.92-.13.3.087.593.067.88-.06l1.2-.54 3.72 15.37c-10.153-4.153-19.633-6.35-28.44-6.59a115.97 115.97 0 0 0-32.13 3.57.569.569 0 0 0-.41.7l4.18 15.01c.1.353.323.487.67.4 20.62-4.87 39.86-5.2 60.1.94l3.84 14.75c-19.24-9.09-40.48-9.23-60.79-4.22-.3.073-.407.26-.32.56l5.54 19.71c.043.151.142.28.277.359.134.078.293.1.443.061 19.82-5.173 39.673-5.12 59.56.16l5.04 19.21-.51.42c-.267.213-.487.173-.66-.12a8.16 8.16 0 0 1-1.07-3.98 1.564 1.564 0 0 0-.262-.854 1.588 1.588 0 0 0-.688-.576c-28.33-12.32-56.18-3.76-85.64 4.04-.913.247-1.637.103-2.17-.43l-1.39-4.17c-.1-.307-.023-.56.23-.76l2.87-2.27c.433-.34.373-.51-.18-.51h-3.69c-.287 0-.477-.137-.57-.41l-1.13-3.18c-.26-.72-.513-.717-.76.01l-1.13 3.31c-.12.347-.363.52-.73.52h-3.01a.38.38 0 0 0-.21.7l2.31 1.54c.38.247.493.583.34 1.01l-1.51 4.16c-.213.593-.067.697.44.31l3.57-2.73c.267-.2.533-.203.8-.01l3.5 2.56c.51.61.27 1.06-.43 1.25a267.637 267.637 0 0 0-18.53 5.71l-1.52-3.76c-.147-.367-.06-.667.26-.9l2.66-1.97c.64-.473.563-.693-.23-.66l-3.38.15c-.34.013-.573-.137-.7-.45l-1.29-3.24c-.247-.62-.477-.613-.69.02l-1.1 3.27c-.12.36-.37.54-.75.54h-2.87c-.7 0-.777.217-.23.65l2.24 1.77c.3.24.387.537.26.89l-1.45 4.12a.311.311 0 0 0 .302.425.312.312 0 0 0 .188-.075l3.26-2.59c.32-.253.64-.257.96-.01l3.04 2.28c-1.193.133-3.027.57-5.5 1.31a8260.517 8260.517 0 0 0-33.06 9.93c-.593.18-1.407.293-2.44.34a4.241 4.241 0 0 1-.72-1.66c-.073-.373.04-.673.34-.9l2.6-1.94c.48-.36.42-.54-.18-.54h-3.41c-.38 0-.637-.177-.77-.53l-1.11-2.98a.41.41 0 0 0-.78.01l-.98 2.9c-.107.313-.323.487-.65.52l-3.1.32c-.733.08-.793.323-.18.73l2.15 1.41c.287.187.38.443.28.77l-1.49 4.81-2 .58c-9.533-28.807-17.39-53.213-23.57-73.22-2.82-9.13 3.04-13.65 10.87-16.43 25.75-9.14 59.07-20.55 88.45-25.93ZM171.65 62l-1.11-2.97a.37.37 0 0 0-.69.01l-1.09 3.18c-.113.353-.357.53-.73.53h-3.02c-.86 0-.94.247-.24.74l2.42 1.7c.32.22.413.513.28.88l-1.43 3.91a.37.37 0 0 0 .58.42l3.19-2.48c.307-.24.617-.243.93-.01l3.48 2.58c.453.333.587.233.4-.3l-1.46-4.16c-.127-.373-.03-.673.29-.9l2.72-1.94c.327-.233.313-.443-.04-.63-.52-.29-2.77.34-3.72.11a1.009 1.009 0 0 1-.76-.67Zm-18.58 8.62a.311.311 0 0 1 .11-.37l3.23-2.18a.31.31 0 0 0-.17-.57h-4.03a.31.31 0 0 1-.29-.2l-1.34-3.63a.311.311 0 0 0-.469-.138.31.31 0 0 0-.111.148l-1.29 3.86a.312.312 0 0 1-.29.21h-3.39a.311.311 0 0 0-.3.21.303.303 0 0 0-.002.193.306.306 0 0 0 .112.157l2.68 2.02a.312.312 0 0 1 .11.36l-1.69 4.43a.312.312 0 0 0 .101.365.31.31 0 0 0 .379-.005l3.9-2.98a.31.31 0 0 1 .38.01l3.57 2.92a.311.311 0 0 0 .5-.148.312.312 0 0 0-.01-.202l-1.69-4.46Zm-18.48 2.65a.361.361 0 0 1-.34-.23l-1.37-3.5a.36.36 0 0 0-.68.01l-1.26 3.71a.36.36 0 0 1-.34.24h-3.16a.36.36 0 0 0-.21.65l2.6 1.88a.362.362 0 0 1 .13.42l-1.72 4.38a.362.362 0 0 0 .124.418.36.36 0 0 0 .436-.008l3.65-2.93a.36.36 0 0 1 .44-.01l3.6 2.77a.36.36 0 0 0 .55-.42l-1.67-4.21a.357.357 0 0 1 .12-.42l3.01-2.13a.358.358 0 0 0 .129-.4.357.357 0 0 0-.339-.25l-3.7.03Zm-27.33 11.3-1.55 4.34c-.193.56-.057.66.41.3l3.52-2.69c.32-.247.64-.25.96-.01l3.55 2.68c.433.32.553.23.36-.27L113 84.87c-.153-.413-.063-.757.27-1.03l2.48-2.03c.453-.373.387-.56-.2-.56h-3.47c-.347 0-.573-.167-.68-.5l-1.03-3.32c-.227-.747-.463-.75-.71-.01l-1.11 3.28c-.12.353-.363.543-.73.57l-3.12.23c-.533.04-.583.217-.15.53l2.48 1.79c.267.193.343.443.23.75Zm53.63-2.32h-2.88c-.847 0-.93.25-.25.75l2.21 1.6c.34.247.443.567.31.96l-1.29 3.89c-.227.693-.05.82.53.38l3.31-2.48c.273-.2.547-.2.82 0l3.32 2.5c.633.473.813.34.54-.4l-1.42-3.87c-.127-.353-.04-.643.26-.87l2.52-1.93c.307-.24.277-.417-.09-.53a5.263 5.263 0 0 0-3.22.05c-.427.14-.71-.003-.85-.43l-1.1-3.37c-.24-.72-.497-.723-.77-.01l-1.25 3.28c-.127.32-.36.48-.7.48Zm-13.64 3.56a.302.302 0 0 1-.3-.21l-1.22-4.21a.302.302 0 0 0-.285-.206.3.3 0 0 0-.285.206l-1.17 4.22a.297.297 0 0 1-.3.22l-4.38-.14a.3.3 0 0 0-.18.55l3.66 2.42a.3.3 0 0 1 .11.35l-1.49 4.12a.298.298 0 0 0 .293.394.301.301 0 0 0 .177-.064l3.43-2.72a.3.3 0 0 1 .37-.01l3.46 2.7a.3.3 0 0 0 .46-.35l-1.53-4.1a.3.3 0 0 1 .11-.35l3.63-2.46a.301.301 0 0 0 .005-.498.3.3 0 0 0-.185-.052l-4.38.19Zm-55.15.75-1.16-3.18c-.267-.74-.53-.737-.79.01l-1.08 3.07a1.235 1.235 0 0 1-.63.704 1.255 1.255 0 0 1-.95.056 3.365 3.365 0 0 0-2.03-.09c-.58.16-.633.423-.16.79l2.21 1.71c.267.207.343.47.23.79l-1.42 4.07c-.22.633-.063.75.47.35l3.49-2.62c.267-.2.533-.197.8.01l3.44 2.66a.3.3 0 0 0 .46-.34l-1.47-4.04c-.14-.387-.047-.707.28-.96l2.66-2.05c.433-.333.377-.5-.17-.5h-3.56c-.307 0-.513-.147-.62-.44ZM123.57 93a.31.31 0 0 1-.29.22l-3.69.09a.312.312 0 0 0-.284.22.307.307 0 0 0 .114.34l2.91 1.93a.313.313 0 0 1 .12.36l-1.64 4.56a.31.31 0 0 0 .48.35l3.72-2.85a.309.309 0 0 1 .38 0l3.7 2.96a.319.319 0 0 0 .188.075.313.313 0 0 0 .312-.223.311.311 0 0 0-.01-.202l-1.71-4.47a.309.309 0 0 1 .1-.36l2.86-2.19a.31.31 0 0 0-.18-.56h-3.82a.31.31 0 0 1-.3-.22l-1.16-3.91a.31.31 0 0 0-.59 0L123.57 93Zm50.62 3a.311.311 0 0 0-.3.21.303.303 0 0 0-.002.193.306.306 0 0 0 .112.157l2.76 2.06a.309.309 0 0 1 .1.36l-1.58 4.31a.312.312 0 0 0 .101.366.31.31 0 0 0 .379-.006l3.69-2.73a.31.31 0 0 1 .38 0l3.52 2.69a.308.308 0 0 0 .37.004.31.31 0 0 0 .11-.354l-1.49-4.3a.312.312 0 0 1 .1-.35l3.06-2.38a.307.307 0 0 0 .115-.162.307.307 0 0 0-.132-.352.308.308 0 0 0-.193-.046l-3.81.25a.31.31 0 0 1-.3-.2l-1.39-3.4a.308.308 0 0 0-.29-.2.31.31 0 0 0-.29.2l-1.42 3.49a.308.308 0 0 1-.29.19h-3.31Zm-69.62 9.76a.319.319 0 0 1 .39 0l3.62 2.71c.055.039.121.06.188.06a.323.323 0 0 0 .303-.223.323.323 0 0 0-.001-.197l-1.57-4.28a.32.32 0 0 1 .11-.37l2.89-2.13a.322.322 0 0 0 0-.52.316.316 0 0 0-.19-.06h-3.71a.318.318 0 0 1-.3-.21l-1.31-3.76a.32.32 0 0 0-.61.01l-1.17 3.7a.318.318 0 0 1-.3.23l-3.87.09a.321.321 0 0 0-.17.59l3.03 2.03a.32.32 0 0 1 .13.37l-1.56 4.38a.317.317 0 0 0 .114.369.322.322 0 0 0 .194.061.327.327 0 0 0 .192-.07l3.6-2.78Zm49.1-1.78c.05.041.087.097.105.159a.327.327 0 0 1-.005.191l-1.5 4.29a.317.317 0 0 0 .114.369.322.322 0 0 0 .194.061.327.327 0 0 0 .192-.07l3.62-2.76a.322.322 0 0 1 .188-.068.327.327 0 0 1 .192.058l3.51 2.6a.327.327 0 0 0 .192.07.322.322 0 0 0 .308-.43l-1.44-4.19a.322.322 0 0 1 .11-.36l3.26-2.42a.322.322 0 0 0 .1-.366.315.315 0 0 0-.127-.154.313.313 0 0 0-.193-.05l-4.09.38a.32.32 0 0 1-.33-.22l-1.26-3.75a.323.323 0 0 0-.297-.214.317.317 0 0 0-.303.204l-1.33 3.73a.32.32 0 0 1-.31.21h-3.33a.323.323 0 0 0-.302.214.322.322 0 0 0 .102.356l2.63 2.16Zm-13.9 1.52a.308.308 0 0 1-.29-.2l-1.32-3.62a.315.315 0 0 0-.115-.154.317.317 0 0 0-.184-.056.308.308 0 0 0-.291.22l-1.23 3.84a.31.31 0 0 1-.3.22h-3.53a.319.319 0 0 0-.181.06.315.315 0 0 0-.111.346.31.31 0 0 0 .112.154l2.87 2.07a.31.31 0 0 1 .1.36l-1.68 4.34a.312.312 0 0 0 .101.366.31.31 0 0 0 .379-.006l3.69-2.78a.312.312 0 0 1 .37-.01l3.69 2.67a.314.314 0 0 0 .376-.005.313.313 0 0 0 .094-.365l-1.62-4.15a.308.308 0 0 1 .11-.36l3.12-2.38a.306.306 0 0 0 .112-.157.31.31 0 0 0-.302-.403h-3.97Zm-25.93 7.75a.282.282 0 0 0-.262.19.274.274 0 0 0-.003.17.275.275 0 0 0 .095.14l2.89 2.16a.28.28 0 0 1 .1.32l-1.57 4.39a.286.286 0 0 0-.005.176.288.288 0 0 0 .101.144.279.279 0 0 0 .334 0l3.81-2.8a.281.281 0 0 1 .34.01l3.58 2.78a.279.279 0 0 0 .334 0 .288.288 0 0 0 .101-.144.286.286 0 0 0-.005-.176l-1.51-4.31a.279.279 0 0 1 .09-.31l2.8-2.25a.28.28 0 0 0-.03-.45l-.48-.31a.28.28 0 0 0-.19-.05l-3.12.42a.28.28 0 0 1-.3-.19l-1.33-3.9a.284.284 0 0 0-.265-.19.283.283 0 0 0-.265.19l-1.42 3.81a.279.279 0 0 1-.26.18h-3.56Zm58.69.75a.318.318 0 0 1-.3-.21l-1.32-3.55a.32.32 0 0 0-.6.01l-1.13 3.53a.32.32 0 0 1-.3.22h-3.77a.316.316 0 0 0-.19.06.322.322 0 0 0 0 .52l2.95 2.19a.322.322 0 0 1 .11.36l-1.48 4.29a.32.32 0 0 0 .49.36l3.56-2.7a.322.322 0 0 1 .188-.068.327.327 0 0 1 .192.058l3.61 2.68c.055.039.121.06.188.06a.323.323 0 0 0 .303-.223.323.323 0 0 0-.001-.197l-1.59-4.28a.32.32 0 0 1 .11-.37l3.03-2.16a.317.317 0 0 0 .119-.355.322.322 0 0 0-.299-.225h-3.87Zm-79.34 9.06 1.82 1.57c.28.24.357.53.23.87l-1.37 3.8c-.26.707-.083.837.53.39l3.42-2.51c.22-.16.44-.16.66 0l3.54 2.49c.527.373.677.253.45-.36l-1.44-3.87c-.147-.393-.053-.713.28-.96l2.57-1.91c.513-.38.453-.57-.18-.57h-2.79a1.745 1.745 0 0 1-1.045-.346 1.763 1.763 0 0 1-.635-.904l-.73-2.39c-.267-.873-.543-.873-.83 0l-.99 3.01c-.14.42-.43.63-.87.63h-3.07a.333.333 0 0 0-.293.178.33.33 0 0 0 .023.342c.22.32.46.5.72.54Zm55.3.44h-2.81c-.713 0-.787.217-.22.65l2.25 1.7c.253.187.333.433.24.74l-1.48 4.58c-.16.507-.037.59.37.25l3.45-2.88c.307-.253.617-.263.93-.03l3.64 2.72c.473.353.607.253.4-.3l-1.56-4.19c-.133-.353-.047-.647.26-.88l2.52-1.91c.66-.507.573-.747-.26-.72l-3.2.08c-.387.013-.647-.16-.78-.52l-1.19-3.17c-.273-.72-.517-.713-.73.02l-.95 3.2c-.127.44-.42.66-.88.66Zm-17.93 2.3a.312.312 0 0 1-.3.2h-3.49a.31.31 0 0 0-.19.55l2.76 2.18a.312.312 0 0 1 .1.35l-1.5 4.28a.31.31 0 0 0 .48.35l3.68-2.65a.314.314 0 0 1 .18-.058c.065 0 .127.021.18.058l3.66 2.71a.309.309 0 0 0 .379.006.313.313 0 0 0 .101-.366l-1.63-4.37a.308.308 0 0 1 .11-.36l3.08-2.23a.31.31 0 0 0-.2-.56l-3.92.16a.31.31 0 0 1-.3-.21l-1.23-3.7a.308.308 0 0 0-.291-.22.317.317 0 0 0-.184.056.315.315 0 0 0-.115.154l-1.36 3.67Zm59.01 3.78a.308.308 0 0 1 .11.36l-1.62 4.35a.312.312 0 0 0 .101.366.31.31 0 0 0 .379-.006l3.76-2.72a.312.312 0 0 1 .37.01l3.65 2.74a.309.309 0 0 0 .379.006.313.313 0 0 0 .101-.366l-1.61-4.46a.308.308 0 0 1 .11-.36l3.1-2.19a.31.31 0 0 0-.18-.56h-4.04a.309.309 0 0 1-.29-.21l-1.21-3.51a.308.308 0 0 0-.291-.22.317.317 0 0 0-.184.056.315.315 0 0 0-.115.154l-1.34 3.77a.312.312 0 0 1-.29.21h-3.45a.319.319 0 0 0-.181.06.315.315 0 0 0-.111.346.31.31 0 0 0 .112.154l2.74 2.02Zm-78.68 5.82-2.97.15c-.58.027-.633.21-.16.55l2.31 1.69c.253.187.33.427.23.72l-1.45 4.25c-.213.627-.057.74.47.34l3.55-2.72c.233-.18.467-.18.7 0l3.52 2.71c.507.387.653.28.44-.32l-1.46-4.11c-.127-.353-.04-.64.26-.86l2.6-1.93c.56-.413.49-.62-.21-.62h-3.17a.96.96 0 0 1-.81-.4c-.56-.73-.98-3.17-1.41-3.39-.287-.147-.483-.067-.59.24l-1.07 3.11c-.133.373-.393.57-.78.59Zm16.14 9.89a.315.315 0 0 1-.111.155.313.313 0 0 1-.179.065l-3.38.14a.321.321 0 0 0-.299.225.323.323 0 0 0 .119.355l2.69 1.99a.322.322 0 0 1 .11.36l-1.33 4.2a.322.322 0 0 0 .319.427.323.323 0 0 0 .191-.077l3.36-2.67a.322.322 0 0 1 .4-.01l3.7 2.89a.315.315 0 0 0 .383-.002.313.313 0 0 0 .115-.166.325.325 0 0 0-.008-.202l-1.69-4.39a.32.32 0 0 1 .11-.38l3.35-2.49a.322.322 0 0 0 .1-.366.32.32 0 0 0-.32-.204l-4.04.38a.324.324 0 0 1-.33-.2l-1.46-3.66a.321.321 0 0 0-.307-.199.323.323 0 0 0-.293.219l-1.2 3.61ZM735.46 123l-7.71-.04c-.46-11.95-5.21-33.16-21.38-30.34-14.07 2.45-22.44 22.48-25.41 34.38l-9.92-1c-.46-10.49-4.41-35.62-19.55-35.18-12.83.38-19.8 18.98-22.49 28.97l-11.46-3.29.52-53.3c0-.393.193-.553.58-.48 36.02 6.74 74.96.14 110.61-6.19 3.56-.633 7.253.23 11.08 2.59 7.47 4.62 4.98 12.63 3.76 19.6-2.58 14.82-5.457 29.58-8.63 44.28Z"/><path fill="#E30002" d="M172.41 62.67c.95.23 3.2-.4 3.72-.11.353.187.367.397.04.63l-2.72 1.94c-.32.227-.417.527-.29.9l1.46 4.16c.187.533.053.633-.4.3l-3.48-2.58c-.313-.233-.623-.23-.93.01l-3.19 2.48a.37.37 0 0 1-.58-.42l1.43-3.91c.133-.367.04-.66-.28-.88l-2.42-1.7c-.7-.493-.62-.74.24-.74h3.02c.373 0 .617-.177.73-.53l1.09-3.18a.37.37 0 0 1 .69-.01l1.11 2.97c.133.36.387.583.76.67Zm-19.34 7.95 1.69 4.46a.312.312 0 0 1-.108.367.308.308 0 0 1-.382-.017l-3.57-2.92a.308.308 0 0 0-.38-.01l-3.9 2.98a.31.31 0 0 1-.48-.36l1.69-4.43a.307.307 0 0 0-.11-.36l-2.68-2.02a.306.306 0 0 1-.112-.157.308.308 0 0 1 .302-.403h3.39a.31.31 0 0 0 .29-.21l1.29-3.86a.31.31 0 0 1 .58-.01l1.34 3.63a.307.307 0 0 0 .29.2h4.03a.311.311 0 0 1 .292.417.31.31 0 0 1-.122.153l-3.23 2.18a.311.311 0 0 0-.11.37Zm-18.48 2.65 3.7-.03a.36.36 0 0 1 .21.65l-3.01 2.13a.363.363 0 0 0-.12.42l1.67 4.21a.364.364 0 0 1-.117.417.36.36 0 0 1-.433.003l-3.6-2.77a.36.36 0 0 0-.44.01l-3.65 2.93a.361.361 0 0 1-.569-.18.362.362 0 0 1 .009-.23l1.72-4.38a.362.362 0 0 0-.13-.42l-2.6-1.88a.358.358 0 0 1-.129-.4.357.357 0 0 1 .339-.25h3.16a.359.359 0 0 0 .34-.24l1.26-3.71a.36.36 0 0 1 .68-.01l1.37 3.5a.362.362 0 0 0 .34.23Z"/><path fill="#FFEF9B" d="M607.63 78.59c-.29 27.3-.54 54.62-1.42 81.91-6.18-1.02-12.37-1.99-18.57-2.91-52.15-7.73-106.21.71-154.93 20.16l-17.17-89c.9-.04 2.553-.37 4.96-.99a582.652 582.652 0 0 1 116-17.65c23.8-1.19 48.99-.32 71.13 8.48Zm-55.61-1.17c-.19 5.41 5.18 7.75 9.6 4.36a1.217 1.217 0 0 1 1.44-.02c4.47 3.15 8.59-.84 8.37-5.55a.34.34 0 0 0-.65-.14c-2.02 3.973-4.853 4.633-8.5 1.98-.313-.227-.613-.203-.9.07-3.333 3.207-6.303 2.93-8.91-.83-.28-.4-.43-.357-.45.13Zm17.46 56.53c-.473-14.98-1.263-29.96-2.37-44.94-.25-3.37-1.83-4.66-4.69-5.85-.333-.14-.627-.083-.88.17l-3.24 3.25c-.253.247-.36.547-.32.9l4.62 46.58c.073.74-.203.907-.83.5-16.29-10.48-19.95-30.52-12.23-47.69.167-.373.113-.407-.16-.1-3.467 3.88-5.937 8.19-7.41 12.93-5.11 16.46 2.89 32.74 18.11 40.52a.323.323 0 0 1 .175.296.328.328 0 0 1-.056.171.326.326 0 0 1-.139.113 38.046 38.046 0 0 1-11.81 2.92c-.94.08-.943.197-.01.35 4.933.827 9.82.67 14.66-.47.353-.08.643.023.87.31l2.96 3.82c.36.467.683.443.97-.07l2.41-4.3a.647.647 0 0 1 .67-.35c5.147.46 10.163-.187 15.05-1.94.953-.34.923-.463-.09-.37a39.05 39.05 0 0 1-12.47-.83.383.383 0 0 1-.271-.506.37.37 0 0 1 .131-.164c19.05-13.77 20.14-39.25 2.36-54.49a.22.22 0 0 0-.368.147.218.218 0 0 0 .048.153c11.02 15.18 9.39 36.76-5.12 49.19-.36.307-.55.223-.57-.25Zm9.46-50.14c16.26 11.52 20.42 32.58 10.47 49.52a.19.19 0 0 0-.046.139.191.191 0 0 0 .336.111c19.32-15.67 13.28-44.66-10.98-50.44a.23.23 0 0 0-.273.189.229.229 0 0 0 .013.121c.1.24.26.36.48.36Zm-33.2 2.09c-22.59 8.96-24.65 39.35-3.12 51.29.813.453.927.32.34-.4-12.69-15.69-11.26-36.46 2.97-50.6.4-.4.337-.497-.19-.29Zm-300.05-6.56c1.593 4.253 2.917 8.93 3.97 14.03-20.24-6.14-39.48-5.81-60.1-.94-.347.087-.57-.047-.67-.4l-4.18-15.01a.563.563 0 0 1 .059-.436.572.572 0 0 1 .351-.264 115.97 115.97 0 0 1 32.13-3.57c8.807.24 18.287 2.437 28.44 6.59Zm155.77-2.09C378.61 92.64 353.8 101.56 326 107c-.327.06-.653.057-.98-.01-.847-.193-1.34.143-1.48 1.01l-2.54.46a2.23 2.23 0 0 0-1.5-.2 168.07 168.07 0 0 1-33.75 3.15c-8.34-.07-14.64-.53-20.39-5.77-.273-.253-.553-.26-.84-.02-.253.207-.357.417-.31.63l-2.08-7.47c-.1-.373.033-.497.4-.37 35.95 12.55 80.9-.91 113.83-16.9 3.847-1.867 7.703-3.723 11.57-5.57 5.3-2.52 9.78-3.81 13.53 1.31Z"/><path fill="#E30002" d="M561.62 81.78c-4.42 3.39-9.79 1.05-9.6-4.36.02-.487.17-.53.45-.13 2.607 3.76 5.577 4.037 8.91.83.287-.273.587-.297.9-.07 3.647 2.653 6.48 1.993 8.5-1.98a.339.339 0 0 1 .382-.193.34.34 0 0 1 .268.333c.22 4.71-3.9 8.7-8.37 5.55a1.223 1.223 0 0 0-.725-.226c-.259.003-.51.09-.715.246Zm-454.59 2.04-2.48-1.79c-.433-.313-.383-.49.15-.53l3.12-.23c.367-.027.61-.217.73-.57l1.11-3.28c.247-.74.483-.737.71.01l1.03 3.32c.107.333.333.5.68.5h3.47c.587 0 .653.187.2.56l-2.48 2.03c-.333.273-.423.617-.27 1.03l1.51 4.05c.193.5.073.59-.36.27l-3.55-2.68c-.32-.24-.64-.237-.96.01l-3.52 2.69c-.467.36-.603.26-.41-.3l1.55-4.34c.113-.307.037-.557-.23-.75Z"/><path fill="#fff" d="M401.46 77.25c1.947 3.98 3.093 8.113 3.44 12.4l-17.65 10.89c-13.733-8.1-22.887-4.38-27.46 11.16l-19 5.05c-4.7-5.18-10.11-8.91-17.25-8.75.14-.867.633-1.203 1.48-1.01.327.067.653.07.98.01 27.8-5.44 52.61-14.36 75.46-29.75Z"/><path fill="#E30002" d="m161.59 81.77 1.25-3.28c.273-.713.53-.71.77.01l1.1 3.37c.14.427.423.57.85.43a5.263 5.263 0 0 1 3.22-.05c.367.113.397.29.09.53l-2.52 1.93c-.3.227-.387.517-.26.87l1.42 3.87c.273.74.093.873-.54.4l-3.32-2.5c-.273-.2-.547-.2-.82 0l-3.31 2.48c-.58.44-.757.313-.53-.38l1.29-3.89c.133-.393.03-.713-.31-.96l-2.21-1.6c-.68-.5-.597-.75.25-.75h2.88c.34 0 .573-.16.7-.48Zm-14.34 4.04 4.38-.19a.3.3 0 0 1 .18.55l-3.63 2.46a.3.3 0 0 0-.11.35l1.53 4.1a.298.298 0 0 1-.097.35.3.3 0 0 1-.363 0l-3.46-2.7a.302.302 0 0 0-.37.01l-3.43 2.72a.301.301 0 0 1-.47-.142.303.303 0 0 1 0-.188l1.49-4.12a.3.3 0 0 0-.11-.35l-3.66-2.42a.301.301 0 0 1-.005-.497.3.3 0 0 1 .185-.053l4.38.14a.3.3 0 0 0 .3-.22l1.17-4.22a.302.302 0 0 1 .285-.206.3.3 0 0 1 .285.206l1.22 4.21a.302.302 0 0 0 .3.21ZM92.72 87h3.56c.547 0 .603.167.17.5l-2.66 2.05c-.327.253-.42.573-.28.96l1.47 4.04a.3.3 0 0 1-.46.34l-3.44-2.66c-.267-.207-.533-.21-.8-.01l-3.49 2.62c-.533.4-.69.283-.47-.35l1.42-4.07c.113-.32.037-.583-.23-.79l-2.21-1.71c-.473-.367-.42-.63.16-.79a3.365 3.365 0 0 1 2.03.09c.312.106.653.086.95-.056.295-.142.522-.395.63-.704l1.08-3.07c.26-.747.523-.75.79-.01l1.16 3.18c.107.293.313.44.62.44Zm477.33 47.2c14.51-12.43 16.14-34.01 5.12-49.19a.218.218 0 0 1 .021-.298.222.222 0 0 1 .299-.002c17.78 15.24 16.69 40.72-2.36 54.49a.37.37 0 0 0-.131.164.37.37 0 0 0 .084.399c.051.053.116.09.187.107a39.05 39.05 0 0 0 12.47.83c1.013-.093 1.043.03.09.37-4.887 1.753-9.903 2.4-15.05 1.94a.647.647 0 0 0-.67.35l-2.41 4.3c-.287.513-.61.537-.97.07l-2.96-3.82c-.227-.287-.517-.39-.87-.31a36.79 36.79 0 0 1-14.66.47c-.933-.153-.93-.27.01-.35a38.046 38.046 0 0 0 11.81-2.92.326.326 0 0 0 .139-.113.317.317 0 0 0-.119-.467c-15.22-7.78-23.22-24.06-18.11-40.52 1.473-4.74 3.943-9.05 7.41-12.93.273-.307.327-.273.16.1-7.72 17.17-4.06 37.21 12.23 47.69.627.407.903.24.83-.5l-4.62-46.58c-.04-.353.067-.653.32-.9l3.24-3.25c.253-.253.547-.31.88-.17 2.86 1.19 4.44 2.48 4.69 5.85 1.107 14.98 1.897 29.96 2.37 44.94.02.473.21.557.57.25Z"/><path fill="#E30002" d="M578.94 83.81c-.22 0-.38-.12-.48-.36a.229.229 0 0 1 .038-.233.227.227 0 0 1 .222-.077c24.26 5.78 30.3 34.77 10.98 50.44a.191.191 0 1 1-.29-.25c9.95-16.94 5.79-38-10.47-49.52Zm-36.32 53.38c-21.53-11.94-19.47-42.33 3.12-51.29.527-.207.59-.11.19.29-14.23 14.14-15.66 34.91-2.97 50.6.587.72.473.853-.34.4ZM123.57 93l1.21-3.88a.31.31 0 0 1 .59 0l1.16 3.91a.313.313 0 0 0 .3.22h3.82a.313.313 0 0 1 .292.215.31.31 0 0 1-.112.345L127.97 96a.309.309 0 0 0-.1.36l1.71 4.47a.311.311 0 0 1-.302.425.319.319 0 0 1-.188-.075l-3.7-2.96a.309.309 0 0 0-.38 0l-3.72 2.85a.308.308 0 0 1-.37.004.31.31 0 0 1-.11-.354l1.64-4.56a.313.313 0 0 0 .002-.2.312.312 0 0 0-.122-.16l-2.91-1.93a.307.307 0 0 1-.114-.34.312.312 0 0 1 .284-.22l3.69-.09a.312.312 0 0 0 .29-.22Z"/><path fill="#FFEF9B" d="m404.9 89.65 3.81 19.6a54.022 54.022 0 0 1-10.67 6.25 53.093 53.093 0 0 0-10.79-14.96l17.65-10.89Z"/><path fill="#E30002" d="M671.04 126c.16 12.44-1.62 24.56-5.34 36.36-.1.333-.02.613.24.84l4.53 4c.253.22.26.447.02.68l-8.12 7.74c-.307.293-.54.247-.7-.14-4.14-10.013-11.363-13.117-21.67-9.31-3.587 1.32-5.943 4.13-7.07 8.43-.12.467-.37.553-.75.26l-10.32-7.99c-.353-.273-.317-.473.11-.6 2.053-.62 3.743-1.827 5.07-3.62.213-.28.293-.593.24-.94-2.18-14.053-1.607-28.027 1.72-41.92 2.69-9.99 9.66-28.59 22.49-28.97 15.14-.44 19.09 24.69 19.55 35.18Zm-25.94-18.33c9.51 3.7 13.83 15.42 2.43 20.44-.447.2-.463.43-.05.69 5.68 3.6 8.18 10.55 3.92 16.3-3.407 4.6-8.303 6.697-14.69 6.29-.24-.013-.353.097-.34.33l.2 4.29a.603.603 0 0 0 .54.569.595.595 0 0 0 .28-.039c6.32-2.52 12.69-2.623 19.11-.31a.566.566 0 0 0 .448-.03.558.558 0 0 0 .282-.35 101.64 101.64 0 0 0 3.78-23.85c.32-8.48-.85-24.96-8.05-30.85a2.033 2.033 0 0 0-1.148-.457 1.989 1.989 0 0 0-1.192.297 15.761 15.761 0 0 0-5.73 6.12c-.14.267-.07.453.21.56ZM174.19 96h3.31a.31.31 0 0 0 .29-.19l1.42-3.49a.308.308 0 0 1 .29-.2.31.31 0 0 1 .29.2l1.39 3.4a.31.31 0 0 0 .3.2l3.81-.25a.308.308 0 0 1 .325.398.307.307 0 0 1-.115.162l-3.06 2.38a.313.313 0 0 0-.1.35l1.49 4.3a.31.31 0 0 1-.48.35l-3.52-2.69a.31.31 0 0 0-.38 0l-3.69 2.73a.309.309 0 0 1-.379.006.313.313 0 0 1-.101-.366l1.58-4.31a.309.309 0 0 0-.1-.36L174 96.56a.306.306 0 0 1-.112-.157.308.308 0 0 1 .302-.403Zm553.56 26.96c-.127 16.587-4.67 31.76-13.63 45.52-.187.293-.19.587-.01.88a10.95 10.95 0 0 0 4.49 4.11c.44.227.45.47.03.73l-12.14 7.4c-.607.367-.793.213-.56-.46l.79-2.29a1.9 1.9 0 0 0 .04-1.09c-2.27-8.83-13.33-11.4-20.18-6.57-2.05 1.45-3.39 4.2-4.64 6.46-.167.3-.367.32-.6.06l-8.19-9.15a.27.27 0 0 1-.052-.099.258.258 0 0 1 .027-.213.254.254 0 0 1 .075-.078l7.08-4.81c.38-.26.503-.61.37-1.05-3.27-10.91-2.24-24.37.31-35.31 2.97-11.9 11.34-31.93 25.41-34.38 16.17-2.82 20.92 18.39 21.38 30.34Zm-37.96 33.79c-.173.873.007 1.603.54 2.19.367.407.637.35.81-.17a.802.802 0 0 1 .15-.27l.43.32c.24.187.513.267.82.24 4.6-.433 8.953.393 13.06 2.48.34.173.63.113.87-.18 9.41-11.5 12.07-31.1 10.38-45.33-.6-5.073-1.83-8.73-3.69-10.97-5.23-6.32-12.13 1.01-14.32 5.89-.153.34-.057.587.29.74 7.05 3.19 11 12.53 2.01 16.62-.34.16-.363.357-.07.59 13.32 10.57 1.54 23.3-11.38 23.01-.367-.007-.573.17-.62.53-.22 1.58.02 3.017.72 4.31Zm-302.54-56.21a53.093 53.093 0 0 1 10.79 14.96l4.25 11.25a117.14 117.14 0 0 1 3.75 16.75l.75 14c-.133 8.447-2.207 16.38-6.22 23.8-3.96 5.32-9.207 7.61-15.74 6.87-7.57-3.05-11.56-7.68-16.08-14.46l-5.25-11a113.797 113.797 0 0 1-4.79-18.71l-1.25-12c-.22-7.04.557-13.807 2.33-20.3 4.573-15.54 13.727-19.26 27.46-11.16Zm-7.58 70.37c2.25 2.97 4.46 5.84 8.21 7.02.353.113.687.067 1-.14 2.7-1.8 4.407-4.317 5.12-7.55.087-.38-.06-.607-.44-.68-10.92-2.3-17.18-11.65-11.94-22.5a48.13 48.13 0 0 1 3.07-5.41c.22-.347.133-.573-.26-.68-5.78-1.6-9.06-5.79-8.87-11.92.21-6.7 3.53-11.32 8.18-15.93.22-.22.24-.457.06-.71a16.66 16.66 0 0 0-6.88-5.82 1.546 1.546 0 0 0-1.05-.09c-4.16 1.12-6.26 7.79-6.8 11.51-2.4 16.44.29 39.23 10.6 52.9Zm-275.1-65.15-3.6 2.78a.327.327 0 0 1-.192.07.322.322 0 0 1-.308-.43l1.56-4.38a.32.32 0 0 0-.13-.37l-3.03-2.03a.318.318 0 0 1-.136-.359.321.321 0 0 1 .306-.231l3.87-.09a.318.318 0 0 0 .3-.23l1.17-3.7a.318.318 0 0 1 .491-.17.32.32 0 0 1 .119.16l1.31 3.76a.318.318 0 0 0 .3.21h3.71a.316.316 0 0 1 .19.06.322.322 0 0 1 0 .52l-2.89 2.13a.32.32 0 0 0-.11.37l1.57 4.28a.32.32 0 0 1-.49.36l-3.62-2.71a.319.319 0 0 0-.39 0Zm49.1-1.78-2.63-2.16a.316.316 0 0 1-.102-.356.317.317 0 0 1 .302-.214h3.33a.32.32 0 0 0 .31-.21l1.33-3.73a.323.323 0 0 1 .303-.204.318.318 0 0 1 .297.214l1.26 3.75a.32.32 0 0 0 .33.22l4.09-.38a.313.313 0 0 1 .193.05.315.315 0 0 1 .137.353.322.322 0 0 1-.11.167l-3.26 2.42a.322.322 0 0 0-.11.36l1.44 4.19a.317.317 0 0 1-.114.369.322.322 0 0 1-.194.061.327.327 0 0 1-.192-.07l-3.51-2.6a.327.327 0 0 0-.192-.058.322.322 0 0 0-.188.068l-3.62 2.76a.327.327 0 0 1-.192.07.322.322 0 0 1-.308-.43l1.5-4.29a.327.327 0 0 0 .005-.191.323.323 0 0 0-.105-.159Z"/><path fill="#FFEF9B" d="m253.5 108.12 4.71 16.63c-19.887-5.28-39.74-5.333-59.56-.16a.587.587 0 0 1-.443-.061.609.609 0 0 1-.277-.359l-5.54-19.71c-.087-.3.02-.487.32-.56 20.31-5.01 41.55-4.87 60.79 4.22Z"/><path fill="#fff" d="M645.1 107.67c-.28-.107-.35-.293-.21-.56 1.36-2.56 3.27-4.6 5.73-6.12a1.989 1.989 0 0 1 1.192-.297c.42.029.821.189 1.148.457 7.2 5.89 8.37 22.37 8.05 30.85a101.64 101.64 0 0 1-3.78 23.85.556.556 0 0 1-.503.412.566.566 0 0 1-.227-.032c-6.42-2.313-12.79-2.21-19.11.31a.595.595 0 0 1-.546-.054.598.598 0 0 1-.274-.476l-.2-4.29c-.013-.233.1-.343.34-.33 6.387.407 11.283-1.69 14.69-6.29 4.26-5.75 1.76-12.7-3.92-16.3-.413-.26-.397-.49.05-.69 11.4-5.02 7.08-16.74-2.43-20.44Z"/><path fill="#E30002" d="M139.77 105.5h3.97a.31.31 0 0 1 .19.56l-3.12 2.38a.308.308 0 0 0-.11.36l1.62 4.15a.306.306 0 0 1-.094.365.308.308 0 0 1-.376.005l-3.69-2.67a.312.312 0 0 0-.37.01l-3.69 2.78a.309.309 0 0 1-.379.006.313.313 0 0 1-.101-.366l1.68-4.34a.31.31 0 0 0-.1-.36l-2.87-2.07a.312.312 0 0 1 .18-.56h3.53a.307.307 0 0 0 .3-.22l1.23-3.84a.308.308 0 0 1 .291-.22.317.317 0 0 1 .184.056.315.315 0 0 1 .115.154l1.32 3.62a.307.307 0 0 0 .29.2Z"/><path fill="#fff" d="m691.29 158.5-1.5-1.75c-.7-1.293-.94-2.73-.72-4.31.047-.36.253-.537.62-.53 12.92.29 24.7-12.44 11.38-23.01-.293-.233-.27-.43.07-.59 8.99-4.09 5.04-13.43-2.01-16.62-.347-.153-.443-.4-.29-.74 2.19-4.88 9.09-12.21 14.32-5.89 1.86 2.24 3.09 5.897 3.69 10.97 1.69 14.23-.97 33.83-10.38 45.33-.24.293-.53.353-.87.18-4.107-2.087-8.46-2.913-13.06-2.48a1.127 1.127 0 0 1-.82-.24l-.43-.32ZM321 108.46c-6.727 2.873-11.073 7.887-13.04 15.04-1.953-.28-3.44-.363-4.46-.25a123.85 123.85 0 0 1-34.96-1l-4.33-16c-.047-.213.057-.423.31-.63.287-.24.567-.233.84.02 5.75 5.24 12.05 5.7 20.39 5.77a168.07 168.07 0 0 0 33.75-3.15 2.23 2.23 0 0 1 1.5.2Zm66.88 69.47c-3.75-1.18-5.96-4.05-8.21-7.02-10.31-13.67-13-36.46-10.6-52.9.54-3.72 2.64-10.39 6.8-11.51.36-.093.71-.063 1.05.09a16.66 16.66 0 0 1 6.88 5.82c.18.253.16.49-.06.71-4.65 4.61-7.97 9.23-8.18 15.93-.19 6.13 3.09 10.32 8.87 11.92.393.107.48.333.26.68a48.13 48.13 0 0 0-3.07 5.41c-5.24 10.85 1.02 20.2 11.94 22.5.38.073.527.3.44.68-.713 3.233-2.42 5.75-5.12 7.55a1.114 1.114 0 0 1-1 .14Z"/><path fill="#E30002" d="M323.54 108c7.14-.16 12.55 3.57 17.25 8.75a65.725 65.725 0 0 1 9.75 17l3.96 12.54a105.233 105.233 0 0 1 2.28 18.15l-.56 12.2c-1.59 9.04-4.48 17.73-13.22 22.32l-5.5 1.08c-9.75-.81-16.17-8.09-21-15.83l-5.75-12.5a165.432 165.432 0 0 1-4.54-17.71l-1-12.25a73.795 73.795 0 0 1 2.75-18.25c1.967-7.153 6.313-12.167 13.04-15.04l2.54-.46Zm8.4 78.56c4.31 4.45 9.11 3.18 11.09-2.51.107-.3.003-.483-.31-.55-12.6-2.63-18.58-17.44-8.21-26.91.293-.267.263-.487-.09-.66-16.54-8.28-16-21.27-.04-29.13.333-.16.4-.397.2-.71-1.88-2.91-6.05-7.53-9.89-7.36-7.25.32-8.65 17.54-8.6 22.51.17 15.91 4.44 33.57 15.85 45.32Zm-218.1-73.31h3.56a.282.282 0 0 0 .26-.18l1.42-3.81a.284.284 0 0 1 .265-.19.283.283 0 0 1 .265.19l1.33 3.9a.28.28 0 0 0 .3.19l3.12-.42a.28.28 0 0 1 .19.05l.48.31a.285.285 0 0 1 .129.217.28.28 0 0 1-.099.233l-2.8 2.25a.278.278 0 0 0-.09.31l1.51 4.31c.02.057.022.118.005.176a.288.288 0 0 1-.101.144.279.279 0 0 1-.334 0l-3.58-2.78a.281.281 0 0 0-.34-.01l-3.81 2.8a.279.279 0 0 1-.334 0 .288.288 0 0 1-.101-.144.286.286 0 0 1 .005-.176l1.57-4.39a.282.282 0 0 0-.1-.32l-2.89-2.16a.275.275 0 0 1-.095-.14.282.282 0 0 1 .265-.36Z"/><path fill="#fff" d="m408.71 109.25 2.42 12.63-8.84 4.87-4.25-11.25a54.022 54.022 0 0 0 10.67-6.25Z"/><path fill="#E30002" d="M172.53 114h3.87a.321.321 0 0 1 .299.225.323.323 0 0 1-.119.355l-3.03 2.16a.32.32 0 0 0-.11.37l1.59 4.28a.316.316 0 0 1-.115.357.323.323 0 0 1-.187.063.326.326 0 0 1-.188-.06l-3.61-2.68a.327.327 0 0 0-.192-.058.322.322 0 0 0-.188.068l-3.56 2.7a.326.326 0 0 1-.188.06.321.321 0 0 1-.302-.42l1.48-4.29a.322.322 0 0 0-.11-.36l-2.95-2.19a.323.323 0 0 1-.118-.36.326.326 0 0 1 .118-.16.316.316 0 0 1 .19-.06h3.77a.32.32 0 0 0 .3-.22l1.13-3.53a.319.319 0 0 1 .48-.159.32.32 0 0 1 .12.149l1.32 3.55a.31.31 0 0 0 .117.152.316.316 0 0 0 .183.058Z"/><path fill="#FFEF9B" d="M359.79 111.7c-1.773 6.493-2.55 13.26-2.33 20.3l-6.92 1.75a65.725 65.725 0 0 0-9.75-17l19-5.05Zm257.75 4.8 11.46 3.29c-3.327 13.893-3.9 27.867-1.72 41.92.053.347-.027.66-.24.94-1.327 1.793-3.017 3-5.07 3.62-.427.127-.463.327-.11.6l10.32 7.99c.38.293.63.207.75-.26 1.127-4.3 3.483-7.11 7.07-8.43 10.307-3.807 17.53-.703 21.67 9.31.16.387.393.433.7.14l8.12-7.74c.24-.233.233-.46-.02-.68l-4.53-4c-.26-.227-.34-.507-.24-.84 3.72-11.8 5.5-23.92 5.34-36.36l9.92 1c-2.55 10.94-3.58 24.4-.31 35.31.133.44.01.79-.37 1.05l-7.08 4.81a.254.254 0 0 0-.111.181.258.258 0 0 0 .009.11.27.27 0 0 0 .052.099l8.19 9.15c.233.26.433.24.6-.06 1.25-2.26 2.59-5.01 4.64-6.46 6.85-4.83 17.91-2.26 20.18 6.57a1.9 1.9 0 0 1-.04 1.09l-.79 2.29c-.233.673-.047.827.56.46l12.14-7.4c.42-.26.41-.503-.03-.73a10.95 10.95 0 0 1-4.49-4.11c-.18-.293-.177-.587.01-.88 8.96-13.76 13.503-28.933 13.63-45.52l7.71.04-18.25 91.75-9.9 4.46a.52.52 0 0 0-.32.47c-.007.093-.003.187.01.28-6.7.88-11.34-12.63-2.63-15.14a.36.36 0 0 0 .247-.258.332.332 0 0 0-.107-.332l-8.48-7.51c-.22-.2-.423-.18-.61.06-3.407 4.433-5.473 9.413-6.2 14.94-.233 1.787-1.033 3.237-2.4 4.35-13.69 11.17-32.01 9.96-44.04-3a1.573 1.573 0 0 1-.41-.86c-.87-5.67-4.11-8.46-6.93-13.04-.233-.38-.517-.423-.85-.13l-6.58 5.73a.441.441 0 0 0-.158.38.453.453 0 0 0 .218.35c7.59 4.51 7.2 13.95-1.54 16.35-.327.093-.5.31-.52.65l-.05 1a48.167 48.167 0 0 1-9.92-2.25l1.5-104.75Z"/><path fill="#E30002" d="M93.19 123.06c-.26-.04-.5-.22-.72-.54a.328.328 0 0 1-.023-.342.325.325 0 0 1 .293-.178h3.07c.44 0 .73-.21.87-.63l.99-3.01c.287-.873.563-.873.83 0l.73 2.39c.11.362.332.679.635.904.302.225.669.347 1.045.346h2.79c.633 0 .693.19.18.57l-2.57 1.91c-.333.247-.427.567-.28.96l1.44 3.87c.227.613.077.733-.45.36l-3.54-2.49c-.22-.16-.44-.16-.66 0l-3.42 2.51c-.613.447-.79.317-.53-.39l1.37-3.8c.127-.34.05-.63-.23-.87l-1.82-1.57Z"/><path fill="#fff" d="M331.94 186.56c-11.41-11.75-15.68-29.41-15.85-45.32-.05-4.97 1.35-22.19 8.6-22.51 3.84-.17 8.01 4.45 9.89 7.36.2.313.133.55-.2.71-15.96 7.86-16.5 20.85.04 29.13.353.173.383.393.09.66-10.37 9.47-4.39 24.28 8.21 26.91.313.067.417.25.31.55-1.98 5.69-6.78 6.96-11.09 2.51Z"/><path fill="#E30002" d="m149.37 122.84.95-3.2c.213-.733.457-.74.73-.02l1.19 3.17c.133.36.393.533.78.52l3.2-.08c.833-.027.92.213.26.72l-2.52 1.91c-.307.233-.393.527-.26.88l1.56 4.19c.207.553.073.653-.4.3l-3.64-2.72c-.313-.233-.623-.223-.93.03l-3.45 2.88c-.407.34-.53.257-.37-.25l1.48-4.58c.093-.307.013-.553-.24-.74l-2.25-1.7c-.567-.433-.493-.65.22-.65h2.81c.46 0 .753-.22.88-.66Zm-18.81 2.96 1.36-3.67a.31.31 0 0 1 .59.01l1.23 3.7a.311.311 0 0 0 .3.21l3.92-.16a.309.309 0 0 1 .314.401.31.31 0 0 1-.114.159l-3.08 2.23a.308.308 0 0 0-.11.36l1.63 4.37a.312.312 0 0 1-.101.366.31.31 0 0 1-.379-.006l-3.66-2.71a.314.314 0 0 0-.18-.058.314.314 0 0 0-.18.058l-3.68 2.65a.308.308 0 0 1-.37.004.31.31 0 0 1-.11-.354l1.5-4.28a.312.312 0 0 0-.1-.35l-2.76-2.18a.307.307 0 0 1-.097-.341.313.313 0 0 1 .287-.209h3.49a.31.31 0 0 0 .3-.2Z"/><path fill="#FFEF9B" d="m411.13 121.88 2.62 14.33c-2 3.04-4.57 5.47-7.71 7.29a117.14 117.14 0 0 0-3.75-16.75l8.84-4.87Zm-142.59.37a123.85 123.85 0 0 0 34.96 1c1.02-.113 2.507-.03 4.46.25a73.795 73.795 0 0 0-2.75 18.25 95.682 95.682 0 0 1-31.89-1.9l-4.78-17.6Z"/><path fill="#E30002" d="m189.57 129.58-2.74-2.02a.312.312 0 0 1 .18-.56h3.45a.309.309 0 0 0 .29-.21l1.34-3.77a.31.31 0 0 1 .59.01l1.21 3.51a.308.308 0 0 0 .29.21h4.04a.319.319 0 0 1 .181.06.315.315 0 0 1 .111.346.316.316 0 0 1-.112.154l-3.1 2.19a.308.308 0 0 0-.11.36l1.61 4.46a.312.312 0 0 1-.101.366.311.311 0 0 1-.379-.006l-3.65-2.74a.312.312 0 0 0-.37-.01l-3.76 2.72a.31.31 0 0 1-.48-.36l1.62-4.35a.308.308 0 0 0-.11-.36Zm-17.32 12.88c-.08.027-.163.053-.25.08l-3.5-2.56c-.267-.193-.533-.19-.8.01l-3.57 2.73c-.507.387-.653.283-.44-.31l1.51-4.16c.153-.427.04-.763-.34-1.01l-2.31-1.54a.377.377 0 0 1-.159-.429.38.38 0 0 1 .369-.271h3.01c.367 0 .61-.173.73-.52l1.13-3.31c.247-.727.5-.73.76-.01l1.13 3.18c.093.273.283.41.57.41h3.69c.553 0 .613.17.18.51l-2.87 2.27c-.253.2-.33.453-.23.76l1.39 4.17Zm-60.58-7.65 1.07-3.11c.107-.307.303-.387.59-.24.43.22.85 2.66 1.41 3.39.2.267.47.4.81.4h3.17c.7 0 .77.207.21.62l-2.6 1.93c-.3.22-.387.507-.26.86l1.46 4.11c.213.6.067.707-.44.32l-3.52-2.71c-.233-.18-.467-.18-.7 0l-3.55 2.72c-.527.4-.683.287-.47-.34l1.45-4.25c.1-.293.023-.533-.23-.72l-2.31-1.69c-.473-.34-.42-.523.16-.55l2.97-.15c.387-.02.647-.217.78-.59Z"/><path fill="#fff" d="m357.46 132 1.25 12-4.21 2.29-3.96-12.54 6.92-1.75Z"/><path fill="#FFEF9B" d="m263.25 143.96 2.25 8.5c-.68.13-.96.35-1.66.15-17.547-4.873-34.83-5.41-51.85-1.61-30.307 6.767-66.017 15.54-107.13 26.32L101 165.04l2-.58 3.77-2.67a1.056 1.056 0 0 1 1.27.03l3.16 2.51c.547.433.72.317.52-.35l-.72-2.44c1.033-.047 1.847-.16 2.44-.34a8260.517 8260.517 0 0 1 33.06-9.93c2.473-.74 4.307-1.177 5.5-1.31l.54.19c.253.087.4-.003.44-.27l.06-.38a267.637 267.637 0 0 1 18.53-5.71c.7-.19.94-.64.43-1.25.087-.027.17-.053.25-.08.533.533 1.257.677 2.17.43 29.46-7.8 57.31-16.36 85.64-4.04.28.122.519.322.688.576.168.253.26.55.262.854a8.16 8.16 0 0 0 1.07 3.98c.173.293.393.333.66.12l.51-.42Z"/><path fill="#fff" d="m413.75 136.21 2.96 15.04a26.007 26.007 0 0 1-9.92 6.25l-.75-14a22.79 22.79 0 0 0 7.71-7.29Z"/><path fill="#E30002" d="m153.04 149.5-.06.38c-.04.267-.187.357-.44.27l-.54-.19-3.04-2.28c-.32-.247-.64-.243-.96.01l-3.26 2.59a.306.306 0 0 1-.382.017.308.308 0 0 1-.108-.367l1.45-4.12c.127-.353.04-.65-.26-.89l-2.24-1.77c-.547-.433-.47-.65.23-.65h2.87c.38 0 .63-.18.75-.54l1.1-3.27c.213-.633.443-.64.69-.02l1.29 3.24c.127.313.36.463.7.45l3.38-.15c.793-.033.87.187.23.66l-2.66 1.97c-.32.233-.407.533-.26.9l1.52 3.76Z"/><path fill="#fff" d="m305.21 141.75 1 12.25c-9.74.873-19.48.66-29.22-.64l-3.67-13.51a95.682 95.682 0 0 0 31.89 1.9Z"/><path fill="#E30002" d="m127.03 145.29 1.2-3.61a.323.323 0 0 1 .293-.219.321.321 0 0 1 .307.199l1.46 3.66a.32.32 0 0 0 .33.2l4.04-.38a.32.32 0 0 1 .22.57l-3.35 2.49a.323.323 0 0 0-.11.38l1.69 4.39a.325.325 0 0 1 .008.202.313.313 0 0 1-.115.166.315.315 0 0 1-.383.002l-3.7-2.89a.32.32 0 0 0-.4.01l-3.36 2.67a.323.323 0 0 1-.39.021.322.322 0 0 1-.12-.371l1.33-4.2a.322.322 0 0 0-.11-.36l-2.69-1.99a.317.317 0 0 1-.119-.355.322.322 0 0 1 .299-.225l3.38-.14a.313.313 0 0 0 .179-.065.315.315 0 0 0 .111-.155Z"/><path fill="#FFEF9B" d="M358.71 144a113.797 113.797 0 0 0 4.79 18.71c-2.407.027-4.647.603-6.72 1.73a105.233 105.233 0 0 0-2.28-18.15l4.21-2.29Z"/><path fill="#fff" d="m265.5 152.46 4.21 15.54c-13.29-6.1-26.54-8.25-41.06-7.34-6.047.38-10.433.9-13.16 1.56-35.74 8.63-71.18 17.25-106.95 26.53l-3.68-11.43c41.113-10.78 76.823-19.553 107.13-26.32 17.02-3.8 34.303-3.263 51.85 1.61.7.2.98-.02 1.66-.15Z"/><path fill="#FFEF9B" d="m416.71 151.25 3.5 17.5c-5.553 5.767-12.1 9.95-19.64 12.55 4.013-7.42 6.087-15.353 6.22-23.8a26.007 26.007 0 0 0 9.92-6.25Z"/><path fill="#E30002" d="m111 161.54.72 2.44c.2.667.027.783-.52.35l-3.16-2.51a1.056 1.056 0 0 0-1.27-.03l-3.77 2.67 1.49-4.81c.1-.327.007-.583-.28-.77l-2.15-1.41c-.613-.407-.553-.65.18-.73l3.1-.32c.327-.033.543-.207.65-.52l.98-2.9a.413.413 0 0 1 .386-.289.41.41 0 0 1 .394.279l1.11 2.98c.133.353.39.53.77.53h3.41c.6 0 .66.18.18.54l-2.6 1.94c-.3.227-.413.527-.34.9.127.62.367 1.173.72 1.66Z"/><path fill="#FFEF9B" d="M306.21 154c1.187 5.987 2.7 11.89 4.54 17.71l-.85.39a2.788 2.788 0 0 1-.93.24 86.045 86.045 0 0 1-27.5-2.26l-4.48-16.72c9.74 1.3 19.48 1.513 29.22.64Z"/><path fill="#fff" d="m606.21 160.5-.57 54.02a.388.388 0 0 1-.56.35c-7.96-3.773-16.413-6.067-25.36-6.88-46.33-4.19-92.97 6.6-136.98 19.96a.481.481 0 0 1-.203.017.481.481 0 0 1-.417-.387l-9.41-49.83c48.72-19.45 102.78-27.89 154.93-20.16 6.2.92 12.39 1.89 18.57 2.91Z"/><path fill="#FFEF9B" d="m269.71 168 3.5 13.25-.85.15a2.09 2.09 0 0 1-.93-.05c-17.08-4.91-35.4-4.33-52.56-.3-34.98 8.21-70.03 16.41-104.41 25.95l-5.92-18.25c35.77-9.28 71.21-17.9 106.95-26.53 2.727-.66 7.113-1.18 13.16-1.56 14.52-.91 27.77 1.24 41.06 7.34Z"/><path fill="#fff" d="m363.5 162.71 5.25 11c-3.973 1.687-8.15 2.663-12.53 2.93l.56-12.2c2.073-1.127 4.313-1.703 6.72-1.73Zm56.71 6.04 2.83 15.5c-30.92 18.58-68.53 28.19-104.21 31.07-3.953.32-8.177.417-12.67.29-4.22-.113-8.447-.27-12.68-.47l-3.69-13.64c14.64 3.15 31.41 1.65 45.67-.64.7-.11 1.38-.53 2.04-.82l5.5-1.08c.5.12.987.14 1.46.06a234.51 234.51 0 0 0 40.37-10.85c6.533.74 11.78-1.55 15.74-6.87 7.54-2.6 14.087-6.783 19.64-12.55Zm-109.46 2.96 5.75 12.5a118.104 118.104 0 0 1-31.46-.21l-3.57-13.92a86.045 86.045 0 0 0 27.5 2.26c.327-.027.637-.107.93-.24l.85-.39Z"/><path fill="#FFEF9B" d="M368.75 173.71c4.52 6.78 8.51 11.41 16.08 14.46a234.51 234.51 0 0 1-40.37 10.85c-.473.08-.96.06-1.46-.06 8.74-4.59 11.63-13.28 13.22-22.32 4.38-.267 8.557-1.243 12.53-2.93Z"/><path fill="#fff" d="M273.21 181.25c3.23 11.21 8.75 28.58 10.04 42.71-17.69-7.92-37.66-7.81-56.22-3.32-33.51 8.1-67.05 15.95-100.24 24.86l-3.58-11c32.96-9.95 66.49-17.1 99.79-25.26 17.5-4.29 36.61-5.04 54.13-.29a.534.534 0 0 0 .611-.245.56.56 0 0 0-.081-.665c-3.04-3.107-3.35-6.483-.93-10.13.167-.254.229-.563.173-.862a1.191 1.191 0 0 0-.473-.748c-.907-.66-1.983-1.22-3.23-1.68-15.73-5.86-34.42-6.49-50.63-2.52-26.21 6.42-52.7 12.17-78.72 19.26a1074.069 1074.069 0 0 1-25.85 6.68L114.46 207c34.38-9.54 69.43-17.74 104.41-25.95 17.16-4.03 35.48-4.61 52.56.3.307.087.617.103.93.05l.85-.15Z"/><path fill="#FFEF9B" d="M285.04 184a118.104 118.104 0 0 0 31.46.21c4.83 7.74 11.25 15.02 21 15.83-.66.29-1.34.71-2.04.82-14.26 2.29-31.03 3.79-45.67.64l-4.75-17.5Zm138 .25 2.92 15.75c-7.97 7.41-18.01 11.97-28.07 15.82a295.463 295.463 0 0 1-48.54 13.99c-.153-1.713.183-3.197 1.01-4.45.42-.64.263-.867-.47-.68l-12.18 3c-.513.127-.647.423-.4.89l1.4 2.68c-.59.53-.89.94-1.73 1.1a323.66 323.66 0 0 1-37.69 4.65l-5.81-21.86c4.233.2 8.46.357 12.68.47 4.493.127 8.717.03 12.67-.29 35.68-2.88 73.29-12.49 104.21-31.07ZM123.21 234.5 118 218.04c8.647-2.12 17.263-4.347 25.85-6.68 26.02-7.09 52.51-12.84 78.72-19.26 16.21-3.97 34.9-3.34 50.63 2.52 1.247.46 2.323 1.02 3.23 1.68.248.18.417.448.473.748.056.299-.006.608-.173.862-2.42 3.647-2.11 7.023.93 10.13a.558.558 0 0 1 .081.665.534.534 0 0 1-.611.245c-17.52-4.75-36.63-4-54.13.29-33.3 8.16-66.83 15.31-99.79 25.26Z"/><path fill="#E30002" d="m707 219.96.38.23c.313.2.36.45.14.75l-6.46 8.9c-.227.313-.477.333-.75.06l-6.38-6.37c-.273-.273-.553-.283-.84-.03-15.72 13.39-36.52 13.4-52.67 1.02-.3-.227-.587-.21-.86.05a22.133 22.133 0 0 1-8.68 5.03c-.34.107-.64.287-.9.54l-1.3 1.3c-.32.32-.537.263-.65-.17l-2.07-7.77.05-1c.02-.34.193-.557.52-.65 8.74-2.4 9.13-11.84 1.54-16.35a.455.455 0 0 1-.218-.35.44.44 0 0 1 .158-.38l6.58-5.73c.333-.293.617-.25.85.13 2.82 4.58 6.06 7.37 6.93 13.04.047.327.183.613.41.86 12.03 12.96 30.35 14.17 44.04 3 1.367-1.113 2.167-2.563 2.4-4.35.727-5.527 2.793-10.507 6.2-14.94.187-.24.39-.26.61-.06l8.48 7.51a.332.332 0 0 1 .107.332.36.36 0 0 1-.247.258c-8.71 2.51-4.07 16.02 2.63 15.14Z"/><path fill="#fff" d="m425.96 200 2.75 14a152.93 152.93 0 0 1-17.75 10.25c-2.38-.45-4.53-.1-6.92-.63a25.738 25.738 0 0 0-7.63-.55c-.413.033-.533.237-.36.61 1.013 2.133 1.483 4.323 1.41 6.57A500.38 500.38 0 0 1 353 244.04c-5.29-2.5-3.83-9.52-3.65-14.23a295.463 295.463 0 0 0 48.54-13.99c10.06-3.85 20.1-8.41 28.07-15.82Z"/><path fill="#FFEF9B" d="m428.71 214 3.25 16.75c-4.133 3.907-9.27 7.587-15.41 11.04-6.413 3.607-12.24 6.297-17.48 8.07 7.12-7.68 8.88-16.04 11.89-25.61A152.93 152.93 0 0 0 428.71 214Z"/><path fill="#fff" d="M717.21 214.75 704.46 279c-6.36.193-12.7.673-19.02 1.44-.34.04-.82-.037-1.44-.23 1.047-4.807 2.777-9.44 5.19-13.9.187-.353.09-.59-.29-.71l-11.16-3.6c-.387-.127-.61.01-.67.41-1.127 6.96-5.147 10.747-12.06 11.36-27.21 2.41-54.97 5.92-82.26 6.13-10.47.07-22.18-.85-31.8-5.33-8.37-3.89 1.44-11.3 5.77-13.31 12.26-5.69 28.27-7.51 38.21-11.84 6.85-2.98 17.44-9.55 20.06-16.53 1.21-3.24.82-7.96 1.05-11.64a48.167 48.167 0 0 0 9.92 2.25l2.07 7.77c.113.433.33.49.65.17l1.3-1.3c.26-.253.56-.433.9-.54a22.133 22.133 0 0 0 8.68-5.03c.273-.26.56-.277.86-.05 16.15 12.38 36.95 12.37 52.67-1.02.287-.253.567-.243.84.03l6.38 6.37c.273.273.523.253.75-.06l6.46-8.9c.22-.3.173-.55-.14-.75l-.38-.23a1.313 1.313 0 0 1-.01-.28.52.52 0 0 1 .32-.47l9.9-4.46Z"/><path fill="#FFEF9B" d="M283.25 223.96c1.43 4.91.57 11.25-6.01 10.54-31.34-3.36-62.41 1.25-92.65 9.33-12.947 3.46-25.93 6.77-38.95 9.93-8.97 2.17-16.76 2.14-18.85-8.26 33.19-8.91 66.73-16.76 100.24-24.86 18.56-4.49 38.53-4.6 56.22 3.32Z"/><path fill="#E30002" d="M410.96 224.25c-3.01 9.57-4.77 17.93-11.89 25.61-7.7 6.207-16.487 9.47-26.36 9.79-2.68-.353-5.267-.683-7.76-.99-6.38-.8-12.53-2.77-18.57-4.68-1.987-.627-3.967-.3-5.94.98-3.38 2.187-7.617 4.427-12.71 6.72-.273.127-.453.043-.54-.25l-3.46-11.44c6.24-.1 10.753-3.163 13.54-9.19 1.56-3.373 2.04-6.557 1.44-9.55l-1.4-2.68c-.247-.467-.113-.763.4-.89l12.18-3c.733-.187.89.04.47.68-.827 1.253-1.163 2.737-1.01 4.45-.18 4.71-1.64 11.73 3.65 14.23.573.58 1.093.963 1.56 1.15 14.73 5.97 39.93 6.07 42.9-14.94.073-2.247-.397-4.437-1.41-6.57-.173-.373-.053-.577.36-.61 2.62-.193 5.163-.01 7.63.55 2.39.53 4.54.18 6.92.63Z"/><path fill="#FFEF9B" d="M397.46 230.25c-2.97 21.01-28.17 20.91-42.9 14.94-.467-.187-.987-.57-1.56-1.15a500.38 500.38 0 0 0 44.46-13.79Z"/><path fill="#fff" d="m431.96 230.75 2.58 13.75c-13.13 10.73-31.64 18.82-46.95 24.63-30.473 11.58-61.917 19.24-94.33 22.98-1.06.12-2.66.167-4.8.14l10.79-16.79c.78.05 1.23.32 2.01.23a352.78 352.78 0 0 0 71.45-16.04c9.873-.32 18.66-3.583 26.36-9.79 5.24-1.773 11.067-4.463 17.48-8.07 6.14-3.453 11.277-7.133 15.41-11.04Zm-93.25.5c.6 2.993.12 6.177-1.44 9.55-2.787 6.027-7.3 9.09-13.54 9.19l-20.19 2.76-4.25-15.75a323.66 323.66 0 0 0 37.69-4.65c.84-.16 1.14-.57 1.73-1.1Z"/><path fill="#FFEF9B" d="M434.54 244.5c4.76 23.38 9.46 46.77 14.1 70.17.63 3.2 4.72 5.53 7.31 7.13 21.88 13.52 44.35 21.29 70.23 22.19a1.006 1.006 0 0 0 1.01-.73c3.36-11.27 16.67-20.64 26.93-24.43 7.37-2.72 16.17-2.94 24.34-3.23a1.907 1.907 0 0 1 1.5.62c3.21 3.5 1.19 6.35-2.79 7.16-5.99 1.21-11.8-.18-17.46 2.93-10.9 6.01-20.31 19.98-25.72 30.9a.79.79 0 0 1-.68.46c-17.49 1.48-30.77-1.6-48.63-6.81a131.295 131.295 0 0 1-32.02-14.17c-.353-.213-.493-.117-.42.29l56.74 297.14a.628.628 0 0 1-.61.75l-133.09 1.45c-.467.007-.657-.22-.57-.68 9.86-51.91 71.65-49.86 109.15-36.82 2.21.76 4.02 1.96 6.02 3.14.273.16.453.087.54-.22l3.38-11.93c.113-.42-.043-.607-.47-.56-8.77.95-10.28-5.9-11.5-12.56a69178.878 69178.878 0 0 0-39.8-215.06c-5.99-32.08-12.9-64.38-17.03-85.13-.44-2.227-.307-4.503.4-6.83.113-.36-.02-.523-.4-.49l-13.54 1.18c-.38.033-.493.223-.34.57l.84 1.82c-29.973 16.227-61.543 28.31-94.71 36.25-11.34 2.72-33.44 7.82-40.96 1.75a119.236 119.236 0 0 1 12.17-18.5c2.14.027 3.74-.02 4.8-.14 32.413-3.74 63.857-11.4 94.33-22.98 15.31-5.81 33.82-13.9 46.95-24.63Zm-110.81 5.49 3.46 11.44c.087.293.267.377.54.25 5.093-2.293 9.33-4.533 12.71-6.72 1.973-1.28 3.953-1.607 5.94-.98 6.04 1.91 12.19 3.88 18.57 4.68 2.493.307 5.08.637 7.76.99a352.78 352.78 0 0 1-71.45 16.04c-.78.09-1.23-.18-2.01-.23 4.22-7.02 5.65-14.59 4.29-22.71l20.19-2.76Z"/><path fill="#fff" d="M411.96 272.75c2.65 7.58-.78 10.93-7.57 13.74-21.03 8.71-109.38 49.48-126.95 36.08-3.647-2.78-4.03-6.72-1.15-11.82 7.52 6.07 29.62.97 40.96-1.75 33.167-7.94 64.737-20.023 94.71-36.25Z"/><path fill="#FFEF9B" d="m704.46 279-4.58 23.07a1.957 1.957 0 0 1-.65 1.09 74.977 74.977 0 0 1-22.77 13.32.222.222 0 0 1-.282-.136.21.21 0 0 1-.008-.114l7.83-36.02c.62.193 1.1.27 1.44.23 6.32-.767 12.66-1.247 19.02-1.44Z"/><path fill="#FFEF9B" d="m707.01 311.69-3.76 19.02c-3.933 2.653-8.94 5.067-15.02 7.24-17.96 6.41-32.34 11.03-50.04 11.54-7.17.21-15.83-.74-23.69-1.24-2.293-.147-4.987-.693-8.08-1.64a1.24 1.24 0 0 0-1.02.1l-1.94 1.07c-.333.187-.563.1-.69-.26-2.32-6.7-7.69-13.83-14.87-15.39-9.13-1.97-13.96 5.24-13.38 13.47.027.347-.123.573-.45.68-9.92 3.37-9.68 13.21-4.1 20.25.52.647.533 1.303.04 1.97-3.89 5.28-8.68.93-10.05-3.5.227-.8.003-1.383-.67-1.75l-.7-1.71c-.18-.44-.413-.47-.7-.09-2.59 3.35-6.03 6.66-10.63 5.55-4.3-1.04-1.61-8.87-.21-11.15a108.012 108.012 0 0 1 17.14-21.36c.24-.233.53-.34.87-.32 3.9.227 6.79.17 8.67-.17 9.53-1.75 20.49-9.76 16.47-20.73-.127-.347-.003-.5.37-.46 11.47 1.28 19.15 13.45 29.93 17.42 23.74 8.76 55.92.32 76.69-12.31 3.247-1.973 6.52-4.05 9.82-6.23Z"/><path fill="#FFEF9B" d="M582.74 343.87c-1.67-3.85 3.93-4.99 6.81-2.7 3.26 2.6 8.34 8.84 5.45 13.26a.788.788 0 0 1-1.33-.01c-2.127-3.413-4.947-6.167-8.46-8.26-1.327-.793-2.15-1.557-2.47-2.29Zm-160.7 10.73c-.047-.14-.04-.333.02-.58a.37.37 0 0 1 .7-.04l.3.8a.41.41 0 0 1-.16.48.388.388 0 0 1-.49-.06l-.18-.18c-.047-.047-.11-.187-.19-.42Zm155.711 9.945c3.4 3.171 7.675 4.115 9.547 2.107 1.872-2.007.633-6.205-2.768-9.377-3.401-3.171-7.676-4.115-9.548-2.107-1.872 2.007-.632 6.205 2.769 9.377ZM642.72 618.97c1.107-3.613 3.427-6.547 6.96-8.8 18.57-11.83 40.22-21.14 62.38-22.8 31.65-2.38 51.35 16.9 51.43 48.33a.3.3 0 0 1-.3.3H614.25a.447.447 0 0 1-.44-.53 375440.728 375440.728 0 0 1 52.91-268.72c1.21-6.14 8.15-7.48 11.77-2.2 4.7 6.86 6.173 14.69 4.42 23.49-14.06 70.467-28.14 140.933-42.24 211.4-.853 4.273-3.273 6.647-7.26 7.12-.4.047-.477.233-.23.56l9.07 11.93c.213.273.37.247.47-.08Z"/></g><defs><clipPath id="a"><path fill="#fff" d="M0 0h900v646H0z"/></clipPath></defs></svg>