<svg xmlns="http://www.w3.org/2000/svg" width="900" height="900" fill="none"><path stroke="#E30002" stroke-width="2" d="M353.11 324.88c8.42 12.78 28.49 27.73 41.64 10.5a.34.34 0 0 0 .072-.175.336.336 0 0 0-.031-.187.365.365 0 0 0-.311-.208c-17.92-.7-31.15-15.12-26.57-33.4 1.913-7.64 6.09-14.217 12.53-19.73.32-.273.3-.513-.06-.72-2.37-1.35-4.85-2.69-6.61-4.48-10.13-10.37-2.91-24.95 8.61-30.01a.396.396 0 0 0 .225-.48.415.415 0 0 0-.095-.17c-13.36-13.84-31.59-12.9-39.46 6.07-9.75 23.52-3.3 52.73 10.06 72.99Zm155.05-32.96c-27.59-5.29-23.42-36.2 2.65-39.67a.523.523 0 0 0 .4-.281.534.534 0 0 0 0-.489c-3.46-6.8-9.64-13.88-17.36-14.91-12.6-1.69-21.63 13.47-25.27 23.34-5.727 15.493-7.003 31.86-3.83 49.1 2.11 11.45 8.01 27.45 19.09 32.65 5.48 2.573 10.747 1.97 15.8-1.81.3-.22.287-.417-.04-.59-20.48-10.79-20.83-38.39 2.84-45.51 1.49-.45 3.81-.82 5.74-1.33.707-.193.7-.36-.02-.5Z"/><path stroke="#E30002" stroke-width="2" d="M372.26 352.65c-16-4.17-28.03-19.3-34.61-33.3-.207-.433-.52-.53-.94-.29-22.68 13.313-42.9 29.413-60.66 48.3-7.97 8.48-12.65 15.09-13.04 26.1-.48 13.607 5.32 23.1 17.4 28.48.34.153.427.397.26.73l-5.63 10.94c-.167.32-.407.393-.72.22l-73.91-40.73a.335.335 0 0 0-.485.232.318.318 0 0 0 .035.198L276 541.76c.173.333.437.43.79.29l115.07-44.94a.425.425 0 0 0 .268-.375.423.423 0 0 0-.238-.395l-54.36-25.85a.486.486 0 0 1-.27-.492.482.482 0 0 1 .06-.188l6.71-11.79c.167-.287.407-.363.72-.23 12.69 5.54 29.54-2.31 39.68-9.67 7.913-5.747 13.27-9.37 16.07-10.87 29.46-15.833 58.57-15.25 87.33 1.75 15.72 9.3 24.19 25.95 31.74 41.89 7.02 14.83 29.33 9.98 40.82 5.1 15.433-6.56 30.87-13.157 46.31-19.79.32-.133.58-.06.78.22a3541.658 3541.658 0 0 1 46.69 67.2c3.64 5.37 19.22 23.28 24.78 10.81 1.427-3.213 2.387-7.1 2.88-11.66 4.95-46.12-2.27-97.89-25.38-137.98-28.7-49.8-70.573-83.407-125.62-100.82-.52-.16-.803.03-.85.57-1.14 14.05-4.26 27.34-11.31 39.64-7.82 13.63-22.81 24.61-38.82 17.3-22.51-10.28-28.55-44.96-27.51-66.37.02-.413-.177-.61-.59-.59a250.112 250.112 0 0 0-37.43 4.73.421.421 0 0 0-.261.171.405.405 0 0 0-.069.299c1.74 11.473 1.133 22.81-1.82 34.01-4.87 18.44-19.62 34.21-39.91 28.92Z"/><path stroke="#E30002" stroke-width="2" d="m617.49 606.28 6.16-13.2c.173-.373.447-.47.82-.29l85.24 41.17c.713.347.847.193.4-.46-15.05-22.11-31.07-43.61-45.83-65.89a70841.601 70841.601 0 0 1-59.05-89.27.412.412 0 0 0-.5-.15l-113.27 48.05c-.46.2-.467.41-.02.63l63.88 31.77a.435.435 0 0 1 .19.6l-6.29 11.23a.68.68 0 0 1-.4.314.64.64 0 0 1-.5-.064c-15.77-8.98-30.04.49-38.32 14.37-1.22 2.04-3.5 3.26-4.93 5.16-30.68 40.96-89.66 47.88-126.86 10.9-14.92-14.84-22.84-33.35-27.76-53.46-1.48-6.04-3.79-10.77-9.43-12.73-5.76-2-11.933-1.78-18.52.66a1355.608 1355.608 0 0 0-49.23 19.36.605.605 0 0 1-.411.013.586.586 0 0 1-.319-.253c-14.44-24.25-26.87-49.68-39.83-74.72-1.52-2.933-3.71-4.71-6.57-5.33-8.63-1.89-15.14 9.82-16.65 16.55-6.33 28.29-9.5 60.71-2.74 88.75 6.49 26.88 13.96 53.94 30.19 80.15.167.267.403.373.71.32 3.28-.54 6.56-.42 9.84.36a2.085 2.085 0 0 0 2.2-.85c8.427-12.273 9.713-25.377 3.86-39.31-2.06-4.91-6.58-10.83-9.26-16.55-5.83-12.39 2.49-20.14 14.03-21.08 28.11-2.29 36.14 22.75 34.44 45.21-.227 3.033-.49 6.113-.79 9.24-.033.373.137.537.51.49 2.353-.3 4.69-.54 7.01-.72 15.26-1.21 38.95 8 27.31 28.1-.187.32-.097.503.27.55 9 1.18 16.25 7.53 16.76 16.71.42 7.43-5.29 13.73-11.3 17.26a.328.328 0 0 0-.16.277.332.332 0 0 0 .15.283c7.23 4.56 11.89 13.22 7.97 21.62-4.02 8.63-13.89 12.29-23.08 14.13-.527.1-.56.287-.1.56 4.98 2.913 9.307 5.18 12.98 6.8 63.76 28.09 134.73 26.8 198.39-2.28.533-.247.517-.437-.05-.57-3.85-.91-8.03-1.59-11.17-3.08-13.79-6.51-16.51-24.51-2.99-33.28.313-.2.357-.447.13-.74-6.22-8.03-9.42-19.16-.1-26.63.3-.24.303-.487.01-.74-13.85-12.08-7.3-30.56 9.42-34.37 9.627-2.193 19.17-1.83 28.63 1.09.38.12.527-.017.44-.41-4.47-19.89.09-55.05 24.63-61.32 13.39-3.41 25.42 3.74 25.23 18.49-.15 11.73-9.65 21.91-10.67 33.63-.64 7.38 1.25 14.34 5.67 20.88a1.788 1.788 0 0 0 2.27.61c11.74-5.67 21.51-.43 24.7 11.75.12.467.337.513.65.14 12.07-14.5 24.6-29.97 9.37-48.29-4.06-4.88-9.73-8.64-17.01-11.28-.427-.153-.543-.44-.35-.86Z"/><path stroke="#E30002" stroke-width="2" d="M585.84 700.83c.62 8.93 5.19 22.21 14.64 25.14 6.11 1.9 10.66-2.53 9.46-8.66-2.78-14.2-2.83-29.44 3.51-42.65 3.67-7.64.09-15.87-9.48-12.81-7.54 2.41-12.17 9.97-14.21 17.21-.107.4-.283.43-.53.09-2.77-3.86.43-11.37 2.56-15.57.153-.3.113-.567-.12-.8-9.9-9.93-12.61-26.28-8.07-39.24 1.727-4.947 3.67-9.8 5.83-14.56 2.02-4.45 4.51-10.72 1.31-15.11-3.07-4.2-9.68-3.21-13.74-1.29-8 3.79-12.97 16.5-14.29 24.67-1.79 11.18-1.72 27.27 8.49 34.96.333.247.323.487-.03.72l-14.06 9.13c-.367.24-.61.15-.73-.27-3.78-12.65-20.84-12.08-30.88-9.27-15.49 4.33-5.67 21.99 7.69 17.47a.609.609 0 0 1 .743.299.597.597 0 0 1 .067.281v14.39c0 .353-.16.453-.48.3-4.06-2-16.51-2.47-14.13 5.38 2.253 7.4 6.903 9.377 13.95 5.93.427-.207.657-.073.69.4l.85 13.32c.027.433-.173.63-.6.59-6.41-.53-14.09-.3-17.3 5.94-2.67 5.18 1.83 10.56 6.77 11.88 21.55 5.78 41.57 3.89 59.34-10.33a1.328 1.328 0 0 0 .47-1.25c-.69-4.22-1.92-13.26 1.81-16.48.287-.247.443-.183.47.19Zm-295.55-44.8-12.54-4.35c-.233-.08-.31-.24-.23-.48 6.08-18.17 12.29-59.38-19.31-57.73-1.78.093-3.37.737-4.77 1.93a.957.957 0 0 0-.35.85c.127 1.827.637 3.443 1.53 4.85 4 6.32 7.82 12.55 10.14 19.17 5.64 16.1 3.513 31.36-6.38 45.78-.187.267-.163.513.07.74 4.03 3.9 9.86 13.81 7.37 19.86-.207.507-.397.5-.57-.02-2.167-6.52-6.03-11.77-11.59-15.75-6.63-4.74-17.54-3.86-16.09 6.73.04.293.17.537.39.73 9.44 8.55 9.79 24.77 5.43 35.57-1.79 4.43-1.84 8.38 2.75 10.56 9.71 4.61 19.26-13.72 20.86-21.39a.52.52 0 0 1 .504-.42.55.55 0 0 1 .536.4c1.12 4.32 1.023 8.627-.29 12.92a1.767 1.767 0 0 0 .51 1.85c4.88 4.433 10.63 7.113 17.25 8.04 9.98 1.4 21.3 2.13 30.95-.17 4.79-1.14 16.41-4.9 14.61-11.13-1.58-5.45-9.58-8.49-14.66-8.75a1.187 1.187 0 0 1-1.12-1.02l-1.52-10.08c-.06-.387.103-.61.49-.67 5.94-.84 22.62-4.62 18.42-13.28-2.99-6.16-15.25-5.38-20.76-4.78a.89.89 0 0 1-.97-.74l-1.76-10.33c-.067-.373.083-.61.45-.71 3.9-1.02 13.51-6.59 8.06-11.65-5.53-5.13-26.61-8.62-26.83 3.06-.007.407-.2.543-.58.41ZM157.31 685.7c17.97 16.2 43.91 22.16 67.68 21.57 9.72-.23 7.79-12.35 2.28-16.2-1.26-.88-3.03-1.437-5.31-1.67-15.08-1.54-30.54-4.98-42.33-15.16-14.13-12.19-14.24-29-2.25-42.29 5.18-5.75 14.84-10.13 14.86-18.94.01-8.65-8.85-11.97-16.1-8.38-7.033 3.473-13.763 8.753-20.19 15.84-17.81 19.64-19.06 46.82 1.36 65.23Zm463.92 18.55c2.99 3.79 8.71 5.83 13.52 5.46 24.4-1.87 56.67-13.52 69.99-36.17 1.8-3.06 2.93-9.57 2.28-12.29-2.97-12.46-17.96-13.4-24.25-2.71-2.45 4.17-4.72 8.2-8.4 11.77-11.7 11.31-29.37 15.88-45.09 17.41-8.35.81-13.02 10.23-8.05 16.53ZM573.67 887.8l152.44.86c.447 0 .713-.217.8-.65.207-1.02.227-2.213.06-3.58-5.81-49.3-61.47-70.11-99.29-39-3.613 2.973-6.257 7.233-7.93 12.78-.107.347-.34.493-.7.44l-11.5-1.71c-.267-.04-.407-.193-.42-.46-1.37-31.63-8.97-63.98-24.22-91.92-3.71-6.79-11.46-19.65-19.4-21.31-11.61-2.42-19.65 5.1-20.75 16.06-.85 8.43 4.08 15.93 7.75 23.1 16.22 31.66 22.88 69.39 22.48 104.7-.007.46.22.69.68.69Zm-294.63-31.72-15.1-2.19a.684.684 0 0 1-.404-.213.665.665 0 0 1-.176-.417c-1.07-16.08-17.03-25.67-31.61-27.68-35.35-4.87-57.17 33.34-60.79 62.95-.06.467.147.7.62.7l148.85-.03a.42.42 0 0 0 .42-.42c.313-33.88 8.313-65.64 24-95.28 4.19-7.92 9.09-23.9-.8-29.8-7.99-4.77-19.88-3.08-27.35 2.5-2.287 1.707-4.687 4.75-7.2 9.13-14.36 25.013-24.26 51.747-29.7 80.2-.08.427-.333.61-.76.55Zm139.28-491.37c4.01 9.73 15.68 20.54 26.15 14.35 10.02-5.93 14.23-23.6 14.21-34.84a.312.312 0 0 0-.095-.22.3.3 0 0 0-.225-.08l-17.35 1.35a.328.328 0 0 0-.27.49c3.3 6.11 5.73 17.46-.8 22.43-1.88 1.427-3.687 1.77-5.42 1.03-6.94-2.96-7.26-15.47-6.2-21.79.087-.513-.13-.747-.65-.7l-12.52 1c-.373.027-.55.227-.53.6a49.568 49.568 0 0 0 3.7 16.38Z"/><path stroke="#E30002" stroke-width="2" d="M517.64 399.98c5.26 10.367 13.173 17.95 23.74 22.75.293.133.5.05.62-.25l5.13-12.75c.12-.3.023-.48-.29-.54-24.7-4.53-25.79-32.13-14.21-49.18.18-.267.14-.493-.12-.68l-11.21-7.98c-.553-.4-1.003-.303-1.35.29-6.54 11.287-8.667 23.42-6.38 36.4.067.387-.08.657-.44.81-6.487 2.793-13.843 4.863-22.07 6.21-35.49 5.81-72.23 5.6-107.78.5a148.328 148.328 0 0 1-19.84-4.25c-.673-.193-1.007-.64-1-1.34.19-12.71-5.2-26.39-16.63-33.06-.313-.18-.587-.133-.82.14l-8.98 10.39a.32.32 0 0 0-.065.127.292.292 0 0 0 .175.343c21.5 8.21 18.15 39.06-1.6 46.86a.497.497 0 0 0-.298.523.47.47 0 0 0 .078.197l7.86 11.49c.2.293.457.35.77.17 9.97-5.91 14.07-13.87 17.96-24.38.127-.327.353-.423.68-.29 18.45 7.54 39.46 10.68 59.18 11.35 32.4 1.1 65.67-3.07 96.27-14.1a.497.497 0 0 1 .352.007.533.533 0 0 1 .268.243Z"/><path fill="#E30002" d="m556.51 264.3-14.31-1.13c-.307-.02-.483-.187-.53-.5-3.63-25-24.32-50.51-50.5-53.77-.413-.053-.587-.287-.52-.7l2.13-13.16a.786.786 0 0 1 .338-.532.799.799 0 0 1 .3-.12.794.794 0 0 1 .322.012c26.7 6.65 58.41 42.3 63.7 68.86a.882.882 0 0 1-.536.978.872.872 0 0 1-.394.062Zm-258.43 2.75a.533.533 0 0 1-.439-.112.504.504 0 0 1-.181-.408c.28-7.73 4.98-16.98 9.03-23.47 11.34-18.19 32.63-40.79 54.2-46.17a1.034 1.034 0 0 1 1.134.445c.079.123.132.261.156.405l2.06 12.73c.08.46-.113.72-.58.78-26.35 3.58-46.66 28.75-50.57 54.22-.067.427-.317.623-.75.59a50.03 50.03 0 0 0-14.06.99Z"/><path fill="#E30002" d="M196.96 583.34c-4.43-18.56-4.98-35.76-3.41-55.58 2.313-29.133 8.95-57.247 19.91-84.34a.931.931 0 0 0-.03-.79l-37.78-73.58c-.22-.427-.11-.55.33-.37 5.68 2.3 10.37 4.473 14.07 6.52 15.287 8.467 30.58 16.907 45.88 25.32.327.18.593.113.8-.2 24.7-38.06 56.677-68.48 95.93-91.26.313-.187.413-.453.3-.8-6.26-19.19-7.94-42.86.82-61.56 11.15-23.81 34.59-27.71 54.17-10.43 12.18 10.76 20.05 26.56 23.97 42.15.073.293.257.41.55.35a253.916 253.916 0 0 1 40.8-5.09c.367-.02.577-.21.63-.57 2.87-17.9 13.55-43.59 34.07-47.01 20.05-3.35 33.22 16.83 37.99 33.17 2.26 7.74 3.63 15.403 4.11 22.99.027.333.2.547.52.64 64.79 18.56 116.47 63.6 144.26 124.81 14.79 32.58 21.45 73.18 18.61 108.71-.47 5.84-.6 12.92-1.43 19.33a206.895 206.895 0 0 1-9.34 40.02c-.049.137-.066.284-.049.43a.955.955 0 0 0 .149.41l52.7 80.86a.349.349 0 0 1-.44.5l-13.36-6.34a.398.398 0 0 0-.384.024.404.404 0 0 0-.186.336c-.68 49.51-59.68 69.4-99.66 69.02-.34-.007-.54.16-.6.5-1.407 7.993-5.703 12.973-12.89 14.94-8.57 2.34-14.33-1.79-19.58-7.92-.267-.307-.56-.333-.88-.08a52.828 52.828 0 0 1-12.77 7.49.405.405 0 0 0-.236.504.436.436 0 0 0 .106.176c26.05 25.6 38.16 68.75 41.7 104.19a.466.466 0 0 0 .299.376.46.46 0 0 0 .471-.096c29.31-28.12 76.99-28.1 103.77 3.69 12.287 14.587 17.73 32.287 16.33 53.1-.053.833-.5 1.25-1.34 1.25l-172.93-.96c-.327 0-.5-.163-.52-.49-.333-5.193-.36-8.567-.08-10.12.78-4.31.1-6.25.05-9.81-.387-25.653-4.927-50.32-13.62-74-6.67-18.18-16.2-34.98-31.97-45.56a.97.97 0 0 0-.92-.11c-31.067 11.56-63.183 17.11-96.35 16.65-.53-.01-1.26-.36-1.93-.37a211.053 211.053 0 0 1-38.23-4.13c-.78-.16-1.48.017-2.1.53-35.35 29.05-47.09 84.95-46.23 128.22a.551.551 0 0 1-.347.535.57.57 0 0 1-.223.045l-168.83.26c-.453.007-.683-.22-.69-.68-.56-29.55 12.1-62.37 39.08-77.1 27.1-14.79 54.07-5.62 72.29 17.17a.407.407 0 0 0 .459.115.387.387 0 0 0 .241-.395 4.997 4.997 0 0 1 .13-1.76c8-30.67 21.8-64.48 42.82-88.17.247-.273.207-.5-.12-.68a479.452 479.452 0 0 1-16.11-9.22 9.287 9.287 0 0 0-4.13-1.31c-12.46-.97-22.65-2.39-32.67-10.48-.273-.22-.527-.203-.76.05-11.3 12.23-29.17 8.33-31.18-9.25-.04-.367-.243-.537-.61-.51-35.93 2.64-85.68-11.05-97.15-50.83-3.093-10.74-2.45-21.693 1.93-32.86 9.9-25.21 36.11-42.4 61.39-49.84.38-.107.523-.35.43-.73Zm156.15-258.46c8.42 12.78 28.49 27.73 41.64 10.5a.34.34 0 0 0 .072-.175.336.336 0 0 0-.031-.187.365.365 0 0 0-.311-.208c-17.92-.7-31.15-15.12-26.57-33.4 1.913-7.64 6.09-14.217 12.53-19.73.32-.273.3-.513-.06-.72-2.37-1.35-4.85-2.69-6.61-4.48-10.13-10.37-2.91-24.95 8.61-30.01a.396.396 0 0 0 .225-.48.415.415 0 0 0-.095-.17c-13.36-13.84-31.59-12.9-39.46 6.07-9.75 23.52-3.3 52.73 10.06 72.99Zm155.05-32.96c-27.59-5.29-23.42-36.2 2.65-39.67a.523.523 0 0 0 .4-.281.534.534 0 0 0 0-.489c-3.46-6.8-9.64-13.88-17.36-14.91-12.6-1.69-21.63 13.47-25.27 23.34-5.727 15.493-7.003 31.86-3.83 49.1 2.11 11.45 8.01 27.45 19.09 32.65 5.48 2.573 10.747 1.97 15.8-1.81.3-.22.287-.417-.04-.59-20.48-10.79-20.83-38.39 2.84-45.51 1.49-.45 3.81-.82 5.74-1.33.707-.193.7-.36-.02-.5Zm-135.9 60.73c-16-4.17-28.03-19.3-34.61-33.3-.207-.433-.52-.53-.94-.29-22.68 13.313-42.9 29.413-60.66 48.3-7.97 8.48-12.65 15.09-13.04 26.1-.48 13.607 5.32 23.1 17.4 28.48.34.153.427.397.26.73l-5.63 10.94c-.167.32-.407.393-.72.22l-73.91-40.73a.335.335 0 0 0-.485.232.318.318 0 0 0 .035.198L276 541.76c.173.333.437.43.79.29l115.07-44.94a.425.425 0 0 0 .268-.375.423.423 0 0 0-.238-.395l-54.36-25.85a.486.486 0 0 1-.27-.492.482.482 0 0 1 .06-.188l6.71-11.79c.167-.287.407-.363.72-.23 12.69 5.54 29.54-2.31 39.68-9.67 7.913-5.747 13.27-9.37 16.07-10.87 29.46-15.833 58.57-15.25 87.33 1.75 15.72 9.3 24.19 25.95 31.74 41.89 7.02 14.83 29.33 9.98 40.82 5.1 15.433-6.56 30.87-13.157 46.31-19.79.32-.133.58-.06.78.22a3541.658 3541.658 0 0 1 46.69 67.2c3.64 5.37 19.22 23.28 24.78 10.81 1.427-3.213 2.387-7.1 2.88-11.66 4.95-46.12-2.27-97.89-25.38-137.98-28.7-49.8-70.573-83.407-125.62-100.82-.52-.16-.803.03-.85.57-1.14 14.05-4.26 27.34-11.31 39.64-7.82 13.63-22.81 24.61-38.82 17.3-22.51-10.28-28.55-44.96-27.51-66.37.02-.413-.177-.61-.59-.59a250.112 250.112 0 0 0-37.43 4.73.421.421 0 0 0-.261.171.405.405 0 0 0-.069.299c1.74 11.473 1.133 22.81-1.82 34.01-4.87 18.44-19.62 34.21-39.91 28.92Zm44.46 144.76c-14.29 6.96-29.9 13-54.74 22.43-.32.12-.573.327-.76.62-1.39 2.18-2.39 9.95-2.04 12.64.533 4.147 1.173 8.27 1.92 12.37 6.05 33.06 28.88 61.57 62.87 68.23 3.6.7 9.01 1.4 12.45 1.28 35.66-1.3 64.18-24.7 75.4-58.4.767-2.307 1.257-4.523 1.47-6.65a.633.633 0 0 0-.37-.67l-45.76-23.29a.379.379 0 0 1 .02-.69l45.71-19.39c.36-.153.533-.427.52-.82-.59-17.82-10.04-36.69-21.67-49.39-3.33-3.64-7.66-5.86-11.87-8.47-38.91-24.01-80.22-4.38-104.8 28.52-.32.427-.24.757.24.99l41.41 20.1a.326.326 0 0 1 .182.295.33.33 0 0 1-.182.295Zm200.77 108.87 6.16-13.2c.173-.373.447-.47.82-.29l85.24 41.17c.713.347.847.193.4-.46-15.05-22.11-31.07-43.61-45.83-65.89a70841.601 70841.601 0 0 1-59.05-89.27.412.412 0 0 0-.5-.15l-113.27 48.05c-.46.2-.467.41-.02.63l63.88 31.77a.452.452 0 0 1 .224.262.423.423 0 0 1-.034.338l-6.29 11.23a.68.68 0 0 1-.4.314.64.64 0 0 1-.5-.064c-15.77-8.98-30.04.49-38.32 14.37-1.22 2.04-3.5 3.26-4.93 5.16-30.68 40.96-89.66 47.88-126.86 10.9-14.92-14.84-22.84-33.35-27.76-53.46-1.48-6.04-3.79-10.77-9.43-12.73-5.76-2-11.933-1.78-18.52.66a1355.608 1355.608 0 0 0-49.23 19.36.605.605 0 0 1-.411.013.586.586 0 0 1-.319-.253c-14.44-24.25-26.87-49.68-39.83-74.72-1.52-2.933-3.71-4.71-6.57-5.33-8.63-1.89-15.14 9.82-16.65 16.55-6.33 28.29-9.5 60.71-2.74 88.75 6.49 26.88 13.96 53.94 30.19 80.15.167.267.403.373.71.32 3.28-.54 6.56-.42 9.84.36a2.085 2.085 0 0 0 2.2-.85c8.427-12.273 9.713-25.377 3.86-39.31-2.06-4.91-6.58-10.83-9.26-16.55-5.83-12.39 2.49-20.14 14.03-21.08 28.11-2.29 36.14 22.75 34.44 45.21-.227 3.033-.49 6.113-.79 9.24-.033.373.137.537.51.49 2.353-.3 4.69-.54 7.01-.72 15.26-1.21 38.95 8 27.31 28.1-.187.32-.097.503.27.55 9 1.18 16.25 7.53 16.76 16.71.42 7.43-5.29 13.73-11.3 17.26a.328.328 0 0 0-.16.277.332.332 0 0 0 .15.283c7.23 4.56 11.89 13.22 7.97 21.62-4.02 8.63-13.89 12.29-23.08 14.13-.527.1-.56.287-.1.56 4.98 2.913 9.307 5.18 12.98 6.8 63.76 28.09 134.73 26.8 198.39-2.28.533-.247.517-.437-.05-.57-3.85-.91-8.03-1.59-11.17-3.08-13.79-6.51-16.51-24.51-2.99-33.28.313-.2.357-.447.13-.74-6.22-8.03-9.42-19.16-.1-26.63.3-.24.303-.487.01-.74-13.85-12.08-7.3-30.56 9.42-34.37 9.627-2.193 19.17-1.83 28.63 1.09.38.12.527-.017.44-.41-4.47-19.89.09-55.05 24.63-61.32 13.39-3.41 25.42 3.74 25.23 18.49-.15 11.73-9.65 21.91-10.67 33.63-.64 7.38 1.25 14.34 5.67 20.88a1.788 1.788 0 0 0 2.27.61c11.74-5.67 21.51-.43 24.7 11.75.12.467.337.513.65.14 12.07-14.5 24.6-29.97 9.37-48.29-4.06-4.88-9.73-8.64-17.01-11.28-.427-.153-.543-.44-.35-.86Zm-31.65 94.55c.62 8.93 5.19 22.21 14.64 25.14 6.11 1.9 10.66-2.53 9.46-8.66-2.78-14.2-2.83-29.44 3.51-42.65 3.67-7.64.09-15.87-9.48-12.81-7.54 2.41-12.17 9.97-14.21 17.21-.107.4-.283.43-.53.09-2.77-3.86.43-11.37 2.56-15.57.153-.3.113-.567-.12-.8-9.9-9.93-12.61-26.28-8.07-39.24 1.727-4.947 3.67-9.8 5.83-14.56 2.02-4.45 4.51-10.72 1.31-15.11-3.07-4.2-9.68-3.21-13.74-1.29-8 3.79-12.97 16.5-14.29 24.67-1.79 11.18-1.72 27.27 8.49 34.96.333.247.323.487-.03.72l-14.06 9.13c-.367.24-.61.15-.73-.27-3.78-12.65-20.84-12.08-30.88-9.27-15.49 4.33-5.67 21.99 7.69 17.47a.609.609 0 0 1 .743.299.597.597 0 0 1 .067.281v14.39c0 .353-.16.453-.48.3-4.06-2-16.51-2.47-14.13 5.38 2.253 7.4 6.903 9.377 13.95 5.93.427-.207.657-.073.69.4l.85 13.32c.027.433-.173.63-.6.59-6.41-.53-14.09-.3-17.3 5.94-2.67 5.18 1.83 10.56 6.77 11.88 21.55 5.78 41.57 3.89 59.34-10.33a1.328 1.328 0 0 0 .47-1.25c-.69-4.22-1.92-13.26 1.81-16.48.287-.247.443-.183.47.19Zm-295.55-44.8-12.54-4.35c-.233-.08-.31-.24-.23-.48 6.08-18.17 12.29-59.38-19.31-57.73-1.78.093-3.37.737-4.77 1.93a.957.957 0 0 0-.35.85c.127 1.827.637 3.443 1.53 4.85 4 6.32 7.82 12.55 10.14 19.17 5.64 16.1 3.513 31.36-6.38 45.78-.187.267-.163.513.07.74 4.03 3.9 9.86 13.81 7.37 19.86-.207.507-.397.5-.57-.02-2.167-6.52-6.03-11.77-11.59-15.75-6.63-4.74-17.54-3.86-16.09 6.73.04.293.17.537.39.73 9.44 8.55 9.79 24.77 5.43 35.57-1.79 4.43-1.84 8.38 2.75 10.56 9.71 4.61 19.26-13.72 20.86-21.39a.526.526 0 0 1 .84-.311.55.55 0 0 1 .2.291c1.12 4.32 1.023 8.627-.29 12.92a1.767 1.767 0 0 0 .51 1.85c4.88 4.433 10.63 7.113 17.25 8.04 9.98 1.4 21.3 2.13 30.95-.17 4.79-1.14 16.41-4.9 14.61-11.13-1.58-5.45-9.58-8.49-14.66-8.75a1.187 1.187 0 0 1-1.12-1.02l-1.52-10.08c-.06-.387.103-.61.49-.67 5.94-.84 22.62-4.62 18.42-13.28-2.99-6.16-15.25-5.38-20.76-4.78a.891.891 0 0 1-.97-.74l-1.76-10.33c-.067-.373.083-.61.45-.71 3.9-1.02 13.51-6.59 8.06-11.65-5.53-5.13-26.61-8.62-26.83 3.06-.007.407-.2.543-.58.41ZM157.31 685.7c17.97 16.2 43.91 22.16 67.68 21.57 9.72-.23 7.79-12.35 2.28-16.2-1.26-.88-3.03-1.437-5.31-1.67-15.08-1.54-30.54-4.98-42.33-15.16-14.13-12.19-14.24-29-2.25-42.29 5.18-5.75 14.84-10.13 14.86-18.94.01-8.65-8.85-11.97-16.1-8.38-7.033 3.473-13.763 8.753-20.19 15.84-17.81 19.64-19.06 46.82 1.36 65.23Zm22.92-28.59c5.51 16.11 31.91 21.45 46.06 21.67.367.007.513-.173.44-.54-.74-3.527-.237-6.903 1.51-10.13a1.372 1.372 0 0 0-.03-1.37 244.525 244.525 0 0 1-19.72-40.75.602.602 0 0 0-.75-.36c-11.77 3.82-32.93 15.61-27.51 31.48Zm489.67 1.92c6.92-10.45-2.36-17.42-10.79-21.16-.327-.147-.577-.067-.75.24a281.606 281.606 0 0 1-26.86 38.08c-.18.22-.127.317.16.29 12.73-1.02 31.16-6.76 38.24-17.45Zm-48.67 45.22c2.99 3.79 8.71 5.83 13.52 5.46 24.4-1.87 56.67-13.52 69.99-36.17 1.8-3.06 2.93-9.57 2.28-12.29-2.97-12.46-17.96-13.4-24.25-2.71-2.45 4.17-4.72 8.2-8.4 11.77-11.7 11.31-29.37 15.88-45.09 17.41-8.35.81-13.02 10.23-8.05 16.53ZM573.67 887.8l152.44.86c.447 0 .713-.217.8-.65.207-1.02.227-2.213.06-3.58-5.81-49.3-61.47-70.11-99.29-39-3.613 2.973-6.257 7.233-7.93 12.78-.107.347-.34.493-.7.44l-11.5-1.71c-.267-.04-.407-.193-.42-.46-1.37-31.63-8.97-63.98-24.22-91.92-3.71-6.79-11.46-19.65-19.4-21.31-11.61-2.42-19.65 5.1-20.75 16.06-.85 8.43 4.08 15.93 7.75 23.1 16.22 31.66 22.88 69.39 22.48 104.7-.007.46.22.69.68.69Zm-294.63-31.72-15.1-2.19a.684.684 0 0 1-.404-.213.665.665 0 0 1-.176-.417c-1.07-16.08-17.03-25.67-31.61-27.68-35.35-4.87-57.17 33.34-60.79 62.95-.06.467.147.7.62.7l148.85-.03a.42.42 0 0 0 .42-.42c.313-33.88 8.313-65.64 24-95.28 4.19-7.92 9.09-23.9-.8-29.8-7.99-4.77-19.88-3.08-27.35 2.5-2.287 1.707-4.687 4.75-7.2 9.13-14.36 25.013-24.26 51.747-29.7 80.2-.08.427-.333.61-.76.55Z"/><path fill="#fff" d="M394.75 335.38c-13.15 17.23-33.22 2.28-41.64-10.5-13.36-20.26-19.81-49.47-10.06-72.99 7.87-18.97 26.1-19.91 39.46-6.07a.415.415 0 0 1 .022.536.396.396 0 0 1-.152.114c-11.52 5.06-18.74 19.64-8.61 30.01 1.76 1.79 4.24 3.13 6.61 4.48.36.207.38.447.06.72-6.44 5.513-10.617 12.09-12.53 19.73-4.58 18.28 8.65 32.7 26.57 33.4a.365.365 0 0 1 .343.395.35.35 0 0 1-.073.175Zm116.06-83.13c-26.07 3.47-30.24 34.38-2.65 39.67.72.14.727.307.02.5-1.93.51-4.25.88-5.74 1.33-23.67 7.12-23.32 34.72-2.84 45.51.327.173.34.37.04.59-5.053 3.78-10.32 4.383-15.8 1.81-11.08-5.2-16.98-21.2-19.09-32.65-3.173-17.24-1.897-33.607 3.83-49.1 3.64-9.87 12.67-25.03 25.27-23.34 7.72 1.03 13.9 8.11 17.36 14.91a.53.53 0 0 1-.4.77Z"/><path fill="#FFEF9B" d="M337.65 319.35c6.58 14 18.61 29.13 34.61 33.3 20.29 5.29 35.04-10.48 39.91-28.92 2.953-11.2 3.56-22.537 1.82-34.01a.405.405 0 0 1 .069-.299.421.421 0 0 1 .261-.171 250.112 250.112 0 0 1 37.43-4.73c.413-.02.61.177.59.59-1.04 21.41 5 56.09 27.51 66.37 16.01 7.31 31-3.67 38.82-17.3 7.05-12.3 10.17-25.59 11.31-39.64.047-.54.33-.73.85-.57 55.047 17.413 96.92 51.02 125.62 100.82 23.11 40.09 30.33 91.86 25.38 137.98-.493 4.56-1.453 8.447-2.88 11.66-5.56 12.47-21.14-5.44-24.78-10.81a3541.658 3541.658 0 0 0-46.69-67.2c-.2-.28-.46-.353-.78-.22-15.44 6.633-30.877 13.23-46.31 19.79-11.49 4.88-33.8 9.73-40.82-5.1-7.55-15.94-16.02-32.59-31.74-41.89-28.76-17-57.87-17.583-87.33-1.75-2.8 1.5-8.157 5.123-16.07 10.87-10.14 7.36-26.99 15.21-39.68 9.67-.313-.133-.553-.057-.72.23l-6.71 11.79a.482.482 0 0 0-.041.385.485.485 0 0 0 .251.295l54.36 25.85a.422.422 0 0 1 .238.395.427.427 0 0 1-.268.375l-115.07 44.94c-.353.14-.617.043-.79-.29l-76.04-148.23a.318.318 0 0 1-.035-.198.325.325 0 0 1 .281-.268c.07-.01.142.003.204.036l73.91 40.73c.313.173.553.1.72-.22l5.63-10.94c.167-.333.08-.577-.26-.73-12.08-5.38-17.88-14.873-17.4-28.48.39-11.01 5.07-17.62 13.04-26.1 17.76-18.887 37.98-34.987 60.66-48.3.42-.24.733-.143.94.29Zm80.67 45.36c4.01 9.73 15.68 20.54 26.15 14.35 10.02-5.93 14.23-23.6 14.21-34.84a.312.312 0 0 0-.095-.22.3.3 0 0 0-.225-.08l-17.35 1.35a.328.328 0 0 0-.27.49c3.3 6.11 5.73 17.46-.8 22.43-1.88 1.427-3.687 1.77-5.42 1.03-6.94-2.96-7.26-15.47-6.2-21.79.087-.513-.13-.747-.65-.7l-12.52 1c-.373.027-.55.227-.53.6a49.568 49.568 0 0 0 3.7 16.38Zm99.32 35.27c5.26 10.367 13.173 17.95 23.74 22.75.293.133.5.05.62-.25l5.13-12.75c.12-.3.023-.48-.29-.54-24.7-4.53-25.79-32.13-14.21-49.18.18-.267.14-.493-.12-.68l-11.21-7.98c-.553-.4-1.003-.303-1.35.29-6.54 11.287-8.667 23.42-6.38 36.4.067.387-.08.657-.44.81-6.487 2.793-13.843 4.863-22.07 6.21-35.49 5.81-72.23 5.6-107.78.5a148.328 148.328 0 0 1-19.84-4.25c-.673-.193-1.007-.64-1-1.34.19-12.71-5.2-26.39-16.63-33.06-.313-.18-.587-.133-.82.14l-8.98 10.39a.308.308 0 0 0-.066.268.283.283 0 0 0 .176.202c21.5 8.21 18.15 39.06-1.6 46.86a.497.497 0 0 0-.298.523.47.47 0 0 0 .078.197l7.86 11.49c.2.293.457.35.77.17 9.97-5.91 14.07-13.87 17.96-24.38.127-.327.353-.423.68-.29 18.45 7.54 39.46 10.68 59.18 11.35 32.4 1.1 65.67-3.07 96.27-14.1a.497.497 0 0 1 .352.007.533.533 0 0 1 .268.243Z"/><path fill="#E30002" d="M444.47 379.06c-10.47 6.19-22.14-4.62-26.15-14.35a49.568 49.568 0 0 1-3.7-16.38c-.02-.373.157-.573.53-.6l12.52-1c.52-.047.737.187.65.7-1.06 6.32-.74 18.83 6.2 21.79 1.733.74 3.54.397 5.42-1.03 6.53-4.97 4.1-16.32.8-22.43a.332.332 0 0 1-.001-.32.328.328 0 0 1 .271-.17l17.35-1.35a.3.3 0 0 1 .32.3c.02 11.24-4.19 28.91-14.21 34.84Z"/><path fill="#E30002" d="M517.64 399.98a.533.533 0 0 0-.268-.243.497.497 0 0 0-.352-.007c-30.6 11.03-63.87 15.2-96.27 14.1-19.72-.67-40.73-3.81-59.18-11.35-.327-.133-.553-.037-.68.29-3.89 10.51-7.99 18.47-17.96 24.38-.313.18-.57.123-.77-.17l-7.86-11.49a.47.47 0 0 1-.062-.409.497.497 0 0 1 .282-.311c19.75-7.8 23.1-38.65 1.6-46.86a.283.283 0 0 1-.176-.202.292.292 0 0 1 .001-.141.32.32 0 0 1 .065-.127l8.98-10.39c.233-.273.507-.32.82-.14 11.43 6.67 16.82 20.35 16.63 33.06-.007.7.327 1.147 1 1.34a148.328 148.328 0 0 0 19.84 4.25c35.55 5.1 72.29 5.31 107.78-.5 8.227-1.347 15.583-3.417 22.07-6.21.36-.153.507-.423.44-.81-2.287-12.98-.16-25.113 6.38-36.4.347-.593.797-.69 1.35-.29l11.21 7.98c.26.187.3.413.12.68-11.58 17.05-10.49 44.65 14.21 49.18.313.06.41.24.29.54L542 422.48c-.12.3-.327.383-.62.25-10.567-4.8-18.48-12.383-23.74-22.75Z"/><path fill="#FFEF9B" d="M617.84 607.14c7.28 2.64 12.95 6.4 17.01 11.28 15.23 18.32 2.7 33.79-9.37 48.29-.313.373-.53.327-.65-.14-3.19-12.18-12.96-17.42-24.7-11.75a1.792 1.792 0 0 1-2.27-.61c-4.42-6.54-6.31-13.5-5.67-20.88 1.02-11.72 10.52-21.9 10.67-33.63.19-14.75-11.84-21.9-25.23-18.49-24.54 6.27-29.1 41.43-24.63 61.32.087.393-.06.53-.44.41-9.46-2.92-19.003-3.283-28.63-1.09-16.72 3.81-23.27 22.29-9.42 34.37.293.253.29.5-.01.74-9.32 7.47-6.12 18.6.1 26.63.227.293.183.54-.13.74-13.52 8.77-10.8 26.77 2.99 33.28 3.14 1.49 7.32 2.17 11.17 3.08.567.133.583.323.05.57-63.66 29.08-134.63 30.37-198.39 2.28-3.673-1.62-8-3.887-12.98-6.8-.46-.273-.427-.46.1-.56 9.19-1.84 19.06-5.5 23.08-14.13 3.92-8.4-.74-17.06-7.97-21.62a.329.329 0 0 1 .01-.56c6.01-3.53 11.72-9.83 11.3-17.26-.51-9.18-7.76-15.53-16.76-16.71-.367-.047-.457-.23-.27-.55 11.64-20.1-12.05-29.31-27.31-28.1-2.32.18-4.657.42-7.01.72-.373.047-.543-.117-.51-.49.3-3.127.563-6.207.79-9.24 1.7-22.46-6.33-47.5-34.44-45.21-11.54.94-19.86 8.69-14.03 21.08 2.68 5.72 7.2 11.64 9.26 16.55 5.853 13.933 4.567 27.037-3.86 39.31a2.085 2.085 0 0 1-2.2.85c-3.28-.78-6.56-.9-9.84-.36-.307.053-.543-.053-.71-.32-16.23-26.21-23.7-53.27-30.19-80.15-6.76-28.04-3.59-60.46 2.74-88.75 1.51-6.73 8.02-18.44 16.65-16.55 2.86.62 5.05 2.397 6.57 5.33 12.96 25.04 25.39 50.47 39.83 74.72a.586.586 0 0 0 .319.253.605.605 0 0 0 .411-.013 1355.608 1355.608 0 0 1 49.23-19.36c6.587-2.44 12.76-2.66 18.52-.66 5.64 1.96 7.95 6.69 9.43 12.73 4.92 20.11 12.84 38.62 27.76 53.46 37.2 36.98 96.18 30.06 126.86-10.9 1.43-1.9 3.71-3.12 4.93-5.16 8.28-13.88 22.55-23.35 38.32-14.37a.633.633 0 0 0 .5.064.664.664 0 0 0 .4-.314l6.29-11.23a.42.42 0 0 0 .034-.338.435.435 0 0 0-.224-.262l-63.88-31.77c-.447-.22-.44-.43.02-.63l113.27-48.05a.412.412 0 0 1 .5.15 70841.601 70841.601 0 0 0 59.05 89.27c14.76 22.28 30.78 43.78 45.83 65.89.447.653.313.807-.4.46l-85.24-41.17c-.373-.18-.647-.083-.82.29l-6.16 13.2c-.193.42-.077.707.35.86Z"/><path fill="#fff" d="M585.37 700.64c-3.73 3.22-2.5 12.26-1.81 16.48a1.328 1.328 0 0 1-.47 1.25c-17.77 14.22-37.79 16.11-59.34 10.33-4.94-1.32-9.44-6.7-6.77-11.88 3.21-6.24 10.89-6.47 17.3-5.94.427.04.627-.157.6-.59l-.85-13.32c-.033-.473-.263-.607-.69-.4-7.047 3.447-11.697 1.47-13.95-5.93-2.38-7.85 10.07-7.38 14.13-5.38.32.153.48.053.48-.3v-14.39a.611.611 0 0 0-.81-.58c-13.36 4.52-23.18-13.14-7.69-17.47 10.04-2.81 27.1-3.38 30.88 9.27.12.42.363.51.73.27l14.06-9.13c.353-.233.363-.473.03-.72-10.21-7.69-10.28-23.78-8.49-34.96 1.32-8.17 6.29-20.88 14.29-24.67 4.06-1.92 10.67-2.91 13.74 1.29 3.2 4.39.71 10.66-1.31 15.11a173.995 173.995 0 0 0-5.83 14.56c-4.54 12.96-1.83 29.31 8.07 39.24.233.233.273.5.12.8-2.13 4.2-5.33 11.71-2.56 15.57.247.34.423.31.53-.09 2.04-7.24 6.67-14.8 14.21-17.21 9.57-3.06 13.15 5.17 9.48 12.81-6.34 13.21-6.29 28.45-3.51 42.65 1.2 6.13-3.35 10.56-9.46 8.66-9.45-2.93-14.02-16.21-14.64-25.14-.027-.373-.183-.437-.47-.19Zm-294.5-45.02c.22-11.68 21.3-8.19 26.83-3.06 5.45 5.06-4.16 10.63-8.06 11.65-.367.1-.517.337-.45.71l1.76 10.33a.888.888 0 0 0 .97.74c5.51-.6 17.77-1.38 20.76 4.78 4.2 8.66-12.48 12.44-18.42 13.28-.387.06-.55.283-.49.67l1.52 10.08a1.187 1.187 0 0 0 1.12 1.02c5.08.26 13.08 3.3 14.66 8.75 1.8 6.23-9.82 9.99-14.61 11.13-9.65 2.3-20.97 1.57-30.95.17-6.62-.927-12.37-3.607-17.25-8.04a1.767 1.767 0 0 1-.51-1.85c1.313-4.293 1.41-8.6.29-12.92a.55.55 0 0 0-.536-.4.523.523 0 0 0-.504.42c-1.6 7.67-11.15 26-20.86 21.39-4.59-2.18-4.54-6.13-2.75-10.56 4.36-10.8 4.01-27.02-5.43-35.57a1.148 1.148 0 0 1-.39-.73c-1.45-10.59 9.46-11.47 16.09-6.73 5.56 3.98 9.423 9.23 11.59 15.75.173.52.363.527.57.02 2.49-6.05-3.34-15.96-7.37-19.86-.233-.227-.257-.473-.07-.74 9.893-14.42 12.02-29.68 6.38-45.78-2.32-6.62-6.14-12.85-10.14-19.17-.893-1.407-1.403-3.023-1.53-4.85a.957.957 0 0 1 .35-.85c1.4-1.193 2.99-1.837 4.77-1.93 31.6-1.65 25.39 39.56 19.31 57.73-.08.24-.003.4.23.48l12.54 4.35c.38.133.573-.003.58-.41Z"/><path fill="#FFEF9B" d="M157.31 685.7c-20.42-18.41-19.17-45.59-1.36-65.23 6.427-7.087 13.157-12.367 20.19-15.84 7.25-3.59 16.11-.27 16.1 8.38-.02 8.81-9.68 13.19-14.86 18.94-11.99 13.29-11.88 30.1 2.25 42.29 11.79 10.18 27.25 13.62 42.33 15.16 2.28.233 4.05.79 5.31 1.67 5.51 3.85 7.44 15.97-2.28 16.2-23.77.59-49.71-5.37-67.68-21.57Zm463.92 18.55c-4.97-6.3-.3-15.72 8.05-16.53 15.72-1.53 33.39-6.1 45.09-17.41 3.68-3.57 5.95-7.6 8.4-11.77 6.29-10.69 21.28-9.75 24.25 2.71.65 2.72-.48 9.23-2.28 12.29-13.32 22.65-45.59 34.3-69.99 36.17-4.81.37-10.53-1.67-13.52-5.46ZM573.67 887.8c-.46 0-.687-.23-.68-.69.4-35.31-6.26-73.04-22.48-104.7-3.67-7.17-8.6-14.67-7.75-23.1 1.1-10.96 9.14-18.48 20.75-16.06 7.94 1.66 15.69 14.52 19.4 21.31 15.25 27.94 22.85 60.29 24.22 91.92.013.267.153.42.42.46l11.5 1.71c.36.053.593-.093.7-.44 1.673-5.547 4.317-9.807 7.93-12.78 37.82-31.11 93.48-10.3 99.29 39 .167 1.367.147 2.56-.06 3.58-.087.433-.353.65-.8.65l-152.44-.86ZM279.8 855.53c5.44-28.453 15.34-55.187 29.7-80.2 2.513-4.38 4.913-7.423 7.2-9.13 7.47-5.58 19.36-7.27 27.35-2.5 9.89 5.9 4.99 21.88.8 29.8-15.687 29.64-23.687 61.4-24 95.28a.42.42 0 0 1-.42.42l-148.85.03c-.473 0-.68-.233-.62-.7 3.62-29.61 25.44-67.82 60.79-62.95 14.58 2.01 30.54 11.6 31.61 27.68.008.155.07.302.176.417.106.115.248.19.404.213l15.1 2.19c.427.06.68-.123.76-.55Z"/></svg>