<svg xmlns="http://www.w3.org/2000/svg" width="900" height="693" fill="none"><path stroke="#E30002" stroke-width="2" d="M297.82 167.733c-.625 11.402.733 23.055 5.58 33.49 2.421 5.223 8.193 8.869 13.699 6.48 7.249-3.154 7.82-12.683 7.436-19.103"/><path stroke="#E30002" stroke-width="2" d="M324.535 188.6c-.017-2.405-.384-5.004-1.102-7.8-1.427-5.548-2.328-11.707-1.354-17.486 1.536-9.14 4.675-18.275 12.002-24.188.102-.082.187-.136.256-.162a.238.238 0 0 1 .149-.009.246.246 0 0 1 .151.363c-5.685 9.497-7.929 19.681-6.731 30.554.433 3.956 1.717 8.026 2.972 11.943 2.47 7.682 4.227 16.541 2.696 24.587-.866 4.538-4.842 8.539-8.631 10.8m0 0-4.409 2.104c-.164.079-.213.202-.147.37a737.905 737.905 0 0 1 11.509 30.474c2.71 7.67 4.683 15.716 5.92 24.138 1.84 12.55 3.341 24.858 3.745 37.195.472 14.669-.31 28.307-1.432 38.531-1.368 12.53-.847 25.109 5.619 36.091m0 0c1.949 3.188 5.364 6.243 9.35 4.656m0 .001c8.695-3.454 12.681-17.95 12.956-26.474m0 0c.266-9.978-.723-17.832-1.786-26.804-.692-5.86-.18-12.175 1.535-18.945 2.431-9.568 8.917-17.457 18.37-20.669 1.866-.638 4.376-.917 7.529-.838 8.158.202 14.619 2.439 18.384 10.165m0 0c2.819 6.78 2.573 13.909 1.692 21.394m0 0-1.456 11.958m0 0 .034 5.301m0 0c-.023 2.829.922 4.993 2.835 6.494m0 0c2.034.289 4.077-.157 6.131-1.34 4.266-2.458 8.016-6.307 11.707-9.825m0 0c3.523-3.498 6.853-6.037 9.989-7.617 7.937-4.006 17.739-4.021 22.316 4.967m0 0c1.646 4.135 2.096 8.512 1.348 13.13m0 .001-2.003 10.218m0 0c-1.998 6.894-3.759 14.673-2.893 21.325m0 0c.177 4.95 2.099 8.728 5.767 11.333 1.894 1.345 4.753 2.04 6.377-.099 2.461-3.242 3.691-7.287 4.468-11.155m0 0 1.068-4.804m0 0c3.681-18.206 7.308-49.562 29.5-55.48 8.139-2.168 15.166 1.488 18.02 9.593m0 .001c2.244 6.543 1.673 14.466 2.589 21.955a.241.241 0 0 0 .164.202.252.252 0 0 0 .136.007.253.253 0 0 0 .118-.066l6.963-6.8m0 0c6.943-6.361 17.444-7.366 21.705 2.725m0 0 1.132 6.77m0 0-.147 3.611m0 0-.758 9.209m0 0c-.3 2.311-.256 4.642-.502 6.898a45.623 45.623 0 0 0-.241 6.312m0 0 .029 4.316m0 0c-.223.785-.206 1.528.05 2.227m0 0c.072.233.073.483.004.749m0 0c.758 6.997 4.892 12.836 12.667 12.289m0 0c4.182-.986 7.327-3.497 9.433-7.534m0 0 1.319-2.784m0 0c1.026-2.362 1.824-4.981 2.391-7.859m0 0a89.96 89.96 0 0 0 1.772-12.125c.492-6.179.118-13.875.255-20.803.36-18.166.119-35.825 2.579-53.637a83.155 83.155 0 0 1 1.909-9.657c3.238-12.387 7.381-24.326 13.586-35.402.105-.187.055-.251-.152-.192-2.857.824-4.729 1.265-5.615 1.32-8.244.51-14.729-2.338-19.456-8.543-3.873-5.085-3.676-9.85-2.549-16.176 1.988-11.17 6.603-20.852 13.054-30.095a.073.073 0 0 1 .036-.031.076.076 0 0 1 .047 0 .068.068 0 0 1 .045.075l-.359 5.4m0 0-5.137 17.699m0 0-.63 3.084"/><path stroke="#E30002" stroke-width="2" d="M583.423 225.736c-.743 4.641-.581 9.086 1.658 12.978m0 0c1.778 3.518 4.654 5.379 8.626 5.583m0 0c12.903.502 20.058-15.881 24.782-25.011m0 0a391.514 391.514 0 0 0 5.285-15.865c.482-1.567 1.623-3.154 2.037-4.637a85.58 85.58 0 0 0 3.183-23.369m.128-16.447c-1.176-27.74-10.835-54.376-27.182-76.711-4.591-6.277-10.501-12.244-15.884-18.157-18.286-20.083-41.65-34.657-67.844-41.945-9.887-2.752-18.566-4.72-26.035-5.902-9.088-1.439-16.213-2.191-21.376-2.257-6.304-.074-12.681-.296-18.965.148-7.319.519-12.971 1.008-16.957 1.468-14.074 1.616-26.199 5.996-41.419 12.244-31.778 13.037-62.937 40.502-76.926 72.227-2.392 5.415-4.916 10.885-6.845 16.26-4.101 11.408-7.263 21.898-9.488 31.47-1.295 5.571-2.089 12.211-2.381 19.92"/><path stroke="#FAED9A" stroke-width="2" d="M618.489 219.286c-2.3.004-3.083 1.06-2.348 3.168a.564.564 0 0 1-.029.449c-2.992 6.173-7.839 12.668-14.556 15.338-12.597 5.011-13.744-15.422-13.207-22.217.193-2.427.651-5.917 1.373-10.47.078-.493-.099-.693-.532-.601m-5.152 179.866a160.642 160.642 0 0 1-4.266 4.119c-.824.763-1.962 1.374-3.415 1.833-5.271 1.661-7.175-6.188-7.569-9.844-.688-6.435-.816-13.052-2.445-19.265-1.23-4.684-3.791-8.367-7.682-11.047m-21.705-2.725c-2.339-1.691-3.984-3.838-4.936-6.44-.28-.773-4.217-10.292-5.034-8.859m-47.52 45.887c-2.258 1.734-4.896 5.316-7.853 2.05-3.214-3.558-2.033-11.771-1.457-16.196.979-7.573 2.303-20.497-4.822-25.803m-32.305 2.65a69.158 69.158 0 0 1-4.911.469c-4.97.271-8.499-4.819-9.438-9.17-.463-2.143-.281-4.833-.286-7.218 0-.171.051-.322.153-.453.817-1.038.787-2.024-.089-2.957a1 1 0 0 1-.241-.438c-1.088-4.361-1.521-8.716-2.303-13.116-.379-2.129-2.396-2.809-3.828-1.099m-44.032 57.091c-4.136 2.555-6.917 4.254-8.34 5.095-2.52 1.483-5.802-1.784-6.944-3.661-8.508-13.954-5.403-33.49-4.202-49.341 1.688-22.374.467-45.384-8.149-66.118-5.142-12.372-9.251-22.152-15.476-33.061m-.408-28.602c-3.376 1.897-4.065 5.272-5.27 8.485-.67 1.793-1.669 2.33-3.47 2.419-6.441.315-10.422-4.174-12.651-9.697-2.367-5.878-4.084-12.397-4.443-18.758-.03-.478-.094-3.478-.881-3.316m283.827 224.945c-.666.266-1.131.748-1.393 1.444a.503.503 0 0 1-.261.281l-.787.345a.146.146 0 0 0-.068.064.15.15 0 0 0-.016.093.145.145 0 0 0 .128.123c.469.046.828.191 1.078.434m-9.433 7.534c-3.706-.996-11.323-4.908-10.211-9.48a.412.412 0 0 0-.113-.414l-2.343-2.395m-.004-.749a4.014 4.014 0 0 0-.05-2.227m-.029-4.316.605-.167a.827.827 0 0 0 .491-.372.845.845 0 0 0 .1-.614c-.401-1.793-.427-3.487-.079-5.08.507-2.335.054-4.666-.374-6.977"/><path stroke="#FAED9A" stroke-width="2" d="M559.646 360.996c.846 0 1.594.303 2.244.907.216.204.29.161.221-.128a9.665 9.665 0 0 0-2.318-4.39m-144.602-5.041-2.835-6.494m-.034-5.301 1.191-.232a.326.326 0 0 0 .275-.29c.251-1.474-.556-2.474-.531-3.794.015-.794.664-1.257.664-2.321a106.784 106.784 0 0 0-.143-5.321m-58.68 62.17c-2.825-.354-6.077-1.419-7.928-3.611-.433-.519-.907-.867-1.422-1.045m247.959-141.808c-3.214-.956-6.09-2.817-8.626-5.583m-1.658-12.978c.627.056.963.478 1.009 1.266.01.191.085.22.226.089.148-.138-.531-3.892-.605-4.439m-105.655 160.63c-.725.811-1.069 1.798-1.033 2.961a.537.537 0 0 1-.153.409c-.17.178-.283.393-.339.646a1.454 1.454 0 0 0-.025.488c.023.21-.065.353-.265.428a.449.449 0 0 0-.281.33c-.467 2.341-2.49 6.898-5.688 5.4a.605.605 0 0 0-.463-.024c-3.597 1.306-7.416-8.13-8.365-10.717m2.893-21.325c.774 1.107.97 2.295.586 3.563-.437 1.439-.558 2.817-.364 4.134a.39.39 0 0 0 .404.33.39.39 0 0 0 .368-.37c.281-6.104 1.452-11.13 1.009-17.875"/><path stroke="#E30002" stroke-width="2" d="m505.93 372.442-2.987 6.499a.445.445 0 0 0 .059.454 67.245 67.245 0 0 0 15.471 13.835c.151.099.264.064.34-.103l2.076-4.602c.076-.168.023-.271-.157-.311-7.824-1.69-11.352-8.051-12.971-15.274m-.591-1.759c.056-1.551-.159-1.528-.644.069m-76.278 26.547 9.296-13.623a.624.624 0 0 0 .108-.331.603.603 0 0 0-.089-.334l-4.842-7.884a.445.445 0 0 0-.482-.222 43.78 43.78 0 0 0-13.257 4.277c-.383.197-.434.458-.152.784.446.512.869 1.194 1.269 2.044a260.929 260.929 0 0 0 7.78 15.275.221.221 0 0 0 .181.111.223.223 0 0 0 .107-.024.211.211 0 0 0 .081-.073Zm99.833 2.006a87.197 87.197 0 0 0 10.826 3.981c.168.049.282-.008.345-.172 1.978-5.268 4.153-12.895 2.942-18.467-.32-1.464-2.145-7.904-4.497-6.731a.803.803 0 0 0-.379.394l-9.325 20.763c-.046.109-.017.186.088.232Zm-36.925 19.127 9.787 6.194a.356.356 0 0 0 .411-.024.359.359 0 0 0 .091-.114l9.817-19.551c.079-.165.041-.294-.113-.39a83.506 83.506 0 0 1-16.057-12.879c-.144-.148-.272-.137-.383.034-.801 1.229-1.201 2.656-1.201 4.282a97.012 97.012 0 0 1-2.539 22 .41.41 0 0 0 .187.448Zm-45.567-23.754a211.057 211.057 0 0 1-10.329 14.304.3.3 0 0 0-.014.359 151.372 151.372 0 0 0 19.215 23.089c.009.006.02.009.03.009a.044.044 0 0 0 .029-.011.041.041 0 0 0 .017-.026.047.047 0 0 0-.002-.031c-4.264-6.504-6.759-13.568-7.484-21.192-.379-4.03-.645-10.943-.768-16.456a.415.415 0 0 0-.354-.403.416.416 0 0 0-.192.018c-.04.013-.067.069-.084.168a.418.418 0 0 1-.064.172Zm67.194 36.205a160.71 160.71 0 0 0 16.056 6.795c.158.055.259.003.305-.158l6.392-21.512c.056-.184-.008-.304-.191-.36a96.986 96.986 0 0 1-12.494-4.636c-.148-.069-.26-.03-.335.118l-9.827 19.477c-.062.125-.031.217.094.276Zm-80.15 25.311c4.591-3.868 9.881-8.642 13.601-13.461a.327.327 0 0 0 .067-.214.304.304 0 0 0-.092-.2 173.746 173.746 0 0 1-19.929-23.394c-.092-.125-.197-.138-.315-.04l-2.096 1.7a.401.401 0 0 0-.143.434l8.612 35.076c.045.194.144.227.295.099Zm-104.725 18.595c-6.712 1.582-16.588-3.533-20.077-9.766-.255-.459-.646-.663-1.171-.611-11.219 1.148-22.665 2.09-33.702 5.006-3.715.981-6.993 2.025-9.084 5.051-1.56 2.251-.271 4.602 2.224 5.119 2.933.606 5.674.769 8.818.503a116.262 116.262 0 0 0 21.607-3.898c1.565-.44 2.769-.601 3.612-.483 5.438.749 6.383 7.78 1.757 10.254a485.075 485.075 0 0 1-7.981 4.178c-3.612 1.853-23.487 13.944-17.533 20.182 3.656 3.833 13.207-1 16.415-3.331 3.57-2.598 7.705-6.231 12.406-10.899 5.231-5.188 11.849.577 8.242 6.716a7960.915 7960.915 0 0 0-11.874 20.265c-1.496 2.572-5.452 13.432 2.825 9.722 7.425-3.331 13.247-19.389 15.796-26.188.935-2.493 3.616-6.218 6.544-6.795 11.741-2.311 21.514-11.707 27.07-21.916 1.235-2.266 2.155-4.804 3.095-7.302.979-2.611 2.45-3.907 5.191-3.991a.763.763 0 0 0 .458-.158c2.357-1.749 4.832-2.222 7.169-3.099a169.63 169.63 0 0 0 35.214-18.127c.938-.634 1.358-1.401 1.259-2.301-.511-4.641-3.144-7.356-7.898-8.144a.506.506 0 0 0-.398.098c-10.521 8.125-22.291 15.422-34.736 20.182a31.821 31.821 0 0 1-6.599 1.754c-20.849 3.193-42.26-2.385-46.674-25.927a.419.419 0 0 0-.236-.32c-1.394-.713-2.639-.606-3.735.32-10.151 8.563-1.136 21.901 8.095 25.986a.39.39 0 0 1 .246.33c1.073 7.711 5.939 14.599 13.67 16.649a.477.477 0 0 1 .359.473.488.488 0 0 1-.374.468Zm136.73-32.928a216.256 216.256 0 0 0 17.222 13.456.326.326 0 0 0 .246.052.322.322 0 0 0 .207-.141l12.337-19.009a.468.468 0 0 0 .066-.164.458.458 0 0 0-.075-.338.457.457 0 0 0-.129-.119l-8.375-5.129c-.181-.111-.328-.079-.443.099-4.847 7.455-10.782 11.657-20.072 9.568a.369.369 0 0 0-.355.123l-.693.828a.558.558 0 0 0 .064.774Zm188.599 36.313c1.767-1.828 4.168-1.72 6.692-1.015a118.133 118.133 0 0 0 22.306 3.996c2.815.23 5.582.008 8.302-.665 2.933-.725 3.774-3.301 1.673-5.686-3.696-4.188-13.173-5.76-19.236-6.711-5.78-.91-13.602-1.807-23.467-2.69a.438.438 0 0 0-.413.177c-1.093 1.395-1.964 3.075-3.174 4.178-3.149 2.861-6.83 4.809-11.042 5.844-1.029.251-6.245 1.133-6.501-.301a.41.41 0 0 1 .291-.463c7.632-2.104 12.523-8.874 13.625-16.56a.472.472 0 0 1 .256-.35c6.205-2.961 11.471-8.356 12.322-15.412.531-4.369-.902-7.913-4.301-10.633-1.089-.874-2.293-1.013-3.612-.419a.41.41 0 0 0-.251.321c-4.419 23.768-27.03 29.789-47.682 25.818-2.608-.503-5.384-1.383-8.326-2.641-11.057-4.725-21.047-10.928-30.731-18.053-4.66-3.424-9.113-.37-8.729 5.016.113 1.591.216 4.153 1.727 5.149a167.573 167.573 0 0 0 34.244 17.398c2.273.847 4.507 1.246 6.717 2.941a.774.774 0 0 0 .457.163c5.477.133 5.699 6.011 7.613 9.829 5.324 10.628 15.358 20.867 27.433 23.281 3.524.705 5.659 3.991 7.007 7.263 2.879 6.967 8.681 23.359 16.057 25.971 8.547 3.025 3.41-8.337 1.968-10.815a2945.33 2945.33 0 0 0-11.49-19.551c-3.434-5.795 3.342-11.554 8.125-6.795 3.716 3.702 7.338 6.961 10.865 9.776 3.513 2.808 9.989 6.553 14.457 6.287 5.708-.34 5.885-5.519 2.731-9.051-6.377-7.145-14.728-11.968-23.167-16.063-3.828-1.858-6.082-6.075-2.746-9.534Zm-160.044-15.885c7.421 4.122 15.113 7.409 23.079 9.859.767.237 1.479.48 2.135.729.141.056.233.012.276-.133l6.648-22.389c.052-.18-.01-.302-.187-.364a184.804 184.804 0 0 1-18.783-7.973c-.154-.072-.277-.037-.369.104l-12.843 20.004a.109.109 0 0 0-.014.091c.004.016.011.03.021.042.01.013.023.023.037.03Zm-54.522 5.888c5.078 7.139 12.311 13.781 19.294 18.871.259.187.49.158.694-.089a400.431 400.431 0 0 0 15.963-20.743.278.278 0 0 0 .048-.212.276.276 0 0 0-.117-.182 203.095 203.095 0 0 1-18.404-14.329.39.39 0 0 0-.541.035 138.266 138.266 0 0 1-16.878 16.22c-.155.125-.174.268-.059.429Zm30.661 26.454a125.946 125.946 0 0 0 27.857 12.318.636.636 0 0 0 .698-.232l15.831-21.65a.232.232 0 0 0 .034-.21.24.24 0 0 0-.058-.094.238.238 0 0 0-.094-.056 131.687 131.687 0 0 1-27.695-11.79.303.303 0 0 0-.215-.032.311.311 0 0 0-.183.12 460.326 460.326 0 0 1-16.239 21.261c-.121.148-.1.269.064.365Zm-28.806-5.223-.007-.001a.01.01 0 0 0-.007.003.012.012 0 0 0-.005.005l-.001.008 3.395 13.904a.11.11 0 0 0 .138.081.108.108 0 0 0 .049-.032l5.541-5.952c.164-.177.153-.341-.034-.492l-9.069-7.524Zm7.701 30.031c1.387.719 2.111 1.177 3.208 2.399 5.236 5.828 11.411 10.556 18.527 14.186a.461.461 0 0 0 .502-.055 157.98 157.98 0 0 0 18.202-18.013c.115-.135.088-.23-.079-.286a142.536 142.536 0 0 1-27.62-13.082.537.537 0 0 0-.679.104 228.427 228.427 0 0 1-12.11 12.737c-.655.635-.866 1.537.049 2.01Zm35.169 22.512a109.297 109.297 0 0 0 13.217 3.646c.269.056.441-.047.517-.31l6.874-23.153c.059-.194-.011-.31-.212-.35l-1.102-.221a.351.351 0 0 0-.364.128 192.71 192.71 0 0 1-18.96 20.127c-.065.059-.056.104.03.133Zm-24.909 2.35-5.187-3.424c-.134-.089-.182-.054-.143.104l1.339 5.38c.052.204.17.255.354.153l3.632-2.011a.113.113 0 0 0 .042-.042.115.115 0 0 0 .003-.115.116.116 0 0 0-.04-.045Zm.349 19.044c6.619 3.74 12.789 7.272 20.087 9.361a.724.724 0 0 0 .797-.226l12.942-14.412a.123.123 0 0 0 .026-.054.122.122 0 0 0-.037-.111.122.122 0 0 0-.053-.027 116.046 116.046 0 0 1-20.481-6.544.77.77 0 0 0-.748.079 97.747 97.747 0 0 1-13.458 7.879c-.171.085-.233.22-.187.404l.836 3.291a.582.582 0 0 0 .1.21.576.576 0 0 0 .176.15Zm10.949 20.177a.164.164 0 0 0-.059-.257l-6.648-2.872a.156.156 0 0 0-.088-.011.163.163 0 0 0-.134.198l1.993 8.105a.164.164 0 0 0 .207.118.16.16 0 0 0 .074-.049l4.655-5.232Zm4.709 34.844c2.116-2.369 3.494-7.903 4.34-10.982 2.052-7.455 3.824-13.308 5.762-19.94a.302.302 0 0 0-.199-.374.302.302 0 0 0-.155-.006c-.216.05-.403.16-.561.33a808.822 808.822 0 0 0-10.383 11.555c-.216.246-.261.596-.423.891-.029.053-.072.069-.128.05a.791.791 0 0 0-.157-.045.263.263 0 0 0-.251.089l-3.263 3.671a1.166 1.166 0 0 0-.261 1.158c1.309 4.503 2.436 9.154 4.385 13.268a.46.46 0 0 0 .379.276l.265.04m28.59 52.031a.213.213 0 0 1-.178.136.216.216 0 0 1-.115-.022.22.22 0 0 1-.086-.08l-13.143-21.586a.264.264 0 0 1-.037-.15.254.254 0 0 1 .055-.145.26.26 0 0 1 .282-.089c3.627 1.197 6.614 2.735 10.476 1.04a.365.365 0 0 0 .237-.36c.005-5.395-.428-10.879-.571-16.201-.02-.778-.222-1.424-.605-1.936-3.809-5.105-13.902-3.932-17.499.852a.773.773 0 0 0-.157.483l1.156 46.813c.003.191.1.286.29.286l115.792-.251c.134 0 .192-.068.172-.202-2.268-15.994-12.371-29.529-28.368-33.687-20.112-5.223-42.108 2.355-59.365 12.495-3.789 2.227-6.889 8.618-8.336 12.604Zm-120.372-24.518c-15.771 5.267-28.246 17.388-33.147 33.456-.052.167.01.251.187.251l120.068-.182a.223.223 0 0 0 .161-.069.222.222 0 0 0 .065-.163 6631.554 6631.554 0 0 1-1.043-42.876c-.03-1.419.152-2.7-.605-3.957-4.124-6.873-12.381-5.016-16.844.202a.745.745 0 0 0-.187.444l-.98 12.948c-.013.171.058.291.212.36 3.1 1.414 5.998 1.148 9.163 2.035.196.056.231.162.103.32l-13.724 17.206c-.118.144-.248.156-.389.034-1.644-1.389-2.229-4.947-2.888-6.011-1.624-2.637-3.297-4.538-5.02-5.701-10.73-7.249-22.573-11.066-35.528-11.45-1.619-.05-3.371.187-5.068.271"/><path stroke="#FAED9A" stroke-width="2" d="M448.278 44.939c-1.138.538-1.448 1.603-.93 3.192"/><path stroke="#E30002" stroke-width="2" d="M447.348 48.132c-2.254 7.78-3.828 15.53-2.756 23.729 1.142 8.765 7.323 19.758 17.445 19.733 9.226-.025 13.783-9.317 14.659-17.23 1.358-12.299-2.215-25.075-6.043-35.988-.157-.45-.215-.437-.172.04l1.319 15.372"/><path stroke="#FAED9A" stroke-width="2" d="M471.8 53.788c-1.136.338-1.754 1.082-1.856 2.232-.262 2.887-.88 5.61-1.855 8.17-.193.505-.567 1.042-1.122 1.61-1.131 1.173-1.422 2.804-2.647 3.725-4.375 3.296-9.236.37-11.308-3.937-1.486-3.077-2.188-6.518-2.106-10.322.006-.319-.204-.438-.63-.36"/><path stroke="#E30002" stroke-width="2" d="m450.276 54.906.153-2.74"/><path stroke="#FAED9A" stroke-width="2" d="M450.429 52.167c.679-1.041.739-2.102.182-3.183"/><path stroke="#E30002" stroke-width="2" d="m450.611 48.984.172-1.567"/><path stroke="#FAED9A" stroke-width="2" d="M450.783 47.417c.764-.39.815-1.142.152-2.252"/><path stroke="#E30002" stroke-width="2" d="m450.935 45.165 1.767-12.22a.037.037 0 0 0-.003-.026.039.039 0 0 0-.022-.017.035.035 0 0 0-.027.003.038.038 0 0 0-.017.021l-4.355 12.013m2.657.226-.152 2.252m-.172 1.567-.182 3.183m-.153 2.739a85.217 85.217 0 0 0 .325 14.885m0 0 .329 1.636m0 0 2.156 6.09m0 0c1.338 2.027 3.275 3.592 5.811 4.696.263.111.433.06.512-.153m0 0a.8.8 0 0 0 .689.448c13.606.902 11.677-20.733 11.702-28.72m-24.452-5.657.93-3.192"/><path stroke="#FAED9A" stroke-width="2" d="m459.409 82.06-6.323-4.543m-2.156-6.09c.296.036.527.026.694-.03.174-.056.222-.166.143-.33a2.997 2.997 0 0 0-1.166-1.276"/><path stroke="#E30002" stroke-width="2" d="M528.42 152.454c9.133.431 18.136-4.336 25.029-13.254 6.892-8.918 11.11-21.255 11.724-34.298.614-13.042-2.425-25.722-8.449-35.25-6.024-9.527-14.539-15.122-23.672-15.553-9.133-.432-18.136 4.336-25.029 13.254-6.892 8.917-11.11 21.255-11.724 34.297-.614 13.043 2.425 25.723 8.449 35.25 6.023 9.528 14.539 15.123 23.672 15.554Zm-139.427 6.336c10.185.57 20.252-4.221 27.985-13.321 7.733-9.099 12.499-21.761 13.25-35.199.371-6.655-.254-13.3-1.841-19.555-1.587-6.255-4.104-12-7.408-16.905-3.303-4.904-7.329-8.874-11.846-11.681-4.517-2.807-9.438-4.398-14.482-4.68-10.186-.57-20.253 4.221-27.986 13.32-7.733 9.1-12.499 21.762-13.249 35.201-.372 6.654.254 13.298 1.841 19.554 1.586 6.256 4.104 12 7.407 16.905 3.304 4.905 7.329 8.874 11.847 11.681 4.517 2.808 9.438 4.398 14.482 4.68Zm64.427-29.548c6.235-1.626 18.773-3.005 20.087 6.425.758 5.41-2.918 10.633-8.365 11.717-5.876 1.168-11.377-1.458-15.417-5.848-.236-.257-.407-.22-.512.108l-5.782 18.058c-.069.22.007.296.227.227 2.066-.656 4.128-1.587 6.17-1.848 2.903-.368 5.81-.43 8.72-.187 3.458.289 5.483.419 6.077.389 10.944-.502 20.53-8.613 21.017-19.955.241-5.533-2.431-13.106-6.85-16.875-3.946-3.371-7.809-3.814-12.381-5.622-2.47-.979-4.825-2.595-7.066-4.849-.161-.164-.277-.136-.349.084l-5.753 17.994c-.052.168.007.228.177.182Z"/><path stroke="#FAED9A" stroke-width="2" d="M404.537 186.112c-2.746-.194-5.388.374-7.927 1.705-3.796 1.987-6.968 4.597-9.517 7.829a13.312 13.312 0 0 1-4.611 3.754.712.712 0 0 1-.453.069c-3.754-.606-4.192-5.498-4.404-8.657-.123-1.897-.364-3.508-.398-5.641-.128-7.13-6.21-10.338-12.076-12.028-1.237-.358-3.102-1.488-5.595-3.389-.702-.536-1.452-.785-2.249-.749"/><path stroke="#E30002" stroke-width="2" d="M357.307 169.005c-.672-.877-1.089-1.483-1.25-1.818-.905-1.883-1.11-1.802-.615.241.975 4.037 2.695 7.584 5.162 10.643 2.156 2.675 5.497 5.873 5.994 9.258.772 5.292-.709 10.953.89 16.535 1.551 5.425 4.685 9.52 10.196 10.722 9.197 2.01 16.195-6.006 20.048-13.185 3.292-6.12 7.716-8.815 13.871-11.885 1.729-.86 2.856-2.439 3.381-4.735.033-.141-.025-.202-.172-.182l-10.275 1.513"/><path stroke="#E30002" stroke-width="2" d="M357.307 169.005c3.017 3.68 6.442 6.07 10.555 8.957 3.376 2.37 4.926 4.144 5.305 8.253m0 0c-.4 3.981-.236 7.869.492 11.663m0 0c1.048 5.095 5.6 8.824 10.737 7.253 6.85-2.099 7.603-10.604 12.253-14.925 2.083-1.938 4.713-3.303 7.888-4.094"/><path stroke="#FAED9A" stroke-width="2" d="m373.659 197.878.625-.71a.48.48 0 0 0 .123-.428 58.209 58.209 0 0 0-.595-2.774c-.606-2.494-.458-5.199-.645-7.751"/><path stroke="#E30002" stroke-width="2" d="M383.279 239.719c-2.372 19.827 12.155 40.117 33.659 36.067 15.141-2.848 25.76-16.481 35.306-27.346 3.652-4.155 8.292-6.06 13.921-5.715 3.42.207 6.378.507 8.72 2.34 5.58 4.366 7.539 8.012 7.853 15.176.621 14.269 2.092 34.805 21.111 35.973 2.276.138 4.773-.1 7.489-.714 18.64-4.208 26.656-19.975 28.132-37.811.063-.756.274-1.47.635-2.144 9.113-17.062 5.689-37.683-6.166-52.489-11.691-14.609-30.105-22.305-48.627-23.887-11.78-1.005-23.536.064-35.051 2.631-13.773 3.075-27.812 10.722-39.814 18.724-9.041 6.024-16.472 13.62-22.291 22.788-3.238 5.09-3.996 8.849-5.147 15.343-.045.261.059.394.182.611a.728.728 0 0 1 .088.453Z"/><path stroke="#FAED9A" stroke-width="2" d="M471.529 279.427c-1.895.192-2.436 2.71-2.864 4.331a145.542 145.542 0 0 1-2.593 8.721c-2.116 6.391-5.694 7.618-12.096 7.13-5.225-.394-7.464-10.52-8.365-14.609a5.284 5.284 0 0 1 .123-2.814c.655-1.995.768-4.449-2.219-3.946"/><path stroke="#E30002" stroke-width="2" d="m443.515 278.24.325-1.966c.046-.283-.02-.312-.197-.089a7.99 7.99 0 0 0-.94 1.483c-4.345 8.953-4.242 21.655 2.603 29.164 8.06 8.839 20.141 6.031 25.913-3.552 4.064-6.751 5.214-14.044 3.449-21.882-.492-2.188-1.523-3.945-3.095-5.272-.187-.158-.272-.115-.256.128l.212 3.173"/><path stroke="#E30002" stroke-width="2" d="M443.515 278.24c-1.266 6.441-.902 12.719 1.092 18.831 2.151 6.598 8.124 12.067 15.481 8.997 9.094-3.793 11.672-18.127 11.441-26.641"/><path stroke="#FAED9A" stroke-width="2" d="M548.19 289.035c-3.617.793-2.042 5.558-1.363 7.632"/><path stroke="#E30002" stroke-width="2" d="M546.827 296.667c-.664 7.894-.669 17.842 8.69 20.29 3.277.858 7.135.986 9.399-1.172 6.559-6.248 7.627-19.738 4.532-27.922-.04-.109-.067-.106-.084.009l-1.279 8.081"/><path stroke="#FAED9A" stroke-width="2" d="M568.085 295.953c-1.23.335-2.692-.365-3.297 1.247-1.186 3.168-2.377 6.577-5.251 8.548a1.032 1.032 0 0 1-1.053.069l-4.906-2.488a1.01 1.01 0 0 1-.408-.37 18.05 18.05 0 0 1-2.598-7.494 26.539 26.539 0 0 0-1.122-5.065"/><path stroke="#E30002" stroke-width="2" d="m549.45 290.4-.443-3.193c-.046-.351-.123-.358-.231-.019l-.586 1.847m1.26 1.365c-.135 4.073-.117 7.294.054 9.662.177 2.52.802 4.942 1.875 7.268m0 0c2.204 5.765 8.567 5.809 12.1 1.655m0 0c2.864-3.532 3.691-8.691 4.606-13.032m-21.258.714 1.363-7.632"/><path stroke="#FAED9A" stroke-width="2" d="M563.479 308.985c-3.823 2.503-8.749.981-12.1-1.655"/><path stroke="#E30002" stroke-width="2" d="m535.362 138.082 2.947-1.784c.207-.125.205-.248-.005-.369l-1.102-.646m0 0c-7.155-3.838-13.375-10.904-12.735-19.541.521-7.066 5.865-12.752 12.366-15.324.233-.091.239-.197.02-.315-4.897-2.587-9.503-6.78-10.866-12.313m0 0-.295-2.4"/><path stroke="#E30002" stroke-width="2" d="M525.692 85.39c.571-8.114 8.498-12.835 15.86-13.83.233-.033.259-.123.079-.27-6.637-5.615-13.262-5.51-19.876.314-10.865 9.574-13.743 27.622-12.016 41.078 1.456 11.293 10.147 32.47 25.623 25.4"/><path stroke="#FAED9A" stroke-width="2" d="m525.692 85.39-1.284 2.75c-.095.204-.036.266.177.187l1.402-.537m11.215 47.493-1.84 2.799"/><path stroke="#E30002" stroke-width="2" d="M369.757 128.144c1.778 4.861 4.509 8.939 8.193 12.234m0 0c5.488 5.081 11.84 6.518 19.053 4.311.214-.066.225-.156.035-.271-18.729-11.249-10.093-32.376 7.504-37.717a.143.143 0 0 0 .106-.148.156.156 0 0 0-.037-.091.155.155 0 0 0-.084-.052c-9.443-1.877-17.439-9.647-13.207-19.886 2.337-5.661 7.967-9.174 13.576-11.136.191-.065.209-.162.055-.29-7.785-6.484-16.958-5.908-24.526.231-14.752 11.973-17.006 36.555-10.668 52.815"/><path stroke="#FAED9A" stroke-width="2" d="M377.95 140.378a88.198 88.198 0 0 1-8.193-12.234"/><path stroke="#E30002" stroke-width="2" d="m486.562 224.588-2.224.493m0 0c-3.845 1.021-7.222 2.866-10.132 5.533-.122.108-.102.182.059.221 8.675 2.099 17.198 10.742 19.801 19.162 2.426 7.83 1.304 16.383 3.031 24.444 1.373 6.405 3.755 10.106 11.225 8.573 5.452-1.12 10.048-3.866 13.788-8.238m0 0c2.463-2.345 4.365-5.169 5.703-8.47m0 0c4.311-10.248 4.576-22.926 1.092-33.362-1.751-5.257-5.152-10.662-10.673-12.47-5.796-1.897-7.302 1.291-10.56 4.922a.383.383 0 0 0-.079.419c3.893 10.066 4.547 18.684 2.766 29.371-.049.305-.077.303-.084-.005-.202-12.978-6.889-33.145-23.713-30.593"/><path stroke="#FAED9A" stroke-width="2" d="M527.813 266.306c-.91.616-1.722 1-2.229 2.04a87.235 87.235 0 0 1-3.474 6.43m-37.772-49.695c.945.606 1.963 1.3 2.224-.493m-149.853 23.626v-.789c0-.253-.081-.282-.241-.088-.128.151-.169.304-.123.458a1.3 1.3 0 0 0 .219.413c.041.048.077.074.103.075.026 0 .041-.024.042-.069Zm171.214 20.901a.183.183 0 0 0-.173.123.184.184 0 0 0-.009.074l.118 1.458a.187.187 0 0 0 .116.155.189.189 0 0 0 .1.009.189.189 0 0 0 .089-.045l1.521-1.459a.182.182 0 0 0-.128-.315h-1.634Z"/><path fill="#E30002" d="M634.712 439.87c2.195-1.485 3.919-3.336 5.172-5.553 1.767-3.119 2.953-7.509 5.644-10.648 2.989-2.46 6.202-2.987 9.64-1.581 14.492 5.927 15.397 22.97 4.916 33.115a.219.219 0 0 0 .017.324.227.227 0 0 0 .111.046c9.979.916 20.495 2.079 30.066 5.168 3.966 1.282 6.922 2.643 8.867 4.085 5.571 4.134 8.72 11.298 5.659 18.107-3.902 8.677-12.282 8.574-19.85 9.199-.24.02-.272.112-.099.276 5.586 5.272 11.422 12.629 8.322 20.911-2.535 6.765-9.227 10.564-16.441 10.352l.802-.118c.023-.003.031-.016.025-.039-.025-.094-.099-.153-.202-.163a29.468 29.468 0 0 1-9.768-2.429.212.212 0 0 0-.158-.013.212.212 0 0 0-.125.098.216.216 0 0 0 .067.289c.393.289.444.337.152.143 1.404 3.334 2.208 6.356 2.412 9.066.624 8.406-5.522 14.994-14 14.673-4.324-.673-8.1-2.348-11.328-5.025-2.014-1.669-4.101-4.184-6.259-7.544-4.217-6.563-7.199-14.072-10.024-21.339a.546.546 0 0 0-.339-.336c-1.462-.537-3.248-.931-4.419-1.384-14.654-5.666-25.967-18.329-31.479-32.864a.49.49 0 0 0-.334-.311c-18.015-5.277-35.021-14.525-50.163-25.537-.174-.296-.37-.499-.59-.611-.171-.089-.282-.041-.335.143a4431.749 4431.749 0 0 1-6.791 22.896c-.393 1.321-.128 2.484-.526 3.765-1.56 5.035-3.622 10.243-5.069 14.934-2.709 8.8-5.503 17.573-8.38 26.321-.521 1.586-.398 3.311-.816 4.73a5750.116 5750.116 0 0 1-7.879 26.607 8.48 8.48 0 0 0-.349 2.912c1.442 28.799 2.436 57.647 3.631 86.461.04.983.117 1.963.232 2.942.019.158.1.2.241.128 27.31-13.865 64.93-19.107 86.734 7.765 7.371 9.091 11.549 21.532 12.282 33.165.212 3.36.733 6.046 0 9.707-.036.17-.141.256-.315.256L336.182 692a.565.565 0 0 1-.233-.047.573.573 0 0 1-.347-.579c4.537-52.804 59.005-75.851 103.489-52.259.164.088.253.039.266-.148 1.952-26.866 3.918-53.78 5.9-80.742.108-1.488.197-2.966-.167-4.454a17961.697 17961.697 0 0 1-7.633-31.184c-.137-.558-.515-1.649-1.131-3.271-.837-2.198-.807-4.578-1.28-6.494-5.255-21.43-10.506-42.859-15.751-64.285a.174.174 0 0 0-.039-.075.182.182 0 0 0-.232-.038l-.153.088a.203.203 0 0 0-.103.217l.167 1.173c-14.417 10.455-30.44 19.191-47.367 24.749-.861.286-1.845.463-2.785.68a.453.453 0 0 0-.345.305c-5.816 15.531-18.605 29.401-34.824 34.012a8.82 8.82 0 0 0-1.103.38.598.598 0 0 0-.324.34c-4.798 12.278-12.155 33.14-28.315 33.682a.038.038 0 0 0-.042.037c0 .011.005.022.013.031a.05.05 0 0 0 .029.016l1.772.059c-7.091.562-13.085-3.272-14.659-10.111-.984-4.267.039-9.061 1.889-13.076.099-.217.02-.35-.108-.523.207-.062.335-.172.384-.33.066-.217-.005-.281-.212-.192a34.686 34.686 0 0 1-11.012 2.597c-8.371-.173-15.639-7.056-15.265-15.437.271-6.051 4.242-11.707 8.946-15.501a.325.325 0 0 0-.216-.581c-8.459.271-17.316-1.75-20.254-10.569-2.165-6.499 1.466-13.368 6.938-17.102 1.854-1.268 4.496-2.438 7.928-3.508 9.595-2.996 20.027-4.336 30.272-5.248a.243.243 0 0 0 .218-.298.243.243 0 0 0-.065-.121c-9.866-9.568-9.788-24.842 2.908-32.14 4.327-2.486 8.431-2.154 12.312.996a548.277 548.277 0 0 1 4.419 9.13c1.112 2.365 3.361 5.395 5.634 6.681a470.22 470.22 0 0 1 2.967 2.237c7.258 5.508 16.219 6.681 25.185 5.607 7.47-.892 15.058-4.513 21.578-8.278a166.257 166.257 0 0 0 28.506-20.787.127.127 0 0 0 .037-.068.12.12 0 0 0-.069-.128.117.117 0 0 0-.076-.006c-15.063 3.774-25.17-14.131-28.3-25.932a.167.167 0 0 0-.254-.102.172.172 0 0 0-.066.082c-1.742 4.489-4.369 9.125-7.844 12.259-5.324 4.799-13.63 6.76-20.372 3.843-8.828-3.818-14.422-13.983-16.873-22.793-2.436-8.75-4.252-18.083-3.646-26.06.557-7.4 1.149-14.799 1.776-22.196.846-9.939.822-20.655.172-30.613-.905-13.898-2.483-26.71-4.734-38.437-1.653-8.627-5.654-18.802-9.078-27.695-.684-1.769-6.727-13.491-7.864-13.9-9.049-3.257-15.195-10.455-18.418-19.349-4.277-11.805-5.896-23.975-5.148-36.495 1.129-18.924 5.198-37.153 12.209-54.687 2.437-6.1 5.25-12.551 8.439-19.354C333.161 33.388 399.1-.747 466.47.5c59.537 1.104 117.45 30.075 150.277 80.086 10.776 16.427 18.743 35.121 22.439 54.455.536 2.799 1.83 5.381 2.219 7.972a62.83 62.83 0 0 1 .605 5.819c.782 13.88 2.205 27.139-.369 41.216-2.109 11.539-5.342 22.611-9.699 33.214-2.943 7.154-6.968 15.314-9.778 21.512-6.37 14.056-11.522 26.75-15.456 38.082a100.857 100.857 0 0 0-5.167 23.803c-1.55 16.595-1.623 33.121-1.865 49.765-.052 3.77-.152 7.054-.3 9.849-.605 11.411-1.077 19.994-5.418 29.701-2.552 5.706-5.613 10.483-9.182 14.333-5.698 6.139-14.59 12.175-23.177 11.357-.457-.044-1.156-.364-1.717-.438-.331-.043-.369.044-.113.261 11.268 9.598 24.648 18.945 38.835 24.222 2.811 1.044 5.503 1.708 8.075 1.99 10.816 1.188 19.668-.63 28.033-7.829ZM297.82 167.216c-.625 11.401.733 23.054 5.58 33.489 2.421 5.223 8.193 8.869 13.7 6.48 7.248-3.154 7.819-12.683 7.435-19.103-.017-2.404-.384-5.004-1.102-7.8-1.427-5.548-2.328-11.707-1.354-17.486 1.536-9.14 4.675-18.275 12.002-24.188.102-.082.187-.136.256-.162a.248.248 0 0 1 .3.355c-5.685 9.496-7.929 19.68-6.731 30.553.433 3.956 1.717 8.026 2.972 11.943 2.47 7.682 4.227 16.541 2.696 24.587-.866 4.538-4.842 8.539-8.631 10.8l-4.409 2.104c-.164.079-.213.202-.147.37a737.905 737.905 0 0 1 11.509 30.474c2.71 7.67 4.683 15.716 5.92 24.138 1.84 12.55 3.341 24.858 3.745 37.196.472 14.668-.31 28.306-1.432 38.53-1.368 12.53-.847 25.109 5.619 36.091 1.949 3.188 5.364 6.243 9.35 4.657 8.695-3.454 12.681-17.95 12.956-26.474.266-9.978-.723-17.831-1.786-26.804-.692-5.86-.18-12.175 1.535-18.945 2.431-9.568 8.917-17.457 18.37-20.669 1.866-.637 4.376-.917 7.529-.838 8.158.202 14.619 2.439 18.384 10.165 2.819 6.78 2.573 13.909 1.692 21.394l-1.456 11.958.034 5.302c-.023 2.828.922 4.992 2.835 6.494 2.034.289 4.077-.158 6.131-1.341 4.266-2.458 8.016-6.306 11.707-9.824 3.523-3.499 6.853-6.038 9.989-7.618 7.937-4.006 17.739-4.02 22.316 4.967 1.647 4.135 2.096 8.512 1.348 13.131l-2.003 10.219c-1.998 6.893-3.759 14.673-2.893 21.324.177 4.95 2.099 8.728 5.767 11.333 1.894 1.345 4.753 2.04 6.377-.099 2.461-3.242 3.691-7.287 4.468-11.155l1.068-4.804c3.681-18.206 7.308-49.562 29.5-55.48 8.139-2.168 15.166 1.488 18.02 9.594 2.244 6.543 1.673 14.466 2.589 21.955a.25.25 0 0 0 .053.125.252.252 0 0 0 .247.084.262.262 0 0 0 .118-.066l6.963-6.8c6.943-6.361 17.444-7.366 21.706 2.725l1.131 6.77-.147 3.612-.758 9.209c-.3 2.31-.256 4.641-.502 6.898a45.603 45.603 0 0 0-.241 6.311l.029 4.316c-.223.785-.206 1.528.05 2.227.072.234.073.483.005.749.757 6.997 4.891 12.836 12.666 12.289 4.182-.986 7.327-3.497 9.433-7.534l1.319-2.784c1.026-2.361 1.824-4.981 2.391-7.859a89.777 89.777 0 0 0 1.772-12.125c.492-6.179.118-13.875.255-20.803.36-18.166.119-35.825 2.579-53.637a83.365 83.365 0 0 1 1.909-9.657c3.238-12.387 7.381-24.326 13.587-35.402.105-.187.054-.251-.153-.192-2.857.825-4.729 1.265-5.615 1.321-8.244.509-14.729-2.339-19.456-8.544-3.873-5.085-3.676-9.85-2.549-16.176 1.988-11.17 6.603-20.852 13.054-30.095a.073.073 0 0 1 .036-.031.076.076 0 0 1 .047 0 .068.068 0 0 1 .045.075l-.359 5.4-5.137 17.699-.63 3.084c-.743 4.641-.581 9.086 1.658 12.978 1.778 3.518 4.654 5.379 8.626 5.583 12.903.502 20.058-15.881 24.782-25.011a391.514 391.514 0 0 0 5.285-15.865c.482-1.567 1.623-3.153 2.037-4.636a85.627 85.627 0 0 0 3.184-23.37c.861-2.301.246-4.543.265-6.425.036-3.337-.01-6.678-.138-10.022-1.176-27.74-10.835-54.376-27.182-76.71-4.591-6.278-10.501-12.245-15.884-18.157-18.286-20.084-41.65-34.658-67.843-41.946-9.888-2.752-18.567-4.72-26.036-5.902-9.087-1.439-16.213-2.191-21.376-2.257-6.304-.074-12.681-.296-18.965.148-7.319.519-12.971 1.008-16.957 1.468-14.074 1.616-26.198 5.997-41.419 12.244-31.778 13.038-62.937 40.502-76.926 72.228-2.392 5.415-4.916 10.884-6.845 16.259-4.101 11.408-7.263 21.898-9.488 31.47-1.295 5.571-2.089 12.211-2.381 19.921Zm208.706 203.516-.596 1.192-2.987 6.499a.445.445 0 0 0 .059.454 67.245 67.245 0 0 0 15.471 13.835c.151.099.264.064.34-.103l2.076-4.602c.076-.168.023-.271-.157-.311-7.824-1.69-11.352-8.051-12.971-15.274-.099-1.015-.295-1.601-.591-1.759.056-1.55-.159-1.527-.644.069Zm-76.278 26.548 9.296-13.624a.615.615 0 0 0 .019-.665l-4.842-7.884a.443.443 0 0 0-.482-.221 43.763 43.763 0 0 0-13.256 4.276c-.384.198-.435.459-.153.784.446.512.869 1.194 1.27 2.045a260.272 260.272 0 0 0 7.779 15.274.221.221 0 0 0 .181.111.22.22 0 0 0 .188-.096Zm99.834 2.005a87.124 87.124 0 0 0 10.825 3.981c.168.049.282-.008.345-.172 1.978-5.267 4.153-12.895 2.942-18.467-.319-1.464-2.145-7.904-4.497-6.731a.807.807 0 0 0-.379.394l-9.325 20.763c-.046.109-.016.186.089.232Zm-36.926 19.127 9.787 6.194a.356.356 0 0 0 .411-.024.348.348 0 0 0 .091-.114l9.817-19.551c.079-.165.041-.294-.113-.39a83.43 83.43 0 0 1-16.056-12.879c-.145-.148-.273-.136-.384.034-.801 1.229-1.201 2.656-1.201 4.282a96.949 96.949 0 0 1-2.539 22 .41.41 0 0 0 .187.448Zm-45.567-23.754a211.14 211.14 0 0 1-10.328 14.304.284.284 0 0 0-.068.176.302.302 0 0 0 .053.184 151.413 151.413 0 0 0 19.215 23.088c.009.006.02.01.03.009a.054.054 0 0 0 .03-.01.047.047 0 0 0 .016-.027.047.047 0 0 0-.002-.031c-4.264-6.504-6.759-13.568-7.484-21.192-.379-4.03-.645-10.943-.768-16.456a.412.412 0 0 0-.354-.402.403.403 0 0 0-.192.017c-.039.013-.067.069-.084.168a.413.413 0 0 1-.064.172Zm67.194 36.205a160.476 160.476 0 0 0 16.056 6.795c.158.056.26.003.305-.158l6.393-21.512c.055-.184-.009-.304-.192-.36a96.986 96.986 0 0 1-12.494-4.636c-.148-.069-.259-.03-.335.118l-9.827 19.477c-.062.125-.031.217.094.276Zm-80.15 25.311c4.591-3.868 9.881-8.642 13.601-13.461a.325.325 0 0 0 .067-.214.3.3 0 0 0-.092-.2 173.746 173.746 0 0 1-19.929-23.394c-.092-.125-.197-.138-.315-.039l-2.096 1.699a.403.403 0 0 0-.143.434l8.612 35.076c.045.194.144.227.295.099Zm-104.725 18.595c-6.712 1.582-16.588-3.533-20.076-9.766-.256-.459-.647-.663-1.172-.61-11.219 1.148-22.665 2.089-33.702 5.005-3.715.981-6.993 2.026-9.084 5.051-1.56 2.252-.271 4.602 2.224 5.119 2.933.606 5.674.769 8.818.503a116.287 116.287 0 0 0 21.608-3.898c1.564-.44 2.768-.601 3.611-.483 5.438.749 6.383 7.781 1.757 10.254a485.075 485.075 0 0 1-7.981 4.178c-3.612 1.853-23.487 13.944-17.533 20.182 3.656 3.833 13.207-1 16.416-3.331 3.569-2.598 7.704-6.231 12.405-10.899 5.231-5.188 11.849.577 8.242 6.716a8647.028 8647.028 0 0 0-11.874 20.265c-1.496 2.572-5.452 13.432 2.825 9.722 7.425-3.331 13.247-19.389 15.796-26.188.935-2.493 3.616-6.218 6.544-6.795 11.741-2.311 21.514-11.707 27.07-21.916 1.235-2.266 2.155-4.804 3.095-7.302.979-2.611 2.45-3.907 5.191-3.991a.763.763 0 0 0 .458-.158c2.357-1.749 4.832-2.222 7.169-3.099a169.582 169.582 0 0 0 35.214-18.127c.938-.634 1.358-1.401 1.259-2.301-.511-4.641-3.144-7.356-7.897-8.144a.507.507 0 0 0-.399.098c-10.521 8.125-22.291 15.422-34.736 20.182a31.759 31.759 0 0 1-6.599 1.754c-20.849 3.193-42.26-2.385-46.674-25.927a.418.418 0 0 0-.236-.32c-1.394-.713-2.639-.606-3.735.32-10.151 8.564-1.136 21.901 8.095 25.986a.39.39 0 0 1 .246.33c1.073 7.711 5.94 14.599 13.67 16.649a.477.477 0 0 1 .359.473.488.488 0 0 1-.374.468Zm136.73-32.928a216.256 216.256 0 0 0 17.222 13.456.326.326 0 0 0 .246.052.322.322 0 0 0 .207-.141l12.337-19.009a.468.468 0 0 0 .066-.164.458.458 0 0 0-.075-.338.457.457 0 0 0-.129-.119l-8.375-5.129c-.181-.111-.328-.079-.443.099-4.847 7.455-10.782 11.657-20.072 9.568a.383.383 0 0 0-.196.013.354.354 0 0 0-.158.111l-.694.827a.558.558 0 0 0 .064.774Zm188.599 36.313c1.767-1.828 4.168-1.719 6.692-1.015a118.053 118.053 0 0 0 22.306 3.996c2.815.23 5.582.008 8.302-.665 2.933-.724 3.774-3.301 1.673-5.686-3.696-4.188-13.173-5.76-19.236-6.711-5.78-.91-13.602-1.807-23.467-2.69a.44.44 0 0 0-.413.177c-1.093 1.395-1.964 3.075-3.174 4.178-3.149 2.862-6.83 4.809-11.042 5.844-1.029.251-6.245 1.133-6.501-.3a.411.411 0 0 1 .291-.464c7.632-2.104 12.523-8.873 13.625-16.56a.472.472 0 0 1 .256-.35c6.205-2.961 11.471-8.356 12.322-15.412.531-4.369-.902-7.913-4.301-10.633-1.089-.873-2.293-1.013-3.612-.418a.406.406 0 0 0-.251.32c-4.419 23.768-27.03 29.789-47.682 25.818-2.608-.502-5.384-1.383-8.326-2.641-11.057-4.725-21.047-10.928-30.731-18.053-4.66-3.424-9.113-.369-8.729 5.016.113 1.591.216 4.154 1.727 5.149a167.573 167.573 0 0 0 34.244 17.398c2.273.847 4.507 1.246 6.717 2.941a.76.76 0 0 0 .457.163c5.477.133 5.699 6.011 7.613 9.829 5.324 10.628 15.358 20.867 27.433 23.281 3.524.705 5.659 3.991 7.008 7.263 2.878 6.967 8.68 23.36 16.056 25.971 8.548 3.025 3.41-8.337 1.968-10.815a2945.33 2945.33 0 0 0-11.49-19.551c-3.434-5.794 3.342-11.554 8.125-6.795 3.716 3.702 7.338 6.961 10.865 9.776 3.513 2.808 9.989 6.553 14.457 6.287 5.708-.34 5.885-5.519 2.731-9.051-6.377-7.145-14.728-11.968-23.167-16.063-3.828-1.857-6.082-6.075-2.746-9.534Zm-160.044-15.885c7.421 4.122 15.113 7.409 23.079 9.859.767.237 1.479.48 2.135.729.141.056.233.012.276-.133l6.648-22.389c.052-.18-.01-.302-.187-.364a185.023 185.023 0 0 1-18.783-7.972c-.154-.073-.277-.038-.369.103l-12.843 20.004a.126.126 0 0 0-.017.044.123.123 0 0 0 .003.047c.004.016.011.03.021.042.01.013.023.023.037.03Zm-54.522 5.888c5.078 7.139 12.311 13.781 19.294 18.871.259.187.491.158.694-.089a400.431 400.431 0 0 0 15.963-20.743.27.27 0 0 0 .045-.101.283.283 0 0 0-.114-.293 203.095 203.095 0 0 1-18.404-14.329.39.39 0 0 0-.541.035 138.266 138.266 0 0 1-16.878 16.22c-.155.125-.174.268-.059.429Zm30.661 26.454a125.946 125.946 0 0 0 27.857 12.318.636.636 0 0 0 .699-.232l15.83-21.65a.232.232 0 0 0 .034-.21.24.24 0 0 0-.058-.094.25.25 0 0 0-.094-.056 131.635 131.635 0 0 1-27.695-11.79.303.303 0 0 0-.398.089 460.838 460.838 0 0 1-16.239 21.26c-.121.148-.1.27.064.365Zm-28.806-5.223-.007-.001-.007.003a.027.027 0 0 0-.005.006l-.001.007 3.395 13.904c.005.02.014.038.028.053a.12.12 0 0 0 .051.03c.019.005.04.004.059-.002a.098.098 0 0 0 .049-.031l5.541-5.952c.164-.178.153-.342-.034-.493l-9.069-7.524Zm7.701 30.031c1.388.719 2.111 1.178 3.208 2.4 5.236 5.827 11.412 10.555 18.527 14.185a.46.46 0 0 0 .502-.054 158.07 158.07 0 0 0 18.202-18.014c.115-.135.089-.23-.079-.286a142.532 142.532 0 0 1-27.62-13.081.536.536 0 0 0-.679.103 228.079 228.079 0 0 1-12.11 12.737c-.655.635-.866 1.537.049 2.01Zm35.169 22.512a109.114 109.114 0 0 0 13.217 3.646c.269.056.441-.047.517-.31l6.874-23.153c.059-.194-.011-.31-.212-.35l-1.102-.221a.351.351 0 0 0-.364.128 192.71 192.71 0 0 1-18.96 20.127c-.065.059-.056.104.03.133Zm-24.909 2.351-5.187-3.425c-.134-.089-.182-.054-.143.104l1.339 5.38c.052.204.171.255.354.153l3.632-2.01a.122.122 0 0 0 .059-.1.118.118 0 0 0-.054-.102Zm.349 19.043c6.619 3.74 12.789 7.273 20.087 9.362.311.092.577.016.797-.227l12.942-14.412a.118.118 0 0 0-.064-.192 115.96 115.96 0 0 1-20.481-6.543.771.771 0 0 0-.748.078 97.688 97.688 0 0 1-13.458 7.879c-.171.085-.233.22-.187.404l.837 3.291a.55.55 0 0 0 .275.36Zm10.949 20.177a.166.166 0 0 0 .035-.067.163.163 0 0 0 0-.076.154.154 0 0 0-.033-.068.167.167 0 0 0-.061-.045l-6.648-2.873a.156.156 0 0 0-.088-.011.158.158 0 0 0-.08.036.164.164 0 0 0-.054.162l1.993 8.105a.16.16 0 0 0 .043.077.161.161 0 0 0 .238-.008l4.655-5.232Zm4.06 34.825a.545.545 0 0 0-.109.182c-.039.128-.001.224.113.286l.242.128a.209.209 0 0 0 .131.022.332.332 0 0 0 .142-.061.542.542 0 0 0 .124-.132.702.702 0 0 0 .085-.179c.016-.055-.01-.131-.079-.226 2.116-2.37 3.494-7.903 4.34-10.983 2.052-7.455 3.824-13.308 5.762-19.94a.304.304 0 0 0-.199-.374.313.313 0 0 0-.155-.006c-.216.05-.403.16-.561.331-3.5 3.82-6.961 7.671-10.383 11.554-.216.246-.261.596-.423.892-.029.052-.072.069-.128.049a.728.728 0 0 0-.157-.044.262.262 0 0 0-.251.088l-3.263 3.671a1.166 1.166 0 0 0-.261 1.158c1.309 4.503 2.436 9.154 4.385 13.269a.46.46 0 0 0 .379.276l.266.039Zm28.589 52.031a.213.213 0 0 1-.178.136.216.216 0 0 1-.115-.022.22.22 0 0 1-.086-.08l-13.143-21.586a.262.262 0 0 1 .018-.295.264.264 0 0 1 .282-.089c3.627 1.197 6.614 2.735 10.477 1.04a.365.365 0 0 0 .236-.36c.005-5.395-.428-10.879-.571-16.2-.02-.779-.222-1.424-.605-1.937-3.809-5.104-13.902-3.932-17.499.853a.77.77 0 0 0-.157.482l1.156 46.813c.004.191.1.286.291.286l115.791-.251c.134 0 .192-.067.172-.202-2.268-15.994-12.371-29.529-28.368-33.687-20.112-5.223-42.108 2.355-59.365 12.495-3.789 2.227-6.889 8.618-8.336 12.604Zm-105.836-27.4c-5.052.069-9.898 1.03-14.536 2.882-15.771 5.267-28.246 17.388-33.147 33.456-.052.167.01.251.187.251l120.068-.182a.223.223 0 0 0 .21-.144.222.222 0 0 0 .016-.088 6631.554 6631.554 0 0 1-1.043-42.876c-.03-1.419.152-2.7-.605-3.957-4.124-6.873-12.381-5.015-16.844.202a.747.747 0 0 0-.187.444l-.979 12.948c-.014.171.057.291.211.36 3.1 1.414 5.999 1.148 9.163 2.035.196.056.231.163.103.32l-13.724 17.206c-.118.145-.248.156-.389.034-1.643-1.389-2.229-4.946-2.888-6.011-1.624-2.637-3.297-4.538-5.02-5.7-10.73-7.25-22.573-11.067-35.528-11.451-1.619-.049-3.371.187-5.068.271Z"/><path fill="#FAED9A" d="m629.122 158.968-1.466.66c-.154.069-.218.189-.192.36a144.092 144.092 0 0 1 1.531 15.427 85.62 85.62 0 0 1-3.184 23.369c-.414 1.484-1.555 3.07-2.037 4.637a391.514 391.514 0 0 1-5.285 15.865c-2.3.004-3.082 1.06-2.348 3.169.053.151.043.3-.029.448-2.992 6.174-7.839 12.668-14.556 15.338-12.597 5.011-13.744-15.422-13.207-22.216.193-2.428.651-5.918 1.373-10.471.078-.492-.099-.693-.532-.601l.359-5.4a.068.068 0 0 0-.045-.075.076.076 0 0 0-.047 0 .073.073 0 0 0-.036.031c-6.451 9.243-11.066 18.925-13.054 30.095-1.127 6.326-1.324 11.091 2.549 16.176 4.727 6.205 11.212 9.053 19.456 8.543.886-.055 2.758-.496 5.615-1.32.207-.059.258.005.153.192-6.206 11.076-10.349 23.015-13.587 35.402a83.365 83.365 0 0 0-1.909 9.657c-2.46 17.812-2.219 35.471-2.579 53.637-.137 6.928.237 14.624-.255 20.803a89.8 89.8 0 0 1-1.772 12.125 160.642 160.642 0 0 1-4.266 4.119c-.824.763-1.962 1.374-3.415 1.833-5.27 1.661-7.175-6.188-7.568-9.844-.689-6.435-.817-13.052-2.446-19.265-1.23-4.684-3.791-8.367-7.681-11.047-4.262-10.091-14.763-9.086-21.706-2.725-2.339-1.691-3.984-3.838-4.936-6.44-.28-.773-4.217-10.292-5.034-8.859-2.854-8.105-9.881-11.761-18.02-9.593-22.192 5.918-25.819 37.274-29.5 55.48-2.258 1.734-4.896 5.317-7.853 2.05-3.214-3.558-2.033-11.771-1.457-16.196.979-7.573 2.303-20.497-4.822-25.803-4.577-8.987-14.379-8.973-22.316-4.967-3.136 1.58-6.466 4.119-9.989 7.617a69.158 69.158 0 0 1-4.911.469c-4.97.271-8.499-4.819-9.438-9.17-.463-2.143-.281-4.833-.286-7.218 0-.171.051-.322.153-.453.817-1.038.787-2.024-.089-2.957a1 1 0 0 1-.241-.438c-1.087-4.361-1.521-8.716-2.303-13.116-.379-2.129-2.396-2.809-3.828-1.099-3.765-7.726-10.226-9.963-18.384-10.165-3.153-.079-5.663.2-7.529.838-9.453 3.212-15.939 11.101-18.37 20.669-1.715 6.77-2.227 13.085-1.535 18.945 1.063 8.972 2.052 16.826 1.786 26.804-4.136 2.555-6.917 4.254-8.34 5.095-2.52 1.483-5.802-1.784-6.944-3.661-8.508-13.954-5.403-33.49-4.202-49.341 1.688-22.374.467-45.384-8.149-66.118-5.142-12.372-9.251-22.152-15.476-33.061 3.789-2.261 7.765-6.262 8.631-10.8 1.531-8.046-.226-16.905-2.696-24.587-1.255-3.917-2.539-7.987-2.972-11.943-1.198-10.873 1.046-21.057 6.731-30.554a.24.24 0 0 0 .033-.145.248.248 0 0 0-.333-.209c-.069.026-.154.08-.256.162-7.327 5.913-10.466 15.048-12.002 24.188-.974 5.779-.073 11.938 1.354 17.486.718 2.796 1.085 5.396 1.102 7.8-3.376 1.897-4.065 5.272-5.27 8.485-.67 1.793-1.668 2.33-3.469 2.419-6.442.315-10.423-4.174-12.652-9.697-2.367-5.878-4.084-12.397-4.443-18.758-.03-.478-.094-3.478-.881-3.316.292-7.709 1.086-14.349 2.381-19.92 2.225-9.572 5.387-20.062 9.488-31.47 1.929-5.375 4.453-10.845 6.845-16.26 13.989-31.725 45.148-59.19 76.926-72.227 15.22-6.248 27.345-10.628 41.419-12.244 3.986-.46 9.638-.95 16.957-1.468 6.284-.444 12.661-.222 18.965-.148 5.163.066 12.289.818 21.376 2.257 7.469 1.182 16.148 3.15 26.036 5.902 26.193 7.288 49.557 21.862 67.843 41.945 5.383 5.913 11.293 11.88 15.884 18.157 16.347 22.335 26.006 48.971 27.182 76.711ZM448.278 44.938c-1.138.54-1.448 1.604-.93 3.193-2.254 7.78-3.828 15.53-2.756 23.73 1.142 8.765 7.323 19.758 17.445 19.733 9.226-.025 13.783-9.317 14.659-17.23 1.358-12.299-2.215-25.075-6.043-35.988-.157-.45-.215-.437-.172.04l1.319 15.372c-1.135.338-1.754 1.082-1.856 2.232-.262 2.887-.88 5.61-1.855 8.17-.193.505-.567 1.042-1.122 1.61-1.131 1.173-1.422 2.804-2.647 3.725-4.375 3.296-9.236.37-11.308-3.937-1.486-3.077-2.188-6.518-2.106-10.322.006-.319-.204-.438-.63-.36l.153-2.74c.679-1.04.739-2.101.182-3.182l.172-1.567c.764-.39.815-1.141.152-2.252l1.767-12.22a.037.037 0 0 0-.003-.026.035.035 0 0 0-.022-.017.035.035 0 0 0-.027.003.039.039 0 0 0-.017.021l-4.355 12.013Zm80.142 107.516c9.133.431 18.136-4.336 25.029-13.254 6.892-8.918 11.11-21.255 11.724-34.298.614-13.042-2.425-25.722-8.449-35.25-6.023-9.527-14.539-15.122-23.672-15.553-9.133-.432-18.136 4.336-25.029 13.254-6.892 8.917-11.11 21.255-11.724 34.297-.614 13.043 2.425 25.723 8.449 35.25 6.023 9.528 14.539 15.123 23.672 15.554Zm-139.427 6.336c10.185.571 20.252-4.221 27.985-13.32 7.733-9.1 12.499-21.762 13.25-35.2.371-6.654-.254-13.3-1.841-19.555-1.587-6.255-4.104-12-7.407-16.905-3.304-4.904-7.33-8.874-11.847-11.681-4.517-2.807-9.438-4.398-14.482-4.68-10.186-.57-20.253 4.221-27.986 13.32-7.733 9.1-12.499 21.762-13.249 35.201-.372 6.654.254 13.298 1.841 19.554 1.587 6.256 4.104 12 7.407 16.905 3.304 4.905 7.329 8.874 11.847 11.681 4.517 2.808 9.438 4.398 14.482 4.68Zm64.427-29.548c6.235-1.626 18.773-3.005 20.087 6.425.758 5.41-2.918 10.633-8.365 11.717-5.876 1.168-11.377-1.458-15.417-5.848-.236-.257-.407-.22-.512.108l-5.782 18.058c-.069.22.007.296.227.227 2.066-.656 4.128-1.587 6.17-1.848 2.903-.368 5.81-.43 8.72-.187 3.458.289 5.483.419 6.077.389 10.944-.502 20.53-8.613 21.017-19.955.241-5.533-2.431-13.106-6.85-16.875-3.946-3.371-7.809-3.814-12.381-5.622-2.47-.979-4.825-2.595-7.066-4.849-.161-.164-.277-.136-.349.084l-5.753 17.994c-.052.168.007.228.177.182Zm-48.883 56.87c-2.746-.194-5.388.374-7.927 1.705-3.796 1.987-6.968 4.597-9.517 7.829a13.312 13.312 0 0 1-4.611 3.754.712.712 0 0 1-.453.069c-3.754-.606-4.192-5.498-4.404-8.657-.123-1.897-.364-3.508-.398-5.641-.128-7.13-6.21-10.338-12.076-12.028-1.237-.358-3.102-1.488-5.595-3.389-.702-.536-1.451-.785-2.249-.749-.672-.877-1.089-1.483-1.25-1.818-.905-1.883-1.11-1.802-.615.241.975 4.037 2.695 7.585 5.162 10.643 2.156 2.675 5.497 5.873 5.994 9.258.772 5.292-.709 10.953.89 16.535 1.551 5.425 4.685 9.52 10.196 10.722 9.197 2.01 16.195-6.006 20.048-13.185 3.292-6.12 7.716-8.815 13.871-11.885 1.729-.86 2.856-2.439 3.381-4.735.033-.141-.025-.202-.172-.182l-10.275 1.513Zm-21.258 53.607c-2.371 19.827 12.155 40.117 33.659 36.067 15.141-2.848 25.76-16.481 35.306-27.346 3.652-4.155 8.292-6.06 13.921-5.715 3.42.207 6.378.507 8.72 2.34 5.58 4.366 7.539 8.012 7.854 15.176.62 14.269 2.091 34.805 21.11 35.973 2.276.138 4.773-.1 7.489-.714 18.64-4.208 26.656-19.975 28.132-37.811.063-.756.274-1.47.635-2.144 9.114-17.062 5.689-37.683-6.166-52.489-11.691-14.609-30.105-22.305-48.627-23.887-11.78-1.005-23.536.064-35.051 2.631-13.773 3.075-27.812 10.722-39.814 18.724-9.041 6.024-16.471 13.62-22.291 22.788-3.238 5.09-3.996 8.849-5.147 15.343-.045.261.059.394.182.611a.728.728 0 0 1 .088.453Zm88.25 39.708c-1.895.192-2.436 2.71-2.864 4.331a145.542 145.542 0 0 1-2.593 8.721c-2.116 6.391-5.694 7.618-12.096 7.13-5.225-.394-7.464-10.52-8.365-14.609a5.28 5.28 0 0 1 .123-2.813c.655-1.996.768-4.45-2.219-3.947l.325-1.966c.046-.283-.02-.312-.197-.089a7.99 7.99 0 0 0-.94 1.483c-4.345 8.953-4.242 21.655 2.603 29.164 8.06 8.84 20.141 6.031 25.913-3.552 4.065-6.75 5.214-14.044 3.449-21.882-.492-2.187-1.523-3.945-3.095-5.272-.187-.158-.272-.115-.256.128l.212 3.173Zm76.661 9.608c-3.617.794-2.042 5.558-1.363 7.632-.664 7.894-.669 17.842 8.69 20.291 3.277.857 7.135.985 9.399-1.173 6.559-6.248 7.627-19.738 4.532-27.922-.039-.109-.067-.105-.084.009l-1.279 8.081c-1.23.335-2.692-.365-3.297 1.247-1.186 3.168-2.377 6.577-5.251 8.548a1.032 1.032 0 0 1-1.053.069l-4.906-2.488a1.01 1.01 0 0 1-.408-.37 18.05 18.05 0 0 1-2.598-7.494 26.539 26.539 0 0 0-1.122-5.065l-.443-3.193c-.046-.351-.123-.358-.231-.019l-.586 1.847Z"/><path fill="#E30002" d="m450.935 45.165-.152 2.252-.172 1.567-.182 3.183-.153 2.74a85.314 85.314 0 0 0 .325 14.884l.329 1.636 2.156 6.09c1.338 2.027 3.275 3.592 5.811 4.696.263.111.433.06.512-.153a.8.8 0 0 0 .689.448c13.606.902 11.677-20.733 11.702-28.72l-1.319-15.373c-.043-.476.015-.49.172-.04 3.828 10.914 7.401 23.69 6.043 35.989-.876 7.913-5.433 17.205-14.659 17.23-10.122.025-16.303-10.968-17.445-19.733-1.072-8.2.502-15.95 2.756-23.73l.93-3.192 4.355-12.013a.038.038 0 0 1 .017-.021.035.035 0 0 1 .027-.004.04.04 0 0 1 .022.018.037.037 0 0 1 .003.027l-1.767 12.22Z"/><path fill="#fff" d="m448.278 44.939-.93 3.192c-.518-1.59-.208-2.654.93-3.192Zm2.657.226c.663 1.11.612 1.861-.152 2.252l.152-2.252Zm-.324 3.819c.557 1.08.497 2.141-.182 3.183l.182-3.183Zm21.189 4.804c-.025 7.987 1.904 29.622-11.702 28.72a.8.8 0 0 1-.689-.448l-6.323-4.543-2.156-6.09c.296.036.527.026.694-.03.174-.055.222-.166.143-.33a2.996 2.996 0 0 0-1.166-1.276 85.315 85.315 0 0 1-.325-14.885c.426-.079.636.041.63.36-.082 3.804.62 7.244 2.106 10.322 2.072 4.307 6.933 7.233 11.308 3.937 1.225-.921 1.516-2.552 2.647-3.725.555-.568.929-1.105 1.122-1.611.975-2.559 1.593-5.282 1.855-8.17.102-1.149.721-1.893 1.856-2.231Z"/><path fill="#E30002" d="M528.42 152.454c-9.133-.432-17.649-6.026-23.672-15.554-6.024-9.527-9.063-22.207-8.449-35.25.614-13.043 4.832-25.38 11.724-34.297 6.893-8.918 15.896-13.686 25.029-13.254 9.133.43 17.649 6.026 23.672 15.553 6.024 9.528 9.063 22.208 8.449 35.25-.614 13.043-4.832 25.38-11.724 34.298-6.893 8.917-15.896 13.685-25.029 13.254Zm6.942-14.372 2.947-1.784c.207-.125.205-.248-.005-.37l-1.102-.645c-7.155-3.838-13.375-10.904-12.735-19.541.522-7.066 5.865-12.752 12.366-15.324.233-.092.239-.197.02-.315-4.897-2.587-9.503-6.78-10.866-12.313l-.295-2.4c.571-8.115 8.498-12.835 15.86-13.83.233-.033.259-.123.079-.271-6.637-5.614-13.262-5.509-19.875.315-10.866 9.574-13.744 27.622-12.017 41.078 1.457 11.293 10.147 32.47 25.623 25.4ZM388.993 158.79c-5.044-.282-9.965-1.872-14.482-4.68-4.518-2.807-8.543-6.776-11.847-11.681-3.303-4.905-5.82-10.649-7.407-16.905-1.587-6.256-2.213-12.9-1.841-19.554.75-13.44 5.516-26.1 13.249-35.2 7.733-9.1 17.8-13.891 27.986-13.321 5.044.282 9.965 1.873 14.482 4.68 4.517 2.807 8.543 6.777 11.847 11.681 3.303 4.905 5.82 10.65 7.407 16.905 1.587 6.256 2.212 12.9 1.841 19.555-.751 13.438-5.517 26.1-13.25 35.199-7.733 9.1-17.8 13.891-27.985 13.321Zm-19.236-30.646c1.778 4.861 4.509 8.939 8.193 12.234 5.488 5.081 11.84 6.518 19.053 4.311.214-.066.225-.156.035-.271-18.729-11.249-10.093-32.376 7.504-37.717a.148.148 0 0 0 .079-.055.152.152 0 0 0 .027-.093.156.156 0 0 0-.037-.091.155.155 0 0 0-.084-.052c-9.443-1.877-17.439-9.647-13.207-19.886 2.337-5.661 7.967-9.174 13.576-11.136.191-.065.209-.162.055-.29-7.785-6.484-16.958-5.908-24.526.231-14.752 11.973-17.006 36.555-10.668 52.815Z"/><path fill="#fff" d="m525.692 85.39-1.284 2.75c-.095.204-.036.266.177.187l1.402-.537c1.363 5.533 5.969 9.726 10.865 12.313.22.118.214.223-.019.315-6.501 2.572-11.845 8.258-12.366 15.324-.64 8.637 5.58 15.703 12.735 19.541l-1.84 2.799c-15.476 7.07-24.167-14.107-25.623-25.4-1.727-13.456 1.151-31.504 12.016-41.078 6.614-5.824 13.239-5.929 19.876-.315.18.148.154.238-.079.271-7.362.995-15.289 5.715-15.86 13.83Z"/><path fill="#FAED9A" d="M450.601 69.791a3 3 0 0 1 1.166 1.276c.079.165.031.275-.143.33-.167.056-.398.066-.694.03l-.329-1.636Z"/><path fill="#fff" d="M377.95 140.378a88.198 88.198 0 0 1-8.193-12.234c-6.338-16.26-4.084-40.842 10.668-52.815 7.568-6.139 16.741-6.715 24.526-.231.154.128.136.225-.055.29-5.609 1.962-11.239 5.475-13.576 11.136-4.232 10.239 3.764 18.009 13.207 19.886a.155.155 0 0 1 .084.052.156.156 0 0 1 .037.091.143.143 0 0 1-.106.148c-17.597 5.341-26.233 26.468-7.504 37.717.19.115.179.205-.035.271-7.213 2.207-13.565.77-19.053-4.311Z"/><path fill="#FAED9A" d="m453.086 77.517 6.323 4.543c-.079.213-.249.264-.512.153-2.536-1.104-4.473-2.67-5.811-4.696Zm72.606 7.873.295 2.4-1.402.537c-.213.08-.272.017-.177-.187l1.284-2.75Z"/><path fill="#E30002" d="M473.507 135.667c-1.314-9.43-13.852-8.051-20.087-6.425-.17.046-.229-.014-.177-.182l5.753-17.994c.072-.22.188-.248.349-.084 2.241 2.254 4.596 3.87 7.066 4.849 4.572 1.808 8.435 2.251 12.381 5.621 4.419 3.77 7.091 11.343 6.85 16.876-.487 11.342-10.073 19.452-21.017 19.955-.594.03-2.619-.1-6.077-.389a41.617 41.617 0 0 0-8.72.187c-2.042.261-4.104 1.192-6.17 1.848-.22.069-.296-.007-.227-.227l5.782-18.058c.105-.328.276-.365.512-.108 4.04 4.39 9.541 7.016 15.417 5.848 5.447-1.084 9.123-6.307 8.365-11.717Z"/><path fill="#FAED9A" d="M377.95 140.378c-3.684-3.295-6.415-7.373-8.193-12.234a88.198 88.198 0 0 0 8.193 12.234Zm159.252-5.095 1.102.646c.21.121.212.244.005.369l-2.947 1.784 1.84-2.799Z"/><path fill="#E30002" d="M357.307 169.005c3.017 3.68 6.442 6.07 10.555 8.957 3.376 2.37 4.926 4.144 5.305 8.253-.4 3.981-.236 7.869.492 11.663 1.048 5.095 5.6 8.824 10.737 7.253 6.85-2.099 7.603-10.604 12.253-14.925 2.083-1.938 4.713-3.303 7.888-4.094l10.275-1.513c.147-.02.205.041.172.182-.525 2.296-1.652 3.875-3.381 4.735-6.155 3.07-10.579 5.765-13.871 11.885-3.853 7.179-10.851 15.195-20.048 13.185-5.511-1.202-8.645-5.297-10.196-10.722-1.599-5.582-.118-11.243-.89-16.535-.497-3.385-3.838-6.583-5.994-9.258-2.467-3.059-4.187-6.606-5.162-10.643-.495-2.043-.29-2.124.615-.241.161.335.578.941 1.25 1.818Z"/><path fill="#fff" d="M297.82 167.733c.787-.162.851 2.838.881 3.316.359 6.361 2.076 12.88 4.443 18.758 2.229 5.523 6.21 10.012 12.651 9.697 1.801-.089 2.8-.626 3.47-2.419 1.205-3.213 1.894-6.588 5.27-8.485.384 6.42-.187 15.949-7.436 19.103-5.506 2.389-11.278-1.257-13.699-6.48-4.847-10.435-6.205-22.088-5.58-33.49Zm59.487 1.272c.797-.037 1.547.213 2.249.748 2.493 1.902 4.358 3.032 5.595 3.39 5.866 1.69 11.948 4.898 12.076 12.028.034 2.133.275 3.744.398 5.641.212 3.158.65 8.051 4.404 8.657a.726.726 0 0 0 .453-.069 13.323 13.323 0 0 0 4.611-3.754c2.549-3.233 5.721-5.842 9.517-7.83 2.539-1.33 5.181-1.898 7.927-1.704-3.175.791-5.805 2.156-7.888 4.094-4.65 4.321-5.403 12.826-12.253 14.924-5.137 1.572-9.689-2.158-10.737-7.252l.625-.71a.48.48 0 0 0 .123-.428 58.209 58.209 0 0 0-.595-2.774c-.606-2.494-.458-5.199-.645-7.751-.379-4.109-1.929-5.883-5.305-8.253-4.113-2.887-7.538-5.277-10.555-8.957Z"/><path fill="#E30002" d="M416.938 275.786c-21.504 4.05-36.03-16.24-33.659-36.067a.728.728 0 0 0-.088-.453c-.123-.217-.227-.35-.182-.611 1.151-6.494 1.909-10.253 5.147-15.343 5.819-9.168 13.25-16.764 22.291-22.788 12.002-8.002 26.041-15.649 39.814-18.723 11.515-2.567 23.271-3.637 35.051-2.632 18.522 1.582 36.936 9.278 48.627 23.887 11.855 14.806 15.28 35.427 6.166 52.489a5.451 5.451 0 0 0-.635 2.144c-1.476 17.836-9.492 33.603-28.132 37.811-2.716.614-5.213.852-7.489.714-19.019-1.167-20.49-21.704-21.11-35.973-.315-7.164-2.274-10.81-7.854-15.176-2.342-1.833-5.3-2.133-8.72-2.34-5.629-.345-10.269 1.56-13.921 5.715-9.546 10.865-20.165 24.498-35.306 27.346Zm69.624-51.198-2.224.493c-3.845 1.021-7.222 2.866-10.132 5.533-.122.108-.102.182.059.222 8.675 2.099 17.198 10.741 19.801 19.161 2.426 7.83 1.304 16.383 3.031 24.444 1.373 6.405 3.755 10.106 11.225 8.573 5.452-1.12 10.048-3.866 13.788-8.238 2.464-2.345 4.365-5.168 5.703-8.47 4.311-10.248 4.576-22.926 1.092-33.361-1.751-5.258-5.152-10.663-10.673-12.471-5.796-1.897-7.302 1.291-10.56 4.922a.384.384 0 0 0-.079.419c3.893 10.066 4.547 18.684 2.766 29.371-.049.305-.077.304-.084-.005-.201-12.978-6.889-33.145-23.713-30.593Z"/><path fill="#FAED9A" d="M373.167 186.215c.187 2.552.039 5.257.645 7.751.219.913.418 1.837.595 2.774a.479.479 0 0 1-.123.428l-.625.71c-.728-3.794-.892-7.682-.492-11.663Z"/><path fill="#fff" d="M589.19 204.953c.433-.092.61.109.532.601-.722 4.553-1.18 8.043-1.373 10.471-.537 6.794.61 27.227 13.207 22.216 6.717-2.67 11.564-9.164 14.556-15.338a.561.561 0 0 0 .029-.448c-.734-2.109.048-3.165 2.348-3.169-4.724 9.13-11.879 25.513-24.782 25.011-3.214-.956-6.09-2.817-8.626-5.583-2.239-3.892-2.401-8.337-1.658-12.978.627.056.963.478 1.009 1.266.01.191.085.22.226.089.148-.138-.531-3.892-.605-4.439l5.137-17.699Zm-264.247 12.249c6.225 10.909 10.334 20.689 15.476 33.061 8.616 20.734 9.837 43.744 8.149 66.118-1.201 15.851-4.306 35.387 4.202 49.341 1.142 1.877 4.424 5.144 6.944 3.661 1.423-.841 4.204-2.54 8.34-5.095-.275 8.524-4.261 23.02-12.956 26.474-2.825-.355-6.077-1.42-7.928-3.612-.433-.519-.907-.867-1.422-1.045-6.466-10.982-6.987-23.561-5.619-36.091 1.122-10.224 1.904-23.862 1.432-38.531-.404-12.337-1.905-24.645-3.745-37.195-1.237-8.422-3.21-16.468-5.92-24.138a737.905 737.905 0 0 0-11.509-30.474c-.066-.168-.017-.291.147-.37l4.409-2.104Zm11.766 31.012v-.789c0-.253-.081-.282-.241-.088-.128.151-.169.304-.123.458a1.3 1.3 0 0 0 .219.413c.041.048.077.074.103.075.026 0 .041-.024.042-.069Zm191.104 18.092c-.91.616-1.722 1-2.229 2.04a87.235 87.235 0 0 1-3.474 6.43c-3.74 4.372-8.336 7.118-13.788 8.238-7.47 1.533-9.852-2.168-11.225-8.573-1.727-8.061-.605-16.614-3.031-24.444-2.603-8.42-11.126-17.062-19.801-19.161-.161-.04-.181-.114-.059-.222 2.91-2.667 6.287-4.512 10.132-5.533.945.606 1.963 1.3 2.224-.493 16.824-2.552 23.512 17.615 23.713 30.593.007.308.035.31.084.005 1.781-10.687 1.127-19.305-2.766-29.371a.383.383 0 0 1 .079-.419c3.258-3.631 4.764-6.819 10.56-4.922 5.521 1.808 8.922 7.213 10.673 12.47 3.484 10.436 3.219 23.114-1.092 33.362Zm-19.89 2.809a.183.183 0 0 0-.173.123.184.184 0 0 0-.009.074l.118 1.458a.187.187 0 0 0 .116.155.182.182 0 0 0 .189-.037l1.521-1.458a.182.182 0 0 0-.128-.315h-1.634Z"/><path fill="#FAED9A" d="M584.053 222.651c.074.547.753 4.302.605 4.44-.141.131-.216.102-.226-.089-.046-.788-.382-1.21-1.009-1.266l.63-3.085Zm-97.491 1.937c-.261 1.794-1.279 1.099-2.224.493l2.224-.493Zm98.519 14.126c2.536 2.766 5.411 4.627 8.626 5.583-3.972-.204-6.848-2.065-8.626-5.583Zm-248.736 9.081c-.046-.154-.005-.307.123-.458.161-.194.241-.165.241.088v.789c-.001.045-.016.069-.042.069-.026-.001-.062-.027-.103-.075a1.3 1.3 0 0 1-.219-.413Zm191.468 18.511c-1.338 3.301-3.239 6.125-5.703 8.47a87.235 87.235 0 0 0 3.474-6.43c.507-1.04 1.319-1.424 2.229-2.04Zm-19.89 2.809h1.634a.183.183 0 0 1 .172.113.182.182 0 0 1-.044.202l-1.521 1.459a.189.189 0 0 1-.089.045.189.189 0 0 1-.1-.009.187.187 0 0 1-.116-.155l-.118-1.458a.184.184 0 0 1 .048-.139.188.188 0 0 1 .134-.058Z"/><path fill="#E30002" d="M443.515 278.24c-1.266 6.441-.902 12.719 1.092 18.832 2.151 6.597 8.124 12.066 15.481 8.997 9.094-3.794 11.672-18.128 11.441-26.642l-.212-3.173c-.016-.243.069-.286.256-.128 1.572 1.327 2.603 3.085 3.095 5.272 1.765 7.838.616 15.132-3.449 21.882-5.772 9.583-17.853 12.392-25.913 3.552-6.845-7.509-6.948-20.211-2.603-29.164a7.99 7.99 0 0 1 .94-1.483c.177-.223.243-.194.197.089l-.325 1.966Z"/><path fill="#fff" d="M443.515 278.24c2.987-.503 2.874 1.951 2.219 3.947a5.28 5.28 0 0 0-.123 2.813c.901 4.09 3.14 14.215 8.365 14.609 6.402.488 9.98-.739 12.096-7.13a145.542 145.542 0 0 0 2.593-8.721c.428-1.621.969-4.138 2.864-4.331.231 8.515-2.347 22.848-11.441 26.642-7.357 3.069-13.33-2.4-15.481-8.997-1.994-6.113-2.358-12.391-1.092-18.832Z"/><path fill="#E30002" d="M549.45 290.4c-.135 4.073-.117 7.294.054 9.662.177 2.52.802 4.942 1.875 7.268 2.204 5.765 8.567 5.809 12.1 1.655 2.864-3.532 3.691-8.691 4.606-13.032l1.279-8.081c.017-.115.044-.118.084-.009 3.095 8.184 2.027 21.674-4.532 27.922-2.264 2.158-6.122 2.03-9.399 1.172-9.359-2.448-9.354-12.396-8.69-20.29l1.363-7.632.586-1.847c.108-.339.185-.332.231.019l.443 3.193Z"/><path fill="#fff" d="m548.19 289.035-1.363 7.632c-.679-2.074-2.254-6.838 1.363-7.632Zm1.26 1.365a26.539 26.539 0 0 1 1.122 5.065 18.05 18.05 0 0 0 2.598 7.494c.102.161.238.285.408.37l4.906 2.488a1.035 1.035 0 0 0 1.053-.069c2.874-1.971 4.065-5.38 5.251-8.548.605-1.612 2.067-.912 3.297-1.247-.915 4.341-1.742 9.5-4.606 13.032-3.824 2.503-8.749.981-12.1-1.655a20.672 20.672 0 0 1-1.875-7.268c-.171-2.368-.189-5.589-.054-9.662Zm-116.421 50.779c-3.691 3.518-7.441 7.366-11.707 9.825-2.054 1.183-4.097 1.629-6.131 1.34l-2.835-6.494-.034-5.301 1.191-.232a.326.326 0 0 0 .275-.291c.251-1.473-.556-2.473-.531-3.794.015-.793.664-1.256.664-2.32a106.857 106.857 0 0 0-.143-5.322c.881-7.484 1.127-14.614-1.692-21.393 1.432-1.71 3.449-1.03 3.828 1.098.782 4.4 1.216 8.756 2.303 13.117a1 1 0 0 0 .241.438c.876.933.906 1.918.089 2.956a.722.722 0 0 0-.153.454c.005 2.384-.177 5.075.286 7.218.939 4.351 4.468 9.44 9.438 9.169a68.543 68.543 0 0 0 4.911-.468Z"/><path fill="#FAED9A" d="M551.379 307.33c3.351 2.636 8.277 4.158 12.1 1.655-3.533 4.154-9.896 4.11-12.1-1.655Zm-137.601 21.261c.092 1.783.14 3.557.143 5.321 0 1.064-.649 1.527-.664 2.321-.025 1.32.782 2.32.531 3.794a.326.326 0 0 1-.275.29l-1.191.232 1.456-11.958Z"/><path fill="#fff" d="m536.956 347.89-6.963 6.8a.262.262 0 0 1-.118.066.248.248 0 0 1-.3-.209c-.916-7.49-.345-15.412-2.589-21.956.817-1.434 4.754 8.086 5.034 8.859.952 2.602 2.597 4.748 4.936 6.44Zm-71.622-9.361c7.125 5.306 5.801 18.23 4.822 25.803-.576 4.425-1.757 12.638 1.457 16.196 2.957 3.266 5.595-.316 7.853-2.05l-1.068 4.804c-.725.811-1.069 1.798-1.033 2.961a.537.537 0 0 1-.153.409c-.17.178-.283.393-.339.646a1.45 1.45 0 0 0-.025.487c.023.211-.065.354-.265.429a.449.449 0 0 0-.281.33c-.467 2.341-2.49 6.898-5.688 5.4a.605.605 0 0 0-.463-.024c-3.597 1.305-7.416-8.13-8.365-10.717-.866-6.652.895-14.431 2.893-21.325.774 1.107.97 2.295.586 3.563-.437 1.438-.558 2.816-.364 4.134a.39.39 0 0 0 .404.33.39.39 0 0 0 .368-.37c.281-6.105 1.452-11.13 1.009-17.876.748-4.618.298-8.995-1.348-13.13Z"/><path fill="#FAED9A" d="m412.356 345.85 2.835 6.494c-1.913-1.501-2.858-3.665-2.835-6.494Z"/><path fill="#fff" d="M584.038 384.819c-.567 2.878-1.365 5.497-2.391 7.859-.666.266-1.131.748-1.393 1.444a.503.503 0 0 1-.261.281l-.787.345a.146.146 0 0 0-.068.064.15.15 0 0 0-.016.093.145.145 0 0 0 .128.123c.469.046.828.191 1.078.434-2.106 4.037-5.251 6.548-9.433 7.534-3.706-.996-11.323-4.908-10.211-9.48a.412.412 0 0 0-.113-.414l-2.343-2.395a1.35 1.35 0 0 0-.004-.749 4.014 4.014 0 0 0-.05-2.227l-.029-4.316.605-.167a.827.827 0 0 0 .491-.372.845.845 0 0 0 .1-.614c-.401-1.793-.427-3.487-.079-5.08.507-2.335.054-4.666-.374-6.977l.758-9.208c.846 0 1.594.302 2.244.906.216.204.29.161.221-.128a9.665 9.665 0 0 0-2.318-4.39l-1.132-6.77c3.891 2.68 6.452 6.363 7.682 11.047 1.629 6.213 1.757 12.83 2.445 19.265.394 3.656 2.299 11.505 7.569 9.844 1.453-.459 2.591-1.07 3.415-1.833a160.642 160.642 0 0 0 4.266-4.119Z"/><path fill="#FAED9A" d="M466.682 351.66c.443 6.745-.728 11.771-1.009 17.875a.39.39 0 0 1-.772.04c-.194-1.317-.073-2.695.364-4.134.384-1.268.188-2.455-.586-3.562l2.003-10.219Zm93.111 5.725a9.67 9.67 0 0 1 2.318 4.39c.069.289-.005.332-.221.128-.65-.604-1.398-.906-2.244-.906l.147-3.612Zm-52.623 13.796a.665.665 0 0 0-.644.069c.485-1.596.7-1.619.644-.069Zm51.718-.976c.428 2.311.881 4.642.374 6.977-.348 1.593-.322 3.287.079 5.08.046.21.01.43-.1.614a.827.827 0 0 1-.491.372l-.605.167a45.623 45.623 0 0 1 .241-6.312c.246-2.256.202-4.587.502-6.898Z"/><path fill="#fff" d="m505.93 372.442 1.831.498c1.619 7.223 5.147 13.584 12.971 15.274.18.04.233.143.157.311l-2.076 4.601c-.076.168-.189.203-.34.104a67.226 67.226 0 0 1-15.471-13.836.444.444 0 0 1-.059-.453l2.987-6.499Zm-75.682 25.356a.217.217 0 0 1-.369-.015 261.216 261.216 0 0 1-7.78-15.274c-.4-.851-.823-1.533-1.269-2.045-.282-.325-.231-.587.152-.784a43.778 43.778 0 0 1 13.257-4.276.443.443 0 0 1 .482.221l4.842 7.884c.062.1.092.216.089.334a.624.624 0 0 1-.108.331l-9.296 13.624Zm99.834 2.005c-.105-.046-.135-.123-.089-.232l9.325-20.763a.803.803 0 0 1 .379-.394c2.352-1.173 4.178 5.267 4.497 6.731 1.211 5.572-.964 13.199-2.942 18.467-.063.164-.177.221-.345.172a87.124 87.124 0 0 1-10.825-3.981Z"/><path fill="#FAED9A" d="M461.786 383.203c.949 2.587 4.768 12.023 8.365 10.717a.605.605 0 0 1 .463.024c3.198 1.498 5.221-3.059 5.688-5.4a.449.449 0 0 1 .281-.33c.2-.075.288-.218.265-.428a1.454 1.454 0 0 1 .025-.488c.056-.253.169-.468.339-.646a.537.537 0 0 0 .153-.409c-.036-1.163.308-2.15 1.033-2.961-.777 3.868-2.007 7.913-4.468 11.155-1.624 2.139-4.483 1.444-6.377.099-3.668-2.605-5.59-6.383-5.767-11.333Zm-116.038 2.902c.515.178.989.526 1.423 1.045 1.85 2.192 5.102 3.257 7.927 3.612-3.986 1.586-7.401-1.469-9.35-4.657Zm212.426 1.626c.227.733.243 1.475.05 2.227-.256-.699-.273-1.442-.05-2.227Zm.054 2.976 2.343 2.395a.412.412 0 0 1 .113.414c-1.112 4.572 6.505 8.484 10.211 9.48-7.775.547-11.909-5.292-12.667-12.289Z"/><path fill="#fff" d="M493.156 418.93a.41.41 0 0 1-.187-.448 97.006 97.006 0 0 0 2.539-22c0-1.626.4-3.053 1.201-4.282.111-.17.239-.182.383-.034a83.467 83.467 0 0 0 16.057 12.879c.154.096.192.225.113.39l-9.817 19.551a.348.348 0 0 1-.365.189.356.356 0 0 1-.137-.051l-9.787-6.194Z"/><path fill="#FAED9A" d="m581.647 392.678-1.319 2.784c-.25-.243-.609-.388-1.078-.434a.147.147 0 0 1-.044-.28l.787-.345a.503.503 0 0 0 .261-.281c.262-.696.727-1.178 1.393-1.444Z"/><path fill="#fff" d="M447.653 395.004c.017-.099.044-.155.084-.168a.402.402 0 0 1 .192-.017.412.412 0 0 1 .354.402c.123 5.513.389 12.426.768 16.456.725 7.624 3.22 14.688 7.484 21.192.004.01.005.021.002.031a.042.042 0 0 1-.016.026.048.048 0 0 1-.03.011.048.048 0 0 1-.03-.009 151.413 151.413 0 0 1-19.215-23.088.302.302 0 0 1 .014-.36 210.806 210.806 0 0 0 10.329-14.304.413.413 0 0 0 .064-.172Zm67.13 36.377c-.125-.059-.156-.151-.094-.276l9.827-19.477c.076-.148.187-.187.335-.118a96.986 96.986 0 0 0 12.494 4.636c.183.056.247.176.192.36l-6.393 21.512c-.046.161-.147.213-.305.158a160.71 160.71 0 0 1-16.056-6.795Zm-66.549 11.85c-3.72 4.819-9.01 9.593-13.601 13.461-.151.128-.25.095-.295-.099l-8.612-35.076a.401.401 0 0 1 .143-.434l2.096-1.7c.118-.098.223-.085.315.04a173.746 173.746 0 0 0 19.929 23.394.304.304 0 0 1 .092.2.327.327 0 0 1-.067.214Z"/><path fill="#FAED9A" d="M329.908 475.287a.494.494 0 0 0 .374-.469.476.476 0 0 0-.359-.472c-7.731-2.05-12.597-8.938-13.67-16.649a.39.39 0 0 0-.246-.33c-9.231-4.085-18.246-17.423-8.095-25.986 1.096-.926 2.341-1.033 3.735-.32.131.065.21.172.236.32 4.414 23.542 25.825 29.119 46.674 25.927a31.821 31.821 0 0 0 6.599-1.754c12.445-4.76 24.215-12.057 34.736-20.182a.506.506 0 0 1 .398-.099c4.754.789 7.387 3.504 7.898 8.145.099.9-.321 1.667-1.259 2.301a169.63 169.63 0 0 1-35.214 18.127c-2.337.877-4.812 1.35-7.169 3.099a.763.763 0 0 1-.458.158c-2.741.084-4.212 1.379-5.191 3.991-.94 2.498-1.86 5.035-3.095 7.302-5.556 10.209-15.329 19.605-27.07 21.916-2.928.576-5.609 4.301-6.544 6.795-2.549 6.799-8.371 22.857-15.796 26.187-8.277 3.711-4.321-7.149-2.825-9.721a7960.915 7960.915 0 0 1 11.874-20.265c3.607-6.14-3.011-11.904-8.242-6.716-4.701 4.668-8.836 8.301-12.406 10.899-3.208 2.33-12.759 7.164-16.415 3.331-5.954-6.238 13.921-18.329 17.533-20.182 2.67-1.367 5.33-2.759 7.981-4.178 4.626-2.474 3.681-9.505-1.757-10.254-.843-.118-2.047.043-3.612.483a116.262 116.262 0 0 1-21.607 3.898c-3.144.266-5.885.103-8.818-.503-2.495-.517-3.784-2.868-2.224-5.119 2.091-3.026 5.369-4.07 9.084-5.051 11.037-2.917 22.483-3.858 33.702-5.006.525-.052.916.151 1.171.611 3.489 6.233 13.365 11.348 20.077 9.766Z"/><path fill="#fff" d="M466.638 442.359a.561.561 0 0 1-.064-.774l.694-.828a.36.36 0 0 1 .354-.123c9.29 2.089 15.225-2.114 20.072-9.568.115-.178.262-.211.443-.099l8.375 5.129a.432.432 0 0 1 .2.28.458.458 0 0 1 .004.177.468.468 0 0 1-.066.164l-12.337 19.009a.325.325 0 0 1-.207.141.324.324 0 0 1-.246-.052 216.256 216.256 0 0 1-17.222-13.456Z"/><path fill="#FAED9A" d="M655.237 478.672c-3.336 3.459-1.082 7.676 2.746 9.534 8.439 4.095 16.79 8.918 23.167 16.063 3.154 3.532 2.977 8.711-2.731 9.051-4.468.266-10.944-3.479-14.457-6.287-3.527-2.815-7.149-6.074-10.865-9.776-4.783-4.759-11.559 1-8.125 6.795a2945.33 2945.33 0 0 1 11.49 19.551c1.442 2.478 6.579 13.84-1.968 10.815-7.376-2.612-13.178-19.004-16.057-25.971-1.348-3.272-3.483-6.558-7.007-7.263-12.075-2.414-22.109-12.653-27.433-23.281-1.914-3.818-2.136-9.696-7.613-9.829a.774.774 0 0 1-.457-.163c-2.21-1.695-4.444-2.094-6.717-2.941a167.573 167.573 0 0 1-34.244-17.398c-1.511-.996-1.614-3.558-1.727-5.149-.384-5.386 4.069-8.44 8.729-5.016 9.684 7.125 19.674 13.328 30.731 18.053 2.942 1.258 5.718 2.138 8.326 2.641 20.652 3.971 43.263-2.05 47.682-25.818a.41.41 0 0 1 .251-.321c1.319-.594 2.523-.455 3.612.419 3.399 2.72 4.832 6.264 4.301 10.633-.851 7.056-6.117 12.451-12.322 15.412a.472.472 0 0 0-.256.35c-1.102 7.686-5.993 14.456-13.625 16.56a.41.41 0 0 0-.291.463c.256 1.434 5.472.552 6.501.301 4.212-1.035 7.893-2.983 11.042-5.844 1.21-1.103 2.081-2.783 3.174-4.178a.438.438 0 0 1 .413-.177c9.865.883 17.687 1.78 23.467 2.69 6.063.951 15.54 2.523 19.236 6.711 2.101 2.385 1.26 4.961-1.673 5.686-2.72.673-5.487.895-8.302.665a118.133 118.133 0 0 1-22.306-3.996c-2.524-.705-4.925-.813-6.692 1.015Z"/><path fill="#fff" d="M495.193 462.787a.107.107 0 0 1-.037-.03.104.104 0 0 1-.021-.042.123.123 0 0 1-.003-.047.126.126 0 0 1 .017-.044l12.843-20.004c.092-.141.215-.176.369-.104a184.804 184.804 0 0 0 18.783 7.973c.177.062.239.184.187.364l-6.648 22.389c-.043.145-.135.189-.276.133a35.894 35.894 0 0 0-2.135-.729c-7.966-2.45-15.658-5.737-23.079-9.859Zm-35.228 24.759c-6.983-5.09-14.216-11.732-19.294-18.871-.115-.161-.096-.304.059-.429a138.266 138.266 0 0 0 16.878-16.22.386.386 0 0 1 .541-.034 203.264 203.264 0 0 0 18.404 14.328.276.276 0 0 1 .114.293.27.27 0 0 1-.045.101 400.431 400.431 0 0 1-15.963 20.743c-.203.247-.435.276-.694.089Zm11.367 7.583c-.164-.096-.185-.217-.064-.365a460.326 460.326 0 0 0 16.239-21.261.311.311 0 0 1 .183-.12.303.303 0 0 1 .215.032 131.635 131.635 0 0 0 27.695 11.79c.035.011.067.03.094.056a.236.236 0 0 1 .024.304l-15.831 21.65a.636.636 0 0 1-.698.232 125.946 125.946 0 0 1-27.857-12.318Zm-28.806-5.223 9.069 7.524c.187.151.198.315.034.492l-5.541 5.952a.108.108 0 0 1-.187-.049l-3.395-13.904.001-.007a.01.01 0 0 1 .005-.006.049.049 0 0 1 .007-.003.02.02 0 0 1 .007.001Zm7.701 30.031c-.915-.473-.704-1.375-.049-2.01a228.079 228.079 0 0 0 12.11-12.737.535.535 0 0 1 .679-.103 142.59 142.59 0 0 0 27.62 13.081c.167.056.194.151.079.286a158.07 158.07 0 0 1-18.202 18.014.46.46 0 0 1-.502.054c-7.116-3.63-13.291-8.358-18.527-14.185-1.097-1.222-1.821-1.681-3.208-2.4Zm35.169 22.512c-.086-.029-.095-.074-.03-.133a192.71 192.71 0 0 0 18.96-20.127.353.353 0 0 1 .364-.129l1.102.222c.201.04.271.156.212.35l-6.874 23.153c-.076.263-.248.366-.517.31a109.297 109.297 0 0 1-13.217-3.646Zm-24.909 2.35a.116.116 0 0 1 .04.045.116.116 0 0 1-.003.115.113.113 0 0 1-.042.042l-3.632 2.011c-.184.102-.302.051-.354-.153l-1.339-5.38c-.039-.158.009-.193.143-.104l5.187 3.424Zm.349 19.044a.561.561 0 0 1-.276-.36l-.836-3.291c-.046-.184.016-.319.187-.404a97.688 97.688 0 0 0 13.458-7.879.77.77 0 0 1 .748-.079 116.046 116.046 0 0 0 20.481 6.544.117.117 0 0 1 .086.078c.006.019.008.04.004.06a.123.123 0 0 1-.026.054l-12.942 14.412a.724.724 0 0 1-.797.226c-7.298-2.089-13.468-5.621-20.087-9.361Zm10.949 20.177-4.655 5.232a.16.16 0 0 1-.238.008.164.164 0 0 1-.043-.077l-1.993-8.105a.164.164 0 0 1 .054-.162.154.154 0 0 1 .08-.036.156.156 0 0 1 .088.011l6.648 2.872a.17.17 0 0 1 .061.046.163.163 0 0 1-.002.211Zm4.709 34.844a1.301 1.301 0 0 0-.65-.019l-.265-.04a.46.46 0 0 1-.379-.276c-1.949-4.114-3.076-8.765-4.385-13.268a1.166 1.166 0 0 1 .261-1.158l3.263-3.671a.263.263 0 0 1 .251-.089c.055.01.108.025.157.045.056.019.099.003.128-.05.162-.295.207-.645.423-.891a808.822 808.822 0 0 1 10.383-11.555c.158-.17.345-.28.561-.33a.302.302 0 0 1 .359.225.292.292 0 0 1-.005.155c-1.938 6.632-3.71 12.485-5.762 19.94-.846 3.079-2.224 8.613-4.34 10.982Z"/><path fill="#FAED9A" d="M504.434 670.876c1.447-3.986 4.547-10.377 8.336-12.604 17.257-10.14 39.253-17.718 59.365-12.495 15.997 4.158 26.1 17.693 28.368 33.687.02.134-.038.202-.172.202l-115.791.251c-.191 0-.288-.095-.291-.286l-1.156-46.813a.773.773 0 0 1 .157-.483c3.597-4.784 13.69-5.957 17.499-.852.383.512.585 1.158.605 1.936.143 5.322.576 10.806.571 16.201a.365.365 0 0 1-.236.36c-3.863 1.695-6.85.157-10.477-1.04a.26.26 0 0 0-.282.089.254.254 0 0 0-.055.145.264.264 0 0 0 .037.15l13.143 21.586a.22.22 0 0 0 .086.08.216.216 0 0 0 .115.022.213.213 0 0 0 .178-.136Zm-120.372-24.518 14.536-2.882c1.697-.084 3.449-.321 5.068-.271 12.955.384 24.798 4.201 35.528 11.45 1.723 1.163 3.396 3.064 5.02 5.701.659 1.064 1.245 4.622 2.888 6.011.141.122.271.11.389-.034l13.724-17.206c.128-.158.093-.264-.103-.32-3.164-.887-6.063-.621-9.163-2.035-.154-.069-.225-.189-.212-.36l.98-12.948a.745.745 0 0 1 .187-.444c4.463-5.218 12.72-7.075 16.844-.202.757 1.257.575 2.538.605 3.957.302 14.302.649 28.594 1.043 42.876a.222.222 0 0 1-.016.088.219.219 0 0 1-.123.126.233.233 0 0 1-.087.018l-120.068.182c-.177 0-.239-.084-.187-.251 4.901-16.068 17.376-28.189 33.147-33.456Z"/></svg>