<svg xmlns="http://www.w3.org/2000/svg" width="900" height="900" fill="none"><g clip-path="url(#a)"><path stroke="#E30002" stroke-width="2" d="M743.25 624.21c-12.08-3.12-20.74-11.31-29.28-19.36-1.18-1.11-2.26-1.06-3.47-.14m-10.78-.01c-12.707-2.187-23.717-7.667-33.03-16.44a.94.94 0 0 0-.84-.26.739.739 0 0 0-.6.46m-8.75 1h-23.25m-6-.75a5.416 5.416 0 0 0-1.58-.45 162.544 162.544 0 0 1-43.59-11.31m7.67 142.01a46.022 46.022 0 0 1-16.24 2.52m-18.21 31.01a51.243 51.243 0 0 1-16.49 1.69 5856.75 5856.75 0 0 0-57.25-3.14c-.507-.027-.763.21-.77.71m-64.04-3.71c-1.053-.6-2.47-.94-4.25-1.02-10.967-.493-29-1.48-54.1-2.96-17.38-1.03-30.62-12.29-30.16-30.55.04-1.37-.23-2.69-.45-4.01m4.18-73.5c1.047-3.04 1.26-6.127.64-9.26m.43-8.49.24-.15a.43.43 0 0 0 .19-.32c.933-9.327 1.29-18.67 1.07-28.03m1.42-24.5a4.295 4.295 0 0 0 .13 1.67c.207.767.333.753.38-.04l.33-5.97c.013-.333-.14-.537-.46-.61-.74-.187-1.173-.037-1.3.45m-84.52 6.2a39.036 39.036 0 0 0-13.79-2.3M190 619.03c.76-1.013 1.11-2.523 1.05-4.53-.2-6.313-.2-18.447 0-36.4 0-.333-.12-.617-.36-.85-.273-.26-.587-.273-.94-.04m-7 2.08c-10.02.92-20.2-.6-25.37-10.23a.111.111 0 0 0-.12-.06c-.1.013-.187.027-.26.04m3.29-13.35c.053-.087.04-.273-.04-.56a.966.966 0 0 0-.62-.69c-5.747-2.193-8.803-6.423-9.17-12.69m7-10.27c-.127-1.647-.937-2.743-2.43-3.29M191.04 496c.42-1.28.96-2.34.96-3.72.007-23.2.003-46.397-.01-69.59 0-.56-.33-1.07-.95-.94m-4-27.75c-4.6-.447-8.807-.393-12.62.16m-55.38 188.09c.087.04.153.113.2.22.06.12.153.157.28.11.4-.15.23-122.14.23-133.53a.443.443 0 0 0-.21-.39l-.25-.16m26.16-53.47c-1.62-.967-3.273-1.167-4.96-.6-.113.04-.11.06.01.06.267-.007.517.067.75.22m-15.81.15a265.367 265.367 0 0 1-.46-29.1m9.27-.3 4.16.18c.353.013.533-.16.54-.52.233-12.707.347-25.41.34-38.11-.007-9.68.407-16.317 1.24-19.91 4.16-17.93 20-31.3 39.22-29.64m1.5.25c20.4 4.59 31.77 22.89 31.96 43.05.14 14.66.25 29.33.33 44.01 0 .32.157.48.47.48l8.33.01a1.53 1.53 0 0 1 1.52 1.34l1.28 10.05m-9.52 17.23c-2.313-.533-4.757-.617-7.33-.25-.18.027-.277.13-.29.31 0 .107-.013.21-.04.31M349.04 341c1.28-1.7.96-10.29.92-14.25m.08-3c1.36-1.45 1.59-20.86 1.6-24.05m-8.35 361.62 68.46 3.91c.647.04.953.38.92 1.02l-3.77 68.78a.182.182 0 0 0 .009.08.205.205 0 0 0 .109.12.215.215 0 0 0 .082.02c42.28 2.427 84.54 4.807 126.78 7.14 6.773.373 11.48.11 14.12-.79 5.153-1.753 8.763-5.433 10.83-11.04 1.02-2.77.79-6.45 1.09-9.58a.63.63 0 0 0-.61-.69c-3.53-.09-7.41-.13-10.59-1.46-9.18-3.83-11.5-11.05-10.95-20.67 1.213-21.573 2.413-43.15 3.6-64.73.62-11.37 8.23-19.19 19.89-18.26 1.3.107 2.627.127 3.98.06.387-.02.59-.223.61-.61 6.27-112.33 12.07-224.65 20.03-336.87.64-9.09-2.99-16.63-11.69-19.59-1.72-.58-6.72-1.103-15-1.57-56.467-3.167-112.937-6.323-169.41-9.47-10.76-.6-18.59-.42-23.6 9.27-.92 1.78-1.47 4.123-1.65 7.03-3.873 62.133-7.787 124.263-11.74 186.39-4.47 70.35-8.17 140.68-12.05 210.9-.02.387.163.59.55.61Z"/><path stroke="#E30002" stroke-width="2" d="M196.42 315.7a.594.594 0 0 1 .417.166.584.584 0 0 1 .173.414c-.027 11.813-.023 23.55.01 35.21.01 2.39.57 5.09.48 7.76-.02.433.153.53.52.29 2.8-1.86 5-4.02 5-7.7 0-16.84 2.94-41.22-8.09-54.33-12.91-15.33-33.89-11.78-42.14 6.04-2.053 4.433-3.073 9.167-3.06 14.2.047 14.113-.04 25.983-.26 35.61-.06 3.07 1.39 4.75 3.85 6.15.347.2.523.097.53-.31l.21-37.27a.677.677 0 0 1 .405-.612.675.675 0 0 1 .725.112l19.05 17.14a1.998 1.998 0 0 0 1.482.504 1.986 1.986 0 0 0 1.388-.724c1.64-1.98 18.56-22.64 19.31-22.65Z"/><path stroke="#E30002" stroke-width="2" d="M165.19 365.24c7.013.533 14.01.437 20.99-.29a.916.916 0 0 0 .584-.302.933.933 0 0 0 .236-.618v-20.45a.332.332 0 0 0-.222-.322.354.354 0 0 0-.388.102l-8.73 10.57c-.267.32-.58.38-.94.18-3.96-2.19-7.78-6.84-11.39-9.88-.387-.32-.58-.23-.58.27v20.26c0 .293.147.453.44.48ZM215.945 375.902a.266.266 0 0 0-.02-.1.267.267 0 0 0-.242-.159l-79.258.554a.241.241 0 0 0-.099.021.263.263 0 0 0-.159.241l.048 6.96c0 .034.007.068.021.099a.263.263 0 0 0 .241.159l79.258-.554a.241.241 0 0 0 .099-.021.263.263 0 0 0 .159-.241l-.048-6.96M589.96 634.75c.427-4.22-1.477-6.457-5.71-6.71m-372.73-76.03-6.69-3.57c-.387-.207-.58-.093-.58.34l-.14 18.95c0 .36.18.55.54.57 11.1.7 18.67-5.55 26.4-12.49 2.35-2.11 6.9-2.28 10.3-1.54 24.83 5.35 51.21 4.69 75.64-.03 14.38-2.78 15.99-21.38-2.9-17.54-23.413 4.76-47.03 5.8-70.85 3.12-4.31-.49-9.92-2.67-16.16-3.87-2.62-.5-3.49-2.08-4.22-4.77-7.67-28.26-53.3-13.06-38.47 14.28 6 11.07 11.38-.9 11.73-6.76.23-3.9 2.63-5.66 5.7-7.66a.837.837 0 0 1 1.3.67c.347 7.78 3.3 14.333 8.86 19.66a.399.399 0 0 1 .039.513.398.398 0 0 1-.499.127Zm-46.82-29.18a17.596 17.596 0 0 0 7.42 2.39c.353.033.617-.107.79-.42l2.89-5.26c.193-.34.093-.52-.3-.54-3.94-.193-7.547.787-10.82 2.94-.473.307-.467.603.02.89Zm536.84 47.14c4.38-6.59 6.7-11.33 4.33-19.5a.936.936 0 0 1 .17-.88c6.28-7.85 8.95-23.7-4.23-26.39-1.493-.3-2.4.123-2.72 1.27a1.379 1.379 0 0 0-.03.71c6.06 28.53-21.96 44.2-46.64 43.39-19.31-.64-33.93-4.7-50.8-9.56-3.9-1.12-11.91-1.68-13.05 3.4-.073.313-.05.62.07.92 1.68 4.173 4.55 6.903 8.61 8.19 16.547 5.24 33.907 7.737 52.08 7.49 5.94-.08 13.92-1.06 20.95-1.18a2.401 2.401 0 0 1 1.83.8c9.68 10.89 24.82 17.73 39.52 14.71 4.02-.83 8.34 2.41 11.32 5.45 4.35 4.42 19.38 18.86 26.01 13.78.428-.329.721-.803.825-1.331a2.196 2.196 0 0 0-.265-1.539 18.276 18.276 0 0 0-5.11-5.6c-6.42-4.6-12.87-9.147-19.35-13.64-4.04-2.8-3.55-9.41 1.97-9.71.967-.053 2.43.273 4.39.98 5.6 2.02 27.45 8.77 30.01.46 2.96-9.57-25.66-11.2-30.78-11.32-4.92-.12-10.16-4.23-5.75-9.15.853-.953 1.63-1.477 2.33-1.57 8.42-1.12 27.02-4.79 32-11.21a1.44 1.44 0 0 0 .32-.89c.16-11.47-38.54 3.5-44.04 5.48a.816.816 0 0 0-.56.66c-1.393 7.64-5.537 13.263-12.43 16.87-1.747.92-2.073.557-.98-1.09Zm-539.59-26.01c3.14 1.72 6.483 2.313 10.03 1.78.407-.06.567-.29.48-.69l-1.63-7.12c-.06-.26-.22-.38-.48-.36-3.46.293-6.377 1.677-8.75 4.15a1.44 1.44 0 0 0-.377 1.206 1.435 1.435 0 0 0 .727 1.034Zm27.099 19.449c-.04-.636-.359-1.248-.94-1.801-.581-.553-1.412-1.036-2.446-1.423-1.034-.386-2.25-.668-3.58-.828a22.996 22.996 0 0 0-4.167-.108 22.938 22.938 0 0 0-4.121.629c-1.299.326-2.47.758-3.448 1.27-.977.513-1.741 1.097-2.248 1.719-.508.621-.748 1.268-.708 1.904.04.636.359 1.248.94 1.801.581.553 1.412 1.036 2.446 1.423 1.034.386 2.25.668 3.579.828 1.33.161 2.746.198 4.168.108a22.938 22.938 0 0 0 4.121-.629c1.299-.326 2.47-.758 3.448-1.27.977-.513 1.741-1.097 2.248-1.719.508-.621.748-1.268.708-1.904ZM584.25 628.04c-6.52-.333-13.06-.713-19.62-1.14-8.33-.55-9.21 1.86-9.65 9.42-1.26 21.807-2.5 43.617-3.72 65.43-.26 4.65 3.13 6.44 7.44 6.71 6.853.42 13.703.823 20.55 1.21 5.06.29 6.83-2.94 7.1-7.64a8386.351 8386.351 0 0 0 3.61-67.28"/><path stroke="#FFEF9B" stroke-width="2" d="M584.25 628.04c2.907 1.38 4.81 3.617 5.71 6.71"/><path stroke="#E30002" stroke-width="2" d="M340.48 719.59c2.47 8.57 9.24 12.33 18.28 12.85 12.633.72 25.05 1.42 37.25 2.1.72.04 1.103-.303 1.15-1.03l3.21-56.17c.04-.733-.303-1.12-1.03-1.16l-56.84-3.17a.5.5 0 0 0-.474.275.459.459 0 0 0-.046.185c-.64 11.807-1.29 23.6-1.95 35.38-.287 5.14-.137 8.72.45 10.74ZM410.99 873.22l-15.47-1.41c-.34-.033-.42-.197-.24-.49 5.37-8.46.41-13.79-7.59-16.77-35.87-13.33-75.29.08-88.28 37.53-.113.32 0 .477.34.47l131.95-.88c.367-.007.563-.19.59-.55l10.44-134.34c.027-.34-.127-.477-.46-.41-7.65 1.49-17.04 7.1-18.39 15.42-4.967 30.407-9.937 60.807-14.91 91.2-.507 3.08.267 6.337 2.32 9.77.2.347.1.5-.3.46Zm173.25 17.08c-13.84-40.12-59.07-48.73-93.01-29.32-5.513 3.153-9.23 8.027-11.15 14.62-.087.307-.28.413-.58.32l-11.78-3.46c-.4-.113-.547-.373-.44-.78.92-3.39 1.77-6.61 1.81-10.17.38-31.12.68-62.263.9-93.43 0-.38-.137-.697-.41-.95a45.233 45.233 0 0 0-15.74-9.6c-.42-.153-.647-.003-.68.45l-10.4 133.29a.323.323 0 0 0 .193.317.295.295 0 0 0 .127.023l140.92-.96c.24-.007.32-.123.24-.35Zm-177.7-620.37 8.98 8.09a.851.851 0 0 0 1.42-.63c.007-1.233.447-2.273 1.32-3.12 14.77-14.41 38.6-12.06 46.9 8.1.127.307.317.353.57.14l10.5-9.01c.307-.267.28-.493-.08-.68a47.224 47.224 0 0 1-10.05-7.01c-17.35-15.87-37.34-13.98-55 .41-1.17.95-3.28 1.7-4.57 2.94-.273.26-.27.517.01.77Zm85.28 9.89c16.77-17.22 43.7-15.27 51.63 9.68.08.253.23.303.45.15l10.2-7.33c.347-.247.377-.527.09-.84a8.263 8.263 0 0 0-2.85-2.06c-.307-.14-.55-.35-.73-.63-9.73-14.95-24.44-23.96-42.71-19.72-7.38 1.72-14.94 6.31-23.22 8.27-.307.073-.383.247-.23.52l6.62 11.86c.207.367.457.4.75.1Z"/><path stroke="#E30002" stroke-width="2" d="M427.925 343.74c3.712.816 7.602.65 11.447-.49 3.846-1.14 7.572-3.23 10.966-6.152 3.394-2.922 6.39-6.618 8.815-10.877 2.426-4.26 4.234-8.999 5.322-13.947 2.197-9.993 1.326-20.232-2.421-28.464-3.747-8.231-10.063-13.782-17.559-15.43-3.712-.816-7.602-.65-11.447.49-3.846 1.139-7.572 3.23-10.966 6.152-3.394 2.922-6.39 6.618-8.815 10.877-2.426 4.26-4.234 8.999-5.322 13.947-2.197 9.993-1.326 20.232 2.421 28.463 3.747 8.232 10.063 13.783 17.559 15.431ZM502.494 348.533c7.93 1.904 16.503-.302 23.833-6.132 7.33-5.829 12.817-14.805 15.253-24.953s1.622-20.636-2.262-29.157c-3.885-8.522-10.522-14.379-18.452-16.283-7.93-1.904-16.503.302-23.833 6.131-7.33 5.829-12.817 14.805-15.253 24.953s-1.622 20.636 2.262 29.157c3.885 8.522 10.522 14.38 18.452 16.284ZM396.18 342.209a13.93 13.93 0 0 0-4.688-3.252 14.559 14.559 0 0 0-5.678-1.145 15.486 15.486 0 0 0-5.804 1.134 16.138 16.138 0 0 0-5.045 3.243 16.168 16.168 0 0 0-3.519 4.856 15.48 15.48 0 0 0-1.457 5.731 14.567 14.567 0 0 0 .827 5.733 13.918 13.918 0 0 0 2.985 4.862 13.913 13.913 0 0 0 4.688 3.251 14.556 14.556 0 0 0 5.678 1.146c1.97.002 3.942-.384 5.803-1.135a16.135 16.135 0 0 0 5.045-3.242 16.168 16.168 0 0 0 3.519-4.856 15.518 15.518 0 0 0 1.457-5.731 14.567 14.567 0 0 0-.827-5.733 13.933 13.933 0 0 0-2.985-4.862M463 332.02c-11.33 7.03-8.74 22.23 4.74 24.63 4.22.76 9.64-.76 14.24-1.67.327-.067.42-.25.28-.55l-5.42-12.01a.309.309 0 0 0-.55-.02c-2.033 3.76-5.047 5.13-9.04 4.11-1.61-.42-2.58-2.51-2.03-4.08 1.62-4.59 5.47-4.37 9.54-4.46a.616.616 0 0 0 .471-.236.63.63 0 0 0 .119-.514l-2.41-10.71c-.1-.44-.34-.54-.72-.3a847.824 847.824 0 0 1-9.22 5.81Zm77.41 43.32c.82-10.807-2.733-19.79-10.66-26.95-.227-.2-.453-.2-.68 0l-8.24 7.2a.617.617 0 0 0-.079.852.622.622 0 0 0 .249.188c6.02 2.46 8.92 7.05 9.25 13.61.52 10.23-3.64 15.32-9.71 22.9-.227.287-.173.51.16.67l11.36 5.41c.393.187.65.07.77-.35.84-2.89 1.04-5.34 2.57-8.02 1.41-2.46 5.87-12.42 5.08-14.91a1.398 1.398 0 0 1-.07-.6Z"/><path stroke="#E30002" stroke-width="2" d="M423.72 391.77c20.49 17.77 50.93 18.15 75.6 8.57 11.69-4.54 24.7-13.87 25.1-27.86.213-7.447-3.777-12.603-11.97-15.47-16.85-5.9-30.72 4.09-46.98 5.16-16.44 1.08-32.42-10.41-45.4 6.39-5.99 7.75-3.07 17.38 3.65 23.21Zm-54.88-5.82c2.79-5.49 10.34.64 6.68 5.38-1.99 2.58-5.29 1.94-7.88.63-.56-.28-.81-.11-.75.51.387 4.32.2 8.597-.56 12.83-.113.607.09.743.61.41 10.33-6.56 13.21 7.99 5.64 8.22-2.1.07-3.95-1.59-5.61-2.78a.61.61 0 0 0-.97.49c.01 5.44-1.17 11.01-.82 16.49a.774.774 0 0 0 .498.664.767.767 0 0 0 .812-.174c4.29-4.3 11.02-4.84 16.74-4.65.507.02.77-.223.79-.73l2.22-46.45a1.76 1.76 0 0 1 .23-.8c.053-.1.103-.203.15-.31.193-.42.057-.637-.41-.65-3.46-.1-6.96.38-10.16-.71a34.974 34.974 0 0 1-6.46-2.99c-.267-.16-.433-.087-.5.22a53.148 53.148 0 0 0-1.04 14.24.422.422 0 0 0 .598.344.422.422 0 0 0 .192-.184Zm197.36 46.81a17.431 17.431 0 0 0-5.108-12.332 17.444 17.444 0 0 0-24.664 0A17.44 17.44 0 1 0 566.2 432.76Zm-177.38 32.56-.56 10.65c-.02.34-.197.503-.53.49-7.26-.2-16.06.01-22.8-2.72a.623.623 0 0 0-.772.275.606.606 0 0 0-.078.285l-.41 15.26c-.013.453.163.547.53.28 5.56-4.11 16.07-2.14 22.74-1.76.433.027.637.257.61.69l-.6 10.46c-.027.4-.237.59-.63.57-6.39-.3-16.62.19-22.23-2.82a.728.728 0 0 0-.953.267.701.701 0 0 0-.097.343l-.36 15.14c-.013.453.17.56.55.32 2.11-1.33 3.81-2.33 6.45-2.29 5.373.087 10.763.34 16.17.76.327.027.48.203.46.53l-.7 10.67c-.027.327-.203.48-.53.46-7.23-.38-15.73-.03-22.39-3.04-.373-.173-.567-.053-.58.36l-.57 15.42c-.02.447.167.567.56.36 2.02-1.07 3.55-2.29 5.97-2.26 5.393.08 10.82.377 16.28.89.38.033.56.24.54.62l-.58 10.42c-.013.34-.19.503-.53.49-8.09-.28-16.95-.13-22.4-3.01-.42-.22-.64-.093-.66.38l-.61 15.59a.42.42 0 0 0 .238.392.392.392 0 0 0 .442-.072c4.3-3.98 16.6-1.91 22.18-1.52.34.027.53.21.57.55.707 6.507 4.183 10.443 10.43 11.81.367.087.547.317.54.69-.14 6.24-.517 12.467-1.13 18.68-.13 1.3-.98 2.53-1.32 3.86-.113.473.073.72.56.74l15.09.6c.553.02.68-.2.38-.66-3.66-5.64-2.58-13.92-1.72-22.74.033-.36.233-.53.6-.51l10.46.6c.373.027.55.223.53.59-.29 7.2.04 16.15-2.19 22.96-.14.427.017.65.47.67l15.25.5c.533.013.65-.2.35-.64a15.3 15.3 0 0 1-2.44-5.65c-.33-1.55.3-3.27.09-5-.48-4.15-.14-8.05.18-12.2.027-.347.213-.513.56-.5l10.47.51a.617.617 0 0 1 .59.65c-.3 6.14-.643 12.26-1.03 18.36-.1 1.62-.63 2.72-1.24 4.2-.187.453-.037.69.45.71l15.29.57c.6.027.733-.21.4-.71-3.86-5.85-2.74-15.82-2.13-22.58.033-.307.203-.45.51-.43l10.69.63c.34.02.5.197.48.53-.4 6.9.16 15.93-2.42 22.29-.18.46-.027.7.46.72l15.25.61c.607.027.743-.213.41-.72-3.9-5.87-2.62-15.44-2.04-22.15.033-.4.25-.587.65-.56l10.47.6c.36.02.53.207.51.56-.28 6.88.09 15.98-2.43 22.35-.187.46-.03.7.47.72l15.33.69a.478.478 0 0 0 .39-.78c-3.95-4.77-2.7-14.24-1.94-22.29.027-.293.187-.457.48-.49 6.567-.627 10.487-4.157 11.76-10.59.067-.327.267-.487.6-.48 6.43.16 17.01.18 22.74 3.2a.546.546 0 0 0 .529-.016.549.549 0 0 0 .271-.454l.5-15.15a.521.521 0 0 0-.071-.283.518.518 0 0 0-.502-.245.518.518 0 0 0-.267.118c-1.78 1.49-3.53 2.16-6 2.06a643.045 643.045 0 0 1-16.61-.92c-.353-.027-.52-.217-.5-.57l.54-10.66c.013-.347.193-.51.54-.49 6.63.34 17.16-.19 23.01 2.81.433.22.663.087.69-.4l.73-15.2c.027-.52-.19-.657-.65-.41l-3.98 2.11c-.3.16-.62.233-.96.22l-18.08-.7a.55.55 0 0 1-.53-.58l.54-10.68a.528.528 0 0 1 .56-.51c7.68.37 15.74.23 22.82 2.85.36.133.547.007.56-.38l.59-15.15c.02-.507-.193-.637-.64-.39-1.96 1.11-3.37 2.1-5.75 2.11-5.587 0-11.21-.24-16.87-.72-.333-.027-.493-.207-.48-.54l.45-10.56c.02-.373.217-.553.59-.54 7.17.25 15.82.02 22.44 2.9.447.193.68.047.7-.44l.57-15.07c.027-.693-.247-.847-.82-.46-5.48 3.73-15.71 1.81-22.18 1.39-.347-.027-.51-.21-.49-.55l.63-10.61c.02-.393.227-.577.62-.55 6.58.41 16.68-.1 22.39 3.16a.513.513 0 0 0 .49.001.49.49 0 0 0 .25-.411l.52-15.52c.02-.567-.193-.677-.64-.33-2.05 1.58-3.58 2.34-6.31 2.27-5.333-.14-10.66-.413-15.98-.82-.347-.02-.537-.203-.57-.55-.593-6.64-4.127-10.573-10.6-11.8-.347-.067-.51-.277-.49-.63.31-7.09-.08-16.31 2.89-22.79.167-.36.053-.547-.34-.56l-15.51-.55c-.453-.013-.563.173-.33.56 1.21 2.02 2.33 3.56 2.32 6.05a182.872 182.872 0 0 1-.79 16.79c-.027.32-.2.47-.52.45l-10.42-.59c-.407-.027-.603-.243-.59-.65.24-7.05-.13-16.13 2.32-22.71.18-.487.01-.743-.51-.77l-15.19-.77a.538.538 0 0 0-.533.317.565.565 0 0 0 .103.623c3.96 4.15 2.54 17.19 2.08 22.69-.033.393-.247.58-.64.56l-10.52-.58c-.387-.02-.573-.223-.56-.61.28-6.59-.17-16.51 2.44-22.49.193-.447.047-.683-.44-.71l-15.15-.79a.569.569 0 0 0-.47.93c4 5.03 2.47 16.29 1.99 22.45-.027.353-.217.52-.57.5l-10.06-.57c-.753-.047-1.107-.443-1.06-1.19.36-6.18-.23-16.58 2.59-21.47a.646.646 0 0 0 .002-.637.645.645 0 0 0-.542-.333l-15.18-.55a.513.513 0 0 0-.487.296.54.54 0 0 0 .077.574c4.03 4.66 2.31 16.14 1.79 21.96-.033.367-.233.543-.6.53l-10.43-.45c-.453-.02-.667-.257-.64-.71l1.2-18.69c.027-.407.143-.783.35-1.13.493-.813.89-1.673 1.19-2.58.14-.433-.017-.657-.47-.67l-15.24-.45c-.533-.013-.65.203-.35.65 3.85 5.79 2.09 15.6 1.69 22.27a.564.564 0 0 1-.164.37.546.546 0 0 1-.366.16c-6.727.393-10.687 3.877-11.88 10.45-.067.393-.3.58-.7.56-7.38-.36-15.37-.32-22.3-3.09-.493-.193-.753-.027-.78.5l-.82 14.44c-.107 1.86.447 2.083 1.66.67 2.7-3.14 17.58-1.1 21.84-.85.333.013.493.19.48.53Zm14.16 162.95a23.29 23.29 0 1 0-46.581 0 23.29 23.29 0 0 0 46.581 0Zm70.735-6.184a.26.26 0 0 0-.245-.274l-46.148-2.58a.26.26 0 0 0-.274.245l-5.843 104.497a.26.26 0 0 0 .245.274l46.148 2.58a.26.26 0 0 0 .274-.245l5.843-104.497Zm57.035 25.044a23.278 23.278 0 0 0-23.28-23.28 23.278 23.278 0 0 0-23.28 23.28 23.278 23.278 0 0 0 23.28 23.28 23.278 23.278 0 0 0 23.28-23.28Zm-3.25 58.38a23.278 23.278 0 0 0-23.28-23.28 23.278 23.278 0 0 0-23.28 23.28 23.278 23.278 0 0 0 23.28 23.28 23.278 23.278 0 0 0 23.28-23.28Z"/><path stroke="#E30002" stroke-width="2" d="M388.57 349.275a3.626 3.626 0 0 0-1.397-.882 4.235 4.235 0 0 0-1.73-.214 5.157 5.157 0 0 0-1.798.487 5.856 5.856 0 0 0-1.594 1.113c-.949.93-1.55 2.138-1.67 3.358-.12 1.22.25 2.352 1.03 3.148.779.796 1.904 1.19 3.126 1.095 1.222-.094 2.443-.669 3.392-1.599.949-.93 1.55-2.138 1.67-3.358.12-1.22-.251-2.352-1.03-3.148M506.23 460.31a.597.597 0 0 0-.565-.633l-103.918-5.81a.598.598 0 0 0-.632.566l-5.806 103.837a.589.589 0 0 0 .152.434.588.588 0 0 0 .414.199l103.918 5.81a.598.598 0 0 0 .632-.566l5.806-103.838M434.03 279.83c8.2 4.52 11.72 14.49 2 19.99-1.31.74-2.91 1-4.48 1.45-.56.16-.59.39-.09.69 14.57 8.81 9.97 24.84-4.79 29.83a.337.337 0 0 0-.233.301.337.337 0 0 0 .193.329c8.53 4.19 17.13-1.47 21.78-8.5 7.19-10.86 10.18-28.2 1.87-39.68-4.2-5.807-9.603-7.437-16.21-4.89-.36.133-.373.293-.04.48Zm77.68 2.46c11.29 9.09 8.93 22.57-6.7 22.76-1.18.013-1.283.35-.31 1.01 12.65 8.64 13.89 27.41-4.52 29.59-.527.06-.583.257-.17.59 7.8 6.27 18.13.86 23.66-5.68 7.393-8.74 10.15-19.183 8.27-31.33-1.58-10.18-8.8-19.01-20.13-17.32a.208.208 0 0 0-.181.155.21.21 0 0 0 .081.225Zm-40.29 108.96c-2.453-1.12-2.9-2.923-1.34-5.41.173-.273.137-.517-.11-.73-9.54-7.98-24.02-5.33-33.9.19a.25.25 0 0 0-.02.42c17.55 12.52 41.96 10.86 61.02 2.78 3.4-1.447 6.463-3.247 9.19-5.4.32-.253.333-.523.04-.81-10.78-10.65-26.37-3.22-32.68 8.23a1.699 1.699 0 0 1-2.2.73Zm83.06 41.54a5.733 5.733 0 0 0-5.73-5.73 5.733 5.733 0 0 0-5.73 5.73 5.731 5.731 0 1 0 11.46 0Z"/><path stroke="#FFEF9B" stroke-width="2" d="M491.29 516.25c2.033-7.073 2.503-14.24 1.41-21.5"/><path stroke="#E30002" stroke-width="2" d="m492.7 494.75 1.24-23.43c.02-.393-.163-.6-.55-.62l-80.76-4.54a.42.42 0 0 0-.45.4l-4.48 80.84c-.02.327.133.5.46.52l80.65 4.49c.32.02.49-.13.51-.45l1.97-35.71"/><path stroke="#E30002" stroke-width="2" d="m492.7 494.75-1.41 21.5m-9.716-34.144a.392.392 0 0 0-.101-.289.4.4 0 0 0-.276-.133l-57.55-3.217a.402.402 0 0 0-.289.101.405.405 0 0 0-.132.276l-3.22 57.59a.392.392 0 0 0 .101.289.4.4 0 0 0 .276.133l57.55 3.217a.399.399 0 0 0 .421-.377l3.22-57.59ZM391.25 628.26a11.577 11.577 0 0 0-11.58-11.58 11.577 11.577 0 0 0-11.58 11.58 11.577 11.577 0 0 0 11.58 11.58 11.577 11.577 0 0 0 11.58-11.58Zm70.143 5.005a.383.383 0 0 0-.358-.4l-22.565-1.262a.381.381 0 0 0-.4.358l-4.523 80.894a.38.38 0 0 0 .358.4l22.565 1.262a.383.383 0 0 0 .4-.358l4.523-80.894Zm57.687 13.865a11.55 11.55 0 1 0-23.1 0 11.55 11.55 0 0 0 23.1 0Zm59.071-7.305a.36.36 0 0 0-.337-.38l-10.9-.668a.363.363 0 0 0-.345.202.362.362 0 0 0-.036.136l-.664 10.86a.36.36 0 0 0 .337.38l10.9.668a.363.363 0 0 0 .345-.202.362.362 0 0 0 .036-.136l.664-10.86Zm-1.338 23.308a.379.379 0 0 0-.357-.401l-10.822-.624a.377.377 0 0 0-.274.096.375.375 0 0 0-.127.261l-.626 10.862a.377.377 0 0 0 .096.274c.066.075.16.121.261.127l10.822.624a.379.379 0 0 0 .401-.357l.626-10.862Zm-1.345 23.328a.358.358 0 0 0-.34-.378l-10.866-.57a.358.358 0 0 0-.378.34l-.572 10.906a.358.358 0 0 0 .34.378l10.866.57a.358.358 0 0 0 .378-.34l.572-10.906ZM387.02 703.78a17.43 17.43 0 1 0-34.858-.001 17.43 17.43 0 0 0 34.858.001ZM512.5 713.21c4.77-3.73 3.94-11.18.31-15.32"/><path stroke="#E30002" stroke-width="2" d="M512.81 697.89c-13.02-11.43-27.65 6.03-16.08 16.32 4.793 4.26 10.05 3.927 15.77-1"/><path stroke="#FFEF9B" stroke-width="2" d="M512.81 697.89c.18 2.533.527 4.983 1.04 7.35.71 3.23-.14 5.18-1.35 7.97"/><path stroke="#E30002" stroke-width="2" d="M375.31 703.83a5.733 5.733 0 0 0-5.73-5.73 5.733 5.733 0 0 0-5.73 5.73 5.733 5.733 0 0 0 5.73 5.73 5.733 5.733 0 0 0 5.73-5.73Z"/><path fill="#E30002" d="M743.25 624.21c-12.08-3.12-20.74-11.31-29.28-19.36-1.18-1.11-2.26-1.06-3.47-.14a39.71 39.71 0 0 1-10.78-.01c-12.707-2.187-23.717-7.667-33.03-16.44a.94.94 0 0 0-.84-.26.739.739 0 0 0-.6.46l-8.75 1h-23.25l-6-.75a5.416 5.416 0 0 0-1.58-.45 162.544 162.544 0 0 1-43.59-11.31c-.253.34-.387.587-.4.74a4709.297 4709.297 0 0 0-2.09 37.78c-.02.34.14.517.48.53 13.57.67 22.53 5.73 21.66 21.25-1.213 21.76-2.45 43.52-3.71 65.28-.43 7.59-2.19 12.41-8.27 16.43a46.022 46.022 0 0 1-16.24 2.52c-.43 14.24-4.62 24.96-18.21 31.01a51.243 51.243 0 0 1-16.49 1.69 5856.75 5856.75 0 0 0-57.25-3.14c-.507-.027-.763.21-.77.71-.727 34.327-.987 68.66-.78 103 0 .34.143.423.43.25 38.04-22.92 86.72-20.37 109.6 22.46a68.297 68.297 0 0 1 7.41 22.54H286.19l-.1-.32a.824.824 0 0 1-.02-.44c11.97-53.81 66.1-73.27 113.56-50.99.447.207.71.067.79-.42l16.33-99.79c-1.053-.6-2.47-.94-4.25-1.02-10.967-.493-29-1.48-54.1-2.96-17.38-1.03-30.62-12.29-30.16-30.55.04-1.37-.23-2.69-.45-4.01l4.18-73.5c1.047-3.04 1.26-6.127.64-9.26l.43-8.49.24-.15a.43.43 0 0 0 .19-.32c.933-9.327 1.29-18.67 1.07-28.03l1.42-24.5a4.295 4.295 0 0 0 .13 1.67c.207.767.333.753.38-.04l.33-5.97c.013-.333-.14-.537-.46-.61-.74-.187-1.173-.037-1.3.45-6.153 2.047-13.587 3.783-22.3 5.21-14.073 2.3-28.653 3.273-43.74 2.92-6.66-.153-12.82-.797-18.48-1.93a39.036 39.036 0 0 0-13.79-2.3c-8.99 8.75-19.12 15.05-32.11 14.58-.333-.013-.503.147-.51.48-.24 11.8-.42 23.56-.54 35.28-.027 3.393 1.07 6.253 3.29 8.58a.545.545 0 0 1 .108.597.555.555 0 0 1-.508.333h-17.23a.468.468 0 0 1-.41-.7 9.239 9.239 0 0 0 1.18-4.77c.76-1.013 1.11-2.523 1.05-4.53-.2-6.313-.2-18.447 0-36.4 0-.333-.12-.617-.36-.85-.273-.26-.587-.273-.94-.04a22.215 22.215 0 0 1-7 2.08c-10.02.92-20.2-.6-25.37-10.23a.111.111 0 0 0-.12-.06c-.1.013-.187.027-.26.04-1.72-4.78-.623-9.23 3.29-13.35.053-.087.04-.273-.04-.56a.966.966 0 0 0-.62-.69c-5.747-2.193-8.803-6.423-9.17-12.69.64-4.4 2.973-7.823 7-10.27-.127-1.647-.937-2.743-2.43-3.29-2.2-2.933-2.48-6.11-.84-9.53 5.02-10.5 21.67-11.67 31.34-9.08.373.1.733.073 1.08-.08l3.96-1.74c.293-.127.44-.353.44-.68l.03-11.08c.42-1.28.96-2.34.96-3.72.007-23.2.003-46.397-.01-69.59 0-.56-.33-1.07-.95-.94l-.06-27.05c0-.407-.203-.617-.61-.63l-3.33-.07c-4.6-.447-8.807-.393-12.62.16l-10.69.33a.946.946 0 0 0-.82.48 3976.472 3976.472 0 0 0-27.57 47 7.75 7.75 0 0 0-1.07 3.93c-.34 44.3-.703 88.58-1.09 132.84-.033 3.787 1.193 7.05 3.68 9.79a.56.56 0 0 1-.41.94l-19 .16a.487.487 0 0 1-.432-.251.488.488 0 0 1 .012-.499c1.267-2.06 1.937-4.27 2.01-6.63.087.04.153.113.2.22.06.12.153.157.28.11.4-.15.23-122.14.23-133.53a.443.443 0 0 0-.21-.39l-.25-.16c-.4-3.307.087-6.213 1.46-8.72a23281.47 23281.47 0 0 1 24.7-44.75c-1.62-.967-3.273-1.167-4.96-.6-.113.04-.11.06.01.06.267-.007.517.067.75.22l-15.81.15a265.367 265.367 0 0 1-.46-29.1l9.27-.3 4.16.18c.353.013.533-.16.54-.52.233-12.707.347-25.41.34-38.11-.007-9.68.407-16.317 1.24-19.91 4.16-17.93 20-31.3 39.22-29.64.32.613.82.697 1.5.25 20.4 4.59 31.77 22.89 31.96 43.05.14 14.66.25 29.33.33 44.01 0 .32.157.48.47.48l8.33.01a1.53 1.53 0 0 1 1.52 1.34l1.28 10.05-.34 14.33a1.14 1.14 0 0 1-.41.87c-2.36 2.033-5.283 2.71-8.77 2.03-2.313-.533-4.757-.617-7.33-.25-.18.027-.277.13-.29.31 0 .107-.013.21-.04.31a3.705 3.705 0 0 0-2.29-.19c-.327.073-.5.28-.52.62-.64 9.88.53 21.41.55 29.35.08 27.087.09 54.087.03 81a.687.687 0 0 0 .59.69c12.587 1.773 21.23 8.52 25.93 20.24a.99.99 0 0 0 .64.59c8.12 2.5 16.743 3.91 25.87 4.23 20.613.713 40.66-1.25 60.14-5.89 6.41-1.53 12.12-3.63 17.79-6.43 1.52-.76 1.87-1.69 1.97-3.41 3.39-58 6.02-109.62 10.38-174.05 1.28-1.7.96-10.29.92-14.25l.08-3c1.36-1.45 1.59-20.86 1.6-24.05.313-8.68.74-17.36 1.28-26.04.31-5.1.68-12.26 2.31-17.19 3.687-11.173 10.907-18.01 21.66-20.51 3.28-.76 8.203-.957 14.77-.59 57.607 3.233 115.21 6.453 172.81 9.66 7.66.427 13.103 1.233 16.33 2.42 14.52 5.35 19.97 18.72 19.01 33.79-5.26 82.67-10.89 162.57-15.38 248.2-.16 2.933-.223 5.133-.19 6.6.013.34.133.633.36.88 12.04 12.94 41.83 19.02 58.79 20.8 10.76 1.13 22.06.72 31.48-4.35 11.06-5.95 17.37-15.82 16.99-28.71-.21-7.21 3.33-11.68 10.91-11.12 15.12 1.1 19.51 14.11 16.26 27.11a.463.463 0 0 0 .141.468.492.492 0 0 0 .489.092 145.185 145.185 0 0 1 30.65-8.12c10.73-1.63 23.4 7.19 19.07 19.08-1.93 5.29-7.75 9.22-12.84 11.17a.471.471 0 0 0-.313.468.497.497 0 0 0 .353.452c22.96 6.5 19.2 32.38-3.57 32.8a.269.269 0 0 0-.17.47c5.73 4.89 10.44 13.5 5.16 20.8-3.433 4.74-8.35 6.7-14.75 5.88Zm-399.96 37.11 68.46 3.91c.647.04.953.38.92 1.02l-3.77 68.78a.182.182 0 0 0 .009.08.205.205 0 0 0 .109.12.215.215 0 0 0 .082.02c42.28 2.427 84.54 4.807 126.78 7.14 6.773.373 11.48.11 14.12-.79 5.153-1.753 8.763-5.433 10.83-11.04 1.02-2.77.79-6.45 1.09-9.58a.63.63 0 0 0-.61-.69c-3.53-.09-7.41-.13-10.59-1.46-9.18-3.83-11.5-11.05-10.95-20.67 1.213-21.573 2.413-43.15 3.6-64.73.62-11.37 8.23-19.19 19.89-18.26 1.3.107 2.627.127 3.98.06.387-.02.59-.223.61-.61 6.27-112.33 12.07-224.65 20.03-336.87.64-9.09-2.99-16.63-11.69-19.59-1.72-.58-6.72-1.103-15-1.57-56.467-3.167-112.937-6.323-169.41-9.47-10.76-.6-18.59-.42-23.6 9.27-.92 1.78-1.47 4.123-1.65 7.03-3.873 62.133-7.787 124.263-11.74 186.39-4.47 70.35-8.17 140.68-12.05 210.9-.02.387.163.59.55.61ZM196.42 315.7a.594.594 0 0 1 .417.166.584.584 0 0 1 .173.414c-.027 11.813-.023 23.55.01 35.21.01 2.39.57 5.09.48 7.76-.02.433.153.53.52.29 2.8-1.86 5-4.02 5-7.7 0-16.84 2.94-41.22-8.09-54.33-12.91-15.33-33.89-11.78-42.14 6.04-2.053 4.433-3.073 9.167-3.06 14.2.047 14.113-.04 25.983-.26 35.61-.06 3.07 1.39 4.75 3.85 6.15.347.2.523.097.53-.31l.21-37.27a.677.677 0 0 1 .405-.612.675.675 0 0 1 .725.112l19.05 17.14a1.998 1.998 0 0 0 1.482.504 1.986 1.986 0 0 0 1.388-.724c1.64-1.98 18.56-22.64 19.31-22.65Zm-31.23 49.54c7.013.533 14.01.437 20.99-.29a.916.916 0 0 0 .584-.302.933.933 0 0 0 .236-.618v-20.45a.332.332 0 0 0-.222-.322.354.354 0 0 0-.388.102l-8.73 10.57c-.267.32-.58.38-.94.18-3.96-2.19-7.78-6.84-11.39-9.88-.387-.32-.58-.23-.58.27v20.26c0 .293.147.453.44.48Zm50.755 10.662a.266.266 0 0 0-.02-.1.267.267 0 0 0-.242-.159l-79.258.554a.241.241 0 0 0-.099.021.263.263 0 0 0-.159.241l.048 6.96c0 .034.007.068.021.099a.263.263 0 0 0 .241.159l79.258-.554a.241.241 0 0 0 .099-.021.263.263 0 0 0 .159-.241l-.048-6.96v.001ZM211.52 552.01l-6.69-3.57c-.387-.207-.58-.093-.58.34l-.14 18.95c0 .36.18.55.54.57 11.1.7 18.67-5.55 26.4-12.49 2.35-2.11 6.9-2.28 10.3-1.54 24.83 5.35 51.21 4.69 75.64-.03 14.38-2.78 15.99-21.38-2.9-17.54-23.413 4.76-47.03 5.8-70.85 3.12-4.31-.49-9.92-2.67-16.16-3.87-2.62-.5-3.49-2.08-4.22-4.77-7.67-28.26-53.3-13.06-38.47 14.28 6 11.07 11.38-.9 11.73-6.76.23-3.9 2.63-5.66 5.7-7.66a.837.837 0 0 1 1.3.67c.347 7.78 3.3 14.333 8.86 19.66a.399.399 0 0 1 .039.513.398.398 0 0 1-.499.127Zm-46.82-29.18a17.596 17.596 0 0 0 7.42 2.39c.353.033.617-.107.79-.42l2.89-5.26c.193-.34.093-.52-.3-.54-3.94-.193-7.547.787-10.82 2.94-.473.307-.467.603.02.89Zm536.84 47.14c4.38-6.59 6.7-11.33 4.33-19.5a.936.936 0 0 1 .17-.88c6.28-7.85 8.95-23.7-4.23-26.39-1.493-.3-2.4.123-2.72 1.27a1.379 1.379 0 0 0-.03.71c6.06 28.53-21.96 44.2-46.64 43.39-19.31-.64-33.93-4.7-50.8-9.56-3.9-1.12-11.91-1.68-13.05 3.4-.073.313-.05.62.07.92 1.68 4.173 4.55 6.903 8.61 8.19 16.547 5.24 33.907 7.737 52.08 7.49 5.94-.08 13.92-1.06 20.95-1.18a2.401 2.401 0 0 1 1.83.8c9.68 10.89 24.82 17.73 39.52 14.71 4.02-.83 8.34 2.41 11.32 5.45 4.35 4.42 19.38 18.86 26.01 13.78.428-.329.721-.803.825-1.331a2.196 2.196 0 0 0-.265-1.539 18.276 18.276 0 0 0-5.11-5.6c-6.42-4.6-12.87-9.147-19.35-13.64-4.04-2.8-3.55-9.41 1.97-9.71.967-.053 2.43.273 4.39.98 5.6 2.02 27.45 8.77 30.01.46 2.96-9.57-25.66-11.2-30.78-11.32-4.92-.12-10.16-4.23-5.75-9.15.853-.953 1.63-1.477 2.33-1.57 8.42-1.12 27.02-4.79 32-11.21a1.44 1.44 0 0 0 .32-.89c.16-11.47-38.54 3.5-44.04 5.48a.816.816 0 0 0-.56.66c-1.393 7.64-5.537 13.263-12.43 16.87-1.747.92-2.073.557-.98-1.09Zm-539.59-26.01c3.14 1.72 6.483 2.313 10.03 1.78.407-.06.567-.29.48-.69l-1.63-7.12c-.06-.26-.22-.38-.48-.36-3.46.293-6.377 1.677-8.75 4.15a1.44 1.44 0 0 0-.377 1.206 1.435 1.435 0 0 0 .727 1.034Zm27.099 19.449c-.04-.636-.359-1.248-.94-1.801-.581-.553-1.412-1.036-2.446-1.423-1.034-.386-2.25-.668-3.58-.828a22.996 22.996 0 0 0-4.167-.108 22.938 22.938 0 0 0-4.121.629c-1.299.326-2.47.758-3.448 1.27-.977.513-1.741 1.097-2.248 1.719-.508.621-.748 1.268-.708 1.904.04.636.359 1.248.94 1.801.581.553 1.412 1.036 2.446 1.423 1.034.386 2.25.668 3.58.828 1.329.161 2.745.198 4.167.108a22.938 22.938 0 0 0 4.121-.629c1.299-.326 2.47-.758 3.448-1.27.977-.513 1.741-1.097 2.248-1.719.508-.621.748-1.268.708-1.904ZM589.96 634.75c.427-4.22-1.477-6.457-5.71-6.71-6.52-.333-13.06-.713-19.62-1.14-8.33-.55-9.21 1.86-9.65 9.42-1.26 21.807-2.5 43.617-3.72 65.43-.26 4.65 3.13 6.44 7.44 6.71 6.853.42 13.703.823 20.55 1.21 5.06.29 6.83-2.94 7.1-7.64a8386.351 8386.351 0 0 0 3.61-67.28Zm-249.48 84.84c2.47 8.57 9.24 12.33 18.28 12.85 12.633.72 25.05 1.42 37.25 2.1.72.04 1.103-.303 1.15-1.03l3.21-56.17c.04-.733-.303-1.12-1.03-1.16l-56.84-3.17a.5.5 0 0 0-.474.275.459.459 0 0 0-.046.185c-.64 11.807-1.29 23.6-1.95 35.38-.287 5.14-.137 8.72.45 10.74Zm70.51 153.63-15.47-1.41c-.34-.033-.42-.197-.24-.49 5.37-8.46.41-13.79-7.59-16.77-35.87-13.33-75.29.08-88.28 37.53-.113.32 0 .477.34.47l131.95-.88c.367-.007.563-.19.59-.55l10.44-134.34c.027-.34-.127-.477-.46-.41-7.65 1.49-17.04 7.1-18.39 15.42-4.967 30.407-9.937 60.807-14.91 91.2-.507 3.08.267 6.337 2.32 9.77.2.347.1.5-.3.46Zm173.25 17.08c-13.84-40.12-59.07-48.73-93.01-29.32-5.513 3.153-9.23 8.027-11.15 14.62-.087.307-.28.413-.58.32l-11.78-3.46c-.4-.113-.547-.373-.44-.78.92-3.39 1.77-6.61 1.81-10.17.38-31.12.68-62.263.9-93.43 0-.38-.137-.697-.41-.95a45.233 45.233 0 0 0-15.74-9.6c-.42-.153-.647-.003-.68.45l-10.4 133.29a.324.324 0 0 0 .194.317c.04.017.083.025.126.023l140.92-.96c.24-.007.32-.123.24-.35Z"/><path fill="#FFEF9B" d="M179.75 277.46c-19.22-1.66-35.06 11.71-39.22 29.64-.833 3.593-1.247 10.23-1.24 19.91.007 12.7-.107 25.403-.34 38.11-.007.36-.187.533-.54.52l-4.16-.18 2.33-4.81c.193-.387.083-.51-.33-.37l-31.7 10.8a.954.954 0 0 1-.74-.05c-1.12-.54-.78-1.66-.09-2.41 7.52-8.033 14.95-16.15 22.29-24.35.327-.367.247-.587-.24-.66l-33.45-5.44a1.196 1.196 0 0 1-.8-.5c-.68-.96-.18-1.7.78-2.05 10.473-3.8 20.973-7.63 31.5-11.49a.55.55 0 0 0 .13-.96 3938.595 3938.595 0 0 1-26.72-19.86c-.36-.27-.72-1.1-.43-1.32a5.68 5.68 0 0 1 1.003-.631c.305-.142.556-.204.727-.179l32.7 4.59c.46.067.55-.087.27-.46l-21.41-28.53c-.28-.367-.233-.687.14-.96l.72-.54c.32-.233.66-.263 1.02-.09l31.78 15.53c.045.02.095.027.144.02a.251.251 0 0 0 .131-.06.23.23 0 0 0 .065-.26c-3.507-10.08-7.007-20.117-10.5-30.11-.28-.8-.37-1.727-.27-2.78a.874.874 0 0 1 .555-.736.876.876 0 0 1 .905.176l24.52 22.52c.793.733 1.277.563 1.45-.51l5.28-32.7c.025-.167.085-.328.176-.472.091-.145.212-.27.354-.368.88-.59 1.61-.17 1.96.74a914.99 914.99 0 0 1 11.25 31.28Zm163.54 383.86c-.387-.02-.57-.223-.55-.61 3.88-70.22 7.58-140.55 12.05-210.9 3.953-62.127 7.867-124.257 11.74-186.39.18-2.907.73-5.25 1.65-7.03 5.01-9.69 12.84-9.87 23.6-9.27 56.473 3.147 112.943 6.303 169.41 9.47 8.28.467 13.28.99 15 1.57 8.7 2.96 12.33 10.5 11.69 19.59-7.96 112.22-13.76 224.54-20.03 336.87-.02.387-.223.59-.61.61-1.353.067-2.68.047-3.98-.06-11.66-.93-19.27 6.89-19.89 18.26-1.187 21.58-2.387 43.157-3.6 64.73-.55 9.62 1.77 16.84 10.95 20.67 3.18 1.33 7.06 1.37 10.59 1.46a.623.623 0 0 1 .455.213.63.63 0 0 1 .155.477c-.3 3.13-.07 6.81-1.09 9.58-2.067 5.607-5.677 9.287-10.83 11.04-2.64.9-7.347 1.163-14.12.79-42.24-2.333-84.5-4.713-126.78-7.14a.215.215 0 0 1-.149-.069.205.205 0 0 1-.042-.071.182.182 0 0 1-.009-.08l3.77-68.78c.033-.64-.273-.98-.92-1.02l-68.46-3.91Zm63.25-391.39 8.98 8.09a.851.851 0 0 0 1.42-.63c.007-1.233.447-2.273 1.32-3.12 14.77-14.41 38.6-12.06 46.9 8.1.127.307.317.353.57.14l10.5-9.01c.307-.267.28-.493-.08-.68a47.224 47.224 0 0 1-10.05-7.01c-17.35-15.87-37.34-13.98-55 .41-1.17.95-3.28 1.7-4.57 2.94-.273.26-.27.517.01.77Zm85.28 9.89c16.77-17.22 43.7-15.27 51.63 9.68.08.253.23.303.45.15l10.2-7.33c.347-.247.377-.527.09-.84a8.263 8.263 0 0 0-2.85-2.06c-.307-.14-.55-.35-.73-.63-9.73-14.95-24.44-23.96-42.71-19.72-7.38 1.72-14.94 6.31-23.22 8.27-.307.073-.383.247-.23.52l6.62 11.86c.207.367.457.4.75.1Zm-63.894 63.92c7.496 1.648 15.558-.741 22.413-6.642 6.854-5.901 11.939-14.831 14.136-24.824 2.197-9.993 1.326-20.232-2.421-28.463-3.747-8.232-10.063-13.783-17.559-15.431-3.712-.816-7.602-.65-11.447.49-3.846 1.139-7.572 3.23-10.966 6.152-3.394 2.922-6.389 6.618-8.815 10.877-2.426 4.26-4.234 8.999-5.322 13.947-2.197 9.993-1.326 20.232 2.421 28.463 3.747 8.232 10.063 13.783 17.559 15.431h.001Zm74.568 4.793c7.93 1.904 16.503-.302 23.833-6.131 7.33-5.83 12.817-14.806 15.253-24.954 2.436-10.148 1.622-20.636-2.262-29.157-3.885-8.522-10.522-14.379-18.452-16.283-7.93-1.904-16.503.302-23.833 6.131-7.33 5.829-12.817 14.805-15.253 24.953s-1.622 20.636 2.262 29.157c3.885 8.522 10.522 14.38 18.452 16.284ZM463 332.02c-11.33 7.03-8.74 22.23 4.74 24.63 4.22.76 9.64-.76 14.24-1.67.327-.067.42-.25.28-.55l-5.42-12.01a.309.309 0 0 0-.55-.02c-2.033 3.76-5.047 5.13-9.04 4.11-1.61-.42-2.58-2.51-2.03-4.08 1.62-4.59 5.47-4.37 9.54-4.46a.612.612 0 0 0 .471-.236.63.63 0 0 0 .119-.514l-2.41-10.71c-.1-.44-.34-.54-.72-.3a847.824 847.824 0 0 1-9.22 5.81Zm-66.82 10.189a13.93 13.93 0 0 0-4.688-3.252 14.559 14.559 0 0 0-5.678-1.145 15.486 15.486 0 0 0-5.804 1.134 16.138 16.138 0 0 0-5.045 3.243 16.168 16.168 0 0 0-3.519 4.856 15.518 15.518 0 0 0-1.457 5.731 14.567 14.567 0 0 0 .827 5.733 13.933 13.933 0 0 0 2.985 4.862 13.913 13.913 0 0 0 4.688 3.251 14.56 14.56 0 0 0 5.678 1.146c1.97.002 3.942-.384 5.803-1.135a16.135 16.135 0 0 0 5.045-3.242 16.168 16.168 0 0 0 3.519-4.856 15.499 15.499 0 0 0 1.457-5.731 14.567 14.567 0 0 0-.827-5.733 13.918 13.918 0 0 0-2.985-4.862h.001Zm144.23 33.131c.82-10.807-2.733-19.79-10.66-26.95-.227-.2-.453-.2-.68 0l-8.24 7.2a.627.627 0 0 0-.204.567.626.626 0 0 0 .374.473c6.02 2.46 8.92 7.05 9.25 13.61.52 10.23-3.64 15.32-9.71 22.9-.227.287-.173.51.16.67l11.36 5.41c.393.187.65.07.77-.35.84-2.89 1.04-5.34 2.57-8.02 1.41-2.46 5.87-12.42 5.08-14.91a1.398 1.398 0 0 1-.07-.6Zm-116.69 16.43c20.49 17.77 50.93 18.15 75.6 8.57 11.69-4.54 24.7-13.87 25.1-27.86.213-7.447-3.777-12.603-11.97-15.47-16.85-5.9-30.72 4.09-46.98 5.16-16.44 1.08-32.42-10.41-45.4 6.39-5.99 7.75-3.07 17.38 3.65 23.21Zm-54.88-5.82c2.79-5.49 10.34.64 6.68 5.38-1.99 2.58-5.29 1.94-7.88.63-.56-.28-.81-.11-.75.51.387 4.32.2 8.597-.56 12.83-.113.607.09.743.61.41 10.33-6.56 13.21 7.99 5.64 8.22-2.1.07-3.95-1.59-5.61-2.78a.61.61 0 0 0-.97.49c.01 5.44-1.17 11.01-.82 16.49a.774.774 0 0 0 .498.664.767.767 0 0 0 .812-.174c4.29-4.3 11.02-4.84 16.74-4.65.507.02.77-.223.79-.73l2.22-46.45a1.76 1.76 0 0 1 .23-.8c.053-.1.103-.203.15-.31.193-.42.057-.637-.41-.65-3.46-.1-6.96.38-10.16-.71a34.974 34.974 0 0 1-6.46-2.99c-.267-.16-.433-.087-.5.22a53.148 53.148 0 0 0-1.04 14.24.422.422 0 0 0 .598.344.418.418 0 0 0 .192-.184Zm197.36 46.81a17.431 17.431 0 0 0-5.108-12.332 17.444 17.444 0 0 0-24.664 0A17.44 17.44 0 1 0 566.2 432.76Zm-177.38 32.56-.56 10.65c-.02.34-.197.503-.53.49-7.26-.2-16.06.01-22.8-2.72a.623.623 0 0 0-.772.275.618.618 0 0 0-.078.285l-.41 15.26c-.013.453.163.547.53.28 5.56-4.11 16.07-2.14 22.74-1.76.433.027.637.257.61.69l-.6 10.46c-.027.4-.237.59-.63.57-6.39-.3-16.62.19-22.23-2.82a.732.732 0 0 0-.699.016.701.701 0 0 0-.351.594l-.36 15.14c-.013.453.17.56.55.32 2.11-1.33 3.81-2.33 6.45-2.29 5.373.087 10.763.34 16.17.76.327.027.48.203.46.53l-.7 10.67c-.027.327-.203.48-.53.46-7.23-.38-15.73-.03-22.39-3.04-.373-.173-.567-.053-.58.36l-.57 15.42c-.02.447.167.567.56.36 2.02-1.07 3.55-2.29 5.97-2.26 5.393.08 10.82.377 16.28.89.38.033.56.24.54.62l-.58 10.42c-.013.34-.19.503-.53.49-8.09-.28-16.95-.13-22.4-3.01-.42-.22-.64-.093-.66.38l-.61 15.59a.42.42 0 0 0 .238.392.388.388 0 0 0 .442-.072c4.3-3.98 16.6-1.91 22.18-1.52.34.027.53.21.57.55.707 6.507 4.183 10.443 10.43 11.81.367.087.547.317.54.69-.14 6.24-.517 12.467-1.13 18.68-.13 1.3-.98 2.53-1.32 3.86-.113.473.073.72.56.74l15.09.6c.553.02.68-.2.38-.66-3.66-5.64-2.58-13.92-1.72-22.74.033-.36.233-.53.6-.51l10.46.6c.373.027.55.223.53.59-.29 7.2.04 16.15-2.19 22.96-.14.427.017.65.47.67l15.25.5c.533.013.65-.2.35-.64a15.3 15.3 0 0 1-2.44-5.65c-.33-1.55.3-3.27.09-5-.48-4.15-.14-8.05.18-12.2.027-.347.213-.513.56-.5l10.47.51a.617.617 0 0 1 .59.65c-.3 6.14-.643 12.26-1.03 18.36-.1 1.62-.63 2.72-1.24 4.2-.187.453-.037.69.45.71l15.29.57c.6.027.733-.21.4-.71-3.86-5.85-2.74-15.82-2.13-22.58.033-.307.203-.45.51-.43l10.69.63c.34.02.5.197.48.53-.4 6.9.16 15.93-2.42 22.29-.18.46-.027.7.46.72l15.25.61c.607.027.743-.213.41-.72-3.9-5.87-2.62-15.44-2.04-22.15.033-.4.25-.587.65-.56l10.47.6c.36.02.53.207.51.56-.28 6.88.09 15.98-2.43 22.35-.187.46-.03.7.47.72l15.33.69a.478.478 0 0 0 .39-.78c-3.95-4.77-2.7-14.24-1.94-22.29.027-.293.187-.457.48-.49 6.567-.627 10.487-4.157 11.76-10.59.067-.327.267-.487.6-.48 6.43.16 17.01.18 22.74 3.2a.546.546 0 0 0 .529-.016.549.549 0 0 0 .271-.454l.5-15.15a.521.521 0 0 0-.071-.283.518.518 0 0 0-.502-.245.518.518 0 0 0-.267.118c-1.78 1.49-3.53 2.16-6 2.06a643.045 643.045 0 0 1-16.61-.92c-.353-.027-.52-.217-.5-.57l.54-10.66c.013-.347.193-.51.54-.49 6.63.34 17.16-.19 23.01 2.81.433.22.663.087.69-.4l.73-15.2c.027-.52-.19-.657-.65-.41l-3.98 2.11c-.3.16-.62.233-.96.22l-18.08-.7a.56.56 0 0 1-.499-.365.561.561 0 0 1-.031-.215l.54-10.68a.531.531 0 0 1 .56-.51c7.68.37 15.74.23 22.82 2.85.36.133.547.007.56-.38l.59-15.15c.02-.507-.193-.637-.64-.39-1.96 1.11-3.37 2.1-5.75 2.11-5.587 0-11.21-.24-16.87-.72-.333-.027-.493-.207-.48-.54l.45-10.56c.02-.373.217-.553.59-.54 7.17.25 15.82.02 22.44 2.9.447.193.68.047.7-.44l.57-15.07c.027-.693-.247-.847-.82-.46-5.48 3.73-15.71 1.81-22.18 1.39-.347-.027-.51-.21-.49-.55l.63-10.61c.02-.393.227-.577.62-.55 6.58.41 16.68-.1 22.39 3.16a.513.513 0 0 0 .49.001.49.49 0 0 0 .25-.411l.52-15.52c.02-.567-.193-.677-.64-.33-2.05 1.58-3.58 2.34-6.31 2.27-5.333-.14-10.66-.413-15.98-.82-.347-.02-.537-.203-.57-.55-.593-6.64-4.127-10.573-10.6-11.8-.347-.067-.51-.277-.49-.63.31-7.09-.08-16.31 2.89-22.79.167-.36.053-.547-.34-.56l-15.51-.55c-.453-.013-.563.173-.33.56 1.21 2.02 2.33 3.56 2.32 6.05a182.872 182.872 0 0 1-.79 16.79c-.027.32-.2.47-.52.45l-10.42-.59c-.407-.027-.603-.243-.59-.65.24-7.05-.13-16.13 2.32-22.71.18-.487.01-.743-.51-.77l-15.19-.77a.538.538 0 0 0-.533.317.565.565 0 0 0 .103.623c3.96 4.15 2.54 17.19 2.08 22.69-.033.393-.247.58-.64.56l-10.52-.58c-.387-.02-.573-.223-.56-.61.28-6.59-.17-16.51 2.44-22.49.193-.447.047-.683-.44-.71l-15.15-.79a.569.569 0 0 0-.47.93c4 5.03 2.47 16.29 1.99 22.45-.027.353-.217.52-.57.5l-10.06-.57c-.753-.047-1.107-.443-1.06-1.19.36-6.18-.23-16.58 2.59-21.47a.649.649 0 0 0-.54-.97l-15.18-.55a.513.513 0 0 0-.487.296.54.54 0 0 0 .077.574c4.03 4.66 2.31 16.14 1.79 21.96-.033.367-.233.543-.6.53l-10.43-.45c-.453-.02-.667-.257-.64-.71l1.2-18.69c.027-.407.143-.783.35-1.13.493-.813.89-1.673 1.19-2.58.14-.433-.017-.657-.47-.67l-15.24-.45c-.533-.013-.65.203-.35.65 3.85 5.79 2.09 15.6 1.69 22.27a.564.564 0 0 1-.164.37.546.546 0 0 1-.366.16c-6.727.393-10.687 3.877-11.88 10.45-.067.393-.3.58-.7.56-7.38-.36-15.37-.32-22.3-3.09-.493-.193-.753-.027-.78.5l-.82 14.44c-.107 1.86.447 2.083 1.66.67 2.7-3.14 17.58-1.1 21.84-.85.333.013.493.19.48.53Zm14.16 162.95a23.294 23.294 0 0 0-6.821-16.469 23.294 23.294 0 0 0-32.937 0 23.29 23.29 0 1 0 39.758 16.469Zm70.735-6.184a.26.26 0 0 0-.245-.274l-46.148-2.58a.26.26 0 0 0-.274.245l-5.843 104.497a.26.26 0 0 0 .245.274l46.148 2.58a.26.26 0 0 0 .274-.245l5.843-104.497Zm57.035 25.044a23.278 23.278 0 0 0-23.28-23.28 23.278 23.278 0 0 0-23.28 23.28 23.278 23.278 0 0 0 23.28 23.28 23.278 23.278 0 0 0 23.28-23.28Zm-3.25 58.38a23.278 23.278 0 0 0-23.28-23.28 23.278 23.278 0 0 0-23.28 23.28 23.278 23.278 0 0 0 23.28 23.28 23.278 23.278 0 0 0 23.28-23.28ZM225.14 376.65l-1.28-10.05a1.53 1.53 0 0 0-1.52-1.34l-8.33-.01c-.313 0-.47-.16-.47-.48-.08-14.68-.19-29.35-.33-44.01-.19-20.16-11.56-38.46-31.96-43.05l19.99-26.98a.892.892 0 0 1 .796-.36.908.908 0 0 1 .429.151.904.904 0 0 1 .305.339c.287.553.377 1.187.27 1.9a3980.053 3980.053 0 0 0-4.62 32.34.304.304 0 0 0 .027.173.307.307 0 0 0 .289.169.303.303 0 0 0 .164-.062l28.18-21.14a1.288 1.288 0 0 1 1.607.027 1.293 1.293 0 0 1 .333 1.573l-15.56 31.85c-.018.039-.024.083-.018.126a.212.212 0 0 0 .156.181c.041.01.083.008.122-.007l32.29-11.06a1.106 1.106 0 0 1 1.291.441 1.11 1.11 0 0 1-.111 1.359l-22.95 25.02a.496.496 0 0 0-.102.501.506.506 0 0 0 .392.329l33.47 5.36a1.156 1.156 0 0 1 .79.51c.513.793.283 1.377-.69 1.75a2382.094 2382.094 0 0 1-31.92 11.92.335.335 0 0 0-.199.447c.023.057.06.106.109.143 9.187 6.88 18.143 13.587 26.87 20.12.567.433.717.957.45 1.57a1.06 1.06 0 0 1-1.12.63l-33.07-4.65c-.573-.08-.687.11-.34.57l21.01 27.96a1.298 1.298 0 0 1 .06 1.47c-.57.89-1.38.77-2.26.31a240.73 240.73 0 0 0-12.55-6.04Z"/><path fill="#E30002" d="M406.53 269.16c1.29-1.24 3.4-1.99 4.57-2.94 17.66-14.39 37.65-16.28 55-.41a47.224 47.224 0 0 0 10.05 7.01c.36.187.387.413.08.68l-10.5 9.01c-.253.213-.443.167-.57-.14-8.3-20.16-32.13-22.51-46.9-8.1-.873.847-1.313 1.887-1.32 3.12a.848.848 0 0 1-.505.776.848.848 0 0 1-.915-.146l-8.98-8.09c-.28-.253-.283-.51-.01-.77Zm136.92 20.34c-7.93-24.95-34.86-26.9-51.63-9.68-.293.3-.543.267-.75-.1l-6.62-11.86c-.153-.273-.077-.447.23-.52 8.28-1.96 15.84-6.55 23.22-8.27 18.27-4.24 32.98 4.77 42.71 19.72.18.28.423.49.73.63a8.263 8.263 0 0 1 2.85 2.06c.287.313.257.593-.09.84l-10.2 7.33c-.22.153-.37.103-.45-.15Z"/><path fill="#E30002" d="M427.925 343.74c-7.496-1.648-13.812-7.199-17.559-15.431-3.747-8.231-4.618-18.47-2.421-28.463 1.088-4.948 2.896-9.687 5.322-13.947 2.425-4.259 5.421-7.955 8.815-10.877 3.394-2.922 7.12-5.013 10.966-6.152 3.845-1.14 7.735-1.306 11.447-.49 7.496 1.648 13.812 7.199 17.559 15.43 3.747 8.232 4.618 18.471 2.421 28.464-1.088 4.948-2.896 9.687-5.322 13.947-2.425 4.259-5.421 7.955-8.815 10.877-3.394 2.922-7.12 5.012-10.966 6.152-3.845 1.14-7.735 1.306-11.447.49Zm6.105-63.91c8.2 4.52 11.72 14.49 2 19.99-1.31.74-2.91 1-4.48 1.45-.56.16-.59.39-.09.69 14.57 8.81 9.97 24.84-4.79 29.83a.337.337 0 0 0-.233.301.345.345 0 0 0 .193.329c8.53 4.19 17.13-1.47 21.78-8.5 7.19-10.86 10.18-28.2 1.87-39.68-4.2-5.807-9.603-7.437-16.21-4.89-.36.133-.373.293-.04.48ZM502.494 348.533c-7.93-1.904-14.567-7.761-18.452-16.283-3.885-8.522-4.698-19.01-2.262-29.158 2.436-10.148 7.923-19.124 15.253-24.954 7.33-5.829 15.903-8.035 23.833-6.131 7.93 1.904 14.567 7.761 18.452 16.283 3.885 8.522 4.698 19.01 2.262 29.158-2.436 10.148-7.923 19.124-15.253 24.954-7.33 5.829-15.903 8.035-23.833 6.131Zm9.216-66.243c11.29 9.09 8.93 22.57-6.7 22.76-1.18.013-1.283.35-.31 1.01 12.65 8.64 13.89 27.41-4.52 29.59-.527.06-.583.257-.17.59 7.8 6.27 18.13.86 23.66-5.68 7.393-8.74 10.15-19.183 8.27-31.33-1.58-10.18-8.8-19.01-20.13-17.32a.208.208 0 0 0-.181.155.21.21 0 0 0 .081.225Z"/><path fill="#fff" d="M434.03 279.83c-.333-.187-.32-.347.04-.48 6.607-2.547 12.01-.917 16.21 4.89 8.31 11.48 5.32 28.82-1.87 39.68-4.65 7.03-13.25 12.69-21.78 8.5a.342.342 0 0 1-.123-.515.337.337 0 0 1 .163-.115c14.76-4.99 19.36-21.02 4.79-29.83-.5-.3-.47-.53.09-.69 1.57-.45 3.17-.71 4.48-1.45 9.72-5.5 6.2-15.47-2-19.99Zm77.68 2.46a.21.21 0 0 1 .1-.38c11.33-1.69 18.55 7.14 20.13 17.32 1.88 12.147-.877 22.59-8.27 31.33-5.53 6.54-15.86 11.95-23.66 5.68-.413-.333-.357-.53.17-.59 18.41-2.18 17.17-20.95 4.52-29.59-.973-.66-.87-.997.31-1.01 15.63-.19 17.99-13.67 6.7-22.76Z"/><path fill="#FFEF9B" d="M196.42 315.7c-.75.01-17.67 20.67-19.31 22.65a1.978 1.978 0 0 1-1.388.724 1.998 1.998 0 0 1-1.482-.504l-19.05-17.14a.685.685 0 0 0-.725-.112.675.675 0 0 0-.405.612l-.21 37.27c-.007.407-.183.51-.53.31-2.46-1.4-3.91-3.08-3.85-6.15.22-9.627.307-21.497.26-35.61-.013-5.033 1.007-9.767 3.06-14.2 8.25-17.82 29.23-21.37 42.14-6.04 11.03 13.11 8.09 37.49 8.09 54.33 0 3.68-2.2 5.84-5 7.7-.367.24-.54.143-.52-.29.09-2.67-.47-5.37-.48-7.76-.033-11.66-.037-23.397-.01-35.21a.574.574 0 0 0-.173-.414.585.585 0 0 0-.417-.166Zm155.22-16c-.01 3.19-.24 22.6-1.6 24.05l1.6-24.05Z"/><path fill="#E30002" d="M467.74 356.65c-13.48-2.4-16.07-17.6-4.74-24.63 3.08-1.913 6.153-3.85 9.22-5.81.38-.24.62-.14.72.3l2.41 10.71a.63.63 0 0 1-.119.514.627.627 0 0 1-.471.236c-4.07.09-7.92-.13-9.54 4.46-.55 1.57.42 3.66 2.03 4.08 3.993 1.02 7.007-.35 9.04-4.11a.314.314 0 0 1 .281-.157.309.309 0 0 1 .269.177l5.42 12.01c.14.3.047.483-.28.55-4.6.91-10.02 2.43-14.24 1.67Z"/><path fill="#FFEF9B" d="M349.96 326.75c.04 3.96.36 12.55-.92 14.25-.087-4.773.22-9.523.92-14.25Z"/><path fill="#E30002" d="M396.18 342.209a13.933 13.933 0 0 1 2.985 4.862c.653 1.818.934 3.766.826 5.733a15.48 15.48 0 0 1-1.457 5.731 16.168 16.168 0 0 1-3.519 4.856 16.135 16.135 0 0 1-5.045 3.242 15.478 15.478 0 0 1-5.803 1.135c-1.97-.002-3.9-.391-5.678-1.146a13.913 13.913 0 0 1-4.688-3.251 13.918 13.918 0 0 1-2.985-4.862 14.567 14.567 0 0 1-.827-5.733 15.518 15.518 0 0 1 1.457-5.731 16.168 16.168 0 0 1 3.519-4.856 16.135 16.135 0 0 1 5.045-3.242 15.478 15.478 0 0 1 5.803-1.135c1.97.002 3.9.391 5.678 1.146a13.913 13.913 0 0 1 4.688 3.251h.001Zm-7.61 7.066a3.626 3.626 0 0 0-1.397-.882 4.235 4.235 0 0 0-1.73-.214 5.157 5.157 0 0 0-1.798.487 5.856 5.856 0 0 0-1.594 1.113c-.949.93-1.55 2.138-1.67 3.358-.12 1.22.251 2.352 1.03 3.148.779.796 1.904 1.19 3.126 1.095 1.223-.094 2.443-.669 3.392-1.599.949-.93 1.55-2.138 1.67-3.358.12-1.22-.25-2.352-1.03-3.148h.001Z"/><path fill="#fff" d="M165.19 365.24c-.293-.027-.44-.187-.44-.48V344.5c0-.5.193-.59.58-.27 3.61 3.04 7.43 7.69 11.39 9.88.36.2.673.14.94-.18l8.73-10.57a.354.354 0 0 1 .388-.102.337.337 0 0 1 .222.322v20.45a.933.933 0 0 1-.236.618.916.916 0 0 1-.584.302c-6.98.727-13.977.823-20.99.29Z"/><path fill="#E30002" d="M540.48 375.94c.79 2.49-3.67 12.45-5.08 14.91-1.53 2.68-1.73 5.13-2.57 8.02-.12.42-.377.537-.77.35l-11.36-5.41c-.333-.16-.387-.383-.16-.67 6.07-7.58 10.23-12.67 9.71-22.9-.33-6.56-3.23-11.15-9.25-13.61a.615.615 0 0 1-.374-.473.617.617 0 0 1 .204-.567l8.24-7.2c.227-.2.453-.2.68 0 7.927 7.16 11.48 16.143 10.66 26.95-.02.207.003.407.07.6Z"/><path fill="#fff" d="M387.929 355.781c1.977-1.936 2.264-4.849.641-6.506-1.623-1.657-4.541-1.431-6.518.504-1.977 1.936-2.264 4.849-.641 6.507 1.623 1.657 4.541 1.431 6.518-.505Z"/><path fill="#E30002" d="M423.72 391.77c-6.72-5.83-9.64-15.46-3.65-23.21 12.98-16.8 28.96-5.31 45.4-6.39 16.26-1.07 30.13-11.06 46.98-5.16 8.193 2.867 12.183 8.023 11.97 15.47-.4 13.99-13.41 23.32-25.1 27.86-24.67 9.58-55.11 9.2-75.6-8.57Zm47.7-.52c-2.453-1.12-2.9-2.923-1.34-5.41.173-.273.137-.517-.11-.73-9.54-7.98-24.02-5.33-33.9.19a.25.25 0 0 0-.02.42c17.55 12.52 41.96 10.86 61.02 2.78 3.4-1.447 6.463-3.247 9.19-5.4.32-.253.333-.523.04-.81-10.78-10.65-26.37-3.22-32.68 8.23a1.699 1.699 0 0 1-2.2.73Z"/><path fill="#FFEF9B" d="M124.98 365.76c-.38 9.633-.227 19.333.46 29.1-.547.027-1.037-.303-1.47-.99-.22-.34-.5-.397-.84-.17-.3.2-.637.303-1.01.31-1.267.02-1.59-.523-.97-1.63 1.51-2.71 2.81-5 2.85-8.26l.24-17.73c.007-.307.15-.517.43-.63.12-.047.223-.047.31 0Z"/><path fill="#E30002" d="M375.52 391.33c3.66-4.74-3.89-10.87-6.68-5.38a.422.422 0 0 1-.455.216.422.422 0 0 1-.335-.376c-.293-4.8.053-9.547 1.04-14.24.067-.307.233-.38.5-.22a34.974 34.974 0 0 0 6.46 2.99c3.2 1.09 6.7.61 10.16.71.467.013.603.23.41.65a4.68 4.68 0 0 1-.15.31 1.76 1.76 0 0 0-.23.8l-2.22 46.45c-.02.507-.283.75-.79.73-5.72-.19-12.45.35-16.74 4.65a.772.772 0 0 1-1.158-.085.774.774 0 0 1-.152-.405c-.35-5.48.83-11.05.82-16.49a.605.605 0 0 1 .335-.542.61.61 0 0 1 .635.052c1.66 1.19 3.51 2.85 5.61 2.78 7.57-.23 4.69-14.78-5.64-8.22-.52.333-.723.197-.61-.41.76-4.233.947-8.51.56-12.83-.06-.62.19-.79.75-.51 2.59 1.31 5.89 1.95 7.88-.63Z"/><path fill="#FFEF9B" d="m215.683 375.643-79.258.554a.26.26 0 0 0-.258.262l.048 6.959a.26.26 0 0 0 .262.259l79.258-.554a.26.26 0 0 0 .258-.262l-.048-6.959a.26.26 0 0 0-.262-.259Z"/><path fill="#fff" d="M471.42 391.25a1.699 1.699 0 0 0 2.2-.73c6.31-11.45 21.9-18.88 32.68-8.23.293.287.28.557-.04.81-2.727 2.153-5.79 3.953-9.19 5.4-19.06 8.08-43.47 9.74-61.02-2.78a.25.25 0 0 1 .02-.42c9.88-5.52 24.36-8.17 33.9-.19.247.213.283.457.11.73-1.56 2.487-1.113 4.29 1.34 5.41Z"/><path fill="#FFEF9B" d="M215.62 393.88c.16 1.967.653 3.787 1.48 5.46.153.313.163.63.03.95-.53 1.23-1.46 1.02-2.29.25-2.293-2.1-4.587-4.197-6.88-6.29.027-.1.04-.203.04-.31.013-.18.11-.283.29-.31 2.573-.367 5.017-.283 7.33.25Zm-28.58.12-2.88 18.01a1.209 1.209 0 0 1-.9.97c-.647.16-1.107-.183-1.38-1.03a113.947 113.947 0 0 0-7.46-17.79c3.813-.553 8.02-.607 12.62-.16Zm-41.59 1.03-4.2-.32a1.279 1.279 0 0 0-.75-.22c-.12 0-.123-.02-.01-.06 1.687-.567 3.34-.367 4.96.6Z"/><path fill="#E30002" d="M566.2 432.76a17.431 17.431 0 0 1-5.108 12.332 17.444 17.444 0 0 1-24.664 0A17.44 17.44 0 1 1 566.2 432.76Zm-11.72.03a5.731 5.731 0 1 0-11.462 0 5.731 5.731 0 0 0 11.462 0Zm-166.14 32c-4.26-.25-19.14-2.29-21.84.85-1.213 1.413-1.767 1.19-1.66-.67l.82-14.44c.027-.527.287-.693.78-.5 6.93 2.77 14.92 2.73 22.3 3.09.4.02.633-.167.7-.56 1.193-6.573 5.153-10.057 11.88-10.45a.546.546 0 0 0 .366-.16.564.564 0 0 0 .164-.37c.4-6.67 2.16-16.48-1.69-22.27-.3-.447-.183-.663.35-.65l15.24.45c.453.013.61.237.47.67-.3.907-.697 1.767-1.19 2.58a2.495 2.495 0 0 0-.35 1.13l-1.2 18.69c-.027.453.187.69.64.71l10.43.45c.367.013.567-.163.6-.53.52-5.82 2.24-17.3-1.79-21.96a.54.54 0 0 1-.077-.574.516.516 0 0 1 .487-.296l15.18.55a.642.642 0 0 1 .542.333.649.649 0 0 1-.002.637c-2.82 4.89-2.23 15.29-2.59 21.47-.047.747.307 1.143 1.06 1.19l10.06.57c.353.02.543-.147.57-.5.48-6.16 2.01-17.42-1.99-22.45a.566.566 0 0 1-.067-.618.574.574 0 0 1 .537-.312l15.15.79c.487.027.633.263.44.71-2.61 5.98-2.16 15.9-2.44 22.49-.013.387.173.59.56.61l10.52.58c.393.02.607-.167.64-.56.46-5.5 1.88-18.54-2.08-22.69a.565.565 0 0 1 .114-.865.538.538 0 0 1 .316-.075l15.19.77c.52.027.69.283.51.77-2.45 6.58-2.08 15.66-2.32 22.71-.013.407.183.623.59.65l10.42.59c.32.02.493-.13.52-.45.52-5.567.783-11.163.79-16.79.01-2.49-1.11-4.03-2.32-6.05-.233-.387-.123-.573.33-.56l15.51.55c.393.013.507.2.34.56-2.97 6.48-2.58 15.7-2.89 22.79-.02.353.143.563.49.63 6.473 1.227 10.007 5.16 10.6 11.8.033.347.223.53.57.55 5.32.407 10.647.68 15.98.82 2.73.07 4.26-.69 6.31-2.27.447-.347.66-.237.64.33l-.52 15.52a.478.478 0 0 1-.25.411.513.513 0 0 1-.49-.001c-5.71-3.26-15.81-2.75-22.39-3.16-.393-.027-.6.157-.62.55l-.63 10.61c-.02.34.143.523.49.55 6.47.42 16.7 2.34 22.18-1.39.573-.387.847-.233.82.46l-.57 15.07c-.02.487-.253.633-.7.44-6.62-2.88-15.27-2.65-22.44-2.9-.373-.013-.57.167-.59.54l-.45 10.56c-.013.333.147.513.48.54 5.66.48 11.283.72 16.87.72 2.38-.01 3.79-1 5.75-2.11.447-.247.66-.117.64.39l-.59 15.15c-.013.387-.2.513-.56.38-7.08-2.62-15.14-2.48-22.82-2.85a.52.52 0 0 0-.387.137.528.528 0 0 0-.173.373l-.54 10.68a.561.561 0 0 0 .143.401.55.55 0 0 0 .387.179l18.08.7c.34.013.66-.06.96-.22l3.98-2.11c.46-.247.677-.11.65.41l-.73 15.2c-.027.487-.257.62-.69.4-5.85-3-16.38-2.47-23.01-2.81-.347-.02-.527.143-.54.49l-.54 10.66c-.02.353.147.543.5.57 5.567.38 11.103.687 16.61.92 2.47.1 4.22-.57 6-2.06a.518.518 0 0 1 .267-.118.517.517 0 0 1 .502.245c.05.086.075.184.071.283l-.5 15.15a.55.55 0 0 1-.8.47c-5.73-3.02-16.31-3.04-22.74-3.2-.333-.007-.533.153-.6.48-1.273 6.433-5.193 9.963-11.76 10.59-.293.033-.453.197-.48.49-.76 8.05-2.01 17.52 1.94 22.29a.487.487 0 0 1 .055.515.481.481 0 0 1-.445.265l-15.33-.69c-.5-.02-.657-.26-.47-.72 2.52-6.37 2.15-15.47 2.43-22.35.02-.353-.15-.54-.51-.56l-10.47-.6c-.4-.027-.617.16-.65.56-.58 6.71-1.86 16.28 2.04 22.15.333.507.197.747-.41.72l-15.25-.61c-.487-.02-.64-.26-.46-.72 2.58-6.36 2.02-15.39 2.42-22.29.02-.333-.14-.51-.48-.53l-10.69-.63c-.307-.02-.477.123-.51.43-.61 6.76-1.73 16.73 2.13 22.58.333.5.2.737-.4.71l-15.29-.57c-.487-.02-.637-.257-.45-.71.61-1.48 1.14-2.58 1.24-4.2.387-6.1.73-12.22 1.03-18.36a.615.615 0 0 0-.16-.447.617.617 0 0 0-.43-.203l-10.47-.51c-.347-.013-.533.153-.56.5-.32 4.15-.66 8.05-.18 12.2.21 1.73-.42 3.45-.09 5a15.3 15.3 0 0 0 2.44 5.65c.3.44.183.653-.35.64l-15.25-.5c-.453-.02-.61-.243-.47-.67 2.23-6.81 1.9-15.76 2.19-22.96.02-.367-.157-.563-.53-.59l-10.46-.6c-.367-.02-.567.15-.6.51-.86 8.82-1.94 17.1 1.72 22.74.3.46.173.68-.38.66l-15.09-.6c-.487-.02-.673-.267-.56-.74.34-1.33 1.19-2.56 1.32-3.86.613-6.213.99-12.44 1.13-18.68.007-.373-.173-.603-.54-.69-6.247-1.367-9.723-5.303-10.43-11.81-.04-.34-.23-.523-.57-.55-5.58-.39-17.88-2.46-22.18 1.52a.392.392 0 0 1-.442.072.41.41 0 0 1-.238-.392l.61-15.59c.02-.473.24-.6.66-.38 5.45 2.88 14.31 2.73 22.4 3.01.34.013.517-.15.53-.49l.58-10.42c.02-.38-.16-.587-.54-.62-5.46-.513-10.887-.81-16.28-.89-2.42-.03-3.95 1.19-5.97 2.26-.393.207-.58.087-.56-.36l.57-15.42c.013-.413.207-.533.58-.36 6.66 3.01 15.16 2.66 22.39 3.04.327.02.503-.133.53-.46l.7-10.67c.02-.327-.133-.503-.46-.53a263.925 263.925 0 0 0-16.17-.76c-2.64-.04-4.34.96-6.45 2.29-.38.24-.563.133-.55-.32l.36-15.14a.701.701 0 0 1 .351-.594.732.732 0 0 1 .699-.016c5.61 3.01 15.84 2.52 22.23 2.82.393.02.603-.17.63-.57l.6-10.46c.027-.433-.177-.663-.61-.69-6.67-.38-17.18-2.35-22.74 1.76-.367.267-.543.173-.53-.28l.41-15.26a.618.618 0 0 1 .557-.601c.1-.01.2.004.293.041 6.74 2.73 15.54 2.52 22.8 2.72.333.013.51-.15.53-.49l.56-10.65c.013-.34-.147-.517-.48-.53Zm117.89-4.48a.6.6 0 0 0-.565-.633l-103.918-5.81a.598.598 0 0 0-.632.566l-5.806 103.837a.608.608 0 0 0 .339.575.595.595 0 0 0 .227.058l103.918 5.81a.598.598 0 0 0 .632-.566l5.806-103.838-.001.001Z"/><path fill="#FFEF9B" d="M191.04 421.75c.62-.13.95.38.95.94.013 23.193.017 46.39.01 69.59 0 1.38-.54 2.44-.96 3.72v-74.25Z"/><path fill="#fff" d="M548.75 438.52a5.73 5.73 0 1 0 0-11.46 5.73 5.73 0 1 0 0 11.46Z"/><path fill="#FFEF9B" d="m119.29 448.5.25.16c.14.093.21.223.21.39 0 11.39.17 133.38-.23 133.53-.127.047-.22.01-.28-.11a.407.407 0 0 0-.2-.22l.25-133.75Z"/><path fill="#fff" d="M500.425 564.147a.599.599 0 0 1-.632.566l-103.918-5.81a.595.595 0 0 1-.533-.401.608.608 0 0 1-.033-.232l5.806-103.837a.599.599 0 0 1 .632-.566l103.918 5.81a.599.599 0 0 1 .566.632l-5.806 103.838Zm-9.135-47.897c2.033-7.073 2.503-14.24 1.41-21.5l1.24-23.43c.02-.393-.163-.6-.55-.62l-80.76-4.54a.42.42 0 0 0-.45.4l-4.48 80.84c-.02.327.133.5.46.52l80.65 4.49c.32.02.49-.13.51-.45l1.97-35.71Z"/><path fill="#E30002" d="m492.7 494.75-1.41 21.5-1.97 35.71c-.02.32-.19.47-.51.45l-80.65-4.49c-.327-.02-.48-.193-.46-.52l4.48-80.84a.434.434 0 0 1 .04-.162.438.438 0 0 1 .245-.217.42.42 0 0 1 .165-.021l80.76 4.54c.387.02.57.227.55.62l-1.24 23.43Zm-11.126-12.644a.392.392 0 0 0-.101-.289.4.4 0 0 0-.276-.133l-57.55-3.217a.399.399 0 0 0-.421.377l-3.22 57.59a.39.39 0 0 0 .101.289.4.4 0 0 0 .276.133l57.55 3.217a.399.399 0 0 0 .421-.377l3.22-57.59Z"/><path fill="#FFEF9B" d="m481.197 481.684-57.55-3.217a.4.4 0 0 0-.422.377l-3.219 57.59a.4.4 0 0 0 .377.422l57.55 3.217a.4.4 0 0 0 .422-.377l3.219-57.59a.4.4 0 0 0-.377-.422ZM492.7 494.75c1.093 7.26.623 14.427-1.41 21.5l1.41-21.5Zm-281.18 57.26a.402.402 0 0 0 .499-.127.4.4 0 0 0-.039-.513c-5.56-5.327-8.513-11.88-8.86-19.66a.844.844 0 0 0-.455-.714.837.837 0 0 0-.845.044c-3.07 2-5.47 3.76-5.7 7.66-.35 5.86-5.73 17.83-11.73 6.76-14.83-27.34 30.8-42.54 38.47-14.28.73 2.69 1.6 4.27 4.22 4.77 6.24 1.2 11.85 3.38 16.16 3.87 23.82 2.68 47.437 1.64 70.85-3.12 18.89-3.84 17.28 14.76 2.9 17.54-24.43 4.72-50.81 5.38-75.64.03-3.4-.74-7.95-.57-10.3 1.54-7.73 6.94-15.3 13.19-26.4 12.49-.36-.02-.54-.21-.54-.57l.14-18.95c0-.433.193-.547.58-.34l6.69 3.57Zm-46.82-29.18c-.487-.287-.493-.583-.02-.89 3.273-2.153 6.88-3.133 10.82-2.94.393.02.493.2.3.54l-2.89 5.26c-.173.313-.437.453-.79.42a17.596 17.596 0 0 1-7.42-2.39Zm536.84 47.14c-1.093 1.647-.767 2.01.98 1.09 6.893-3.607 11.037-9.23 12.43-16.87a.816.816 0 0 1 .56-.66c5.5-1.98 44.2-16.95 44.04-5.48a1.44 1.44 0 0 1-.32.89c-4.98 6.42-23.58 10.09-32 11.21-.7.093-1.477.617-2.33 1.57-4.41 4.92.83 9.03 5.75 9.15 5.12.12 33.74 1.75 30.78 11.32-2.56 8.31-24.41 1.56-30.01-.46-1.96-.707-3.423-1.033-4.39-.98-5.52.3-6.01 6.91-1.97 9.71 6.48 4.493 12.93 9.04 19.35 13.64a18.276 18.276 0 0 1 5.11 5.6c.274.463.368 1.01.265 1.539a2.221 2.221 0 0 1-.825 1.331c-6.63 5.08-21.66-9.36-26.01-13.78-2.98-3.04-7.3-6.28-11.32-5.45-14.7 3.02-29.84-3.82-39.52-14.71a2.398 2.398 0 0 0-1.83-.8c-7.03.12-15.01 1.1-20.95 1.18-18.173.247-35.533-2.25-52.08-7.49-4.06-1.287-6.93-4.017-8.61-8.19-.12-.3-.143-.607-.07-.92 1.14-5.08 9.15-4.52 13.05-3.4 16.87 4.86 31.49 8.92 50.8 9.56 24.68.81 52.7-14.86 46.64-43.39a1.379 1.379 0 0 1 .03-.71c.32-1.147 1.227-1.57 2.72-1.27 13.18 2.69 10.51 18.54 4.23 26.39a.936.936 0 0 0-.17.88c2.37 8.17.05 12.91-4.33 19.5Zm-544.08-38.49-2.43-3.29c1.493.547 2.303 1.643 2.43 3.29Zm4.49 12.48a1.433 1.433 0 0 1-.727-1.034 1.44 1.44 0 0 1 .377-1.206c2.373-2.473 5.29-3.857 8.75-4.15.26-.02.42.1.48.36l1.63 7.12c.087.4-.073.63-.48.69-3.547.533-6.89-.06-10.03-1.78Zm-11.49-2.21c.367 6.267 3.423 10.497 9.17 12.69a.966.966 0 0 1 .62.69c.08.287.093.473.04.56-6.713-2.373-9.99-7.02-9.83-13.94ZM178.525 568.93c5.98-.376 10.692-2.848 10.524-5.521-.169-2.674-5.153-4.536-11.134-4.159-5.98.376-10.692 2.848-10.524 5.521.169 2.674 5.153 4.536 11.134 4.159Z"/><path fill="#FFEF9B" d="m335.96 565.25.07-3.72c.007-.34-.153-.553-.48-.64l-.51-.14c.127-.487.56-.637 1.3-.45.32.073.473.277.46.61l-.33 5.97c-.047.793-.173.807-.38.04a4.295 4.295 0 0 1-.13-1.67Zm-85.44 1.7c-4.13.16-9.51-1.66-13.79-2.3 4.713-.067 9.31.7 13.79 2.3ZM157 569.04c.073-.013.16-.027.26-.04a.111.111 0 0 1 .12.06c5.17 9.63 15.35 11.15 25.37 10.23-8.68 2.1-22.34-.38-25.75-10.25Zm470.25 19.67c-15.807-1.087-30.863-5.007-45.17-11.76a162.544 162.544 0 0 0 43.59 11.31c.54.067 1.067.217 1.58.45ZM190 619.03l.31-41.19a.485.485 0 0 0-.26-.46c-.1-.053-.2-.11-.3-.17.353-.233.667-.22.94.04.24.233.36.517.36.85-.2 17.953-.2 30.087 0 36.4.06 2.007-.29 3.517-1.05 4.53Zm509.72-14.33c-12.773-1.52-23.7-6.65-32.78-15.39-.56-.54-1.123-.823-1.69-.85.12-.267.32-.42.6-.46a.94.94 0 0 1 .84.26c9.313 8.773 20.323 14.253 33.03 16.44Zm-43.22-15.24c-7.747.653-15.497.653-23.25 0h23.25Zm-323.46 28.79 1.5-28.5c.22 9.36-.137 18.703-1.07 28.03a.43.43 0 0 1-.19.32l-.24.15Zm410.21 5.96c-10.05.55-23.41-13.07-30.33-19.46a.867.867 0 0 0-.89-.21c-.547.167-1.057.223-1.53.17 1.21-.92 2.29-.97 3.47.14 8.54 8.05 17.2 16.24 29.28 19.36Z"/><path fill="#E30002" d="M402.98 628.27a23.294 23.294 0 0 1-6.821 16.469 23.294 23.294 0 0 1-32.938 0 23.294 23.294 0 0 1 0-32.938 23.294 23.294 0 0 1 32.938 0 23.294 23.294 0 0 1 6.821 16.469Zm-11.73-.01a11.577 11.577 0 0 0-11.58-11.58 11.577 11.577 0 0 0-11.58 11.58 11.577 11.577 0 0 0 11.58 11.58 11.577 11.577 0 0 0 11.58-11.58Z"/><path fill="#fff" d="M379.67 639.84c6.395 0 11.58-5.185 11.58-11.58 0-6.395-5.185-11.58-11.58-11.58-6.395 0-11.58 5.185-11.58 11.58 0 6.395 5.185 11.58 11.58 11.58Z"/><path fill="#E30002" d="M467.872 726.583a.261.261 0 0 1-.274.245l-46.148-2.58a.261.261 0 0 1-.245-.274l5.843-104.497a.261.261 0 0 1 .274-.245l46.148 2.58a.261.261 0 0 1 .245.274l-5.843 104.497Zm-6.479-93.318a.381.381 0 0 0-.358-.4l-22.565-1.262a.38.38 0 0 0-.4.358l-4.523 80.894a.383.383 0 0 0 .358.4l22.565 1.262a.383.383 0 0 0 .4-.358l4.523-80.894Zm69.357 13.865a23.278 23.278 0 0 1-23.28 23.28 23.278 23.278 0 0 1-23.28-23.28 23.278 23.278 0 0 1 23.28-23.28 23.278 23.278 0 0 1 23.28 23.28Zm-11.67 0a11.55 11.55 0 1 0-23.1 0 11.55 11.55 0 0 0 23.1 0Z"/><path fill="#FFEF9B" d="M332.61 626.74c.62 3.133.407 6.22-.64 9.26l.64-9.26Z"/><path fill="#fff" d="M584.25 628.04c2.907 1.38 4.81 3.617 5.71 6.71a8386.351 8386.351 0 0 1-3.61 67.28c-.27 4.7-2.04 7.93-7.1 7.64-6.847-.387-13.697-.79-20.55-1.21-4.31-.27-7.7-2.06-7.44-6.71 1.22-21.813 2.46-43.623 3.72-65.43.44-7.56 1.32-9.97 9.65-9.42 6.56.427 13.1.807 19.62 1.14Zm-6.099 11.785a.36.36 0 0 0-.337-.38l-10.9-.668a.363.363 0 0 0-.345.202.362.362 0 0 0-.036.136l-.664 10.86a.36.36 0 0 0 .337.38l10.9.668a.363.363 0 0 0 .345-.202.362.362 0 0 0 .036-.136l.664-10.86Zm-1.337 23.308a.385.385 0 0 0-.214-.364.379.379 0 0 0-.144-.037l-10.822-.624a.377.377 0 0 0-.274.096.377.377 0 0 0-.127.261l-.626 10.862a.377.377 0 0 0 .096.274c.066.076.16.121.261.127l10.822.624a.379.379 0 0 0 .401-.357l.626-10.862h.001Zm-1.346 23.328a.358.358 0 0 0-.34-.378l-10.866-.57a.358.358 0 0 0-.378.34l-.572 10.906a.358.358 0 0 0 .34.378l10.866.57a.358.358 0 0 0 .378-.34l.572-10.906Z"/><path fill="#FFEF9B" d="M584.25 628.04c4.233.253 6.137 2.49 5.71 6.71-.9-3.093-2.803-5.33-5.71-6.71Z"/><path fill="#fff" d="m461.035 632.865-22.565-1.262a.38.38 0 0 0-.4.358l-4.523 80.894a.38.38 0 0 0 .358.4l22.565 1.262a.38.38 0 0 0 .4-.358l4.523-80.894a.38.38 0 0 0-.358-.4ZM507.53 658.68c6.379 0 11.55-5.171 11.55-11.55 0-6.379-5.171-11.55-11.55-11.55-6.379 0-11.55 5.171-11.55 11.55 0 6.379 5.171 11.55 11.55 11.55Z"/><path fill="#E30002" d="m577.814 639.444-10.9-.666a.359.359 0 0 0-.381.337l-.664 10.86a.36.36 0 0 0 .337.381l10.9.667a.36.36 0 0 0 .381-.338l.664-10.86a.36.36 0 0 0-.337-.381ZM576.456 662.732l-10.822-.624a.38.38 0 0 0-.401.357l-.627 10.862a.38.38 0 0 0 .358.401l10.822.624a.38.38 0 0 0 .401-.357l.627-10.862a.38.38 0 0 0-.358-.401Z"/><path fill="#fff" d="M358.76 732.44c-9.04-.52-15.81-4.28-18.28-12.85-.587-2.02-.737-5.6-.45-10.74.66-11.78 1.31-23.573 1.95-35.38a.459.459 0 0 1 .046-.185.464.464 0 0 1 .282-.249.5.5 0 0 1 .192-.026l56.84 3.17c.727.04 1.07.427 1.03 1.16l-3.21 56.17c-.047.727-.43 1.07-1.15 1.03-12.2-.68-24.617-1.38-37.25-2.1Zm28.26-28.66a17.43 17.43 0 1 0-34.858-.001 17.43 17.43 0 0 0 34.858.001Z"/><path fill="#E30002" d="M527.5 705.51a23.278 23.278 0 0 1-23.28 23.28 23.278 23.278 0 0 1-23.28-23.28 23.278 23.278 0 0 1 23.28-23.28 23.278 23.278 0 0 1 23.28 23.28Zm-15 7.7c4.77-3.73 3.94-11.18.31-15.32-13.02-11.43-27.65 6.03-16.08 16.32 4.793 4.26 10.05 3.927 15.77-1ZM575.127 686.083l-10.865-.57a.36.36 0 0 0-.378.341l-.572 10.905a.36.36 0 0 0 .341.378l10.865.57a.36.36 0 0 0 .378-.341l.572-10.905a.36.36 0 0 0-.341-.378ZM387.02 703.78a17.43 17.43 0 1 1-34.858.001 17.43 17.43 0 0 1 34.858-.001Zm-11.71.05a5.733 5.733 0 0 0-5.73-5.73 5.733 5.733 0 0 0-5.73 5.73 5.731 5.731 0 1 0 11.46 0Z"/><path fill="#fff" d="M512.81 697.89c.18 2.533.527 4.983 1.04 7.35.71 3.23-.14 5.18-1.35 7.97-5.72 4.927-10.977 5.26-15.77 1-11.57-10.29 3.06-27.75 16.08-16.32ZM369.58 709.56a5.73 5.73 0 1 0 0-11.46 5.73 5.73 0 1 0 0 11.46Z"/><path fill="#FFEF9B" d="M512.81 697.89c3.63 4.14 4.46 11.59-.31 15.32 1.21-2.79 2.06-4.74 1.35-7.97a52.097 52.097 0 0 1-1.04-7.35ZM327.79 709.5c.22 1.32.49 2.64.45 4.01-.46 18.26 12.78 29.52 30.16 30.55 25.1 1.48 43.133 2.467 54.1 2.96 1.78.08 3.197.42 4.25 1.02-19.72-1.12-39.437-2.257-59.15-3.41-14.27-.83-24.48-7.57-29.15-21.62-.847-2.553-1.067-7.057-.66-13.51Zm261.96 9.46c-2.02 1.38-3.853 2.227-5.5 2.54-3.06.58-6.64.573-10.74-.02a46.022 46.022 0 0 0 16.24-2.52Zm-34.45 33.53c-4.493 2.047-9.427 2.883-14.8 2.51-15.993-1.12-35.897-2.203-59.71-3.25.007-.5.263-.737.77-.71 19.087.953 38.17 2 57.25 3.14 5.573.333 11.07-.23 16.49-1.69ZM411.29 872.76c-2.053-3.433-2.827-6.69-2.32-9.77 4.973-30.393 9.943-60.793 14.91-91.2 1.35-8.32 10.74-13.93 18.39-15.42.333-.067.487.07.46.41l-10.44 134.34c-.027.36-.223.543-.59.55l-131.95.88c-.34.007-.453-.15-.34-.47 12.99-37.45 52.41-50.86 88.28-37.53 8 2.98 12.96 8.31 7.59 16.77-.18.293-.1.457.24.49l15.47 1.41c.4.04.5-.113.3-.46Zm79.94-11.78c33.94-19.41 79.17-10.8 93.01 29.32.08.227 0 .343-.24.35l-140.92.96a.288.288 0 0 1-.126-.023.324.324 0 0 1-.194-.317l10.4-133.29c.033-.453.26-.603.68-.45a45.233 45.233 0 0 1 15.74 9.6c.273.253.41.57.41.95-.22 31.167-.52 62.31-.9 93.43-.04 3.56-.89 6.78-1.81 10.17-.107.407.04.667.44.78l11.78 3.46c.3.093.493-.013.58-.32 1.92-6.593 5.637-11.467 11.15-14.62Z"/></g><defs><clipPath id="a"><path fill="#fff" d="M0 0h900v900H0z"/></clipPath></defs></svg>