<svg xmlns="http://www.w3.org/2000/svg" width="900" height="609" fill="none"><g clip-path="url(#a)"><path stroke="#E30002" stroke-width="2" d="M472.89 362.39c3.12 14.06 6.383 28.337 9.79 42.83 4.32 18.41 18.03 21.91 34.58 16.95 5.2-1.56 10.81-4.9 15.94-7.72 39.66-21.81 88.99-35.34 134.31-26.73 21.82 4.14 41.81 14.44 55.7 32.16a.41.41 0 0 0 .73-.26c-.55-36.29-1.55-72.68-1.86-109.06-.25-29.12-1.87-58.18-2.4-87.29-.16-8.95-10.51-15.08-17.95-17.01-3.6-.94-9.08-.94-12.27-1.91-7.12-2.167-10.977-6.83-11.57-13.99-.67-8.18 5.65-14.79 12.64-17.99.347-.16.437-.407.27-.74-16.89-34.71-15.28-75.65 6.42-108.2a.56.56 0 0 0-.05-.67c-48.92-55.95-140-71.63-201.74-26.67-8.63 6.28-16.28 12.57-21.84 20.74-9.753 14.307-15.35 30.193-16.79 47.66a.523.523 0 0 1-.51.53.523.523 0 0 1-.53-.51c-1.66-14.3-6.46-32.31-16.59-43.2C398.95 18.08 327.72 8 272.35 16.54c-.473.073-.687.347-.64.82l19.41 216.33a.522.522 0 0 1-.634.556.523.523 0 0 1-.276-.166L259.65 199c-.273-.32-.49-.283-.65.11l-16.32 40.18c-.673 1.653-1.203 1.61-1.59-.13L198.6 48.78c-.087-.393-.283-.46-.59-.2-11.6 9.78-20.66 25.1-18.95 40.86 12.72 117.707 25.44 235.423 38.16 353.15a.18.18 0 0 0 .11.145.185.185 0 0 0 .093.012.183.183 0 0 0 .087-.037c59.18-46.01 140.86-58.74 209.88-27.56 11.49 5.19 31.51 13.3 39.69-1.84 1.047-1.927 1.707-4.9 1.98-8.92.953-13.913 2.013-27.9 3.18-41.96a.326.326 0 0 1 .1-.204.326.326 0 0 1 .426-.027.328.328 0 0 1 .124.191ZM747.9 36.95c16.68 8.213 33.39 8.243 50.13.09a.341.341 0 0 0 .115-.518.342.342 0 0 0-.165-.112c-16.68-5.36-33.36-5.373-50.04-.04-.493.16-.507.353-.04.58Zm80.01 44.68a238.941 238.941 0 0 1 6.32 33.38c.04.327.203.413.49.26a46.583 46.583 0 0 0 10.57-7.52"/><path stroke="#E30002" stroke-width="2" d="M845.29 107.75c3.7-3.13 8.9-9.53 7.14-14.71-7.56-22.267-21.45-39.277-41.67-51.03-1.37-.8-2.62-.7-3.3.8-.133.293-.09.557.13.79 10.27 11.05 15.56 24 20.32 38.03"/><path stroke="#FFEF9B" stroke-width="2" d="M845.29 107.75c-.307-.233-.48-.403-.52-.51-3.707-9.807-9.327-18.343-16.86-25.61"/><path stroke="#E30002" stroke-width="2" d="M698.5 108.04c3.66 4.087 8.007 7.403 13.04 9.95.34.173.54.073.6-.3 2.273-15.32 6.463-30.217 12.57-44.69"/><path stroke="#E30002" stroke-width="2" d="M724.71 73c4.493-9.64 9.78-18.84 15.86-27.6.253-.36.2-.663-.16-.91l-3.91-2.77c-.327-.227-.66-.24-1-.04-20.527 12.013-34.34 29.29-41.44 51.83-1.63 5.15 1.17 10.64 4.44 14.53"/><path stroke="#FFEF9B" stroke-width="2" d="M724.71 73c-12.54 7.55-20.78 21.75-26.21 35.04"/><path stroke="#E30002" stroke-width="2" d="m780.29 57 .73 71.95c.007.333.177.49.51.47a151.959 151.959 0 0 0 42.32-8.87.466.466 0 0 0 .29-.44c-1-18.18-5.214-35.563-12.64-52.15"/><path stroke="#E30002" stroke-width="2" d="M811.5 67.96c-3.047-7.28-7.477-13.61-13.29-18.99a.835.835 0 0 0-.93-.18 74.539 74.539 0 0 1-16.4 4.23c-.394.053-.59.28-.59.68V57"/><path stroke="#FFEF9B" stroke-width="2" d="M811.5 67.96c-.43-.01-.46.12-.88-.14-9.374-5.673-19.484-9.28-30.33-10.82"/><path stroke="#E30002" stroke-width="2" d="M741.95 62.36c-10.793 18.447-17.41 38.293-19.85 59.54a1.005 1.005 0 0 0 .7 1.07c15.567 4.86 31.53 7.197 47.89 7.01.04 0 .08-.008.117-.024a.29.29 0 0 0 .163-.168.3.3 0 0 0 .02-.118c-.12-10.1-.76-20.56-.73-30.24.047-14.147-.053-28.29-.3-42.43"/><path stroke="#E30002" stroke-width="2" d="M769.96 57a7.821 7.821 0 0 0-.07-3.31c-.087-.387-.33-.587-.73-.6a56.543 56.543 0 0 1-18.19-3.54c-.327-.12-.593-.043-.8.23a108.02 108.02 0 0 0-8.22 12.58"/><path stroke="#FFEF9B" stroke-width="2" d="M769.96 57c-9.573.347-18.91 2.133-28.01 5.36"/><path stroke="#E30002" stroke-width="2" d="M847.75 119.29a95.406 95.406 0 0 1-11.95 7.14 1.615 1.615 0 0 0-.87 1.63c1.17 9.85.03 19.27-.13 29.08-.007.353.167.553.52.6 4.187.56 7.997 1.967 11.43 4.22m0 0 2.39 1.74a.425.425 0 0 0 .364.067.416.416 0 0 0 .276-.247c6.907-16.653 9.25-33.993 7.03-52.02a.31.31 0 0 0-.202-.255.31.31 0 0 0-.318.065l-8.54 7.98"/><path stroke="#FFEF9B" stroke-width="2" d="M846.75 161.96c2.553-7.807 3.48-15.753 2.78-23.84-.52-6.06-.23-12.59-1.78-18.83"/><path stroke="#E30002" stroke-width="2" d="M700.46 168c.15.75.8 1.08 1.55.92 3.666-.787 7.453-1.04 11.36-.76.346.027.483-.133.41-.48a140.41 140.41 0 0 1-2.81-37.89c.02-.373-.137-.637-.47-.79-5.307-2.507-10.21-5.507-14.71-9"/><path stroke="#E30002" stroke-width="2" d="m695.79 120-5.17-5.17c-.3-.3-.47-.24-.51.18-1.66 18.7 1.79 36.363 10.35 52.99"/><path stroke="#FFEF9B" stroke-width="2" d="M695.79 120a6.09 6.09 0 0 0-.66 1.83c-2.847 15.46-.99 30.287 5.57 44.48.193.413.113.977-.24 1.69"/><path stroke="#E30002" stroke-width="2" d="M759.46 281.25c1.173 1.92 2.763 3.573 4.77 4.96m17.55-136.77c9.19 3.73 13.78 13.18 13.56 22.53-.15 6.45-3.37 15.11-5.36 22.23-.307 1.087.097 1.53 1.21 1.33 6.02-1.08 8.02-11.16 9.47-16.11 3.53-12.11 9.39-19.82 22.91-21.6.353-.047.547-.25.58-.61a199.093 199.093 0 0 0 .78-25.68c-.007-.313-.16-.42-.46-.32a157.595 157.595 0 0 1-42.87 8.53.684.684 0 0 0-.473.229.707.707 0 0 0-.177.501l.36 8.29c.013.327.17.553.47.68Zm-56.51 22.15c.52 1.91 3.61 3.86 5.64 5.91 3.7 3.73 6.67 8.09 10.68 11.8a.388.388 0 0 0 .665-.244.39.39 0 0 0-.085-.276c-11.63-15.98-6.09-35.33 13.32-40.56 4.506-1.213 9.45-1.717 14.83-1.51.453.013.68-.203.68-.65v-5c0-.367-.18-.557-.54-.57-17.06-.87-32.42-2.08-48.87-7.11-.313-.093-.477.023-.49.35-.614 12.913.777 25.533 4.17 37.86Z"/><path stroke="#E30002" stroke-width="2" d="m764.23 286.21 2.93 3.58c.326.4.263.473-.19.22a88.423 88.423 0 0 1-20.44-15.36c-.26-.26-.453-.22-.58.12-3.43 9.28 3.83 17.27 11.66 21.14 11.927 5.9 24.397 6.227 37.41.98 6.74-2.72 12.76-7.75 13.69-15.39m0 0c.127-5.407-1.93-9.71-6.17-12.91-.327-.24-.583-.183-.77.17l-.77 1.45"/><path stroke="#E30002" stroke-width="2" d="m801 270.21-8.46 16.15c-.287.547-.377.513-.27-.1 2.213-13.12 6.83-25.303 13.85-36.55 4.12-6.61 12.48-6.12 15.07-13.02 1.347-3.567 2.547-6.213 3.6-7.94m0 0a55.491 55.491 0 0 1 9.46-10.46m0 0c5.547-4.68 11.923-7.817 19.13-9.41a.495.495 0 0 0 .319-.225.494.494 0 0 0 .061-.385c-1.54-6.007-5.333-9.757-11.38-11.25a1.371 1.371 0 0 0-.96.11c-8.26 4.12-15.47 15.05-18.57 23.12-.127.327-.343.407-.65.24a40.248 40.248 0 0 0-14.88-4.48.404.404 0 0 1-.326-.226.426.426 0 0 1 .006-.404c8.03-14.07 24.57-24.49 38.09-32.53.287-.167.487-.41.6-.73 2.29-6.43-2.82-11.61-8.46-13.42-3.29-1.05-9.12-.88-12.19-.64-18.56 1.46-12.28 24.73-24.81 34.2-2.01 1.51-4.96 2.71-7.49 3.87-.367.167-.52.45-.46.85l1.2 7.34c.073.427-.107.64-.54.64l-14.88-.01c-.34 0-.507-.17-.5-.51.327-12.153 2.377-23.967 6.15-35.44.567-1.72.9-3.47 1-5.25m0 0c.94-5.36-.534-9.86-4.42-13.5m0 0c-8.4-4.76-21.41-4.58-29.08 1.42-7.35 5.75-5.46 14.86-.65 21.28 7.24 9.647 11.446 20.347 12.62 32.1.033.307-.104.48-.41.52l-12.79 1.66c-.5.067-.754-.153-.76-.66l-.13-13.36c-.007-.433-.227-.677-.66-.73-11.66-1.4-17.55-8.89-24.3-17.11-3.287-4-7.257-6.267-11.91-6.8-6.55-.75-16.73 1.49-21.96 6.16-3.94 3.53-2.19 9.33 3.18 9.93 4.49.5 9.14.86 13.23 2.39 10.54 3.94 18.466 11.193 23.78 21.76 4.52 8.993 7.916 17.963 10.19 26.91 3.53 13.89 9.07 24.89 18.82 35.53"/><path stroke="#FFEF9B" stroke-width="2" d="m780.29 160.25 3.16 12.83c.1.387.35.597.75.63l.51.04m49.54 44.54-1.41-.03a1.396 1.396 0 0 0-.89.29 70.35 70.35 0 0 0-7.14 6.24c-1.34 1.34-1.12 2.63-.02 3.96M801 270.21c3.06 2.31 7.08 7.13 6.53 11.07-.06.413.11.557.51.43l.67-.21m-44.48 4.71c-1.334-3.227-2.66-6.45-3.98-9.67-.1-.233-.34-.323-.72-.27-.353.04-.45.22-.29.54.747 1.48.82 2.96.22 4.44"/><path stroke="#E30002" stroke-width="2" d="M108.38 369.25c6.17-.18 13.09 1.36 20.61 4.12.333.127.553.017.66-.33 6.93-22.91 26.13-40 47.91-48.56 1.427-.56 2.473-1.343 3.14-2.35 5.04-7.59-.27-18.49-9.21-18.63-2.373-.033-5.213.783-8.52 2.45-24.98 12.63-48.86 34.32-55.12 62.67-.093.433.083.643.53.63Zm656.11-29.72c-2.267-6.827-5.21-13.643-8.83-20.45-7.16-13.48-16.96.86-17.58 8.69-.127 1.68.347 3.77 1.42 6.27 4.973 11.567 9.87 21.313 14.69 29.24 4.36 7.18 15.35 21.3 22.82 21.49 19.65.49 19.74-57.09 19.17-68.19-.02-.36-.203-.49-.55-.39-9.987 2.713-19.997 2.817-30.03.31-.4-.1-.6.057-.6.47v22.47c0 1.067-.17 1.097-.51.09ZM93.78 413.9c-1.84 5.79-9.49 11.55-14.14 14.4a.926.926 0 0 0-.47.74c-.49 4.39-.02 8.85.63 13.2.053.34-.013.653-.2.94a3929.187 3929.187 0 0 1-22.01 33.9c-5.6 8.54-12.09 21.97-5.31 31.26 7.07 9.68 18.03-3.46 20.48-9.59 4.927-12.36 9.716-26.19 14.37-41.49.58-1.92.27-3.99.39-6.05.026-.433.247-.58.66-.44l15.76 5.37c.34.12.417.337.23.65a24.824 24.824 0 0 0-3.18 8.46 7047.827 7047.827 0 0 1-8.14 44.44c-3.89 20.85 14.53 18.77 20.67 4.51 6.833-15.88 8.2-32.51 4.1-49.89-.44-1.89-1.12-3.49-2.44-4.73a.717.717 0 0 1-.208-.352.712.712 0 0 1 .648-.878l18.44-1.19a.35.35 0 0 1 .31.138.37.37 0 0 1 .06.342c-1.92 6.08-1.96 11.03-.66 17.64 1.68 8.53 3.73 23.41 13.66 26.54 1.25.39 2.25.16 3.06-.83 9.9-12.09 1.29-31.32-5.28-42.64-1.84-3.18-1.73-5.95.33-8.31 5.68-6.5 6.66-9.7 8.17-17.96.513-2.8.697-5.047.55-6.74-1.19-13.53-14.98-25.28-26.33-30.91a.803.803 0 0 1-.44-.781.792.792 0 0 1 .173-.435.789.789 0 0 1 .387-.264c3.247-1.027 6.473-.907 9.68.36a.432.432 0 0 0 .512-.138.458.458 0 0 0 .008-.542c-8.42-11.56-25.75-14.62-38.96-12.22-3.58.66-10.8 3.52-8.59 8.31.16.347.42.453.78.32 6.18-2.34 12.34-2.29 18.48.15a1.128 1.128 0 0 1 .549 1.649 1.122 1.122 0 0 1-.489.431c-18.95 8.84-34.76 17.07-57.03 17.81-3.707.12-7.503.31-11.39.57-.373.027-.55.227-.53.6.313 6.22 3.44 10.433 9.38 12.64 14.36 5.32 31.07-.81 42.86-9.33.5-.36.657-.247.47.34Zm489.43 183.97 162.77 1.05c.593.007.77-.26.53-.8-18.52-42.58-71.12-62.73-112.62-40.98-4.38 2.3-6.23 7.07-7.32 11.63a.821.821 0 0 1-.365.504.8.8 0 0 1-.615.096l-13.06-3.2c-.453-.107-.627-.387-.52-.84 1.287-5.767 1.703-10.293 1.25-13.58a474.448 474.448 0 0 0-22-91.39c-3.09-8.88-8.26-22.51-18.6-23.43-11.23-.99-11.44 15.47-10.3 22.4.547 3.333 1.953 9.517 4.22 18.55 9.78 39.01 14.95 79.21 16.11 119.48.013.333.187.503.52.51Zm-253.19-23.44a.848.848 0 0 1-.667-.218.855.855 0 0 1-.283-.642c.02-8.61-4.02-15.89-12.24-18.71-40.61-13.96-96.91 5.24-115.73 45.29-.18.387-.057.58.37.58 52.673.047 105.35.047 158.03 0 3.27 0 7.09-.55 10.69-.48.347.007.523-.163.53-.51.26-8.82.24-18.06.86-26.37a455.65 455.65 0 0 1 17.57-95.89c1.92-6.49 5.22-17.2 2.61-23.25-6.87-15.89-25.43-2.42-30.78 7.04-.693 1.22-1.53 3.12-2.51 5.7-1.92 5.02-4.09 9.58-5.38 14.62-4.09 15.92-8.84 33.31-9.74 49.36-.773 13.747.14 27.447 2.74 41.1a.65.65 0 0 1-.57.77l-15.5 1.61Zm193.307-387.212c9.387-.723 17.836-8.613 23.488-21.936 5.652-13.323 8.044-30.987 6.65-49.106-1.394-18.119-6.461-35.209-14.084-47.51-7.624-12.301-17.181-18.806-26.568-18.084-9.387.723-17.836 8.613-23.488 21.936-5.652 13.323-8.044 30.986-6.65 49.105.69 8.972 2.289 17.785 4.706 25.937 2.416 8.152 5.603 15.483 9.378 21.574 3.775 6.091 8.064 10.823 12.623 13.926 4.558 3.103 9.297 4.516 13.945 4.158Zm-131.568 9.976c4.863-.332 9.56-2.401 13.823-6.09s8.007-8.926 11.02-15.411c3.013-6.485 5.235-14.092 6.539-22.386 1.304-8.294 1.666-17.112 1.063-25.952-1.217-17.853-6.286-34.708-14.092-46.859-7.806-12.15-17.709-18.6-27.531-17.93-4.864.332-9.561 2.401-13.823 6.09-4.263 3.69-8.007 8.926-11.02 15.411-3.013 6.485-5.235 14.092-6.539 22.386-1.305 8.294-1.666 17.112-1.063 25.952 1.217 17.853 6.286 34.708 14.092 46.859 7.806 12.15 17.709 18.6 27.531 17.93Zm69.271-6.914c-13.81 7.19-13.19-30.48-12.93-34.63.013-.253-.107-.377-.36-.37l-12.58.57c-.967.047-1.41.553-1.33 1.52 1.27 14.63 5.4 37.3 17.4 46.47 4.4 3.36 9.69 4.82 14.26 1.4 13.61-10.18 14.02-34.78 13.41-50.91-.013-.313-.18-.463-.5-.45l-13.86.8c-.36.027-.477.21-.35.55 2.61 7.33 4.52 31.06-3.16 35.05Zm104.84-2.39c19.21 9.84 36.37 33.1 38.41 54.77a.364.364 0 0 0 .157.265.365.365 0 0 0 .303.055l14.04-3.58c.433-.113.567-.377.4-.79-6.94-17.36-17.31-33.09-29.57-48.51-4.813-6.047-9.397-11.037-13.75-14.97-.34-.307-.647-.277-.92.09l-9.21 12.08a.393.393 0 0 0-.071.328.388.388 0 0 0 .211.262Zm-269.63 43.04 9.21 4.13c.4.18.673.063.82-.35 4.62-12.88 21.27-29.98 34.88-32.1.44-.067.567-.3.38-.7l-5.19-11.14c-.2-.433-.517-.547-.95-.34-13.27 6.35-34.4 25.63-39.53 39.59-.153.42-.027.723.38.91Z"/><path stroke="#E30002" stroke-width="2" d="M321.26 290.38c8.38 10.95 22.87 19.9 35.68 25.65 26.213 11.76 53.897 18.36 83.05 19.8 12.12.6 29.41-.91 47.28-2.88 17.62-1.95 37.65-8.64 51.65-15.29 26.32-12.5 52.55-34.9 52.45-66.69-.06-19.09-10.16-40.77-28.19-49.17-17.73-8.26-40.13-1.06-54.42 11.04-13.54 11.48-24.98 22.12-42.62 24.53-20.11 2.75-39-4.03-57.27-11.61-16.94-7.04-33.46-13.18-52-14.32-3.573-.22-6.933.08-10.08.9-20.3 5.28-33.12 19.08-36.79 39.73-2.34 13.2 3.36 27.97 11.26 38.31Zm192.09-116.97c10.04 8.72 19.09-.76 23.1-9.75a.514.514 0 0 0-.34-.7c-10.45-2.71-17.12-9.95-20-20.3-3.42-12.25 1-23.64 9.88-32.82.253-.26.216-.47-.11-.63-7.06-3.46-11.79-6.35-13.42-14.69-2.08-10.72 1.17-22.91 11.13-28.65.293-.173.316-.38.07-.62-7.03-6.91-14.47-4.87-19.84 2.1-18.36 23.82-13.73 85.85 9.53 106.06Zm-125.81-50.16 5.1-4.52c.28-.247.256-.457-.07-.63l-6.06-3.17"/><path stroke="#E30002" stroke-width="2" d="M386.51 114.93c-5.24-3.82-7.863-8.773-7.87-14.86-.02-9.91 7.44-16.91 14.55-22.92.273-.227.273-.453 0-.68-16.4-13.21-27.85 12.31-30.43 24.03-5.41 24.56-2.89 64.37 17.92 82.51 8.99 7.83 18.7 2.41 23.94-6.61.207-.367.103-.57-.31-.61-9.22-.993-15.893-5.253-20.02-12.78-7.647-13.927-6.563-27.18 3.25-39.76"/><path stroke="#FFEF9B" stroke-width="2" d="M386.51 114.93c-.893 2.927-.55 5.7 1.03 8.32m-18.307-5.278a.268.268 0 0 0-.255-.284l-.06-.003a.268.268 0 0 0-.284.255l-.467 8.908a.263.263 0 0 0 .069.195.265.265 0 0 0 .187.089l.06.003a.271.271 0 0 0 .283-.255l.467-8.908ZM703.6 191.49l.06-.39c.027-.2-.053-.337-.24-.41-.433-.173-.823-.23-1.17-.17-.327.053-.437.24-.33.56.193.567.537.877 1.03.93.38.033.597-.14.65-.52Z"/><path stroke="#E30002" stroke-width="2" d="m536.2 211.08 44.35 37.39a.27.27 0 0 0 .44-.22c-.453-10.053-3.753-18.997-9.9-26.83-9.51-12.14-20.15-14.56-34.95-11.65a.72.72 0 0 0-.58.72c.007.28.117.433.33.46.113.007.217.05.31.13Zm41.6 48.43c-17.3-14.5-34.873-29.28-52.72-44.34-.507-.427-1.043-.47-1.61-.13a76.257 76.257 0 0 0-14.53 11.3c-.273.267-.307.56-.1.88l44.34 69.33c.18.273.407.32.68.14 12.213-8.127 20.807-19.21 25.78-33.25.92-2.59-.31-2.65-1.84-3.93Zm-209.53-36.47c-6.29-1.06-14.04-2.22-20.01-.43-9.27 2.79-16.41 6.57-21.7 14.88-10.37 16.28-8.01 31.97 2.96 47.01.393.54.763.527 1.11-.04l37.82-61c.147-.233.087-.373-.18-.42Zm-29.73 70.21a137.465 137.465 0 0 0 40.21 20.35c.347.107.577-.01.69-.35l25.14-77.66c.14-.44-.007-.743-.44-.91l-24.15-9.02a.813.813 0 0 0-.97.33l-40.79 65.68c-.387.62-.283 1.147.31 1.58Zm163.05 26.9c14.01-3.8 30.57-9.37 42.92-17.02.333-.213.393-.487.18-.82l-43.78-68.47c-.2-.313-.453-.363-.76-.15a104.311 104.311 0 0 1-21.46 11.37c-.327.127-.44.357-.34.69l22.45 73.96a.67.67 0 0 0 .311.383.632.632 0 0 0 .479.057Zm-112.09-3.12a222.257 222.257 0 0 0 39.55 7.86.629.629 0 0 0 .481-.144.647.647 0 0 0 .229-.446l6.45-77.65a.568.568 0 0 0-.094-.361.546.546 0 0 0-.296-.219l-21.24-6.43c-.307-.093-.51.013-.61.32l-24.74 76.55a.4.4 0 0 0 .026.317.41.41 0 0 0 .244.203Zm63.51-68.92c-2.053-.18-4.1-.29-6.14-.33-.32-.007-.493.15-.52.47l-6.34 76.28c-.033.42.157.637.57.65 16.627.467 33.15-.583 49.57-3.15.38-.06.513-.273.4-.64l-22.16-73.14c-.107-.347-.34-.507-.7-.48-5.01.42-9.48.79-14.68.34Z"/><path fill="#E30002" d="M760.44 609h-74.25c-37.32-.66-74.997-.897-113.03-.71a.965.965 0 0 1-.699-.287.974.974 0 0 1-.281-.703 392.79 392.79 0 0 0-1.24-39.56 558.23 558.23 0 0 0-14.6-89.26c-3.347-13.487-7.723-26.043-13.13-37.67-1.693-3.653-4.123-7.19-7.29-10.61-.24-.26-.527-.327-.86-.2-13.85 5.24-27.89 13.59-38.89 23.53-7.58 6.84-19.31 7.87-27.63 2.05-12.73-8.91-30.48-14.24-45.58-17.43-1.1-.233-2.143-.62-3.13-1.16a1.875 1.875 0 0 0-1.388-.168 1.85 1.85 0 0 0-1.112.838c-18.37 30.73-26.6 69.51-31.96 104.46a384.453 384.453 0 0 0-4.35 65.81c.007.34-.157.53-.49.57l-4.84.5H187.44c2.307-10.407 6.773-19.8 13.4-28.18 29.03-36.69 86.07-52.35 128.93-31.86.028.015.06.023.093.023a.194.194 0 0 0 .16-.092.193.193 0 0 0 .027-.091c3.82-38.39 12.8-78.29 29.88-113.1a.447.447 0 0 0 .044-.236.445.445 0 0 0-.083-.227.479.479 0 0 0-.431-.197c-36.02 3.84-73.07 21.95-89.82 55.17a.202.202 0 0 1-.087.089.206.206 0 0 1-.236-.024.203.203 0 0 1-.067-.105 205.88 205.88 0 0 1-5.69-35.18.269.269 0 0 0-.169-.23.267.267 0 0 0-.281.05c-9.82 8.69-14.22 19.41-16.35 32.15a.342.342 0 0 1-.302.3.344.344 0 0 1-.358-.23 202.611 202.611 0 0 1-4.01-11.32c-3.31-10.27-5.26-21.37-7.25-32.06-.067-.36-.257-.443-.57-.25a91.436 91.436 0 0 0-23.69 21.19.481.481 0 0 1-.51.177.513.513 0 0 1-.37-.407 546.979 546.979 0 0 1-3.94-29.59c-3.613-34.44-7.267-69.033-10.96-103.78a.598.598 0 0 0-.248-.426.613.613 0 0 0-.482-.104c-24.51 5.14-48.75 22.42-55.03 47.71a.727.727 0 0 0 .28.77c6.06 4.39 10.76 11.01 9.46 18.9a.83.83 0 0 0 .32.83c16.42 13.08 20.11 39.83 6.23 56.06a.62.62 0 0 0-.07.69c8.6 15.33 15.42 35.2 3.99 51.1-9.08 12.65-24.2 2.82-29.26-7.71-.467-.973-.793-.93-.98.13-1.113 6.38-3.107 12.813-5.98 19.3-4.48 10.11-16.59 21.01-28.42 16.73-9.77-3.53-13.48-13.96-12.6-23.73.227-2.5 1.167-6.9 2.82-13.2.08-.313-.037-.427-.35-.34-.253.073-.42.247-.5.52-3.11 10.37-11.64 21.92-22.93 23.56-8.53 1.23-15.48-3.18-19.31-10.85-6.46-12.93-.52-27.4 6.58-38.49a1958.151 1958.151 0 0 1 20.49-31.34c.187-.28.27-.587.25-.92l-.35-6.67c-.02-.427-.24-.587-.66-.48-14.41 3.81-31.04-.52-36.27-15.74-1.49-4.32-1.64-13.53 1.98-16.56 3.69-3.08 17.44-1.52 22.37-1.96a95.69 95.69 0 0 0 24.56-5.51c.36-.133.473-.38.34-.74-4.18-11.4 4.74-19.68 15.14-21.97.36-.073.58-.293.66-.66 9.62-44.69 50.18-74.05 92.45-84.67.34-.087.49-.303.45-.65-5.9-54.707-11.81-109.393-17.73-164.06-1.353-12.48-2.417-21.967-3.19-28.46-.54-4.507-.613-8.263-.22-11.27 6.45-49.9 70.55-70.7 112.18-75.72 6.5-.787 11.72-1.15 15.66-1.09 1.16.02 2.28-.69 3.38-.69 6.71-.04 13.76-.51 20.39.51 3.78.58 7.65-.08 11.59.58 4.53.75 9.32 1.25 13.95 1.9 34.26 4.79 78.28 20.05 100.48 48.3 5.59 7.11 14.75 2.86 19.16-2.93C503 2.28 571.22-9.85 628.03 6.96c29.573 8.747 54.693 24.433 75.36 47.06a.632.632 0 0 0 .479.21.65.65 0 0 0 .481-.22c14.35-16.44 34.7-28.6 56.58-31.15 1.77-.2 3.36-.8 5.12-.87 52.18-2.3 92.96 35.8 100.7 86.01 3.533 22.907 0 44.87-10.6 65.89-.14.28-.17.57-.09.87 1.54 5.573.507 10.53-3.1 14.87-.22.273-.183.507.11.7 8.433 5.633 12.027 13.627 10.78 23.98a1.432 1.432 0 0 1-.8 1.12c-4.93 2.38-11.09 3.95-15.2 6.2-6.03 3.3-13.03 8.94-15.41 15.66-1.767 4.993-4.71 9.133-8.83 12.42-4.9 3.92-10.63 3.87-13.98 10.02-.167.307-.12.573.14.8 13.86 12.09 11.93 31.59-3.13 41.68a1.438 1.438 0 0 0-.63 1.31c1.69 20.45 3.24 81.42-22.04 90.54-22.64 8.17-43.54-32.06-50.29-47.58a.405.405 0 0 0-.457-.24.402.402 0 0 0-.313.41c.45 33.98 1.46 67.93 1.31 101.93a.295.295 0 0 1-.214.281.272.272 0 0 1-.316-.131 138.412 138.412 0 0 0-23.44-28.71.28.28 0 0 0-.313-.061.284.284 0 0 0-.126.109.288.288 0 0 0-.041.162c.04 4.76-.59 9.34-.29 14.01.467 7.373.437 14.677-.09 21.91a.318.318 0 0 1-.249.274.319.319 0 0 1-.341-.144c-5.55-9.79-13.19-15.81-22.9-21.31-.313-.18-.497-.09-.55.27-.227 1.493-.257 2.75-.09 3.77a58.43 58.43 0 0 1-.88 22.86c-.1.433-.313.5-.64.2-2.05-1.89-3.74-3.91-5.99-5.39-27.01-17.81-57.85-30.16-90.3-32.97a.47.47 0 0 0-.416.206.467.467 0 0 0-.024.464 218.093 218.093 0 0 1 12.61 28.66A493.573 493.573 0 0 1 622.48 543c.26 1.69.49 4.99.88 7.49.08.48.33.597.75.35 52.31-31.12 122.15-2.28 136.42 57.33a1.1 1.1 0 0 1-.02.55c-.027.08-.05.173-.07.28ZM472.89 362.39c3.12 14.06 6.383 28.337 9.79 42.83 4.32 18.41 18.03 21.91 34.58 16.95 5.2-1.56 10.81-4.9 15.94-7.72 39.66-21.81 88.99-35.34 134.31-26.73 21.82 4.14 41.81 14.44 55.7 32.16a.41.41 0 0 0 .73-.26c-.55-36.29-1.55-72.68-1.86-109.06-.25-29.12-1.87-58.18-2.4-87.29-.16-8.95-10.51-15.08-17.95-17.01-3.6-.94-9.08-.94-12.27-1.91-7.12-2.167-10.977-6.83-11.57-13.99-.67-8.18 5.65-14.79 12.64-17.99.347-.16.437-.407.27-.74-16.89-34.71-15.28-75.65 6.42-108.2a.56.56 0 0 0-.05-.67c-48.92-55.95-140-71.63-201.74-26.67-8.63 6.28-16.28 12.57-21.84 20.74-9.753 14.307-15.35 30.193-16.79 47.66a.523.523 0 0 1-.51.53.523.523 0 0 1-.53-.51c-1.66-14.3-6.46-32.31-16.59-43.2C398.95 18.08 327.72 8 272.35 16.54c-.473.073-.687.347-.64.82l19.41 216.33a.522.522 0 0 1-.634.556.523.523 0 0 1-.276-.166L259.65 199c-.273-.32-.49-.283-.65.11l-16.32 40.18c-.673 1.653-1.203 1.61-1.59-.13L198.6 48.78c-.087-.393-.283-.46-.59-.2-11.6 9.78-20.66 25.1-18.95 40.86 12.72 117.707 25.44 235.423 38.16 353.15a.18.18 0 0 0 .11.145.185.185 0 0 0 .093.012.183.183 0 0 0 .087-.037c59.18-46.01 140.86-58.74 209.88-27.56 11.49 5.19 31.51 13.3 39.69-1.84 1.047-1.927 1.707-4.9 1.98-8.92.953-13.913 2.013-27.9 3.18-41.96a.326.326 0 0 1 .1-.204.326.326 0 0 1 .426-.027.328.328 0 0 1 .124.191ZM747.9 36.95c16.68 8.213 33.39 8.243 50.13.09a.34.34 0 0 0-.05-.63c-16.68-5.36-33.36-5.373-50.04-.04-.493.16-.507.353-.04.58Zm80.01 44.68a238.944 238.944 0 0 1 6.32 33.38c.04.327.203.413.49.26a46.583 46.583 0 0 0 10.57-7.52c3.7-3.13 8.9-9.53 7.14-14.71-7.56-22.267-21.45-39.277-41.67-51.03-1.37-.8-2.62-.7-3.3.8-.133.293-.09.557.13.79 10.27 11.05 15.56 24 20.32 38.03ZM698.5 108.04c3.66 4.087 8.007 7.403 13.04 9.95.34.173.54.073.6-.3 2.273-15.32 6.463-30.217 12.57-44.69 4.493-9.64 9.78-18.84 15.86-27.6.253-.36.2-.663-.16-.91l-3.91-2.77c-.327-.227-.66-.24-1-.04-20.527 12.013-34.34 29.29-41.44 51.83-1.63 5.15 1.17 10.64 4.44 14.53ZM780.29 57l.73 71.95c.007.333.177.49.51.47a151.959 151.959 0 0 0 42.32-8.87.463.463 0 0 0 .29-.44c-1-18.18-5.213-35.563-12.64-52.15-3.047-7.28-7.477-13.61-13.29-18.99a.835.835 0 0 0-.93-.18 74.524 74.524 0 0 1-16.4 4.23c-.393.053-.59.28-.59.68V57Zm-38.34 5.36c-10.793 18.447-17.41 38.293-19.85 59.54a1.011 1.011 0 0 0 .7 1.07c15.567 4.86 31.53 7.197 47.89 7.01.04 0 .08-.008.117-.024a.29.29 0 0 0 .163-.168.3.3 0 0 0 .02-.118c-.12-10.1-.76-20.56-.73-30.24.047-14.147-.053-28.29-.3-42.43a7.821 7.821 0 0 0-.07-3.31c-.087-.387-.33-.587-.73-.6a56.543 56.543 0 0 1-18.19-3.54c-.327-.12-.593-.043-.8.23a108.02 108.02 0 0 0-8.22 12.58Zm105.8 56.93a95.406 95.406 0 0 1-11.95 7.14 1.615 1.615 0 0 0-.87 1.63c1.17 9.85.03 19.27-.13 29.08-.007.353.167.553.52.6 4.187.56 7.997 1.967 11.43 4.22l2.39 1.74a.431.431 0 0 0 .174.076.407.407 0 0 0 .19-.009.414.414 0 0 0 .276-.247c6.907-16.653 9.25-33.993 7.03-52.02a.31.31 0 0 0-.201-.255.314.314 0 0 0-.169-.013.319.319 0 0 0-.15.078l-8.54 7.98ZM700.46 168c.15.75.8 1.08 1.55.92 3.667-.787 7.453-1.04 11.36-.76.347.027.483-.133.41-.48a140.41 140.41 0 0 1-2.81-37.89c.02-.373-.137-.637-.47-.79-5.307-2.507-10.21-5.507-14.71-9l-5.17-5.17c-.3-.3-.47-.24-.51.18-1.66 18.7 1.79 36.363 10.35 52.99Zm81.32-18.56c9.19 3.73 13.78 13.18 13.56 22.53-.15 6.45-3.37 15.11-5.36 22.23-.307 1.087.097 1.53 1.21 1.33 6.02-1.08 8.02-11.16 9.47-16.11 3.53-12.11 9.39-19.82 22.91-21.6.353-.047.547-.25.58-.61a199.093 199.093 0 0 0 .78-25.68c-.007-.313-.16-.42-.46-.32a157.595 157.595 0 0 1-42.87 8.53.688.688 0 0 0-.473.229.707.707 0 0 0-.177.501l.36 8.29c.013.327.17.553.47.68Zm-56.51 22.15c.52 1.91 3.61 3.86 5.64 5.91 3.7 3.73 6.67 8.09 10.68 11.8a.392.392 0 0 0 .537.016.389.389 0 0 0 .043-.536c-11.63-15.98-6.09-35.33 13.32-40.56 4.507-1.213 9.45-1.717 14.83-1.51.453.013.68-.203.68-.65v-5c0-.367-.18-.557-.54-.57-17.06-.87-32.42-2.08-48.87-7.11-.313-.093-.477.023-.49.35-.613 12.913.777 25.533 4.17 37.86Zm34.19 109.66c1.173 1.92 2.763 3.573 4.77 4.96l2.93 3.58c.327.4.263.473-.19.22a88.444 88.444 0 0 1-20.44-15.36c-.26-.26-.453-.22-.58.12-3.43 9.28 3.83 17.27 11.66 21.14 11.927 5.9 24.397 6.227 37.41.98 6.74-2.72 12.76-7.75 13.69-15.39.127-5.407-1.93-9.71-6.17-12.91-.327-.24-.583-.183-.77.17l-.77 1.45-8.46 16.15c-.287.547-.377.513-.27-.1 2.213-13.12 6.83-25.303 13.85-36.55 4.12-6.61 12.48-6.12 15.07-13.02 1.347-3.567 2.547-6.213 3.6-7.94a55.525 55.525 0 0 1 9.46-10.46c5.547-4.68 11.923-7.817 19.13-9.41a.495.495 0 0 0 .38-.61c-1.54-6.007-5.333-9.757-11.38-11.25a1.371 1.371 0 0 0-.96.11c-8.26 4.12-15.47 15.05-18.57 23.12-.127.327-.343.407-.65.24a40.248 40.248 0 0 0-14.88-4.48.4.4 0 0 1-.191-.071.426.426 0 0 1-.129-.559c8.03-14.07 24.57-24.49 38.09-32.53.287-.167.487-.41.6-.73 2.29-6.43-2.82-11.61-8.46-13.42-3.29-1.05-9.12-.88-12.19-.64-18.56 1.46-12.28 24.73-24.81 34.2-2.01 1.51-4.96 2.71-7.49 3.87-.367.167-.52.45-.46.85l1.2 7.34c.073.427-.107.64-.54.64l-14.88-.01c-.34 0-.507-.17-.5-.51.327-12.153 2.377-23.967 6.15-35.44.567-1.72.9-3.47 1-5.25.94-5.36-.533-9.86-4.42-13.5-8.4-4.76-21.41-4.58-29.08 1.42-7.35 5.75-5.46 14.86-.65 21.28 7.24 9.647 11.447 20.347 12.62 32.1.033.307-.103.48-.41.52l-12.79 1.66c-.5.067-.753-.153-.76-.66l-.13-13.36c-.007-.433-.227-.677-.66-.73-11.66-1.4-17.55-8.89-24.3-17.11-3.287-4-7.257-6.267-11.91-6.8-6.55-.75-16.73 1.49-21.96 6.16-3.94 3.53-2.19 9.33 3.18 9.93 4.49.5 9.14.86 13.23 2.39 10.54 3.94 18.467 11.193 23.78 21.76 4.52 8.993 7.917 17.963 10.19 26.91 3.53 13.89 9.07 24.89 18.82 35.53Zm-651.08 88c6.17-.18 13.09 1.36 20.61 4.12.333.127.553.017.66-.33 6.93-22.91 26.13-40 47.91-48.56 1.427-.56 2.473-1.343 3.14-2.35 5.04-7.59-.27-18.49-9.21-18.63-2.373-.033-5.213.783-8.52 2.45-24.98 12.63-48.86 34.32-55.12 62.67-.093.433.083.643.53.63Zm656.11-29.72c-2.267-6.827-5.21-13.643-8.83-20.45-7.16-13.48-16.96.86-17.58 8.69-.127 1.68.347 3.77 1.42 6.27 4.973 11.567 9.87 21.313 14.69 29.24 4.36 7.18 15.35 21.3 22.82 21.49 19.65.49 19.74-57.09 19.17-68.19-.02-.36-.203-.49-.55-.39-9.987 2.713-19.997 2.817-30.03.31-.4-.1-.6.057-.6.47v22.47c0 1.067-.17 1.097-.51.09ZM93.78 413.9c-1.84 5.79-9.49 11.55-14.14 14.4a.926.926 0 0 0-.47.74c-.49 4.39-.02 8.85.63 13.2a1.3 1.3 0 0 1-.2.94 3929.187 3929.187 0 0 1-22.01 33.9c-5.6 8.54-12.09 21.97-5.31 31.26 7.07 9.68 18.03-3.46 20.48-9.59 4.927-12.36 9.717-26.19 14.37-41.49.58-1.92.27-3.99.39-6.05.027-.433.247-.58.66-.44l15.76 5.37c.34.12.417.337.23.65a24.824 24.824 0 0 0-3.18 8.46 7033.486 7033.486 0 0 1-8.14 44.44c-3.89 20.85 14.53 18.77 20.67 4.51 6.833-15.88 8.2-32.51 4.1-49.89-.44-1.89-1.12-3.49-2.44-4.73a.708.708 0 0 1-.186-.76.71.71 0 0 1 .626-.47l18.44-1.19a.35.35 0 0 1 .31.138.359.359 0 0 1 .072.163c.01.06.006.121-.012.179-1.92 6.08-1.96 11.03-.66 17.64 1.68 8.53 3.73 23.41 13.66 26.54 1.25.39 2.25.16 3.06-.83 9.9-12.09 1.29-31.32-5.28-42.64-1.84-3.18-1.73-5.95.33-8.31 5.68-6.5 6.66-9.7 8.17-17.96.513-2.8.697-5.047.55-6.74-1.19-13.53-14.98-25.28-26.33-30.91a.803.803 0 0 1-.44-.781.8.8 0 0 1 .56-.699c3.247-1.027 6.473-.907 9.68.36a.432.432 0 0 0 .513-.138.455.455 0 0 0 .007-.542c-8.42-11.56-25.75-14.62-38.96-12.22-3.58.66-10.8 3.52-8.59 8.31.16.347.42.453.78.32 6.18-2.34 12.34-2.29 18.48.15a1.128 1.128 0 0 1 .549 1.649 1.122 1.122 0 0 1-.489.431c-18.95 8.84-34.76 17.07-57.03 17.81-3.707.12-7.503.31-11.39.57-.373.027-.55.227-.53.6.313 6.22 3.44 10.433 9.38 12.64 14.36 5.32 31.07-.81 42.86-9.33.5-.36.657-.247.47.34Zm489.43 183.97 162.77 1.05c.593.007.77-.26.53-.8-18.52-42.58-71.12-62.73-112.62-40.98-4.38 2.3-6.23 7.07-7.32 11.63a.821.821 0 0 1-.365.504.807.807 0 0 1-.615.096l-13.06-3.2c-.453-.107-.627-.387-.52-.84 1.287-5.767 1.703-10.293 1.25-13.58a474.448 474.448 0 0 0-22-91.39c-3.09-8.88-8.26-22.51-18.6-23.43-11.23-.99-11.44 15.47-10.3 22.4.547 3.333 1.953 9.517 4.22 18.55 9.78 39.01 14.95 79.21 16.11 119.48.013.333.187.503.52.51Zm-253.19-23.44a.848.848 0 0 1-.667-.218.855.855 0 0 1-.283-.642c.02-8.61-4.02-15.89-12.24-18.71-40.61-13.96-96.91 5.24-115.73 45.29-.18.387-.057.58.37.58 52.673.047 105.35.047 158.03 0 3.27 0 7.09-.55 10.69-.48.347.007.523-.163.53-.51.26-8.82.24-18.06.86-26.37a455.65 455.65 0 0 1 17.57-95.89c1.92-6.49 5.22-17.2 2.61-23.25-6.87-15.89-25.43-2.42-30.78 7.04-.693 1.22-1.53 3.12-2.51 5.7-1.92 5.02-4.09 9.58-5.38 14.62-4.09 15.92-8.84 33.31-9.74 49.36-.773 13.747.14 27.447 2.74 41.1a.65.65 0 0 1-.57.77l-15.5 1.61Z"/><path fill="#FFEF9B" d="M472.89 362.39a.328.328 0 0 0-.55-.164.326.326 0 0 0-.1.204 2918.015 2918.015 0 0 0-3.18 41.96c-.273 4.02-.933 6.993-1.98 8.92-8.18 15.14-28.2 7.03-39.69 1.84-69.02-31.18-150.7-18.45-209.88 27.56a.183.183 0 0 1-.087.037.178.178 0 0 1-.203-.157c-12.72-117.727-25.44-235.443-38.16-353.15-1.71-15.76 7.35-31.08 18.95-40.86.307-.26.503-.193.59.2l42.49 190.38c.387 1.74.917 1.783 1.59.13L259 199.11c.16-.393.377-.43.65-.11l30.56 35.08a.523.523 0 0 0 .597.137.522.522 0 0 0 .313-.527L271.71 17.36c-.047-.473.167-.747.64-.82 55.37-8.54 126.6 1.54 166.82 44.77 10.13 10.89 14.93 28.9 16.59 43.2a.523.523 0 0 0 .895.351.523.523 0 0 0 .145-.371c1.44-17.467 7.037-33.353 16.79-47.66 5.56-8.17 13.21-14.46 21.84-20.74C557.17-8.87 648.25 6.81 697.17 62.76a.56.56 0 0 1 .05.67c-21.7 32.55-23.31 73.49-6.42 108.2.167.333.077.58-.27.74-6.99 3.2-13.31 9.81-12.64 17.99.593 7.16 4.45 11.823 11.57 13.99 3.19.97 8.67.97 12.27 1.91 7.44 1.93 17.79 8.06 17.95 17.01.53 29.11 2.15 58.17 2.4 87.29.31 36.38 1.31 72.77 1.86 109.06a.41.41 0 0 1-.73.26c-13.89-17.72-33.88-28.02-55.7-32.16-45.32-8.61-94.65 4.92-134.31 26.73-5.13 2.82-10.74 6.16-15.94 7.72-16.55 4.96-30.26 1.46-34.58-16.95a3510.017 3510.017 0 0 1-9.79-42.83Zm50.437-175.172c9.387-.723 17.836-8.613 23.488-21.936 5.652-13.323 8.044-30.987 6.65-49.106-1.394-18.119-6.46-35.209-14.084-47.51-7.624-12.301-17.181-18.806-26.568-18.084-9.387.723-17.836 8.613-23.488 21.936-5.652 13.323-8.044 30.986-6.65 49.105.69 8.972 2.289 17.785 4.706 25.937 2.416 8.152 5.603 15.483 9.378 21.574 3.775 6.091 8.064 10.823 12.623 13.926 4.558 3.103 9.297 4.516 13.945 4.158Zm-131.568 9.976c4.863-.332 9.56-2.401 13.823-6.09s8.007-8.926 11.02-15.411c3.013-6.485 5.235-14.092 6.539-22.386 1.305-8.294 1.666-17.112 1.063-25.952-1.217-17.853-6.286-34.708-14.092-46.859-7.806-12.15-17.709-18.6-27.531-17.93-4.863.332-9.56 2.401-13.823 6.09-4.263 3.69-8.007 8.926-11.02 15.411-3.013 6.485-5.235 14.092-6.539 22.386-1.305 8.294-1.666 17.112-1.063 25.952 1.217 17.853 6.286 34.708 14.092 46.859 7.806 12.15 17.709 18.6 27.531 17.93Zm69.271-6.914c-13.81 7.19-13.19-30.48-12.93-34.63.013-.253-.107-.377-.36-.37l-12.58.57c-.967.047-1.41.553-1.33 1.52 1.27 14.63 5.4 37.3 17.4 46.47 4.4 3.36 9.69 4.82 14.26 1.4 13.61-10.18 14.02-34.78 13.41-50.91-.013-.313-.18-.463-.5-.45l-13.86.8c-.36.027-.477.21-.35.55 2.61 7.33 4.52 31.06-3.16 35.05Zm104.84-2.39c19.21 9.84 36.37 33.1 38.41 54.77a.36.36 0 0 0 .157.265.365.365 0 0 0 .303.055l14.04-3.58c.433-.113.567-.377.4-.79-6.94-17.36-17.31-33.09-29.57-48.51-4.813-6.047-9.397-11.037-13.75-14.97-.34-.307-.647-.277-.92.09l-9.21 12.08a.393.393 0 0 0-.071.328.401.401 0 0 0 .211.262Zm-269.63 43.04 9.21 4.13c.4.18.673.063.82-.35 4.62-12.88 21.27-29.98 34.88-32.1.44-.067.567-.3.38-.7l-5.19-11.14c-.2-.433-.517-.547-.95-.34-13.27 6.35-34.4 25.63-39.53 39.59-.153.42-.027.723.38.91Zm25.02 59.45c8.38 10.95 22.87 19.9 35.68 25.65 26.213 11.76 53.897 18.36 83.05 19.8 12.12.6 29.41-.91 47.28-2.88 17.62-1.95 37.65-8.64 51.65-15.29 26.32-12.5 52.55-34.9 52.45-66.69-.06-19.09-10.16-40.77-28.19-49.17-17.73-8.26-40.13-1.06-54.42 11.04-13.54 11.48-24.98 22.12-42.62 24.53-20.11 2.75-39-4.03-57.27-11.61-16.94-7.04-33.46-13.18-52-14.32-3.573-.22-6.933.08-10.08.9-20.3 5.28-33.12 19.08-36.79 39.73-2.34 13.2 3.36 27.97 11.26 38.31Z"/><path fill="#fff" d="M747.9 36.95c-.467-.227-.453-.42.04-.58 16.68-5.333 33.36-5.32 50.04.04a.338.338 0 0 1 .239.298.341.341 0 0 1-.189.332c-16.74 8.153-33.45 8.123-50.13-.09Zm97.39 70.8c-.307-.233-.48-.403-.52-.51-3.707-9.807-9.327-18.343-16.86-25.61-4.76-14.03-10.05-26.98-20.32-38.03-.22-.233-.263-.497-.13-.79.68-1.5 1.93-1.6 3.3-.8 20.22 11.753 34.11 28.763 41.67 51.03 1.76 5.18-3.44 11.58-7.14 14.71ZM724.71 73c-12.54 7.55-20.78 21.75-26.21 35.04-3.27-3.89-6.07-9.38-4.44-14.53 7.1-22.54 20.913-39.817 41.44-51.83.34-.2.673-.187 1 .04l3.91 2.77c.36.247.413.55.16.91A186.495 186.495 0 0 0 724.71 73Zm86.79-5.04c-.43-.01-.46.12-.88-.14-9.373-5.673-19.483-9.28-30.33-10.82v-3.3c0-.4.197-.627.59-.68a74.524 74.524 0 0 0 16.4-4.23.835.835 0 0 1 .93.18c5.813 5.38 10.243 11.71 13.29 18.99ZM769.96 57c-9.573.347-18.91 2.133-28.01 5.36a108.02 108.02 0 0 1 8.22-12.58c.207-.273.473-.35.8-.23a56.543 56.543 0 0 0 18.19 3.54c.4.013.643.213.73.6a7.821 7.821 0 0 1 .07 3.31Z"/><path fill="#E30002" d="M523.327 187.218c-4.648.358-9.387-1.055-13.945-4.158-4.559-3.103-8.848-7.835-12.623-13.926-3.775-6.091-6.962-13.422-9.378-21.574-2.417-8.152-4.016-16.965-4.706-25.937-1.394-18.119.998-35.782 6.65-49.105s14.101-21.213 23.488-21.936c9.387-.722 18.944 5.783 26.568 18.084 7.623 12.301 12.69 29.391 14.084 47.51 1.394 18.119-.998 35.783-6.65 49.106s-14.101 21.213-23.488 21.936Zm-9.977-13.808c10.04 8.72 19.09-.76 23.1-9.75a.498.498 0 0 0 .043-.215.499.499 0 0 0-.187-.386.498.498 0 0 0-.196-.099c-10.45-2.71-17.12-9.95-20-20.3-3.42-12.25 1-23.64 9.88-32.82.253-.26.217-.47-.11-.63-7.06-3.46-11.79-6.35-13.42-14.69-2.08-10.72 1.17-22.91 11.13-28.65.293-.173.317-.38.07-.62-7.03-6.91-14.47-4.87-19.84 2.1-18.36 23.82-13.73 85.85 9.53 106.06Z"/><path fill="#FFEF9B" d="M769.96 57c.247 14.14.347 28.283.3 42.43-.03 9.68.61 20.14.73 30.24a.3.3 0 0 1-.3.31c-16.36.187-32.323-2.15-47.89-7.01a1.011 1.011 0 0 1-.7-1.07c2.44-21.247 9.057-41.093 19.85-59.54 9.1-3.227 18.437-5.013 28.01-5.36Zm10.33 0c10.847 1.54 20.957 5.147 30.33 10.82.42.26.45.13.88.14 7.427 16.587 11.64 33.97 12.64 52.15a.458.458 0 0 1-.29.44 151.959 151.959 0 0 1-42.32 8.87c-.333.02-.503-.137-.51-.47L780.29 57Z"/><path fill="#fff" d="M513.35 173.41c-23.26-20.21-27.89-82.24-9.53-106.06 5.37-6.97 12.81-9.01 19.84-2.1.247.24.223.447-.07.62-9.96 5.74-13.21 17.93-11.13 28.65 1.63 8.34 6.36 11.23 13.42 14.69.327.16.363.37.11.63-8.88 9.18-13.3 20.57-9.88 32.82 2.88 10.35 9.55 17.59 20 20.3a.498.498 0 0 1 .332.271c.033.067.05.14.051.214a.498.498 0 0 1-.043.215c-4.01 8.99-13.06 18.47-23.1 9.75Z"/><path fill="#E30002" d="M391.759 197.194c-4.864.332-9.798-1.081-14.522-4.158-4.724-3.077-9.144-7.757-13.009-13.773s-7.099-13.251-9.517-21.291c-2.418-8.04-3.973-16.728-4.575-25.568-1.217-17.853 1.517-35.24 7.602-48.337 6.085-13.097 15.021-20.831 24.843-21.501 4.863-.332 9.798 1.081 14.522 4.158 4.723 3.076 9.144 7.757 13.009 13.773s7.099 13.25 9.517 21.291c2.418 8.04 3.972 16.728 4.575 25.568 1.217 17.853-1.518 35.24-7.602 48.337-6.085 13.097-15.021 20.831-24.843 21.501Zm-4.219-73.944 5.1-4.52c.28-.247.257-.457-.07-.63l-6.06-3.17c-5.24-3.82-7.863-8.773-7.87-14.86-.02-9.91 7.44-16.91 14.55-22.92.273-.227.273-.453 0-.68-16.4-13.21-27.85 12.31-30.43 24.03-5.41 24.56-2.89 64.37 17.92 82.51 8.99 7.83 18.7 2.41 23.94-6.61.207-.367.103-.57-.31-.61-9.22-.993-15.893-5.253-20.02-12.78-7.647-13.927-6.563-27.18 3.25-39.76Z"/><path fill="#fff" d="M386.51 114.93c-.893 2.927-.55 5.7 1.03 8.32-9.813 12.58-10.897 25.833-3.25 39.76 4.127 7.527 10.8 11.787 20.02 12.78.413.04.517.243.31.61-5.24 9.02-14.95 14.44-23.94 6.61-20.81-18.14-23.33-57.95-17.92-82.51 2.58-11.72 14.03-37.24 30.43-24.03.273.227.273.453 0 .68-7.11 6.01-14.57 13.01-14.55 22.92.007 6.087 2.63 11.04 7.87 14.86Zm-17.277 3.042a.27.27 0 0 0-.255-.284l-.06-.003a.268.268 0 0 0-.284.255l-.467 8.908a.263.263 0 0 0 .069.195.274.274 0 0 0 .187.089l.06.003a.272.272 0 0 0 .283-.255l.467-8.908Z"/><path fill="#FFEF9B" d="M724.71 73c-6.107 14.473-10.297 29.37-12.57 44.69-.06.373-.26.473-.6.3-5.033-2.547-9.38-5.863-13.04-9.95 5.43-13.29 13.67-27.49 26.21-35.04Zm103.2 8.63c7.533 7.267 13.153 15.803 16.86 25.61.04.107.213.277.52.51a46.583 46.583 0 0 1-10.57 7.52c-.287.153-.45.067-.49-.26a238.941 238.941 0 0 0-6.32-33.38Z"/><path fill="#fff" d="M846.75 161.96c2.553-7.807 3.48-15.753 2.78-23.84-.52-6.06-.23-12.59-1.78-18.83l8.54-7.98a.319.319 0 0 1 .15-.078.314.314 0 0 1 .305.112.31.31 0 0 1 .065.156c2.22 18.027-.123 35.367-7.03 52.02a.416.416 0 0 1-.466.256.431.431 0 0 1-.174-.076l-2.39-1.74ZM695.79 120a6.09 6.09 0 0 0-.66 1.83c-2.847 15.46-.99 30.287 5.57 44.48.193.413.113.977-.24 1.69-8.56-16.627-12.01-34.29-10.35-52.99.04-.42.21-.48.51-.18l5.17 5.17Z"/><path fill="#FFEF9B" d="m386.51 114.93 6.06 3.17c.327.173.35.383.07.63l-5.1 4.52c-1.58-2.62-1.923-5.393-1.03-8.32Zm-17.533 2.758-.059-.003a.27.27 0 0 0-.284.255l-.467 8.908a.27.27 0 0 0 .255.284l.06.003a.27.27 0 0 0 .284-.255l.467-8.908a.27.27 0 0 0-.256-.284Zm478.773 1.602c1.55 6.24 1.26 12.77 1.78 18.83.7 8.087-.227 16.033-2.78 23.84-3.433-2.253-7.243-3.66-11.43-4.22-.353-.047-.527-.247-.52-.6.16-9.81 1.3-19.23.13-29.08a1.615 1.615 0 0 1 .87-1.63 95.406 95.406 0 0 0 11.95-7.14Zm-151.96.71c4.5 3.493 9.403 6.493 14.71 9 .333.153.49.417.47.79a140.41 140.41 0 0 0 2.81 37.89c.073.347-.063.507-.41.48-3.907-.28-7.693-.027-11.36.76-.75.16-1.4-.17-1.55-.92.353-.713.433-1.277.24-1.69-6.56-14.193-8.417-29.02-5.57-44.48.12-.64.34-1.25.66-1.83Zm99.55 51.97c.22-9.35-4.37-18.8-13.56-22.53a.717.717 0 0 1-.47-.68l-.36-8.29a.707.707 0 0 1 .177-.501.688.688 0 0 1 .473-.229 157.595 157.595 0 0 0 42.87-8.53c.3-.1.453.007.46.32.293 8.573.033 17.133-.78 25.68-.033.36-.227.563-.58.61-13.52 1.78-19.38 9.49-22.91 21.6-1.45 4.95-3.45 15.03-9.47 16.11-1.113.2-1.517-.243-1.21-1.33 1.99-7.12 5.21-15.78 5.36-22.23Zm-64.43 5.53c-2.03-2.05-5.12-4-5.64-5.91-3.393-12.327-4.783-24.947-4.17-37.86.013-.327.177-.443.49-.35 16.45 5.03 31.81 6.24 48.87 7.11.36.013.54.203.54.57v5c0 .447-.227.663-.68.65-5.38-.207-10.323.297-14.83 1.51-19.41 5.23-24.95 24.58-13.32 40.56a.39.39 0 0 1-.58.52c-4.01-3.71-6.98-8.07-10.68-11.8Z"/><path fill="#E30002" d="M461.03 190.28c7.68-3.99 5.77-27.72 3.16-35.05-.127-.34-.01-.523.35-.55l13.86-.8c.32-.013.487.137.5.45.61 16.13.2 40.73-13.41 50.91-4.57 3.42-9.86 1.96-14.26-1.4-12-9.17-16.13-31.84-17.4-46.47-.08-.967.363-1.473 1.33-1.52l12.58-.57c.253-.007.373.117.36.37-.26 4.15-.88 41.82 12.93 34.63Z"/><path fill="#fff" d="m780.29 160.25 3.16 12.83c.1.387.35.597.75.63l.51.04c-.1 1.78-.433 3.53-1 5.25-3.773 11.473-5.823 23.287-6.15 35.44-.007.34.16.51.5.51l14.88.01c.433 0 .613-.213.54-.64l-1.2-7.34c-.06-.4.093-.683.46-.85 2.53-1.16 5.48-2.36 7.49-3.87 12.53-9.47 6.25-32.74 24.81-34.2 3.07-.24 8.9-.41 12.19.64 5.64 1.81 10.75 6.99 8.46 13.42-.113.32-.313.563-.6.73-13.52 8.04-30.06 18.46-38.09 32.53a.431.431 0 0 0 .129.559.4.4 0 0 0 .191.071 40.248 40.248 0 0 1 14.88 4.48c.307.167.523.087.65-.24 3.1-8.07 10.31-19 18.57-23.12.307-.153.627-.19.96-.11 6.047 1.493 9.84 5.243 11.38 11.25a.494.494 0 0 1-.198.53.48.48 0 0 1-.182.08c-7.207 1.593-13.583 4.73-19.13 9.41l-1.41-.03a1.396 1.396 0 0 0-.89.29 70.35 70.35 0 0 0-7.14 6.24c-1.34 1.34-1.12 2.63-.02 3.96-1.053 1.727-2.253 4.373-3.6 7.94-2.59 6.9-10.95 6.41-15.07 13.02-7.02 11.247-11.637 23.43-13.85 36.55-.107.613-.017.647.27.1l8.46-16.15c3.06 2.31 7.08 7.13 6.53 11.07-.06.413.11.557.51.43l.67-.21c-.93 7.64-6.95 12.67-13.69 15.39-13.013 5.247-25.483 4.92-37.41-.98-7.83-3.87-15.09-11.86-11.66-21.14.127-.34.32-.38.58-.12a88.444 88.444 0 0 0 20.44 15.36c.453.253.517.18.19-.22l-2.93-3.58c-1.333-3.227-2.66-6.45-3.98-9.67-.1-.233-.34-.323-.72-.27-.353.04-.45.22-.29.54.747 1.48.82 2.96.22 4.44-9.75-10.64-15.29-21.64-18.82-35.53-2.273-8.947-5.67-17.917-10.19-26.91-5.313-10.567-13.24-17.82-23.78-21.76-4.09-1.53-8.74-1.89-13.23-2.39-5.37-.6-7.12-6.4-3.18-9.93 5.23-4.67 15.41-6.91 21.96-6.16 4.653.533 8.623 2.8 11.91 6.8 6.75 8.22 12.64 15.71 24.3 17.11.433.053.653.297.66.73l.13 13.36c.007.507.26.727.76.66l12.79-1.66c.307-.04.443-.213.41-.52-1.173-11.753-5.38-22.453-12.62-32.1-4.81-6.42-6.7-15.53.65-21.28 7.67-6 20.68-6.18 29.08-1.42Zm-76.69 31.24.06-.39c.027-.2-.053-.337-.24-.41-.433-.173-.823-.23-1.17-.17-.327.053-.437.24-.33.56.193.567.537.877 1.03.93.38.033.597-.14.65-.52Z"/><path fill="#FFEF9B" d="M780.29 160.25c3.887 3.64 5.36 8.14 4.42 13.5l-.51-.04c-.4-.033-.65-.243-.75-.63l-3.16-12.83Z"/><path fill="#E30002" d="M565.87 187.89a.382.382 0 0 1-.211-.262.393.393 0 0 1 .071-.328l9.21-12.08c.273-.367.58-.397.92-.09 4.353 3.933 8.937 8.923 13.75 14.97 12.26 15.42 22.63 31.15 29.57 48.51.167.413.033.677-.4.79l-14.04 3.58a.365.365 0 0 1-.303-.055.36.36 0 0 1-.157-.265c-2.04-21.67-19.2-44.93-38.41-54.77Zm-270.01 42.13c5.13-13.96 26.26-33.24 39.53-39.59.433-.207.75-.093.95.34l5.19 11.14c.187.4.06.633-.38.7-13.61 2.12-30.26 19.22-34.88 32.1-.147.413-.42.53-.82.35l-9.21-4.13c-.407-.187-.533-.49-.38-.91Z"/><path fill="#FFEF9B" d="M703.6 191.49c-.053.38-.27.553-.65.52-.493-.053-.837-.363-1.03-.93-.107-.32.003-.507.33-.56.347-.06.737-.003 1.17.17.187.073.267.21.24.41l-.06.39Z"/><path fill="#E30002" d="M321.26 290.38c-7.9-10.34-13.6-25.11-11.26-38.31 3.67-20.65 16.49-34.45 36.79-39.73 3.147-.82 6.507-1.12 10.08-.9 18.54 1.14 35.06 7.28 52 14.32 18.27 7.58 37.16 14.36 57.27 11.61 17.64-2.41 29.08-13.05 42.62-24.53 14.29-12.1 36.69-19.3 54.42-11.04 18.03 8.4 28.13 30.08 28.19 49.17.1 31.79-26.13 54.19-52.45 66.69-14 6.65-34.03 13.34-51.65 15.29-17.87 1.97-35.16 3.48-47.28 2.88-29.153-1.44-56.837-8.04-83.05-19.8-12.81-5.75-27.3-14.7-35.68-25.65Zm214.94-79.3 44.35 37.39a.27.27 0 0 0 .44-.22c-.453-10.053-3.753-18.997-9.9-26.83-9.51-12.14-20.15-14.56-34.95-11.65a.72.72 0 0 0-.58.72c.007.28.117.433.33.46.113.007.217.05.31.13Zm41.6 48.43c-17.3-14.5-34.873-29.28-52.72-44.34-.507-.427-1.043-.47-1.61-.13a76.257 76.257 0 0 0-14.53 11.3c-.273.267-.307.56-.1.88l44.34 69.33c.18.273.407.32.68.14 12.213-8.127 20.807-19.21 25.78-33.25.92-2.59-.31-2.65-1.84-3.93Zm-209.53-36.47c-6.29-1.06-14.04-2.22-20.01-.43-9.27 2.79-16.41 6.57-21.7 14.88-10.37 16.28-8.01 31.97 2.96 47.01.393.54.763.527 1.11-.04l37.82-61c.147-.233.087-.373-.18-.42Zm-29.73 70.21a137.465 137.465 0 0 0 40.21 20.35c.347.107.577-.01.69-.35l25.14-77.66c.14-.44-.007-.743-.44-.91l-24.15-9.02a.813.813 0 0 0-.97.33l-40.79 65.68c-.387.62-.283 1.147.31 1.58Zm163.05 26.9c14.01-3.8 30.57-9.37 42.92-17.02.333-.213.393-.487.18-.82l-43.78-68.47c-.2-.313-.453-.363-.76-.15a104.311 104.311 0 0 1-21.46 11.37c-.327.127-.44.357-.34.69l22.45 73.96a.673.673 0 0 0 .311.383.632.632 0 0 0 .479.057Zm-112.09-3.12a222.257 222.257 0 0 0 39.55 7.86.627.627 0 0 0 .481-.144.642.642 0 0 0 .229-.446l6.45-77.65a.549.549 0 0 0-.39-.58l-21.24-6.43c-.307-.093-.51.013-.61.32l-24.74 76.55a.42.42 0 0 0 .026.317.414.414 0 0 0 .244.203Zm63.51-68.92c-2.053-.18-4.1-.29-6.14-.33-.32-.007-.493.15-.52.47l-6.34 76.28c-.033.42.157.637.57.65 16.627.467 33.15-.583 49.57-3.15.38-.06.513-.273.4-.64l-22.16-73.14c-.107-.347-.34-.507-.7-.48-5.01.42-9.48.79-14.68.34Z"/><path fill="#fff" d="M535.89 210.95c-.213-.027-.323-.18-.33-.46a.719.719 0 0 1 .58-.72c14.8-2.91 25.44-.49 34.95 11.65 6.147 7.833 9.447 16.777 9.9 26.83a.274.274 0 0 1-.037.148.273.273 0 0 1-.262.131.27.27 0 0 1-.141-.059l-44.35-37.39a.516.516 0 0 0-.31-.13Zm41.91 48.56c1.53 1.28 2.76 1.34 1.84 3.93-4.973 14.04-13.567 25.123-25.78 33.25-.273.18-.5.133-.68-.14l-44.34-69.33c-.207-.32-.173-.613.1-.88a76.257 76.257 0 0 1 14.53-11.3c.567-.34 1.103-.297 1.61.13 17.847 15.06 35.42 29.84 52.72 44.34Z"/><path fill="#FFEF9B" d="M834.25 218.29a55.525 55.525 0 0 0-9.46 10.46c-1.1-1.33-1.32-2.62.02-3.96a70.35 70.35 0 0 1 7.14-6.24c.267-.2.563-.297.89-.29l1.41.03Z"/><path fill="#fff" d="M368.27 223.04c.267.047.327.187.18.42l-37.82 61c-.347.567-.717.58-1.11.04-10.97-15.04-13.33-30.73-2.96-47.01 5.29-8.31 12.43-12.09 21.7-14.88 5.97-1.79 13.72-.63 20.01.43Zm-29.73 70.21c-.593-.433-.697-.96-.31-1.58l40.79-65.68a.81.81 0 0 1 .97-.33l24.15 9.02c.433.167.58.47.44.91l-25.14 77.66c-.113.34-.343.457-.69.35a137.465 137.465 0 0 1-40.21-20.35Zm163.05 26.9a.632.632 0 0 1-.479-.057.673.673 0 0 1-.311-.383l-22.45-73.96c-.1-.333.013-.563.34-.69a104.311 104.311 0 0 0 21.46-11.37c.307-.213.56-.163.76.15l43.78 68.47c.213.333.153.607-.18.82-12.35 7.65-28.91 13.22-42.92 17.02Zm-112.09-3.12a.414.414 0 0 1-.244-.203.4.4 0 0 1-.026-.317l24.74-76.55c.1-.307.303-.413.61-.32l21.24 6.43a.542.542 0 0 1 .296.219.568.568 0 0 1 .094.361l-6.45 77.65a.647.647 0 0 1-.229.446.635.635 0 0 1-.481.144 222.257 222.257 0 0 1-39.55-7.86Zm63.51-68.92c5.2.45 9.67.08 14.68-.34.36-.027.593.133.7.48l22.16 73.14c.113.367-.02.58-.4.64a270.996 270.996 0 0 1-49.57 3.15c-.413-.013-.603-.23-.57-.65l6.34-76.28c.027-.32.2-.477.52-.47 2.04.04 4.087.15 6.14.33Z"/><path fill="#FFEF9B" d="m808.71 281.5-.67.21c-.4.127-.57-.017-.51-.43.55-3.94-3.47-8.76-6.53-11.07l.77-1.45c.187-.353.443-.41.77-.17 4.24 3.2 6.297 7.503 6.17 12.91Zm-44.48 4.71c-2.007-1.387-3.597-3.04-4.77-4.96.6-1.48.527-2.96-.22-4.44-.16-.32-.063-.5.29-.54.38-.053.62.037.72.27 1.32 3.22 2.647 6.443 3.98 9.67Zm-635.24 87.16c-7.52-2.76-14.44-4.3-20.61-4.12-.447.013-.623-.197-.53-.63 6.26-28.35 30.14-50.04 55.12-62.67 3.307-1.667 6.147-2.483 8.52-2.45 8.94.14 14.25 11.04 9.21 18.63-.667 1.007-1.713 1.79-3.14 2.35-21.78 8.56-40.98 25.65-47.91 48.56-.107.347-.327.457-.66.33ZM765 339.44v-22.47c0-.413.2-.57.6-.47 10.033 2.507 20.043 2.403 30.03-.31.347-.1.53.03.55.39.57 11.1.48 68.68-19.17 68.19-7.47-.19-18.46-14.31-22.82-21.49-4.82-7.927-9.717-17.673-14.69-29.24-1.073-2.5-1.547-4.59-1.42-6.27.62-7.83 10.42-22.17 17.58-8.69 3.62 6.807 6.563 13.623 8.83 20.45.34 1.007.51.977.51-.09Z"/><path fill="#fff" d="M93.31 413.56c-11.79 8.52-28.5 14.65-42.86 9.33-5.94-2.207-9.067-6.42-9.38-12.64-.02-.373.157-.573.53-.6 3.887-.26 7.683-.45 11.39-.57 22.27-.74 38.08-8.97 57.03-17.81a1.133 1.133 0 0 0 .453-1.678 1.128 1.128 0 0 0-.513-.402c-6.14-2.44-12.3-2.49-18.48-.15-.36.133-.62.027-.78-.32-2.21-4.79 5.01-7.65 8.59-8.31 13.21-2.4 30.54.66 38.96 12.22a.458.458 0 0 1-.008.542.432.432 0 0 1-.512.138c-3.207-1.267-6.433-1.387-9.68-.36a.789.789 0 0 0-.387.264.802.802 0 0 0 .267 1.216c11.35 5.63 25.14 17.38 26.33 30.91.147 1.693-.037 3.94-.55 6.74-1.51 8.26-2.49 11.46-8.17 17.96-2.06 2.36-2.17 5.13-.33 8.31 6.57 11.32 15.18 30.55 5.28 42.64-.81.99-1.81 1.22-3.06.83-9.93-3.13-11.98-18.01-13.66-26.54-1.3-6.61-1.26-11.56.66-17.64a.37.37 0 0 0-.198-.451.35.35 0 0 0-.172-.029l-18.44 1.19a.712.712 0 0 0-.648.878.717.717 0 0 0 .208.352c1.32 1.24 2 2.84 2.44 4.73 4.1 17.38 2.733 34.01-4.1 49.89-6.14 14.26-24.56 16.34-20.67-4.51 2.76-14.8 5.473-29.613 8.14-44.44a24.824 24.824 0 0 1 3.18-8.46c.187-.313.11-.53-.23-.65l-15.76-5.37c-.413-.14-.633.007-.66.44-.12 2.06.19 4.13-.39 6.05-4.653 15.3-9.443 29.13-14.37 41.49-2.45 6.13-13.41 19.27-20.48 9.59-6.78-9.29-.29-22.72 5.31-31.26 7.393-11.26 14.73-22.56 22.01-33.9.187-.287.253-.6.2-.94-.65-4.35-1.12-8.81-.63-13.2a.926.926 0 0 1 .47-.74c4.65-2.85 12.3-8.61 14.14-14.4.187-.587.03-.7-.47-.34Z"/><path fill="#FFEF9B" d="m745.98 598.92-162.77-1.05c-.333-.007-.507-.177-.52-.51-1.16-40.27-6.33-80.47-16.11-119.48-2.267-9.033-3.673-15.217-4.22-18.55-1.14-6.93-.93-23.39 10.3-22.4 10.34.92 15.51 14.55 18.6 23.43a474.448 474.448 0 0 1 22 91.39c.453 3.287.037 7.813-1.25 13.58-.107.453.067.733.52.84l13.06 3.2a.807.807 0 0 0 .848-.312.804.804 0 0 0 .132-.288c1.09-4.56 2.94-9.33 7.32-11.63 41.5-21.75 94.1-1.6 112.62 40.98.24.54.063.807-.53.8Zm-415.96-24.49 15.5-1.61a.642.642 0 0 0 .454-.26.642.642 0 0 0 .116-.51c-2.6-13.653-3.513-27.353-2.74-41.1.9-16.05 5.65-33.44 9.74-49.36 1.29-5.04 3.46-9.6 5.38-14.62.98-2.58 1.817-4.48 2.51-5.7 5.35-9.46 23.91-22.93 30.78-7.04 2.61 6.05-.69 16.76-2.61 23.25a455.65 455.65 0 0 0-17.57 95.89c-.62 8.31-.6 17.55-.86 26.37-.007.347-.183.517-.53.51-3.6-.07-7.42.48-10.69.48-52.68.047-105.357.047-158.03 0-.427 0-.55-.193-.37-.58 18.82-40.05 75.12-59.25 115.73-45.29 8.22 2.82 12.26 10.1 12.24 18.71a.847.847 0 0 0 .283.642.856.856 0 0 0 .667.218Z"/></g><defs><clipPath id="a"><path fill="#fff" d="M0 0h900v609H0z"/></clipPath></defs></svg>