<svg xmlns="http://www.w3.org/2000/svg" width="900" height="643" fill="none"><path stroke="#E30002" stroke-width="2" d="M310.611 28.67a9.867 9.867 0 0 0 3.869 1.04c1.353.081 2.717-.114 4.015-.572a10.76 10.76 0 0 0 3.55-2.1 11.138 11.138 0 0 0 2.544-3.307c1.28-2.535 1.545-5.453.734-8.113-.81-2.659-2.628-4.841-5.054-6.067a9.867 9.867 0 0 0-3.869-1.04 10.235 10.235 0 0 0-4.015.572 10.758 10.758 0 0 0-3.55 2.1 11.136 11.136 0 0 0-2.544 3.306c-1.28 2.535-1.545 5.453-.734 8.113.81 2.659 2.628 4.841 5.054 6.067M271.78 18.67a10.02 10.02 0 1 0-20.042.001 10.02 10.02 0 0 0 20.042-.001ZM297.97 19.91a10.203 10.203 0 0 0-10.2-10.2 10.198 10.198 0 0 0-10.2 10.2 10.2 10.2 0 0 0 20.4 0ZM245.96 114.21c20.11-8.91 41.67-10.83 63.33-6.54.513.107.823-.097.93-.61 8.86-43.09 49.9-68.62 92.59-57.66 30.85 7.92 53.14 33.21 58.41 64.41a.56.56 0 0 0 .276.383.538.538 0 0 0 .464.027c13.6-5.613 27.123-5.463 40.57.45.12.053.197.02.23-.1 23.01-82.99 144.82-74.6 153.02 12.69.04.407.23.5.57.28 18.06-11.8 43.51-11.32 63.18-4.09.387.14.587.003.6-.41l2.8-78.11c.013-.5-.23-.753-.73-.76l-472.45-6.23c-.393-.007-.597.183-.61.57l-3.55 75.45c-.013.28.11.363.37.25Z"/><path stroke="#E30002" stroke-width="2" d="M342.11 169.4c11.287 10.26 24.71 16.13 40.27 17.61.313.027.41-.103.29-.39-13.41-31.89 10.32-54.54 36.85-66.23a.625.625 0 0 0 .361-.628.622.622 0 0 0-.481-.542c-29.62-6.14-54.69-34.49-22.26-59.69.347-.267.307-.44-.12-.52-18.633-3.38-35.287-.123-49.96 9.77-35.16 23.7-35.27 73.08-4.95 100.62ZM580.17 73.93c8.6.9 6.68 14.68-4.45 10.92-.32-.107-.447.007-.38.34l2.92 14.17c.08.4.313.537.7.41 2.34-.753 4.51-.393 6.51 1.08.293.22.527.167.7-.16l2.09-3.99c.167-.32.13-.62-.11-.9-4.33-4.86-.22-10.01 5.45-10.12a.722.722 0 0 0 .67-.42l6.94-13.36c.167-.32.083-.543-.25-.67l-1.92-.76c-.373-.153-.59-.03-.65.37-1.25 8.56-12.9 6.45-11.22-2.23.06-.313-.07-.497-.39-.55-2.41-.38-9.73-2.12-11.51-.02-2.027 2.407-2.517 5.093-1.47 8.06.12.353.303.39.55.11 1.527-1.767 3.467-2.527 5.82-2.28ZM561.03 69.7c-42.31 9.71-63.77 60.83-38.18 96.78.62.873 1.337.957 2.15.25l46.95-40.98c.253-.227.317-.5.19-.82a9.692 9.692 0 0 1-.59-1.94 9439.41 9439.41 0 0 1-9.83-52.83c-.073-.393-.303-.547-.69-.46Zm42 51.3c5.76 8.95-7.51 14.75-10.35 6.26-.133-.393-.383-.487-.75-.28l-3.39 1.96c-.313.173-.4.423-.26.75l1.02 2.35c.127.28.31.513.55.7 1.567 1.167 2.433 2.833 2.6 5 .2 2.527 1.093 5.06 2.68 7.6.167.273.407.387.72.34 7.06-1.08 10.11 6.9 4.67 11.24-.32.26-.397.577-.23.95l2.37 5.44a.24.24 0 0 0 .46-.07c.54-4.107 2.583-6.187 6.13-6.24 11.03-.16 5.76 17.67-4.19 10.49-.54-.387-.677-.277-.41.33l4.92 11.35c.147.34.397.567.75.68 2.02.627 3.447 1.9 4.28 3.82.167.393.423.467.77.22l5.03-3.5c.38-.26.363-.493-.05-.7-13.84-6.91 4.56-20.33 7.42-6.78.093.44.28.487.56.14l4.43-5.46c.267-.333.21-.59-.17-.77-10.17-4.8-.97-16.14 5.88-10.08.36.313.637.253.83-.18l1.58-3.46c.153-.347.13-.68-.07-1-3.253-5.127-2.213-8.893 3.12-11.3.34-.153.517-.413.53-.78l.36-7.48c.013-.347-.15-.55-.49-.61-7.25-1.28-8.11-9.69-1.31-12.13a1.069 1.069 0 0 0 .68-1.21 62.214 62.214 0 0 0-6.66-17.89c-.193-.34-.457-.41-.79-.21l-18.04 10.71c-.333.193-.493.483-.48.87.18 6.61-4.96 8.79-10.33 6.05a.93.93 0 0 0-.98.04l-3.22 2.06c-.313.2-.37.46-.17.78Z"/><path stroke="#E30002" stroke-width="2" d="M430.62 403.54c-.36-4.31.09-9.83.1-12.89.1-39.88.063-79.763-.11-119.65-.02-3.76-1.11-7.14-2.28-10.59a.452.452 0 0 1 .068-.422.473.473 0 0 1 .392-.188l15.73.39a.524.524 0 0 1 .414.23.518.518 0 0 1 .056.47c-1.44 3.84-3.25 7.29-3.25 11.51 0 7.347.03 14.693.09 22.04.1 11.03-.31 27.87.31 41.83.02.393.18.467.48.22 9.18-7.4 18.1-4.83 23.58 4.78 3.25 5.68 5.1 11.76 9.03 16.55.333.407.59.363.77-.13a179.941 179.941 0 0 0 6.37-21.58c1.65-7.28 5.48-16.57 12.48-20.19 12.45-6.43 17.2 9.33 19.56 17.78 1.54 5.54 4.39 13.81 8.88 17.62.32.267.573.213.76-.16 2.98-5.87 6.31-12.57 11.28-15.62 13.51-8.3 17.01 13.79 18.89 21.08a.779.779 0 0 0 1.4.25c4.18-5.98 5.78-14.49 7.04-21.64a5780.203 5780.203 0 0 0 7.32-42.38c1.96-11.6 7.48-38.17 20.79-42.94 10.65-3.82 16.56 9.68 17.98 17.59 3.53 19.7 4.86 44.11 10.7 65.41a.598.598 0 0 0 .886.372.596.596 0 0 0 .244-.272c2.35-4.99 8.69-13.92 14.75-14.53 4.93-.49 8.1 3.95 8.65 8.53.993 8.167 1.763 13.41 2.31 15.73 2.23 9.51 9.76 8.53 17.61 9.11.427.027.563-.157.41-.55-3.39-8.99-4.54-17.27 2.54-24.55 6.63-6.83 16.94-8.26 26.11-5.9.467.12.62-.047.46-.5-2.153-6.06-1.71-11.847 1.33-17.36.187-.333.17-.657-.05-.97-32.76-46.22-19.49-111.15 24.16-144.86.2-.16.303-.367.31-.62l.33-19.9a1.026 1.026 0 0 0-.4-.86c-1.467-1.18-2.503-1.887-3.11-2.12-15.093-5.707-30.377-6.133-45.85-1.28-5.99 1.88-7.96 4.63-11.71 8.37-.24.24-.53.39-.87.45l-2.13.35c-.427.073-.677.327-.75.76-6.2 38.1-40.95 64.31-78.91 63.25-41.51-1.16-75.77-34.14-74.81-76.39.03-1.4-.6-3.41-1.74-3.98-11.18-5.633-22.32-5.857-33.42-.67-3.27 1.53-3.69 3.14-4.01 6.48-1.76 18.7-9.367 34.34-22.82 46.92-32.45 30.36-83.52 25-111.53-8.24-11.84-14.053-17.977-30.72-18.41-50-.013-.407-.207-.683-.58-.83-1.12-.447-2.6-.81-4.44-1.09-16.99-2.62-46.34-2.21-58.83 11a1.235 1.235 0 0 0-.36.84l-13.64 293.29c-.013.32.14.483.46.49l416.17 8.88a.468.468 0 0 0 .38-.76c-5.233-6.54-7.317-14.107-6.25-22.7.1-.82.67-1.98.76-2.9.04-.36-.12-.54-.48-.54l-211.18-1.43c-.253 0-.393-.13-.42-.39ZM815.3 190.69c-6.41-11.91-16.78-22.27-29.5-27.47a.362.362 0 0 0-.419.101.388.388 0 0 0-.041.439c30.13 51.09 11.8 116.01-34 150.42a.162.162 0 0 0-.054.082.164.164 0 0 0 0 .098.167.167 0 0 0 .144.12c23.78 1.12 44.75-13.24 57.63-32.42 17.75-26.44 21.79-62.47 6.24-91.37ZM184.78 267.7c-20.03 16.89-32.42 46.06-37.19 71.12-1.91 10.08 6.83 19.23 16.11 21.06 4.17.83 6.05-6.09 6.82-8.88 2.05-7.39 3.78-15.39 6.64-22.06 7.53-17.64 18-30.84 31.33-44.43 5.85-5.97 9.37-18.06.23-23.1-7.79-4.3-18.03 1.31-23.94 6.29Z"/><path stroke="#E30002" stroke-width="2" d="M443.18 393.08a71.1 71.1 0 0 0 8.07.48c66.813.153 133.647.52 200.5 1.1a1.368 1.368 0 0 0 1.08-2.23c-7.48-9.33-6.99-21.27 1.07-29.96a.382.382 0 0 0-.038-.56.377.377 0 0 0-.192-.08c-15.47-2.18-18.64-14.87-19.57-28.41a.616.616 0 0 0-.476-.555.617.617 0 0 0-.674.285c-3.25 5.5-8.44 16.29-16.63 12.22-5.87-2.91-8.89-13.71-9.9-19.61-3.2-18.88-4.99-37.91-8.5-56.74a22.858 22.858 0 0 0-3.56-8.68.38.38 0 0 0-.289-.169.4.4 0 0 0-.321.119c-6.83 6.88-9.73 17.56-11.64 26.79-3.4 16.52-5.5 32.19-8.6 48.22-2.34 12.1-4.89 28.3-16.04 33.64-11.3 5.42-15.84-16.7-17.38-23.06a.449.449 0 0 0-.83-.1c-1.9 3.56-3.887 7.06-5.96 10.5-9.83 16.29-22.57-.95-26.13-10.51-2.31-6.23-3.84-13.63-6.87-19.45a1.093 1.093 0 0 0-1.86-.13c-5.35 7.51-6.81 16.83-9.06 25.48-1.49 5.71-4.4 14.09-9.23 17.04-8.35 5.1-17.64-8.49-19.87-14.72-1.18-3.31-3.93-10.02-7.06-10.94a1.26 1.26 0 0 0-.92.07c-4.3 1.97-6.37 5.42-9.24 9.7-1.56 2.33-1.45 4.28-1.39 6.93.207 9.887.25 19.77.13 29.65-.02 1.44-.84 3.41 1.38 3.68ZM59.57 354.06a.446.446 0 0 1 .7-.04l6.59 7.27a.45.45 0 0 1 .03.57l-5.76 7.7a.45.45 0 0 0 .03.58l4.37 4.64a.445.445 0 0 0 .354.141.443.443 0 0 0 .336-.181l5.57-7.56a.454.454 0 0 1 .549-.143c.062.028.117.07.161.123l6.52 7.58a.448.448 0 0 1 .02.57l-5.42 7.13a.45.45 0 0 0 .04.59l4.72 4.72a.445.445 0 0 0 .39.124.454.454 0 0 0 .33-.244l10.41-21.12a.45.45 0 0 0-.09-.52l-53.76-54.22a.45.45 0 0 0-.67.03l-13.94 16.53a.451.451 0 0 0 .02.61l3.73 3.73a.442.442 0 0 0 .337.129.443.443 0 0 0 .323-.159l6.92-8.05a.448.448 0 0 1 .515-.126c.059.024.111.06.155.106l6.69 7.09a.45.45 0 0 1 .01.61l-7.07 7.93a.45.45 0 0 0 .02.62l6.35 6.36a.45.45 0 0 0 .67-.03l6.22-7.79a.455.455 0 0 1 .333-.17.451.451 0 0 1 .347.14l6.73 7.15a.449.449 0 0 1 .02.6l-6.44 7.78a.45.45 0 0 0 .03.6l6.11 6.41a.445.445 0 0 0 .354.141.443.443 0 0 0 .336-.181l5.81-7.77ZM712.66 328.33c.507.367.863.257 1.07-.33l1.94-5.4a.9.9 0 0 0-.29-1l-11.89-9.35a.531.531 0 0 0-.85.52c1.333 6.5 4.673 11.687 10.02 15.56Zm-22.34 27.99-4.94 12.87c-.133.353-.347.417-.64.19-5.247-4.007-11.11-4.903-17.59-2.69-10.16 3.47-11.95 14.16-3.69 21.08 4.007 3.36 8.063 5.4 12.17 6.12.333.06.437.247.31.56l-4.04 10.38c-.16.407-.423.49-.79.25-8.7-5.65-19.39-2.52-18.55 9.18.78 11.02 10.76 16.98 19.71 21.92a272.175 272.175 0 0 0 44.96 19.79c8.207 2.753 13.383 4.35 15.53 4.79 16.31 3.29 33.14-1.61 38.82-18.72.5-1.47.38-3.03.71-4.64a.541.541 0 0 1 .99-.16c1.733 2.987 2.137 6.133 1.21 9.44-.127.44.037.693.49.76 5.573.8 9.503-1.52 11.79-6.96 6.19-14.77 7.4-29.33 7.48-44.71.04-8.08-.37-19.14-7.97-24.18a.858.858 0 0 0-.829-.057.856.856 0 0 0-.481.677c-.48 4.69-2.21 19.04-8.82 18.81-.3-.013-.41-.163-.33-.45 5.6-20.37 1.72-45.18-18.18-56.48-.327-.18-.557-.097-.69.25l-3.72 9.9c-.147.4-.053.73.28.99 4.413 3.413 6.273 8.007 5.58 13.78-.033.327-.2.427-.5.3a5122.536 5122.536 0 0 0-60.18-24.95c-6.82-2.77-15.78-6.39-22.58-1.24-8.38 6.33.08 18.16 6.47 21.63 1.753.953 4.257 1.253 7.51.9.533-.06.703.163.51.67ZM785.55 359.55c9.527 3.14 15.43 9.54 17.71 19.2 1.98 8.4 2.393 18.113 1.24 29.14-.04.34.033.65.22.93 5.74 8.8 17.75 5.87 21.88-2.42 4.01-8.05-.44-23.78-4.23-31.26-7.847-15.493-18.753-29.067-32.72-40.72-6.18-5.16-10.07 2.63-8.37 7.78a91.772 91.772 0 0 1 3.92 16.93.473.473 0 0 0 .35.42ZM130.12 368.88c-6.1-3.08-10.613-7.697-13.54-13.85-.16-.34-.423-.483-.79-.43-5.02.687-8.973 3.543-11.86 8.57-8.79 15.29-31.11 51.31-18.43 68.53 1.533 2.08 3.82 3.283 6.86 3.61.34.04.65-.04.93-.24 2.07-1.45 4.19-3.26 6.81-2.55 3.6.98 4.03 3.82 3.62 7.37-.97 8.51 4.52 17.31 13.82 16.82 4.89-.25 14.76-7.57 15.26 3.11.413 8.693 4.823 14.587 13.23 17.68 3.84 1.413 7.35 1.28 10.53-.4.7-.373.773-.843.22-1.41-3.75-3.85-14.41-12.81-12-18.63 5.72-13.83 21.51-23.87 22.21-39.53a1.04 1.04 0 0 1 1.94-.48c2.3 3.9 1.45 7.7 2.03 12.06a1.457 1.457 0 0 0 .841 1.138 1.477 1.477 0 0 0 1.419-.098c2.733-1.773 5.773-2.583 9.12-2.43a.29.29 0 0 1 .1.55c-4.27 1.8-10.52 6.09-5.47 11.29a477.188 477.188 0 0 0 11.48 11.45c.253.247.5.24.74-.02 12.85-13.63 16.01-34.67 5.94-50.83-2.267-3.64-4.97-7.5-8.11-11.58a.837.837 0 0 0-.86-.34c-7.647 1.347-14.53-.29-20.65-4.91-.693-.52-.61-.72.25-.6 1.42.21 2.22.68 3.58.62 4.953-.24 9.077-1.713 12.37-4.42 7.63-6.26 2.15-13.91-1.7-20.25-.213-.353-.4-.34-.56.04-5.9 13.8-18.72 14.29-29.47 6.67-9.28-6.58-14.63-17.32-12.9-28.76.053-.36-.1-.523-.46-.49-19.14 1.76-13.99 22.5-6.22 32.39.427.54.333.657-.28.35Z"/><path stroke="#E30002" stroke-width="2" d="m273.62 539.76-1.94-13.06c-.033-.253.077-.38.33-.38 5.147-.013 8.497-2.473 10.05-7.38 1.28-4-5.37-13.76-7.93-16.55-5.31-5.79-11.36-4.86-17.01-.13-12.01 10.05-17.1 29.58-19.91 45.35a1413.104 1413.104 0 0 0-8.63 54.47.907.907 0 0 0 .3.84l30.88 28.83c.273.253.593.383.96.39 16.773.173 33.537.36 50.29.56 4.413.047 7.973-.333 10.68-1.14 12.65-3.78 22.34-14.03 9.33-25.83-14.31-12.99-55.34-23.11-66.7-1.14a.837.837 0 0 1-1.08.39l-13.48-5.82a.505.505 0 0 1-.286-.352.496.496 0 0 1 .116-.438c6.77-7.62 14.5-11.59 25.43-16.54 2.92-1.32 4.63-4.44 2.72-7.17-2.65-3.79-10.08-1.99-13.57-.39-.34.153-.507.043-.5-.33l.3-14.14c.007-.44.223-.607.65-.5 3.58.927 7.477 1.19 11.69.79 29.4-2.793 59.147-5.607 89.24-8.44a1.082 1.082 0 0 0 .94-.8 5296.388 5296.388 0 0 0 19.09-76.69c2.03-8.39 3.76-16.56.38-24.87-3.51-8.64-10.53-8.22-16.55-2.25-7.3 7.23-8.6 14.04-11.33 25.79a12932.69 12932.69 0 0 0-12.01 52.24c-.81 3.56-2.46 7.04-6.12 7.41-19.28 1.92-44.22 3.49-65.91 7.59-.247.04-.387-.063-.42-.31Zm339.34 42.07a57.606 57.606 0 0 0-2.85-11.24c-10.92-30.027-21.91-60.03-32.97-90.01a207.966 207.966 0 0 0-4.52-11.23c-4.71-10.76-18.01-26.02-31.04-18.02-7.17 4.4-4.57 14.49-2.08 21.17 17.973 48.247 35.94 96.507 53.9 144.78.107.287.313.41.62.37l124.34-16.58c.42-.053.587-.29.5-.71-9.21-42.66-51.7-59.97-88.31-34.17-3.35 2.37-6.55 8.58-3.31 12.24a.446.446 0 0 1 .089.425.438.438 0 0 1-.319.295l-13.23 3.23c-.473.113-.747-.07-.82-.55Zm-421.6-97.29-5.41 5.71c-.267.287-.263.567.01.84l2.91 2.9c.247.247.49.243.73-.01l11.66-12.23a2.466 2.466 0 0 0 .68-1.744 2.484 2.484 0 0 0-.74-1.726l-27.31-26.77a.821.821 0 0 0-.75-.24c-7.22 1.213-11.163 5.51-11.83 12.89-.027.34.07.637.29.89l4.06 4.64c.3.34.583.323.85-.05l4.9-6.99c.233-.333.487-.35.76-.05l6.6 7.11c.24.26.257.533.05.82l-4.86 6.81a.787.787 0 0 0 .06.99l3.99 4.45c.267.307.527.3.78-.02l5.48-6.74c.18-.22.39-.253.63-.1 3.013 1.867 5.223 4.423 6.63 7.67.153.353.097.67-.17.95ZM639.7 112.21c0-1.628-.647-3.19-1.798-4.342a6.144 6.144 0 0 0-8.684 0 6.144 6.144 0 0 0 0 8.684 6.144 6.144 0 0 0 8.684 0 6.144 6.144 0 0 0 1.798-4.342Zm-11.87 13.39a6.226 6.226 0 0 0-1.822-4.398 6.212 6.212 0 0 0-4.398-1.822c-1.65 0-3.232.655-4.398 1.822a6.216 6.216 0 0 0 0 8.796 6.216 6.216 0 0 0 8.796 0 6.212 6.212 0 0 0 1.822-4.398Zm9.5 12.14a5.957 5.957 0 0 0-1.746-4.214 5.957 5.957 0 0 0-8.428 0 5.95 5.95 0 0 0-1.292 6.495c.299.723.738 1.38 1.292 1.933a5.95 5.95 0 0 0 4.214 1.746 5.957 5.957 0 0 0 4.214-1.746 5.957 5.957 0 0 0 1.746-4.214Zm-21.72 1.21c0-1.623-.645-3.18-1.792-4.328a6.124 6.124 0 0 0-8.655 0 6.121 6.121 0 1 0 10.447 4.328Zm12.09 12.46a6.133 6.133 0 0 0-1.795-4.335 6.133 6.133 0 0 0-8.67 0 6.133 6.133 0 0 0 0 8.67 6.133 6.133 0 0 0 8.67 0 6.133 6.133 0 0 0 1.795-4.335ZM368.16 232.68c-.49-5.91-1.83-14.95.99-20.25a.464.464 0 0 0-.007-.453.456.456 0 0 0-.393-.227h-16.71a.461.461 0 0 0-.423.264.484.484 0 0 0 .053.506c3.33 4.36 2.65 14.21 2.38 19.47-.013.32-.18.463-.5.43l-8.03-.8c-.367-.033-.517-.233-.45-.6l1.73-9.3c.093-.52-.123-.777-.65-.77l-12.98.17c-.34.007-.477.177-.41.51l1.65 8.71c.087.427-.09.627-.53.6l-8.9-.52c-.313-.013-.48-.177-.5-.49a323.56 323.56 0 0 1-.46-24.13c.05-2.74.97-4.98 1.78-7.6.14-.467-.033-.7-.52-.7h-14.03c-.38 0-.517.183-.41.55 2.76 9.61 2.09 21.2 1.85 31.17-.007.313-.17.463-.49.45l-9.17-.4c-.393-.013-.59-.22-.59-.62.233-21.047.623-36.41 1.17-46.09.207-3.673 1.213-8.167 3.02-13.48.133-.387-.003-.58-.41-.58h-18.95c-.44 0-.597.21-.47.63 2.12 6.98 3.003 14.083 2.65 21.31-.6 12.43-.68 24.82-1.1 37.28-.013.447-.243.653-.69.62l-8.08-.57c-.407-.027-.607-.24-.6-.64.06-8.58-.78-18.85 2.29-26.92.173-.453.02-.68-.46-.68l-17.11-.08c-.353 0-.493.173-.42.52.76 3.627 1.09 6.893.99 9.8-.3 9.347-.477 18.767-.53 28.26-.007.373.177.553.55.54a256.28 256.28 0 0 1 26.3.55c37.61 2.72 75.28 4.71 112.91 7.07 1.9.12 4.793 1.017 8.68 2.69.38.167.57.043.57-.37V234a.53.53 0 0 0-.68-.51c-3.96 1.12-7.24 2.03-11.48 1.73-10.6-.76-21.203-1.403-31.81-1.93-.387-.02-.593-.223-.62-.61Zm121.46-51.03c2.51 7.63 1.55 20.07-6.05 24.77-6.49 4.02-12.51-.93-14.64-7.21-2.213-6.533-1.107-12.843 3.32-18.93.293-.4.193-.623-.3-.67l-13.62-1.44c-.4-.04-.67.133-.81.52-3.113 8.96-2.713 17.91 1.2 26.85 6.11 13.94 21.96 19.53 33.73 8.13 8.633-8.367 11.623-18.653 8.97-30.86-.073-.347-.283-.537-.63-.57l-10.84-1c-.32-.027-.43.11-.33.41Zm70.042 56.776c-2.489-4.364-5.949-8.118-10.183-11.048-4.233-2.929-9.156-4.976-14.489-6.025-5.333-1.048-10.97-1.077-16.59-.085-5.621.992-11.114 2.986-16.166 5.868s-9.565 6.595-13.28 10.927c-3.715 4.333-6.56 9.2-8.372 14.324-1.812 5.123-2.556 10.403-2.19 15.538.367 5.135 1.837 10.025 4.326 14.389 2.489 4.364 5.95 8.118 10.183 11.048 4.233 2.929 9.157 4.976 14.489 6.025 5.333 1.048 10.97 1.077 16.591.085 5.62-.992 11.113-2.986 16.165-5.868s9.565-6.595 13.28-10.927c3.715-4.333 6.56-9.2 8.372-14.324 1.812-5.123 2.556-10.404 2.19-15.538-.367-5.135-1.837-10.025-4.326-14.389ZM256.49 399.48c1.007.193 1.76.293 2.26.3 29.85.23 59.71 1.04 89.56 1.19 19.587.087 39.397.457 59.43 1.11a1.428 1.428 0 0 0 1.013-.385 1.404 1.404 0 0 0 .437-.985l3.14-139.69c.013-.5-.23-.75-.73-.75-6.99-.05-14.51-.02-20.91-.37-34.427-1.88-68.857-3.703-103.29-5.47-3.77-.19-10.4-.05-15.63-.74-3.99-.53-7.33-.47-11.09-.43-.28 0-.423.14-.43.42l-4.36 145.05a.75.75 0 0 0 .6.75Z"/><path stroke="#E30002" stroke-width="2" d="M526.95 253.55c3.75 3.23 8.63 3.27 11.72-.86 3.64-4.88 3.09-12.58 2.26-17.94a.826.826 0 0 0-.56-.69c-7.407-2.667-14.853-2.827-22.34-.48a.628.628 0 0 0-.42.63c.46 7.927 3.573 14.373 9.34 19.34Zm-26.52 13.03c5.51 4.48 11.23-.29 12.62-5.82 2.1-8.34.81-16.24-3.87-23.7-.173-.28-.4-.337-.68-.17-6.233 3.567-11.477 8.24-15.73 14.02a.935.935 0 0 0-.13.92c2.13 5.83 2.62 10.54 7.79 14.75ZM266.98 388.09a.937.937 0 0 0 .258.674.93.93 0 0 0 .662.286l129.51 1.83a.928.928 0 0 0 .94-.91l3.16-117.85a.931.931 0 0 0-.88-.96l-128.88-6.8a.918.918 0 0 0-.68.244.938.938 0 0 0-.3.656l-3.79 122.83Z"/><path stroke="#E30002" stroke-width="2" d="M324.1 363.21c5.833-3.26 7.243-7.887 4.23-13.88a.953.953 0 0 1 0-.89l3.87-7.62c.16-.307.41-.457.75-.45 2.553.087 4.853-.61 6.9-2.09a.906.906 0 0 1 .95-.1l18.16 7.92c.353.153.597.41.73.77 1.04 2.79 1.9 4.92 5.15 5.91.407.12.65.39.73.81l2.11 11.37c.067.36.007.697-.18 1.01-5 8.35 4.12 17.69 12.42 12.01 3.093-2.113 3.803-5.233 2.13-9.36-1.22-3.03-3.76-3.23-4.17-7.28a62.18 62.18 0 0 0-2.17-11.13.557.557 0 0 1 .281-.652.542.542 0 0 1 .249-.058h5.29c.353 0 .623.153.81.46.953 1.573 1.69 2.487 2.21 2.74 10.85 5.2 14.18-17.05 2.56-15.6-1.36.17-2.52 1.13-3.81 1.75-.3.147-.62.197-.96.15l-6.88-1.06a1.668 1.668 0 0 1-.8-.35c-3.127-2.487-6.523-2.91-10.19-1.27-.36.16-.723.16-1.09 0l-18.22-8.03c-.38-.16-.62-.44-.72-.84l-.68-2.61c-.093-.353.013-.63.32-.83l13-8.5c.3-.2.623-.243.97-.13 9.95 3.25 19.94-1.71 18.37-13.44a.748.748 0 0 1 .31-.74l7.8-5.73c.313-.233.663-.32 1.05-.26 6.38.95 11.59-5.26 8.89-11.19-3.35-7.35-13.31-6.47-15.17 1.49-.073.32-.243.58-.51.78a1412.1 1412.1 0 0 0-9.11 6.83c-2.53 1.91-4.89 1.77-7.86 1.6a1.79 1.79 0 0 1-1.03-.39l-10.05-7.89c-.28-.22-.477-.5-.59-.84-4.19-12.46-21.42-7.69-16.42 3.23 1.627 3.56 4.743 5.453 9.35 5.68.347.02.657.137.93.35l9 7.06c.247.193.383.447.41.76.16 1.547-.203 2.607-1.09 3.18-4.833 3.12-9.72 6.243-14.66 9.37a.943.943 0 0 1-1.02.04c-2.473-1.333-4.897-1.27-7.27.19-.333.2-.63.153-.89-.14l-14.15-15.97a1.609 1.609 0 0 1-.4-.86c-.913-6.227-4.603-9.683-11.07-10.37a1.113 1.113 0 0 1-.86-.53c-2.37-3.68-5.88-8.01-6.85-12.29-.907-3.973-3.707-5.753-8.4-5.34-6.72.59-8.09 8.85-3.97 13.03 1.35 1.38 2.99 1.9 4.84 2.47.353.113.627.327.82.64l4.42 7.19c.167.26.197.533.09.82-1.153 3.2-.657 6.153 1.49 8.86.253.313.297.657.13 1.03l-6.47 14.51c-.14.307-.37.51-.69.61-6.387 1.987-8.9 5.963-7.54 11.93 2.78 12.17 24.41 8.01 18.11-7.47a1.158 1.158 0 0 1 .01-.93l6.62-14.87a1.453 1.453 0 0 1 1.091-.838 1.427 1.427 0 0 1 1.289.458l14.55 16.24c.267.3.39.65.37 1.05a17.9 17.9 0 0 0 1.59 8.55c.153.327.15.653-.01.98l-4.94 9.99c-.16.327-.41.55-.75.67-3.11 1.15-5.43 2.85-8.74 3.22a795.268 795.268 0 0 1-17.81 1.82c-2.927.267-4.91 1.563-5.95 3.89-3.68 8.24 6.8 14.43 11.92 6.8.227-.34.543-.53.95-.57l12.37-1.24c.333-.033.64.033.92.2 2.82 1.65.1 6.99-1.14 10.37a1.324 1.324 0 0 1-.61.72c-5.26 3.02-5.8 9.48-.84 12.92 6.99 4.86 15.42-1.78 11.83-9.94a1.276 1.276 0 0 1-.04-.99l2.83-8.16c.107-.313.307-.55.6-.71Z"/><path fill="#E30002" d="M318.69 643h-59.75c-2.473-.673-4.437-1.687-5.89-3.04a50639.294 50639.294 0 0 0-34.99-32.52c-.573-.54-.763-1.52-.57-2.94 2.807-20.82 6.043-41.57 9.71-62.25 3.2-18.11 15.22-53.34 37.8-54.54 18.43-.99 28 22.59 30.04 37.02.12.853.61 1.24 1.47 1.16l37.8-3.41c.953-.087 1.537-.593 1.75-1.52 6.167-26.72 12.403-53.703 18.71-80.95.267-1.14.403-2.057.41-2.75.007-.727-.353-1.083-1.08-1.07a705.932 705.932 0 0 1-40.75-.47c-15.01-.62-29.29-.26-43.94-.87-15.413-.64-31.217-.81-47.41-.51-1.067.02-1.567-.5-1.5-1.56.39-6.04.19-12.81.45-18.38 1.567-34.807 3.237-69.603 5.01-104.39.36-7.087.653-14.083.88-20.99a1.07 1.07 0 0 0-1.47-1.03c-20.99 8.52-36.45 36.48-43.03 56.97-.107.333-.03.62.23.86 9.22 8.59 17.28 22.3 11.34 34.71-.16.333-.087.597.22.79 3.87 2.49 7.54 9.27 9 11.53 13.69 21.19 10.51 47.39-6.42 65.69-.247.267-.243.53.01.79 5.38 5.42 10.747 10.79 16.1 16.11 2.19 2.19 3.65 5.29 1.37 7.74a3898.462 3898.462 0 0 0-18.96 20.54c-2.72 2.95-6.57 5.62-10.09 1.88a2747.873 2747.873 0 0 0-19.77-20.78c-.233-.247-.493-.277-.78-.09-16.63 10.8-36.23-.25-41.75-17.65-.113-.347-.343-.48-.69-.4-14.23 3.2-26.41-6.41-28.88-20.35-.06-.353-.27-.533-.63-.54-7.093-.18-12.57-3.18-16.43-9-8.04-12.13-5.81-24.01-1.83-37.15a.827.827 0 0 0-.21-.87 18524.112 18524.112 0 0 1-60.75-62.68c-2.107-2.187-3.697-4.253-4.77-6.2a1.516 1.516 0 0 1-.18-.99c.267-1.88 1.013-3.523 2.24-4.93 6.813-7.873 13.55-15.81 20.21-23.81 2.6-3.13 5.86-2.25 8.54.42a7509.531 7509.531 0 0 1 55.25 55.83c.26.26.5.247.72-.04 5.4-6.92 9.1-11.14 18.25-11.93.353-.033.553-.227.6-.58 1.61-13.55 12.38-18.72 24.95-18.1.347.013.563-.147.65-.48 10.92-42.07 40.42-84.2 88.34-85.75.38-.013.597-.207.65-.58.267-1.7.47-4.017.61-6.95 2.427-51.58 4.803-103.163 7.13-154.75.51-11.36 1.31-22.44 1.57-34.14.13-5.64.79-11.35.85-16.83.087-7.107.493-14.197 1.22-21.27.65-6.27 8.86-4.17 12.89-4.21 21.727-.22 43.45-.017 65.17.61 31.19.9 62.43.32 93.64 1.05 27.96.66 55.9.23 83.87.91 21.89.53 43.79.56 65.68.65 12.38.05 25.51.7 37.1.69 45.69-.06 79.03 1.32 118.57 1.01 2.64-.02 9.26-.17 11.94.78 6.81 2.41 5.7 7.22 5.44 14.13-1.48 38.313-2.88 76.623-4.2 114.93-.16 4.66-.177 9.317-.05 13.97.013.393.197.51.55.35a139.356 139.356 0 0 1 7.72-3.26c43.31-16.77 85.57 8.98 98.99 51.25 14.27 44.91-2.92 99.57-45.15 123.9a.287.287 0 0 0-.125.368.293.293 0 0 0 .085.112c22.45 18.67 52.34 52.47 45.61 84.48-3.82 18.14-19.59 27.55-37.08 28.94a1.146 1.146 0 0 0-.634.263c-.179.15-.307.352-.366.577-4.14 15.33-11.63 22.49-28.11 22.51-.333 0-.613.123-.84.37-11.273 12.167-24.93 16.123-40.97 11.87-21.913-5.807-43.793-14.78-65.64-26.92a8.53 8.53 0 0 0-3.98-1.09c-23.42-.593-46.853-1.18-70.3-1.76a235.283 235.283 0 0 0-15.49.11.296.296 0 0 0-.229.127.274.274 0 0 0-.031.253l43.78 119.27c.153.4.397.47.73.21 45.21-35.19 101.57-16.02 111.36 40.79 1.06 6.12-2.29 8.17-7.88 8.92-43.347 5.82-86.687 11.66-130.02 17.52-4.19.57-6.05-.37-7.49-4.24-22.847-61.28-45.68-122.56-68.5-183.84-.14-.373-.407-.567-.8-.58l-109.03-2.23c-.367-.007-.593.167-.68.52-14.607 57.82-24.137 95.773-28.59 113.86-.327 1.347-.56 3.293-.7 5.84-.02.327-.127.623-.32.89-1.227 1.66-2.447 2.55-3.66 2.67a9732.865 9732.865 0 0 1-79.17 7.53 1.312 1.312 0 0 0-1.15.97c-.833 3.167-1.327 6.077-1.48 8.73-.013.26-.067.51-.16.75l-.4 1c-.22.56-.027.837.58.83 19.93-.22 55.42 10.31 57 34.84 1.02 15.82-15.16 24.58-29.04 26.77Zm-8.079-614.33a9.87 9.87 0 0 0 3.869 1.04c1.353.081 2.717-.114 4.015-.572a10.758 10.758 0 0 0 3.55-2.1 11.137 11.137 0 0 0 2.544-3.307c1.28-2.535 1.545-5.453.734-8.113-.81-2.659-2.628-4.841-5.054-6.067a9.867 9.867 0 0 0-3.869-1.04 10.235 10.235 0 0 0-4.015.572 10.758 10.758 0 0 0-3.55 2.1 11.136 11.136 0 0 0-2.544 3.306c-1.28 2.535-1.545 5.453-.734 8.113.81 2.659 2.628 4.841 5.054 6.067v.001Zm-38.831-10a10.02 10.02 0 1 0-20.041 0 10.02 10.02 0 0 0 20.041 0Zm26.19 1.24a10.2 10.2 0 1 0-20.4.001 10.2 10.2 0 0 0 20.4-.001Zm-52.01 94.3c20.11-8.91 41.67-10.83 63.33-6.54.513.107.823-.097.93-.61 8.86-43.09 49.9-68.62 92.59-57.66 30.85 7.92 53.14 33.21 58.41 64.41a.56.56 0 0 0 .276.383.538.538 0 0 0 .464.027c13.6-5.613 27.123-5.463 40.57.45.12.053.197.02.23-.1 23.01-82.99 144.82-74.6 153.02 12.69.04.407.23.5.57.28 18.06-11.8 43.51-11.32 63.18-4.09.387.14.587.003.6-.41l2.8-78.11c.013-.5-.23-.753-.73-.76l-472.45-6.23c-.393-.007-.597.183-.61.57l-3.55 75.45c-.013.28.11.363.37.25Zm96.15 55.19c11.287 10.26 24.71 16.13 40.27 17.61.313.027.41-.103.29-.39-13.41-31.89 10.32-54.54 36.85-66.23a.62.62 0 0 0-.12-1.17c-29.62-6.14-54.69-34.49-22.26-59.69.347-.267.307-.44-.12-.52-18.633-3.38-35.287-.123-49.96 9.77-35.16 23.7-35.27 73.08-4.95 100.62Zm238.06-95.47c8.6.9 6.68 14.68-4.45 10.92-.32-.107-.447.007-.38.34l2.92 14.17c.08.4.313.537.7.41 2.34-.753 4.51-.393 6.51 1.08.293.22.527.167.7-.16l2.09-3.99c.167-.32.13-.62-.11-.9-4.33-4.86-.22-10.01 5.45-10.12a.721.721 0 0 0 .67-.42l6.94-13.36c.167-.32.083-.543-.25-.67l-1.92-.76c-.373-.153-.59-.03-.65.37-1.25 8.56-12.9 6.45-11.22-2.23.06-.313-.07-.497-.39-.55-2.41-.38-9.73-2.12-11.51-.02-2.027 2.407-2.517 5.093-1.47 8.06.12.353.303.39.55.11 1.527-1.767 3.467-2.527 5.82-2.28Zm-19.14-4.23c-42.31 9.71-63.77 60.83-38.18 96.78.62.873 1.337.957 2.15.25l46.95-40.98c.253-.227.317-.5.19-.82a9.692 9.692 0 0 1-.59-1.94 9439.41 9439.41 0 0 1-9.83-52.83c-.073-.393-.303-.547-.69-.46Zm42 51.3c5.76 8.95-7.51 14.75-10.35 6.26-.133-.393-.383-.487-.75-.28l-3.39 1.96c-.313.173-.4.423-.26.75l1.02 2.35c.127.28.31.513.55.7 1.567 1.167 2.433 2.833 2.6 5 .2 2.527 1.093 5.06 2.68 7.6.167.273.407.387.72.34 7.06-1.08 10.11 6.9 4.67 11.24-.32.26-.397.577-.23.95l2.37 5.44a.24.24 0 0 0 .46-.07c.54-4.107 2.583-6.187 6.13-6.24 11.03-.16 5.76 17.67-4.19 10.49-.54-.387-.677-.277-.41.33l4.92 11.35c.147.34.397.567.75.68 2.02.627 3.447 1.9 4.28 3.82.167.393.423.467.77.22l5.03-3.5c.38-.26.363-.493-.05-.7-13.84-6.91 4.56-20.33 7.42-6.78.093.44.28.487.56.14l4.43-5.46c.267-.333.21-.59-.17-.77-10.17-4.8-.97-16.14 5.88-10.08.36.313.637.253.83-.18l1.58-3.46c.153-.347.13-.68-.07-1-3.253-5.127-2.213-8.893 3.12-11.3.34-.153.517-.413.53-.78l.36-7.48c.013-.347-.15-.55-.49-.61-7.25-1.28-8.11-9.69-1.31-12.13a1.069 1.069 0 0 0 .68-1.21 62.214 62.214 0 0 0-6.66-17.89c-.193-.34-.457-.41-.79-.21l-18.04 10.71c-.333.193-.493.483-.48.87.18 6.61-4.96 8.79-10.33 6.05a.93.93 0 0 0-.98.04l-3.22 2.06c-.313.2-.37.46-.17.78ZM430.62 403.54c-.36-4.31.09-9.83.1-12.89.1-39.88.063-79.763-.11-119.65-.02-3.76-1.11-7.14-2.28-10.59a.452.452 0 0 1 .068-.422.473.473 0 0 1 .392-.188l15.73.39a.524.524 0 0 1 .414.23.518.518 0 0 1 .056.47c-1.44 3.84-3.25 7.29-3.25 11.51 0 7.347.03 14.693.09 22.04.1 11.03-.31 27.87.31 41.83.02.393.18.467.48.22 9.18-7.4 18.1-4.83 23.58 4.78 3.25 5.68 5.1 11.76 9.03 16.55.333.407.59.363.77-.13a179.941 179.941 0 0 0 6.37-21.58c1.65-7.28 5.48-16.57 12.48-20.19 12.45-6.43 17.2 9.33 19.56 17.78 1.54 5.54 4.39 13.81 8.88 17.62.32.267.573.213.76-.16 2.98-5.87 6.31-12.57 11.28-15.62 13.51-8.3 17.01 13.79 18.89 21.08a.779.779 0 0 0 1.4.25c4.18-5.98 5.78-14.49 7.04-21.64a5780.203 5780.203 0 0 0 7.32-42.38c1.96-11.6 7.48-38.17 20.79-42.94 10.65-3.82 16.56 9.68 17.98 17.59 3.53 19.7 4.86 44.11 10.7 65.41a.598.598 0 0 0 .886.372.596.596 0 0 0 .244-.272c2.35-4.99 8.69-13.92 14.75-14.53 4.93-.49 8.1 3.95 8.65 8.53.993 8.167 1.763 13.41 2.31 15.73 2.23 9.51 9.76 8.53 17.61 9.11.427.027.563-.157.41-.55-3.39-8.99-4.54-17.27 2.54-24.55 6.63-6.83 16.94-8.26 26.11-5.9.467.12.62-.047.46-.5-2.153-6.06-1.71-11.847 1.33-17.36.187-.333.17-.657-.05-.97-32.76-46.22-19.49-111.15 24.16-144.86.2-.16.303-.367.31-.62l.33-19.9a1.026 1.026 0 0 0-.4-.86c-1.467-1.18-2.503-1.887-3.11-2.12-15.093-5.707-30.377-6.133-45.85-1.28-5.99 1.88-7.96 4.63-11.71 8.37-.24.24-.53.39-.87.45l-2.13.35c-.427.073-.677.327-.75.76-6.2 38.1-40.95 64.31-78.91 63.25-41.51-1.16-75.77-34.14-74.81-76.39.03-1.4-.6-3.41-1.74-3.98-11.18-5.633-22.32-5.857-33.42-.67-3.27 1.53-3.69 3.14-4.01 6.48-1.76 18.7-9.367 34.34-22.82 46.92-32.45 30.36-83.52 25-111.53-8.24-11.84-14.053-17.977-30.72-18.41-50-.013-.407-.207-.683-.58-.83-1.12-.447-2.6-.81-4.44-1.09-16.99-2.62-46.34-2.21-58.83 11a1.235 1.235 0 0 0-.36.84l-13.64 293.29c-.013.32.14.483.46.49l416.17 8.88a.468.468 0 0 0 .38-.76c-5.233-6.54-7.317-14.107-6.25-22.7.1-.82.67-1.98.76-2.9.04-.36-.12-.54-.48-.54l-211.18-1.43c-.253 0-.393-.13-.42-.39Zm265.7-140.56c4.23 20.46 17.98 40.76 38.31 48.19.313.113.613.09.9-.07 51.97-29.13 71.29-101.59 34.55-150.67-.48-.64-1.39-1.27-2.3-1.27-29.32-.03-52.67 19.11-64.62 44.74-8.807 18.9-11.087 38.593-6.84 59.08Zm118.98-72.29c-6.41-11.91-16.78-22.27-29.5-27.47a.362.362 0 0 0-.419.1.394.394 0 0 0-.041.44c30.13 51.09 11.8 116.01-34 150.42a.162.162 0 0 0-.054.082.164.164 0 0 0 0 .098.167.167 0 0 0 .144.12c23.78 1.12 44.75-13.24 57.63-32.42 17.75-26.44 21.79-62.47 6.24-91.37ZM184.78 267.7c-20.03 16.89-32.42 46.06-37.19 71.12-1.91 10.08 6.83 19.23 16.11 21.06 4.17.83 6.05-6.09 6.82-8.88 2.05-7.39 3.78-15.39 6.64-22.06 7.53-17.64 18-30.84 31.33-44.43 5.85-5.97 9.37-18.06.23-23.1-7.79-4.3-18.03 1.31-23.94 6.29Zm258.4 125.38a71.1 71.1 0 0 0 8.07.48c66.813.153 133.647.52 200.5 1.1a1.368 1.368 0 0 0 1.08-2.23c-7.48-9.33-6.99-21.27 1.07-29.96a.382.382 0 0 0-.038-.56.377.377 0 0 0-.192-.08c-15.47-2.18-18.64-14.87-19.57-28.41a.616.616 0 0 0-.476-.555.617.617 0 0 0-.674.285c-3.25 5.5-8.44 16.29-16.63 12.22-5.87-2.91-8.89-13.71-9.9-19.61-3.2-18.88-4.99-37.91-8.5-56.74a22.858 22.858 0 0 0-3.56-8.68.38.38 0 0 0-.289-.169.4.4 0 0 0-.321.119c-6.83 6.88-9.73 17.56-11.64 26.79-3.4 16.52-5.5 32.19-8.6 48.22-2.34 12.1-4.89 28.3-16.04 33.64-11.3 5.42-15.84-16.7-17.38-23.06a.449.449 0 0 0-.83-.1c-1.9 3.56-3.887 7.06-5.96 10.5-9.83 16.29-22.57-.95-26.13-10.51-2.31-6.23-3.84-13.63-6.87-19.45a1.093 1.093 0 0 0-1.86-.13c-5.35 7.51-6.81 16.83-9.06 25.48-1.49 5.71-4.4 14.09-9.23 17.04-8.35 5.1-17.64-8.49-19.87-14.72-1.18-3.31-3.93-10.02-7.06-10.94a1.26 1.26 0 0 0-.92.07c-4.3 1.97-6.37 5.42-9.24 9.7-1.56 2.33-1.45 4.28-1.39 6.93.207 9.887.25 19.77.13 29.65-.02 1.44-.84 3.41 1.38 3.68ZM59.57 354.06a.446.446 0 0 1 .7-.04l6.59 7.27a.45.45 0 0 1 .03.57l-5.76 7.7a.45.45 0 0 0 .03.58l4.37 4.64a.445.445 0 0 0 .354.142.46.46 0 0 0 .336-.182l5.57-7.56a.453.453 0 0 1 .549-.143c.062.028.117.07.161.123l6.52 7.58a.45.45 0 0 1 .02.57l-5.42 7.13a.45.45 0 0 0 .04.59l4.72 4.72a.445.445 0 0 0 .39.124.454.454 0 0 0 .33-.244l10.41-21.12a.45.45 0 0 0-.09-.52l-53.76-54.22a.45.45 0 0 0-.67.03l-13.94 16.53a.451.451 0 0 0 .02.61l3.73 3.73a.44.44 0 0 0 .337.129.443.443 0 0 0 .323-.159l6.92-8.05a.448.448 0 0 1 .67-.02l6.69 7.09a.45.45 0 0 1 .01.61l-7.07 7.93a.45.45 0 0 0 .02.62l6.35 6.36a.45.45 0 0 0 .67-.03l6.22-7.79a.439.439 0 0 1 .148-.121.451.451 0 0 1 .532.091l6.73 7.15a.449.449 0 0 1 .02.6l-6.44 7.78a.45.45 0 0 0 .03.6l6.11 6.41a.445.445 0 0 0 .354.141.443.443 0 0 0 .336-.181l5.81-7.77Zm653.09-25.73c.507.367.863.257 1.07-.33l1.94-5.4a.9.9 0 0 0-.29-1l-11.89-9.35a.531.531 0 0 0-.85.52c1.333 6.5 4.673 11.687 10.02 15.56Zm-22.34 27.99-4.94 12.87c-.133.353-.347.417-.64.19-5.247-4.007-11.11-4.903-17.59-2.69-10.16 3.47-11.95 14.16-3.69 21.08 4.007 3.36 8.063 5.4 12.17 6.12.333.06.437.247.31.56l-4.04 10.38c-.16.407-.423.49-.79.25-8.7-5.65-19.39-2.52-18.55 9.18.78 11.02 10.76 16.98 19.71 21.92a272.175 272.175 0 0 0 44.96 19.79c8.207 2.753 13.383 4.35 15.53 4.79 16.31 3.29 33.14-1.61 38.82-18.72.5-1.47.38-3.03.71-4.64a.541.541 0 0 1 .99-.16c1.733 2.987 2.137 6.133 1.21 9.44-.127.44.037.693.49.76 5.573.8 9.503-1.52 11.79-6.96 6.19-14.77 7.4-29.33 7.48-44.71.04-8.08-.37-19.14-7.97-24.18a.854.854 0 0 0-1.158.219.852.852 0 0 0-.152.401c-.48 4.69-2.21 19.04-8.82 18.81-.3-.013-.41-.163-.33-.45 5.6-20.37 1.72-45.18-18.18-56.48-.327-.18-.557-.097-.69.25l-3.72 9.9c-.147.4-.053.73.28.99 4.413 3.413 6.273 8.007 5.58 13.78-.033.327-.2.427-.5.3a5122.536 5122.536 0 0 0-60.18-24.95c-6.82-2.77-15.78-6.39-22.58-1.24-8.38 6.33.08 18.16 6.47 21.63 1.753.953 4.257 1.253 7.51.9.533-.06.703.163.51.67Zm95.23 3.23c9.527 3.14 15.43 9.54 17.71 19.2 1.98 8.4 2.393 18.113 1.24 29.14-.04.34.033.65.22.93 5.74 8.8 17.75 5.87 21.88-2.42 4.01-8.05-.44-23.78-4.23-31.26-7.847-15.493-18.753-29.067-32.72-40.72-6.18-5.16-10.07 2.63-8.37 7.78a91.772 91.772 0 0 1 3.92 16.93.473.473 0 0 0 .35.42Zm-655.43 9.33c-6.1-3.08-10.613-7.697-13.54-13.85-.16-.34-.423-.483-.79-.43-5.02.687-8.973 3.543-11.86 8.57-8.79 15.29-31.11 51.31-18.43 68.53 1.533 2.08 3.82 3.283 6.86 3.61.34.04.65-.04.93-.24 2.07-1.45 4.19-3.26 6.81-2.55 3.6.98 4.03 3.82 3.62 7.37-.97 8.51 4.52 17.31 13.82 16.82 4.89-.25 14.76-7.57 15.26 3.11.413 8.693 4.823 14.587 13.23 17.68 3.84 1.413 7.35 1.28 10.53-.4.7-.373.773-.843.22-1.41-3.75-3.85-14.41-12.81-12-18.63 5.72-13.83 21.51-23.87 22.21-39.53a1.04 1.04 0 0 1 1.94-.48c2.3 3.9 1.45 7.7 2.03 12.06a1.457 1.457 0 0 0 .841 1.138 1.477 1.477 0 0 0 1.419-.098c2.733-1.773 5.773-2.583 9.12-2.43a.293.293 0 0 1 .17.075.293.293 0 0 1 .062.345.287.287 0 0 1-.132.13c-4.27 1.8-10.52 6.09-5.47 11.29a477.188 477.188 0 0 0 11.48 11.45c.253.247.5.24.74-.02 12.85-13.63 16.01-34.67 5.94-50.83-2.267-3.64-4.97-7.5-8.11-11.58a.837.837 0 0 0-.86-.34c-7.647 1.347-14.53-.29-20.65-4.91-.693-.52-.61-.72.25-.6 1.42.21 2.22.68 3.58.62 4.953-.24 9.077-1.713 12.37-4.42 7.63-6.26 2.15-13.91-1.7-20.25-.213-.353-.4-.34-.56.04-5.9 13.8-18.72 14.29-29.47 6.67-9.28-6.58-14.63-17.32-12.9-28.76.053-.36-.1-.523-.46-.49-19.14 1.76-13.99 22.5-6.22 32.39.427.54.333.657-.28.35Zm143.5 170.88-1.94-13.06c-.033-.253.077-.38.33-.38 5.147-.013 8.497-2.473 10.05-7.38 1.28-4-5.37-13.76-7.93-16.55-5.31-5.79-11.36-4.86-17.01-.13-12.01 10.05-17.1 29.58-19.91 45.35a1413.104 1413.104 0 0 0-8.63 54.47.907.907 0 0 0 .3.84l30.88 28.83c.273.253.593.383.96.39 16.773.173 33.537.36 50.29.56 4.413.047 7.973-.333 10.68-1.14 12.65-3.78 22.34-14.03 9.33-25.83-14.31-12.99-55.34-23.11-66.7-1.14a.837.837 0 0 1-1.08.39l-13.48-5.82a.494.494 0 0 1-.286-.352.496.496 0 0 1 .116-.438c6.77-7.62 14.5-11.59 25.43-16.54 2.92-1.32 4.63-4.44 2.72-7.17-2.65-3.79-10.08-1.99-13.57-.39-.34.153-.507.043-.5-.33l.3-14.14c.007-.44.223-.607.65-.5 3.58.927 7.477 1.19 11.69.79 29.4-2.793 59.147-5.607 89.24-8.44a1.068 1.068 0 0 0 .94-.8 5296.388 5296.388 0 0 0 19.09-76.69c2.03-8.39 3.76-16.56.38-24.87-3.51-8.64-10.53-8.22-16.55-2.25-7.3 7.23-8.6 14.04-11.33 25.79a12932.69 12932.69 0 0 0-12.01 52.24c-.81 3.56-2.46 7.04-6.12 7.41-19.28 1.92-44.22 3.49-65.91 7.59-.247.04-.387-.063-.42-.31Zm339.34 42.07a57.606 57.606 0 0 0-2.85-11.24c-10.92-30.027-21.91-60.03-32.97-90.01a207.966 207.966 0 0 0-4.52-11.23c-4.71-10.76-18.01-26.02-31.04-18.02-7.17 4.4-4.57 14.49-2.08 21.17 17.973 48.247 35.94 96.507 53.9 144.78.107.287.313.41.62.37l124.34-16.58c.42-.053.587-.29.5-.71-9.21-42.66-51.7-59.97-88.31-34.17-3.35 2.37-6.55 8.58-3.31 12.24a.446.446 0 0 1 .089.425.438.438 0 0 1-.319.295l-13.23 3.23c-.473.113-.747-.07-.82-.55Zm-421.6-97.29-5.41 5.71c-.267.287-.263.567.01.84l2.91 2.9c.247.247.49.243.73-.01l11.66-12.23a2.466 2.466 0 0 0 .68-1.744 2.486 2.486 0 0 0-.74-1.726l-27.31-26.77a.821.821 0 0 0-.75-.24c-7.22 1.213-11.163 5.51-11.83 12.89-.027.34.07.637.29.89l4.06 4.64c.3.34.583.323.85-.05l4.9-6.99c.233-.333.487-.35.76-.05l6.6 7.11c.24.26.257.533.05.82l-4.86 6.81a.787.787 0 0 0 .06.99l3.99 4.45c.267.307.527.3.78-.02l5.48-6.74c.18-.22.39-.253.63-.1 3.013 1.867 5.223 4.423 6.63 7.67.153.353.097.67-.17.95Z"/><path fill="#fff" d="M306.291 14.489c-2.667 5.28-.733 11.628 4.32 14.18 5.053 2.553 11.311.342 13.978-4.938 2.667-5.28.733-11.628-4.32-14.18-5.053-2.553-11.311-.342-13.978 4.938Z"/><path fill="#FFEF9B" d="M261.76 28.69c5.534 0 10.02-4.486 10.02-10.02s-4.486-10.02-10.02-10.02-10.02 4.486-10.02 10.02 4.486 10.02 10.02 10.02Z"/><path fill="#fff" d="M287.77 30.11c5.633 0 10.2-4.567 10.2-10.2 0-5.633-4.567-10.2-10.2-10.2-5.633 0-10.2 4.567-10.2 10.2 0 5.633 4.567 10.2 10.2 10.2Z"/><path fill="#FFEF9B" d="M309.29 107.67c-21.66-4.29-43.22-2.37-63.33 6.54-.26.113-.383.03-.37-.25l3.55-75.45c.013-.387.217-.577.61-.57l472.45 6.23c.5.007.743.26.73.76l-2.8 78.11c-.013.413-.213.55-.6.41-19.67-7.23-45.12-7.71-63.18 4.09-.34.22-.53.127-.57-.28-8.2-87.29-130.01-95.68-153.02-12.69-.033.12-.11.153-.23.1-13.447-5.913-26.97-6.063-40.57-.45a.538.538 0 0 1-.644-.187.56.56 0 0 1-.096-.223c-5.27-31.2-27.56-56.49-58.41-64.41-42.69-10.96-83.73 14.57-92.59 57.66-.107.513-.417.717-.93.61Z"/><path fill="#fff" d="M342.11 169.4c-30.32-27.54-30.21-76.92 4.95-100.62 14.673-9.893 31.327-13.15 49.96-9.77.427.08.467.253.12.52-32.43 25.2-7.36 53.55 22.26 59.69a.617.617 0 0 1 .481.542.613.613 0 0 1-.361.628c-26.53 11.69-50.26 34.34-36.85 66.23.12.287.023.417-.29.39-15.56-1.48-28.983-7.35-40.27-17.61Z"/><path fill="#FFEF9B" d="M580.17 73.93c-2.353-.247-4.293.513-5.82 2.28-.247.28-.43.243-.55-.11-1.047-2.967-.557-5.653 1.47-8.06 1.78-2.1 9.1-.36 11.51.02.32.053.45.237.39.55-1.68 8.68 9.97 10.79 11.22 2.23.06-.4.277-.523.65-.37l1.92.76c.333.127.417.35.25.67l-6.94 13.36a.722.722 0 0 1-.67.42c-5.67.11-9.78 5.26-5.45 10.12.24.28.277.58.11.9l-2.09 3.99c-.173.327-.407.38-.7.16-2-1.473-4.17-1.833-6.51-1.08-.387.127-.62-.01-.7-.41l-2.92-14.17c-.067-.333.06-.447.38-.34 11.13 3.76 13.05-10.02 4.45-10.92Z"/><path fill="#fff" d="M522.85 166.48c-25.59-35.95-4.13-87.07 38.18-96.78.387-.087.617.067.69.46a9439.41 9439.41 0 0 0 9.83 52.83c.127.66.323 1.307.59 1.94.127.32.063.593-.19.82L525 166.73c-.813.707-1.53.623-2.15-.25Zm69.83-39.22c2.84 8.49 16.11 2.69 10.35-6.26-.2-.32-.143-.58.17-.78l3.22-2.06a.93.93 0 0 1 .98-.04c5.37 2.74 10.51.56 10.33-6.05-.013-.387.147-.677.48-.87l18.04-10.71c.333-.2.597-.13.79.21a62.214 62.214 0 0 1 6.66 17.89 1.069 1.069 0 0 1-.68 1.21c-6.8 2.44-5.94 10.85 1.31 12.13.34.06.503.263.49.61l-.36 7.48c-.013.367-.19.627-.53.78-5.333 2.407-6.373 6.173-3.12 11.3.2.32.223.653.07 1l-1.58 3.46c-.193.433-.47.493-.83.18-6.85-6.06-16.05 5.28-5.88 10.08.38.18.437.437.17.77l-4.43 5.46c-.28.347-.467.3-.56-.14-2.86-13.55-21.26-.13-7.42 6.78.413.207.43.44.05.7l-5.03 3.5c-.347.247-.603.173-.77-.22-.833-1.92-2.26-3.193-4.28-3.82a1.172 1.172 0 0 1-.75-.68l-4.92-11.35c-.267-.607-.13-.717.41-.33 9.95 7.18 15.22-10.65 4.19-10.49-3.547.053-5.59 2.133-6.13 6.24a.24.24 0 0 1-.356.186.24.24 0 0 1-.104-.116l-2.37-5.44c-.167-.373-.09-.69.23-.95 5.44-4.34 2.39-12.32-4.67-11.24-.313.047-.553-.067-.72-.34-1.587-2.54-2.48-5.073-2.68-7.6-.167-2.167-1.033-3.833-2.6-5a1.833 1.833 0 0 1-.55-.7l-1.02-2.35c-.14-.327-.053-.577.26-.75l3.39-1.96c.367-.207.617-.113.75.28Zm47.02-15.05c0-1.628-.647-3.19-1.798-4.342a6.144 6.144 0 0 0-8.684 0 6.144 6.144 0 0 0 0 8.684 6.144 6.144 0 0 0 8.684 0 6.144 6.144 0 0 0 1.798-4.342Zm-11.87 13.39a6.226 6.226 0 0 0-1.822-4.398 6.212 6.212 0 0 0-6.778-1.349 6.212 6.212 0 0 0-3.367 3.367 6.226 6.226 0 0 0 1.349 6.778 6.212 6.212 0 0 0 6.778 1.349 6.212 6.212 0 0 0 3.367-3.367 6.226 6.226 0 0 0 .473-2.38Zm9.5 12.14a5.95 5.95 0 0 0-1.746-4.214 5.95 5.95 0 0 0-4.214-1.746 5.957 5.957 0 0 0-4.214 1.746 5.957 5.957 0 0 0 0 8.428 5.957 5.957 0 0 0 8.428 0 5.95 5.95 0 0 0 1.746-4.214Zm-21.72 1.21c0-1.623-.645-3.18-1.792-4.328a6.124 6.124 0 0 0-8.655 0 6.121 6.121 0 1 0 10.447 4.328Zm12.09 12.46a6.133 6.133 0 0 0-1.795-4.335 6.133 6.133 0 0 0-8.67 0 6.133 6.133 0 0 0 0 8.67 6.133 6.133 0 0 0 8.67 0 6.133 6.133 0 0 0 1.795-4.335Z"/><path fill="#E30002" d="M633.56 118.35a6.14 6.14 0 1 0 0-12.28 6.14 6.14 0 0 0 0 12.28Z"/><path fill="#FFEF9B" d="m431.04 403.93 211.18 1.43c.36 0 .52.18.48.54-.09.92-.66 2.08-.76 2.9-1.067 8.593 1.017 16.16 6.25 22.7a.47.47 0 0 1-.38.76l-416.17-8.88c-.32-.007-.473-.17-.46-.49l13.64-293.29c.013-.327.133-.607.36-.84 12.49-13.21 41.84-13.62 58.83-11 1.84.28 3.32.643 4.44 1.09.373.147.567.423.58.83.433 19.28 6.57 35.947 18.41 50 28.01 33.24 79.08 38.6 111.53 8.24 13.453-12.58 21.06-28.22 22.82-46.92.32-3.34.74-4.95 4.01-6.48 11.1-5.187 22.24-4.963 33.42.67 1.14.57 1.77 2.58 1.74 3.98-.96 42.25 33.3 75.23 74.81 76.39 37.96 1.06 72.71-25.15 78.91-63.25.073-.433.323-.687.75-.76l2.13-.35c.34-.06.63-.21.87-.45 3.75-3.74 5.72-6.49 11.71-8.37 15.473-4.853 30.757-4.427 45.85 1.28.607.233 1.643.94 3.11 2.12.273.22.407.507.4.86l-.33 19.9a.788.788 0 0 1-.31.62c-43.65 33.71-56.92 98.64-24.16 144.86.22.313.237.637.05.97-3.04 5.513-3.483 11.3-1.33 17.36.16.453.007.62-.46.5-9.17-2.36-19.48-.93-26.11 5.9-7.08 7.28-5.93 15.56-2.54 24.55.153.393.017.577-.41.55-7.85-.58-15.38.4-17.61-9.11-.547-2.32-1.317-7.563-2.31-15.73-.55-4.58-3.72-9.02-8.65-8.53-6.06.61-12.4 9.54-14.75 14.53a.596.596 0 0 1-.601.353.603.603 0 0 1-.529-.453c-5.84-21.3-7.17-45.71-10.7-65.41-1.42-7.91-7.33-21.41-17.98-17.59-13.31 4.77-18.83 31.34-20.79 42.94a5780.203 5780.203 0 0 1-7.32 42.38c-1.26 7.15-2.86 15.66-7.04 21.64a.783.783 0 0 1-.781.327.773.773 0 0 1-.619-.577c-1.88-7.29-5.38-29.38-18.89-21.08-4.97 3.05-8.3 9.75-11.28 15.62-.187.373-.44.427-.76.16-4.49-3.81-7.34-12.08-8.88-17.62-2.36-8.45-7.11-24.21-19.56-17.78-7 3.62-10.83 12.91-12.48 20.19a179.941 179.941 0 0 1-6.37 21.58c-.18.493-.437.537-.77.13-3.93-4.79-5.78-10.87-9.03-16.55-5.48-9.61-14.4-12.18-23.58-4.78-.3.247-.46.173-.48-.22-.62-13.96-.21-30.8-.31-41.83-.06-7.347-.09-14.693-.09-22.04 0-4.22 1.81-7.67 3.25-11.51.029-.077.038-.16.029-.242a.518.518 0 0 0-.499-.458l-15.73-.39a.473.473 0 0 0-.479.391.452.452 0 0 0 .019.219c1.17 3.45 2.26 6.83 2.28 10.59.173 39.887.21 79.77.11 119.65-.01 3.06-.46 8.58-.1 12.89.027.26.167.39.42.39Zm-62.88-171.25c-.49-5.91-1.83-14.95.99-20.25a.464.464 0 0 0-.007-.453.456.456 0 0 0-.393-.227h-16.71a.461.461 0 0 0-.423.264.486.486 0 0 0 .053.506c3.33 4.36 2.65 14.21 2.38 19.47-.013.32-.18.463-.5.43l-8.03-.8c-.367-.033-.517-.233-.45-.6l1.73-9.3c.093-.52-.123-.777-.65-.77l-12.98.17c-.34.007-.477.177-.41.51l1.65 8.71c.087.427-.09.627-.53.6l-8.9-.52c-.313-.013-.48-.177-.5-.49a323.56 323.56 0 0 1-.46-24.13c.05-2.74.97-4.98 1.78-7.6.14-.467-.033-.7-.52-.7h-14.03c-.38 0-.517.183-.41.55 2.76 9.61 2.09 21.2 1.85 31.17-.007.313-.17.463-.49.45l-9.17-.4c-.393-.013-.59-.22-.59-.62.233-21.047.623-36.41 1.17-46.09.207-3.673 1.213-8.167 3.02-13.48.133-.387-.003-.58-.41-.58h-18.95c-.44 0-.597.21-.47.63 2.12 6.98 3.003 14.083 2.65 21.31-.6 12.43-.68 24.82-1.1 37.28-.013.447-.243.653-.69.62l-8.08-.57c-.407-.027-.607-.24-.6-.64.06-8.58-.78-18.85 2.29-26.92.173-.453.02-.68-.46-.68l-17.11-.08c-.353 0-.493.173-.42.52.76 3.627 1.09 6.893.99 9.8-.3 9.347-.477 18.767-.53 28.26-.007.373.177.553.55.54a256.28 256.28 0 0 1 26.3.55c37.61 2.72 75.28 4.71 112.91 7.07 1.9.12 4.793 1.017 8.68 2.69.38.167.57.043.57-.37V234a.53.53 0 0 0-.68-.51c-3.96 1.12-7.24 2.03-11.48 1.73-10.6-.76-21.203-1.403-31.81-1.93-.387-.02-.593-.223-.62-.61Zm121.46-51.03c2.51 7.63 1.55 20.07-6.05 24.77-6.49 4.02-12.51-.93-14.64-7.21-2.213-6.533-1.107-12.843 3.32-18.93.293-.4.193-.623-.3-.67l-13.62-1.44c-.4-.04-.67.133-.81.52-3.113 8.96-2.713 17.91 1.2 26.85 6.11 13.94 21.96 19.53 33.73 8.13 8.633-8.367 11.623-18.653 8.97-30.86-.073-.347-.283-.537-.63-.57l-10.84-1c-.32-.027-.43.11-.33.41Zm70.042 56.776c-2.489-4.364-5.949-8.118-10.183-11.048-4.233-2.929-9.157-4.976-14.489-6.025-5.333-1.048-10.97-1.077-16.591-.085-5.62.992-11.113 2.986-16.165 5.868s-9.565 6.595-13.28 10.927c-3.715 4.333-6.56 9.2-8.372 14.324-1.812 5.123-2.556 10.403-2.19 15.538.367 5.135 1.837 10.025 4.326 14.389 2.489 4.364 5.949 8.118 10.183 11.048 4.233 2.929 9.157 4.976 14.489 6.025 5.333 1.048 10.97 1.077 16.591.085 5.62-.992 11.113-2.986 16.165-5.868s9.565-6.595 13.28-10.927c3.715-4.333 6.56-9.2 8.372-14.324 1.812-5.123 2.556-10.403 2.19-15.538-.367-5.135-1.837-10.025-4.326-14.389ZM256.49 399.48c1.007.193 1.76.293 2.26.3 29.85.23 59.71 1.04 89.56 1.19 19.587.087 39.397.457 59.43 1.11a1.428 1.428 0 0 0 1.012-.385 1.392 1.392 0 0 0 .438-.985l3.14-139.69c.013-.5-.23-.75-.73-.75-6.99-.05-14.51-.02-20.91-.37-34.427-1.88-68.857-3.703-103.29-5.47-3.77-.19-10.4-.05-15.63-.74-3.99-.53-7.33-.47-11.09-.43-.28 0-.423.14-.43.42l-4.36 145.05a.754.754 0 0 0 .164.486c.11.138.265.231.436.264Z"/><path fill="#E30002" d="M621.61 131.82a6.22 6.22 0 1 0 0-12.44 6.22 6.22 0 0 0 0 12.44ZM631.37 143.7a5.96 5.96 0 1 0 0-11.92 5.96 5.96 0 1 0 0 11.92ZM609.49 145.07a6.12 6.12 0 1 0 0-12.24 6.12 6.12 0 0 0 0 12.24ZM621.57 157.54a6.13 6.13 0 1 0 0-12.26 6.13 6.13 0 0 0 0 12.26Z"/><path fill="#FFEF9B" d="M785.8 163.22c12.72 5.2 23.09 15.56 29.5 27.47 15.55 28.9 11.51 64.93-6.24 91.37-12.88 19.18-33.85 33.54-57.63 32.42a.173.173 0 0 1-.145-.12.172.172 0 0 1 .055-.18c45.8-34.41 64.13-99.33 34-150.42a.39.39 0 0 1 .041-.439.362.362 0 0 1 .419-.101Z"/><path fill="#E30002" d="M368.78 233.29c10.607.527 21.21 1.17 31.81 1.93 4.24.3 7.52-.61 11.48-1.73a.53.53 0 0 1 .68.51v14.51c0 .413-.19.537-.57.37-3.887-1.673-6.78-2.57-8.68-2.69-37.63-2.36-75.3-4.35-112.91-7.07a256.28 256.28 0 0 0-26.3-.55c-.373.013-.557-.167-.55-.54.053-9.493.23-18.913.53-28.26.1-2.907-.23-6.173-.99-9.8-.073-.347.067-.52.42-.52l17.11.08c.48 0 .633.227.46.68-3.07 8.07-2.23 18.34-2.29 26.92-.007.4.193.613.6.64l8.08.57c.447.033.677-.173.69-.62.42-12.46.5-24.85 1.1-37.28.353-7.227-.53-14.33-2.65-21.31-.127-.42.03-.63.47-.63h18.95c.407 0 .543.193.41.58-1.807 5.313-2.813 9.807-3.02 13.48-.547 9.68-.937 25.043-1.17 46.09 0 .4.197.607.59.62l9.17.4c.32.013.483-.137.49-.45.24-9.97.91-21.56-1.85-31.17-.107-.367.03-.55.41-.55h14.03c.487 0 .66.233.52.7-.81 2.62-1.73 4.86-1.78 7.6a323.56 323.56 0 0 0 .46 24.13c.02.313.187.477.5.49l8.9.52c.44.027.617-.173.53-.6l-1.65-8.71c-.067-.333.07-.503.41-.51l12.98-.17c.527-.007.743.25.65.77l-1.73 9.3c-.067.367.083.567.45.6l8.03.8c.32.033.487-.11.5-.43.27-5.26.95-15.11-2.38-19.47a.482.482 0 0 1 .12-.7.461.461 0 0 1 .25-.07h16.71a.462.462 0 0 1 .4.68c-2.82 5.3-1.48 14.34-.99 20.25.027.387.233.59.62.61Zm114.79-26.87c7.6-4.7 8.56-17.14 6.05-24.77-.1-.3.01-.437.33-.41l10.84 1c.347.033.557.223.63.57 2.653 12.207-.337 22.493-8.97 30.86-11.77 11.4-27.62 5.81-33.73-8.13-3.913-8.94-4.313-17.89-1.2-26.85.14-.387.41-.56.81-.52l13.62 1.44c.493.047.593.27.3.67-4.427 6.087-5.533 12.397-3.32 18.93 2.13 6.28 8.15 11.23 14.64 7.21Zm76.092 32.006c2.489 4.364 3.959 9.254 4.326 14.389.366 5.134-.378 10.415-2.19 15.538-1.812 5.124-4.657 9.991-8.372 14.324-3.715 4.332-8.228 8.045-13.28 10.927-5.052 2.882-10.545 4.876-16.165 5.868-5.621.992-11.258.963-16.591-.085-5.332-1.049-10.256-3.096-14.489-6.025-4.234-2.93-7.694-6.684-10.183-11.048s-3.959-9.254-4.326-14.389c-.366-5.135.378-10.415 2.19-15.538 1.812-5.124 4.657-9.991 8.372-14.324 3.715-4.332 8.228-8.045 13.28-10.927 5.052-2.882 10.545-4.876 16.165-5.868 5.621-.992 11.258-.963 16.591.085 5.332 1.049 10.256 3.096 14.489 6.025 4.234 2.93 7.694 6.684 10.183 11.048ZM526.95 253.55c3.75 3.23 8.63 3.27 11.72-.86 3.64-4.88 3.09-12.58 2.26-17.94a.826.826 0 0 0-.56-.69c-7.407-2.667-14.853-2.827-22.34-.48a.616.616 0 0 0-.315.242.633.633 0 0 0-.105.388c.46 7.927 3.573 14.373 9.34 19.34Zm-26.52 13.03c5.51 4.48 11.23-.29 12.62-5.82 2.1-8.34.81-16.24-3.87-23.7-.173-.28-.4-.337-.68-.17-6.233 3.567-11.477 8.24-15.73 14.02a.935.935 0 0 0-.13.92c2.13 5.83 2.62 10.54 7.79 14.75Z"/><path fill="#fff" d="M526.95 253.55c-5.767-4.967-8.88-11.413-9.34-19.34a.628.628 0 0 1 .42-.63c7.487-2.347 14.933-2.187 22.34.48.32.12.507.35.56.69.83 5.36 1.38 13.06-2.26 17.94-3.09 4.13-7.97 4.09-11.72.86Zm-26.52 13.03c-5.17-4.21-5.66-8.92-7.79-14.75a.935.935 0 0 1 .13-.92c4.253-5.78 9.497-10.453 15.73-14.02.28-.167.507-.11.68.17 4.68 7.46 5.97 15.36 3.87 23.7-1.39 5.53-7.11 10.3-12.62 5.82Z"/><path fill="#E30002" d="M256.49 399.48a.75.75 0 0 1-.6-.75l4.36-145.05c.007-.28.15-.42.43-.42 3.76-.04 7.1-.1 11.09.43 5.23.69 11.86.55 15.63.74 34.433 1.767 68.863 3.59 103.29 5.47 6.4.35 13.92.32 20.91.37.5 0 .743.25.73.75l-3.14 139.69a1.404 1.404 0 0 1-1.45 1.37 2112.26 2112.26 0 0 0-59.43-1.11c-29.85-.15-59.71-.96-89.56-1.19-.5-.007-1.253-.107-2.26-.3Zm10.49-11.39a.937.937 0 0 0 .258.674.93.93 0 0 0 .662.286l129.51 1.83a.928.928 0 0 0 .94-.91l3.16-117.85a.931.931 0 0 0-.88-.96l-128.88-6.8a.918.918 0 0 0-.679.244.926.926 0 0 0-.301.656l-3.79 122.83Z"/><path fill="#FFEF9B" d="M184.78 267.7c5.91-4.98 16.15-10.59 23.94-6.29 9.14 5.04 5.62 17.13-.23 23.1-13.33 13.59-23.8 26.79-31.33 44.43-2.86 6.67-4.59 14.67-6.64 22.06-.77 2.79-2.65 9.71-6.82 8.88-9.28-1.83-18.02-10.98-16.11-21.06 4.77-25.06 17.16-54.23 37.19-71.12Z"/><path fill="#fff" d="M443.18 393.08c-2.22-.27-1.4-2.24-1.38-3.68.12-9.88.077-19.763-.13-29.65-.06-2.65-.17-4.6 1.39-6.93 2.87-4.28 4.94-7.73 9.24-9.7.3-.14.607-.163.92-.07 3.13.92 5.88 7.63 7.06 10.94 2.23 6.23 11.52 19.82 19.87 14.72 4.83-2.95 7.74-11.33 9.23-17.04 2.25-8.65 3.71-17.97 9.06-25.48a1.089 1.089 0 0 1 1.86.13c3.03 5.82 4.56 13.22 6.87 19.45 3.56 9.56 16.3 26.8 26.13 10.51 2.073-3.44 4.06-6.94 5.96-10.5a.449.449 0 0 1 .83.1c1.54 6.36 6.08 28.48 17.38 23.06 11.15-5.34 13.7-21.54 16.04-33.64 3.1-16.03 5.2-31.7 8.6-48.22 1.91-9.23 4.81-19.91 11.64-26.79a.4.4 0 0 1 .321-.119.38.38 0 0 1 .289.169 22.858 22.858 0 0 1 3.56 8.68c3.51 18.83 5.3 37.86 8.5 56.74 1.01 5.9 4.03 16.7 9.9 19.61 8.19 4.07 13.38-6.72 16.63-12.22a.619.619 0 0 1 1.002-.085c.086.1.138.224.148.355.93 13.54 4.1 26.23 19.57 28.41a.377.377 0 0 1 .313.249.382.382 0 0 1-.083.391c-8.06 8.69-8.55 20.63-1.07 29.96a1.373 1.373 0 0 1 .167 1.457 1.368 1.368 0 0 1-1.247.773c-66.853-.58-133.687-.947-200.5-1.1a71.1 71.1 0 0 1-8.07-.48Z"/><path fill="#FFEF9B" d="m266.98 388.09 3.79-122.83a.92.92 0 0 1 .3-.656.939.939 0 0 1 .68-.244l128.88 6.8a.931.931 0 0 1 .88.96l-3.16 117.85a.928.928 0 0 1-.94.91l-129.51-1.83a.93.93 0 0 1-.92-.96Zm57.12-24.88c5.833-3.26 7.243-7.887 4.23-13.88a.953.953 0 0 1 0-.89l3.87-7.62c.16-.307.41-.457.75-.45 2.553.087 4.853-.61 6.9-2.09a.906.906 0 0 1 .95-.1l18.16 7.92c.353.153.597.41.73.77 1.04 2.79 1.9 4.92 5.15 5.91.407.12.65.39.73.81l2.11 11.37c.067.36.007.697-.18 1.01-5 8.35 4.12 17.69 12.42 12.01 3.093-2.113 3.803-5.233 2.13-9.36-1.22-3.03-3.76-3.23-4.17-7.28a62.18 62.18 0 0 0-2.17-11.13.557.557 0 0 1 .281-.652.542.542 0 0 1 .249-.058h5.29c.353 0 .623.153.81.46.953 1.573 1.69 2.487 2.21 2.74 10.85 5.2 14.18-17.05 2.56-15.6-1.36.17-2.52 1.13-3.81 1.75-.3.147-.62.197-.96.15l-6.88-1.06a1.668 1.668 0 0 1-.8-.35c-3.127-2.487-6.523-2.91-10.19-1.27-.36.16-.723.16-1.09 0l-18.22-8.03c-.38-.16-.62-.44-.72-.84l-.68-2.61c-.093-.353.013-.63.32-.83l13-8.5c.3-.2.623-.243.97-.13 9.95 3.25 19.94-1.71 18.37-13.44a.748.748 0 0 1 .31-.74l7.8-5.73c.313-.233.663-.32 1.05-.26 6.38.95 11.59-5.26 8.89-11.19-3.35-7.35-13.31-6.47-15.17 1.49-.073.32-.243.58-.51.78a1412.1 1412.1 0 0 0-9.11 6.83c-2.53 1.91-4.89 1.77-7.86 1.6a1.79 1.79 0 0 1-1.03-.39l-10.05-7.89c-.28-.22-.477-.5-.59-.84-4.19-12.46-21.42-7.69-16.42 3.23 1.627 3.56 4.743 5.453 9.35 5.68.347.02.657.137.93.35l9 7.06c.247.193.383.447.41.76.16 1.547-.203 2.607-1.09 3.18-4.833 3.12-9.72 6.243-14.66 9.37a.943.943 0 0 1-1.02.04c-2.473-1.333-4.897-1.27-7.27.19-.333.2-.63.153-.89-.14l-14.15-15.97a1.609 1.609 0 0 1-.4-.86c-.913-6.227-4.603-9.683-11.07-10.37a1.113 1.113 0 0 1-.86-.53c-2.37-3.68-5.88-8.01-6.85-12.29-.907-3.973-3.707-5.753-8.4-5.34-6.72.59-8.09 8.85-3.97 13.03 1.35 1.38 2.99 1.9 4.84 2.47.353.113.627.327.82.64l4.42 7.19c.167.26.197.533.09.82-1.153 3.2-.657 6.153 1.49 8.86.253.313.297.657.13 1.03l-6.47 14.51c-.14.307-.37.51-.69.61-6.387 1.987-8.9 5.963-7.54 11.93 2.78 12.17 24.41 8.01 18.11-7.47a1.158 1.158 0 0 1 .01-.93l6.62-14.87a1.453 1.453 0 0 1 1.091-.838 1.427 1.427 0 0 1 1.289.458l14.55 16.24c.267.3.39.65.37 1.05a17.9 17.9 0 0 0 1.59 8.55c.153.327.15.653-.01.98l-4.94 9.99c-.16.327-.41.55-.75.67-3.11 1.15-5.43 2.85-8.74 3.22a795.268 795.268 0 0 1-17.81 1.82c-2.927.267-4.91 1.563-5.95 3.89-3.68 8.24 6.8 14.43 11.92 6.8.227-.34.543-.53.95-.57l12.37-1.24c.333-.033.64.033.92.2 2.82 1.65.1 6.99-1.14 10.37a1.324 1.324 0 0 1-.61.72c-5.26 3.02-5.8 9.48-.84 12.92 6.99 4.86 15.42-1.78 11.83-9.94a1.276 1.276 0 0 1-.04-.99l2.83-8.16c.107-.313.307-.55.6-.71Z"/><path fill="#E30002" d="m323.5 363.92-2.83 8.16c-.12.333-.107.663.04.99 3.59 8.16-4.84 14.8-11.83 9.94-4.96-3.44-4.42-9.9.84-12.92.293-.167.497-.407.61-.72 1.24-3.38 3.96-8.72 1.14-10.37a1.468 1.468 0 0 0-.92-.2l-12.37 1.24c-.407.04-.723.23-.95.57-5.12 7.63-15.6 1.44-11.92-6.8 1.04-2.327 3.023-3.623 5.95-3.89a795.268 795.268 0 0 0 17.81-1.82c3.31-.37 5.63-2.07 8.74-3.22.34-.12.59-.343.75-.67l4.94-9.99c.16-.327.163-.653.01-.98a17.9 17.9 0 0 1-1.59-8.55c.02-.4-.103-.75-.37-1.05L307 307.4a1.426 1.426 0 0 0-1.94-.178 1.453 1.453 0 0 0-.44.558L298 322.65a1.158 1.158 0 0 0-.01.93c6.3 15.48-15.33 19.64-18.11 7.47-1.36-5.967 1.153-9.943 7.54-11.93.32-.1.55-.303.69-.61l6.47-14.51c.167-.373.123-.717-.13-1.03-2.147-2.707-2.643-5.66-1.49-8.86a.876.876 0 0 0-.09-.82l-4.42-7.19a1.456 1.456 0 0 0-.82-.64c-1.85-.57-3.49-1.09-4.84-2.47-4.12-4.18-2.75-12.44 3.97-13.03 4.693-.413 7.493 1.367 8.4 5.34.97 4.28 4.48 8.61 6.85 12.29.2.313.487.49.86.53 6.467.687 10.157 4.143 11.07 10.37.047.327.18.613.4.86l14.15 15.97c.26.293.557.34.89.14 2.373-1.46 4.797-1.523 7.27-.19a.943.943 0 0 0 1.02-.04c4.94-3.127 9.827-6.25 14.66-9.37.887-.573 1.25-1.633 1.09-3.18a1.039 1.039 0 0 0-.41-.76l-9-7.06a1.631 1.631 0 0 0-.93-.35c-4.607-.227-7.723-2.12-9.35-5.68-5-10.92 12.23-15.69 16.42-3.23.113.34.31.62.59.84l10.05 7.89c.307.24.65.37 1.03.39 2.97.17 5.33.31 7.86-1.6a1412.1 1412.1 0 0 1 9.11-6.83c.267-.2.437-.46.51-.78 1.86-7.96 11.82-8.84 15.17-1.49 2.7 5.93-2.51 12.14-8.89 11.19a1.347 1.347 0 0 0-1.05.26l-7.8 5.73a.748.748 0 0 0-.31.74c1.57 11.73-8.42 16.69-18.37 13.44a1.068 1.068 0 0 0-.97.13l-13 8.5c-.307.2-.413.477-.32.83l.68 2.61c.1.4.34.68.72.84l18.22 8.03c.367.16.73.16 1.09 0 3.667-1.64 7.063-1.217 10.19 1.27.233.187.5.303.8.35l6.88 1.06c.34.047.66-.003.96-.15 1.29-.62 2.45-1.58 3.81-1.75 11.62-1.45 8.29 20.8-2.56 15.6-.52-.253-1.257-1.167-2.21-2.74a.894.894 0 0 0-.81-.46h-5.29a.551.551 0 0 0-.53.71 62.18 62.18 0 0 1 2.17 11.13c.41 4.05 2.95 4.25 4.17 7.28 1.673 4.127.963 7.247-2.13 9.36-8.3 5.68-17.42-3.66-12.42-12.01.187-.313.247-.65.18-1.01l-2.11-11.37c-.08-.42-.323-.69-.73-.81-3.25-.99-4.11-3.12-5.15-5.91a1.299 1.299 0 0 0-.73-.77l-18.16-7.92a.906.906 0 0 0-.95.1c-2.047 1.48-4.347 2.177-6.9 2.09-.34-.007-.59.143-.75.45l-3.87 7.62a.953.953 0 0 0 0 .89c3.013 5.993 1.603 10.62-4.23 13.88-.293.16-.493.397-.6.71Z"/><path fill="#FFEF9B" d="m59.57 354.06-5.81 7.77a.445.445 0 0 1-.336.181.439.439 0 0 1-.354-.141l-6.11-6.41a.452.452 0 0 1-.03-.6l6.44-7.78a.45.45 0 0 0-.02-.6l-6.73-7.15a.446.446 0 0 0-.347-.14.442.442 0 0 0-.333.17l-6.22 7.79a.443.443 0 0 1-.328.165.45.45 0 0 1-.342-.135l-6.35-6.36a.45.45 0 0 1-.02-.62l7.07-7.93a.45.45 0 0 0-.01-.61l-6.69-7.09a.447.447 0 0 0-.522-.095.448.448 0 0 0-.148.115l-6.92 8.05a.448.448 0 0 1-.505.13.442.442 0 0 1-.155-.1l-3.73-3.73a.45.45 0 0 1-.02-.61l13.94-16.53a.444.444 0 0 1 .328-.165.45.45 0 0 1 .342.135l53.76 54.22a.45.45 0 0 1 .09.52L79.1 387.63a.454.454 0 0 1-.33.244.441.441 0 0 1-.39-.124l-4.72-4.72a.45.45 0 0 1-.04-.59l5.42-7.13a.451.451 0 0 0-.02-.57l-6.52-7.58a.443.443 0 0 0-.161-.123.441.441 0 0 0-.395.011.454.454 0 0 0-.154.132l-5.57 7.56a.445.445 0 0 1-.336.181.439.439 0 0 1-.354-.141l-4.37-4.64a.45.45 0 0 1-.03-.58l5.76-7.7a.449.449 0 0 0-.03-.57l-6.59-7.27a.456.456 0 0 0-.36-.148.446.446 0 0 0-.34.188Z"/><path fill="#fff" d="M712.66 328.33c-5.347-3.873-8.687-9.06-10.02-15.56a.53.53 0 0 1 .85-.52l11.89 9.35a.9.9 0 0 1 .29 1l-1.94 5.4c-.207.587-.563.697-1.07.33Zm-22.85 27.32c-3.253.353-5.757.053-7.51-.9-6.39-3.47-14.85-15.3-6.47-21.63 6.8-5.15 15.76-1.53 22.58 1.24a5122.536 5122.536 0 0 1 60.18 24.95c.3.127.467.027.5-.3.693-5.773-1.167-10.367-5.58-13.78-.333-.26-.427-.59-.28-.99l3.72-9.9c.133-.347.363-.43.69-.25 19.9 11.3 23.78 36.11 18.18 56.48-.08.287.03.437.33.45 6.61.23 8.34-14.12 8.82-18.81a.856.856 0 0 1 .481-.677.854.854 0 0 1 .829.057c7.6 5.04 8.01 16.1 7.97 24.18-.08 15.38-1.29 29.94-7.48 44.71-2.287 5.44-6.217 7.76-11.79 6.96-.453-.067-.617-.32-.49-.76.927-3.307.523-6.453-1.21-9.44a.547.547 0 0 0-.235-.212.547.547 0 0 0-.598.097.541.541 0 0 0-.157.275c-.33 1.61-.21 3.17-.71 4.64-5.68 17.11-22.51 22.01-38.82 18.72-2.147-.44-7.323-2.037-15.53-4.79a272.175 272.175 0 0 1-44.96-19.79c-8.95-4.94-18.93-10.9-19.71-21.92-.84-11.7 9.85-14.83 18.55-9.18.367.24.63.157.79-.25l4.04-10.38c.127-.313.023-.5-.31-.56-4.107-.72-8.163-2.76-12.17-6.12-8.26-6.92-6.47-17.61 3.69-21.08 6.48-2.213 12.343-1.317 17.59 2.69.293.227.507.163.64-.19l4.94-12.87c.193-.507.023-.73-.51-.67Z"/><path fill="#FFEF9B" d="M785.55 359.55a.473.473 0 0 1-.35-.42 91.772 91.772 0 0 0-3.92-16.93c-1.7-5.15 2.19-12.94 8.37-7.78 13.967 11.653 24.873 25.227 32.72 40.72 3.79 7.48 8.24 23.21 4.23 31.26-4.13 8.29-16.14 11.22-21.88 2.42-.187-.28-.26-.59-.22-.93 1.153-11.027.74-20.74-1.24-29.14-2.28-9.66-8.183-16.06-17.71-19.2Z"/><path fill="#fff" d="M130.4 368.53c-7.77-9.89-12.92-30.63 6.22-32.39.36-.033.513.13.46.49-1.73 11.44 3.62 22.18 12.9 28.76 10.75 7.62 23.57 7.13 29.47-6.67.16-.38.347-.393.56-.04 3.85 6.34 9.33 13.99 1.7 20.25-3.293 2.707-7.417 4.18-12.37 4.42-1.36.06-2.16-.41-3.58-.62-.86-.12-.943.08-.25.6 6.12 4.62 13.003 6.257 20.65 4.91.353-.06.64.053.86.34 3.14 4.08 5.843 7.94 8.11 11.58 10.07 16.16 6.91 37.2-5.94 50.83-.24.26-.487.267-.74.02a477.188 477.188 0 0 1-11.48-11.45c-5.05-5.2 1.2-9.49 5.47-11.29a.287.287 0 0 0 .132-.13.29.29 0 0 0-.232-.42c-3.347-.153-6.387.657-9.12 2.43a1.487 1.487 0 0 1-1.419.098 1.467 1.467 0 0 1-.841-1.138c-.58-4.36.27-8.16-2.03-12.06a1.042 1.042 0 0 0-1.151-.49 1.039 1.039 0 0 0-.789.97c-.7 15.66-16.49 25.7-22.21 39.53-2.41 5.82 8.25 14.78 12 18.63.553.567.48 1.037-.22 1.41-3.18 1.68-6.69 1.813-10.53.4-8.407-3.093-12.817-8.987-13.23-17.68-.5-10.68-10.37-3.36-15.26-3.11-9.3.49-14.79-8.31-13.82-16.82.41-3.55-.02-6.39-3.62-7.37-2.62-.71-4.74 1.1-6.81 2.55-.28.2-.59.28-.93.24-3.04-.327-5.327-1.53-6.86-3.61-12.68-17.22 9.64-53.24 18.43-68.53 2.887-5.027 6.84-7.883 11.86-8.57.367-.053.63.09.79.43 2.927 6.153 7.44 10.77 13.54 13.85.613.307.707.19.28-.35Z"/><path fill="#FFEF9B" d="M274.04 540.07c21.69-4.1 46.63-5.67 65.91-7.59 3.66-.37 5.31-3.85 6.12-7.41 3.967-17.42 7.97-34.833 12.01-52.24 2.73-11.75 4.03-18.56 11.33-25.79 6.02-5.97 13.04-6.39 16.55 2.25 3.38 8.31 1.65 16.48-.38 24.87a5296.388 5296.388 0 0 1-19.09 76.69 1.082 1.082 0 0 1-.94.8c-30.093 2.833-59.84 5.647-89.24 8.44-4.213.4-8.11.137-11.69-.79-.427-.107-.643.06-.65.5l-.3 14.14c-.007.373.16.483.5.33 3.49-1.6 10.92-3.4 13.57.39 1.91 2.73.2 5.85-2.72 7.17-10.93 4.95-18.66 8.92-25.43 16.54a.505.505 0 0 0-.015.648c.05.061.113.11.185.142l13.48 5.82a.838.838 0 0 0 1.08-.39c11.36-21.97 52.39-11.85 66.7 1.14 13.01 11.8 3.32 22.05-9.33 25.83-2.707.807-6.267 1.187-10.68 1.14-16.753-.2-33.517-.387-50.29-.56a1.409 1.409 0 0 1-.96-.39l-30.88-28.83a.907.907 0 0 1-.3-.84 1413.104 1413.104 0 0 1 8.63-54.47c2.81-15.77 7.9-35.3 19.91-45.35 5.65-4.73 11.7-5.66 17.01.13 2.56 2.79 9.21 12.55 7.93 16.55-1.553 4.907-4.903 7.367-10.05 7.38-.253 0-.363.127-.33.38l1.94 13.06c.033.247.173.35.42.31Zm339.74 42.31 13.23-3.23a.438.438 0 0 0 .331-.519.446.446 0 0 0-.101-.201c-3.24-3.66-.04-9.87 3.31-12.24 36.61-25.8 79.1-8.49 88.31 34.17.087.42-.08.657-.5.71l-124.34 16.58c-.307.04-.513-.083-.62-.37-17.96-48.273-35.927-96.533-53.9-144.78-2.49-6.68-5.09-16.77 2.08-21.17 13.03-8 26.33 7.26 31.04 18.02a207.966 207.966 0 0 1 4.52 11.23c11.06 29.98 22.05 59.983 32.97 90.01a57.606 57.606 0 0 1 2.85 11.24c.073.48.347.663.82.55Zm-427.83-92.13 5.41-5.71c.267-.28.323-.597.17-.95-1.407-3.247-3.617-5.803-6.63-7.67-.24-.153-.45-.12-.63.1l-5.48 6.74c-.253.32-.513.327-.78.02l-3.99-4.45a.787.787 0 0 1-.06-.99l4.86-6.81c.207-.287.19-.56-.05-.82l-6.6-7.11c-.273-.3-.527-.283-.76.05l-4.9 6.99c-.267.373-.55.39-.85.05l-4.06-4.64a1.165 1.165 0 0 1-.29-.89c.667-7.38 4.61-11.677 11.83-12.89a.821.821 0 0 1 .75.24l27.31 26.77c.463.457.729 1.076.74 1.726a2.466 2.466 0 0 1-.68 1.744l-11.66 12.23c-.24.253-.483.257-.73.01l-2.91-2.9c-.273-.273-.277-.553-.01-.84Z"/></svg>