<svg xmlns="http://www.w3.org/2000/svg" width="32" height="32" viewBox="0 0 32 32">
  <g fill="none" fill-rule="evenodd">
    <rect width="32" height="32" fill="#FFF"/>
    <path fill="#1D2C4D" fill-rule="nonzero" d="M9.41311755,22.0951003 L13.0653444,22.0951003 C14.4131175,22.0951003 15.5870041,21.6190577 15.5870041,19.8570869 C15.5870041,18.1191047 14.5868825,17.4286297 13.1304454,17.4286297 L9.41311755,17.4286297 L9.41311755,22.0951003 Z M9.41311755,14.8808953 L12.869433,14.8808953 C14.0654661,14.8808953 14.9566805,14.285842 14.9566805,12.8573142 C14.9566805,11.2380762 13.8261134,10.9048997 12.6085422,10.9048997 L9.41311755,10.9048997 L9.41311755,14.8808953 Z M6,8 L13.3044536,8 C16.2610124,8 18.2608907,9.04764033 18.2608907,12.2144167 C18.2608907,13.8810991 17.5001217,15.0477501 16.1523485,15.7619473 C18.0436846,16.3572672 19,17.9522499 19,20.0716526 C19,23.5236281 16.3261134,25 13.5219031,25 L6,25 L6,8 Z M19,10 L19,8 L27,8 L27,10 L19,10 Z M25.5351235,18.8468721 C24.8852217,19.7011143 24.011283,20 23.1950095,20 C20.5809861,20 19,17.9754526 19,15.5361385 C19,12.9853038 20.616832,11 23.2305956,11 C24.9575629,11 26.6920629,12.0479497 26.8897349,14.0738185 L24.9001575,14.0738185 C24.732487,13.1017133 23.8812767,12.7600164 23.1656574,12.7600164 C21.6907804,12.7600164 21.0350342,14.0738185 21.0350342,15.5778926 C21.0350342,17.0096898 21.6946767,18.2399836 23.172411,18.2399836 C24.2254493,18.2399836 25.0501648,17.704447 25.1492605,16.6598006 L23.4477491,16.6598006 L23.4477491,15.120579 L27,15.120579 L27,19.8080102 L25.6959105,19.8080102 L25.5351235,18.8468721 Z"/>
  </g>
</svg>
