<svg width="512" height="512" viewBox="0 0 512 512" fill="none" xmlns="http://www.w3.org/2000/svg">
<g id="profile-picture / framed / positive / 512px">
<rect id="Background" width="512" height="512" rx="45" fill="white"/>
<mask id="mask0_0_148" style="mask-type:luminance" maskUnits="userSpaceOnUse" x="0" y="0" width="512" height="512">
<rect id="Background_2" width="512" height="512" rx="45" fill="white"/>
</mask>
<g mask="url(#mask0_0_148)">
<g id="Symbol">
<g id="logotype-frame-horizontal / positive / 24px">
<path id="Shape" fill-rule="evenodd" clip-rule="evenodd" d="M1493.33 42.6667C1493.33 19.1025 1474.23 0 1450.67 0H42.6667C19.1025 0 0 19.1025 0 42.6667V469.333C0 492.897 19.1025 512 42.6667 512H1450.67C1474.23 512 1493.33 492.897 1493.33 469.333V42.6667ZM42.6667 21.3333H469.333L471.821 21.4769C482.431 22.7092 490.667 31.7262 490.667 42.6667V469.333L490.523 471.821C489.291 482.431 480.274 490.667 469.333 490.667H42.6667L40.1787 490.523C29.5689 489.291 21.3333 480.274 21.3333 469.333V42.6667L21.4769 40.1787C22.7092 29.5689 31.7262 21.3333 42.6667 21.3333ZM960 21.3333H533.333C522.393 21.3333 513.376 29.5689 512.144 40.1787L512 42.6667V469.333C512 480.274 520.236 489.291 530.845 490.523L533.333 490.667H960C970.941 490.667 979.958 482.431 981.19 471.821L981.333 469.333V42.6667C981.333 31.7262 973.098 22.7092 962.488 21.4769L960 21.3333ZM1024 21.3333H1450.67L1453.15 21.4769C1463.76 22.7092 1472 31.7262 1472 42.6667V469.333L1471.86 471.821C1470.62 482.431 1461.61 490.667 1450.67 490.667H1024L1021.51 490.523C1010.9 489.291 1002.67 480.274 1002.67 469.333V42.6667L1002.81 40.1787C1004.04 29.5689 1013.06 21.3333 1024 21.3333Z" fill="black"/>
<g id="favicons-positive / favicon-f-16x16">
<path id="Fill 1" fill-rule="evenodd" clip-rule="evenodd" d="M225.018 192.199C218.604 192.199 213.405 197.342 213.405 203.687C213.405 210.703 213.405 216.157 213.405 223.173C213.405 226.22 214.629 229.141 216.807 231.296C218.985 233.45 221.938 234.66 225.018 234.66C250.232 234.66 296.121 234.66 324.045 234.66C327.621 234.66 330.997 236.29 333.199 239.078C335.399 241.866 336.178 245.502 335.311 248.934C330.438 268.214 321.902 295.67 317.892 311.538C316.6 316.651 311.955 320.239 306.627 320.239H225.018C218.604 320.239 213.405 325.382 213.405 331.726C213.405 344.474 213.405 381.098 213.405 393.846C213.405 400.19 208.206 405.333 201.793 405.333C183.944 405.333 136.128 405.333 118.279 405.333C111.866 405.333 106.667 400.19 106.667 393.846L106.667 310.259C106.667 303.914 111.866 298.771 118.279 298.771H201.793C208.206 298.771 213.405 293.629 213.405 287.284C213.405 280.268 213.405 274.504 213.405 267.487C213.405 261.143 208.206 256 201.793 256C183.944 256 136.128 256 118.279 256C111.866 256 106.667 250.857 106.667 244.513L106.667 182.228C106.667 175.884 111.866 170.741 118.279 170.741H201.793C208.206 170.741 213.405 165.598 213.405 159.254C213.405 146.505 213.405 130.902 213.405 118.154C213.405 111.809 218.604 106.667 225.018 106.667C260.579 106.667 354.124 106.667 393.721 106.667C397.297 106.667 400.673 108.296 402.874 111.085C405.075 113.873 405.854 117.508 404.986 120.94C400.114 140.22 391.578 167.631 387.568 183.498C386.275 188.612 381.631 192.199 376.302 192.199C345.581 192.199 259.272 192.199 225.018 192.199Z" fill="black"/>
</g>
</g>
</g>
</g>
</g>
</svg>
