<svg xmlns="http://www.w3.org/2000/svg" width="40" height="40" viewBox="0 0 40 40">
  <g fill="none" fill-rule="evenodd">
    <rect width="40" height="40" fill="#FFF"/>
    <path fill="#1D2C4D" fill-rule="nonzero" d="M17,24.6997305 C17,26.6889488 16.478022,28.1929919 14.4450549,29.6 L12.2197802,27.9504043 C13.3736264,26.9800539 13.7582418,26.2522911 13.7857143,25.0636119 L12,25.0636119 L12,21 L17,21 L17,24.6997305 Z M12,14 L17,14 L17,18 L12,18 L12,14 Z M19,25 L19,12 L24.7011494,12 C27.3218391,12 28.4482759,12.2689655 29.2528736,12.7844828 C30.4252874,13.5465517 31,14.7793103 31,16.3931034 C31,17.8948276 30.4022989,19.1948276 29.3218391,19.9568966 C28.4022989,20.6068966 27.183908,20.9206897 25.1149425,20.9206897 L23.091954,20.9206897 L23.091954,25 L19,25 Z M24.7,18 C25.575,18 26.2,17.8790323 26.55,17.6129032 C26.875,17.3467742 27,16.9596774 27,16.5 C27,16.0645161 26.875,15.6774194 26.55,15.3870968 C26.225,15.0967742 25.7,15 24.775,15 L23,15 L23,18 L24.7,18 Z"/>
  </g>
</svg>
