<svg width="40" height="40" viewBox="0 0 40 40" fill="none" xmlns="http://www.w3.org/2000/svg">
<g clip-path="url(#clip0_447_9243)">
<path d="M40 0H0V40H40V0Z" fill="white"/>
<path d="M8.12801 23.2623L8.44831 23.0633L13.8795 23.9303L13.6706 24.1436L8.12801 23.2623ZM22.444 16.7662L22.263 16.951L28.3765 19.6944L28.3208 19.3959L22.444 16.7662ZM20.1044 15.7143L19.8538 15.8706L21.0236 16.3966L21.2046 16.2118L20.1044 15.7143ZM33 21.4286L30.4655 27.1286L15.105 24.4705L15.5088 24.0299L29.9641 26.5458L27.2485 11.1514L9.31173 30L7 22.9495L12.1109 12.0469L18.7815 15.0462L18.2801 15.3589L12.3476 12.6866L7.77986 22.4378L27.527 10L30.368 26.1052L32.3455 21.6844L29.7831 20.533L29.6856 19.936L33 21.4286ZM9.52062 29.0618L26.4826 11.2509L7.5849 23.1485L9.52062 29.0618Z" fill="#1E3590" stroke="#1E3590"/>
</g>
<defs>
<clipPath id="clip0_447_9243">
<rect width="40" height="40" fill="white"/>
</clipPath>
</defs>
</svg>
