<svg width="40" height="40" viewBox="0 0 40 40" fill="none" xmlns="http://www.w3.org/2000/svg">
<g clip-path="url(#clip0_447_9243)">
<path d="M40 0H0V40H40V0Z" fill="white"/>
<path d="M4.47509 23.9909L4.89395 23.7359L11.9963 24.8468L11.7231 25.12L4.47509 23.9909ZM23.196 15.6685L22.9593 15.9052L30.9539 19.4199L30.8811 19.0375L23.196 15.6685ZM20.1366 14.3208L19.8088 14.5212L21.3385 15.195L21.5753 14.9582L20.1366 14.3208ZM37 21.6417L33.6856 28.9443L13.5988 25.5388L14.1269 24.9743L33.03 28.1976L29.4788 8.47509L6.02303 32.6229L3 23.5903L9.68345 9.62239L18.4065 13.4649L17.7509 13.8656L9.99304 10.4419L4.01982 22.9347L29.8431 7L33.5581 27.6331L36.1441 21.9695L32.7933 20.4944L32.6658 19.7295L37 21.6417ZM6.2962 31.421L28.4772 8.60257L3.76486 23.8452L6.2962 31.421Z" fill="#1E3590" stroke="#1E3590"/>
</g>
<defs>
<clipPath id="clip0_447_9243">
<rect width="40" height="40" fill="white"/>
</clipPath>
</defs>
</svg>
