<svg width="18" height="14" viewBox="0 0 18 14" fill="none" xmlns="http://www.w3.org/2000/svg">
<g clip-path="url(#clip0_649_70771)">
<path d="M11.9002 0.699951H2.1002C1.327 0.699951 0.700195 1.32675 0.700195 2.09995V11.9C0.700195 12.6732 1.327 13.3 2.1002 13.3H11.9002C12.6734 13.3 13.3002 12.6732 13.3002 11.9V2.09995C13.3002 1.32675 12.6734 0.699951 11.9002 0.699951Z" stroke="#5D7280" stroke-linecap="round" stroke-linejoin="round"/>
<path d="M4.9 6.3C5.6732 6.3 6.3 5.6732 6.3 4.9C6.3 4.1268 5.6732 3.5 4.9 3.5C4.1268 3.5 3.5 4.1268 3.5 4.9C3.5 5.6732 4.1268 6.3 4.9 6.3Z" stroke="#5D7280" stroke-linecap="round" stroke-linejoin="round"/>
<path d="M13.2998 9.09989L11.1396 6.93969C10.8771 6.67723 10.521 6.52979 10.1498 6.52979C9.77857 6.52979 9.42254 6.67723 9.16 6.93969L2.7998 13.2999" stroke="#5D7280" stroke-linecap="round" stroke-linejoin="round"/>
</g>
<defs>
<clipPath id="clip0_649_70771">
<rect width="14" height="14" fill="white"/>
</clipPath>
</defs>
</svg>
