<svg width="19" height="14" viewBox="0 0 19 14" fill="none" xmlns="http://www.w3.org/2000/svg">
<g clip-path="url(#clip0_654_71372)">
<path d="M7.71422 13.3637C11.2288 13.3637 14.0779 10.5147 14.0779 7.00011C14.0779 3.48557 11.2288 0.636475 7.71422 0.636475C4.19968 0.636475 1.35059 3.48557 1.35059 7.00011C1.35059 10.5147 4.19968 13.3637 7.71422 13.3637Z" stroke="#5D7280" stroke-linecap="round" stroke-linejoin="round"/>
<path d="M3.89602 12.0911C5.82675 9.38147 8.85648 7.63656 12.2623 7.63656C12.822 7.6364 13.3806 7.68388 13.9321 7.77844M12.1687 2.54565C10.1769 4.8792 7.18475 6.36384 3.83875 6.36384C3.0221 6.36384 2.22686 6.27533 1.4624 6.10825" stroke="#5D7280" stroke-linecap="round" stroke-linejoin="round"/>
<path d="M4.78271 1.45117C7.71735 3.59773 9.62319 7.06319 9.62319 10.9711C9.62356 11.6875 9.5589 12.4022 9.43009 13.1066" stroke="#5D7280" stroke-linecap="round" stroke-linejoin="round"/>
</g>
<defs>
<clipPath id="clip0_654_71372">
<rect width="14" height="14" fill="white" transform="translate(0.714355)"/>
</clipPath>
</defs>
</svg>
