<svg width="18" height="14" viewBox="0 0 18 14" fill="none" xmlns="http://www.w3.org/2000/svg">
<g clip-path="url(#clip0_654_71362)">
<path d="M13.2428 5.74705C13.2428 7.92603 12.9043 8.67127 12.2385 9.29568C10.8894 10.5612 7.29963 10.4623 7.29963 10.4623C6.48162 10.4723 5.66431 10.4108 4.85702 10.2784C4.85702 10.2784 4.4649 12.8603 9.42045 11.5941L9.3703 13.0707C8.61495 13.1717 1.42784 15.8288 1.3756 6.57378L1.35645 5.74635C1.35645 3.56702 1.37386 2.79252 2.36079 1.70286C3.60229 0.332157 7.29963 0.506977 7.29963 0.506977C7.29963 0.506977 10.997 0.332157 12.2385 1.7032C13.2254 2.79287 13.2428 3.56772 13.2428 5.7467" stroke="#5D7280" stroke-width="0.994991" stroke-linecap="round" stroke-linejoin="round"/>
<path d="M7.29959 6.76067V4.67885M7.29959 4.67885C7.29959 4.249 7.12883 3.83676 6.82488 3.53281C6.52093 3.22886 6.10869 3.05811 5.67885 3.05811C5.249 3.05811 4.83676 3.22886 4.53281 3.53281C4.22886 3.83676 4.05811 4.249 4.05811 4.67885V8.03804M7.29959 4.67885C7.29959 4.249 7.47034 3.83676 7.77429 3.53281C8.07824 3.22886 8.49048 3.05811 8.92033 3.05811C9.1332 3.05806 9.34399 3.09995 9.54066 3.18138C9.73734 3.26281 9.91605 3.38218 10.0666 3.53269C10.2171 3.68319 10.3365 3.86188 10.418 4.05854C10.4995 4.2552 10.5414 4.46598 10.5414 4.67885V8.03804" stroke="#5D7280" stroke-width="0.994991" stroke-linecap="round" stroke-linejoin="round"/>
</g>
<defs>
<clipPath id="clip0_654_71362">
<rect width="13.3636" height="14" fill="white" transform="translate(0.350586)"/>
</clipPath>
</defs>
</svg>
