<svg width="19" height="14" viewBox="0 0 19 14" fill="none" xmlns="http://www.w3.org/2000/svg">
<g clip-path="url(#clip0_654_71351)">
<path d="M11.7968 4.45466C12.8511 4.45466 13.7059 3.59993 13.7059 2.54557C13.7059 1.4912 12.8511 0.636475 11.7968 0.636475C10.7424 0.636475 9.8877 1.4912 9.8877 2.54557C9.8877 3.59993 10.7424 4.45466 11.7968 4.45466Z" stroke="#5D7280" stroke-linecap="round" stroke-linejoin="round"/>
<path d="M4.16007 8.909C5.21443 8.909 6.06916 8.05427 6.06916 6.99991C6.06916 5.94555 5.21443 5.09082 4.16007 5.09082C3.10571 5.09082 2.25098 5.94555 2.25098 6.99991C2.25098 8.05427 3.10571 8.909 4.16007 8.909Z" stroke="#5D7280" stroke-linecap="round" stroke-linejoin="round"/>
<path d="M11.7968 13.3636C12.8511 13.3636 13.7059 12.5089 13.7059 11.4545C13.7059 10.4001 12.8511 9.54541 11.7968 9.54541C10.7424 9.54541 9.8877 10.4001 9.8877 11.4545C9.8877 12.5089 10.7424 13.3636 11.7968 13.3636Z" stroke="#5D7280" stroke-linecap="round" stroke-linejoin="round"/>
<path d="M5.80859 7.96094L10.155 10.4937" stroke="#5D7280" stroke-linecap="round" stroke-linejoin="round"/>
<path d="M10.1486 3.50635L5.80859 6.03907" stroke="#5D7280" stroke-linecap="round" stroke-linejoin="round"/>
</g>
<defs>
<clipPath id="clip0_654_71351">
<rect width="13.3636" height="14" fill="white" transform="translate(0.986816)"/>
</clipPath>
</defs>
</svg>
