<svg width="244" height="29" viewBox="0 0 244 29" fill="none" xmlns="http://www.w3.org/2000/svg">
<path d="M88.736 0C94.755 0 99.236 3.16 100.046 7.63C100.898 2.893 103.229 0.064 106.928 0.064C111.16 0.064 113.632 3.877 113.632 9.456C113.632 11.009 113.393 12.586 112.939 14.098L112.833 14.431L113.023 14.401C113.136 14.386 113.249 14.373 113.363 14.363L113.707 14.341L113.968 14.336C116.075 14.336 117.774 15.267 118.706 16.829L118.704 16.688L118.708 15.76C118.808 4.953 120.711 0.197 125.462 0.067L125.677 0.064L125.829 0.066C130.016 0.173 131.992 3.839 132.492 11.932C133.59 4.88 137.345 0.064 142.8 0.064C145.678 0.064 148.131 1.415 149.9 3.839L149.964 3.928L149.974 3.901C150.827 1.673 152.502 0.261 154.729 0.082L154.961 0.068L155.184 0.064C159.17 0.064 161.746 3.965 162.356 9.931C164.066 4.131 169.376 0.064 175.808 0.064C183.658 0.064 189.84 6.124 189.84 14C189.84 21.89 183.643 28 175.808 28C169.029 28 163.476 23.426 162.103 17.082C160.896 23.424 157.029 27.744 152.176 27.744C149.243 27.744 146.767 26.214 145.053 23.548L144.854 23.227L144.824 23.313C143.895 25.886 142.169 27.525 139.856 27.724L139.631 27.739L139.408 27.744C135.603 27.744 133.224 24.876 132.444 20.14C131.851 25.245 129.754 27.744 125.664 27.744C122.168 27.744 120.116 25.883 119.229 22.149L119.16 21.851L119.082 22.076C117.885 25.288 114.196 27.744 110 27.744C104.822 27.744 101.777 25.19 100.458 19.919C99.846 24.693 95.165 27.744 88.672 27.744C82.32 27.744 77.425 24.818 76.09 20.574C74.41 24.734 70.041 27.744 64.848 27.744C57.946 27.744 52.966 23.718 51.605 17.696L51.531 17.97C49.852 23.848 44.506 28 38.048 28C30.971 28 25.229 23.014 24.186 16.234C22.314 22.684 17.841 27.744 12.72 27.744C5.723 27.744 0 19.004 0 9.712C0 3.725 2.538 0.064 7.216 0.064C9.436 0.064 11.361 1.08 12.618 2.801L12.718 2.944L12.863 2.743C13.4291 1.97403 14.156 1.3377 14.9931 0.878313C15.8302 0.418924 16.7573 0.14752 17.71 0.083L17.983 0.068L18.224 0.064C22.365 0.064 24.78 3.31 25.087 8.545C27.18 3.493 32.142 0.064 38.048 0.064C44.702 0.064 50.158 4.417 51.665 10.541C53.197 4.233 58.678 0 66.224 0C70.884 0 74.464 2.562 74.464 6.096C74.4687 6.73475 74.3414 7.36758 74.0902 7.95487C73.839 8.54215 73.4692 9.07124 73.004 9.509L72.777 9.712L72.891 9.777C74.798 10.889 76.099 12.635 76.601 14.765C76.9472 14.1854 77.3998 13.6765 77.935 13.265L78.065 13.168L78.025 13.135C76.948 12.203 76.311 10.903 76.195 9.328L76.18 9.063L76.176 8.816C76.176 3.71 81.488 0 88.736 0ZM38.048 2.064C31.616 2.064 26.016 6.928 26.016 14C26.016 21.072 31.616 26 38.048 26C44.48 26 50.08 21.072 50.08 14C50.08 6.928 44.48 2.064 38.048 2.064ZM175.808 2.064C169.376 2.064 163.776 6.928 163.776 14C163.776 21.072 169.376 26 175.808 26C182.24 26 187.84 21.072 187.84 14C187.84 6.928 182.24 2.064 175.808 2.064ZM88.736 2C81.536 2 78.176 5.68 78.176 8.816C78.176 11.44 80.096 12.752 83.136 12.752C84.16 12.752 85.184 12.624 85.728 12.4L85.408 14.288C84.608 14.032 83.52 13.904 82.464 13.904C79.488 13.904 77.728 15.376 77.728 18.192C77.728 21.616 81.152 25.744 88.672 25.744C94.592 25.744 98.528 22.992 98.528 18.832C98.528 16.08 96.288 14.512 94.016 14.512C91.232 14.512 89.696 16.848 89.696 18.544C89.696 19.28 90.08 20.56 90.88 21.264L89.184 22.16C89.312 19.248 87.136 17.328 83.584 19.312L83.072 17.456C85.6 17.648 87.488 17.104 88.8 16.24C89.3486 15.89 89.8003 15.4076 90.1135 14.8372C90.4267 14.2668 90.5912 13.6267 90.592 12.976C90.592 11.888 90.112 10.8 89.12 10C87.744 8.912 85.664 8.112 83.104 7.76L84.032 6.064L84.439 6.29L84.854 6.515C88.181 8.292 91.504 9.411 92.48 6.544L93.888 7.888C92.288 8.24 91.456 9.616 91.456 10.896C91.456 12.368 92.48 13.36 94.016 13.36C96.608 13.36 98.176 11.664 98.176 9.104C98.176 5.904 95.328 2 88.736 2ZM106.928 2.064C103.216 2.064 101.744 6.608 101.68 11.76L101.678 12.451C101.706 20.218 103.317 25.744 110 25.744C114.672 25.744 117.488 22.384 117.488 19.856C117.488 17.424 115.856 16.336 113.968 16.336C111.76 16.336 109.456 17.872 108.72 20.624L107.056 19.664C109.808 17.552 111.632 13.456 111.632 9.456C111.632 5.456 110.16 2.064 106.928 2.064ZM125.778 2.065H125.55C122.637 2.14 120.704 5.126 120.704 16.688L120.708 17.285C120.782 22.391 121.843 25.744 125.664 25.744C129.485 25.744 130.546 22.391 130.62 17.284L130.624 16.688L130.62 15.804C130.523 4.973 128.615 2.138 125.778 2.065ZM155.184 2.064C153.072 2.064 151.344 3.856 151.344 7.664C151.344 11.472 153.072 14.544 157.104 17.04L155.888 18.544C154.576 15.696 151.024 13.776 152.144 19.888L150.256 19.536C150.8 18.192 150.896 16.592 150.896 14.896C150.896 7.184 147.664 2.064 142.8 2.064C136.72 2.064 134.16 9.776 134.16 16.4L134.162 16.682C134.216 21.555 135.703 25.744 139.408 25.744C141.936 25.744 143.6 22.8 143.6 18.352C143.6 14.064 142.384 8.848 139.216 6.864L140.816 5.808L140.986 6.196C142.481 9.469 144.543 10.388 144.944 7.152L146.256 8.592C145.168 9.072 144.464 10.896 144.464 13.136C144.464 20.688 147.632 25.744 152.176 25.744C155.728 25.744 160.496 21.808 160.496 12.784C160.496 6.352 158.384 2.064 155.184 2.064ZM18.224 2.064C15.408 2.064 13.296 4.368 13.296 7.792C13.296 12.304 15.408 15.76 18.192 16.432L17.072 18L16.844 17.715L16.609 17.433L16.369 17.159C14.449 15.019 12.455 14.208 13.68 21.584H11.76L11.852 21.003L11.935 20.429C12.822 13.866 10.602 15.292 8.685 17.606L8.368 18L7.248 16.432C10.032 15.76 12.144 12.304 12.144 7.792C12.144 4.368 10.032 2.064 7.216 2.064C3.536 2.064 2 5.2 2 9.712C2 16.528 6.16 25.744 12.72 25.744C18.96 25.744 23.12 16.528 23.12 9.712C23.12 5.2 21.584 2.064 18.224 2.064ZM66.224 2C57.296 2 53.232 8.208 53.232 14.256C53.232 20.08 56.944 25.744 64.848 25.744C71.12 25.744 74.832 20.976 74.832 16.784C74.832 13.456 72.464 10.448 67.536 10.448C64.368 10.448 61.936 12.624 61.936 15.408C61.936 16.624 62.864 17.872 64.688 17.872C66.32 17.872 68.624 16.816 69.232 14.736L70.8 15.888C69.232 16.336 67.376 18.64 70.288 20.08L68.88 21.424C69.008 18.896 62.128 17.392 61.36 21.872L59.856 20.656C62.288 20.208 61.872 13.968 57.008 15.248L57.456 13.36C59.856 15.696 65.52 10.384 61.232 7.184L62.832 6.096C63.024 8.464 64.464 9.296 67.856 9.296C70.96 9.296 72.464 7.76 72.464 6.096C72.464 4.144 70.32 2 66.224 2ZM180.095 6.65L181.568 7.9C179.906 9.123 178.671 10.64 178.568 11.75L178.56 11.898C178.56 13.467 180.192 14.811 182.368 15.258L181.439 16.955L181.22 16.734C179.911 15.443 178.795 14.746 177.888 14.746C176.965 14.746 176.633 15.402 176.464 16.562C176.31 17.618 176.395 19.1 176.702 20.929L176.769 21.307H174.848C175.184 19.444 175.301 17.909 175.181 16.795L175.152 16.562C174.982 15.402 174.652 14.746 173.728 14.746C172.816 14.746 171.702 15.446 170.38 16.749L170.177 16.956L169.248 15.259L169.479 15.207C171.462 14.733 172.943 13.507 173.049 12.066L173.056 11.898C173.056 10.826 171.894 9.318 170.272 8.068L170.047 7.899L171.519 6.651L171.71 7.022C172.286 8.12 172.908 9.069 173.529 9.793L173.736 10.026C174.46 10.813 175.162 11.29 175.808 11.29C176.454 11.29 177.156 10.813 177.88 10.026C178.57 9.277 179.266 8.242 179.906 7.022L180.095 6.65ZM39.009 6.064L38.942 6.441C38.635 8.27 38.55 9.752 38.704 10.808C38.874 11.968 39.204 12.624 40.128 12.624L40.281 12.618C41.16 12.545 42.224 11.856 43.461 10.637L43.68 10.416L44.608 12.112L44.377 12.163C42.317 12.655 40.8 13.96 40.8 15.472L40.807 15.621C40.907 16.681 42.036 18.111 43.584 19.303L43.807 19.472L42.336 20.719L42.146 20.349C41.506 19.129 40.81 18.093 40.12 17.344C39.396 16.558 38.694 16.08 38.048 16.08C37.402 16.08 36.7 16.558 35.976 17.344L35.769 17.577C35.148 18.302 34.526 19.25 33.95 20.348L33.759 20.719L32.288 19.472L32.512 19.303C34.134 18.053 35.296 16.544 35.296 15.472L35.29 15.305C35.179 13.809 33.586 12.543 31.488 12.112L32.417 10.414L32.62 10.621C33.942 11.924 35.056 12.624 35.968 12.624C36.891 12.624 37.223 11.969 37.392 10.808C37.557 9.678 37.448 8.059 37.088 6.064H39.009Z" fill="#E30002"/>
<path d="M193.04 27.976V25.288H195.248V27.976H193.04ZM204.036 28.072C200.004 28.072 198.252 25.408 198.252 21.952C198.252 18.544 199.956 15.688 203.988 15.688C206.676 15.688 209.052 17.32 209.292 19.864L207.564 21.592C207.564 18.784 205.932 17.656 203.988 17.656C201.42 17.656 200.484 19.672 200.484 21.904C200.484 24.208 201.372 26.104 204.012 26.104C205.62 26.104 206.7 25.144 207.3 23.992L209.028 25.72C207.9 27.088 206.58 28.072 204.036 28.072ZM210.487 21.952C210.487 18.712 212.071 15.568 216.055 15.568C220.039 15.568 221.623 18.712 221.623 21.952C221.623 25.24 220.015 28.072 216.055 28.072C212.095 28.072 210.487 25.24 210.487 21.952ZM212.671 21.952C212.671 24.184 213.487 26.008 216.055 26.008C218.623 26.008 219.439 24.184 219.439 21.952C219.439 19.72 218.623 17.632 216.055 17.632C213.487 17.632 212.671 19.72 212.671 21.952ZM223.496 16.144L223.4 15.832H225.2C225.536 16.24 225.848 17.128 225.944 17.752H226.184L228.248 15.76C228.56 15.688 228.848 15.664 229.184 15.664C230.864 15.664 232.4 16.48 233.216 17.848H233.456C233.504 17.728 235.472 15.76 235.472 15.76C235.784 15.688 236.24 15.664 236.6 15.664C240.008 15.664 241.784 17.872 241.784 20.92V28H239.504V20.92C239.504 19.168 238.568 17.872 236.648 17.872C234.704 17.872 233.912 19.168 233.912 20.92V27.76H231.656V20.92C231.656 19.168 230.72 17.872 228.8 17.872C226.856 17.872 226.064 19.168 226.064 20.92V28H223.784V19.096C223.784 18.376 223.688 16.768 223.496 16.144Z" fill="#E30002"/>
</svg>
