<svg width="20" height="14" viewBox="0 0 20 14" fill="none" xmlns="http://www.w3.org/2000/svg">
<g clip-path="url(#clip0_649_70772)">
<path d="M10.4999 13.3V2.09995C10.4999 1.72865 10.3524 1.37255 10.0899 1.11C9.8273 0.847451 9.47121 0.699951 9.0999 0.699951H6.2999C5.9286 0.699951 5.5725 0.847451 5.30995 1.11C5.0474 1.37255 4.8999 1.72865 4.8999 2.09995V13.3" stroke="#5D7280" stroke-linecap="round" stroke-linejoin="round"/>
<path d="M13.3002 3.5H2.1002C1.327 3.5 0.700195 4.1268 0.700195 4.9V11.9C0.700195 12.6732 1.327 13.3 2.1002 13.3H13.3002C14.0734 13.3 14.7002 12.6732 14.7002 11.9V4.9C14.7002 4.1268 14.0734 3.5 13.3002 3.5Z" stroke="#5D7280" stroke-linecap="round" stroke-linejoin="round"/>
</g>
<defs>
<clipPath id="clip0_649_70772">
<rect width="15.4" height="14" fill="white"/>
</clipPath>
</defs>
</svg>
