<svg width="19" height="14" viewBox="0 0 19 14" fill="none" xmlns="http://www.w3.org/2000/svg">
<g clip-path="url(#clip0_650_71332)">
<path d="M8.81316 3.44383C8.68782 3.57169 8.61762 3.7436 8.61762 3.92265C8.61762 4.1017 8.68782 4.27361 8.81316 4.40147L9.90761 5.49592C10.0355 5.62126 10.2074 5.69146 10.3864 5.69146C10.5655 5.69146 10.7374 5.62126 10.8653 5.49592L13.4441 2.91712C13.788 3.67721 13.8922 4.52408 13.7426 5.34485C13.5931 6.16563 13.1969 6.92134 12.607 7.51127C12.0171 8.10121 11.2613 8.49734 10.4406 8.64689C9.61979 8.79644 8.77293 8.69229 8.01284 8.34834L3.28618 13.075C3.01406 13.3471 2.64498 13.5 2.26013 13.5C1.87529 13.5 1.50621 13.3471 1.23408 13.075C0.96196 12.8029 0.809082 12.4338 0.809082 12.0489C0.809082 11.6641 0.96196 11.295 1.23408 11.0229L5.96074 6.29624C5.61679 5.53615 5.51265 4.68929 5.66219 3.86851C5.81174 3.04774 6.20788 2.29202 6.79781 1.70209C7.38774 1.11216 8.14345 0.716025 8.96423 0.566477C9.78501 0.416929 10.6319 0.521073 11.392 0.865028L8.82 3.43699L8.81316 3.44383Z" stroke="#5D7280" stroke-linecap="round" stroke-linejoin="round"/>
</g>
<defs>
<clipPath id="clip0_650_71332">
<rect width="14" height="14" fill="white" transform="translate(0.309082)"/>
</clipPath>
</defs>
</svg>
