<svg xmlns="http://www.w3.org/2000/svg" width="900" height="635" fill="none"><path stroke="#E30002" stroke-width="2" d="M550.086 134.339c-5.833 1.343-12.364 3.978-14.761 9.867a.27.27 0 0 1-.221.171.274.274 0 0 1-.258-.108l-7.105-9.384a.201.201 0 0 1-.029-.2.211.211 0 0 1 .159-.131 13.59 13.59 0 0 0 5.156-2.099c.143-.095.148-.198.014-.309a110.966 110.966 0 0 0-20.647-13.563c-.218-.111-.244-.078-.077.098 3.114 3.316 5.551 7.16 8.315 10.744a.31.31 0 0 1 .062.148.307.307 0 0 1-.113.288.318.318 0 0 1-.146.066l-10.048 1.812a.296.296 0 0 1-.35-.291c.018-5.303-8.637-10.704-13.027-12.176-14.272-4.771-30.399.071-40.667 10.458-2.045 2.07-3.153 4.627-3.324 7.67-.009.185-.089.224-.242.116l-10.397-7.419c-.541-.385-.551-.783-.031-1.195 9.143-7.236 16.955-13.761 27.321-17.493 1.237-.447 2.178-1.329 3.351-1.915a.547.547 0 0 0 .296-.432.535.535 0 0 0-.206-.477c-1.187-.917-2.115-1.306-3.696-1.414-2.813-.192-5.98-.55-8.735.13-1.716.421-4.023.363-5.165.488-41.76 4.547-62.869 45.13-63.845 82.868-.003.146.065.201.206.165 21.305-5.696 43.359-7.947 65.386-7.679.158 0 .227-.077.206-.233-2.074-15.42 1.106-32.184 10.478-44.839 6.258-8.449 16.727-14.378 27.281-9.594 7.773 3.522 12.821 11.451 15.178 19.52 3.892 13.322 2.799 27.449-1.94 40.418-.066.188-.003.303.188.344a195.334 195.334 0 0 1 18.828 5.039c.182.06.273-.006.273-.197.099-17.027 7.146-49.166 27.407-52.957M297.896 351.957c-.15-.047-.259-.01-.327.112-6.375 11.407-16.584 20.648-29.414 24.098a.475.475 0 0 0-.314.282c-4.959 12.333-10.182 28.125-24.584 30.819M232.08 385.77c.104-.056.189-.197.255-.42.039-.132-.006-.172-.134-.121a41.69 41.69 0 0 1-8.664 2.515M483.97 21.69c2.06-.85 4.95-3.307 2.401-5.567-3.871-3.432-10.886-4.032-15.827-3.226-4.775.774-13.466 5.46-3.1 9.147 5.603 1.996 11.111 1.878 16.526-.354Zm-13.139 68.24c4.017-.68 6.241-3.333 6.674-7.957m.269-2.555a3427.036 3427.036 0 0 0-1.084-31.303c-.03-.779-.23-1.4-.6-1.866-1.169-1.472-4.856-4.31-5.6-.497a1679.767 1679.767 0 0 0-6.088 32.851c-.361 2.062-.488 3.522-.381 4.381.435 3.558 3.06 6.637 6.81 6.945"/><path stroke="#FAED9A" stroke-width="2" d="M477.42 80.326c-1.818 1.383-2.19 2.345-4.636 2.694a.285.285 0 0 0-.169.088.296.296 0 0 0-.078.176c-.201 2.331-.232 4.703-1.706 6.645"/><path stroke="#E30002" stroke-width="2" d="m372.129 151.42-4.332 6.193m0 0c-10.381 16.146-15.824 33.852-16.328 53.118a.115.115 0 0 0 .016.068c.013.02.031.036.053.046a.129.129 0 0 0 .137-.02c8.336-7.365 17.672-11.997 27.975-16.06a.33.33 0 0 0 .151-.12.329.329 0 0 0 .06-.185c.43-25.999 7.499-51.551 24.58-71.586a.098.098 0 0 0 .023-.063.105.105 0 0 0-.024-.063.1.1 0 0 0-.124-.022c-12.687 7.515-23.416 17.08-32.187 28.694"/><path stroke="#FAED9A" stroke-width="2" d="M367.797 157.613c.892.112 1.496-.103 1.909-.966a215.101 215.101 0 0 0 2.423-5.227"/><path stroke="#E30002" stroke-width="2" d="M469.993 183.716c.287.747.148 1.647.318 2.354 1.469 6.251 6.478 16.674 14.935 13.358 2.061-.806 3.972-2.292 5.734-4.457.096-.117.074-.203-.067-.26-3.885-1.605-6.984-3.831-9.295-6.677-7.508-9.232-3.141-20.294 7.902-23.31a.178.178 0 0 0 .119-.239.17.17 0 0 0-.061-.079c-10.303-7.383-6.079-19.537 6.438-19.269.176.003.221-.073.134-.228-6.025-10.798-15.106-5.715-20.096 2.17-6.688 10.579-8.494 24.004-6.464 36.176a.26.26 0 0 0 .165.206.42.42 0 0 1 .238.255Zm74.753 27.127c2.092.255 5.658-4.806 6.612-6.618.066-.129.037-.228-.085-.3-11.791-6.945-8.637-21.046 3.835-24.706.167-.051.203-.15.107-.296-3.024-4.725-3.597-10.359-.184-15.054 1.416-1.948 3.501-3.131 6.254-3.548.152-.021.224-.109.215-.264-.201-3.182-1.908-7.406-5.689-6.574-5.268 1.159-9.851 10.386-11.585 15.067-3.751 10.093-5.118 20.479-4.103 31.16.246 2.595.994 5.267 1.644 7.849.273 1.078 1.801 3.146 2.979 3.284Z"/><path stroke="#E30002" stroke-width="2" d="M565.599 232.113c-2.71-4.855-6.948-9.317-11.459-12.521a.306.306 0 0 0-.385-.005c-12.176 8.373-21.337-.604-24.298-12.113a.976.976 0 0 0-.627-.685 197.429 197.429 0 0 0-25.754-7.003.932.932 0 0 0-.932.358c-12.902 17.488-32.626 15.125-41.258-4.762a.368.368 0 0 0-.314-.232c-.66-.078-1.499-.121-2.517-.13-6.878-.069-13.18.05-18.905.358-.17.009-.279.094-.327.255-4.937 16.584-5.335 33.956-2.464 51.229.027.162.121.238.282.229a269.2 269.2 0 0 1 49.121 1.906c.161.021.265-.045.313-.197 3.906-11.953 12.069-21.654 23.958-26.062 5.602-2.08 10.933-2.035 15.992.134 15.505 6.645 11.683 25.619 7.997 38.172-.039.128.004.219.129.273a100.97 100.97 0 0 1 14.062 7.075c.126.077.232.058.318-.059 8.004-10.838 13.71-22.779 17.117-35.822a.5.5 0 0 0-.049-.398ZM423.982 196.64l-9.399 1.342m0 0-12.068 2.367m0 0a77.115 77.115 0 0 0-10.29 2.703.31.31 0 0 0-.228.3c-.039.6-.018 1.329.062 2.188 1.485 16.072 5.657 31.269 12.517 45.592.065.137.173.19.322.161a192.875 192.875 0 0 1 19.586-3.155c.188-.021.268-.126.241-.313-2.383-16.088-2.62-31.312.766-47.234m0 0 .946-3.893c.042-.167-.024-.245-.197-.233l-2.258.175"/><path stroke="#FAED9A" stroke-width="2" d="M425.491 200.591c-.101-1.435-.604-2.752-1.509-3.951m-21.467 3.709 11.28-.613a.322.322 0 0 0 .314-.246l.474-1.508"/><path stroke="#E30002" stroke-width="2" d="M363.344 258.864a24.155 24.155 0 0 1 10.29 3.679.5.5 0 0 0 .515.013 90.146 90.146 0 0 1 18.981-8.122.194.194 0 0 0 .117-.102.188.188 0 0 0 .017-.077.17.17 0 0 0-.018-.076c-6.839-14.869-11.064-30.457-12.677-46.764-.018-.161-.102-.211-.251-.152-10.505 4.037-21.646 10.66-27.08 20.854-.296.55-.269.953-.17 1.535a94.694 94.694 0 0 0 10.039 29.056c.051.092.13.144.237.156Zm268.886 32.184c2.372.594 4.785.968 7.24 1.124"/><path stroke="#E30002" stroke-width="2" d="M640.63 292.328c.242.493 30.355 5.191 33.468 5.692 2.12.344 3.449-.525 3.987-2.604a.535.535 0 0 1 .251-.327c.407-.223.596-.519.685-.998a4027.82 4027.82 0 0 0 11.558-65.307.584.584 0 0 0-.076-.417 6.387 6.387 0 0 0-.533-.783 3320.412 3320.412 0 0 0-15.617-18.074c-.833-.958-1.586-1.662-2.258-2.112a.438.438 0 0 0-.483-.032l-28.308 14.374a.447.447 0 0 0-.246.336 31831.817 31831.817 0 0 0-6.482 36.999c-.48 2.761-.914 6.435-1.546 9.634-1.402 7.138-2.912 15.533-3.713 20.487-.018.113.019.368.112.765m-52.194 53.396c-10.715 4.005-18.828.46-26.045-7.671m-3.964-6.197c-2.388-5.048-3.62-9.147-5.291-15.001"/><path stroke="#E30002" stroke-width="2" d="M539.191 310.855c-1.61.035-3.109.771-4.497 2.206-2.261 2.339-3.711 5.091-4.35 8.256-.193.958-.251 2.367-.524 3.553a.944.944 0 0 0 .004.439c.245.952.367 1.92.367 2.904 0 .582.453 1.034.426 1.665-.054 1.36-.233 2.394.206 3.732 4.793 14.588 16.494 41.313 36.214 38.31 12.839-1.955 24.495-15.523 31.183-25.61 2.281-3.441 4.7-6.757 6.72-10.36 3.718-6.623 7.324-12.592 12.342-18.213 2.625-2.944 7.27-4.555 10.988-4.851 3.277-.259 5.337-.325 6.182-.197a164.788 164.788 0 0 1 19.613 4.202c10.388 2.896 19.065 7.509 28.276 13.846 1.894 1.307 3.892 2.743 6.07 2.761a.509.509 0 0 0 .389-.161c1.276-1.295 1.928-2.885 1.958-4.77.098-6.4-1.339-12.656-6.957-16.406-.66-.441-1.456-.735-2.388-.881-20.135-3.189-40.271-6.35-60.409-9.483a5.73 5.73 0 0 0-.972-.067"/><path stroke="#E30002" stroke-width="2" d="m618.885 301.52-2.074-.761a.483.483 0 0 1-.309-.537c.777-4.887 1.531-9.72 2.262-14.499.413-2.716 1.268-5.003-1.639-6.659a.33.33 0 0 1-.143-.407.326.326 0 0 1 .089-.125c7.454-6.413 13.291-16.853 4.256-25.114-.511-.468-1.235-.851-2.173-1.15a.243.243 0 0 0-.1-.011.233.233 0 0 0-.17.101.23.23 0 0 0-.039.094c-1.398 7.818-7.669 16.718-14.729 19.658-5.421 2.256-9.058 5.062-9.645 11.13-.771 7.911 3.319 13.125 8.704 18.642 3.991 4.082 2.217 7.769.058 12.879-3.933 9.308-9.241 17.699-16.808 24.223m-91.61-79.211c-1.142 8.596 4.359 17.085 13.753 16.517m0 0c4.62-.525 8.349-2.6 11.186-6.225m0 0 2.096-2.976a.48.48 0 0 0 .076-.416c-2.307-8.99-11.271-7.697-15.302-1.181a.23.23 0 0 1-.097.088.237.237 0 0 1-.251-.029.23.23 0 0 1-.073-.108c-1.277-3.903-5.004-8.364-9.502-8.337m0 0c-1.89-.913-1.917 1.311-1.886 2.667"/><path stroke="#FAED9A" stroke-width="2" d="m496.701 257.106-1.886 2.667m24.939 10.292c-2.616 1.665-4.955 3.45-7.862 4.694a69.236 69.236 0 0 0-3.324 1.531"/><path stroke="#E30002" stroke-width="2" d="M505.347 302.992c13.215-5.697 25.44-14.714 35.206-25.109.122-.131.106-.242-.049-.331a94.085 94.085 0 0 0-11.222-5.379c-.149-.06-.27-.022-.363.112-5.201 7.536-16.364 16.325-26.161 15.327-7.602-.779-15.178-5.854-17.431-13.439-1.287-4.326-1.813-8.672-1.577-13.04.015-.256-.106-.401-.363-.434a260.67 260.67 0 0 0-44.344-1.83.143.143 0 0 0-.063.018.152.152 0 0 0-.076.165 144.886 144.886 0 0 0 16.503 39.734c.457.757.866 1.56 1.227 2.407a.368.368 0 0 0 .121.152.353.353 0 0 0 .18.067c8.341.737 15.661 3.822 21.959 9.255a.552.552 0 0 0 .43.121l7.074-1.106m-48.368-16.311 1.452 1.052c.161.116.198.085.112-.094l-1.335-2.784"/><path stroke="#E30002" stroke-width="2" d="M438.259 291.545a170.414 170.414 0 0 1-11.119-31.571c-.051-.212-.185-.303-.403-.273l-15.899 2.336c-.209.033-.26.139-.152.318 7.227 11.987 16.342 22.326 27.344 31.016"/><path stroke="#FAED9A" stroke-width="2" d="M438.259 291.545c.31.806.234 1.414-.229 1.826"/><path stroke="#E30002" stroke-width="2" d="M391.593 287.876c.077 1.159.278 4.036 1.17 4.685 4.805 3.496 9.713 6.495 14.724 8.995m0 0c1.698.859 11.106 5.414 12.046 5.106a.698.698 0 0 1 .475.013l5.21 1.96a.478.478 0 0 0 .417-.031 79.62 79.62 0 0 1 7.996-3.755c.209-.086.224-.197.045-.331-14.338-10.65-25.896-23.753-34.673-39.308a.27.27 0 0 0-.309-.125 86.977 86.977 0 0 0-14.635 5.544.292.292 0 0 0-.157.328c.01.043.03.082.058.115 4.136 4.92 6.681 10.521 7.633 16.804"/><path stroke="#FAED9A" stroke-width="2" d="M407.487 301.556a18.83 18.83 0 0 0-3.74-2.538c-4.632-2.385-8.449-7.459-12.154-11.142"/><path stroke="#E30002" stroke-width="2" d="M350.407 287.876c-.793 1.181-2.195 1.705-3.118 2.81-5.985 7.164-12.978 14.302-20.701 19.659-13.645 9.464-29.83 16.154-46.486 16.749-15.065.537-28.325-6.793-30.798-22.647a.432.432 0 0 0-.237-.327c-1.222-.668-2.386-.548-3.494.362-4.023 3.303-4.758 7.908-3.038 12.732 1.738 4.882 5.887 8.784 10.59 10.901a.346.346 0 0 1 .215.313c.332 6.578 6.021 13.501 12.454 15.009a.235.235 0 0 1 .162.135.247.247 0 0 1-.005.214c-.654 1.226-4.117.707-5.224.452-5.693-1.307-10.594-4.005-13.573-9.281a.344.344 0 0 0-.363-.188c-11.629 1.177-23.496 2.099-34.668 5.755-2.137.702-5.914 3.177-5.309 5.88 1.416 6.328 26.363.264 30.816-.985 6.227-1.749 9.905 5.259 4.592 8.87-.893.606-3.266 1.844-7.119 3.714-2.204 1.071-5.283 3.076-9.237 6.015-2.553 1.892-10.388 8.515-7.553 11.988 4.135 5.066 14.147-1.374 17.834-4.394a127.359 127.359 0 0 0 8.951-8.073c3.413-3.383 9.21-1.338 8.359 3.727-.132.785-.641 1.935-1.528 3.451-3.118 5.307-6.234 10.616-9.349 15.926-1.344 2.287-3.431 6.61-2.885 9.16.574 2.663 3.848 1.692 5.465.658 6.698-4.3 10.519-15.859 13.431-22.939 1.2-2.931 3.355-6.242 6.594-6.793 12.951-2.197 23.375-15.403 27.183-27.261.26-.81.685-1.271 1.617-1.262 12.073.116 24.02-4.037 34.749-9.697 12.059-6.368 23.201-14.32 33.553-23.159 2.464-2.103 4.145-3.882 5.044-5.338 2.84-4.605 3.279-12.539-1.25-16.508-5.684-4.977-12.184-.801-15.674 4.372Zm127.609 319.701-15.253-3.794a.303.303 0 0 1-.234-.279.298.298 0 0 1 .019-.129c1.836-5.038 2.141-11.344 2.329-16.691a4407713 4407713 0 0 0 7.996-225.66c.165-4.711.247-7.08.247-7.107-.327-9.276-6.146-20.974-15.702-23.614-.152-.042-.234.016-.246.175l-26.403 291.75c-.004.04 0 .08.013.118a.297.297 0 0 0 .06.103.291.291 0 0 0 .213.093l182.293-.314a.15.15 0 0 0 .139-.21c-7.548-17.797-22.882-31.15-40.859-38.292-19.998-7.939-40.373-8.895-61.126-2.869-13.027 3.786-30.381 11.38-33.217 26.55-.03.149-.12.206-.269.17Zm-101.17-7.258c.457-3.941-.437-7.257-2.683-9.948-8.933-10.691-23.635-16.186-37.469-17.296-35.367-2.828-73.763 16.696-89.173 49.391a.203.203 0 0 0-.019.097.2.2 0 0 0 .203.184c6.11-.143 13.95.032 18.322.041 50.795.085 101.6-.381 152.391-.188.242.003.375-.117.399-.358l26.314-290.879c.014-.164-.054-.211-.207-.143-10.348 4.578-17.224 15.636-20.051 26.336a286.619 286.619 0 0 0-3.212 13.51c-.089.42-.167.842-.233 1.266a196872.925 196872.925 0 0 0-31.559 200.448c-1.035 6.6-1.169 11.617-.027 17.672.408 2.161 1.487 3.987 2.45 6.014a.607.607 0 0 1-.421.855l-14.774 3.226c-.188.039-.272-.037-.251-.228Zm274.275-373.102c-.654.158-1.236.093-1.747-.197a.466.466 0 0 0-.586.118.462.462 0 0 0-.09.196l-2.957 15.447a.72.72 0 0 0 .322.742.706.706 0 0 0 .265.1l13.256 2.121c.2.032.321-.051.363-.251l3.319-15.823a.39.39 0 0 0-.318-.466 310.213 310.213 0 0 0-10.433-1.571c-.242-.032-.363-.173-.363-.42m16.333 19.837 12.328 1.929c.125.018.2-.036.224-.161l2.697-15.125a1.227 1.227 0 0 0-.207-.925 1.222 1.222 0 0 0-.806-.499l-10.975-1.763a.506.506 0 0 0-.582.412l-2.863 15.873c-.027.149.034.236.184.259Zm-26.74 17.766c.856.407 1.609.743 2.567.9a465.58 465.58 0 0 0 10.859 1.691c.137.021.221-.037.251-.174l3.333-15.976a.288.288 0 0 0-.046-.224.279.279 0 0 0-.192-.121l-13.77-2.103a.189.189 0 0 0-.211.143l-2.983 15.493a.336.336 0 0 0 .192.371Zm25.503-12.588-2.84 16.423a.094.094 0 0 0 .016.069.1.1 0 0 0 .06.039l11.33 1.955c.169.029.338.042.5.038.161-.004.31-.025.439-.062a.857.857 0 0 0 .312-.151.358.358 0 0 0 .137-.219l2.661-15.38c.027-.163-.082-.341-.303-.497-.22-.156-.535-.277-.875-.336l-11.329-1.955a.094.094 0 0 0-.069.016.098.098 0 0 0-.039.06Zm-29.624 32.743c-.461 2.573 10.429 3.415 13.081 3.75.155.021.248-.044.277-.196l3.311-15.918a.298.298 0 0 0-.246-.354l-12.633-1.919c-.621-.093-.996.168-1.125.783a555.344 555.344 0 0 0-2.665 13.854Zm38.387-9.218-12.557-2.166a.102.102 0 0 0-.116.081l-2.742 15.832a4.307 4.307 0 0 0-.056.515.888.888 0 0 0 .009.162c.008.039.019.059.034.061l12.538 2.162c.03.002.071-.069.114-.2.044-.13.086-.31.119-.498l2.737-15.833a.103.103 0 0 0-.08-.116Z"/><path fill="#E30002" d="M550.086 134.339c-5.833 1.342-12.364 3.978-14.761 9.867a.274.274 0 0 1-.221.171.272.272 0 0 1-.258-.108l-7.105-9.384a.201.201 0 0 1-.029-.2.211.211 0 0 1 .159-.131 13.59 13.59 0 0 0 5.156-2.099c.143-.095.148-.198.013-.309a110.9 110.9 0 0 0-20.647-13.563c-.218-.111-.243-.078-.076.098 3.114 3.316 5.551 7.16 8.315 10.744a.31.31 0 0 1 .062.148.307.307 0 0 1-.113.288.318.318 0 0 1-.146.066l-10.048 1.812a.296.296 0 0 1-.35-.291c.018-5.303-8.637-10.704-13.027-12.176-14.272-4.771-30.399.071-40.667 10.458-2.046 2.07-3.153 4.627-3.324 7.67-.009.185-.089.224-.242.116l-10.397-7.419c-.541-.385-.551-.783-.031-1.195 9.143-7.236 16.955-13.761 27.321-17.493 1.237-.447 2.178-1.329 3.351-1.915a.543.543 0 0 0 .09-.909c-1.187-.917-2.115-1.306-3.696-1.414-2.813-.192-5.98-.55-8.735.13-1.716.421-4.023.363-5.166.488-41.759 4.546-62.868 45.13-63.844 82.868-.003.146.065.201.206.165 21.305-5.696 43.359-7.947 65.386-7.679.158 0 .227-.077.206-.233-2.074-15.42 1.106-32.184 10.478-44.839 6.258-8.449 16.727-14.378 27.281-9.594 7.773 3.522 12.821 11.451 15.177 19.52 3.893 13.322 2.8 27.449-1.939 40.418-.066.188-.003.302.188.344a195.334 195.334 0 0 1 18.828 5.039c.182.06.273-.006.273-.197.099-17.027 7.146-49.166 27.407-52.957 11.361-.116 16.898 10.047 17.565 19.905.121 1.768.399 3.495.448 4.954.524 15.282-2.374 32.108-10.975 45.099-.09.137-.07.255.058.353 6.726 5.075 12.094 11.31 16.105 18.706a.603.603 0 0 1 .058.425c-3.87 18.171-11.599 34.499-23.187 48.983a.806.806 0 0 0-.179.407 105.621 105.621 0 0 0-.614 25.181c.775 8.14 5.103 28.64 16.284 28.698 10.393.054 19.393-16.544 22.47-24.711a.323.323 0 0 0-.085-.376c-4.005-3.898-8.574-10.216-9.027-15.922-.352-4.448.251-8.799 1.81-13.053 2.912-7.944 8.306-11.268 14.98-15.649 4.126-2.703 7.06-6.758 8.803-11.327.981-2.559 1.765-7.782 4.811-8.829 3.208-1.096 7.056-.814 10.129.407a.22.22 0 0 0 .244-.058.22.22 0 0 0 .043-.076l.268-.837a.956.956 0 0 1 .211-.349c.684-.725 1.133-1.667 1.348-2.828 1.464-7.903 2.966-16.041 4.507-24.415a1.544 1.544 0 0 1 .824-1.101 38178.47 38178.47 0 0 0 37.298-18.943c4.507-2.291 7.571-.819 10.662 2.748a9433.438 9433.438 0 0 1 23.523 27.248.452.452 0 0 1 .108.394 351.553 351.553 0 0 1-1.309 7.473c-3.951 21.182-7.896 42.363-11.835 63.545-.264 1.405-.134 3.208-.699 4.792a.6.6 0 0 0 .215.681c4.888 3.49 8.691 7.817 10.59 13.599 1.927 5.858 2.912 13.738.645 19.529-2.378 6.077-7.427 10.418-14.281 9.948-2.762-.191-5.222-.982-7.378-2.372-7.719-4.985-14.349-9.684-22.193-12.49a119.253 119.253 0 0 0-26.233-6.153c-3.266-.389-8.596 2.506-10.057 5.496-9.282 18.969-22.77 41.438-42.844 50.782-19.442 9.053-36.509-1.728-46.768-17.985-9.461-14.991-14.788-32.538-17.986-49.86a.223.223 0 0 0-.121-.163.23.23 0 0 0-.103-.025.23.23 0 0 0-.103.022 127.312 127.312 0 0 1-26.852 9.527.241.241 0 0 0-.188.228 2832.68 2832.68 0 0 0-1.026 30.77c-.058 2.099-.349 5.8-.206 8.74.05.953-.228 1.929-.259 2.806-2.638 74.171-5.264 148.329-7.88 222.474a.073.073 0 0 0 .011.043.07.07 0 0 0 .034.03.07.07 0 0 0 .045.006.078.078 0 0 0 .04-.021c28.768-25.799 72.338-27.808 106.03-11.738 20.445 9.751 35.811 25.874 43.453 47.175a25.397 25.397 0 0 1 1.371 11.317.242.242 0 0 1-.08.157.237.237 0 0 1-.162.063l-394.788.742c-.188 0-.256-.102-.202-.308 1.117-4.439 2.262-8.901 3.436-13.385.821-3.138 1.85-5.847 3.087-8.127 18.21-33.562 57.994-53.775 95.592-51.972 15.455.743 30.31 5.697 42.329 15.457.149.122.239.088.269-.103l40.394-257.419a.315.315 0 0 0-.207-.345 119.883 119.883 0 0 1-32.966-17.412.313.313 0 0 0-.407.027c-15.07 14.418-32.698 25.516-51.764 35.066-7.615 3.816-15.108 6.82-22.479 9.013-2.959.88-4.739 1.42-5.34 1.619-3.073 1.021-6.665 1.808-6.58 5.03-.15-.047-.259-.01-.327.112-6.375 11.407-16.584 20.648-29.414 24.098a.475.475 0 0 0-.314.282c-4.959 12.333-10.182 28.125-24.584 30.819-8.033.591-13.426-5.133-13.328-12.906.027-2.16.744-5.024 2.151-8.592.104-.056.189-.197.255-.42.039-.132-.006-.172-.134-.121a41.69 41.69 0 0 1-8.664 2.515c-5.91.071-10.323-2.102-13.238-6.52-5.259-7.97-.21-16.531 6.048-21.78a.207.207 0 0 0 .061-.237.21.21 0 0 0-.204-.134c-4.736.174-10.886-.6-14.546-3.571-4.628-3.755-5.936-10.373-3.078-15.618 2.563-4.708 7.092-7.514 12.109-9.031 9.112-2.752 18.479-4.067 27.967-4.877a.246.246 0 0 0 .128-.049.246.246 0 0 0 .088-.249.246.246 0 0 0-.068-.119c-8.955-8.565-8.902-22.728 2.593-29.163 5.349-2.998 13.664-1.929 16.213 4.354.143.352.416 1.532.819 3.54 2.083 10.377 13.095 12.695 21.938 13.617 6.07.631 14.191-2.224 19.697-4.73 22.174-10.095 40.438-29.047 51.508-50.531a.426.426 0 0 0 .049-.197.419.419 0 0 0-.045-.197c-36.635-73.918 14.774-154.548 93.03-165.96a.56.56 0 0 0 .372-.205c3.435-4.17 5.564-8.89 6.388-14.159.096-.594.312-1.332.65-2.215.412-1.079.533-2.484.699-3.37a3938.37 3938.37 0 0 0 4.99-27.458c.332-1.889.488-3.817.909-5.634a153.169 153.169 0 0 0 2.101-10.928.337.337 0 0 0-.183-.349c-6.317-3.07-11.437-9.894-9.685-17.13 1.657-6.843 8.56-11.345 15.177-13.027C475.49-.595 486.183.734 493.816 6.89c4.843 3.907 7.02 10.512 4.543 16.348-1.963 4.609-5.609 7.173-9.963 9.37a.331.331 0 0 0-.193.318c.075 4.836.149 7.995.224 9.478.072 1.432.762 2.68.632 4.188-.135 1.558-.368 2.994-.314 4.556.382 11.411.793 22.82 1.232 34.225.093 2.434.363 4.336.811 5.705 1.026 3.124 3.642 7.751 6.988 8.928 2.485.871 4.955 1.754 7.41 2.649 14.738 5.367 27.907 13.34 39.506 23.919a.578.578 0 0 0 .596.134c22.349-6.856 44.461 5.012 45.805 30.05.108 2.031.403 3.53.856 5.356.054.218-.032.327-.256.327h-11.795c-.239 0-.315-.111-.228-.331 1.698-4.274 2.513-7.429 1.568-11.461-3.333-14.261-18.013-19.757-31.152-16.311ZM483.97 21.69c2.06-.85 4.95-3.307 2.401-5.567-3.871-3.432-10.886-4.032-15.827-3.226-4.775.774-13.466 5.46-3.1 9.147 5.603 1.996 11.111 1.878 16.526-.354Zm-13.139 68.24c4.016-.68 6.241-3.333 6.674-7.957.362-.501.451-1.353.269-2.555a3427.036 3427.036 0 0 0-1.084-31.303c-.03-.779-.23-1.4-.6-1.866-1.169-1.472-4.856-4.31-5.6-.497a1679.639 1679.639 0 0 0-6.088 32.851c-.361 2.062-.488 3.522-.381 4.381.435 3.558 3.06 6.637 6.81 6.945Zm-98.702 61.49-4.332 6.193c-10.381 16.146-15.824 33.852-16.328 53.118a.108.108 0 0 0 .017.068c.012.02.03.036.052.046a.129.129 0 0 0 .137-.02c8.336-7.365 17.672-11.997 27.975-16.06a.33.33 0 0 0 .151-.12.329.329 0 0 0 .06-.185c.43-25.999 7.499-51.551 24.58-71.586a.098.098 0 0 0 .023-.063.105.105 0 0 0-.024-.063.1.1 0 0 0-.124-.022c-12.687 7.515-23.416 17.08-32.187 28.694Zm97.864 32.296c.287.747.148 1.647.318 2.354 1.469 6.251 6.478 16.674 14.935 13.358 2.061-.806 3.972-2.292 5.734-4.457.096-.117.074-.203-.067-.26-3.885-1.605-6.984-3.831-9.295-6.677-7.508-9.232-3.14-20.294 7.902-23.31a.178.178 0 0 0 .119-.239.17.17 0 0 0-.061-.079c-10.303-7.383-6.079-19.537 6.438-19.269.176.003.221-.073.134-.228-6.025-10.798-15.106-5.715-20.096 2.17-6.688 10.579-8.494 24.004-6.464 36.176a.26.26 0 0 0 .166.206.42.42 0 0 1 .237.255Zm74.753 27.127c2.092.255 5.658-4.806 6.612-6.618.066-.129.037-.228-.085-.3-11.791-6.945-8.637-21.046 3.835-24.706.167-.051.203-.15.107-.296-3.024-4.725-3.597-10.359-.184-15.054 1.416-1.948 3.501-3.131 6.254-3.548.152-.021.224-.109.215-.264-.201-3.182-1.908-7.406-5.689-6.574-5.268 1.159-9.851 10.386-11.585 15.067-3.751 10.093-5.118 20.479-4.103 31.16.246 2.595.994 5.267 1.644 7.849.273 1.078 1.801 3.146 2.979 3.284Zm20.853 21.27c-2.71-4.856-6.948-9.317-11.459-12.521a.306.306 0 0 0-.385-.005c-12.176 8.373-21.337-.604-24.298-12.113a.976.976 0 0 0-.627-.685 197.429 197.429 0 0 0-25.754-7.003.932.932 0 0 0-.932.358c-12.902 17.488-32.626 15.125-41.258-4.762a.368.368 0 0 0-.314-.232c-.66-.078-1.499-.121-2.517-.13-6.878-.069-13.18.05-18.905.358-.17.009-.279.094-.327.255-4.937 16.584-5.335 33.956-2.464 51.229.027.161.121.238.282.229a269.2 269.2 0 0 1 49.121 1.906c.161.021.265-.045.313-.197 3.906-11.953 12.068-21.654 23.958-26.062 5.602-2.08 10.933-2.035 15.992.134 15.505 6.645 11.683 25.619 7.997 38.172-.039.128.004.219.129.273a100.97 100.97 0 0 1 14.062 7.075c.126.077.232.058.318-.059 8.004-10.838 13.71-22.779 17.117-35.822a.5.5 0 0 0-.049-.398ZM423.982 196.64l-9.399 1.342-12.068 2.367a77.115 77.115 0 0 0-10.29 2.703.31.31 0 0 0-.228.3c-.039.6-.018 1.329.062 2.188 1.485 16.072 5.657 31.269 12.517 45.592.065.137.173.19.322.161a192.875 192.875 0 0 1 19.586-3.155c.188-.021.268-.126.241-.314-2.383-16.087-2.62-31.311.766-47.233l.946-3.893c.041-.167-.024-.245-.197-.233l-2.258.175Zm-60.638 62.224a24.155 24.155 0 0 1 10.29 3.679.5.5 0 0 0 .515.013 90.146 90.146 0 0 1 18.981-8.122.194.194 0 0 0 .117-.102.191.191 0 0 0 .017-.077.17.17 0 0 0-.018-.076c-6.839-14.869-11.064-30.457-12.677-46.764-.018-.161-.102-.211-.251-.152-10.505 4.037-21.646 10.66-27.08 20.854-.296.55-.269.953-.17 1.535a94.694 94.694 0 0 0 10.039 29.056c.051.092.13.144.237.156Zm268.085 31.097c-.905.031-.292 1.32.801 1.087 2.372.594 4.785.968 7.24 1.124.454.408.84.461 1.16.156.242.492 30.354 5.191 33.468 5.692 2.12.343 3.449-.525 3.987-2.604a.535.535 0 0 1 .251-.327c.407-.223.595-.519.685-.998a4026.013 4026.013 0 0 0 11.558-65.308.583.583 0 0 0-.076-.416 6.387 6.387 0 0 0-.533-.783 3364.862 3364.862 0 0 0-15.617-18.074c-.833-.958-1.586-1.662-2.258-2.112a.438.438 0 0 0-.483-.032l-28.308 14.374a.447.447 0 0 0-.246.335 32209.646 32209.646 0 0 0-6.482 37c-.48 2.761-.914 6.435-1.546 9.634-1.402 7.138-2.912 15.533-3.713 20.487-.018.113.019.368.112.765Zm-45.004 49.023-7.19 4.372c-10.715 4.006-18.828.461-26.045-7.67l-3.964-6.198c-2.388-5.047-3.62-9.146-5.291-15-.588-2.321-2.17-3.532-4.744-3.633-1.61.035-3.109.771-4.497 2.206-2.261 2.339-3.711 5.091-4.35 8.256-.193.958-.251 2.367-.524 3.553a.944.944 0 0 0 .004.439 11.6 11.6 0 0 1 .367 2.904c0 .582.453 1.034.426 1.665-.054 1.36-.233 2.394.206 3.732 4.793 14.588 16.494 41.313 36.214 38.31 12.839-1.955 24.495-15.523 31.183-25.61 2.281-3.441 4.7-6.757 6.72-10.36 3.718-6.623 7.324-12.592 12.342-18.213 2.625-2.944 7.27-4.555 10.988-4.851 3.277-.259 5.337-.325 6.182-.197a164.788 164.788 0 0 1 19.613 4.202c10.388 2.896 19.065 7.509 28.276 13.846 1.894 1.307 3.892 2.743 6.07 2.761a.509.509 0 0 0 .389-.161c1.275-1.295 1.928-2.885 1.958-4.77.098-6.4-1.34-12.656-6.957-16.406-.66-.441-1.456-.735-2.388-.881-20.135-3.189-40.271-6.35-60.409-9.483a5.73 5.73 0 0 0-.972-.067c-.391-.289-.773-.359-1.147-.21l-2.074-.761a.483.483 0 0 1-.309-.537c.777-4.887 1.531-9.72 2.262-14.499.412-2.716 1.268-5.003-1.639-6.659a.33.33 0 0 1-.143-.407.326.326 0 0 1 .089-.125c7.454-6.413 13.291-16.853 4.256-25.114-.511-.468-1.235-.852-2.173-1.15-.032-.011-.067-.014-.101-.011a.26.26 0 0 0-.096.032.24.24 0 0 0-.112.163c-1.398 7.817-7.669 16.718-14.729 19.658-5.421 2.256-9.058 5.061-9.645 11.13-.771 7.911 3.319 13.125 8.704 18.642 3.991 4.081 2.217 7.769.058 12.879-3.933 9.308-9.241 17.699-16.808 24.223Zm-91.61-79.211c-1.142 8.596 4.359 17.085 13.753 16.517 4.62-.525 8.349-2.6 11.186-6.225l2.096-2.976a.48.48 0 0 0 .076-.416c-2.307-8.99-11.271-7.697-15.302-1.181a.235.235 0 0 1-.348.059.23.23 0 0 1-.073-.108c-1.277-3.903-5.004-8.364-9.502-8.337-1.89-.913-1.917 1.311-1.886 2.667Zm-8.417 49.909c4.019-.755 7.119-1.538 9.3-2.349 1.4-.525 4.617-1.972 9.649-4.341 13.215-5.697 25.44-14.714 35.206-25.109.122-.131.106-.242-.049-.331a94.085 94.085 0 0 0-11.222-5.379c-.149-.06-.27-.022-.363.112-5.201 7.536-16.364 16.324-26.161 15.327-7.602-.779-15.178-5.854-17.431-13.439-1.287-4.326-1.813-8.672-1.577-13.04.015-.256-.106-.401-.363-.434a260.568 260.568 0 0 0-44.344-1.83.143.143 0 0 0-.063.018.152.152 0 0 0-.076.165 144.886 144.886 0 0 0 16.503 39.734c.457.757.866 1.56 1.227 2.407a.368.368 0 0 0 .121.152.353.353 0 0 0 .18.067c8.341.737 15.661 3.822 21.959 9.255a.552.552 0 0 0 .43.121l7.074-1.106Zm-48.368-16.311 1.452 1.051c.161.117.198.086.112-.094l-1.335-2.783a170.414 170.414 0 0 1-11.119-31.571c-.051-.212-.185-.303-.403-.273l-15.899 2.336c-.209.033-.26.139-.152.318 7.227 11.987 16.342 22.325 27.344 31.016Zm-46.437-5.495c.077 1.159.278 4.036 1.17 4.685 4.805 3.496 9.713 6.495 14.724 8.995 1.698.859 11.106 5.414 12.046 5.106a.698.698 0 0 1 .475.013l5.21 1.96a.478.478 0 0 0 .417-.031 79.62 79.62 0 0 1 7.996-3.755c.209-.086.224-.197.045-.331-14.338-10.65-25.896-23.753-34.673-39.308a.27.27 0 0 0-.309-.125 86.977 86.977 0 0 0-14.635 5.544.28.28 0 0 0-.102.082.309.309 0 0 0-.056.117.279.279 0 0 0 .059.244c4.136 4.92 6.681 10.521 7.633 16.804Zm-41.186 0c-.793 1.181-2.195 1.705-3.118 2.81-5.985 7.164-12.978 14.302-20.701 19.658-13.645 9.465-29.83 16.155-46.486 16.75-15.065.537-28.325-6.793-30.798-22.648a.432.432 0 0 0-.237-.326c-1.222-.668-2.386-.548-3.494.362-4.023 3.303-4.758 7.908-3.038 12.732 1.738 4.882 5.887 8.784 10.59 10.901a.346.346 0 0 1 .215.313c.332 6.578 6.021 13.501 12.454 15.009a.239.239 0 0 1 .097.048.247.247 0 0 1 .06.301c-.654 1.226-4.117.707-5.224.452-5.693-1.307-10.594-4.005-13.573-9.281a.344.344 0 0 0-.363-.188c-11.629 1.177-23.496 2.099-34.669 5.755-2.136.702-5.913 3.177-5.308 5.88 1.416 6.328 26.363.264 30.816-.985 6.227-1.749 9.905 5.258 4.592 8.87-.893.605-3.266 1.844-7.119 3.714-2.204 1.071-5.283 3.076-9.237 6.014-2.553 1.893-10.388 8.516-7.553 11.989 4.135 5.066 14.147-1.374 17.834-4.395a127.097 127.097 0 0 0 8.951-8.072c3.413-3.383 9.21-1.338 8.359 3.727-.132.785-.641 1.935-1.528 3.45-3.118 5.308-6.234 10.617-9.349 15.927-1.344 2.287-3.431 6.609-2.885 9.16.574 2.663 3.848 1.692 5.465.658 6.698-4.3 10.519-15.859 13.431-22.939 1.2-2.931 3.355-6.242 6.594-6.793 12.951-2.197 23.375-15.403 27.183-27.261.26-.81.685-1.271 1.617-1.262 12.073.116 24.02-4.037 34.749-9.698 12.059-6.367 23.2-14.32 33.553-23.158 2.464-2.103 4.145-3.882 5.044-5.338 2.84-4.605 3.279-12.539-1.25-16.508-5.684-4.977-12.184-.801-15.674 4.372Zm127.609 319.701-15.253-3.794a.303.303 0 0 1-.234-.279.298.298 0 0 1 .019-.129c1.836-5.039 2.141-11.344 2.329-16.691 2.667-75.222 5.332-150.442 7.996-225.66.165-4.711.247-7.08.247-7.107-.327-9.276-6.146-20.974-15.702-23.614-.152-.042-.234.016-.246.174l-26.403 291.751c-.004.04 0 .08.013.118a.297.297 0 0 0 .06.103.29.29 0 0 0 .213.093l182.293-.314a.15.15 0 0 0 .126-.068.159.159 0 0 0 .024-.069.14.14 0 0 0-.011-.073c-7.548-17.797-22.882-31.15-40.859-38.292-19.998-7.939-40.373-8.895-61.126-2.869-13.027 3.786-30.381 11.38-33.217 26.55-.03.149-.12.206-.269.17Zm-101.17-7.258c.457-3.941-.437-7.257-2.683-9.948-8.933-10.691-23.635-16.186-37.469-17.296-35.367-2.828-73.763 16.696-89.173 49.391a.203.203 0 0 0-.019.097.2.2 0 0 0 .203.184c6.11-.143 13.95.032 18.322.041 50.795.085 101.6-.381 152.391-.188.242.003.375-.117.399-.358l26.314-290.879c.014-.164-.054-.211-.207-.143-10.348 4.578-17.224 15.636-20.051 26.336a286.619 286.619 0 0 0-3.212 13.51c-.089.42-.167.842-.233 1.266a196872.925 196872.925 0 0 0-31.559 200.448c-1.035 6.6-1.169 11.617-.027 17.672.407 2.161 1.487 3.987 2.45 6.014a.607.607 0 0 1-.421.855l-14.774 3.226c-.188.039-.272-.037-.251-.228Z"/><path fill="#FAED9A" d="M486.371 16.123c2.549 2.26-.341 4.717-2.401 5.567-5.415 2.232-10.923 2.35-16.526.354-10.366-3.688-1.675-8.373 3.1-9.147 4.941-.806 11.956-.206 15.827 3.226Z"/><path fill="#fff" d="M477.774 79.418a2.288 2.288 0 0 0-.354.908c-1.818 1.383-2.19 2.345-4.636 2.694a.284.284 0 0 0-.169.088.296.296 0 0 0-.078.176c-.201 2.331-.233 4.703-1.706 6.645-3.75-.308-6.375-3.387-6.81-6.945-.107-.86.02-2.32.381-4.38a1679.639 1679.639 0 0 1 6.088-32.852c.744-3.813 4.431-.975 5.6.497.37.465.57 1.087.6 1.866.409 10.442.771 20.876 1.084 31.303Z"/><path fill="#FAED9A" d="m477.42 80.326.085 1.647c-.433 4.624-2.657 7.276-6.674 7.956 1.474-1.942 1.505-4.314 1.706-6.645a.296.296 0 0 1 .078-.176.285.285 0 0 1 .169-.088c2.446-.35 2.818-1.311 4.636-2.694Zm72.666 54.013 5.075 6.305c-20.261 3.791-27.308 35.93-27.407 52.957 0 .191-.091.257-.273.197a195.334 195.334 0 0 0-18.828-5.039c-.191-.042-.254-.156-.188-.344 4.739-12.969 5.832-27.096 1.94-40.418-2.357-8.069-7.405-15.998-15.178-19.52-10.554-4.784-21.023 1.145-27.281 9.594-9.372 12.655-12.552 29.419-10.478 44.839.021.156-.048.233-.206.233-22.027-.268-44.081 1.983-65.386 7.679-.141.036-.209-.019-.206-.165.976-37.738 22.085-78.322 63.845-82.868 1.142-.125 3.449-.067 5.165-.488 2.755-.68 5.922-.322 8.735-.13 1.581.108 2.509.497 3.696 1.414a.536.536 0 0 1 .114.731.556.556 0 0 1-.204.178c-1.173.586-2.114 1.468-3.351 1.915-10.366 3.732-18.178 10.257-27.321 17.493-.52.412-.51.81.031 1.195l10.397 7.419c.153.108.233.069.242-.116.171-3.043 1.279-5.6 3.324-7.67 10.268-10.387 26.395-15.229 40.667-10.458 4.39 1.472 13.045 6.873 13.027 12.176 0 .043.01.086.028.126a.278.278 0 0 0 .079.101.29.29 0 0 0 .243.064l10.048-1.812a.318.318 0 0 0 .241-.195.308.308 0 0 0 .018-.159.31.31 0 0 0-.062-.148c-2.764-3.584-5.201-7.428-8.315-10.744-.167-.176-.141-.209.077-.098a110.966 110.966 0 0 1 20.647 13.563c.134.111.129.214-.014.309a13.59 13.59 0 0 1-5.156 2.099.206.206 0 0 0-.159.131.205.205 0 0 0 .029.2l7.105 9.384a.277.277 0 0 0 .479-.063c2.397-5.889 8.928-8.525 14.761-9.867Z"/><path fill="#fff" d="M367.797 157.613c.892.112 1.496-.103 1.909-.966a215.101 215.101 0 0 0 2.423-5.227c8.771-11.614 19.5-21.179 32.187-28.694.02-.011.043-.015.066-.011a.095.095 0 0 1 .058.033c.015.018.023.04.024.063a.098.098 0 0 1-.023.063c-17.081 20.035-24.15 45.587-24.58 71.586a.329.329 0 0 1-.06.185.33.33 0 0 1-.151.12c-10.303 4.063-19.639 8.695-27.975 16.06a.129.129 0 0 1-.137.02.125.125 0 0 1-.053-.046.115.115 0 0 1-.016-.068c.504-19.266 5.947-36.972 16.328-53.118Zm101.958 25.848a.26.26 0 0 1-.165-.206c-2.03-12.172-.224-25.597 6.464-36.176 4.99-7.885 14.071-12.968 20.096-2.17.087.155.042.231-.134.228-12.517-.268-16.741 11.886-6.438 19.269a.17.17 0 0 1 .061.079.175.175 0 0 1-.034.187.179.179 0 0 1-.085.052c-11.043 3.016-15.41 14.078-7.902 23.31 2.311 2.846 5.41 5.072 9.295 6.677.141.057.163.143.067.259-1.762 2.166-3.673 3.652-5.734 4.458-8.457 3.316-13.466-7.107-14.935-13.358-.17-.707-.031-1.607-.318-2.354a.42.42 0 0 0-.238-.255Z"/><path fill="#FAED9A" d="M372.129 151.42a215.101 215.101 0 0 1-2.423 5.227c-.413.863-1.017 1.078-1.909.966l4.332-6.193Z"/><path fill="#fff" d="M544.746 210.843c-1.178-.138-2.706-2.206-2.979-3.284-.65-2.582-1.398-5.254-1.644-7.849-1.015-10.681.352-21.067 4.103-31.16 1.734-4.681 6.317-13.908 11.585-15.067 3.781-.832 5.488 3.392 5.689 6.574.009.155-.063.243-.215.264-2.753.417-4.838 1.6-6.254 3.548-3.413 4.695-2.84 10.329.184 15.054.096.146.06.245-.107.296-12.472 3.66-15.626 17.761-3.835 24.706.122.072.151.172.085.3-.954 1.812-4.52 6.873-6.612 6.618Z"/><path fill="#FAED9A" d="M554.14 219.592c4.511 3.204 8.749 7.665 11.459 12.521a.5.5 0 0 1 .049.398c-3.407 13.043-9.113 24.984-17.117 35.822-.086.117-.192.136-.318.059a100.97 100.97 0 0 0-14.062-7.075c-.125-.054-.168-.145-.129-.273 3.686-12.553 7.508-31.527-7.997-38.172-5.059-2.169-10.39-2.214-15.992-.134-11.889 4.408-20.052 14.109-23.958 26.062-.048.152-.152.218-.313.197a269.2 269.2 0 0 0-49.121-1.906c-.161.009-.255-.068-.282-.229-2.871-17.273-2.473-34.645 2.464-51.229.048-.161.157-.246.327-.255 5.725-.308 12.027-.427 18.905-.358 1.018.009 1.857.052 2.517.129a.37.37 0 0 1 .314.233c8.632 19.887 28.356 22.25 41.258 4.762a.932.932 0 0 1 .932-.358 197.429 197.429 0 0 1 25.754 7.003.976.976 0 0 1 .627.685c2.961 11.509 12.122 20.486 24.298 12.113a.306.306 0 0 1 .385.005Zm-128.649-19.001c-.101-1.435-.604-2.752-1.509-3.951l2.258-.175c.173-.012.239.066.197.233l-.946 3.893Z"/><path fill="#fff" d="M423.982 196.64c.905 1.199 1.408 2.516 1.509 3.951-3.386 15.922-3.149 31.146-.766 47.233.027.188-.053.293-.241.314a192.875 192.875 0 0 0-19.586 3.155c-.149.029-.257-.024-.322-.161-6.86-14.323-11.032-29.52-12.517-45.592-.08-.859-.101-1.588-.062-2.188a.31.31 0 0 1 .228-.3 77.115 77.115 0 0 1 10.29-2.703l11.28-.613a.32.32 0 0 0 .313-.246l.475-1.508 9.399-1.342Z"/><path fill="#FAED9A" d="m414.583 197.982-.474 1.508a.322.322 0 0 1-.314.246l-11.28.613 12.068-2.367Z"/><path fill="#fff" d="M363.344 258.864a.293.293 0 0 1-.237-.156 94.694 94.694 0 0 1-10.039-29.056c-.099-.582-.126-.985.17-1.535 5.434-10.194 16.575-16.817 27.08-20.854.149-.059.233-.009.251.152 1.613 16.307 5.838 31.895 12.677 46.764a.17.17 0 0 1 .018.076.191.191 0 0 1-.064.14.194.194 0 0 1-.07.039 90.146 90.146 0 0 0-18.981 8.122.496.496 0 0 1-.515-.013 24.155 24.155 0 0 0-10.29-3.679Zm277.286 33.464-.452-.59c-.093-.123-.201-.138-.323-.045a1.33 1.33 0 0 0-.385.479 40.156 40.156 0 0 1-7.24-1.124l-.801-1.087c-.093-.397-.13-.652-.112-.765.801-4.954 2.311-13.349 3.713-20.487.632-3.199 1.066-6.873 1.546-9.634 2.153-12.333 4.314-24.666 6.482-36.999a.447.447 0 0 1 .246-.336l28.308-14.374a.438.438 0 0 1 .483.032c.672.45 1.425 1.154 2.258 2.112a3320.412 3320.412 0 0 1 15.617 18.074c.137.161.315.422.533.783a.584.584 0 0 1 .076.417 4027.82 4027.82 0 0 1-11.558 65.307c-.089.479-.278.775-.685.998a.518.518 0 0 0-.251.327c-.538 2.079-1.867 2.948-3.987 2.604-3.113-.501-33.226-5.199-33.468-5.692Zm10.491-65.111c-.654.158-1.236.093-1.747-.197a.466.466 0 0 0-.586.118.462.462 0 0 0-.09.196l-2.957 15.447a.72.72 0 0 0 .322.742.706.706 0 0 0 .265.1l13.256 2.121c.2.033.321-.051.363-.251l3.319-15.823a.39.39 0 0 0-.318-.466 310.213 310.213 0 0 0-10.433-1.571c-.242-.032-.363-.173-.363-.42.212-.194.346-.443.403-.748.021-.119-.019-.146-.121-.08l-1.313.832Zm17.364 19.833 12.328 1.929c.125.018.2-.036.224-.161l2.697-15.125a1.227 1.227 0 0 0-.207-.925 1.231 1.231 0 0 0-.806-.498l-10.975-1.764a.511.511 0 0 0-.582.412l-2.863 15.873c-.027.149.034.236.184.259Zm-26.74 17.766c.856.407 1.609.743 2.567.9a465.58 465.58 0 0 0 10.859 1.691c.137.021.221-.037.251-.174l3.333-15.976a.288.288 0 0 0-.046-.224.279.279 0 0 0-.192-.121l-13.77-2.103a.189.189 0 0 0-.211.143l-2.983 15.493a.336.336 0 0 0 .192.371Zm25.503-12.588-2.84 16.423a.094.094 0 0 0 .016.069.1.1 0 0 0 .06.039l11.33 1.955c.169.029.338.042.5.038.161-.004.31-.025.439-.062a.857.857 0 0 0 .312-.151.358.358 0 0 0 .137-.219l2.661-15.38c.027-.163-.082-.341-.303-.497-.22-.156-.535-.277-.875-.336l-11.329-1.955a.094.094 0 0 0-.069.016.098.098 0 0 0-.039.06Zm-29.624 32.743c-.461 2.574 10.429 3.415 13.081 3.75.155.021.248-.044.278-.196l3.31-15.918a.28.28 0 0 0-.047-.228.296.296 0 0 0-.199-.125l-12.633-1.92c-.621-.093-.996.168-1.124.783a550.737 550.737 0 0 0-2.666 13.854Zm38.387-9.218-12.557-2.166a.103.103 0 0 0-.116.081l-2.742 15.832a4.307 4.307 0 0 0-.056.516.882.882 0 0 0 .009.161c.008.039.019.059.034.061l12.538 2.162c.03.003.071-.069.114-.2.044-.13.087-.309.119-.498l2.737-15.833a.103.103 0 0 0-.08-.116Z"/><path fill="#E30002" d="M651.121 227.217c.26.257.604.255 1.031-.004 0 .247.121.388.363.42 3.494.466 6.972.989 10.433 1.571a.401.401 0 0 1 .259.167.393.393 0 0 1 .059.299l-3.319 15.823c-.042.2-.163.283-.363.251l-13.256-2.121a.706.706 0 0 1-.471-.296.708.708 0 0 1-.116-.546l2.957-15.447a.462.462 0 0 1 .676-.314c.511.29 1.093.355 1.747.197Zm17.364 19.833c-.15-.024-.211-.11-.184-.259l2.863-15.873a.506.506 0 0 1 .582-.412l10.975 1.763a1.225 1.225 0 0 1 1.013 1.423l-2.697 15.126c-.024.125-.099.179-.224.161l-12.328-1.929Zm-26.74 17.766a.34.34 0 0 1-.192-.371l2.983-15.493a.189.189 0 0 1 .211-.143l13.77 2.103a.279.279 0 0 1 .192.121.288.288 0 0 1 .046.224l-3.333 15.976c-.03.137-.114.195-.251.174a465.58 465.58 0 0 1-10.859-1.691c-.958-.157-1.711-.493-2.567-.9Z"/><path fill="#FAED9A" d="M618.885 301.52c.027.065.038.14.032.224a.314.314 0 0 0 .097.243.317.317 0 0 0 .248.088c.283-.027.54-.142.77-.345.32-.006.644.017.972.067 20.138 3.133 40.274 6.294 60.409 9.483.932.146 1.728.44 2.388.881 5.618 3.75 7.055 10.006 6.957 16.406-.03 1.885-.682 3.475-1.958 4.77a.509.509 0 0 1-.389.161c-2.178-.018-4.176-1.454-6.07-2.761-9.211-6.337-17.888-10.95-28.276-13.846a164.788 164.788 0 0 0-19.613-4.202c-.845-.128-2.905-.062-6.182.197-3.718.296-8.363 1.907-10.988 4.851-5.018 5.621-8.624 11.59-12.342 18.213-2.02 3.603-4.439 6.919-6.72 10.36-6.688 10.087-18.344 23.655-31.183 25.61-19.72 3.003-31.421-23.722-36.214-38.31-.439-1.338-.26-2.372-.206-3.732.027-.631-.426-1.083-.426-1.665 0-.984-.122-1.952-.367-2.904a.944.944 0 0 1-.004-.439c.273-1.186.331-2.595.524-3.553.639-3.165 2.089-5.917 4.35-8.256 1.388-1.435 2.887-2.171 4.497-2.206 2.144.76 3.726 1.972 4.744 3.633 1.671 5.854 2.903 9.953 5.291 15l2.629 6.382c.06.143.166.204.318.183a2.593 2.593 0 0 0 1.017-.367c7.217 8.131 15.33 11.676 26.045 7.67 2.808-.748 5.204-2.206 7.19-4.372 7.567-6.524 12.875-14.915 16.808-24.223 2.159-5.11 3.933-8.798-.058-12.879-5.385-5.517-9.475-10.731-8.704-18.642.587-6.069 4.224-8.874 9.645-11.13 7.06-2.94 13.331-11.841 14.729-19.658a.23.23 0 0 1 .039-.094.233.233 0 0 1 .17-.101.243.243 0 0 1 .1.011c.938.298 1.662.682 2.173 1.15 9.035 8.261 3.198 18.701-4.256 25.114a.326.326 0 0 0 .054.532c2.907 1.656 2.052 3.943 1.639 6.659-.731 4.779-1.485 9.612-2.262 14.499a.483.483 0 0 0 .309.537l2.074.761Zm-55.176 60.345a5.428 5.428 0 0 0 1.89.676c.182.03.203-.017.063-.139a3.314 3.314 0 0 0-1.864-.801.146.146 0 0 0-.091.022.144.144 0 0 0 .002.242Z"/><path fill="#E30002" d="M667.248 252.228a.098.098 0 0 1 .039-.06.094.094 0 0 1 .069-.016l11.329 1.955c.34.059.655.18.875.336.221.156.33.334.303.497l-2.661 15.38a.358.358 0 0 1-.137.219.857.857 0 0 1-.312.151 1.767 1.767 0 0 1-.439.062 2.594 2.594 0 0 1-.5-.038l-11.33-1.955a.1.1 0 0 1-.06-.039.094.094 0 0 1-.016-.069l2.84-16.423Z"/><path fill="#FAED9A" d="m496.701 257.106-1.886 2.667c-.031-1.356-.004-3.58 1.886-2.667Z"/><path fill="#fff" d="M496.701 257.106c4.498-.027 8.225 4.434 9.502 8.337a.23.23 0 0 0 .194.159.235.235 0 0 0 .227-.11c4.031-6.516 12.995-7.809 15.302 1.181a.48.48 0 0 1-.076.416l-2.096 2.976c-2.616 1.665-4.955 3.45-7.862 4.694a69.236 69.236 0 0 0-3.324 1.531c-9.394.568-14.895-7.921-13.753-16.517l1.886-2.667Z"/><path fill="#FAED9A" d="M505.347 302.992c-6.406 2.094-11.844 4.547-18.949 6.69l-7.074 1.105a.532.532 0 0 1-.43-.12c-6.298-5.433-13.618-8.518-21.959-9.255a.353.353 0 0 1-.18-.067.368.368 0 0 1-.121-.152 19.27 19.27 0 0 0-1.227-2.407 144.886 144.886 0 0 1-16.503-39.734.152.152 0 0 1 .139-.183 260.568 260.568 0 0 1 44.344 1.83c.257.033.378.178.363.434-.236 4.368.29 8.714 1.577 13.04 2.253 7.585 9.829 12.66 17.431 13.439 9.797.997 20.96-7.791 26.161-15.327.093-.134.214-.172.363-.112a94.085 94.085 0 0 1 11.222 5.379c.155.089.171.2.049.331-9.766 10.395-21.991 19.412-35.206 25.109Z"/><path fill="#fff" d="M438.259 291.545c.31.806.234 1.414-.229 1.826-11.002-8.69-20.117-19.029-27.344-31.016-.108-.179-.057-.285.152-.318l15.899-2.336c.218-.03.352.061.403.273a170.414 170.414 0 0 0 11.119 31.571Zm-30.772 10.011a18.83 18.83 0 0 0-3.74-2.538c-4.632-2.385-8.449-7.459-12.154-11.142-.952-6.283-3.497-11.884-7.633-16.804a.273.273 0 0 1-.058-.115.295.295 0 0 1-.001-.129.292.292 0 0 1 .158-.199 86.977 86.977 0 0 1 14.635-5.544.27.27 0 0 1 .309.125c8.777 15.555 20.335 28.658 34.673 39.308.179.134.164.245-.045.331a79.62 79.62 0 0 0-7.996 3.755.478.478 0 0 1-.417.031l-5.21-1.96a.698.698 0 0 0-.475-.013c-.94.308-10.348-4.247-12.046-5.106Z"/><path fill="#FAED9A" d="M519.754 270.065c-2.837 3.625-6.566 5.7-11.186 6.225a69.236 69.236 0 0 1 3.324-1.531c2.907-1.244 5.246-3.029 7.862-4.694Z"/><path fill="#E30002" d="M650.705 288.721c-2.652-.335-13.542-1.177-13.081-3.75a555.344 555.344 0 0 1 2.665-13.854c.129-.615.504-.876 1.125-.783l12.633 1.919a.3.3 0 0 1 .199.126.294.294 0 0 1 .047.228l-3.311 15.918c-.029.152-.122.217-.277.196Zm25.306-12.968a.103.103 0 0 1 .08.116l-2.737 15.833a3.596 3.596 0 0 1-.119.498c-.043.131-.084.202-.114.2l-12.538-2.162c-.015-.002-.026-.022-.034-.061a.888.888 0 0 1-.009-.162 4.307 4.307 0 0 1 .056-.515l2.742-15.832a.102.102 0 0 1 .116-.081l12.557 2.166Z"/><path fill="#FAED9A" d="M350.407 287.876c3.49-5.174 9.99-9.349 15.674-4.372 4.529 3.969 4.09 11.903 1.25 16.508-.899 1.456-2.58 3.235-5.044 5.338-10.352 8.838-21.494 16.79-33.553 23.158-10.729 5.661-22.676 9.814-34.749 9.698-.932-.009-1.357.452-1.617 1.262-3.808 11.858-14.232 25.064-27.183 27.261-3.239.551-5.394 3.862-6.594 6.793-2.912 7.08-6.733 18.639-13.431 22.939-1.617 1.034-4.891 2.005-5.465-.658-.546-2.551 1.541-6.873 2.885-9.16 3.115-5.31 6.231-10.619 9.349-15.927.887-1.515 1.396-2.665 1.528-3.45.851-5.065-4.946-7.111-8.359-3.727a127.097 127.097 0 0 1-8.951 8.072c-3.687 3.021-13.699 9.461-17.834 4.395-2.835-3.473 5-10.096 7.553-11.989 3.954-2.938 7.033-4.943 9.237-6.014 3.853-1.871 6.226-3.109 7.119-3.714 5.313-3.612 1.635-10.619-4.592-8.87-4.453 1.249-29.4 7.312-30.816.985-.605-2.703 3.172-5.178 5.309-5.88 11.172-3.656 23.039-4.578 34.668-5.755a.344.344 0 0 1 .363.188c2.979 5.276 7.88 7.974 13.573 9.281 1.107.255 4.57.774 5.224-.452a.25.25 0 0 0-.06-.301.233.233 0 0 0-.097-.048c-6.433-1.508-12.122-8.431-12.454-15.009a.346.346 0 0 0-.215-.313c-4.703-2.117-8.852-6.019-10.59-10.901-1.72-4.824-.985-9.429 3.038-12.732 1.108-.91 2.272-1.031 3.494-.362.134.071.213.18.237.326 2.473 15.855 15.733 23.185 30.798 22.648 16.656-.595 32.841-7.285 46.486-16.75 7.723-5.356 14.716-12.494 20.701-19.658.923-1.105 2.325-1.629 3.118-2.81Zm41.186 0c3.705 3.683 7.522 8.757 12.154 11.142a18.83 18.83 0 0 1 3.74 2.538c-5.011-2.5-9.919-5.499-14.724-8.995-.892-.649-1.093-3.526-1.17-4.685Zm46.666 3.669 1.335 2.784c.086.179.049.21-.112.094l-1.452-1.052c.463-.412.539-1.02.229-1.826Zm40.026 315.862c2.836-15.17 20.19-22.764 33.217-26.55 20.753-6.026 41.128-5.07 61.126 2.869 17.977 7.142 33.311 20.495 40.859 38.292a.14.14 0 0 1 .011.073.159.159 0 0 1-.024.069.15.15 0 0 1-.126.068l-182.293.314a.29.29 0 0 1-.213-.094.284.284 0 0 1-.06-.102.278.278 0 0 1-.013-.118l26.403-291.751c.012-.158.094-.216.246-.174 9.556 2.64 15.375 14.338 15.702 23.614 0 .027-.082 2.396-.247 7.107a4407713 4407713 0 0 1-7.996 225.66c-.188 5.347-.493 11.652-2.329 16.691a.298.298 0 0 0-.019.129.29.29 0 0 0 .035.125.29.29 0 0 0 .083.098.283.283 0 0 0 .116.055l15.253 3.795c.149.036.239-.021.269-.17Zm-101.188-6.86 14.774-3.226a.607.607 0 0 0 .421-.855c-.963-2.027-2.042-3.853-2.45-6.014-1.142-6.055-1.008-11.072.027-17.672a196872.925 196872.925 0 0 1 31.559-200.448c.066-.424.144-.846.233-1.266a286.619 286.619 0 0 1 3.212-13.51c2.827-10.7 9.703-21.758 20.051-26.336.153-.068.221-.021.207.143l-26.314 290.879c-.024.241-.157.361-.399.358-50.791-.193-101.596.273-152.391.188-4.372-.009-12.212-.184-18.322-.041a.182.182 0 0 1-.097-.022.191.191 0 0 1-.074-.067.19.19 0 0 1-.032-.095.203.203 0 0 1 .019-.097c15.41-32.695 53.806-52.219 89.173-49.391 13.834 1.11 28.536 6.605 37.469 17.296 2.246 2.691 3.14 6.007 2.683 9.948-.021.191.063.267.251.228Z"/><path fill="#FAED9A" d="M297.896 351.957c.047.245.043.42-.014.524-5.971 11.353-16.687 20.276-29.078 23.928a.761.761 0 0 0-.519.474c-2.845 7.276-5.69 14.347-10.232 21.041-3.037 4.475-9.062 9.474-14.796 9.344 14.402-2.694 19.625-18.486 24.584-30.819a.475.475 0 0 1 .314-.282c12.83-3.45 23.039-12.691 29.414-24.098.068-.122.177-.159.327-.112ZM232.08 385.77c-2.87 1.212-5.718 1.869-8.543 1.974a41.69 41.69 0 0 0 8.664-2.515c.128-.051.173-.011.134.121-.066.223-.151.364-.255.42Z"/></svg>