<svg xmlns="http://www.w3.org/2000/svg" width="900" height="683" fill="none"><path stroke="#E30002" stroke-width="2" d="M656.008 360.565c-.478 5.219-1.891 10.042-4.241 14.471-3.123 5.872-9.873 5.316-12.308-.978a190.6 190.6 0 0 1-4.585-13.295 22.92 22.92 0 0 0-2.188-4.982.42.42 0 0 0-.483-.191.401.401 0 0 0-.161.09c-1.22 1.065-2.069 2.443-2.547 4.134-.997 3.549-3.476 13.726-6.648 15.566-3.031 1.752-6.797-.252-7.083-3.767-.058-.723.166-1.704.673-2.944 1.736-4.263 3.194-8.429 4.372-12.496 1.33-4.593 4.014-7.793 8.052-9.6 10.787-4.832 14.757 9.707 16.796 16.674a.231.231 0 0 0 .39.097.236.236 0 0 0 .065-.146l1.152-15.091c.019-.213-.068-.272-.262-.179l-1.166.567c-.197.097-.297.035-.301-.184-.1-6.882-.045-14.671.165-23.37.194-8.003.494-17.129-.499-25.873m-16.689-49.688c-8.023-13.479-19.745-27.809-28.484-38.843-1.514-1.911-3.41-4.616-5.689-8.115-14.67-22.517-29.432-45.689-36.25-71.547-1.728-6.55-2.701-14.089-3.849-21.138a132.157 132.157 0 0 0-5.437-21.627c-3.888-11.314-7.684-22.372-14.302-32.452a29.663 29.663 0 0 0-2.092-2.803c-5.156-6.09-10.962-11.746-16.772-17.212a97.71 97.71 0 0 0-27.292-18.155c-.898-.4-1.796-.793-2.697-1.177m-22.48-3.713c-6.12.179-12.506.866-18.335 1.326-7.198.562-14.989 1.603-23.371 3.123-19.677 3.568-36.889 13.024-49.492 28.23-11.359 13.717-19.667 30.522-22.364 48.227-.586 3.834-.692 8.162-.876 12.239-.217 4.738-.142 14.947.222 30.627.029 1.38.291 3.438.189 5.2l-.223 3.883c-.246 22.159-2.111 42.256-10.472 61.869a832.586 832.586 0 0 1-8.347 18.925m0 0c-.068-6.037-1.908-11.309-7.084-14.621m13.097-56.524.407-10.569"/><path stroke="#E30002" stroke-width="2" d="M336.519 144.533c.184-14.51-.775-28.967-.078-43.525 1.153-24.115 11.795-46.91 27.225-65.176M274.192 426.22c-5.145-.081-9.737-1.641-13.775-4.682"/><path stroke="#E30002" stroke-width="2" d="M652.333 398.231c-2.813-2.488-6.478-1.99-7.964 1.4-1.177 2.672 1.99 9.823 2.958 12.704.077.225.011.279-.199.159-2.019-1.166-4.401-2.096-6.686-1.491-3.191.852-5.016 3.946-5.215 7.258a288.117 288.117 0 0 1-.789 10.171.751.751 0 0 0 .087.427l.102.193a.117.117 0 0 1 .012.069.124.124 0 0 1-.028.064.128.128 0 0 1-.059.038.128.128 0 0 1-.07-.001l-4.677-1.419a.509.509 0 0 0-.605.262c-8.057 16.199-19.216 29.904-33.476 41.113a1389.058 1389.058 0 0 1-25.893 19.865c-9.761 7.306-18.423 15.183-29.128 24.856-5.552 5.016-12.035 9.835-19.449 14.457-19.289 12.031-40.791 18.136-63.499 17.163a1816.49 1816.49 0 0 1-9.669-.446c-10.129-.48-19.922-2.135-29.379-4.962-8.383-2.508-19.848-6.104-34.396-10.787-10.061-3.244-19.914-7.257-29.815-10.971-10.279-3.854-19.677-9.174-29.249-14.485-9.349-5.191-17.004-11.809-23.85-20.136-2.629-3.191-5.04-7.267-6.749-9.785-2.741-4.047-5.437-8.041-7.408-12.534a680.581 680.581 0 0 1-7.214-17.062c-2.387-5.863-4.028-11.992-5.834-18.131"/><path stroke="#FAED9A" stroke-width="2" d="M274.192 426.22c11.252-2.019 19.018-13.382 21.308-23.675 1.143-5.138 1.882-8.858 2.217-11.16.246-1.697-.164-3.316-1.229-4.856a.466.466 0 0 1-.058-.44 420.985 420.985 0 0 0 5.916-17.333c.659-2.078 2.158-3.631 4.498-4.657a.57.57 0 0 1 .426-.019c1.041.363 5.292 3.587 5.713 4.58a230.483 230.483 0 0 0 8.885 18.46c2.731 5.093 7.567 10.433 13.528 11.155 6.236.76 9.547-4.876 9.794-10.283.17-3.661-.363-7.108-1.51-10.831-2.794-9.049-7.331-18.877-10.72-26.652-2.106-4.827-2.764-8.444-1.598-13.29a.5.5 0 0 1 .296-.363c1.355-.61 2.295-.567 3.66.213a89.678 89.678 0 0 0 24.683 9.581c7.907 1.792 16.273 1.438 22.219-4.783 1.399-1.467 2.595-3.505 3.771-5.321 5.278-8.143 3.849-18.281-3.999-24.193-6.023-4.536-13.707-8.589-21.178-9.944-9.215-1.669-17.278-3.351-24.189-5.045-1.83-.45-2.706-1.423-2.575-3.287.116-1.603 2.701-3.583 3.82-4.668 2.435-2.367 4.522-3.331 8.105-4.517 5.069-1.685 10.574-3.742 14.568-7.427a216.746 216.746 0 0 0 9.509-9.31"/><path stroke="#E30002" stroke-width="2" d="M370.052 268.155a31.091 31.091 0 0 0 5.423 5.699c12.719 10.317 32.333 15.192 46.19 3.728 10.516-8.7 14.607-21.564 17.038-34.544 3.069-16.394 4.58-32.616 4.532-48.667-.02-7.214-.123-13.245-.31-18.092-.644-16.66-5.229-33.15-15.222-46.73-7.413-10.071-19.895-17.706-32.774-16.51-1.879.174-3.936.612-6.173 1.312-10.206 3.191-17.856 9.499-21.923 19.56-3.98 9.844-6.162 19.613-6.546 29.305-.078 1.859-.731 4.222-.475 6.391.993 8.521.925 16.931.789 25.495-.014.688.267 1.38.213 2.145-.765 10.148-2.198 20.968-2.517 31.412-.233 7.688.532 14.5 2.517 21.704"/><path stroke="#FAED9A" stroke-width="2" d="M360.814 250.363c-1.631.092-3.331.256-4.861-.576-3.97-2.164-7.141-1.487-11.378.397a85.95 85.95 0 0 0-18.572 11.222c-.223.175-.425.154-.606-.063-2.395-2.805-3.008-5.89-1.839-9.257 2.909-8.371 5.868-16.693 6.541-25.839m6.42-81.714-3.264 9.368"/><path stroke="#E30002" stroke-width="2" d="M606.313 476.673a1721.864 1721.864 0 0 1-29.767 22.842c-5.549 4.159-10.473 8.424-15.556 12.811a.392.392 0 0 0-.131.426l17.459 63.617m-54.329 15.459-11.411-44.46a.292.292 0 0 0-.159-.191.296.296 0 0 0-.248-.002c-13.649 6.357-27.433 9.479-42.442 10.699m-99.677-289.719c5.055-7.877-.416-16.722-9.238-17.792m109.66 12.234c4.876 14.888 18.849 23.675 34.265 22.997 10.705-.469 20.853-6.269 28.004-14.118 2.292-2.517 4.409-5.645 6.353-9.382 7.412-14.268 9.891-29.558 7.862-45.379-1.103-8.609-2.227-17.173-2.813-25.902a2050.036 2050.036 0 0 0-1.646-22.833c-.741-9.562-3.36-19.056-8.119-27.359-6.658-11.615-19.12-21.031-33.05-20.32-4.503.228-9.175 1.753-13.377 3.66-17.029 7.732-22.795 32.981-20.766 49.616.106.881.64 4.065 1.602 9.552 1.22 6.982 2.968 14.534 3.201 21.249.358 10.531-1.637 20.514-3.791 30.753-.885 4.19-1.132 8.847-.741 13.973.324 4.285 1.854 9.94 3.016 13.493Zm138.797 49.708c-.629 2.135 1.031 5.722 3.69 5.872 3.263.188 5.358-1.276 6.284-4.391 1.622-5.442 1.603-10.675 2.13-16.379a.808.808 0 0 1 .801-.73c.133 0 .264.033.381.096 2.421 1.288 6.86 4.338 9.514 4.464 8.139.387 8.235-7.654 7.543-13.454a.589.589 0 0 0-.256-.421.597.597 0 0 0-.485-.088c-9.964 2.469-18.86 6.497-26.687 12.085-.407.29-.688.711-.697 1.263a49.639 49.639 0 0 1-.901 8.294c-.247 1.268-1.017 2.362-1.317 3.389Zm-2.091 32.278a.158.158 0 0 1 .023-.092.154.154 0 0 1 .248-.019c4.604 5.078 10.651 3.51 13.949-1.884.949-1.549 2.571-4.601 4.866-9.155.248-.494.66-1.072 1.234-1.733.12-.139.241-.142.363-.01 1.937 2.072 4.823 3.394 7.602 2.614 4.372-1.224 6.517-6.841 7.785-10.661 2.276-6.85-7.558-9.523-9.16-2.662a.342.342 0 0 1-.086.157.34.34 0 0 1-.486-.007c-2.832-3.055-6.768-2.024-9.581.397-4.818 4.149-7.113 9.184-9.974 14.65a.285.285 0 0 1-.399.11.285.285 0 0 1-.105-.11 54.961 54.961 0 0 0-4.556-7.088c-3.704-4.895-8.986-2.74-10.235 2.634-1.879 8.09-1.249 17.269.063 25.403.179 1.123-.45 2.527-.441 3.564.016 1.778.613 3.227 1.792 4.347 2.537 2.421 7.228 1.273 7.887-2.343 1.021-5.616-.567-12.104-.789-18.112Zm-19.27-15.028c-1.216 2.542 3.65 2.789 4.793 2.469 2.692-.755 4.11-3.573 3.094-6.221-.63-1.632-2.436-2.74-3.806-3.927-.113-.1-.203-.084-.271.049a261.958 261.958 0 0 0-3.81 7.63Zm-2.581 7.935a.253.253 0 0 0-.119-.067.265.265 0 0 0-.322.198l-1.849 7.809c-.049.2.022.263.213.189 3.486-1.346 5.026-5.21 2.077-8.129Zm-2.813 11.828a64.789 64.789 0 0 0-.688 12.239c.073 1.898.625 4.701.47 7.127a.481.481 0 0 0 .509.507.482.482 0 0 0 .251-.091c7.437-5.432 2.566-13.595-.368-19.806-.084-.181-.142-.173-.174.024Zm-235.379 85.37c-.116 6.613.072 12.81 3.733 18.475a819.493 819.493 0 0 0 7.683 11.663c.41.61 1.143 1.31 2.199 2.101 3.476 2.595 6.395 6.27 9.765 9.102m12.87 9.523c8.09 4.764 16.863 9.364 25.874 12.123 23.225 7.098 48.668 8.836 73.046 4.546 16.249-2.856 32.885-10.627 46.558-19.695 19.27-12.776 41.13-31.983 44.21-56.306.682-5.384-.557-10.845-2.412-15.861-3.277-8.894-9.368-16.906-16.626-22.953-2.469-2.058-5.829-4.28-8.739-6.362-11.461-8.187-25.003-12.52-38.99-12.656-10.959-.106-22.309 1.045-34.052 3.452-3.636.746-8.018 2-12.25 3.762a44.493 44.493 0 0 1-6.841 2.222c-2.886.688-5.568 1.763-8.449 2.131-10.003 1.263-19.066 2.57-30.009 2.89-4.851.142-8.075.292-9.673.45-18.413 1.821-35.122 9.131-47.347 23.031-1.458 1.656-2.62 3.675-3.966 5.539m242.4-15.323c.429-4.064.902-8.137 1.419-12.22.203-1.608.314-3.898.019-5.161-1.346-5.742-9.093-5.336-9.388 1.084-.092 1.917-.886 6.067-.179 7.722a69.376 69.376 0 0 0 11.223 18.088c.094.107.202.126.324.058l4.43-2.508a.581.581 0 0 1 .743.152.575.575 0 0 1 .11.25c.393 2.269.584 4.617.571 7.045-.01 1.742.779 2.096 1.97 3.113 3.538 3.017 6.785 5.369 9.742 7.054.229.132.324.067.286-.194-.344-2.227-1.472-4.193-1.816-6.207-1.201-7.015.75-18.489-8.923-20.6-4.14-.901-6.706.595-10.153 2.575a.245.245 0 0 1-.264-.008.259.259 0 0 1-.114-.243Zm21.057-6.793c-.286.833-.732 1.83-.901 2.498-2.203 8.783 6.125 12.607 13.378 11.963 4.352-.382 6.197-6.017 2.387-8.613-1.54-1.05-3.869-1.084-5.806-1.2a.411.411 0 0 1-.343-.601c6.134-11.968-9.601-15.889-17.421-15.822-5.882.049-6.788 8.681.296 9.495 2.804.322 5.542.949 8.211 1.878a.326.326 0 0 1 .182.16.323.323 0 0 1 .017.242ZM406.021 271.326c4.891-.542 8.527-3.432 11.456-7.213.119-.159.085-.268-.102-.33-22.068-7.344-28.982-31.213-17.231-50.462 5.309-8.696 12.733-14.851 22.271-18.466.172-.064.168-.121-.009-.169-11.209-3.099-18.66-11.596-18.641-23.297.02-11.446 7.883-22.794 16.704-29.698.139-.107.176-.242.111-.407a7.825 7.825 0 0 0-1.989-3.001m-1.763-2.489c-2.511-3.389-5.724-5.984-9.64-7.785m-3.2-1.467c-5.491-2.266-11.64-.901-16.685 1.83-4.56 2.464-7.461 6.338-9.359 11.068-4.044 10.08-5.731 20.561-5.059 31.445.169 2.736.092 5.471.392 8.182.513 4.667.655 8.941.426 12.82-.436 7.366-1.277 18.763-2.522 34.191-.325 4.004.058 7.161.711 11 1.419 8.38 2.373 15.672 7.302 22.392"/><path stroke="#E30002" stroke-width="2" d="M484.254 144.954c-3.351 6.92-5.016 14.176-4.997 21.767.003 2.35.353 5.552 1.051 9.606a7268.598 7268.598 0 0 0 3.239 18.737c1.995 11.411.847 23.849-1.68 35.105-1.782 7.959-3.961 16.045-2.673 24.232 1.535 9.731 5.863 16.582 15.983 18.872 2.754.624 5.529.203 8.356-.218.139-.019.189-.097.15-.233-11.697-41.031-2.851-84.725 23.052-118.204a.969.969 0 0 0 .135-.944c-3.646-9.306-8.981-16.447-18.592-20.136-2.708-1.039-5.703-1.156-8.986-.349m-231.017 89.35a1181.462 1181.462 0 0 0 4.677 30.627c.488 2.928.917 8.779 1.288 17.555.053 1.336-.581 2.058-1.506 2.852a.698.698 0 0 1-.426.174c-1.22.058-2.277-.332-3.171-1.171-8.463-7.936-16.568-16.229-25.007-24.179-6.522-6.139-12.463-13.362-17.285-20.315-3.67-5.287-10.899-2.246-9.955 3.656.191 1.197.897 2.716 2.121 4.555 3.282 4.924 6.391 9.407 10.647 13.813 6.425 6.652 12.661 13.484 18.442 20.775 3.208 4.051 6.425 8.097 9.649 12.138.739.926.647 1.823-.276 2.691a.707.707 0 0 1-.765.131 341.655 341.655 0 0 1-8.478-3.829c-5.461-2.557-11.668-6.411-17.575-9.069-9.674-4.354-17.12-7.757-22.34-10.21-5.233-2.455-15.207-7.553-17.817.479-1.356 4.169 2.13 7.219 5.602 8.7 5.674 2.411 11.668 4.682 16.917 7.417a274.544 274.544 0 0 1 17.081 9.679"/><path stroke="#E30002" stroke-width="2" d="M232.94 290.634a52.059 52.059 0 0 0 10.105 4.024c2.392.677 5.844 2.377 5.021 5.461-.654 2.469-3.273 3.466-5.563 2.445-5.176-2.305-10.88-2.871-16.234-4.658-3.845-1.288-7.026-3.568-11.291-1.559-1.351.634-3.966 2.566-3.317 4.275.22.591.933 1.541 2.14 2.852 4.546 4.953 10.139 8.38 16.844 9.315 5.137.716 9.427.954 14.559.106 3.617-.595 7.999.823 6.561 5.292-.731 2.266-3.99 3.457-6.072 3.946a101.322 101.322 0 0 0-20.427 7.127 887.418 887.418 0 0 0-9.025 4.333c-1.554.755-3.428 1.05-5.146 1.922-4.464 2.266-9.142 3.965-13.76 5.877-4.082 1.7-11.829 5.195-14.298 8.88-1.879 2.808.179 5.441 2.813 6.424 2.74 1.027 7.127.257 9.712-.803 5.234-2.145 13.146-6.425 19.987-9.122 2.376-.939 4.495-1.903 6.357-2.89 8.483-4.496 14.885-7.785 19.207-9.867 7.568-3.636 11.857 2.551 5.786 8.1-3.576 3.266-7.753 6.612-12.53 10.036-3.215 2.305-5.607 5.873-8.173 8.836-5.273 6.1-11.325 11.619-16.84 17.54-2.062 2.218-4.159 4.513-3.849 7.553.344 3.302 3.477 5.553 6.687 4.266.907-.365 2.08-1.261 3.52-2.688 15.328-15.178 31.698-30.573 46.601-47.925 1.21-1.414 2.397-2.881 4.009-3.162.219-.039.347.053.382.276l.213 1.414a.584.584 0 0 1-.106.436c-3.375 4.599-7.495 9.697-9.848 14.345-3.67 7.252-6.506 12.441-8.507 15.565-6.343 9.901-11.935 18.466-16.152 28.797-1.457 3.578-1.786 6.381.697 9.301a.57.57 0 0 0 .392.208c.349.036.614.176.795.421.09.123.209.2.358.233 4.585 1.021 6.923-2.542 9.102-5.767 3.641-5.393 6.556-10.002 9.926-15.981a1657.776 1657.776 0 0 1 18.321-31.668c1.443-2.437 3.413-6.207 5.911-11.31.901-1.835 2.107-2.76 4.019-3.123a.26.26 0 0 1 .235.073.275.275 0 0 1 .063.11.26.26 0 0 1 .002.127 9644.043 9644.043 0 0 0-11.494 52.574c-1.411 6.545-2.392 12.258-2.944 17.138-.213 1.892-.195 3.289.053 4.193 1.322 4.788 7.428 4.895 9.815.944 1.91-3.16 3.813-7.062 5.708-11.706 3.907-9.567 7.582-19.575 9.756-29.688a682.076 682.076 0 0 0 7.074-38.248c.305-1.98 3.481-.426 4.653-.082a.56.56 0 0 1 .353.28c.362.646.696 1.304 1.002 1.976 4.997 10.985 9.887 22.062 15.339 32.83a201.26 201.26 0 0 1 6.831 14.96c2.934 7.194 11.727 2.948 10.158-3.742-.532-2.276-1.698-5.223-3.495-8.841-2.804-5.635-5.994-11.164-8.207-17.032-1.311-3.47-2.619-6.94-3.927-10.41-2.348-6.221-8.478-15.492-11.092-24.158-.265-.885-.292-1.661-.082-2.329.324-1.012 2.333-3.965 3.675-3.307 9.389 4.616 19.163 9.037 29.321 13.266 7.926 3.292 16.781 6.628 24.775 7.727 3.776.518 8.26-.494 10.235-3.956 3.607-6.318-3.287-11.353-8.192-13.275-8.71-3.413-18.674-5.539-28.077-7.8-8.623-2.072-17.135-5.122-25.07-8.279-1.479-.587-3.299-1.421-5.462-2.503a.323.323 0 0 1-.193-.31c-.055-3.272 1.315-5.449 4.11-6.531 2.921-1.133 5.416-2.164 7.485-3.093 8.817-3.956 15.746-10.647 23.822-15.74 3.489-2.198 6.983-4.38 10.482-6.546 6.396-3.955 3.578-13.556-4.779-9.934-5.108 2.212-8.676 4.918-12.806 7.872-5.302 3.805-10.976 6.773-16.656 9.809-2.811 1.5-6.902 4.026-12.273 7.577-.426.28-1.099.405-2.019.372-2.339-.087-4.963-3.655-4.513-5.693 3.472-15.609 10.415-30.782 16.622-45.718 1.782-4.285 4.023-10.477-.93-13.397-3.239-1.907-7.616.823-9.504 3.472-5.868 8.235-8.977 17.279-11.978 27.809a2502.686 2502.686 0 0 0-5.951 21.244c-.6 2.194-4.687 1.743-6.236 1.124a.356.356 0 0 1-.223-.354c.717-9.799 2.411-20.997.823-31.537-1.002-6.647-3.457-14.486-5.267-21.583-.888-3.473-2.06-10.174-3.515-20.102-.214-1.443-.79-3.709-1.501-4.634-2.179-2.817-5.505-3.006-8.033-.677-2.556 2.357-2.697 8.511-2.745 12.762m231.172 179.565a64.687 64.687 0 0 0-1.375 14.578c.014.862.314 1.753.421 2.6m9.272 8.105c1.02.364 1.788.526 2.304.484 4.658-.383 10.812-.344 14.564-1.772 6.948-2.653 12.414-12.477 13.601-19.419m-.949-1.196a43.21 43.21 0 0 0-9.742-4.943m-4.033-1.404a62.59 62.59 0 0 0-21.042-2.416m-45.507 111.054c11.877.125 24.625-1.177 35.94-4.968 21.594-7.233 42.457-20.871 56.948-37.696 5.335-6.197 10.221-13.909 11.663-22.193m-31.325-5.2c-1.314.423-2.694.859-4.14 1.308-3.578 1.108-8.236.997-12.051 1.539m-65.324-32.578c-12.618 1.607-23.327 3.021-37.736 3.195-.546.007-1.272.1-2.179.281-.165.032-.257.132-.276.3-.558 5.032-.213 9.901 1.036 14.607m7.94 4.9c1.501-.025 3.012.067 4.527-.184a223.452 223.452 0 0 1 19.12-2.363m3.452-1.859c.359-.576.93-.91 1.201-1.516 2.205-4.948 3.423-10.238 3.656-15.87.019-.465-.016-.821-.107-1.07m189.291 37.178-.058.251a.074.074 0 0 0-.002.033.063.063 0 0 0 .01.03c.005.01.012.018.021.025a.086.086 0 0 0 .029.014l2.663.615a.904.904 0 0 0 .175.023.638.638 0 0 0 .156-.012.305.305 0 0 0 .112-.045.125.125 0 0 0 .051-.072c.012-.055-.022-.119-.097-.177a.783.783 0 0 0-.3-.133l-2.663-.615a.082.082 0 0 0-.061.011.087.087 0 0 0-.036.052Zm-55.926 217.445c1.97-5.577.445-10.85-.925-15.846-6.924-25.189-13.847-50.384-20.771-75.585-.29-1.056-.723-1.979-1.297-2.77-7.568-10.385-21.725-16.64-33.984-11.275a.556.556 0 0 0-.32.653l32.735 127.554c.103.41.368.611.794.605 46.048-.81 91.653-1.623 136.817-2.44 1.849-.034 1.195-1.607 1.195-2.668.015-24.885-16.849-40.087-41.11-41.38-20.369-1.08-40.705 5.786-58.328 15.706-.146.084-.197.205-.155.363a8.167 8.167 0 0 0 2.493 4.009c.126.113.105.185-.063.218l-16.96 3.001c-.123.02-.163-.029-.121-.145Zm-309.482-18.155c-23.211 2.043-41.808 16.596-45.55 40.329-.029.191.053.284.247.281l129.065-2m6.081-5.219 33.015-116.462a.27.27 0 0 0-.174-.329c-.949-.324-1.806-.644-2.866-.532-10.652 1.123-20.819 6.691-28.61 14.103-1.999 1.898-3.331 3.113-4.014 5.369-6.413 21.277-12.825 42.553-19.236 63.83-1.078 3.576-1.894 6.698-2.45 9.364-1.326 6.381-1.747 10.951-1.447 17.134.006.145-.057.185-.189.121-5.476-2.658-11.47-4.75-17.144-6.962a.22.22 0 0 1-.087-.06.22.22 0 0 1-.047-.094.209.209 0 0 1 .056-.195 21.032 21.032 0 0 0 4.532-7.02.309.309 0 0 0-.145-.387c-12.816-6.827-28.75-11.852-43.382-11.455"/><path stroke="#E30002" stroke-width="2" d="M246.701 660.547c-.004-.071-.021-.124-.054-.159a.144.144 0 0 0-.169-.041.133.133 0 0 0-.049.036l-.232.271a.184.184 0 0 0-.039.076.175.175 0 0 0 .003.085.181.181 0 0 0 .044.073c.021.02.046.034.074.042.242.063.76-.179.422-.383Z"/><path fill="#E30002" d="M656.008 360.565c-.478 5.219-1.892 10.042-4.241 14.471-3.123 5.872-9.873 5.316-12.308-.978a190.6 190.6 0 0 1-4.585-13.295 22.875 22.875 0 0 0-2.189-4.982.424.424 0 0 0-.482-.191.401.401 0 0 0-.161.09c-1.221 1.065-2.069 2.443-2.547 4.134-.998 3.549-3.477 13.726-6.648 15.565-3.031 1.753-6.798-.251-7.083-3.766-.058-.723.166-1.704.673-2.944 1.736-4.264 3.194-8.429 4.372-12.496 1.33-4.593 4.014-7.793 8.052-9.6 10.787-4.832 14.757 9.707 16.795 16.674a.238.238 0 0 0 .094.128c.045.031.1.044.154.038a.228.228 0 0 0 .143-.069.236.236 0 0 0 .065-.146l1.152-15.091c.019-.213-.068-.272-.262-.179l-1.166.567c-.197.097-.297.035-.301-.184-.1-6.882-.045-14.672.165-23.37.194-8.003.494-17.129-.499-25.873-.126-7.504-1.254-14.273-3.418-21.288-1.733-5.611-4.663-11.76-7.224-17.502a71.348 71.348 0 0 0-6.047-10.898c-8.023-13.479-19.745-27.809-28.484-38.843-1.514-1.911-3.41-4.616-5.689-8.115-14.67-22.517-29.432-45.689-36.25-71.547-1.728-6.55-2.701-14.089-3.849-21.138a132.157 132.157 0 0 0-5.437-21.627c-3.888-11.314-7.684-22.372-14.302-32.452a29.663 29.663 0 0 0-2.092-2.803c-5.156-6.09-10.962-11.746-16.772-17.212a97.708 97.708 0 0 0-27.292-18.155c-.898-.4-1.797-.793-2.697-1.177-3.712-1.384-7.235-2.396-10.57-3.036-3.75-.716-7.72-.942-11.91-.677-6.12.179-12.506.866-18.336 1.326-7.198.562-14.988 1.603-23.37 3.123-19.677 3.568-36.889 13.024-49.492 28.23-11.359 13.717-19.667 30.521-22.364 48.227-.586 3.834-.692 8.162-.876 12.239-.217 4.738-.142 14.947.222 30.627.029 1.38.291 3.438.189 5.2l-.223 3.883c-.247 22.159-2.111 42.256-10.472 61.869a837.057 837.057 0 0 1-8.347 18.925c-.068-6.037-1.908-11.309-7.084-14.621 5.81-11.934 10.076-24.44 11.582-37.342a261.18 261.18 0 0 0 1.515-19.182l.407-10.569c.184-14.51-.775-28.967-.078-43.525 1.153-24.115 11.795-46.91 27.225-65.176 14.825-16.921 33.853-26.986 55.767-31.092a237.533 237.533 0 0 1 26.087-3.413C453.823.702 463.347-.48 471.447.208c19.29 1.637 38.545 13.145 52.436 26.231 6.259 5.894 11.055 10.621 14.389 14.181 8.318 8.884 13.383 19.211 17.808 30.966 2.705 7.192 4.471 12.043 5.297 14.554 3.467 10.569 5.103 20.765 7.214 34.379.029.194.132.249.31.165 21.168-10.017 45.575-13.416 68.229-8.066 56.958 13.454 90.366 68.463 86.565 124.939-2.048 30.424-14.051 59.492-34.923 81.778-.11.116-.084.18.077.193 2.899.213 4.532 1.62 4.9 4.222.562 3.965-3.67 5.534-6.43 6.899-3.926 1.946-6.957 3.22-10.724.237-.126-.097-.249-.095-.368.005a100.197 100.197 0 0 1-18.486 12.036.902.902 0 0 0-.494.736l-1.239 16.902Z"/><path fill="#FAED9A" d="M463.168 12.598a161.433 161.433 0 0 1 22.48 3.713c.901.384 1.8.776 2.697 1.177a97.708 97.708 0 0 1 27.292 18.155c5.811 5.466 11.616 11.121 16.772 17.212a29.674 29.674 0 0 1 2.092 2.803c6.618 10.08 10.414 21.138 14.302 32.452a132.16 132.16 0 0 1 5.437 21.627c1.148 7.049 2.121 14.588 3.849 21.138 6.818 25.858 21.58 49.03 36.25 71.548 2.279 3.498 4.175 6.203 5.689 8.114 8.74 11.034 20.461 25.364 28.484 38.843 3.53 5.93 10.715 18.776 13.488 28.12.768 2.602 3.201 10.283 3.201 21.568.993 8.744.693 17.87.499 25.873-.21 8.699-.265 16.488-.165 23.37.004.219.104.281.301.184l1.166-.567c.194-.093.281-.034.262.179l-1.152 15.091a.236.236 0 0 1-.065.146.228.228 0 0 1-.143.069.227.227 0 0 1-.154-.038.238.238 0 0 1-.094-.128c-2.038-6.967-6.008-21.506-16.795-16.674-4.038 1.807-6.722 5.007-8.052 9.6-1.178 4.067-2.636 8.233-4.372 12.496-.507 1.24-.731 2.221-.673 2.944.285 3.515 4.052 5.519 7.083 3.767 3.172-1.84 5.65-12.017 6.648-15.566.478-1.691 1.327-3.069 2.547-4.134a.413.413 0 0 1 .517-.034.42.42 0 0 1 .127.135 22.941 22.941 0 0 1 2.188 4.982 190.6 190.6 0 0 0 4.585 13.295c2.436 6.294 9.185 6.85 12.308.978 2.35-4.429 3.763-9.252 4.241-14.471.765 12.96-.939 25.001-3.675 37.666-2.813-2.488-6.478-1.99-7.964 1.4-1.177 2.672 1.99 9.823 2.958 12.704.077.225.011.279-.199.159-2.019-1.166-4.401-2.096-6.686-1.491-3.191.852-5.016 3.946-5.215 7.258a288.117 288.117 0 0 1-.789 10.171.751.751 0 0 0 .087.427l.102.193a.118.118 0 0 1 .012.069.124.124 0 0 1-.028.064.128.128 0 0 1-.059.038.128.128 0 0 1-.07-.001l-4.677-1.419a.509.509 0 0 0-.606.262c-8.056 16.199-19.215 29.904-33.475 41.113a1389.058 1389.058 0 0 1-25.893 19.865c-9.761 7.306-18.423 15.183-29.128 24.856-5.552 5.016-12.035 9.835-19.449 14.457-19.289 12.031-40.791 18.136-63.499 17.163a1816.49 1816.49 0 0 1-9.669-.446c-10.129-.48-19.922-2.135-29.379-4.962-8.383-2.508-19.848-6.104-34.396-10.787-10.061-3.244-19.914-7.257-29.815-10.971-10.279-3.854-19.677-9.174-29.249-14.485-9.349-5.191-17.004-11.809-23.85-20.136-2.629-3.191-5.04-7.267-6.749-9.785-2.741-4.047-5.437-8.041-7.408-12.534a680.581 680.581 0 0 1-7.214-17.062c-2.387-5.863-4.028-11.992-5.834-18.131 11.252-2.019 19.018-13.382 21.308-23.675 1.143-5.138 1.882-8.858 2.217-11.16.246-1.697-.164-3.316-1.229-4.856a.466.466 0 0 1-.058-.44 420.985 420.985 0 0 0 5.916-17.333c.659-2.078 2.158-3.631 4.498-4.657a.57.57 0 0 1 .426-.019c1.041.363 5.292 3.587 5.713 4.58a230.483 230.483 0 0 0 8.885 18.46c2.731 5.093 7.567 10.433 13.528 11.155 6.236.76 9.547-4.875 9.794-10.283.17-3.661-.363-7.108-1.51-10.831-2.794-9.049-7.331-18.877-10.72-26.652-2.106-4.827-2.764-8.444-1.598-13.29a.5.5 0 0 1 .296-.363c1.355-.61 2.295-.567 3.66.213a89.678 89.678 0 0 0 24.683 9.581c7.907 1.792 16.273 1.438 22.219-4.783 1.399-1.467 2.595-3.505 3.771-5.321 5.278-8.143 3.849-18.281-3.999-24.193-6.023-4.536-13.707-8.589-21.178-9.944-9.215-1.669-17.278-3.351-24.189-5.045-1.83-.45-2.706-1.423-2.575-3.287.116-1.603 2.701-3.583 3.82-4.668 2.435-2.367 4.522-3.331 8.105-4.517 5.069-1.685 10.574-3.742 14.568-7.427a216.746 216.746 0 0 0 9.509-9.31 31.091 31.091 0 0 0 5.423 5.699c12.719 10.317 32.333 15.192 46.19 3.728 10.516-8.7 14.607-21.564 17.038-34.544 3.07-16.394 4.58-32.616 4.532-48.667-.02-7.214-.123-13.245-.31-18.092-.644-16.66-5.229-33.15-15.222-46.73-7.413-10.071-19.895-17.706-32.774-16.51-1.878.174-3.936.612-6.173 1.312-10.206 3.191-17.856 9.499-21.923 19.56-3.98 9.844-6.162 19.613-6.546 29.305-.078 1.859-.731 4.222-.475 6.391.993 8.521.925 16.931.789 25.495-.014.688.267 1.38.213 2.145-.765 10.148-2.198 20.968-2.517 31.411-.233 7.689.532 14.501 2.517 21.705-1.631.092-3.331.256-4.861-.576-3.97-2.164-7.141-1.487-11.378.397a85.95 85.95 0 0 0-18.572 11.222c-.223.175-.425.154-.606-.063-2.395-2.804-3.008-5.89-1.839-9.257 2.909-8.371 5.868-16.693 6.541-25.839a832.586 832.586 0 0 0 8.347-18.925c8.361-19.613 10.226-39.71 10.472-61.869l.223-3.883c.102-1.762-.16-3.82-.189-5.2-.364-15.68-.439-25.889-.222-30.627.184-4.077.29-8.405.876-12.24 2.697-17.704 11.005-34.51 22.364-48.225 12.603-15.207 29.815-24.663 49.492-28.23 8.382-1.521 16.173-2.562 23.37-3.124 5.83-.46 12.216-1.147 18.336-1.326Zm78.247 70.627.155.092a.13.13 0 0 0 .165-.022.132.132 0 0 0 .035-.082.136.136 0 0 0-.026-.085l-.291-.411a.216.216 0 0 0-.167-.091.219.219 0 0 0-.176.072c-.207.226-.191.368.048.426.09.019.176.053.257.101Zm-70.941 179.372c4.876 14.888 18.849 23.675 34.265 22.997 10.705-.469 20.853-6.269 28.004-14.117 2.292-2.518 4.409-5.646 6.352-9.383 7.413-14.268 9.892-29.557 7.863-45.379-1.103-8.609-2.227-17.173-2.813-25.902a2050.036 2050.036 0 0 0-1.646-22.833c-.741-9.562-3.36-19.056-8.119-27.359-6.658-11.615-19.12-21.031-33.05-20.32-4.503.228-9.175 1.753-13.377 3.66-17.029 7.732-22.795 32.981-20.766 49.616.106.881.64 4.065 1.602 9.552 1.22 6.982 2.968 14.534 3.201 21.249.358 10.531-1.637 20.514-3.791 30.754-.885 4.189-1.132 8.847-.741 13.972.324 4.285 1.854 9.94 3.016 13.493Zm138.797 49.708c-.629 2.135 1.031 5.722 3.689 5.872 3.264.188 5.359-1.276 6.285-4.391 1.622-5.442 1.603-10.675 2.13-16.378a.807.807 0 0 1 .801-.731c.133 0 .264.033.381.096 2.421 1.288 6.86 4.338 9.514 4.464 8.139.387 8.235-7.654 7.543-13.454a.589.589 0 0 0-.256-.421.597.597 0 0 0-.485-.088c-9.964 2.469-18.86 6.498-26.687 12.085-.407.29-.688.711-.697 1.263a49.639 49.639 0 0 1-.901 8.294c-.247 1.268-1.017 2.362-1.317 3.389Zm-2.092 32.278a.167.167 0 0 1 .024-.092.154.154 0 0 1 .248-.019c4.604 5.078 10.651 3.51 13.949-1.884.949-1.549 2.571-4.601 4.865-9.155.249-.494.661-1.072 1.235-1.733.12-.139.241-.142.363-.01 1.937 2.072 4.823 3.394 7.602 2.614 4.372-1.224 6.517-6.841 7.785-10.661 2.276-6.85-7.558-9.523-9.16-2.662a.342.342 0 0 1-.086.157.34.34 0 0 1-.486-.007c-2.832-3.055-6.768-2.024-9.581.397-4.818 4.149-7.113 9.184-9.974 14.65a.285.285 0 0 1-.399.11.285.285 0 0 1-.105-.11 54.961 54.961 0 0 0-4.556-7.088c-3.704-4.895-8.986-2.74-10.235 2.634-1.879 8.09-1.249 17.269.063 25.403.179 1.123-.451 2.527-.441 3.563.016 1.779.613 3.228 1.792 4.348 2.537 2.421 7.228 1.273 7.887-2.343 1.021-5.616-.567-12.104-.79-18.112Zm-19.27-15.028c-1.215 2.542 3.651 2.789 4.794 2.469 2.692-.755 4.11-3.573 3.094-6.221-.63-1.632-2.436-2.741-3.806-3.927-.113-.1-.203-.084-.271.049a264.532 264.532 0 0 0-3.811 7.63Zm-2.58 7.935a.253.253 0 0 0-.119-.067.265.265 0 0 0-.322.198l-1.849 7.809c-.049.2.022.263.213.189 3.486-1.346 5.025-5.209 2.077-8.129Zm-2.813 11.828a64.789 64.789 0 0 0-.688 12.239c.073 1.898.625 4.701.47 7.127a.481.481 0 0 0 .509.507.476.476 0 0 0 .251-.091c7.437-5.432 2.566-13.595-.368-19.806-.084-.181-.142-.173-.174.024Zm-228.795 62.547c-5.522 6.336-7.717 13.943-6.584 22.823-.117 6.613.072 12.81 3.733 18.475a819.493 819.493 0 0 0 7.683 11.663c.41.61 1.143 1.31 2.199 2.101 3.476 2.595 6.395 6.27 9.765 9.102a47.845 47.845 0 0 0 12.869 9.523c8.091 4.764 16.864 9.364 25.875 12.123 23.225 7.098 48.668 8.836 73.046 4.546 16.249-2.856 32.885-10.627 46.558-19.695 19.27-12.776 41.13-31.982 44.21-56.306.682-5.384-.557-10.845-2.412-15.861-3.277-8.894-9.368-16.906-16.626-22.953-2.469-2.058-5.829-4.28-8.739-6.362-11.461-8.187-25.003-12.52-38.99-12.656-10.959-.106-22.309 1.045-34.052 3.452-3.636.746-8.018 2-12.25 3.762a44.493 44.493 0 0 1-6.841 2.222c-2.886.688-5.568 1.763-8.449 2.131-10.003 1.263-19.066 2.571-30.009 2.89-4.851.142-8.076.292-9.673.45-18.413 1.821-35.122 9.131-47.347 23.031-1.458 1.656-2.62 3.675-3.966 5.539Zm242.4-15.323c.429-4.064.902-8.137 1.419-12.22.203-1.608.314-3.898.019-5.161-1.346-5.742-9.093-5.336-9.388 1.084-.092 1.917-.886 6.067-.179 7.722a69.376 69.376 0 0 0 11.223 18.088c.094.107.202.126.324.058l4.43-2.508a.581.581 0 0 1 .743.152.575.575 0 0 1 .11.25c.393 2.269.584 4.617.571 7.045-.01 1.742.779 2.096 1.97 3.113 3.538 3.017 6.785 5.369 9.742 7.054.229.132.324.067.286-.194-.344-2.227-1.472-4.193-1.816-6.207-1.201-7.015.75-18.489-8.923-20.6-4.14-.901-6.706.595-10.153 2.575a.245.245 0 0 1-.264-.008.25.25 0 0 1-.091-.105.262.262 0 0 1-.023-.138Zm21.057-6.793c-.286.833-.731 1.83-.901 2.498-2.203 8.783 6.125 12.607 13.378 11.964 4.352-.383 6.197-6.018 2.387-8.613-1.54-1.051-3.869-1.085-5.806-1.201a.411.411 0 0 1-.343-.6c6.134-11.969-9.601-15.89-17.421-15.822-5.882.048-6.788 8.68.296 9.494 2.805.322 5.542.949 8.211 1.878a.32.32 0 0 1 .199.402Z"/><path fill="#fff" d="M363.666 35.832c-15.43 18.267-26.072 41.06-27.225 65.176-.697 14.558.262 29.015.078 43.525l-3.263 9.368c-24.19-10.181-43.895-30.951-48.224-57.149a49.541 49.541 0 0 1-.653-9.634c1.336-41.627 42.834-60.194 79.287-51.286Z"/><path fill="#E30002" d="M370.052 268.155c5.055-7.877-.416-16.722-9.238-17.792-1.985-7.204-2.75-14.016-2.517-21.704.319-10.444 1.752-21.264 2.517-31.412.054-.765-.227-1.457-.213-2.145.136-8.564.204-16.974-.789-25.495-.256-2.169.397-4.532.475-6.391.384-9.692 2.566-19.461 6.546-29.305 4.067-10.061 11.717-16.369 21.923-19.56 2.237-.7 4.294-1.138 6.173-1.312 12.879-1.196 25.361 6.439 32.774 16.51 9.993 13.58 14.578 30.07 15.222 46.73.187 4.847.29 10.878.31 18.092.048 16.051-1.463 32.273-4.532 48.667-2.431 12.98-6.522 25.844-17.038 34.544-13.857 11.464-33.471 6.589-46.19-3.728a31.091 31.091 0 0 1-5.423-5.699Zm9.142-8.685c4.696 8.119 17.904 13.546 26.827 11.856 4.89-.542 8.527-3.432 11.456-7.213.119-.158.085-.268-.102-.33-22.068-7.344-28.982-31.213-17.231-50.462 5.309-8.696 12.733-14.851 22.271-18.466.171-.064.168-.121-.009-.169-11.209-3.099-18.66-11.595-18.641-23.297.02-11.446 7.882-22.794 16.704-29.698.139-.106.176-.242.111-.407a7.816 7.816 0 0 0-1.99-3.001l-1.762-2.489c-2.511-3.389-5.724-5.984-9.64-7.785a9.168 9.168 0 0 0-3.2-1.467c-5.491-2.266-11.64-.9-16.685 1.83-4.561 2.464-7.461 6.338-9.359 11.068-4.044 10.08-5.731 20.562-5.059 31.445.169 2.736.092 5.471.392 8.182.513 4.667.655 8.941.426 12.82-.436 7.366-1.277 18.763-2.522 34.191-.325 4.004.058 7.161.711 11 1.419 8.38 2.373 15.672 7.302 22.392Zm125.545 26.124c-15.416.678-29.389-8.109-34.265-22.997-1.162-3.553-2.692-9.208-3.016-13.493-.391-5.125-.144-9.783.74-13.972 2.155-10.24 4.15-20.223 3.791-30.753-.232-6.716-1.98-14.268-3.2-21.25-.962-5.487-1.496-8.671-1.603-9.552-2.028-16.635 3.738-41.884 20.767-49.615 4.202-1.908 8.874-3.433 13.377-3.661 13.93-.711 26.392 8.705 33.05 20.32 4.759 8.303 7.378 17.797 8.119 27.359.591 7.608 1.14 15.219 1.646 22.833.586 8.729 1.709 17.293 2.813 25.902 2.029 15.822-.45 31.111-7.863 45.379-1.943 3.737-4.06 6.865-6.352 9.383-7.151 7.848-17.299 13.648-28.004 14.117Zm-5.447-152.405c-7.108 1.613-12.187 4.847-15.039 11.765-3.35 6.92-5.016 14.176-4.996 21.768.003 2.349.353 5.551 1.05 9.605a7644.56 7644.56 0 0 0 3.24 18.737c1.994 11.411.847 23.849-1.68 35.105-1.782 7.959-3.961 16.045-2.673 24.232 1.535 9.731 5.863 16.582 15.982 18.872 2.755.624 5.53.203 8.357-.218.139-.019.189-.097.15-.232-11.697-41.032-2.852-84.726 23.052-118.205a.967.967 0 0 0 .135-.944c-3.646-9.306-8.981-16.447-18.592-20.136-2.708-1.039-5.704-1.155-8.986-.349Z"/><path fill="#fff" d="m403.988 126.542 2.576 1.753a.32.32 0 0 0 .402-.005.688.688 0 0 0 .222-.281c3.916 1.801 7.129 4.396 9.64 7.785l-.692 1.089c-.091.139-.06.242.092.31l2.362 1.09a7.816 7.816 0 0 1 1.99 3.001c.065.165.028.3-.111.407-8.822 6.904-16.684 18.252-16.704 29.698-.019 11.701 7.432 20.198 18.641 23.297.177.048.18.105.009.169-9.538 3.615-16.962 9.77-22.271 18.466-11.751 19.249-4.837 43.118 17.231 50.462.187.062.221.171.102.33-2.929 3.781-6.565 6.671-11.456 7.213a28.08 28.08 0 0 1-3.873-1.365c-1.191-.532-2.237.17-3.341.179-2.821.033-5.447-.697-7.877-2.188a96.015 96.015 0 0 1-11.736-8.482c-4.929-6.72-5.883-14.012-7.302-22.392-.653-3.839-1.036-6.996-.711-11 1.245-15.428 2.086-26.825 2.522-34.191.229-3.879.087-8.153-.426-12.82-.3-2.711-.223-5.446-.392-8.182-.672-10.884 1.015-21.365 5.059-31.445 1.898-4.73 4.799-8.604 9.359-11.068 5.045-2.731 11.194-4.096 16.685-1.83Zm80.266 18.412c2.188-3.626 4.546-6.618 9.049-6.633a.474.474 0 0 0 .387-.188 20.485 20.485 0 0 1 5.602-4.944c3.283-.807 6.278-.69 8.986.349 9.611 3.689 14.946 10.83 18.592 20.136a.967.967 0 0 1-.135.944c-25.904 33.479-34.749 77.173-23.052 118.204.039.136-.011.214-.15.233-2.827.421-5.602.842-8.357.218-10.119-2.29-14.447-9.141-15.982-18.872-1.288-8.187.891-16.273 2.673-24.232 2.527-11.256 3.674-23.694 1.68-35.105a7268.598 7268.598 0 0 1-3.239-18.737c-.698-4.054-1.048-7.256-1.051-9.606-.019-7.591 1.646-14.847 4.997-21.767Zm11.179 48.037-.77-.232c-.255-.077-.358.014-.31.276l.717 3.965c.026.142.056.144.092.005.313-1.233.576-2.479.789-3.738.029-.171-.044-.256-.218-.256h-.184a.363.363 0 0 1-.116-.02Z"/><path fill="#FAED9A" d="m336.519 144.533-.407 10.569-2.857-1.201 3.264-9.368Z"/><path fill="#fff" d="M323.015 211.626c5.176 3.312 7.016 8.584 7.084 14.621-.673 9.146-3.632 17.469-6.542 25.839-1.168 3.367-.555 6.453 1.84 9.257.181.217.383.238.606.063a85.95 85.95 0 0 1 18.572-11.222c4.237-1.884 7.408-2.561 11.378-.397 1.53.832 3.23.668 4.861.576 8.822 1.07 14.293 9.915 9.238 17.792a216.746 216.746 0 0 1-9.509 9.31c-3.994 3.685-9.499 5.742-14.568 7.427-3.583 1.186-5.67 2.15-8.105 4.517-1.119 1.085-3.704 3.065-3.821 4.668-.13 1.864.746 2.837 2.576 3.287 6.911 1.694 14.974 3.376 24.189 5.045 7.471 1.355 15.155 5.408 21.178 9.944 7.848 5.912 9.277 16.05 3.999 24.193-1.176 1.816-2.372 3.854-3.771 5.321-5.946 6.221-14.313 6.575-22.219 4.783a89.678 89.678 0 0 1-24.683-9.581c-1.365-.78-2.305-.823-3.66-.213a.497.497 0 0 0-.296.363c-1.167 4.846-.508 8.463 1.598 13.29 3.389 7.775 7.926 17.603 10.72 26.652 1.147 3.723 1.68 7.17 1.51 10.831-.247 5.408-3.558 11.043-9.795 10.283-5.96-.721-10.797-6.062-13.527-11.155a230.142 230.142 0 0 1-8.885-18.46c-.421-.993-4.672-4.217-5.713-4.58a.57.57 0 0 0-.426.019c-2.34 1.026-3.84 2.579-4.498 4.657a419.506 419.506 0 0 1-5.917 17.333.469.469 0 0 0 .059.44c1.065 1.54 1.475 3.159 1.229 4.856-.335 2.302-1.075 6.022-2.217 11.16-2.29 10.293-10.056 21.656-21.308 23.675-5.146-.081-9.737-1.641-13.775-4.682a32.31 32.31 0 0 1-4.503-5.195c-1.961-2.822-6.047-4.27-9.315-4.323a.81.81 0 0 0-.431.111c-8.338 4.934-18.113 1.211-22.587-6.942-.781-1.424-1.888-3.27-3.321-5.539-.964-1.525-1.855-2.053-3.743-2.135-5.084-.223-10.119.247-14.031-3.723-8.095-8.221 2.866-21.526 9.243-28.028 2.58-2.638 6.57-5.809 4.382-8.816a.33.33 0 0 0-.364-.14c-6.144 1.273-12.114 3.989-19.429 7.136-4.978 2.145-9.175 3.558-13.911 2.493-5.679-1.273-9.654-7.078-10.235-12.863-1.235-12.23 11.998-20.243 22.204-22.116 3.351-.615 6.377-1.235 9.533-2.683a172.366 172.366 0 0 0 10.11-5.04c2.459-1.326 2.295-4.304.833-6.337a.804.804 0 0 0-.363-.281c-8.933-3.544-19.023-8.308-16.148-20.121 1.269-5.2 4.534-8.126 9.795-8.778a.28.28 0 0 0 .083-.537c-8.246-3.597-20.166-9.446-22.151-18.722-2.639-12.317 9.63-17.342 19.463-14.384 8.096 2.44 13.533 5.481 20.161 9.087 1.177.639 3.249 1.312 4.624 2.474a.932.932 0 0 0 1.296-.09.932.932 0 0 0 .215-.423c.232-1.06-.01-2.019-.882-2.784-6.521-5.693-11.324-10.714-16.098-17.7-4.856-7.117-6.498-19.928 3.399-23.859 5.669-2.251 10.448 1.186 14.157 5.122a3660.037 3660.037 0 0 1 20.228 21.656c.343.372 1.085.626 2.228.765 3.883.48 4.914-4.125 4.072-6.957-.596-1.999-1.09-3.98-1.719-6.028-3.496-11.4-4.104-23.253-1.826-35.56 1.23-6.614 6.028-12.85 13.184-12.912 8.425-.078 13.363 6.637 16.477 13.512a123.364 123.364 0 0 1 8.114 24.469c.538 2.45 1.477 3.747 4.125 3.399a.358.358 0 0 0 .166-.071.352.352 0 0 0 .106-.142c2.895-7.369 7.364-14.433 15.164-17.405 3.566-1.359 6.998-1.193 10.293.498Zm-55.96-4.875a57.158 57.158 0 0 0-.257 14.563c.02.158.094.282.223.373l1.254.852a1172.9 1172.9 0 0 0 4.677 30.627c.487 2.928.917 8.779 1.288 17.555.053 1.337-.581 2.058-1.506 2.852a.692.692 0 0 1-.426.174c-1.22.058-2.277-.332-3.171-1.171-8.463-7.936-16.568-16.229-25.008-24.179-6.521-6.139-12.462-13.362-17.284-20.315-3.67-5.287-10.899-2.246-9.955 3.656.19 1.197.897 2.716 2.121 4.556 3.282 4.923 6.391 9.407 10.647 13.812 6.425 6.652 12.661 13.484 18.442 20.775 3.208 4.051 6.425 8.097 9.649 12.138.739.926.647 1.823-.276 2.691a.707.707 0 0 1-.765.131 338.007 338.007 0 0 1-8.478-3.829c-5.461-2.557-11.668-6.411-17.575-9.068-9.674-4.355-17.12-7.758-22.34-10.211-5.233-2.455-15.207-7.553-17.817.479-1.356 4.169 2.13 7.219 5.602 8.7 5.674 2.411 11.668 4.682 16.917 7.417a275.345 275.345 0 0 1 17.081 9.679 1.875 1.875 0 0 0-.261.871c-.01.158.064.252.222.281l2.881.474a52.059 52.059 0 0 0 10.105 4.024c2.392.677 5.844 2.377 5.021 5.461-.654 2.469-3.273 3.466-5.563 2.445-5.176-2.305-10.88-2.871-16.235-4.658-3.844-1.288-7.025-3.568-11.29-1.559-1.351.634-3.966 2.566-3.317 4.275.219.591.933 1.541 2.14 2.852 4.546 4.953 10.139 8.381 16.844 9.315 5.137.716 9.427.954 14.559.106 3.617-.595 7.999.823 6.561 5.292-.731 2.266-3.99 3.457-6.072 3.946a101.322 101.322 0 0 0-20.427 7.127 877.332 877.332 0 0 0-9.025 4.333c-1.554.755-3.428 1.05-5.146 1.922-4.465 2.266-9.142 3.965-13.761 5.877-4.081 1.7-11.828 5.195-14.297 8.88-1.879 2.808.179 5.441 2.813 6.424 2.74 1.027 7.127.257 9.712-.803 5.234-2.145 13.146-6.425 19.987-9.122 2.376-.939 4.495-1.902 6.357-2.89 8.483-4.496 14.885-7.785 19.207-9.867 7.568-3.636 11.857 2.551 5.786 8.1-3.577 3.266-7.753 6.612-12.53 10.036-3.215 2.305-5.607 5.873-8.173 8.836-5.273 6.1-11.325 11.619-16.84 17.541-2.062 2.217-4.159 4.512-3.849 7.552.344 3.302 3.477 5.553 6.687 4.266.907-.365 2.08-1.261 3.52-2.687 15.328-15.179 31.698-30.574 46.601-47.926 1.21-1.414 2.396-2.881 4.009-3.162.219-.038.347.054.382.276l.213 1.414a.588.588 0 0 1-.106.436c-3.375 4.599-7.495 9.697-9.848 14.345-3.67 7.252-6.506 12.441-8.507 15.565-6.343 9.901-11.935 18.466-16.152 28.797-1.457 3.578-1.787 6.382.697 9.301a.57.57 0 0 0 .392.208c.349.036.614.176.794.421.091.123.21.2.359.233 4.585 1.021 6.923-2.542 9.102-5.767 3.641-5.393 6.556-10.002 9.926-15.981a1660.865 1660.865 0 0 1 18.321-31.668c1.442-2.437 3.413-6.207 5.911-11.31.901-1.835 2.106-2.76 4.019-3.123a.256.256 0 0 1 .297.183.249.249 0 0 1 .003.127 9664.664 9664.664 0 0 0-11.494 52.574c-1.411 6.545-2.392 12.258-2.944 17.139-.213 1.891-.195 3.289.053 4.192 1.322 4.788 7.428 4.895 9.815.944 1.91-3.16 3.813-7.062 5.708-11.706 3.907-9.567 7.582-19.574 9.756-29.688a682.076 682.076 0 0 0 7.074-38.248c.305-1.98 3.481-.426 4.652-.082a.561.561 0 0 1 .354.28c.361.646.696 1.304 1.002 1.976 4.997 10.985 9.887 22.062 15.339 32.83a201.26 201.26 0 0 1 6.831 14.96c2.934 7.195 11.727 2.949 10.158-3.742-.532-2.276-1.698-5.223-3.496-8.841-2.803-5.635-5.994-11.164-8.206-17.032-1.311-3.47-2.62-6.94-3.927-10.409-2.348-6.222-8.478-15.493-11.092-24.159-.265-.885-.292-1.661-.082-2.329.324-1.012 2.333-3.965 3.674-3.307a515.294 515.294 0 0 0 29.322 13.266c7.926 3.292 16.781 6.628 24.775 7.727 3.776.518 8.26-.494 10.235-3.956 3.607-6.318-3.287-11.353-8.192-13.275-8.71-3.413-18.675-5.539-28.077-7.8-8.623-2.072-17.135-5.122-25.07-8.279-1.479-.587-3.299-1.421-5.462-2.503a.324.324 0 0 1-.194-.31c-.054-3.272 1.316-5.449 4.111-6.531 2.921-1.133 5.416-2.164 7.485-3.093 8.817-3.956 15.746-10.647 23.821-15.74 3.49-2.198 6.984-4.38 10.483-6.546 6.396-3.955 3.578-13.556-4.779-9.934-5.108 2.212-8.676 4.919-12.806 7.872-5.302 3.805-10.976 6.773-16.656 9.809-2.811 1.501-6.902 4.026-12.273 7.577-.426.28-1.099.405-2.019.372-2.339-.087-4.963-3.655-4.513-5.693 3.472-15.609 10.415-30.782 16.622-45.718 1.781-4.285 4.023-10.477-.93-13.397-3.239-1.907-7.616.823-9.504 3.472-5.868 8.235-8.977 17.279-11.979 27.809a2529.901 2529.901 0 0 0-5.95 21.245c-.6 2.193-4.687 1.742-6.236 1.123a.351.351 0 0 1-.223-.354c.717-9.799 2.411-20.997.823-31.537-1.002-6.647-3.457-14.486-5.268-21.583-.887-3.473-2.059-10.174-3.515-20.102-.213-1.443-.789-3.709-1.501-4.634-2.178-2.817-5.505-3.006-8.032-.677-2.556 2.357-2.697 8.511-2.745 12.762Z"/><path fill="#E30002" d="M232.94 290.634c-.781-.752-1.728-1.294-2.842-1.626a274.544 274.544 0 0 0-17.081-9.679c-5.249-2.735-11.243-5.006-16.917-7.417-3.472-1.481-6.958-4.531-5.602-8.7 2.61-8.032 12.584-2.934 17.817-.479 5.22 2.453 12.666 5.856 22.34 10.21 5.907 2.658 12.114 6.512 17.575 9.069a341.655 341.655 0 0 0 8.478 3.829.707.707 0 0 0 .765-.131c.923-.868 1.015-1.765.276-2.691a4274.955 4274.955 0 0 1-9.649-12.138c-5.781-7.291-12.017-14.123-18.442-20.775-4.256-4.406-7.365-8.889-10.647-13.813-1.224-1.839-1.93-3.358-2.121-4.555-.944-5.902 6.285-8.943 9.955-3.656 4.822 6.953 10.763 14.176 17.285 20.315 8.439 7.95 16.544 16.243 25.007 24.179.894.839 1.951 1.229 3.171 1.171a.698.698 0 0 0 .426-.174c.925-.794 1.559-1.516 1.506-2.852-.371-8.776-.8-14.627-1.288-17.555a1181.462 1181.462 0 0 1-4.677-30.627c-.857-5.631-.726-11.077-1.22-15.788.048-4.251.189-10.405 2.745-12.762 2.528-2.329 5.854-2.14 8.033.677.711.925 1.287 3.191 1.501 4.634 1.455 9.928 2.627 16.629 3.515 20.102 1.81 7.097 4.265 14.936 5.267 21.583 1.588 10.54-.106 21.738-.823 31.537a.356.356 0 0 0 .223.354c1.549.619 5.636 1.07 6.236-1.124a2502.686 2502.686 0 0 1 5.951-21.244c3.001-10.53 6.11-19.574 11.978-27.809 1.888-2.649 6.265-5.379 9.504-3.472 4.953 2.92 2.712 9.112.93 13.397-6.207 14.936-13.15 30.109-16.622 45.718-.45 2.038 2.174 5.606 4.513 5.693.92.033 1.593-.092 2.019-.372 5.371-3.551 9.462-6.077 12.273-7.577 5.68-3.036 11.354-6.004 16.656-9.809 4.13-2.954 7.698-5.66 12.806-7.872 8.357-3.622 11.175 5.979 4.779 9.934a1569.336 1569.336 0 0 0-10.482 6.546c-8.076 5.093-15.005 11.784-23.822 15.74-2.069.929-4.564 1.96-7.485 3.093-2.795 1.082-4.165 3.259-4.11 6.531 0 .142.064.246.193.31 2.163 1.082 3.983 1.916 5.462 2.503 7.935 3.157 16.447 6.207 25.07 8.279 9.403 2.261 19.367 4.387 28.077 7.8 4.905 1.922 11.799 6.957 8.192 13.275-1.975 3.462-6.459 4.474-10.235 3.956-7.994-1.099-16.849-4.435-24.775-7.727-10.158-4.229-19.932-8.65-29.321-13.266-1.342-.658-3.351 2.295-3.675 3.307-.21.668-.183 1.444.082 2.329 2.614 8.666 8.744 17.937 11.092 24.158 1.308 3.47 2.616 6.94 3.927 10.41 2.213 5.868 5.403 11.397 8.207 17.032 1.797 3.618 2.963 6.565 3.495 8.841 1.569 6.69-7.224 10.936-10.158 3.742a201.26 201.26 0 0 0-6.831-14.96c-5.452-10.768-10.342-21.845-15.339-32.83-.306-.672-.64-1.33-1.002-1.976a.56.56 0 0 0-.353-.28c-1.172-.344-4.348-1.898-4.653.082a682.076 682.076 0 0 1-7.074 38.248c-2.174 10.113-5.849 20.121-9.756 29.688-1.895 4.644-3.798 8.546-5.708 11.706-2.387 3.951-8.493 3.844-9.815-.944-.248-.904-.266-2.301-.053-4.193.552-4.88 1.533-10.593 2.944-17.138a9644.043 9644.043 0 0 1 11.494-52.574.26.26 0 0 0-.002-.127.257.257 0 0 0-.298-.183c-1.912.363-3.118 1.288-4.019 3.123-2.498 5.103-4.468 8.873-5.911 11.31a1657.776 1657.776 0 0 0-18.321 31.668c-3.37 5.979-6.285 10.588-9.926 15.981-2.179 3.225-4.517 6.788-9.102 5.767a.585.585 0 0 1-.358-.233c-.181-.245-.446-.385-.795-.421a.57.57 0 0 1-.392-.208c-2.483-2.92-2.154-5.723-.697-9.301 4.217-10.331 9.809-18.896 16.152-28.797 2.001-3.124 4.837-8.313 8.507-15.565 2.353-4.648 6.473-9.746 9.848-14.345a.584.584 0 0 0 .106-.436l-.213-1.414c-.035-.223-.163-.315-.382-.276-1.612.281-2.799 1.748-4.009 3.162-14.903 17.352-31.273 32.747-46.601 47.925-1.44 1.427-2.613 2.323-3.52 2.688-3.21 1.287-6.343-.964-6.687-4.266-.31-3.04 1.787-5.335 3.849-7.553 5.515-5.921 11.567-11.44 16.84-17.54 2.566-2.963 4.958-6.531 8.173-8.836 4.777-3.424 8.954-6.77 12.53-10.036 6.071-5.549 1.782-11.736-5.786-8.1-4.322 2.082-10.724 5.371-19.207 9.867-1.862.987-3.981 1.951-6.357 2.89-6.841 2.697-14.753 6.977-19.987 9.122-2.585 1.06-6.972 1.83-9.712.803-2.634-.983-4.692-3.616-2.813-6.424 2.469-3.685 10.216-7.18 14.298-8.88 4.618-1.912 9.296-3.611 13.76-5.877 1.718-.872 3.592-1.167 5.146-1.922a887.418 887.418 0 0 1 9.025-4.333 101.322 101.322 0 0 1 20.427-7.127c2.082-.489 5.341-1.68 6.072-3.946 1.438-4.469-2.944-5.887-6.561-5.292-5.132.848-9.422.61-14.559-.106-6.705-.935-12.298-4.362-16.844-9.315-1.207-1.311-1.92-2.261-2.14-2.852-.649-1.709 1.966-3.641 3.317-4.275 4.265-2.009 7.446.271 11.291 1.559 5.354 1.787 11.058 2.353 16.234 4.658 2.29 1.021 4.909.024 5.563-2.445.823-3.084-2.629-4.784-5.021-5.461a52.059 52.059 0 0 1-10.105-4.024Zm380.02 27.543c-2.658-.15-4.318-3.737-3.689-5.872.3-1.027 1.07-2.121 1.317-3.389.533-2.737.833-5.502.901-8.294.009-.552.29-.973.697-1.263 7.827-5.588 16.723-9.616 26.687-12.085a.612.612 0 0 1 .485.088.593.593 0 0 1 .256.421c.692 5.8.595 13.841-7.543 13.454-2.654-.126-7.094-3.176-9.514-4.464a.804.804 0 0 0-1.182.634c-.527 5.704-.508 10.937-2.13 16.379-.926 3.115-3.021 4.579-6.285 4.391Zm101.511 2.639 1.647-1.593a.429.429 0 0 1 .357-.117.435.435 0 0 1 .316.204c3.05 5.002 6.231 10.884 7.746 16.573a.099.099 0 0 1-.012.069.1.1 0 0 1-.123.044.092.092 0 0 1-.053-.046l-3.433-6.971c-.094-.187-.195-.192-.305-.015-2.116 3.375-4.392 8.894-8.386 9.848-10.744 2.561-7.369-25.103-6.633-29.814.155-.984.14-1.879-.044-2.682-.061-.275.013-.318.223-.131a54.453 54.453 0 0 1 8.521 9.572.563.563 0 0 1 .102.358l-.203 4.575c-.013.278.08.32.28.126Zm-107.292 23.767c.223 6.008 1.811 12.496.79 18.112-.659 3.616-5.35 4.764-7.888 2.343-1.178-1.12-1.775-2.569-1.791-4.347-.01-1.037.62-2.441.441-3.564-1.312-8.134-1.942-17.313-.063-25.403 1.249-5.374 6.531-7.529 10.235-2.634a54.961 54.961 0 0 1 4.556 7.088.285.285 0 0 0 .399.11.285.285 0 0 0 .105-.11c2.861-5.466 5.156-10.501 9.974-14.65 2.813-2.421 6.749-3.452 9.581-.397a.34.34 0 0 0 .486.007.342.342 0 0 0 .086-.157c1.602-6.861 11.436-4.188 9.16 2.662-1.268 3.82-3.413 9.437-7.785 10.661-2.779.78-5.665-.542-7.602-2.614-.122-.132-.244-.129-.363.01-.575.661-.986 1.239-1.235 1.733-2.295 4.554-3.917 7.606-4.865 9.155-3.298 5.394-9.345 6.962-13.949 1.884a.16.16 0 0 0-.176-.042.16.16 0 0 0-.072.061.167.167 0 0 0-.024.092Zm-14.476-12.559c-1.143.32-6.009.073-4.794-2.469a264.532 264.532 0 0 1 3.811-7.63c.068-.133.158-.149.271-.049 1.37 1.186 3.176 2.295 3.806 3.927 1.016 2.648-.402 5.466-3.094 6.221Zm93.474 28.076a131.975 131.975 0 0 0 2.503 7.857c.49 1.392.682 2.508.576 3.351-.605 4.827-7.205 5.882-9.035 1.23-2.087-5.297-8.226-22.77-4.444-27.277 4.163-4.963 10.133-.204 12.777 3.432a.221.221 0 0 0 .357.002.226.226 0 0 0 .045-.128c.072-5.877.702-11.392 6.26-14.495 6.798-3.791 11.305 4.696 4.624 8.458a1.977 1.977 0 0 0-.998 1.578c-.216 3.189-.455 6.472-.716 9.848-.436 5.568-4.532 9.262-10.231 6.599-.474-.223-.962-.449-1.462-.678-.245-.11-.331-.035-.256.223Zm-100.848-22.61c2.948 2.919 1.409 6.783-2.077 8.129-.191.074-.262.011-.213-.189l1.849-7.809a.262.262 0 0 1 .067-.122.265.265 0 0 1 .255-.076.253.253 0 0 1 .119.067Zm139.789 40.17c-6.541-2.305-6.638-10.574-6.914-16.771a20.857 20.857 0 0 0-1.651-7.306c-2.222-5.219 4.542-8.676 8.134-4.928 1.405 1.471 1.913 3.752 2.383 6.09 1.191 5.942 1.113 11.894-.233 17.856a43.402 43.402 0 0 0-.774 4.473.723.723 0 0 1-.332.52.714.714 0 0 1-.613.066Zm-142.602-28.342c.032-.197.09-.205.174-.024 2.934 6.211 7.805 14.374.368 19.806a.485.485 0 0 1-.512.033.477.477 0 0 1-.248-.449c.155-2.426-.397-5.229-.47-7.127a64.789 64.789 0 0 1 .688-12.239Zm80.909 26.231c-1.215-.833-2.633-2.038-3.166-3.394-1.467-3.733 2.048-7.388 5.825-6.221.655.203 1.563.731 2.725 1.583 2.678 1.966 5.844 4.043 6.658 7.548.749 3.227-.462 5.697-3.632 7.407-.148.081-.158.175-.029.281 5.549 4.614 3.099 10.303-2.014 13.537a.228.228 0 0 0-.081.085.229.229 0 0 0 0 .227.228.228 0 0 0 .081.085c7.505 4.643 1.506 13.062-4.401 8.695-1.98-1.462-4.275-2.837-5.829-4.841-3.007-3.873-2.663-7.945 1.767-10.676.323-.2.321-.397-.005-.59-2.784-1.666-3.394-5.578-2.348-8.328.765-2.019 2.59-3.704 4.44-4.861a.319.319 0 0 0 .009-.537Zm43.726 2.392c-1.796-.17-4.111-.175-5.583-1.012-2.619-1.482-3.132-5.413-.934-7.466 1.365-1.273 3.181-1.578 5.035-1.409 4.275.383 8.662 1.245 10.875 5.428 1.462 2.769 1.342 5.698-.359 8.787a.495.495 0 0 0-.029.423.494.494 0 0 0 .12.182.491.491 0 0 0 .185.116 30.922 30.922 0 0 0 6.784 1.54c.184.019.243.116.179.29a56.875 56.875 0 0 1-3.869 8.589.465.465 0 0 1-.489.237c-7.654-1.171-16.529-5.679-11.625-15.178.162-.316.065-.492-.29-.527ZM383.386 485.552a166.186 166.186 0 0 0-12.869-9.523c-3.37-2.832-6.289-6.507-9.766-9.102-1.055-.791-1.788-1.491-2.198-2.101a819.493 819.493 0 0 1-7.683-11.663c-3.661-5.665-3.85-11.862-3.733-18.475.322-5.158.702-8.646 1.137-10.463.836-3.492 2.652-7.612 5.447-12.36 1.346-1.864 2.508-3.883 3.966-5.539 12.225-13.9 28.934-21.21 47.347-23.031 1.597-.158 4.822-.308 9.673-.45 10.943-.319 20.006-1.627 30.009-2.89 2.881-.368 5.563-1.443 8.449-2.13a44.606 44.606 0 0 0 6.841-2.223 68.717 68.717 0 0 1 12.25-3.762c11.743-2.407 23.093-3.558 34.051-3.452 13.988.136 27.53 4.469 38.991 12.656 2.91 2.082 6.27 4.304 8.739 6.362 7.258 6.047 13.348 14.059 16.626 22.953 1.855 5.016 3.094 10.477 2.411 15.861-3.079 24.324-24.939 43.53-44.209 56.306-13.673 9.068-30.309 16.839-46.558 19.696-24.378 4.289-49.821 2.551-73.047-4.547-9.01-2.759-17.783-7.359-25.874-12.123Zm114.841-99.236a64.629 64.629 0 0 0-1.375 14.578c.014.862.314 1.753.421 2.6.44 4.701 5.311 6.938 9.272 8.105 1.02.364 1.788.526 2.304.484 4.658-.383 10.812-.344 14.564-1.772 6.948-2.653 12.414-12.477 13.6-19.419.567-.518-.256-1.409-.948-1.196a43.21 43.21 0 0 0-9.742-4.943l-4.033-1.404a62.59 62.59 0 0 0-21.042-2.416c-2.726 0-3.07 3.36-3.021 5.383Zm-42.486 105.671c11.876.126 24.625-1.177 35.94-4.968 21.594-7.233 42.457-20.871 56.948-37.696 5.335-6.197 10.221-13.909 11.663-22.193.507-1.965.641-3.842.402-5.63-1.191-8.88-5.834-15.968-12.24-22.581-.129-.132-.227-.113-.295.058-3.675 9.465-9.703 18.644-19.192 22.953-1.314.423-2.694.859-4.14 1.308-3.578 1.108-8.236.997-12.051 1.539-1.346.023-2.678.034-3.994.034-5.462.005-12.003-2.895-16.157-5.945-11.678-8.575-8.822-23.685-6.987-35.769.026-.171-.047-.25-.218-.237-8.724.755-16.219 3.001-24.368 5.596a.482.482 0 0 0-.329.528c.944 6.023-.218 13.106-1.966 18.896-2.28 7.558-4.822 12.772-11.94 15.953-5.606 2.508-10.729 2.353-16.384 2.944-3.515.368-7.843 1.346-11.639 1.626-12.109.901-22.083-6.753-23.87-18.712-.594-3.976-.857-7.783-.789-11.421.003-.158-.071-.216-.223-.174-7.044 1.951-14.297 5.664-19.749 10.128-5.931 4.856-9.984 12.085-12.463 19.235-4.076 11.78.538 21.714 8.294 30.632 3.448 3.961 6.451 6.849 9.011 8.667 4.74 3.364 9.567 7.301 14.239 10.031 6.943 4.053 13.983 7.383 21.856 9.654 13.121 3.776 25.627 5.35 40.641 5.544Zm-8.289-99.788c-12.618 1.607-23.328 3.021-37.736 3.195-.546.007-1.272.1-2.179.281-.165.032-.257.132-.276.3-.559 5.032-.213 9.901 1.036 14.607 1.675 3.35 4.322 4.983 7.94 4.9 1.501-.025 3.012.067 4.527-.184a223.403 223.403 0 0 1 19.12-2.363c1.469-.345 2.62-.965 3.452-1.859.359-.576.93-.91 1.201-1.516 2.205-4.948 3.423-10.238 3.656-15.87.019-.465-.017-.821-.107-1.07.155-.132.199-.26.131-.382a.51.51 0 0 0-.284-.242.522.522 0 0 0-.375.014c-.074.032-.109.095-.106.189Zm148.669 4.343a.259.259 0 0 0 .245.285.243.243 0 0 0 .133-.034c3.447-1.98 6.013-3.476 10.153-2.575 9.673 2.111 7.722 13.585 8.923 20.6.344 2.014 1.472 3.98 1.816 6.207.038.261-.057.326-.286.194-2.957-1.685-6.204-4.037-9.742-7.054-1.191-1.017-1.98-1.371-1.97-3.113a39.86 39.86 0 0 0-.572-7.045.58.58 0 0 0-.589-.476.581.581 0 0 0-.263.074l-4.43 2.508c-.122.068-.231.049-.324-.058a69.376 69.376 0 0 1-11.223-18.088c-.707-1.655.087-5.805.179-7.722.295-6.42 8.042-6.826 9.388-1.084.295 1.263.184 3.553-.019 5.161-.517 4.083-.99 8.156-1.419 12.22Zm20.858-7.195a38.208 38.208 0 0 0-8.211-1.878c-7.084-.814-6.178-9.446-.296-9.494 7.82-.068 23.555 3.853 17.421 15.822a.405.405 0 0 0 .149.539.41.41 0 0 0 .194.061c1.937.116 4.266.15 5.806 1.201 3.81 2.595 1.965 8.23-2.387 8.613-7.253.644-15.581-3.181-13.378-11.964.169-.668.615-1.665.901-2.498a.32.32 0 0 0-.199-.402Z"/><path fill="#fff" d="M522.29 383.349c.907 1.32 2.251 1.788 4.033 1.404a43.21 43.21 0 0 1 9.742 4.943l.949 1.196c-1.187 6.942-6.653 16.766-13.601 19.419-3.752 1.428-9.906 1.389-14.564 1.772-.516.042-1.284-.12-2.304-.484-.791-.794-1.99-1.488-3.598-2.082-2.511-.93-4.402-2.937-5.674-6.023-.107-.847-.407-1.738-.421-2.6a64.629 64.629 0 0 1 1.375-14.578 22.527 22.527 0 0 1 3.021-5.383 62.59 62.59 0 0 1 21.042 2.416Zm-74.838 8.85c.187.226.398.366.634.421.09.249.126.605.107 1.07-.233 5.632-1.451 10.922-3.656 15.87-.271.606-.842.94-1.201 1.516l-3.452 1.859a223.403 223.403 0 0 0-19.12 2.363c-1.515.251-3.026.159-4.527.184a24.386 24.386 0 0 1-7.94-4.9c-1.249-4.706-1.595-9.575-1.036-14.607.019-.168.111-.268.276-.3.907-.181 1.633-.274 2.179-.281 14.408-.174 25.118-1.588 37.736-3.195Z"/><path fill="#E30002" d="m687.193 409.328-1.099 15.391a.723.723 0 0 1-.46.625l-9.102 3.51a.354.354 0 0 1-.445-.187.348.348 0 0 1-.025-.172c.412-4.178.751-7.853 1.032-12.573.397-6.609 1.399-16.108 6.207-20.862 4.449-4.401 8.923-1.007 10.763 3.699 2.178 5.587 3.65 11.615 6.163 17.008a.334.334 0 0 1-.048.383c-1.685 2.004-5.152 3.873-7.345 5.238a.463.463 0 0 1-.37.049.444.444 0 0 1-.279-.243 79.17 79.17 0 0 1-4.464-11.924.27.27 0 0 0-.287-.186.273.273 0 0 0-.241.244Zm29.046-11.76c.158.039.247.071.266.097a.743.743 0 0 1 .134.478c-.008.18-.072.363-.182.524a88.676 88.676 0 0 1-12.41 14.587c-.503.478-.647.388-.431-.271 1.332-4.062 2.412-8.671 4.329-12.665 1.685-3.515 4.294-5.543 8.047-2.866.074.052.156.09.247.116Zm-63.906.663c.3.394.613 1.011.939 1.85 2.17 5.619 3.846 11.527 5.031 17.724.77 4.043 1.52 10.095-4.082 11.165-3.582.687-7.112-2.155-9.058-4.977a.37.37 0 0 0-.588-.033.37.37 0 0 0-.085.207l-.62 6.696c-.026.258-.157.334-.392.227a4.597 4.597 0 0 0-2.542-.348c-.145.019-.163.077-.053.174l.377.344c.113.1.137.218.073.353-8.701 17.817-19.948 32.186-35.02 45.06a1721.864 1721.864 0 0 1-29.767 22.842c-5.549 4.159-10.473 8.424-15.556 12.811a.392.392 0 0 0-.131.426l17.459 63.617 14.089 51.266a.108.108 0 0 0 .022.044.118.118 0 0 0 .04.029.133.133 0 0 0 .049.009.12.12 0 0 0 .049-.014c18.365-10.167 40.099-16.945 61.286-16.108 21.42.848 41.891 11.165 50.122 31.789 4.987 12.496 4.319 24.222 3.689 37.057-.022.442-.255.665-.697.668-16.07.034-32.033.504-48.049.644-1.37.01-2.808-.513-4.091-.489-30.309.568-60.617 1.111-90.923 1.627-5.069.087-10.879-.213-16.384-.16a.407.407 0 0 1-.259-.087.432.432 0 0 1-.153-.232l-23.119-90.584-11.412-44.46a.29.29 0 0 0-.158-.191.296.296 0 0 0-.248-.002c-13.649 6.356-27.433 9.479-42.443 10.699-21.385.838-42.393-1.249-62.612-8.419a.313.313 0 0 0-.344.096.3.3 0 0 0-.058.112 299479.626 299479.626 0 0 1-35.679 126.203c-.368 1.294-.879 2.405-1.535 3.331a.506.506 0 0 1-.411.213c-48.988.479-98.001.915-146.989 1.041-1.814.003-5.013-.144-9.597-.441-.145-.009-.219-.087-.222-.232-.045-4.17.277-7.504.968-10.003 1.007-3.645 1.787-7.848 2.75-10.941 7.253-23.37 27.104-38.422 51.017-41.695 20.592-2.818 41.31 1.733 59.684 11.096a.25.25 0 0 0 .358-.15l28.847-95.711a.265.265 0 0 0-.018-.201.277.277 0 0 0-.156-.133c-13.078-4.406-24.567-10.743-36.57-17.376-12.036-6.652-22.872-16.19-30.875-27.722-2.518-3.631-5.423-9.649-8.284-14.433-1.408-2.349-2.518-4.383-3.331-6.1a252.385 252.385 0 0 1-16.254-44.871c4.038 3.041 8.629 4.601 13.775 4.682 1.806 6.139 3.447 12.268 5.834 18.131a680.581 680.581 0 0 0 7.214 17.062c1.971 4.493 4.667 8.487 7.408 12.534 1.709 2.518 4.12 6.594 6.749 9.785 6.846 8.327 14.501 14.945 23.85 20.136 9.572 5.311 18.97 10.631 29.249 14.485 9.901 3.714 19.754 7.727 29.815 10.971 14.548 4.683 26.013 8.279 34.396 10.787 9.457 2.827 19.25 4.481 29.379 4.962 4.584.22 7.806.368 9.669.446 22.707.973 44.209-5.132 63.499-17.163 7.414-4.622 13.897-9.441 19.449-14.457 10.705-9.673 19.367-17.55 29.128-24.856a1389.058 1389.058 0 0 0 25.893-19.865c14.26-11.209 25.419-24.914 33.476-41.113a.513.513 0 0 1 .605-.262l4.677 1.419a.128.128 0 0 0 .07.001.128.128 0 0 0 .059-.038.124.124 0 0 0 .028-.064.117.117 0 0 0-.012-.069l-.102-.193a.751.751 0 0 1-.087-.427c.323-3.385.586-6.776.789-10.171.199-3.312 2.024-6.406 5.215-7.258 2.285-.605 4.667.325 6.686 1.491.21.12.276.066.199-.159-.969-2.881-4.135-10.032-2.958-12.704 1.486-3.39 5.151-3.888 7.964-1.4Zm-70.882 249.012c1.97-5.577.445-10.85-.925-15.846-6.924-25.189-13.847-50.384-20.771-75.585-.29-1.056-.723-1.979-1.298-2.77-7.567-10.385-21.724-16.64-33.983-11.275a.556.556 0 0 0-.32.653l32.735 127.554c.103.41.368.612.794.605 46.048-.81 91.653-1.623 136.816-2.44 1.85-.034 1.196-1.607 1.196-2.668.015-24.885-16.849-40.087-41.11-41.38-20.369-1.079-40.705 5.786-58.328 15.706-.146.084-.197.205-.155.363a8.163 8.163 0 0 0 2.493 4.009c.126.113.105.185-.063.218l-16.96 3.001c-.123.02-.163-.029-.121-.145Zm-301.827-18.339a28.387 28.387 0 0 0-7.655.184c-23.211 2.043-41.808 16.596-45.55 40.329-.03.191.053.284.246.281l129.066-2 4.444-.072c.162-.003.263-.083.305-.237l1.332-4.91 33.015-116.462a.27.27 0 0 0-.174-.329c-.949-.324-1.806-.644-2.866-.532-10.652 1.123-20.82 6.691-28.61 14.103-1.999 1.898-3.331 3.113-4.014 5.369a910871.86 910871.86 0 0 0-19.236 63.83c-1.078 3.576-1.894 6.698-2.45 9.364-1.326 6.381-1.747 10.951-1.447 17.134.006.145-.057.185-.189.121-5.476-2.658-11.47-4.75-17.145-6.962a.224.224 0 0 1-.086-.06.22.22 0 0 1-.047-.094.209.209 0 0 1 .056-.195 21.048 21.048 0 0 0 4.532-7.02.309.309 0 0 0-.145-.387c-12.816-6.827-28.75-11.852-43.382-11.455Z"/><path fill="#fff" d="M560.292 427.13c-1.442 8.284-6.328 15.996-11.663 22.193-14.492 16.825-35.354 30.463-56.948 37.696-11.315 3.791-24.064 5.094-35.94 4.968 5.427-31.455 26.227-57.561 57.035-67.21 3.815-.542 8.473-.431 12.051-1.539 1.446-.449 2.826-.885 4.14-1.308 10.884-.49 21.326 1.243 31.325 5.2Zm46.021 49.543c12.181 35.614 1.99 76.263-27.995 99.696l-17.459-63.617a.392.392 0 0 1 .131-.426c5.083-4.387 10.007-8.652 15.556-12.811a1721.864 1721.864 0 0 0 29.767-22.842Z"/><path fill="#FAED9A" d="m581.572 647.388 16.96-3.001c.168-.033.189-.105.063-.218a8.163 8.163 0 0 1-2.493-4.009c-.042-.158.009-.279.155-.363 17.623-9.92 37.958-16.785 58.327-15.706 24.262 1.293 41.126 16.495 41.111 41.38 0 1.061.654 2.634-1.196 2.668-45.163.817-90.769 1.63-136.816 2.44-.426.007-.691-.195-.794-.605L524.154 542.42a.56.56 0 0 1 .32-.653c12.259-5.365 26.416.891 33.983 11.276.575.79 1.007 1.713 1.298 2.769 6.924 25.201 13.847 50.396 20.771 75.585 1.37 4.996 2.895 10.269.925 15.846-.042.116-.002.165.121.145Zm-221.051 20.238a.1.1 0 0 1-.097.072h-4.693l-129.066 2c-.193.003-.276-.09-.246-.281 3.742-23.733 22.339-38.286 45.55-40.329l7.655-.184c14.632-.397 30.566 4.628 43.382 11.455a.309.309 0 0 1 .145.387 21.048 21.048 0 0 1-4.532 7.02.209.209 0 0 0-.056.195.22.22 0 0 0 .047.094.224.224 0 0 0 .086.06c5.675 2.212 11.669 4.304 17.145 6.962.132.064.195.024.189-.121-.3-6.183.121-10.753 1.447-17.134.556-2.666 1.372-5.788 2.45-9.364 6.411-21.277 12.823-42.553 19.236-63.83.683-2.256 2.015-3.471 4.014-5.369 7.79-7.412 17.958-12.98 28.61-14.103 1.06-.112 1.917.208 2.866.532a.27.27 0 0 1 .174.329l-34.306 121.609ZM246.7 660.547c-.003-.071-.021-.124-.053-.159a.144.144 0 0 0-.169-.041.125.125 0 0 0-.049.036l-.232.271a.173.173 0 0 0-.039.076.17.17 0 0 0 .121.2c.242.063.76-.179.421-.383Z"/><path fill="#fff" d="M523.989 591.828c-22.518-3.022-41.522-15.338-54.261-33.954 15.01-1.22 28.794-4.343 42.443-10.699a.296.296 0 0 1 .348.08.29.29 0 0 1 .058.113l11.412 44.46Z"/><path fill="#E30002" d="M246.7 660.547c.339.204-.179.446-.421.383a.17.17 0 0 1-.121-.2.173.173 0 0 1 .039-.076l.232-.271a.125.125 0 0 1 .049-.036.122.122 0 0 1 .06-.012.142.142 0 0 1 .109.053c.032.035.05.088.053.159Z"/></svg>