<svg xmlns="http://www.w3.org/2000/svg" width="900" height="738" fill="none"><path stroke="#E30002" stroke-width="2" d="m484.21 654.25-7.46-.18M219.25 12.46c-7.267 1.747-14.08 4.367-20.44 7.86a.36.36 0 0 0-.17.405.334.334 0 0 0 .35.245c21.37-1.09 38.47 7.4 52.98 22.52.207.213.457.35.75.41l9.84 2.14a2.19 2.19 0 0 0 2.65-2.04c.54-10.933-3.197-19.863-11.21-26.79M254 17.21c-9.01-7.8-23.85-7.92-34.75-4.75"/><path stroke="#FAED9A" stroke-width="2" d="M254 17.21c-9.847-4.213-20.097-5.74-30.75-4.58-1.25.14-2.64-.27-4-.17"/><path stroke="#E30002" stroke-width="2" d="M250.84 58.45c-15.57-22.12-38.76-33.01-65.33-24.19a.33.33 0 0 0-.127.587.33.33 0 0 0 .237.063c13.74-.02 32.17 5.49 39.3 18.05.913 1.6 1.45 2.777 1.61 3.53 1.59 7.26 3.56 13.71 10.52 15.95 8.4 2.7 14.47-5.04 14.09-13.11a1.582 1.582 0 0 0-.3-.88Zm40.64-6.98c-5.753 6.733-7.193 13.937-4.32 21.61 2.78 7.44 8.11 11.39 16.18 9.69.327-.073.597-.243.81-.51 16.37-20.77 44.04-37.08 70.63-24.58.267.12.323.057.17-.19-9.8-15.53-34.72-22-52.03-20.06-11.9 1.33-23.37 4.61-31.44 14.04Z"/><path stroke="#E30002" stroke-width="2" d="M320.69 97.81c4.56 1.57 9.88-4.8 11.6-8.47 3.75-7.98 7.18-17.86 14.24-23.36 2-1.553 1.787-1.963-.64-1.23-11.993 3.62-22.007 9.91-30.04 18.87-.773.853-1.057 1.727-.85 2.62.41 1.78 3.36 10.77 5.69 11.57Zm-50.86-28.62c-.5.02-.663.263-.49.73l6.62 17.85c.12.32.347.457.68.41l6.62-.88c.38-.047.447-.22.2-.52-4.14-5.033-6.673-10.793-7.6-17.28-.053-.4-.28-.59-.68-.57l-5.35.26Zm-27.22 17.6c7.6-.44 14.16 1.26 19.51 6.7.22.22.46.25.72.09l2.73-1.65c.453-.273.603-.663.45-1.17a127.774 127.774 0 0 0-7.08-18.39.307.307 0 0 0-.261-.173.31.31 0 0 0-.279.143c-3.627 5.853-8.85 9.433-15.67 10.74-.467.093-.703.38-.71.86l-.03 2.26c0 .413.207.61.62.59Zm96.87 11.89c7.32 4.967 12.653 11.56 16 19.78a.31.31 0 0 0 .317.188.308.308 0 0 0 .273-.248c1.93-9.53 3.54-30.8-9.63-33.79-.353-.08-.61.043-.77.37l-6.34 13.14c-.107.227-.057.413.15.56Zm-131.22 11.34c4.88-4.26 10.74 1.27 6.76 6.89-7.58 10.71-4.77 28.39-1.58 40.24a.224.224 0 0 0 .08.114.211.211 0 0 0 .132.041.194.194 0 0 0 .188-.165c3.22-17.91 14.27-41.93 35.03-44.27.327-.033.617-.153.87-.36 3.72-2.92 9.21-11.72 1.92-14.43-9.35-3.46-20.52.58-27.64 6.95-6.96 6.23-13.19-3.47-6.13-8.06a.431.431 0 0 0 .194-.436.459.459 0 0 0-.324-.364C206.2 93 196.83 98.66 193.72 110c-4.85 17.72 1.18 38.66 10.58 53.99a.29.29 0 0 0 .52-.23c-4.37-14.15-9.37-42.55 3.44-53.74ZM525.29 165.5c-16.02 10.35-24.86 24.98-20.76 44.49.54 2.59 4.36 9.52 6.85 11.21.28.187.587.28.92.28l95.95-.02M608.25 221.46l14 .03a.836.836 0 0 0 .75-.41c4.7-7.29 4.15-14.94 2.58-23.15-2.62-13.73-11.88-26.23-22.28-35.48-.767-.68-1.45-1.093-2.05-1.24"/><path stroke="#FAED9A" stroke-width="2" d="M559.75 170.46c-6.7 8.98-13.32 16.63-23.71 21.44-7.49 3.47-16.56.09-15.44-9.31.69-5.74 5.2-7.95 10.2-10.76 3.093-1.74 5.78-4.29 8.06-7.65m69.39 57.28c-2.44-5.11-1.18-7.95-1.2-13.08-.04-11-6.24-23.84-12.71-32.47-1.073-1.433-1.687-3.583-1.84-6.45"/><path stroke="#E30002" stroke-width="2" d="M237.74 157.56c17.23-20.03 66.89-27.01 88.55-12.3.373.253.597.157.67-.29l1.62-10.68c.06-.427-.1-.733-.48-.92-3.673-1.833-8.04-3.11-13.1-3.83-19.73-2.78-40.13-.14-58.75 5.93-4.23 1.38-24.49 9.26-22.18 15.71a46.772 46.772 0 0 0 2.8 6.29.526.526 0 0 0 .411.274.528.528 0 0 0 .459-.184Z"/><path stroke="#E30002" stroke-width="2" d="m264.17 221.81 53.35-.09c.32 0 .48-.16.48-.48.047-14.72-.023-29.447-.21-44.18-.073-5.4-.6-9.377-1.58-11.93-1.58-4.1-4.173-7.373-7.78-9.82-16.26-11.03-39.98-6.99-52.18 8.67-5.2 6.68-6.16 13.19-3.71 21.47a2776.969 2776.969 0 0 0 10.85 35.79c.12.38.38.57.78.57Zm262.55 55.12c-2.09-24.08-13.79-49.91-39.03-57.41-18.81-5.58-36.86 4.45-45.49 21.62-1.15 2.29-1.37 4.55-1.49 7.04-.013.367-.2.58-.56.64l-8.08 1.27c-.38.06-.643-.083-.79-.43-4.56-10.367-11.9-17.077-22.02-20.13-28.08-8.48-54 15.42-60.55 40.89-1.1 4.29-.61 8.96-.75 13.57-.007.34-.177.557-.51.65l-12.96 3.39a.345.345 0 0 1-.309-.069.355.355 0 0 1-.121-.301 92.018 92.018 0 0 1 5.35-23.3.402.402 0 0 0-.19-.488.387.387 0 0 0-.18-.042l-57.43-.39a.53.53 0 0 0-.368.149.509.509 0 0 0-.152.361l.02 21.32c0 .293.097.553.29.78 4.18 5.04 6.533 10.61 7.06 16.71.647 7.44.71 16.667.19 27.68-.367 7.9-2.837 15.58-7.41 23.04a1.24 1.24 0 0 0-.16.92c.46 2.267.687 3.967.68 5.1-.04 13.053-.037 26.1.01 39.14 0 .34.16.573.48.7 17.713 6.873 26.127 20.1 25.24 39.68-.067 1.493.643 2.823 2.13 3.99.26.207.553.277.88.21 4.133-.847 7.217.213 9.25 3.18 2.22 3.23 1.25 11.12 1.26 15.09a.703.703 0 0 0 .44.653c.086.034.178.05.27.047a23.45 23.45 0 0 0 9.92-2.42.958.958 0 0 0 .56-.78c.46-3.73.31-6.6 4.49-7.95.327-.107.647-.083.96.07 9.86 4.79 23.69 3.37 33.67-.12 3.14-1.1 6.58-.64 6.65 3.26.327 18.907.103 44.733-.67 77.48-.007.367.17.58.53.64 2.293.407 4.6.607 6.92.6 18.773-.053 37.543.177 56.31.69 24.83.68 49.64.54 74.49 1.33a.39.39 0 0 0 .139-.023.37.37 0 0 0 .231-.327c.287-19.593.397-39.2.33-58.82-.01-5.02 2.36-8.79 7.83-7.32 10.607 2.853 21.393 3.31 32.36 1.37.34-.06.513-.263.52-.61.04-5.28.147-10.55.32-15.81.19-5.88.06-11.03 7.01-11.12 5.547-.073 11.12-.2 16.72-.38.32-.013.477-.177.47-.49-.3-20.307 8.73-34.26 27.09-41.86.287-.12.43-.333.43-.64V352.5c0-.32-.093-.61-.28-.87-3.153-4.42-4.733-9.377-4.74-14.87-.007-11.673.007-23.343.04-35.01.02-4.413 1.57-8.653 4.65-12.72.207-.273.31-.583.31-.93l.05-22.7a.626.626 0 0 0-.185-.445.626.626 0 0 0-.445-.185l-72.49-.43c-.34 0-.467.163-.38.49l3.21 11.66a.306.306 0 0 1-.051.265.313.313 0 0 1-.239.125l-11.28.45c-.28.013-.43-.12-.45-.4Z"/><path stroke="#E30002" stroke-width="2" d="M529.15 243.35c22.6.527 45.203.743 67.81.65 3.9-.02 8-.65 12.08-.82a.854.854 0 0 0 .75-.46c1.28-2.22 3.27-3.377 5.97-3.47 8.933-.327 17.87-.373 26.81-.14 3.56.093 6.073 1.48 7.54 4.16.16.293.407.45.74.47 4.11.28 10.27 1.15 14-.86a78.291 78.291 0 0 0 9.06-5.7c2.45-1.78.53-5.39-2.17-5.4-37.993-.12-87.917-.09-149.77.09-.313 0-.387.133-.22.4l6.6 10.62c.187.3.453.453.8.46ZM279.97 240.65c9.593.56 19.187.937 28.78 1.13 3.087.067 6.17-.04 9.25-.32"/><path stroke="#E30002" stroke-width="2" d="m318 241.46 32.59.64a1.08 1.08 0 0 0 .83-.34l8.98-9.37c.247-.26.19-.39-.17-.39H218c-.327 0-.61.11-.85.33a4340.883 4340.883 0 0 0-41.84 38.73c-2.07 1.95-7.52 8.83-2.69 9.86 1.86.39 2.79-.54 4.17-1.64 13.727-10.96 27.457-21.92 41.19-32.88 3.4-2.71 4.68-6 10.25-5.78 3.627.14 7.293.293 11 .46.36.02.627-.127.8-.44 1.307-2.307 3.32-3.533 6.04-3.68 9.72-.533 19.447-.59 29.18-.17 2.047.087 3.62 1.373 4.72 3.86"/><path stroke="#FAED9A" stroke-width="2" d="M318 241.46c-11.06-1.01-21.87-.62-32.89-1.39-1.68-.12-3.393.073-5.14.58"/><path stroke="#E30002" stroke-width="2" d="m232.32 263.37-1.05 143.89c0 .547.24.693.72.44l6.82-3.64c.307-.167.497-.42.57-.76.247-1.053.37-1.82.37-2.3.007-16.94.007-33.883 0-50.83 0-.347-.11-.653-.33-.92-2.54-3.167-3.97-6.06-4.29-8.68-1.093-9.067-1.41-21.237-.95-36.51.19-6.37.89-12.76 5.27-17.78.2-.227.3-.493.3-.8v-22.97c0-.507-.253-.727-.76-.66l-6.11.88c-.367.053-.553.267-.56.64Zm420.09 141.8 6.96 4.43c.433.28.647.163.64-.35l-.81-144.07c0-.347-.173-.517-.52-.51l-7.08.12c-.4.007-.6.21-.6.61v22.37c0 .353.107.673.32.96 6.91 9.4 7.16 17.5 7.27 30.41.1 13.29-.55 24.4-7.36 36.04-.153.26-.23.54-.23.84V404c0 .127.107.353.32.68.14.227.34.34.6.34.173.007.337.057.49.15ZM205.3 280.54l9.41-12.87a.409.409 0 0 0-.29-.64c-5.12-.46-10.5 3.5-13.99 6.9-.233.233-.253.48-.06.74l4.37 5.87a.36.36 0 0 0 .123.103.358.358 0 0 0 .314 0 .36.36 0 0 0 .123-.103Zm13.88 19.88a1.404 1.404 0 0 0 1.562.505 1.397 1.397 0 0 0 .968-1.325l.09-23.01c0-.733-.217-.803-.65-.21l-9.39 12.87c-.233.327-.233.653 0 .98l7.42 10.19Zm-26.3-17.89a51.262 51.262 0 0 0-5.87 14.32.976.976 0 0 0 .15.82l2.16 3.18c.393.587.797.593 1.21.02l7.76-10.75c.2-.28.2-.557 0-.83l-5-6.78a.257.257 0 0 0-.21-.097.249.249 0 0 0-.2.117ZM246.63 294a.377.377 0 0 0-.36.26l-1 2.99a.38.38 0 0 0 .36.5h30.4a.379.379 0 0 0 .34-.56l-1.57-2.99a.383.383 0 0 0-.34-.2h-27.83Zm369.31 2.6a.323.323 0 0 0-.31.24l-.75 2.89a.315.315 0 0 0 .176.371.31.31 0 0 0 .144.029l30.44-.19a.318.318 0 0 0 .313-.322.315.315 0 0 0-.043-.158l-1.73-2.85a.322.322 0 0 0-.27-.16l-27.97.15ZM205.41 299.04a.476.476 0 0 0-.39-.2.478.478 0 0 0-.39.2l-8.13 11.1a.479.479 0 0 0 0 .56l8.16 11.17a.477.477 0 0 0 .611.139.466.466 0 0 0 .169-.149l8.05-11.15a.479.479 0 0 0 0-.56l-8.08-11.11ZM277.41 307.99l-32.37.2c-.333 0-.5.167-.5.5a656.12 656.12 0 0 0 .42 27.13c.15 4.28 3.52 10.56 8.67 10.24 6.44-.39 13.09 0 19.57-.1.32-.007.547-.153.68-.44 5.64-11.87 5.01-24.16 4.37-36.74-.027-.527-.307-.79-.84-.79Zm337.27 30.56c.14 3.28 3.07 9.93 6.82 9.95 7.067.027 14.12.02 21.16-.02.353 0 .607-.157.76-.47 5.76-11.68 4.66-24.97 4.57-36.7 0-.513-.26-.77-.78-.77l-32.44.19c-.527.007-.79.273-.79.8-.007 6.9.227 15.907.7 27.02ZM189.68 319.71c-5.3 3.79-3.68 13.88-3.67 19.5.01 2.22.87 3.71 2.1 5.38a.433.433 0 0 0 .7 0l9.42-12.96c.233-.32.233-.643 0-.97l-7.83-10.83c-.2-.28-.44-.32-.72-.12Zm29.82.31-7.79 10.7c-.207.28-.207.56 0 .84l8.98 12.27a.293.293 0 0 0 .333.111.317.317 0 0 0 .217-.291c.01-2.43.4-23.13-.56-23.67-.54-.307-.933-.293-1.18.04Zm-14.14 20.44a.442.442 0 0 0-.159-.132.438.438 0 0 0-.402 0 .442.442 0 0 0-.159.132l-9.5 12.98a.45.45 0 0 0 0 .53l9.52 13.13a.44.44 0 0 0 .16.137.443.443 0 0 0 .41 0 .449.449 0 0 0 .16-.137l9.49-13.14a.45.45 0 0 0 0-.53l-9.52-12.97Zm-17.14 22.55c-1.56 1.71-2.23 2.71-2.23 5.2.013 4.7.017 9.407.01 14.12-.007.367.1.697.32.99l3.25 4.43c.247.34.49.34.73 0l7.98-11.01c.193-.28.193-.557 0-.83l-9.36-12.86a.44.44 0 0 0-.149-.132.445.445 0 0 0-.551.092Zm32.18.99-8.65 11.83c-.24.333-.24.663 0 .99l7.96 10.85a.73.73 0 0 0 .803.253.704.704 0 0 0 .487-.673V364.2a.335.335 0 0 0-.226-.324.333.333 0 0 0-.374.124Zm-14.92 21.71a.57.57 0 0 0-.45-.227.563.563 0 0 0-.45.227l-8.02 10.99a.56.56 0 0 0 0 .66l8.01 10.94a.57.57 0 0 0 .45.227.566.566 0 0 0 .45-.227l7.97-10.98a.558.558 0 0 0 0-.66l-7.96-10.95Zm-15.83 20.43-3.24 4.44c-.213.3-.327.633-.34 1-.21 5.42-1.97 15.43 2.25 19.41.24.227.457.207.65-.06l9.34-12.78c.22-.293.22-.587 0-.88l-8.19-11.13c-.16-.213-.317-.213-.47 0Zm31.3.68a.696.696 0 0 0-.49-.661.7.7 0 0 0-.78.261l-7.96 10.85a.702.702 0 0 0 0 .82l2.28 3.14a.708.708 0 0 0 .505.283.695.695 0 0 0 .545-.193l5.76-5.45a.699.699 0 0 0 .22-.52l-.08-8.53ZM619.94 449.53a39.86 39.86 0 0 1 1.03 11.48c-.02.4-.23.58-.63.54-8.06-.74-17.73 2.58-20.33 10.94-2.61 8.44-.76 19.73 8.09 23.84.427.2.64.067.64-.4.01-3.13-.16-6.19 1.12-8.93 4.55-9.74 17.17-11.64 26.03-7.24 6.09 3.02 8.45 9.55 15.22 12.34 13.05 5.37 26.8-1.1 33.07-13.22a.231.231 0 0 1 .391-.018.236.236 0 0 1 .039.148c-.65 7.59-3.27 15.74-9.98 20.16-.287.193-.28.373.02.54 5.033 2.733 10.143 2.993 15.33.78 13.54-5.78 19.53-22 16.53-35.62-1.99-9.02-8.89-18.11-19.05-17.59-.333.02-.47.193-.41.52 1.047 5.34.573 10.577-1.42 15.71a.389.389 0 0 1-.147.192.386.386 0 0 1-.458-.025.381.381 0 0 1-.125-.207c-2.613-10.827-7.29-20.57-14.03-29.23-14.42-18.51-39.57-36.39-63.55-23.65-8.753 4.647-13.99 12.033-15.71 22.16-.06.353.067.443.38.27 8.5-4.6 17.1-9.35 27.03-9.31a.926.926 0 0 1 .92.79l1.85 12.13c.067.433-.117.63-.55.59-2.8-.27-5.64-1.08-8.2-.93-12.66.73-33.61 11.25-23.05 27.35.18.28.377.293.59.04 6.66-7.86 17.91-14.63 28.56-14.78.433-.007.7.203.8.63Zm-414.65 32.1a.341.341 0 0 1 .416-.207.345.345 0 0 1 .144.087c10.34 10.3 23.15 13.62 35.67 5.59 4.06-2.61 7.06-6.39 11.18-8.96 10.05-6.28 25.58-.1 28.99 11.54.6 2.05-.05 4.11.08 6.35.027.413.23.543.61.39 6.31-2.54 12.25-8.12 13.02-15.06 1.85-16.81-17.77-22.56-30.48-19.35a.535.535 0 0 1-.461-.098.533.533 0 0 1-.209-.422v-12.5c0-.36.18-.55.54-.57 13.573-.827 24.903 3.69 33.99 13.55a.703.703 0 0 0 .585.219.676.676 0 0 0 .515-.339c4.51-7.96 2.18-14.9-4.12-21.03-8.78-8.54-19.01-9.49-30.96-8.32-.367.04-.55-.123-.55-.49v-10.96c0-.567.28-.837.84-.81 11.613.527 22.407 3.697 32.38 9.51a.208.208 0 0 0 .114.031.202.202 0 0 0 .186-.251c-4.34-17.88-18.06-23.93-35.3-22.39-29 2.6-51.22 28.19-61.7 53.29a.33.33 0 0 1-.63-.1 56.053 56.053 0 0 1 .88-15.8c.073-.387-.083-.547-.47-.48-7.93 1.41-14.61 12.13-16.6 19.13-4.38 15.34 13.01 44.91 31.98 32.85.347-.213.34-.42-.02-.62-3.75-2.1-12.36-8.72-10.62-13.78Z"/><path stroke="#E30002" stroke-width="2" d="M199.9 434.32c2.67-.24 4.4.51 6.18-1.56 1.827-2.107 1.533-4.007-.88-5.7-.273-.187-.507-.147-.7.12l-4.86 6.68c-.247.347-.16.5.26.46Zm82.96 169.91c8.3 3.31 20.94 5.1 28.65-.48a1.746 1.746 0 0 0 .72-1.41c-.07-50.24 1.05-103.8.74-150.53 0-.36-.187-.54-.56-.54-.327 0-.48.163-.46.49.36 7.707-2.273 14.107-7.9 19.2-.273.247-.357.547-.25.9 4.9 16.3-6.29 30.24-21.54 34.56-.393.113-.59.373-.59.78l.36 95.8a1.338 1.338 0 0 0 .83 1.23Zm284.66 1.05c2.5.813 5.043.973 7.63.48.346-.065.66-.249.886-.521.226-.272.351-.614.354-.969l.51-151.86c0-.487-.247-.727-.74-.72l-8.34.2c-.42.007-.643.22-.67.64-.91 14.24-.06 30.97-.12 42.47-.193 36.44-.207 72.96-.04 109.56 0 .367.177.607.53.72Zm-226.34-1.3c9.01 2.63 17.64 4.61 26.88 1.28.347-.127.523-.377.53-.75l1.4-143.76c.007-.367-.17-.513-.53-.44a81.287 81.287 0 0 1-27.88.98c-.393-.053-.59.117-.59.51l.01 141.94c0 .127.06.207.18.24Zm-20.67-.73c-.04 4.98 8.94 3.5 11.8 2.69a.881.881 0 0 0 .64-.85l.07-136.25c0-.467-.22-.617-.66-.45a25.91 25.91 0 0 1-10.28 1.72 1.035 1.035 0 0 0-.997.633 1.032 1.032 0 0 0-.083.407c.04 44.06-.123 88.093-.49 132.1Zm206.13 1.51c9.873 2.087 19.763 2.11 29.67.07a.894.894 0 0 0 .517-.315.915.915 0 0 0 .203-.575l.3-123.84a.568.568 0 0 0-.64-.57 108.304 108.304 0 0 1-30.44-.54c-.327-.053-.49.083-.49.41-.027 18.893-.023 37.783.01 56.67 0 1.43.55 3.21.53 4.43-.313 20.84-.407 42.007-.28 63.5a.784.784 0 0 0 .62.76ZM239.417 499.966a.604.604 0 0 0-.369-.556.596.596 0 0 0-.229-.046l-7.5-.027a.604.604 0 0 0-.556.369.596.596 0 0 0-.046.229l-.414 118.44a.6.6 0 0 0 .598.601l7.5.027a.604.604 0 0 0 .556-.369.596.596 0 0 0 .046-.229l.414-118.439ZM608.23 507.9a39.201 39.201 0 0 1-13.03-6.58 1.53 1.53 0 0 0-.95-.32h-7.4c-.433 0-.653.217-.66.65l-.25 101.07c0 .353.177.53.53.53h21.87a.41.41 0 0 0 .41-.41l.01-94.24c0-.367-.177-.6-.53-.7Zm51.75-4.89c-3.14-.01-5.31.12-8.38-.75-.4-.113-.6.04-.6.46v117.5a.532.532 0 0 0 .53.53h9.06c.393 0 .59-.197.59-.59l-.67-116.62c0-.353-.177-.53-.53-.53Zm-439.73 12.6V505.3c0-.353-.16-.453-.48-.3l-5.16 2.42c-.447.213-.52.52-.22.92l5.56 7.37c.2.273.3.24.3-.1Zm-31.99 2.21a.3.3 0 0 0 .49 0l8.06-11.15a.298.298 0 0 0-.021-.373.3.3 0 0 0-.109-.077l-2.06-.84a.296.296 0 0 0-.24.01l-8.9 4.17a.302.302 0 0 0-.17.26l-.19 3.3a.302.302 0 0 0 .05.18l3.09 4.52Zm17.06-4.39a.385.385 0 0 0-.31-.153.385.385 0 0 0-.31.153l-9.6 13.12a.388.388 0 0 0 0 .46l9.6 13.2a.392.392 0 0 0 .492.118.392.392 0 0 0 .138-.118l9.56-13.25a.388.388 0 0 0 0-.46l-9.57-13.07Zm-17.13 22.76c-1.91 2.03-3.24 3.7-3.21 6.72.04 3.673.04 7.36 0 11.06 0 .36.103.683.31.97l4.26 5.84c.26.36.52.36.78 0l7.97-10.95c.207-.287.207-.57 0-.85l-9.58-13.12c-.14-.187-.28-.19-.42-.01a.464.464 0 0 0-.11.34Zm31.21 24.23a.323.323 0 0 0 .36.118.326.326 0 0 0 .16-.118.316.316 0 0 0 .06-.19l.04-21.65a.316.316 0 0 0-.06-.19.322.322 0 0 0-.52 0l-7.88 10.81a.319.319 0 0 0 0 .38l7.84 10.84Zm158.24-8.24 138.8 1.69c.373.007.56-.18.56-.56l-.01-6.98a1.43 1.43 0 0 0-1.39-1.43c-45.79-1.06-90.62-2.27-137.87-1.82-.327.007-.49.17-.49.49l-.06 8.13c-.007.313.147.473.46.48Zm-173.02 29.26a.476.476 0 0 0 .39.2.478.478 0 0 0 .39-.2l8.1-11.08a.479.479 0 0 0 0-.56l-8.09-11.09a.476.476 0 0 0-.39-.2.478.478 0 0 0-.39.2l-8.11 11.08a.479.479 0 0 0 0 .56l8.1 11.09Zm312.17-17.9a.337.337 0 0 0-.1-.24.337.337 0 0 0-.24-.1l-139.1-1.37a.337.337 0 0 0-.24.1.337.337 0 0 0-.1.24l-.03 39.24c0 .09.036.177.1.24.063.064.15.1.24.1h138.99c.09 0 .177-.036.24-.1.064-.063.1-.15.1-.24l.14-37.87Z"/><path stroke="#E30002" stroke-width="2" d="M227.64 642.21c59.1.11 118.19.94 177.29.84 6.627-.013 13.297.02 20.01.1 62.17.7 124.32.7 186.49 1.12 26.6.18 53.91.79 77.38.71 2.387-.013 4.42-.89 6.1-2.63.233-.24.347-.527.34-.86-.13-6.83-15.96-16.22-23.07-20.46-.287-.167-.43-.087-.43.24v9.23c0 .133-.053.26-.146.354a.504.504 0 0 1-.354.146h-19.5c-.36 0-.547.18-.56.54-.22 6.5-4.41 8.11-10.45 8.2-9.08.147-18.16.25-27.24.31-4.57.02-4.83-5.07-4.75-8.41.013-.393-.177-.59-.57-.59-45.253-.213-90.503-.52-135.75-.92-63.26-.56-126.57-.12-189.83-.3-.313 0-.513.153-.6.46-1.27 4.68-4.3 6.84-9.29 6.97-9.073.22-18.177.3-27.31.24-4.81-.03-6.85-2.91-6.29-7.55.053-.433-.14-.65-.58-.65l-14.69-.15a1.312 1.312 0 0 1-.95-.41l-46.95-48.64a.702.702 0 0 1-.2-.69c.047-.233-.04-.407-.26-.52a.606.606 0 0 0-.447-.052.586.586 0 0 0-.353.272c-2.69 4.63-.9 7.45 2.63 11.09 16.52 17.127 33.02 34.343 49.5 51.65.227.24.503.36.83.36Z"/><path stroke="#E30002" stroke-width="2" d="M213.46 591.33a6.308 6.308 0 0 0 2.9 1.86c.307.093.583.04.83-.16 3.93-3.26 2.84-8.77 2.79-13.15a.284.284 0 0 0-.194-.254.283.283 0 0 0-.306.094l-7.18 9.81c-.2.28-.207.563-.02.85.167.253.39.443.67.57.193.093.363.22.51.38Zm69.19 27.97 325.47 1.21c.42.007.63-.203.63-.63v-6.43c0-.447-.223-.663-.67-.65-7.96.18-15.923.263-23.89.25-1.273-.007-2.627.293-4.06.9-5.953 2.52-11.883 2.29-17.79-.69-.3-.153-.61-.183-.93-.09-11.33 3.2-32.06 5.13-42.36-1.82a1.623 1.623 0 0 0-.92-.28c-46.927.267-93.863.287-140.81.06-1.427-.007-2.867.307-4.32.94-10.49 4.59-22.73 3.6-33.68-.08a1.16 1.16 0 0 0-.93.07c-7.82 4.067-15.553 3.983-23.2-.25a.923.923 0 0 0-.91-.02c-10.32 5.29-20.62 4.49-31.61 1.2-.447-.133-.67.033-.67.5v5.16c0 .433.217.65.65.65Zm42.12 83.16 3.36-9c.16-.427.02-.713-.42-.86-39.07-12.95-104.18-17.2-118.03 35.44-.2.76.093 1.137.88 1.13l148.86-.86c.4 0 .647-.193.74-.58.75-3.18.82-7.36 1.1-9.6 1.4-11.49 4.06-22.89 5.42-34.49.71-6.07 1.25-28.3-9.82-26.4-10.56 1.81-16.45 26.89-18.39 35.52-.667 2.987-.903 7.097-.71 12.33.02.4-.167.56-.56.48l-12.13-2.56c-.313-.067-.413-.25-.3-.55Zm243.69 1.15c1.19-12.14-6.25-29.27-15.77-37.53-4.12-3.57-11.7-6.14-16.73-2.96-4.64 2.94-5.81 10.82-5.35 15.82.22 2.367 1.357 6.103 3.41 11.21a219.84 219.84 0 0 1 11.18 36.93c.073.347.283.52.63.52l146.36.21c.373.007.543-.177.51-.55-2.25-22.9-20.26-37.08-41.77-40.91-23.86-4.24-49.47.04-72.38 7.43a.607.607 0 0 0-.39.76l2.28 7.2c.12.387-.023.607-.43.66l-11.23 1.52c-.24.027-.347-.077-.32-.31Z"/><path stroke="#FAED9A" stroke-width="2" d="M519.788 218.837a9.546 9.546 0 0 0 3.756-.879 9.857 9.857 0 0 0 3.143-2.305 10.298 10.298 0 0 0 2.052-3.38c.463-1.256.683-2.595.648-3.941-.071-2.718-1.179-5.297-3.08-7.17-1.9-1.873-4.438-2.887-7.055-2.818-2.617.068-5.098 1.213-6.898 3.183-1.8 1.97-2.772 4.603-2.701 7.321.071 2.718 1.179 5.297 3.08 7.17 1.9 1.873 4.438 2.887 7.055 2.818M300.227 71.876a.548.548 0 0 0-.161-.22.72.72 0 0 0-.266-.136.97.97 0 0 0-.33-.03 1.164 1.164 0 0 0-.343.078c-.224.088-.413.24-.524.424a.617.617 0 0 0-.07.551.55.55 0 0 0 .161.22.714.714 0 0 0 .266.137c.102.028.214.04.329.03a1.163 1.163 0 0 0 .649-.255.969.969 0 0 0 .22-.247.702.702 0 0 0 .101-.28.55.55 0 0 0-.032-.272Z"/><path stroke="#E30002" stroke-width="2" d="M511.32 358.29c15.26-26.75 12.92-63.47 2.15-91.06-5.88-15.07-22.84-40.32-42.37-33.91-17.48 5.73-25.69 30.22-27.05 46.68-1.847 22.52 1.49 43.827 10.01 63.92 1.093 2.58 1.627 4.757 1.6 6.53-.25 18.04-17.68 16.21-23.32 2.53a.986.986 0 0 1 0-.8c13.05-31.98 8.68-81.11-17.97-105.6-10.54-9.69-27.58-9.63-37.82-.53-14.41 12.82-19.83 32.82-20.8 51.95-1.19 23.44 4.12 47.68 18.38 66.4.028.04.042.087.041.135a.227.227 0 0 1-.16.215.227.227 0 0 1-.141 0c-32.64-12.12-49.05 27.48-31.18 50.48 16.08 20.7 50.5 25.16 75.31 25.7 29.113.627 57.18-3.07 84.2-11.09 13.38-3.973 25.497-10.327 36.35-19.06 17.93-14.42 15.82-41.3-6.37-49.97-6.653-2.6-13.517-3.31-20.59-2.13-.36.06-.45-.07-.27-.39Z"/><path stroke="#E30002" stroke-width="2" d="M477.19 358.31c4.113 3.8 9.023 5.187 14.73 4.16a.31.31 0 0 0 .13-.55c-27.29-20.57-19.32-61.47 2.55-82.35.367-.347.297-.527-.21-.54-3.72-.11-7.49.33-10.81-.82-16.6-5.75-14.42-23.42-5.08-34.49.3-.36.217-.567-.25-.62-13.21-1.59-21.12 21.33-22.71 30.91-4.53 27.27.08 64.4 21.65 84.3Zm-90.57 4.07c5.14 4.87 13.2 7.69 19.9 4.55.333-.153.363-.353.09-.6-27.38-24.68-13.58-63.59 9.68-84.91a.232.232 0 0 0 .044-.292.263.263 0 0 0-.122-.106.265.265 0 0 0-.162-.012c-16.25 4.77-33.45-4.92-27.12-23.93.77-2.29 2.1-4.61 3.36-6.85.233-.407.12-.567-.34-.48-14.65 2.84-22.12 22.69-24.41 35.31-4.63 25.44.06 59.25 19.08 77.32ZM407.42 378.93c23.41 3.87 48.38.45 70.63-7.27.393-.133.403-.293.03-.48a40.97 40.97 0 0 1-13.18-10.37c-.26-.307-.497-.29-.71.05-3.24 5.13-4.72 8.61-10.44 11.41-11.31 5.54-19.67-1-27.33-8.57-.26-.253-.49-.23-.69.07-5.047 7.54-11.967 12.397-20.76 14.57-.7.167-.69.297.03.39.77.1 1.92.12 2.42.2Z"/><path stroke="#E30002" stroke-width="2" d="M346.42 401.52c4.81 21.59 42.84 27.27 60.09 28.51 23.3 1.66 47.47 0 70.43-4.37 18.16-3.46 65.06-15.9 63.19-40.22-.71-9.28-8.07-14.76-16.82-16.33-10.82-1.95-18.93 2.62-29.5 7.45-31.39 14.36-78.64 21.68-111.71 4.89-8.01-4.06-14.26-10.99-24.04-7.77-11.89 3.91-14.02 17.18-11.64 27.84Zm-73.88-82.471a4.882 4.882 0 0 0-1.516-3.422 4.887 4.887 0 0 0-3.492-1.348l-11.596.284a4.882 4.882 0 0 0-3.422 1.516 4.886 4.886 0 0 0-1.348 3.492l.014.54a4.882 4.882 0 0 0 1.516 3.422 4.886 4.886 0 0 0 3.492 1.348l11.596-.284a4.882 4.882 0 0 0 3.422-1.516 4.887 4.887 0 0 0 1.348-3.492l-.014-.54Zm369.507 2.548a4.788 4.788 0 0 0-4.831-4.748l-11.82.103a4.788 4.788 0 0 0-4.748 4.831l.005.5a4.788 4.788 0 0 0 4.831 4.748l11.82-.103a4.788 4.788 0 0 0 4.748-4.831l-.005-.5Z"/><path stroke="#E30002" stroke-width="2" d="M359.1 400.81c34.09 14.46 72.62 17.62 109.05 12.17 20.69-3.1 37.78-6.64 55.53-18.39a.888.888 0 0 0 .365-1.013.913.913 0 0 0-.185-.337l-8.52-9.67c-.32-.367-.633-.36-.94.02-5.55 6.85-16.46 11.09-25.19 13.77-27.76 8.55-57.6 9.76-86.17 5.26-14.71-2.31-24.78-4.54-34.85-13.79-.307-.28-.583-.253-.83.08l-8.43 11.28a.415.415 0 0 0-.065.351c.016.06.046.115.087.161.04.047.091.084.148.108Z"/><path fill="#E30002" d="m484.21 654.25-7.46-.18-77.62-.54a1.05 1.05 0 0 0-.86.39c-15.45 17.73-23.58 45.95-27.06 68.51-.63 4.14-1.01 9.66-1.58 14.53-.04.36-.243.54-.61.54H199.48a.753.753 0 0 1-.55-.241.748.748 0 0 1-.19-.569c3.48-37.17 31.7-58.57 67.22-61.4 22.08-1.76 43.17 1.16 64.16 8.13.36.12.627.01.8-.33.38-.78.747-1.807 1.1-3.08a171.198 171.198 0 0 1 9.71-26.53.22.22 0 0 0-.015-.197.185.185 0 0 0-.071-.068.184.184 0 0 0-.094-.025c-28.233-.62-56.47-.803-84.71-.55-8.41.08-21.56-.21-32.36.23-.34.013-.637-.09-.89-.31-2.147-1.853-3.697-3.27-4.65-4.25-24.247-24.873-40.663-41.957-49.25-51.25-2.787-3.007-4.84-6.747-6.16-11.22-2.46-8.32 2.87-15.75 10.8-18.31.28-.087.42-.277.42-.57v-54.17a.363.363 0 0 0-.42-.35c-10.5 1.7-18.6-.953-24.3-7.96-12.56-15.43-3.23-45.24 4.31-61.35a220.658 220.658 0 0 1 20.75-35.36c.187-.253.28-.537.28-.85l.56-114.07c0-.4-.193-.643-.58-.73-1.66-.38-3.35-.773-5.07-1.18-12.01-2.83-13.61-17.07-5.23-24.76a16099.549 16099.549 0 0 1 43.59-39.94c2.89-2.63 3.77-4.54 8.29-4.34 5.007.213 16.823.22 35.45.02.36-.007.487-.18.38-.52l-13.5-44.72a.797.797 0 0 0-.86-.57c-2.7.333-4.63-.733-5.79-3.2a1066.498 1066.498 0 0 1-7.46-16.27.529.529 0 0 0-1 .13c-1.56 9.013-1.917 18.17-1.07 27.47.38 4.12-5.13 6.54-8.48 6.12-1.56-.2-3.2-1.18-4.92-2.94-19.63-20.02-33.66-52.45-25.55-80.6 5.09-17.71 21.79-26.32 39.16-19.56 1.667.647 2.87 1.677 3.61 3.09.147.287.367.36.66.22l2.32-1.08c.34-.16.597-.407.77-.74a11.931 11.931 0 0 0 1.35-6.72 1 1 0 0 0-.57-.85c-7.973-4.213-12.713-10.673-14.22-19.38-2.18-12.53-22.07-16.74-32.21-16.69-7.18.04-13.8 1.93-19.86 5.67-.287.18-.597.26-.93.24-3.05-.16-4.73-1.77-5.43-4.59-.91-3.74-1.86-6.32 1.88-8.98 7.25-5.13 15.35-13.34 19.99-17.06C196.54 7.66 217.07-.87 237.48.58c16.83 1.19 29.83 10.6 35.32 26.31 3.47 9.96 6.59 29.46-10.36 29.11-.347-.007-.56.16-.64.5-.24 1.02 3.33 1.91 3.91 2.17.247.113.51.17.79.17l9.27-.05c.28-.007.457-.143.53-.41 5.35-20.52 26.82-29.2 46.07-31.2 21.32-2.22 50.07 6.25 61.73 25.46 3.8 6.26 5.17 13.58 6.62 21.11 1.16 6.027-1.15 9.36-6.93 10-4.59.51-4.86-6.26-7.19-8.88-2.63-2.95-5.9-6.07-10.11-6.12-5.587-.053-10.383 2.017-14.39 6.21-.22.227-.187.407.1.54 22.53 10.58 15.63 44.7 9.19 62.57-2.75 7.65-10.54 4.07-11.32-2.05-1.08-8.44-9.79-33.35-22.88-28.58-9.45 3.44-15.06-2.1-19.14-9.87a.262.262 0 0 0-.47.02c-2.753 6.473-3.25 13.09-1.49 19.85.093.353.323.553.69.6 2.22.27 4.07.82 6.29.96 8.59.52 27.22 4.25 25.71 16.18a247.775 247.775 0 0 1-2.17 13.92c-.4 2.11-.56 5.18-1.24 7.62-.75 2.69-3.25 4.29-4.91 6.59-.173.24-.403.4-.69.48l-1.18.31c-.373.1-.557.343-.55.73l.29 56.2c0 .28.14.42.42.42 15.56.073 31.087.17 46.58.29 1.62.013 3.29-.29 5.01-.91 11.993-4.327 23.923-4.273 35.79.16 1.9.707 3.717 1.093 5.45 1.16 6.88.273 13.763.47 20.65.59.36.007.667-.117.92-.37 14.127-13.833 30.89-17.783 50.29-11.85.367.113.553-.02.56-.4.02-1.45.1-2.69-.25-4.16-3.6-14.92 6.41-33.6 17.53-42.71 13.29-10.88 28.9-24.3 29.7-43.05.353-8.413-2.257-16.097-7.83-23.05a.336.336 0 0 1-.066-.29.337.337 0 0 1 .186-.23c5.167-2.553 10.413-4.403 15.74-5.55 3.77-.81 7.18-1.9 10.96-2.14 14.17-.93 29.81.32 42.49 7.25.34.18.41.433.21.76-11.99 20.2-10.52 41.62 7.41 57.97 10.35 9.43 17.55 18.9 22.93 31.96 2.53 6.17 4.02 16.03 3.98 23.62-.01 3.44-1.31 6.95-2.32 10.47-.107.373.037.56.43.56 17.487-.04 34.95-.047 52.39-.02 8.33.01 7.83 9.97 4.78 14.86-.907 1.447-2.53 2.903-4.87 4.37a1900.06 1900.06 0 0 1-16.97 10.48c-.333.2-.5.497-.5.89l.16 137.3c0 .387.16.687.48.9 24.58 16.45 49.47 37.93 63.19 64.68 9.46 18.43 9.27 40.1-14.14 46.85-5.22 1.5-10.623 2.077-16.21 1.73-.34-.02-.64.077-.9.29-9.08 7.47-20.32 9.75-30.86 4.9a.588.588 0 0 0-.769.254.583.583 0 0 0-.071.286l.91 97.85c0 .427.18.763.54 1.01 9.36 6.367 18.68 12.76 27.96 19.18 4.367 3.02 7.153 5.377 8.36 7.07 6.09 8.51 1.96 21-9.77 20.9-45.93-.37-91.78-.24-137.7-1.2a.587.587 0 0 0-.543.344c-.048.103-.065.219-.048.332a.597.597 0 0 0 .141.304c6.58 7.26 11.39 20.08 14.39 29.33.113.347.347.463.7.35 24.89-8.03 53.41-12.93 79.11-7.32 30.07 6.57 48.13 26.96 48.03 59.14 0 .103-.04.203-.111.276a.377.377 0 0 1-.269.114l-164.85.07c-.38 0-.617-.183-.71-.55-.81-3.06-.93-6.85-1.46-9.36-2.38-11.38-5.8-22.42-10.26-33.12-4.74-11.38-13.34-32.01-23.95-37.98-4.81-2.71-11.63-2.24-17.07-1.79ZM219.25 12.46c-7.267 1.747-14.08 4.367-20.44 7.86a.36.36 0 0 0-.17.405.334.334 0 0 0 .35.245c21.37-1.09 38.47 7.4 52.98 22.52.207.213.457.35.75.41l9.84 2.14a2.19 2.19 0 0 0 2.65-2.04c.54-10.933-3.197-19.863-11.21-26.79-9.01-7.8-23.85-7.92-34.75-4.75Zm31.59 45.99c-15.57-22.12-38.76-33.01-65.33-24.19a.33.33 0 0 0-.127.587.33.33 0 0 0 .237.063c13.74-.02 32.17 5.49 39.3 18.05.913 1.6 1.45 2.777 1.61 3.53 1.59 7.26 3.56 13.71 10.52 15.95 8.4 2.7 14.47-5.04 14.09-13.11a1.582 1.582 0 0 0-.3-.88Zm40.64-6.98c-5.753 6.733-7.193 13.937-4.32 21.61 2.78 7.44 8.11 11.39 16.18 9.69.327-.073.597-.243.81-.51 16.37-20.77 44.04-37.08 70.63-24.58.267.12.323.057.17-.19-9.8-15.53-34.72-22-52.03-20.06-11.9 1.33-23.37 4.61-31.44 14.04Zm29.21 46.34c4.56 1.57 9.88-4.8 11.6-8.47 3.75-7.98 7.18-17.86 14.24-23.36 2-1.553 1.787-1.963-.64-1.23-11.993 3.62-22.007 9.91-30.04 18.87-.773.853-1.057 1.727-.85 2.62.41 1.78 3.36 10.77 5.69 11.57Zm-50.86-28.62c-.5.02-.663.263-.49.73l6.62 17.85c.12.32.347.457.68.41l6.62-.88c.38-.047.447-.22.2-.52-4.14-5.033-6.673-10.793-7.6-17.28-.053-.4-.28-.59-.68-.57l-5.35.26Zm-27.22 17.6c7.6-.44 14.16 1.26 19.51 6.7.22.22.46.25.72.09l2.73-1.65c.453-.273.603-.663.45-1.17a127.774 127.774 0 0 0-7.08-18.39.307.307 0 0 0-.261-.173.31.31 0 0 0-.279.143c-3.627 5.853-8.85 9.433-15.67 10.74-.467.093-.703.38-.71.86l-.03 2.26c0 .413.207.61.62.59Zm96.87 11.89c7.32 4.967 12.653 11.56 16 19.78a.31.31 0 0 0 .59-.06c1.93-9.53 3.54-30.8-9.63-33.79-.353-.08-.61.043-.77.37l-6.34 13.14c-.107.227-.057.413.15.56Zm-131.22 11.34c4.88-4.26 10.74 1.27 6.76 6.89-7.58 10.71-4.77 28.39-1.58 40.24a.224.224 0 0 0 .08.114.211.211 0 0 0 .132.041.194.194 0 0 0 .188-.165c3.22-17.91 14.27-41.93 35.03-44.27.327-.033.617-.153.87-.36 3.72-2.92 9.21-11.72 1.92-14.43-9.35-3.46-20.52.58-27.64 6.95-6.96 6.23-13.19-3.47-6.13-8.06a.431.431 0 0 0 .194-.436.459.459 0 0 0-.324-.364C206.2 93 196.83 98.66 193.72 110c-4.85 17.72 1.18 38.66 10.58 53.99a.29.29 0 0 0 .52-.23c-4.37-14.15-9.37-42.55 3.44-53.74Zm86.88-11.59c-3.39-.61-6.45-1.42-9.89-1.01-2.087.253-4.17.54-6.25.86-.367.06-.507.27-.42.63a98.306 98.306 0 0 1 2.58 19.8c.013.44.237.64.67.6l13.06-1.3c.433-.04.617-.273.55-.7a50.091 50.091 0 0 1 .53-17.64 1.045 1.045 0 0 0-.446-1.086 1.046 1.046 0 0 0-.384-.154Zm230.15 67.07c-16.02 10.35-24.86 24.98-20.76 44.49.54 2.59 4.36 9.52 6.85 11.21.28.187.587.28.92.28l95.95-.02 14 .03a.836.836 0 0 0 .75-.41c4.7-7.29 4.15-14.94 2.58-23.15-2.62-13.73-11.88-26.23-22.28-35.48-.767-.68-1.45-1.093-2.05-1.24a1.187 1.187 0 0 1 .01-.26.464.464 0 0 0-.17-.43c-12.19-11.13-17.01-26.25-16.82-42.61.05-3.93 1.88-8.28-1.93-11.84-6.273-5.88-13.737-6.927-22.39-3.14-7.34 3.2-8.69 9.15-8.71 16.41-.05 19.48-12.37 33.26-25.81 45.44a.514.514 0 0 0-.18.44c.007.113.02.207.04.28Zm-256.9-63.26c-.81.4-2.84 2.13-3 2.96-.953 5.08-3.25 9.463-6.89 13.15-.273.273-.343.593-.21.96l1.4 3.93c.1.267.287.367.56.3l10.59-2.59c.44-.107.63-.387.57-.84l-2.43-17.55c-.053-.38-.25-.487-.59-.32Zm-20.9 24.87-1.83-2.57c-.207-.287-.47-.357-.79-.21-4.94 2.32-7.77 5.56-11.36 9.99-.28.34-.223.41.17.21l13.69-6.93a.331.331 0 0 0 .177-.36.33.33 0 0 0-.057-.13Zm-9.75 30.45c17.23-20.03 66.89-27.01 88.55-12.3.373.253.597.157.67-.29l1.62-10.68c.06-.427-.1-.733-.48-.92-3.673-1.833-8.04-3.11-13.1-3.83-19.73-2.78-40.13-.14-58.75 5.93-4.23 1.38-24.49 9.26-22.18 15.71a46.772 46.772 0 0 0 2.8 6.29.526.526 0 0 0 .411.274.527.527 0 0 0 .459-.184Zm26.43 64.25 53.35-.09c.32 0 .48-.16.48-.48.047-14.72-.023-29.447-.21-44.18-.073-5.4-.6-9.377-1.58-11.93-1.58-4.1-4.173-7.373-7.78-9.82-16.26-11.03-39.98-6.99-52.18 8.67-5.2 6.68-6.16 13.19-3.71 21.47a2776.969 2776.969 0 0 0 10.85 35.79c.12.38.38.57.78.57Zm262.55 55.12c-2.09-24.08-13.79-49.91-39.03-57.41-18.81-5.58-36.86 4.45-45.49 21.62-1.15 2.29-1.37 4.55-1.49 7.04-.013.367-.2.58-.56.64l-8.08 1.27c-.38.06-.643-.083-.79-.43-4.56-10.367-11.9-17.077-22.02-20.13-28.08-8.48-54 15.42-60.55 40.89-1.1 4.29-.61 8.96-.75 13.57-.007.34-.177.557-.51.65l-12.96 3.39a.33.33 0 0 1-.309-.07.358.358 0 0 1-.121-.3 92.018 92.018 0 0 1 5.35-23.3.402.402 0 0 0-.19-.488.387.387 0 0 0-.18-.042l-57.43-.39a.53.53 0 0 0-.368.149.509.509 0 0 0-.152.361l.02 21.32c0 .293.097.553.29.78 4.18 5.04 6.533 10.61 7.06 16.71.647 7.44.71 16.667.19 27.68-.367 7.9-2.837 15.58-7.41 23.04a1.24 1.24 0 0 0-.16.92c.46 2.267.687 3.967.68 5.1-.04 13.053-.037 26.1.01 39.14 0 .34.16.573.48.7 17.713 6.873 26.127 20.1 25.24 39.68-.067 1.493.643 2.823 2.13 3.99.26.207.553.277.88.21 4.133-.847 7.217.213 9.25 3.18 2.22 3.23 1.25 11.12 1.26 15.09a.703.703 0 0 0 .44.653c.086.034.178.05.27.047a23.45 23.45 0 0 0 9.92-2.42.958.958 0 0 0 .56-.78c.46-3.73.31-6.6 4.49-7.95.327-.107.647-.083.96.07 9.86 4.79 23.69 3.37 33.67-.12 3.14-1.1 6.58-.64 6.65 3.26.327 18.907.103 44.733-.67 77.48-.007.367.17.58.53.64 2.293.407 4.6.607 6.92.6 18.773-.053 37.543.177 56.31.69 24.83.68 49.64.54 74.49 1.33a.37.37 0 0 0 .258-.098.37.37 0 0 0 .112-.252c.287-19.593.397-39.2.33-58.82-.01-5.02 2.36-8.79 7.83-7.32 10.607 2.853 21.393 3.31 32.36 1.37.34-.06.513-.263.52-.61.04-5.28.147-10.55.32-15.81.19-5.88.06-11.03 7.01-11.12 5.547-.073 11.12-.2 16.72-.38.32-.013.477-.177.47-.49-.3-20.307 8.73-34.26 27.09-41.86.287-.12.43-.333.43-.64V352.5c0-.32-.093-.61-.28-.87-3.153-4.42-4.733-9.377-4.74-14.87-.007-11.673.007-23.343.04-35.01.02-4.413 1.57-8.653 4.65-12.72.207-.273.31-.583.31-.93l.05-22.7a.626.626 0 0 0-.185-.445.626.626 0 0 0-.445-.185l-72.49-.43c-.34 0-.467.163-.38.49l3.21 11.66a.306.306 0 0 1-.051.265.313.313 0 0 1-.239.125l-11.28.45c-.28.013-.43-.12-.45-.4Zm2.43-33.58c22.6.527 45.203.743 67.81.65 3.9-.02 8-.65 12.08-.82a.854.854 0 0 0 .75-.46c1.28-2.22 3.27-3.377 5.97-3.47 8.933-.327 17.87-.373 26.81-.14 3.56.093 6.073 1.48 7.54 4.16.16.293.407.45.74.47 4.11.28 10.27 1.15 14-.86a78.291 78.291 0 0 0 9.06-5.7c2.45-1.78.53-5.39-2.17-5.4-37.993-.12-87.917-.09-149.77.09-.313 0-.387.133-.22.4l6.6 10.62c.187.3.453.453.8.46Zm-249.18-2.7c9.593.56 19.187.937 28.78 1.13 3.087.067 6.17-.04 9.25-.32l32.59.64a1.08 1.08 0 0 0 .83-.34l8.98-9.37c.247-.26.19-.39-.17-.39H218c-.327 0-.61.11-.85.33a4340.883 4340.883 0 0 0-41.84 38.73c-2.07 1.95-7.52 8.83-2.69 9.86 1.86.39 2.79-.54 4.17-1.64 13.727-10.96 27.457-21.92 41.19-32.88 3.4-2.71 4.68-6 10.25-5.78 3.627.14 7.293.293 11 .46.36.02.627-.127.8-.44 1.307-2.307 3.32-3.533 6.04-3.68 9.72-.533 19.447-.59 29.18-.17 2.047.087 3.62 1.373 4.72 3.86Zm-47.65 22.72-1.05 143.89c0 .547.24.693.72.44l6.82-3.64c.307-.167.497-.42.57-.76.247-1.053.37-1.82.37-2.3.007-16.94.007-33.883 0-50.83 0-.347-.11-.653-.33-.92-2.54-3.167-3.97-6.06-4.29-8.68-1.093-9.067-1.41-21.237-.95-36.51.19-6.37.89-12.76 5.27-17.78.2-.227.3-.493.3-.8v-22.97c0-.507-.253-.727-.76-.66l-6.11.88c-.367.053-.553.267-.56.64Zm420.09 141.8 6.96 4.43c.433.28.647.163.64-.35l-.81-144.07c0-.347-.173-.517-.52-.51l-7.08.12c-.4.007-.6.21-.6.61v22.37c0 .353.107.673.32.96 6.91 9.4 7.16 17.5 7.27 30.41.1 13.29-.55 24.4-7.36 36.04-.153.26-.23.54-.23.84V404c0 .127.107.353.32.68.14.227.34.34.6.34.173.007.337.057.49.15ZM205.3 280.54l9.41-12.87a.409.409 0 0 0-.29-.64c-5.12-.46-10.5 3.5-13.99 6.9-.233.233-.253.48-.06.74l4.37 5.87a.36.36 0 0 0 .123.103.358.358 0 0 0 .314 0 .36.36 0 0 0 .123-.103Zm13.88 19.88a1.404 1.404 0 0 0 1.562.505 1.397 1.397 0 0 0 .968-1.325l.09-23.01c0-.733-.217-.803-.65-.21l-9.39 12.87c-.233.327-.233.653 0 .98l7.42 10.19Zm-26.3-17.89a51.262 51.262 0 0 0-5.87 14.32.976.976 0 0 0 .15.82l2.16 3.18c.393.587.797.593 1.21.02l7.76-10.75c.2-.28.2-.557 0-.83l-5-6.78a.257.257 0 0 0-.21-.097.25.25 0 0 0-.2.117ZM246.63 294a.377.377 0 0 0-.36.26l-1 2.99a.38.38 0 0 0 .36.5h30.4a.379.379 0 0 0 .34-.56l-1.57-2.99a.38.38 0 0 0-.34-.2h-27.83Zm369.31 2.6a.323.323 0 0 0-.31.24l-.75 2.89a.317.317 0 0 0 .06.28.322.322 0 0 0 .26.12l30.44-.19a.318.318 0 0 0 .313-.322.315.315 0 0 0-.043-.158l-1.73-2.85a.317.317 0 0 0-.27-.16l-27.97.15Zm-410.53 2.44a.476.476 0 0 0-.39-.2.478.478 0 0 0-.39.2l-8.13 11.1a.479.479 0 0 0 0 .56l8.16 11.17a.477.477 0 0 0 .611.139.474.474 0 0 0 .169-.149l8.05-11.15a.479.479 0 0 0 0-.56l-8.08-11.11Zm72 8.95-32.37.2c-.333 0-.5.167-.5.5a656.12 656.12 0 0 0 .42 27.13c.15 4.28 3.52 10.56 8.67 10.24 6.44-.39 13.09 0 19.57-.1.32-.007.547-.153.68-.44 5.64-11.87 5.01-24.16 4.37-36.74-.027-.527-.307-.79-.84-.79Zm337.27 30.56c.14 3.28 3.07 9.93 6.82 9.95 7.067.027 14.12.02 21.16-.02.353 0 .607-.157.76-.47 5.76-11.68 4.66-24.97 4.57-36.7 0-.513-.26-.77-.78-.77l-32.44.19c-.527.007-.79.273-.79.8-.007 6.9.227 15.907.7 27.02Zm-425-18.84c-5.3 3.79-3.68 13.88-3.67 19.5.01 2.22.87 3.71 2.1 5.38.04.056.092.101.153.133a.436.436 0 0 0 .394 0 .436.436 0 0 0 .153-.133l9.42-12.96c.233-.32.233-.643 0-.97l-7.83-10.83c-.2-.28-.44-.32-.72-.12Zm29.82.31-7.79 10.7c-.207.28-.207.56 0 .84l8.98 12.27a.293.293 0 0 0 .333.111.317.317 0 0 0 .217-.291c.01-2.43.4-23.13-.56-23.67-.54-.307-.933-.293-1.18.04Zm-14.14 20.44a.442.442 0 0 0-.159-.132.438.438 0 0 0-.402 0 .442.442 0 0 0-.159.132l-9.5 12.98a.45.45 0 0 0 0 .53l9.52 13.13a.449.449 0 0 0 .73 0l9.49-13.14a.45.45 0 0 0 0-.53l-9.52-12.97Zm-17.14 22.55c-1.56 1.71-2.23 2.71-2.23 5.2.013 4.7.017 9.407.01 14.12-.007.367.1.697.32.99l3.25 4.43c.247.34.49.34.73 0l7.98-11.01c.193-.28.193-.557 0-.83l-9.36-12.86a.44.44 0 0 0-.149-.132.445.445 0 0 0-.551.092Zm32.18.99-8.65 11.83c-.24.333-.24.663 0 .99l7.96 10.85a.73.73 0 0 0 .803.253.706.706 0 0 0 .487-.673V364.2a.328.328 0 0 0-.225-.324.329.329 0 0 0-.375.124Zm-14.92 21.71a.57.57 0 0 0-.45-.227.563.563 0 0 0-.45.227l-8.02 10.99a.56.56 0 0 0 0 .66l8.01 10.94a.57.57 0 0 0 .45.227.563.563 0 0 0 .45-.227l7.97-10.98a.56.56 0 0 0 0-.66l-7.96-10.95Zm-15.83 20.43-3.24 4.44c-.213.3-.327.633-.34 1-.21 5.42-1.97 15.43 2.25 19.41.24.227.457.207.65-.06l9.34-12.78c.22-.293.22-.587 0-.88l-8.19-11.13c-.16-.213-.317-.213-.47 0Zm31.3.68a.696.696 0 0 0-.49-.661.704.704 0 0 0-.78.261l-7.96 10.85a.702.702 0 0 0 0 .82l2.28 3.14a.708.708 0 0 0 .505.283.695.695 0 0 0 .545-.193l5.76-5.45a.699.699 0 0 0 .22-.52l-.08-8.53Zm398.99 42.71a39.86 39.86 0 0 1 1.03 11.48c-.02.4-.23.58-.63.54-8.06-.74-17.73 2.58-20.33 10.94-2.61 8.44-.76 19.73 8.09 23.84.427.2.64.067.64-.4.01-3.13-.16-6.19 1.12-8.93 4.55-9.74 17.17-11.64 26.03-7.24 6.09 3.02 8.45 9.55 15.22 12.34 13.05 5.37 26.8-1.1 33.07-13.22a.231.231 0 0 1 .267-.108.231.231 0 0 1 .163.238c-.65 7.59-3.27 15.74-9.98 20.16-.287.193-.28.373.02.54 5.033 2.733 10.143 2.993 15.33.78 13.54-5.78 19.53-22 16.53-35.62-1.99-9.02-8.89-18.11-19.05-17.59-.333.02-.47.193-.41.52 1.047 5.34.573 10.577-1.42 15.71a.389.389 0 0 1-.147.192.386.386 0 0 1-.458-.025.381.381 0 0 1-.125-.207c-2.613-10.827-7.29-20.57-14.03-29.23-14.42-18.51-39.57-36.39-63.55-23.65-8.753 4.647-13.99 12.033-15.71 22.16-.06.353.067.443.38.27 8.5-4.6 17.1-9.35 27.03-9.31a.926.926 0 0 1 .92.79l1.85 12.13c.067.433-.117.63-.55.59-2.8-.27-5.64-1.08-8.2-.93-12.66.73-33.61 11.25-23.05 27.35.18.28.377.293.59.04 6.66-7.86 17.91-14.63 28.56-14.78.433-.007.7.203.8.63Zm-414.65 32.1a.341.341 0 0 1 .416-.207.345.345 0 0 1 .144.087c10.34 10.3 23.15 13.62 35.67 5.59 4.06-2.61 7.06-6.39 11.18-8.96 10.05-6.28 25.58-.1 28.99 11.54.6 2.05-.05 4.11.08 6.35.027.413.23.543.61.39 6.31-2.54 12.25-8.12 13.02-15.06 1.85-16.81-17.77-22.56-30.48-19.35a.535.535 0 0 1-.461-.098.533.533 0 0 1-.209-.422v-12.5c0-.36.18-.55.54-.57 13.573-.827 24.903 3.69 33.99 13.55a.692.692 0 0 0 .884.112.676.676 0 0 0 .216-.232c4.51-7.96 2.18-14.9-4.12-21.03-8.78-8.54-19.01-9.49-30.96-8.32-.367.04-.55-.123-.55-.49v-10.96c0-.567.28-.837.84-.81 11.613.527 22.407 3.697 32.38 9.51a.208.208 0 0 0 .114.031.203.203 0 0 0 .181-.133.206.206 0 0 0 .005-.118c-4.34-17.88-18.06-23.93-35.3-22.39-29 2.6-51.22 28.19-61.7 53.29a.326.326 0 0 1-.144.156.326.326 0 0 1-.397-.063.33.33 0 0 1-.089-.193 56.053 56.053 0 0 1 .88-15.8c.073-.387-.083-.547-.47-.48-7.93 1.41-14.61 12.13-16.6 19.13-4.38 15.34 13.01 44.91 31.98 32.85.347-.213.34-.42-.02-.62-3.75-2.1-12.36-8.72-10.62-13.78Zm-5.39-47.31c2.67-.24 4.4.51 6.18-1.56 1.827-2.107 1.533-4.007-.88-5.7-.273-.187-.507-.147-.7.12l-4.86 6.68c-.247.347-.16.5.26.46Zm82.96 169.91c8.3 3.31 20.94 5.1 28.65-.48a1.746 1.746 0 0 0 .72-1.41c-.07-50.24 1.05-103.8.74-150.53 0-.36-.187-.54-.56-.54-.327 0-.48.163-.46.49.36 7.707-2.273 14.107-7.9 19.2-.273.247-.357.547-.25.9 4.9 16.3-6.29 30.24-21.54 34.56-.393.113-.59.373-.59.78l.36 95.8a1.338 1.338 0 0 0 .83 1.23Zm284.66 1.05c2.5.813 5.043.973 7.63.48.346-.065.66-.249.886-.521.226-.272.351-.614.354-.969l.51-151.86c0-.487-.247-.727-.74-.72l-8.34.2c-.42.007-.643.22-.67.64-.91 14.24-.06 30.97-.12 42.47-.193 36.44-.207 72.96-.04 109.56 0 .367.177.607.53.72Zm-226.34-1.3c9.01 2.63 17.64 4.61 26.88 1.28.347-.127.523-.377.53-.75l1.4-143.76c.007-.367-.17-.513-.53-.44a81.287 81.287 0 0 1-27.88.98c-.393-.053-.59.117-.59.51l.01 141.94c0 .127.06.207.18.24Zm-20.67-.73c-.04 4.98 8.94 3.5 11.8 2.69a.881.881 0 0 0 .64-.85l.07-136.25c0-.467-.22-.617-.66-.45a25.91 25.91 0 0 1-10.28 1.72 1.035 1.035 0 0 0-.997.633 1.032 1.032 0 0 0-.083.407c.04 44.06-.123 88.093-.49 132.1Zm206.13 1.51c9.873 2.087 19.763 2.11 29.67.07a.9.9 0 0 0 .517-.315.915.915 0 0 0 .203-.575l.3-123.84a.568.568 0 0 0-.64-.57 108.304 108.304 0 0 1-30.44-.54c-.327-.053-.49.083-.49.41-.027 18.893-.023 37.783.01 56.67 0 1.43.55 3.21.53 4.43-.313 20.84-.407 42.007-.28 63.5a.784.784 0 0 0 .62.76ZM239.417 499.966a.604.604 0 0 0-.369-.556.596.596 0 0 0-.229-.046l-7.5-.027a.604.604 0 0 0-.556.369.596.596 0 0 0-.046.229l-.414 118.44a.602.602 0 0 0 .598.601l7.5.027a.604.604 0 0 0 .556-.369.596.596 0 0 0 .046-.229l.414-118.439ZM608.23 507.9a39.201 39.201 0 0 1-13.03-6.58 1.53 1.53 0 0 0-.95-.32h-7.4c-.433 0-.653.217-.66.65l-.25 101.07c0 .353.177.53.53.53h21.87a.41.41 0 0 0 .41-.41l.01-94.24c0-.367-.177-.6-.53-.7Zm51.75-4.89c-3.14-.01-5.31.12-8.38-.75-.4-.113-.6.04-.6.46v117.5a.532.532 0 0 0 .53.53h9.06c.393 0 .59-.197.59-.59l-.67-116.62c0-.353-.177-.53-.53-.53Zm-439.73 12.6V505.3c0-.353-.16-.453-.48-.3l-5.16 2.42c-.447.213-.52.52-.22.92l5.56 7.37c.2.273.3.24.3-.1Zm-31.99 2.21a.3.3 0 0 0 .49 0l8.06-11.15a.298.298 0 0 0-.021-.373.3.3 0 0 0-.109-.077l-2.06-.84a.296.296 0 0 0-.24.01l-8.9 4.17a.302.302 0 0 0-.17.26l-.19 3.3a.302.302 0 0 0 .05.18l3.09 4.52Zm17.06-4.39a.385.385 0 0 0-.31-.153.385.385 0 0 0-.31.153l-9.6 13.12a.388.388 0 0 0 0 .46l9.6 13.2a.392.392 0 0 0 .492.118.392.392 0 0 0 .138-.118l9.56-13.25a.388.388 0 0 0 0-.46l-9.57-13.07Zm-17.13 22.76c-1.91 2.03-3.24 3.7-3.21 6.72.04 3.673.04 7.36 0 11.06 0 .36.103.683.31.97l4.26 5.84c.26.36.52.36.78 0l7.97-10.95c.207-.287.207-.57 0-.85l-9.58-13.12c-.14-.187-.28-.19-.42-.01a.464.464 0 0 0-.11.34Zm31.21 24.23a.323.323 0 0 0 .36.118.326.326 0 0 0 .16-.118.316.316 0 0 0 .06-.19l.04-21.65a.316.316 0 0 0-.06-.19.322.322 0 0 0-.52 0l-7.88 10.81a.319.319 0 0 0 0 .38l7.84 10.84Zm158.24-8.24 138.8 1.69c.373.007.56-.18.56-.56l-.01-6.98a1.43 1.43 0 0 0-1.39-1.43c-45.79-1.06-90.62-2.27-137.87-1.82-.327.007-.49.17-.49.49l-.06 8.13c-.007.313.147.473.46.48Zm-173.02 29.26a.476.476 0 0 0 .39.2.478.478 0 0 0 .39-.2l8.1-11.08a.479.479 0 0 0 0-.56l-8.09-11.09a.476.476 0 0 0-.39-.2.478.478 0 0 0-.39.2l-8.11 11.08a.479.479 0 0 0 0 .56l8.1 11.09Zm312.17-17.9a.337.337 0 0 0-.1-.24.337.337 0 0 0-.24-.1l-139.1-1.37a.337.337 0 0 0-.24.1.337.337 0 0 0-.1.24l-.03 39.24c0 .09.036.177.1.24.063.064.15.1.24.1h138.99c.09 0 .177-.036.24-.1.064-.063.1-.15.1-.24l.14-37.87Zm-289.15 78.67c59.1.11 118.19.94 177.29.84 6.627-.013 13.297.02 20.01.1 62.17.7 124.32.7 186.49 1.12 26.6.18 53.91.79 77.38.71 2.387-.013 4.42-.89 6.1-2.63.233-.24.347-.527.34-.86-.13-6.83-15.96-16.22-23.07-20.46-.287-.167-.43-.087-.43.24v9.23c0 .133-.053.26-.146.354a.504.504 0 0 1-.354.146h-19.5c-.36 0-.547.18-.56.54-.22 6.5-4.41 8.11-10.45 8.2-9.08.147-18.16.25-27.24.31-4.57.02-4.83-5.07-4.75-8.41.013-.393-.177-.59-.57-.59-45.253-.213-90.503-.52-135.75-.92-63.26-.56-126.57-.12-189.83-.3-.313 0-.513.153-.6.46-1.27 4.68-4.3 6.84-9.29 6.97-9.073.22-18.177.3-27.31.24-4.81-.03-6.85-2.91-6.29-7.55.053-.433-.14-.65-.58-.65l-14.69-.15a1.312 1.312 0 0 1-.95-.41l-46.95-48.64a.702.702 0 0 1-.2-.69c.047-.233-.04-.407-.26-.52a.606.606 0 0 0-.447-.052.586.586 0 0 0-.353.272c-2.69 4.63-.9 7.45 2.63 11.09 16.52 17.127 33.02 34.343 49.5 51.65.227.24.503.36.83.36Zm-14.18-50.88a6.308 6.308 0 0 0 2.9 1.86c.307.093.583.04.83-.16 3.93-3.26 2.84-8.77 2.79-13.15a.284.284 0 0 0-.194-.254.283.283 0 0 0-.306.094l-7.18 9.81c-.2.28-.207.563-.02.85.167.253.39.443.67.57.193.093.363.22.51.38Zm69.19 27.97 325.47 1.21c.42.007.63-.203.63-.63v-6.43c0-.447-.223-.663-.67-.65-7.96.18-15.923.263-23.89.25-1.273-.007-2.627.293-4.06.9-5.953 2.52-11.883 2.29-17.79-.69-.3-.153-.61-.183-.93-.09-11.33 3.2-32.06 5.13-42.36-1.82a1.623 1.623 0 0 0-.92-.28c-46.927.267-93.863.287-140.81.06-1.427-.007-2.867.307-4.32.94-10.49 4.59-22.73 3.6-33.68-.08a1.16 1.16 0 0 0-.93.07c-7.82 4.067-15.553 3.983-23.2-.25a.923.923 0 0 0-.91-.02c-10.32 5.29-20.62 4.49-31.61 1.2-.447-.133-.67.033-.67.5v5.16c0 .433.217.65.65.65Zm42.12 83.16 3.36-9c.16-.427.02-.713-.42-.86-39.07-12.95-104.18-17.2-118.03 35.44-.2.76.093 1.137.88 1.13l148.86-.86c.4 0 .647-.193.74-.58.75-3.18.82-7.36 1.1-9.6 1.4-11.49 4.06-22.89 5.42-34.49.71-6.07 1.25-28.3-9.82-26.4-10.56 1.81-16.45 26.89-18.39 35.52-.667 2.987-.903 7.097-.71 12.33.02.4-.167.56-.56.48l-12.13-2.56c-.313-.067-.413-.25-.3-.55Zm243.69 1.15c1.19-12.14-6.25-29.27-15.77-37.53-4.12-3.57-11.7-6.14-16.73-2.96-4.64 2.94-5.81 10.82-5.35 15.82.22 2.367 1.357 6.103 3.41 11.21a219.84 219.84 0 0 1 11.18 36.93c.073.347.283.52.63.52l146.36.21c.373.007.543-.177.51-.55-2.25-22.9-20.26-37.08-41.77-40.91-23.86-4.24-49.47.04-72.38 7.43a.607.607 0 0 0-.39.76l2.28 7.2c.12.387-.023.607-.43.66l-11.23 1.52c-.24.027-.347-.077-.32-.31Z"/><path fill="#FAED9A" d="M254 17.21c-9.847-4.213-20.097-5.74-30.75-4.58-1.25.14-2.64-.27-4-.17 10.9-3.17 25.74-3.05 34.75 4.75Z"/><path fill="#fff" d="M254 17.21c8.013 6.927 11.75 15.857 11.21 26.79a2.183 2.183 0 0 1-.852 1.635 2.19 2.19 0 0 1-1.798.405l-9.84-2.14a1.418 1.418 0 0 1-.75-.41c-14.51-15.12-31.61-23.61-52.98-22.52a.33.33 0 0 1-.35-.245.354.354 0 0 1 .17-.405c6.36-3.493 13.173-6.113 20.44-7.86 1.36-.1 2.75.31 4 .17 10.653-1.16 20.903.367 30.75 4.58Z"/><path fill="#fff" d="M185.51 34.26c26.57-8.82 49.76 2.07 65.33 24.19.187.26.287.553.3.88.38 8.07-5.69 15.81-14.09 13.11-6.96-2.24-8.93-8.69-10.52-15.95-.16-.753-.697-1.93-1.61-3.53-7.13-12.56-25.56-18.07-39.3-18.05a.33.33 0 0 1-.11-.65Zm105.97 17.21c8.07-9.43 19.54-12.71 31.44-14.04 17.31-1.94 42.23 4.53 52.03 20.06.153.247.097.31-.17.19-26.59-12.5-54.26 3.81-70.63 24.58a1.403 1.403 0 0 1-.81.51c-8.07 1.7-13.4-2.25-16.18-9.69-2.873-7.673-1.433-14.877 4.32-21.61Zm8.747 20.406a.548.548 0 0 0-.161-.22.72.72 0 0 0-.266-.136.97.97 0 0 0-.33-.03 1.164 1.164 0 0 0-.343.078c-.224.088-.413.24-.524.424a.617.617 0 0 0-.07.551.55.55 0 0 0 .161.22.714.714 0 0 0 .266.137.97.97 0 0 0 .33.03 1.163 1.163 0 0 0 .648-.255.968.968 0 0 0 .22-.247.718.718 0 0 0 .102-.28.562.562 0 0 0-.033-.272Z"/><path fill="#fff" d="M320.69 97.81c-2.33-.8-5.28-9.79-5.69-11.57-.207-.893.077-1.767.85-2.62 8.033-8.96 18.047-15.25 30.04-18.87 2.427-.733 2.64-.323.64 1.23-7.06 5.5-10.49 15.38-14.24 23.36-1.72 3.67-7.04 10.04-11.6 8.47Zm-50.86-28.62 5.35-.26c.4-.02.627.17.68.57.927 6.487 3.46 12.247 7.6 17.28.247.3.18.473-.2.52l-6.62.88c-.333.047-.56-.09-.68-.41l-6.62-17.85c-.173-.467-.01-.71.49-.73Z"/><path fill="#FAED9A" d="M299.633 72.852c.468-.184.733-.62.594-.975-.14-.355-.632-.493-1.1-.309-.467.184-.733.621-.594.976.14.354.632.492 1.1.308Z"/><path fill="#fff" d="M262.12 93.49c-5.35-5.44-11.91-7.14-19.51-6.7-.413.02-.62-.177-.62-.59l.03-2.26c.007-.48.243-.767.71-.86 6.82-1.307 12.043-4.887 15.67-10.74a.313.313 0 0 1 .279-.143.31.31 0 0 1 .261.173 127.774 127.774 0 0 1 7.08 18.39c.153.507.003.897-.45 1.17l-2.73 1.65c-.26.16-.5.13-.72-.09Zm77.36 5.19c-.207-.147-.257-.333-.15-.56l6.34-13.14c.16-.327.417-.45.77-.37 13.17 2.99 11.56 24.26 9.63 33.79a.308.308 0 0 1-.273.248.316.316 0 0 1-.19-.041.314.314 0 0 1-.127-.147c-3.347-8.22-8.68-14.813-16-19.78Zm-124.46 18.23c3.98-5.62-1.88-11.15-6.76-6.89-12.81 11.19-7.81 39.59-3.44 53.74a.296.296 0 0 1-.024.194.288.288 0 0 1-.496.036c-9.4-15.33-15.43-36.27-10.58-53.99 3.11-11.34 12.48-17 24.04-13.83a.463.463 0 0 1 .324.364.431.431 0 0 1-.194.436c-7.06 4.59-.83 14.29 6.13 8.06 7.12-6.37 18.29-10.41 27.64-6.95 7.29 2.71 1.8 11.51-1.92 14.43a1.598 1.598 0 0 1-.87.36c-20.76 2.34-31.81 26.36-35.03 44.27a.194.194 0 0 1-.188.165.211.211 0 0 1-.132-.041.224.224 0 0 1-.08-.114c-3.19-11.85-6-29.53 1.58-40.24Z"/><path fill="#FAED9A" d="M326.29 145.26c-21.66-14.71-71.32-7.73-88.55 12.3a.533.533 0 0 1-.459.184.527.527 0 0 1-.411-.274 46.772 46.772 0 0 1-2.8-6.29c-2.31-6.45 17.95-14.33 22.18-15.71 18.62-6.07 39.02-8.71 58.75-5.93 5.06.72 9.427 1.997 13.1 3.83.38.187.54.493.48.92l-1.62 10.68c-.073.447-.297.543-.67.29Z"/><path fill="#FAED9A" d="M263.39 221.24a2776.969 2776.969 0 0 1-10.85-35.79c-2.45-8.28-1.49-14.79 3.71-21.47 12.2-15.66 35.92-19.7 52.18-8.67 3.607 2.447 6.2 5.72 7.78 9.82.98 2.553 1.507 6.53 1.58 11.93.187 14.733.257 29.46.21 44.18 0 .32-.16.48-.48.48l-53.35.09c-.4 0-.66-.19-.78-.57Z"/><path fill="#fff" d="M559.75 170.46c-6.7 8.98-13.32 16.63-23.71 21.44-7.49 3.47-16.56.09-15.44-9.31.69-5.74 5.2-7.95 10.2-10.76 3.093-1.74 5.78-4.29 8.06-7.65 1.2-1.147 2.8-3.153 4.8-6.02 7.82-11.22 23.57-.77 16.09 12.3Zm41.5-9.25c.6.147 1.283.56 2.05 1.24 10.4 9.25 19.66 21.75 22.28 35.48 1.57 8.21 2.12 15.86-2.58 23.15a.836.836 0 0 1-.75.41l-14-.03c-2.44-5.11-1.18-7.95-1.2-13.08-.04-11-6.24-23.84-12.71-32.47-1.073-1.433-1.687-3.583-1.84-6.45 1.527-4.253 4.443-7.003 8.75-8.25Z"/><path fill="#FAED9A" d="M538.86 164.18c-2.28 3.36-4.967 5.91-8.06 7.65-5 2.81-9.51 5.02-10.2 10.76-1.12 9.4 7.95 12.78 15.44 9.31 10.39-4.81 17.01-12.46 23.71-21.44a53.87 53.87 0 0 1 5.51 1.66c9.56 3.42 18.64 2.533 27.24-2.66.153 2.867.767 5.017 1.84 6.45 6.47 8.63 12.67 21.47 12.71 32.47.02 5.13-1.24 7.97 1.2 13.08l-95.95.02c-.333 0-.64-.093-.92-.28-2.49-1.69-6.31-8.62-6.85-11.21-4.1-19.51 4.74-34.14 20.76-44.49 4.313-1.467 8.837-1.907 13.57-1.32Zm-19.072 54.656c2.617-.068 5.098-1.213 6.898-3.183 1.801-1.97 2.772-4.603 2.701-7.321-.071-2.718-1.179-5.297-3.08-7.17-1.9-1.873-4.438-2.887-7.055-2.818-2.617.068-5.098 1.213-6.898 3.183-1.8 1.97-2.772 4.603-2.701 7.321.071 2.718 1.179 5.297 3.08 7.17 1.9 1.873 4.438 2.887 7.055 2.818Z"/><path fill="#fff" d="M509.654 208.848c.148 5.659 4.686 10.13 10.135 9.988 5.449-.143 9.746-4.846 9.598-10.505-.148-5.659-4.686-10.131-10.135-9.988-5.449.142-9.746 4.846-9.598 10.505Z"/><path fill="#FAED9A" d="m527.17 277.33 11.28-.45a.313.313 0 0 0 .29-.39l-3.21-11.66c-.087-.327.04-.49.38-.49l72.49.43c.167 0 .327.066.445.185a.626.626 0 0 1 .185.445l-.05 22.7c0 .347-.103.657-.31.93-3.08 4.067-4.63 8.307-4.65 12.72-.033 11.667-.047 23.337-.04 35.01.007 5.493 1.587 10.45 4.74 14.87.187.26.28.55.28.87v46.46c0 .307-.143.52-.43.64-18.36 7.6-27.39 21.553-27.09 41.86.007.313-.15.477-.47.49-5.6.18-11.173.307-16.72.38-6.95.09-6.82 5.24-7.01 11.12-.173 5.26-.28 10.53-.32 15.81-.007.347-.18.55-.52.61-10.967 1.94-21.753 1.483-32.36-1.37-5.47-1.47-7.84 2.3-7.83 7.32.067 19.62-.043 39.227-.33 58.82a.36.36 0 0 1-.37.35c-24.85-.79-49.66-.65-74.49-1.33a1867.667 1867.667 0 0 0-56.31-.69 38.85 38.85 0 0 1-6.92-.6c-.36-.06-.537-.273-.53-.64.773-32.747.997-58.573.67-77.48-.07-3.9-3.51-4.36-6.65-3.26-9.98 3.49-23.81 4.91-33.67.12a1.235 1.235 0 0 0-.96-.07c-4.18 1.35-4.03 4.22-4.49 7.95a.958.958 0 0 1-.56.78 23.45 23.45 0 0 1-9.92 2.42.675.675 0 0 1-.501-.198.703.703 0 0 1-.209-.502c-.01-3.97.96-11.86-1.26-15.09-2.033-2.967-5.117-4.027-9.25-3.18a1.02 1.02 0 0 1-.88-.21c-1.487-1.167-2.197-2.497-2.13-3.99.887-19.58-7.527-32.807-25.24-39.68-.32-.127-.48-.36-.48-.7-.047-13.04-.05-26.087-.01-39.14.007-1.133-.22-2.833-.68-5.1a1.24 1.24 0 0 1 .16-.92c4.573-7.46 7.043-15.14 7.41-23.04.52-11.013.457-20.24-.19-27.68-.527-6.1-2.88-11.67-7.06-16.71a1.17 1.17 0 0 1-.29-.78l-.02-21.32c0-.135.055-.265.152-.361a.53.53 0 0 1 .368-.149l57.43.39a.384.384 0 0 1 .389.341.418.418 0 0 1-.019.189 92.018 92.018 0 0 0-5.35 23.3.358.358 0 0 0 .121.3.336.336 0 0 0 .309.07l12.96-3.39c.333-.093.503-.31.51-.65.14-4.61-.35-9.28.75-13.57 6.55-25.47 32.47-49.37 60.55-40.89 10.12 3.053 17.46 9.763 22.02 20.13.147.347.41.49.79.43l8.08-1.27c.36-.06.547-.273.56-.64.12-2.49.34-4.75 1.49-7.04 8.63-17.17 26.68-27.2 45.49-21.62 25.24 7.5 36.94 33.33 39.03 57.41.02.28.17.413.45.4Zm-15.85 80.96c15.26-26.75 12.92-63.47 2.15-91.06-5.88-15.07-22.84-40.32-42.37-33.91-17.48 5.73-25.69 30.22-27.05 46.68-1.847 22.52 1.49 43.827 10.01 63.92 1.093 2.58 1.627 4.757 1.6 6.53-.25 18.04-17.68 16.21-23.32 2.53a.986.986 0 0 1 0-.8c13.05-31.98 8.68-81.11-17.97-105.6-10.54-9.69-27.58-9.63-37.82-.53-14.41 12.82-19.83 32.82-20.8 51.95-1.19 23.44 4.12 47.68 18.38 66.4.028.04.042.087.041.135a.227.227 0 0 1-.16.215.227.227 0 0 1-.141 0c-32.64-12.12-49.05 27.48-31.18 50.48 16.08 20.7 50.5 25.16 75.31 25.7 29.113.627 57.18-3.07 84.2-11.09 13.38-3.973 25.497-10.327 36.35-19.06 17.93-14.42 15.82-41.3-6.37-49.97-6.653-2.6-13.517-3.31-20.59-2.13-.36.06-.45-.07-.27-.39Z"/><path fill="#fff" d="m528.35 242.89-6.6-10.62c-.167-.267-.093-.4.22-.4 61.853-.18 111.777-.21 149.77-.09 2.7.01 4.62 3.62 2.17 5.4a78.291 78.291 0 0 1-9.06 5.7c-3.73 2.01-9.89 1.14-14 .86a.853.853 0 0 1-.74-.47c-1.467-2.68-3.98-4.067-7.54-4.16a427.937 427.937 0 0 0-26.81.14c-2.7.093-4.69 1.25-5.97 3.47a.854.854 0 0 1-.75.46c-4.08.17-8.18.8-12.08.82-22.607.093-45.21-.123-67.81-.65a.913.913 0 0 1-.8-.46ZM318 241.46c-11.06-1.01-21.87-.62-32.89-1.39-1.68-.12-3.393.073-5.14.58-1.1-2.487-2.673-3.773-4.72-3.86-9.733-.42-19.46-.363-29.18.17-2.72.147-4.733 1.373-6.04 3.68-.173.313-.44.46-.8.44-3.707-.167-7.373-.32-11-.46-5.57-.22-6.85 3.07-10.25 5.78-13.733 10.96-27.463 21.92-41.19 32.88-1.38 1.1-2.31 2.03-4.17 1.64-4.83-1.03.62-7.91 2.69-9.86 13.86-13 27.807-25.91 41.84-38.73.24-.22.523-.33.85-.33h142.23c.36 0 .417.13.17.39l-8.98 9.37a1.08 1.08 0 0 1-.83.34l-32.59-.64Z"/><path fill="#E30002" d="M511.59 358.68c7.073-1.18 13.937-.47 20.59 2.13 22.19 8.67 24.3 35.55 6.37 49.97-10.853 8.733-22.97 15.087-36.35 19.06-27.02 8.02-55.087 11.717-84.2 11.09-24.81-.54-59.23-5-75.31-25.7-17.87-23-1.46-62.6 31.18-50.48a.227.227 0 0 0 .141 0 .227.227 0 0 0 .16-.215.226.226 0 0 0-.041-.135c-14.26-18.72-19.57-42.96-18.38-66.4.97-19.13 6.39-39.13 20.8-51.95 10.24-9.1 27.28-9.16 37.82.53 26.65 24.49 31.02 73.62 17.97 105.6a.986.986 0 0 0 0 .8c5.64 13.68 23.07 15.51 23.32-2.53.027-1.773-.507-3.95-1.6-6.53-8.52-20.093-11.857-41.4-10.01-63.92 1.36-16.46 9.57-40.95 27.05-46.68 19.53-6.41 36.49 18.84 42.37 33.91 10.77 27.59 13.11 64.31-2.15 91.06-.18.32-.09.45.27.39Zm-34.4-.37c4.113 3.8 9.023 5.187 14.73 4.16a.31.31 0 0 0 .13-.55c-27.29-20.57-19.32-61.47 2.55-82.35.367-.347.297-.527-.21-.54-3.72-.11-7.49.33-10.81-.82-16.6-5.75-14.42-23.42-5.08-34.49.3-.36.217-.567-.25-.62-13.21-1.59-21.12 21.33-22.71 30.91-4.53 27.27.08 64.4 21.65 84.3Zm-90.57 4.07c5.14 4.87 13.2 7.69 19.9 4.55.333-.153.363-.353.09-.6-27.38-24.68-13.58-63.59 9.68-84.91a.232.232 0 0 0 .044-.292.263.263 0 0 0-.122-.106.265.265 0 0 0-.162-.012c-16.25 4.77-33.45-4.92-27.12-23.93.77-2.29 2.1-4.61 3.36-6.85.233-.407.12-.567-.34-.48-14.65 2.84-22.12 22.69-24.41 35.31-4.63 25.44.06 59.25 19.08 77.32Zm20.8 16.55c23.41 3.87 48.38.45 70.63-7.27.393-.133.403-.293.03-.48a40.97 40.97 0 0 1-13.18-10.37c-.26-.307-.497-.29-.71.05-3.24 5.13-4.72 8.61-10.44 11.41-11.31 5.54-19.67-1-27.33-8.57-.26-.253-.49-.23-.69.07-5.047 7.54-11.967 12.397-20.76 14.57-.7.167-.69.297.03.39.77.1 1.92.12 2.42.2Zm-61 22.59c4.81 21.59 42.84 27.27 60.09 28.51 23.3 1.66 47.47 0 70.43-4.37 18.16-3.46 65.06-15.9 63.19-40.22-.71-9.28-8.07-14.76-16.82-16.33-10.82-1.95-18.93 2.62-29.5 7.45-31.39 14.36-78.64 21.68-111.71 4.89-8.01-4.06-14.26-10.99-24.04-7.77-11.89 3.91-14.02 17.18-11.64 27.84Z"/><path fill="#FAED9A" d="M318 241.46c-3.08.28-6.163.387-9.25.32a754.115 754.115 0 0 1-28.78-1.13c1.747-.507 3.46-.7 5.14-.58 11.02.77 21.83.38 32.89 1.39Z"/><path fill="#fff" d="M477.19 358.31c-21.57-19.9-26.18-57.03-21.65-84.3 1.59-9.58 9.5-32.5 22.71-30.91.467.053.55.26.25.62-9.34 11.07-11.52 28.74 5.08 34.49 3.32 1.15 7.09.71 10.81.82.507.013.577.193.21.54-21.87 20.88-29.84 61.78-2.55 82.35a.312.312 0 0 1 .026.469.302.302 0 0 1-.156.081c-5.707 1.027-10.617-.36-14.73-4.16Zm-90.57 4.07c-19.02-18.07-23.71-51.88-19.08-77.32 2.29-12.62 9.76-32.47 24.41-35.31.46-.087.573.073.34.48-1.26 2.24-2.59 4.56-3.36 6.85-6.33 19.01 10.87 28.7 27.12 23.93a.265.265 0 0 1 .162.012.263.263 0 0 1 .122.106.232.232 0 0 1-.044.292c-23.26 21.32-37.06 60.23-9.68 84.91.273.247.243.447-.09.6-6.7 3.14-14.76.32-19.9-4.55Z"/><path fill="#FAED9A" d="m231.27 407.26 1.05-143.89c.007-.373.193-.587.56-.64l6.11-.88c.507-.067.76.153.76.66v22.97c0 .307-.1.573-.3.8-4.38 5.02-5.08 11.41-5.27 17.78-.46 15.273-.143 27.443.95 36.51.32 2.62 1.75 5.513 4.29 8.68.22.267.33.573.33.92.007 16.947.007 33.89 0 50.83 0 .48-.123 1.247-.37 2.3-.073.34-.263.593-.57.76l-6.82 3.64c-.48.253-.72.107-.72-.44Zm420.65-2.24a.666.666 0 0 1-.6-.34c-.213-.327-.32-.553-.32-.68v-47.98c0-.3.077-.58.23-.84 6.81-11.64 7.46-22.75 7.36-36.04-.11-12.91-.36-21.01-7.27-30.41a1.573 1.573 0 0 1-.32-.96V265.4c0-.4.2-.603.6-.61l7.08-.12c.347-.007.52.163.52.51l.81 144.07c.007.513-.207.63-.64.35l-6.96-4.43a1.01 1.01 0 0 0-.49-.15ZM205.3 280.54a.36.36 0 0 1-.123.103.358.358 0 0 1-.314 0 .36.36 0 0 1-.123-.103l-4.37-5.87c-.193-.26-.173-.507.06-.74 3.49-3.4 8.87-7.36 13.99-6.9a.404.404 0 0 1 .326.238.415.415 0 0 1-.036.402l-9.41 12.87Zm13.88 19.88-7.42-10.19c-.233-.327-.233-.653 0-.98l9.39-12.87c.433-.593.65-.523.65.21l-.09 23.01a1.397 1.397 0 0 1-1.831 1.326 1.404 1.404 0 0 1-.699-.506Zm-26.3-17.89a.249.249 0 0 1 .41-.02l5 6.78c.2.273.2.55 0 .83l-7.76 10.75c-.413.573-.817.567-1.21-.02l-2.16-3.18a.976.976 0 0 1-.15-.82 51.262 51.262 0 0 1 5.87-14.32Z"/><path fill="#fff" d="M246.63 294h27.83a.383.383 0 0 1 .34.2l1.57 2.99a.38.38 0 0 1-.34.56h-30.4a.374.374 0 0 1-.308-.158.38.38 0 0 1-.052-.342l1-2.99a.376.376 0 0 1 .36-.26Zm369.31 2.6 27.97-.15a.317.317 0 0 1 .27.16l1.73 2.85a.315.315 0 0 1 .002.317.318.318 0 0 1-.272.163l-30.44.19a.322.322 0 0 1-.32-.4l.75-2.89a.32.32 0 0 1 .31-.24Z"/><path fill="#FAED9A" d="m205.41 299.04 8.08 11.11a.479.479 0 0 1 0 .56l-8.05 11.15a.474.474 0 0 1-.607.155.477.477 0 0 1-.173-.145l-8.16-11.17a.479.479 0 0 1 0-.56l8.13-11.1a.476.476 0 0 1 .39-.2.478.478 0 0 1 .39.2Z"/><path fill="#fff" d="M277.41 307.99c.533 0 .813.263.84.79.64 12.58 1.27 24.87-4.37 36.74-.133.287-.36.433-.68.44-6.48.1-13.13-.29-19.57.1-5.15.32-8.52-5.96-8.67-10.24a656.12 656.12 0 0 1-.42-27.13c0-.333.167-.5.5-.5l32.37-.2Zm-4.87 11.059a4.882 4.882 0 0 0-1.516-3.422 4.887 4.887 0 0 0-3.492-1.348l-11.596.284a4.882 4.882 0 0 0-3.422 1.516 4.887 4.887 0 0 0-1.348 3.492l.014.54a4.882 4.882 0 0 0 1.516 3.422 4.887 4.887 0 0 0 3.492 1.348l11.596-.284a4.882 4.882 0 0 0 3.422-1.516 4.887 4.887 0 0 0 1.348-3.492l-.014-.54ZM621.5 348.5c-3.75-.02-6.68-6.67-6.82-9.95-.473-11.113-.707-20.12-.7-27.02 0-.527.263-.793.79-.8l32.44-.19c.52 0 .78.257.78.77.09 11.73 1.19 25.02-4.57 36.7-.153.313-.407.47-.76.47-7.04.04-14.093.047-21.16.02Zm20.547-26.903a4.788 4.788 0 0 0-4.831-4.748l-11.82.103a4.788 4.788 0 0 0-4.748 4.831l.005.5a4.788 4.788 0 0 0 4.831 4.748l11.82-.103a4.788 4.788 0 0 0 4.748-4.831l-.005-.5Z"/><path fill="#E30002" d="m267.532 314.28-11.596.283a4.89 4.89 0 0 0-4.769 5.008l.013.54a4.89 4.89 0 0 0 5.008 4.769l11.596-.283a4.89 4.89 0 0 0 4.769-5.008l-.013-.54a4.89 4.89 0 0 0-5.008-4.769ZM637.216 316.849l-11.82.103a4.79 4.79 0 0 0-4.748 4.831l.005.5a4.79 4.79 0 0 0 4.831 4.748l11.82-.103a4.79 4.79 0 0 0 4.748-4.831l-.005-.5a4.79 4.79 0 0 0-4.831-4.748Z"/><path fill="#FAED9A" d="M186.01 339.21c-.01-5.62-1.63-15.71 3.67-19.5.28-.2.52-.16.72.12l7.83 10.83c.233.327.233.65 0 .97l-9.42 12.96a.436.436 0 0 1-.153.133.436.436 0 0 1-.394 0 .436.436 0 0 1-.153-.133c-1.23-1.67-2.09-3.16-2.1-5.38Zm33.49-19.19c.247-.333.64-.347 1.18-.04.96.54.57 21.24.56 23.67a.316.316 0 0 1-.217.291.293.293 0 0 1-.333-.111l-8.98-12.27c-.207-.28-.207-.56 0-.84l7.79-10.7Zm-14.14 20.44 9.52 12.97a.45.45 0 0 1 0 .53l-9.49 13.14a.449.449 0 0 1-.73 0l-9.52-13.13a.45.45 0 0 1 0-.53l9.5-12.98a.442.442 0 0 1 .159-.132.438.438 0 0 1 .402 0 .442.442 0 0 1 .159.132Zm202.06 38.47c-.5-.08-1.65-.1-2.42-.2-.72-.093-.73-.223-.03-.39 8.793-2.173 15.713-7.03 20.76-14.57.2-.3.43-.323.69-.07 7.66 7.57 16.02 14.11 27.33 8.57 5.72-2.8 7.2-6.28 10.44-11.41.213-.34.45-.357.71-.05a40.97 40.97 0 0 0 13.18 10.37c.373.187.363.347-.03.48-22.25 7.72-47.22 11.14-70.63 7.27Zm-219.2-15.92a.457.457 0 0 1 .36-.148.445.445 0 0 1 .191.056.44.44 0 0 1 .149.132l9.36 12.86c.193.273.193.55 0 .83l-7.98 11.01c-.24.34-.483.34-.73 0l-3.25-4.43a1.556 1.556 0 0 1-.32-.99c.007-4.713.003-9.42-.01-14.12 0-2.49.67-3.49 2.23-5.2Zm32.18.99a.329.329 0 0 1 .541.001.328.328 0 0 1 .059.199v23.05a.706.706 0 0 1-.928.675.735.735 0 0 1-.362-.255l-7.96-10.85c-.24-.327-.24-.657 0-.99L220.4 364Z"/><path fill="#fff" d="M406.51 430.03c-17.25-1.24-55.28-6.92-60.09-28.51-2.38-10.66-.25-23.93 11.64-27.84 9.78-3.22 16.03 3.71 24.04 7.77 33.07 16.79 80.32 9.47 111.71-4.89 10.57-4.83 18.68-9.4 29.5-7.45 8.75 1.57 16.11 7.05 16.82 16.33 1.87 24.32-45.03 36.76-63.19 40.22-22.96 4.37-47.13 6.03-70.43 4.37Zm-47.41-29.22c34.09 14.46 72.62 17.62 109.05 12.17 20.69-3.1 37.78-6.64 55.53-18.39a.888.888 0 0 0 .365-1.013.913.913 0 0 0-.185-.337l-8.52-9.67c-.32-.367-.633-.36-.94.02-5.55 6.85-16.46 11.09-25.19 13.77-27.76 8.55-57.6 9.76-86.17 5.26-14.71-2.31-24.78-4.54-34.85-13.79-.307-.28-.583-.253-.83.08l-8.43 11.28a.415.415 0 0 0-.065.351c.016.06.046.115.087.161.04.047.091.084.148.108Z"/><path fill="#E30002" d="M359.1 400.81a.397.397 0 0 1-.148-.108.418.418 0 0 1-.095-.344.415.415 0 0 1 .073-.168l8.43-11.28c.247-.333.523-.36.83-.08 10.07 9.25 20.14 11.48 34.85 13.79 28.57 4.5 58.41 3.29 86.17-5.26 8.73-2.68 19.64-6.92 25.19-13.77.307-.38.62-.387.94-.02l8.52 9.67a.913.913 0 0 1 .086 1.078.885.885 0 0 1-.266.272c-17.75 11.75-34.84 15.29-55.53 18.39-36.43 5.45-74.96 2.29-109.05-12.17Z"/><path fill="#FAED9A" d="m205.48 385.71 7.96 10.95a.56.56 0 0 1 0 .66l-7.97 10.98a.57.57 0 0 1-.45.227.566.566 0 0 1-.45-.227l-8.01-10.94a.56.56 0 0 1 0-.66l8.02-10.99a.57.57 0 0 1 .45-.227.563.563 0 0 1 .45.227Zm-15.83 20.43c.153-.213.31-.213.47 0l8.19 11.13c.22.293.22.587 0 .88l-9.34 12.78c-.193.267-.41.287-.65.06-4.22-3.98-2.46-13.99-2.25-19.41.013-.367.127-.7.34-1l3.24-4.44Zm31.3.68.08 8.53a.687.687 0 0 1-.22.52l-5.76 5.45a.695.695 0 0 1-.828.106.708.708 0 0 1-.222-.196l-2.28-3.14a.702.702 0 0 1 0-.82l7.96-10.85a.698.698 0 0 1 .78-.261.698.698 0 0 1 .49.661Z"/><path fill="#fff" d="M619.14 448.9c-10.65.15-21.9 6.92-28.56 14.78-.213.253-.41.24-.59-.04-10.56-16.1 10.39-26.62 23.05-27.35 2.56-.15 5.4.66 8.2.93.433.04.617-.157.55-.59l-1.85-12.13a.928.928 0 0 0-.92-.79c-9.93-.04-18.53 4.71-27.03 9.31-.313.173-.44.083-.38-.27 1.72-10.127 6.957-17.513 15.71-22.16 23.98-12.74 49.13 5.14 63.55 23.65 6.74 8.66 11.417 18.403 14.03 29.23a.381.381 0 0 0 .583.232.389.389 0 0 0 .147-.192c1.993-5.133 2.467-10.37 1.42-15.71-.06-.327.077-.5.41-.52 10.16-.52 17.06 8.57 19.05 17.59 3 13.62-2.99 29.84-16.53 35.62-5.187 2.213-10.297 1.953-15.33-.78-.3-.167-.307-.347-.02-.54 6.71-4.42 9.33-12.57 9.98-20.16a.236.236 0 0 0-.039-.148.234.234 0 0 0-.124-.09.231.231 0 0 0-.267.108c-6.27 12.12-20.02 18.59-33.07 13.22-6.77-2.79-9.13-9.32-15.22-12.34-8.86-4.4-21.48-2.5-26.03 7.24-1.28 2.74-1.11 5.8-1.12 8.93 0 .467-.213.6-.64.4-8.85-4.11-10.7-15.4-8.09-23.84 2.6-8.36 12.27-11.68 20.33-10.94.4.04.61-.14.63-.54a39.86 39.86 0 0 0-1.03-11.48c-.1-.427-.367-.637-.8-.63Zm-413.85 32.73c-1.74 5.06 6.87 11.68 10.62 13.78.36.2.367.407.02.62-18.97 12.06-36.36-17.51-31.98-32.85 1.99-7 8.67-17.72 16.6-19.13.387-.067.543.093.47.48a56.053 56.053 0 0 0-.88 15.8.33.33 0 0 0 .486.256.33.33 0 0 0 .144-.156c10.48-25.1 32.7-50.69 61.7-53.29 17.24-1.54 30.96 4.51 35.3 22.39.01.039.008.08-.005.118a.203.203 0 0 1-.181.133.208.208 0 0 1-.114-.031c-9.973-5.813-20.767-8.983-32.38-9.51-.56-.027-.84.243-.84.81v10.96c0 .367.183.53.55.49 11.95-1.17 22.18-.22 30.96 8.32 6.3 6.13 8.63 13.07 4.12 21.03a.676.676 0 0 1-.833.299.703.703 0 0 1-.267-.179c-9.087-9.86-20.417-14.377-33.99-13.55-.36.02-.54.21-.54.57v12.5a.545.545 0 0 0 .209.422.537.537 0 0 0 .461.098c12.71-3.21 32.33 2.54 30.48 19.35-.77 6.94-6.71 12.52-13.02 15.06-.38.153-.583.023-.61-.39-.13-2.24.52-4.3-.08-6.35-3.41-11.64-18.94-17.82-28.99-11.54-4.12 2.57-7.12 6.35-11.18 8.96-12.52 8.03-25.33 4.71-35.67-5.59a.345.345 0 0 0-.144-.087.345.345 0 0 0-.32.069.341.341 0 0 0-.096.138Z"/><path fill="#FAED9A" d="M206.08 432.76c-1.78 2.07-3.51 1.32-6.18 1.56-.42.04-.507-.113-.26-.46l4.86-6.68c.193-.267.427-.307.7-.12 2.413 1.693 2.707 3.593.88 5.7Zm76.78 171.47a1.33 1.33 0 0 1-.83-1.23l-.36-95.8c0-.407.197-.667.59-.78 15.25-4.32 26.44-18.26 21.54-34.56-.107-.353-.023-.653.25-.9 5.627-5.093 8.26-11.493 7.9-19.2-.02-.327.133-.49.46-.49.373 0 .56.18.56.54.31 46.73-.81 100.29-.74 150.53a1.744 1.744 0 0 1-.72 1.41c-7.71 5.58-20.35 3.79-28.65.48Zm284.66 1.05c-.353-.113-.53-.353-.53-.72-.167-36.6-.153-73.12.04-109.56.06-11.5-.79-28.23.12-42.47.027-.42.25-.633.67-.64l8.34-.2c.493-.007.74.233.74.72l-.51 151.86a1.52 1.52 0 0 1-1.24 1.49 15.13 15.13 0 0 1-7.63-.48Zm-199.46-.02c-9.24 3.33-17.87 1.35-26.88-1.28-.12-.033-.18-.113-.18-.24l-.01-141.94c0-.393.197-.563.59-.51a81.287 81.287 0 0 0 27.88-.98c.36-.073.537.073.53.44l-1.4 143.76c-.007.373-.183.623-.53.75Zm-35.75.68c-2.86.81-11.84 2.29-11.8-2.69.367-44.007.53-88.04.49-132.1a1.032 1.032 0 0 1 .319-.75 1.035 1.035 0 0 1 .761-.29 25.91 25.91 0 0 0 10.28-1.72c.44-.167.66-.017.66.45l-.07 136.25a.878.878 0 0 1-.64.85Zm194.33-1.18a.779.779 0 0 1-.62-.76c-.127-21.493-.033-42.66.28-63.5.02-1.22-.53-3-.53-4.43-.033-18.887-.037-37.777-.01-56.67 0-.327.163-.463.49-.41a108.304 108.304 0 0 0 30.44.54.571.571 0 0 1 .64.57l-.3 123.84c0 .21-.072.413-.203.575a.894.894 0 0 1-.517.315c-9.907 2.04-19.797 2.017-29.67-.07ZM238.819 499.363l-7.5-.026a.6.6 0 0 0-.602.598l-.414 118.439a.601.601 0 0 0 .598.603l7.5.026a.6.6 0 0 0 .602-.598l.414-118.439a.601.601 0 0 0-.598-.603ZM608.23 507.9c.353.1.53.333.53.7l-.01 94.24a.41.41 0 0 1-.41.41h-21.87c-.353 0-.53-.177-.53-.53l.25-101.07c.007-.433.227-.65.66-.65h7.4c.353 0 .67.107.95.32a39.201 39.201 0 0 0 13.03 6.58Zm43.37-5.64c3.07.87 5.24.74 8.38.75.353 0 .53.177.53.53l.67 116.62c0 .393-.197.59-.59.59h-9.06a.532.532 0 0 1-.53-.53v-117.5c0-.42.2-.573.6-.46Zm-431.65 13.45-5.56-7.37c-.3-.4-.227-.707.22-.92l5.16-2.42c.32-.153.48-.053.48.3v10.31c0 .34-.1.373-.3.1Zm-31.69 2.11-3.09-4.52a.302.302 0 0 1-.05-.18l.19-3.3a.302.302 0 0 1 .17-.26l8.9-4.17a.307.307 0 0 1 .24-.01l2.06.84a.3.3 0 0 1 .181.327.31.31 0 0 1-.051.123l-8.06 11.15a.3.3 0 0 1-.49 0Zm17.06-4.39 9.57 13.07a.388.388 0 0 1 0 .46l-9.56 13.25a.392.392 0 0 1-.492.118.392.392 0 0 1-.138-.118l-9.6-13.2a.388.388 0 0 1 0-.46l9.6-13.12a.385.385 0 0 1 .31-.153.385.385 0 0 1 .31.153Zm-17.13 22.76a.464.464 0 0 1 .11-.34c.14-.18.28-.177.42.01l9.58 13.12c.207.28.207.563 0 .85l-7.97 10.95c-.26.36-.52.36-.78 0l-4.26-5.84a1.617 1.617 0 0 1-.31-.97c.04-3.7.04-7.387 0-11.06-.03-3.02 1.3-4.69 3.21-6.72Zm31.21 24.23-7.84-10.84a.319.319 0 0 1 0-.38l7.88-10.81a.323.323 0 0 1 .36-.118.326.326 0 0 1 .16.118c.04.055.061.122.06.19l-.04 21.65a.316.316 0 0 1-.06.19.322.322 0 0 1-.52 0Zm297.04-6.55-138.8-1.69c-.313-.007-.467-.167-.46-.48l.06-8.13c0-.32.163-.483.49-.49 47.25-.45 92.08.76 137.87 1.82a1.427 1.427 0 0 1 1.39 1.43l.01 6.98c0 .38-.187.567-.56.56Zm-311.82 27.57-8.1-11.09a.479.479 0 0 1 0-.56l8.11-11.08a.476.476 0 0 1 .39-.2.478.478 0 0 1 .39.2l8.09 11.09a.479.479 0 0 1 0 .56l-8.1 11.08a.476.476 0 0 1-.39.2.478.478 0 0 1-.39-.2Zm312.17-17.9-.14 37.87c0 .09-.036.177-.1.24a.337.337 0 0 1-.24.1H377.32a.337.337 0 0 1-.24-.1.337.337 0 0 1-.1-.24l.03-39.24c0-.09.036-.177.1-.24.063-.064.15-.1.24-.1l139.1 1.37c.09 0 .177.036.24.1.064.063.1.15.1.24Z"/><path fill="#fff" d="M404.93 643.05c-59.1.1-118.19-.73-177.29-.84-.327 0-.603-.12-.83-.36a11119.421 11119.421 0 0 0-49.5-51.65c-3.53-3.64-5.32-6.46-2.63-11.09a.586.586 0 0 1 .353-.272.606.606 0 0 1 .447.052c.22.113.307.287.26.52a.702.702 0 0 0 .2.69l46.95 48.64c.26.267.577.403.95.41l14.69.15c.44 0 .633.217.58.65-.56 4.64 1.48 7.52 6.29 7.55 9.133.06 18.237-.02 27.31-.24 4.99-.13 8.02-2.29 9.29-6.97.087-.307.287-.46.6-.46 63.26.18 126.57-.26 189.83.3 45.247.4 90.497.707 135.75.92.393 0 .583.197.57.59-.08 3.34.18 8.43 4.75 8.41 9.08-.06 18.16-.163 27.24-.31 6.04-.09 10.23-1.7 10.45-8.2.013-.36.2-.54.56-.54h19.5c.133 0 .26-.053.354-.146a.504.504 0 0 0 .146-.354v-9.23c0-.327.143-.407.43-.24 7.11 4.24 22.94 13.63 23.07 20.46.007.333-.107.62-.34.86-1.68 1.74-3.713 2.617-6.1 2.63-23.47.08-50.78-.53-77.38-.71-62.17-.42-124.32-.42-186.49-1.12-6.713-.08-13.383-.113-20.01-.1Z"/><path fill="#FAED9A" d="M212.95 590.95a1.556 1.556 0 0 1-.67-.57c-.187-.287-.18-.57.02-.85l7.18-9.81a.278.278 0 0 1 .443.003c.034.045.054.1.057.157.05 4.38 1.14 9.89-2.79 13.15a.852.852 0 0 1-.83.16 6.308 6.308 0 0 1-2.9-1.86 1.676 1.676 0 0 0-.51-.38Zm395.17 29.56-325.47-1.21c-.433 0-.65-.217-.65-.65v-5.16c0-.467.223-.633.67-.5 10.99 3.29 21.29 4.09 31.61-1.2a.923.923 0 0 1 .91.02c7.647 4.233 15.38 4.317 23.2.25.3-.153.61-.177.93-.07 10.95 3.68 23.19 4.67 33.68.08 1.453-.633 2.893-.947 4.32-.94 46.947.227 93.883.207 140.81-.06.333 0 .64.093.92.28 10.3 6.95 31.03 5.02 42.36 1.82.32-.093.63-.063.93.09 5.907 2.98 11.837 3.21 17.79.69 1.433-.607 2.787-.907 4.06-.9 7.967.013 15.93-.07 23.89-.25.447-.013.67.203.67.65v6.43c0 .427-.21.637-.63.63Zm-123.91 33.74c.073.167.103.36.09.58-.02.273-.167.41-.44.41-1.5.02-6.81.72-7.11-1.17l7.46.18Zm-159.14 48.76 12.13 2.56c.393.08.58-.08.56-.48-.193-5.233.043-9.343.71-12.33 1.94-8.63 7.83-33.71 18.39-35.52 11.07-1.9 10.53 20.33 9.82 26.4-1.36 11.6-4.02 23-5.42 34.49-.28 2.24-.35 6.42-1.1 9.6-.093.387-.34.58-.74.58l-148.86.86c-.787.007-1.08-.37-.88-1.13 13.85-52.64 78.96-48.39 118.03-35.44.44.147.58.433.42.86l-3.36 9c-.113.3-.013.483.3.55Zm243.71.91 11.23-1.52c.407-.053.55-.273.43-.66l-2.28-7.2a.612.612 0 0 1 .39-.76c22.91-7.39 48.52-11.67 72.38-7.43 21.51 3.83 39.52 18.01 41.77 40.91.033.373-.137.557-.51.55l-146.36-.21c-.347 0-.557-.173-.63-.52a219.84 219.84 0 0 0-11.18-36.93c-2.053-5.107-3.19-8.843-3.41-11.21-.46-5 .71-12.88 5.35-15.82 5.03-3.18 12.61-.61 16.73 2.96 9.52 8.26 16.96 25.39 15.77 37.53-.027.233.08.337.32.31Z"/></svg>