<svg width="900" height="684" viewBox="0 0 900 684" fill="none" xmlns="http://www.w3.org/2000/svg">
<g clip-path="url(#clip0_315_12325)">
<path d="M458.705 101.133C452.388 103.729 445.925 100.427 444.229 93.9497C443.988 93.0264 443.856 92.312 443.834 91.8063C443.664 87.9059 444.781 84.3917 447.183 81.2639C447.309 81.0974 447.269 81.0016 447.065 80.9765C442.496 80.3578 438.299 81.5858 434.474 84.6603C431.333 87.1789 429.38 90.4293 428.614 94.4113C428.158 96.7792 428.298 99.8019 429.033 103.479C431.567 116.156 439.029 128.974 450.655 135.192C454.128 137.048 457.682 137.85 461.315 137.599C461.786 137.566 462.026 137.307 462.488 137.283C462.837 137.267 463.174 137.208 463.501 137.104C466.528 136.134 468.929 134.11 470.703 131.032C470.82 130.831 470.762 130.735 470.529 130.745C463.733 130.977 459.048 128.027 456.473 121.893C456.034 120.857 455.592 119.317 455.479 118.247C454.854 112.287 455.978 106.637 458.851 101.298C458.955 101.107 458.906 101.052 458.705 101.133Z" stroke="#E30002" stroke-width="0.942135"/>
<path d="M333.736 161.934C344.831 180.394 355.944 198.847 367.073 217.294C367.463 217.935 367.92 218.42 368.444 218.75C369.644 219.497 370.746 220.288 371.751 221.124C373.715 222.749 376.556 224.106 378.954 225.067C381.127 225.94 383.317 226.81 385.525 227.676C391.426 229.994 397.151 231.833 402.7 233.193C404.109 233.541 405.461 234.078 406.897 234.436C416.736 236.883 426.216 238.64 435.336 239.707C440.194 240.279 445.03 240.573 449.845 240.588C451.96 240.598 454.103 240.376 456.242 240.122C456.367 240.107 456.487 240.065 456.594 239.998C456.701 239.931 456.791 239.842 456.859 239.736C461.551 232.547 466.071 225.591 470.421 218.867C471.142 217.746 471.288 216.47 472.164 215.429C473.203 214.185 474.508 213.526 476.078 213.45C477.953 213.361 479.517 214.326 481.312 214.595C487.561 215.537 493.646 215.148 499.566 213.427C511.14 210.058 517.876 201.805 521.433 190.651C522.793 186.379 523.512 182.137 523.59 177.922C523.591 177.911 523.588 177.9 523.583 177.89C523.577 177.88 523.57 177.871 523.56 177.865C523.551 177.859 523.54 177.856 523.529 177.855C523.517 177.854 523.506 177.856 523.496 177.861C519.228 179.711 514.761 180.973 510.094 181.648C502.887 182.691 495.664 182.716 488.425 181.724C487.269 181.567 486.012 181.419 484.652 181.281C483.468 181.162 482.21 181.041 480.879 180.918C479.001 180.742 477.149 180.383 475.325 179.84C469.446 178.082 464.297 175.755 459.445 171.982C459.269 171.844 459.274 171.712 459.459 171.586C462.031 169.818 464.214 167.422 466.007 164.398C466.935 162.829 468.037 160.37 467.896 158.458C467.893 158.436 467.902 158.422 467.924 158.415C467.946 158.409 467.968 158.408 467.99 158.411C468.081 158.433 468.146 158.486 468.183 158.571C468.943 160.336 470.009 162.112 471.382 163.899C472.673 165.579 474.306 166.752 476.281 167.417C486.685 170.938 497.077 172.037 507.456 170.715C511.134 170.244 514.819 169.294 518.512 167.865C519.784 167.375 520.995 166.57 522.3 166.136C522.485 166.076 522.562 165.949 522.53 165.755C522.15 163.362 521.613 161.006 520.919 158.689C520.103 155.966 518.933 153.521 517.41 151.354C516.625 150.236 515.821 149.098 514.998 147.939C514.882 147.776 514.729 147.728 514.541 147.798C513.208 148.292 511.663 148.499 510.546 149.394C509.318 150.381 508.414 151.557 507.833 152.923C507.825 152.942 507.811 152.958 507.793 152.969C507.776 152.981 507.755 152.987 507.734 152.987C507.713 152.987 507.693 152.981 507.675 152.969C507.658 152.958 507.644 152.942 507.635 152.923L502.02 139.413C502.008 139.383 502.004 139.351 502.008 139.32C502.013 139.289 502.027 139.26 502.047 139.236C502.068 139.212 502.095 139.194 502.125 139.184C502.155 139.175 502.187 139.174 502.218 139.182C504.222 139.656 506.257 139.959 508.323 140.091C509.008 140.135 509.639 140.077 510.217 139.917C511.851 139.469 513.368 139.248 514.937 138.503C516.419 137.797 517.879 137.151 519.318 136.567C519.933 136.316 520.517 135.93 521.07 135.408C522.474 134.08 523.425 132.998 523.925 132.163C525.187 130.057 525.592 126.83 524.523 124.404C523.647 122.41 522.113 120.962 519.921 120.061C516.764 118.761 513.291 118.503 509.501 119.289C508.32 119.53 507.207 119.709 506.161 119.826C501.968 120.287 499.33 122.096 496.4 125.021C496.281 125.138 496.177 125.128 496.089 124.993C494.814 123.049 493.748 120.953 492.891 118.704C491.986 116.354 490.955 114.088 489.994 111.766C489.953 111.671 489.95 111.576 489.984 111.478C489.998 111.44 490.02 111.405 490.048 111.375C490.076 111.346 490.11 111.323 490.148 111.308C490.186 111.293 490.227 111.286 490.268 111.287C490.308 111.289 490.348 111.3 490.385 111.318C492.646 112.461 495.27 112.865 498.256 112.529C498.429 112.51 498.471 112.425 498.383 112.274L483.041 86.1065C482.921 85.9056 482.764 85.8679 482.57 85.9935L476.794 89.682C476.754 89.7079 476.719 89.7423 476.693 89.7827C476.666 89.8232 476.649 89.8689 476.641 89.9169C476.634 89.9649 476.636 90.0141 476.649 90.0613C476.661 90.1084 476.684 90.1525 476.714 90.1907C477.6 91.2789 478.264 92.2163 478.787 93.6059C479.239 94.8056 479.918 96.525 480.822 98.7641C483.193 104.627 484.481 110.789 484.685 117.249C485.08 129.869 480.139 142.884 467.576 147.505C464.953 148.47 462.113 148.894 459.054 148.777C442.713 148.16 429.424 134.146 422.871 120.259C422.796 120.096 422.678 120.055 422.518 120.136C393.265 134.893 363.228 147.757 332.408 158.726" stroke="#FAED9A" stroke-width="0.942135"/>
<path d="M376.226 236.259C376.207 236.221 376.187 236.184 376.165 236.146C376.14 236.099 376.102 236.064 376.052 236.042C373.508 234.981 371.076 233.778 368.755 232.434C368.629 232.359 368.537 232.387 368.477 232.519L357.737 255.799C357.709 255.86 357.701 255.928 357.714 255.994C357.728 256.059 357.762 256.118 357.812 256.162C364.921 262.309 374.083 266.638 383.321 269.86C390.679 272.423 398.151 274.389 405.739 275.758C405.905 275.79 406.013 275.725 406.064 275.565C406.375 274.629 406.532 273.613 406.535 272.517C406.539 271.551 406.912 270.68 406.978 269.686C407.018 269.001 407.103 268.298 407.232 267.576C407.367 266.803 407.463 266.024 407.519 265.239C407.62 263.908 407.935 262.54 408.466 261.136C409.502 258.413 410.501 256.185 413.686 255.667C416.031 255.286 418.194 256.718 419.451 258.602C422.598 263.328 425.858 268.292 429.231 273.492C429.244 273.512 429.261 273.528 429.281 273.539C429.301 273.551 429.324 273.558 429.347 273.559C429.371 273.561 429.394 273.556 429.415 273.547C429.437 273.538 429.456 273.524 429.471 273.506L447.555 252.012C447.678 251.867 447.643 251.792 447.452 251.785C442.216 251.613 437.424 251.256 433.075 250.716C416.832 248.687 400.946 245.034 385.417 239.754C383.787 239.199 380.92 238.093 376.815 236.438" stroke="#E30002" stroke-width="0.942135"/>
<path d="M294.482 400.242C303.503 406.347 313.701 411.275 323.881 415.218C326.585 416.267 328.955 417.108 330.99 417.743C332.276 418.143 333.449 418.708 334.711 419.123C357.925 426.792 382.279 430.956 406.822 432.685C433.24 434.547 459.757 433.726 486.376 430.221C486.539 430.199 486.649 430.113 486.706 429.962L496.942 403.86C496.986 403.749 496.99 403.626 496.951 403.512C496.912 403.399 496.833 403.303 496.73 403.243C483.961 395.709 470.766 387.94 457.146 379.935C455.811 379.153 454.646 378.583 453.651 378.225C451.471 377.44 448.761 377.094 445.52 377.188C444.47 377.221 443.495 377.641 442.458 377.857C442.107 377.933 442.036 377.823 442.246 377.528C444.107 374.927 446.246 372.261 447.918 369.444C448.879 367.833 449.462 366.724 449.666 366.118C450.633 363.267 451.577 360.309 452.497 357.243C452.644 356.744 452.776 356.749 452.892 357.258C453.703 360.781 455.643 363.796 457.735 366.811C458.115 367.36 458.603 367.811 459.2 368.163C476.809 378.514 494.276 388.802 511.602 399.027C511.862 399.181 512.115 399.355 512.36 399.55C512.577 399.723 512.804 399.878 513.043 400.016C519.694 403.854 526.439 407.5 533.275 410.955" stroke="#E30002" stroke-width="0.942135"/>
<path d="M535.292 411.873C537.245 412.957 539.33 413.49 541.547 413.475C544.383 413.456 547.261 413.098 549.631 411.897C550.215 411.601 550.777 411.276 551.317 410.922C552.806 409.939 555.447 408.291 559.241 405.98C567.048 401.225 584.582 390.333 611.845 373.302" stroke="#E30002" stroke-width="0.942135"/>
<path d="M654.519 344.463C655.043 342.252 654.793 340.335 653.77 338.712C643.456 322.384 633.143 306.081 622.83 289.801C622.703 289.598 622.502 289.453 622.269 289.396L616.287 287.888C616.04 287.827 615.779 287.852 615.547 287.959C584.702 302.081 553.836 316.21 522.949 330.345C520.808 331.325 518.784 331.085 516.877 329.625C515.266 328.395 513.787 327.043 512.534 325.333C495.152 301.604 477.777 277.883 460.411 254.169C460.405 254.161 460.398 254.154 460.39 254.15C460.381 254.145 460.372 254.142 460.362 254.142C460.353 254.141 460.343 254.143 460.334 254.147C460.325 254.151 460.318 254.157 460.312 254.164C452.322 263.633 444.193 273.283 435.925 283.116C435.119 284.077 434.196 284.873 433.404 285.834C432.889 286.469 432.277 287.057 431.567 287.601C430.389 288.499 429.262 289.551 428.185 290.757C427.94 291.033 427.709 291.021 427.492 290.719C424.079 285.87 420.783 280.938 417.605 275.923C417.435 275.656 417.379 275.678 417.435 275.989C417.487 276.286 417.473 276.465 417.379 276.752C417.074 277.65 416.94 278.633 416.978 279.701C416.984 279.864 416.947 280.017 416.865 280.158C416.727 280.397 416.656 280.654 416.653 280.93C416.606 283.176 416.842 285.481 417.36 287.846C417.47 288.354 417.481 288.866 417.393 289.381C417.361 289.548 417.262 289.625 417.096 289.612C413.407 289.353 409.959 287.987 406.384 287.412C405.249 287.229 404.179 286.861 403.063 286.654C388.516 283.988 373.546 279.145 361.086 271.999C358.335 270.421 355.598 268.617 353.087 266.657C352.915 266.519 352.781 266.55 352.687 266.751L293.083 395.993" stroke="#E30002" stroke-width="0.942135"/>
<path d="M648.131 308.855C649.12 309.483 650.193 309.834 651.348 309.906C654.756 310.116 658.425 310.069 662.357 309.765" stroke="#FAED9A" stroke-width="0.942135"/>
<path d="M679.923 305.172C680.005 305.15 680.047 305.11 680.05 305.054C680.05 304.991 680.022 304.947 679.966 304.922C679.13 304.567 678.265 304.354 677.37 304.281C676.604 304.222 675.789 304.074 674.925 303.838C672.19 303.094 669.326 302.259 666.333 301.332C666.28 301.317 666.28 301.31 666.333 301.314C667.303 301.361 668.264 301.474 669.221 301.412C671.915 301.243 674.643 301.398 677.356 301.017C681.517 300.433 685.584 299.453 689.557 298.077C690.643 297.7 691.661 297.266 692.609 296.772C694.409 295.84 696.321 294.888 698.398 295.006C701.946 295.204 705.196 294.46 708.602 294.276C710.97 294.15 713.038 293.912 714.806 293.56C717.277 293.07 719.65 292.503 721.924 291.859C724.32 291.181 726.019 289.958 727.02 288.19C727.958 286.541 727.666 284.916 725.946 283.974C723.365 282.556 720.171 281.924 717.236 281.826C711.957 281.653 706.272 282.019 700.179 282.923C696.571 283.46 693.146 284.454 689.618 285.104C687.994 285.402 686.473 285.3 685.053 284.798C684.064 284.452 682.965 283.702 681.756 282.546C677.361 278.349 671.939 275.339 665.923 273.987" stroke="#FAED9A" stroke-width="0.942135"/>
<path d="M664.859 273.874C664.218 273.676 663.546 273.546 662.842 273.483C651.914 272.517 641.037 277.265 632.868 284.327C632.736 284.44 632.716 284.57 632.807 284.718C636.196 290.113 639.581 295.46 642.963 300.758C643.014 300.836 643.131 300.913 643.317 300.988" stroke="#FAED9A" stroke-width="0.942135"/>
<path d="M749.608 279.724C745.501 279.272 741.275 279.07 736.932 279.117C736.765 279.12 736.721 279.194 736.8 279.338C739.052 283.389 739.3 287.612 737.544 292.005C737.466 292.206 737.533 292.3 737.747 292.288C744.182 291.945 750.988 291.214 758.168 290.093C760.78 289.688 763.164 289.149 765.318 288.477C767.064 287.937 768.376 286.979 769.252 285.603C769.376 285.411 769.436 285.184 769.424 284.955C769.411 284.726 769.326 284.508 769.181 284.331C768.826 283.892 768.361 283.562 767.787 283.342C764.269 282.004 760.752 281.114 757.235 280.671" stroke="#FAED9A" stroke-width="0.942135"/>
<path d="M131.954 589.479C133.126 592.667 134.35 595.467 135.629 597.879C139.79 605.73 145.017 613.617 151.31 621.54C160.81 633.505 171.346 644.362 182.919 654.11C184.408 655.363 186.155 656.244 187.517 657.652C188.12 658.277 188.774 658.855 189.481 659.386C193.711 662.573 197.767 665.383 201.649 667.813C204.404 669.537 207.608 671.629 209.883 671.615C232.139 671.483 255.52 671.357 280.025 671.238C280.647 671.233 281.339 671.318 281.947 671.407C282.311 671.461 282.65 671.404 282.964 671.238C286.252 669.46 289.153 667.389 291.665 665.025C291.688 665.003 291.705 664.976 291.714 664.945C291.722 664.915 291.722 664.882 291.713 664.852C291.704 664.822 291.687 664.794 291.664 664.773C291.64 664.752 291.611 664.738 291.58 664.732C280.008 662.531 268.925 659.12 258.332 654.501C245.175 648.768 232.937 640.986 223.068 630.547C221.919 629.329 220.973 627.98 220.232 626.501C220.151 626.344 220.025 626.245 219.855 626.204C204.301 622.506 190.079 614.319 178.161 603.527C166.893 593.323 157.166 580.388 153.157 565.917C153.107 565.731 153.014 565.708 152.879 565.846L131.804 587.539" stroke="#FAED9A" stroke-width="0.942135"/>
<path d="M539.724 637.637L559.537 658.698C559.597 658.763 559.673 658.81 559.758 658.834C559.843 658.859 559.933 658.859 560.018 658.835C574.838 654.694 588.287 647.388 601.199 638.861C617.709 627.951 632.567 615.082 645.898 600.611C646.985 599.43 648.096 598.222 649.233 596.988C650.703 595.401 652.097 593.686 653.548 592.037C657.361 587.7 661.223 582.735 665.136 577.142C666.239 575.566 667.25 573.901 668.17 572.149C668.191 572.109 668.202 572.063 668.2 572.018C668.199 571.972 668.185 571.928 668.162 571.889C668.138 571.85 668.105 571.818 668.065 571.796C668.025 571.774 667.98 571.762 667.935 571.763C667.332 571.767 666.682 571.579 666.074 571.598C661.828 571.711 657.705 571.678 653.704 571.499C652.418 571.442 651.085 571.122 649.864 570.623C649.472 570.464 649.052 570.382 648.626 570.382L610.667 570.34C610.362 570.34 610.171 570.488 610.092 570.783C604.651 591.722 590.256 610.046 572.77 622.624C562.356 630.114 551.369 635.027 539.809 637.363C539.781 637.37 539.755 637.383 539.733 637.403C539.712 637.423 539.696 637.448 539.687 637.475C539.679 637.503 539.678 637.533 539.684 637.561C539.691 637.589 539.704 637.615 539.724 637.637Z" stroke="#FAED9A" stroke-width="0.942135"/>
<path d="M450.9 108.006C450.916 108.057 450.92 108.105 450.914 108.152C450.911 108.171 450.917 108.185 450.933 108.195C450.952 108.204 450.963 108.198 450.966 108.176C450.966 108.16 450.964 108.144 450.961 108.129C450.763 106.879 450.424 105.546 449.944 104.129C449.928 104.082 449.896 104.067 449.849 104.082H449.845C449.813 104.092 449.802 104.112 449.812 104.144C450.129 105.463 450.492 106.75 450.9 108.006Z" stroke="#FAED9A" stroke-width="0.942135"/>
<path d="M391.724 181.408C387.772 176.857 386.18 169.471 389.906 164.336C391.291 162.427 393.025 161.446 395.107 161.392C395.889 161.373 396.689 161.34 397.509 161.293C399.342 161.194 400.872 162.278 401.749 163.762C401.767 163.793 401.793 163.818 401.824 163.835C401.855 163.852 401.891 163.86 401.926 163.858C401.962 163.856 401.996 163.844 402.026 163.824C402.055 163.804 402.078 163.776 402.093 163.743C402.865 161.958 403.119 160.116 403.463 158.227C403.646 157.234 403.785 156.25 403.883 155.273C404.175 152.403 404.564 149.641 405.051 146.987C405.101 146.73 405.024 146.684 404.82 146.85C402.995 148.348 400.799 149.295 398.23 149.691C397.212 149.851 396.101 149.972 394.895 150.054C387.899 150.539 382.35 154.406 379.086 160.761C375.793 167.172 375.986 175.086 378.86 181.596C383.396 191.852 393.142 198.267 404.25 199.426C405.038 199.508 405.841 199.511 406.657 199.436C414.577 198.704 420.161 194.789 423.408 187.692C427.004 179.838 426.004 172.754 420.408 166.442C419.937 165.911 419.635 165.371 419.503 164.822C419.261 163.804 418.998 162.784 418.712 161.76C418.702 161.728 418.685 161.699 418.662 161.675C418.639 161.651 418.611 161.633 418.58 161.623C418.548 161.612 418.515 161.609 418.482 161.614C418.449 161.619 418.418 161.632 418.391 161.651C417.402 162.377 416.399 163.022 415.518 163.908C414.937 164.495 414.312 165.026 413.643 165.5C412.546 166.282 411.933 167.493 410.845 168.289C410.437 168.59 410.074 168.959 409.757 169.396C409.126 170.263 408.16 170.931 407.312 171.577C406.81 171.963 406.874 172.156 407.505 172.156C409.502 172.156 411.055 172.725 412.164 173.861C413.737 175.477 414.632 177.752 414.223 180.051C413.309 185.181 409.926 188.818 404.288 188.13C399.272 187.518 395.085 185.277 391.724 181.408Z" stroke="#FAED9A" stroke-width="0.942135"/>
<path d="M655.753 321.018C656.786 322.623 657.819 324.254 658.852 325.913C659.405 326.801 660.08 327.707 660.878 328.631C663.761 331.966 665.424 336.023 665.867 340.803C666.401 346.553 664.563 351.28 660.355 354.982C657.629 357.382 654.647 359.746 651.41 362.076C650.34 362.844 648.659 363.603 647.292 364.451C620.08 381.331 592.868 398.209 565.656 415.086C561.695 417.545 557.841 420.423 553.748 422.335C552.448 422.945 551.16 423.395 549.885 423.687C544.43 424.931 538.071 425.157 532.87 422.967C529.68 421.626 525.982 419.826 521.777 417.568C516.991 414.996 512.085 412.346 507.06 409.617C507.027 409.598 506.989 409.586 506.95 409.583C506.912 409.58 506.873 409.585 506.836 409.598C506.8 409.611 506.767 409.631 506.739 409.658C506.711 409.685 506.689 409.717 506.674 409.753C504.014 416.502 501.409 423.125 498.859 429.623C498.52 430.486 498.204 431.367 497.912 432.266C497.418 433.811 497.827 435.351 498.43 436.774C500.007 440.489 501.996 443.549 504.399 445.955C505.649 447.205 506.691 448.398 507.527 449.535C508.478 450.829 509.447 452.024 510.433 453.12C542.186 488.487 573.852 523.745 605.429 558.893C605.506 558.979 605.6 559.048 605.705 559.095C605.811 559.142 605.925 559.166 606.041 559.166C624.042 559.169 642.064 559.196 660.105 559.246C661.214 559.25 662.313 559.517 663.403 560.047C664.019 560.349 664.64 560.498 665.268 560.495C669.706 560.466 676.028 561.432 678.576 565.625C681.011 569.633 679.848 573.967 677.775 577.83C675.307 582.428 672.151 586.634 668.999 590.846C668.754 591.175 668.484 591.485 668.189 591.774C667.741 592.216 667.624 592.8 667.2 593.187C666.647 593.696 666.192 594.24 665.834 594.821C665.231 595.797 664.331 596.4 663.733 597.328C663.466 597.736 663.186 598.1 662.894 598.42C662.225 599.155 661.531 599.895 660.812 600.639C660.661 600.796 660.562 600.975 660.515 601.176C660.478 601.33 660.396 601.469 660.28 601.577C659.178 602.563 658.19 603.611 657.317 604.723C655.965 606.447 654.363 607.87 652.922 609.457C648.484 614.352 644.198 618.53 639.256 623.109C628.575 632.995 617.279 641.773 605.367 649.442C591.994 658.048 577.994 665.557 563.183 669.429C561.418 669.891 559.672 669.573 557.945 668.477C557.807 668.39 557.655 668.346 557.488 668.346C556.424 668.341 555.317 668.525 554.304 668.143C553.129 667.7 552.115 667.025 551.261 666.117C495.364 606.713 439.502 547.342 383.674 488.007C383.629 487.961 383.569 487.933 383.506 487.931C383.442 487.928 383.381 487.95 383.335 487.993L232.678 624.089C232.653 624.111 232.632 624.139 232.618 624.169C232.603 624.2 232.595 624.233 232.594 624.266C232.593 624.3 232.598 624.333 232.61 624.364C232.622 624.395 232.64 624.423 232.664 624.447C240.121 632.04 249.387 637.976 259.114 642.569C266.855 646.221 274.834 649.129 283.049 651.293C283.263 651.349 283.471 651.42 283.676 651.505C284.065 651.665 284.483 651.729 284.929 651.698C285.02 651.692 285.097 651.723 285.159 651.792C285.244 651.877 285.346 651.934 285.466 651.962C290.541 653.171 295.504 654.165 300.356 654.944C300.903 655.032 301.447 655.156 301.991 655.316C302.74 655.533 303.489 655.481 304.219 655.82C306.04 656.668 307.108 658.043 307.422 659.946C307.636 661.237 307.468 662.44 306.918 663.555C306.384 664.641 305.725 665.715 304.94 666.777C301.319 671.67 296.727 675.856 291.166 679.336C288.777 680.829 286.394 682.35 283.497 682.025C282.342 681.898 281.231 682.346 280.072 682.355C268.437 682.44 246.045 682.559 212.898 682.713C211.971 682.719 211.045 682.869 210.118 683.161C207.876 683.867 205.488 682.628 203.453 681.568C191.587 675.412 180.978 667.394 170.855 658.406C161.955 650.508 153.524 641.779 145.563 632.219C141.211 626.994 137.109 621.481 133.259 615.68C132.728 614.879 132.206 614.083 131.69 613.292C131.524 613.038 131.378 612.78 131.252 612.519C131.155 612.315 131.011 612.133 130.819 611.973C130.697 611.872 130.604 611.75 130.541 611.606C130.331 611.147 129.974 610.506 129.472 609.684C126.278 604.448 123.67 599.182 121.647 593.884C120.041 589.682 118.336 585.419 122.052 581.594C168.387 533.9 214.788 486.124 261.258 438.267C261.87 437.64 261.955 436.717 262.266 436.039C294.031 367.162 325.797 298.286 357.563 229.41C358.253 227.915 358.756 226.772 359.07 225.98C359.13 225.83 359.119 225.687 359.037 225.552C346.934 205.462 334.895 185.456 322.92 165.533C322.342 164.575 321.991 163.533 321.865 162.405C321.862 162.388 321.856 162.371 321.847 162.357C321.837 162.342 321.824 162.33 321.81 162.32C321.795 162.311 321.778 162.305 321.761 162.303C321.744 162.3 321.726 162.301 321.71 162.306C303.352 168.355 284.693 173.522 265.69 176.862C263.561 177.236 261.022 177.759 258.073 178.431C253.909 179.382 249.555 179.905 245.01 180C240.441 180.094 235.603 179.246 232.372 175.845C230.739 174.124 229.884 172.075 229.809 169.697C229.649 164.798 232.89 160.804 236.63 157.949C242.514 153.464 249.062 149.969 255.501 146.229C265.12 140.642 274.381 134.353 283.369 127.64C285.791 125.832 288.061 123.851 290.181 121.7C290.8 121.069 291.056 120.342 290.949 119.519C290.057 112.667 289.137 105.513 288.188 98.0574C287.416 91.9744 287.026 88.8606 287.02 88.7161C286.782 82.8341 288.429 77.3038 291.962 72.1252C292.612 71.1705 293.04 70.5785 293.248 70.3492C294.14 69.3568 294.98 68.4524 295.768 67.6359C298.61 64.6933 301.714 62.3898 305.081 60.7253C305.904 60.3202 306.766 59.7895 307.667 59.1331C308.43 58.5804 309.27 58.0811 310.187 57.6351C346.535 40.0329 382.829 22.459 419.07 4.91327C420.676 4.14072 422.108 2.8971 423.719 2.29885C431.486 -0.580946 438.822 0.0801184 445.727 4.28204C447.637 5.444 449.326 6.91216 450.796 8.68652C451.968 10.0934 453.184 11.8835 454.447 14.0567C458.106 20.3439 461.816 26.6577 465.578 32.9983C465.66 33.1396 465.781 33.1946 465.941 33.1632C480.732 30.2426 496.169 27.3078 509.99 23.7465C518.437 21.5702 525.96 18.9087 533.869 16.0257C535.602 15.3945 537.435 15.0208 539.366 14.9046C544.077 14.6267 547.836 17.7546 548.067 22.4417C548.293 26.9828 545.514 31.5097 542.781 35.2406C538.944 40.4788 534.9 45.1236 530.651 49.1748C518.894 60.3909 505.85 70.2362 492.354 79.5209C492.203 79.6277 492.175 79.7611 492.269 79.9213L508.945 108.346C509.044 108.515 509.191 108.652 509.368 108.737C509.545 108.823 509.744 108.854 509.939 108.826C515.488 108.039 520.995 108.167 525.931 111.059C531.854 114.526 535.062 119.734 535.555 126.684C535.659 128.179 535.469 129.942 534.985 131.974C533.695 137.388 530.83 141.477 526.393 144.241C526.252 144.329 526.228 144.44 526.322 144.575C529.554 149.267 531.749 154.52 532.908 160.332C533.002 160.797 533.092 161.268 533.176 161.746C533.751 164.955 534.291 168.462 534.797 172.265C534.962 173.494 534.722 174.507 534.731 175.699C534.806 187.169 531.669 199.05 525.013 208.433C519.498 216.206 511.927 221.49 502.298 224.285C501.701 224.46 501.149 224.617 500.64 224.756C500.172 224.888 499.72 224.977 499.283 225.024C498.944 225.059 498.62 225.142 498.313 225.274C498.061 225.384 497.802 225.443 497.535 225.453C496.513 225.495 495.562 225.773 494.558 225.886C489.543 226.451 484.556 226.364 479.597 225.622C479.52 225.611 479.44 225.622 479.369 225.653C479.297 225.685 479.236 225.736 479.192 225.801L467.218 244.239C467.182 244.294 467.163 244.359 467.165 244.425C467.167 244.491 467.188 244.554 467.227 244.606L521.461 318.658C521.489 318.697 521.53 318.725 521.576 318.737C521.623 318.749 521.672 318.744 521.715 318.724C551.028 305.292 580.365 291.861 609.725 278.429C613.427 276.738 614.77 275.706 618.148 276.785C619.809 277.313 621.503 277.766 623.23 278.146C623.403 278.184 623.543 278.134 623.65 277.996C624.363 277.054 625.188 276.193 626.127 275.414C631.959 270.578 638.422 266.968 645.517 264.584C657.317 260.627 669.546 261.635 680.46 267.759C681.029 268.077 681.594 268.403 682.156 268.739C684.153 269.94 686.042 271.495 687.851 272.965C687.968 273.062 688.095 273.078 688.233 273.012C689.838 272.274 691.496 271.726 693.207 271.368C697.591 270.454 702.594 269.765 708.216 269.3C724.882 267.929 741.925 267.123 757.993 269.469C762.619 270.145 766.914 271.184 770.877 272.588C774.075 273.723 776.822 275.447 778.697 278.297C780.826 281.524 781.052 285.693 779.799 289.287C779.108 291.275 777.982 293.012 776.421 294.497C771.833 298.859 765.643 300.211 759.421 301.182C751.504 302.422 743.065 303.221 734.105 303.579C730.682 303.718 726.534 304.152 721.66 304.884C714.468 305.961 708.066 307.17 702.454 308.511C693.602 310.625 686.028 312.745 679.735 314.871C671.68 317.589 664.661 319.987 655.922 320.674C655.674 320.693 655.618 320.808 655.753 321.018ZM458.705 101.133C452.388 103.729 445.925 100.427 444.229 93.9497C443.988 93.0264 443.856 92.312 443.834 91.8063C443.664 87.9059 444.781 84.3917 447.183 81.2639C447.309 81.0974 447.269 81.0016 447.065 80.9765C442.496 80.3578 438.299 81.5857 434.474 84.6602C431.333 87.1789 429.38 90.4293 428.614 94.4113C428.158 96.7792 428.298 99.8019 429.033 103.479C431.567 116.156 439.029 128.974 450.655 135.192C454.128 137.048 457.682 137.85 461.315 137.599C461.786 137.566 462.026 137.307 462.488 137.283C462.837 137.267 463.174 137.208 463.501 137.104C466.528 136.134 468.929 134.11 470.703 131.032C470.82 130.831 470.762 130.735 470.529 130.745C463.733 130.977 459.048 128.027 456.473 121.893C456.034 120.857 455.592 119.317 455.479 118.247C454.854 112.287 455.978 106.637 458.851 101.298C458.955 101.107 458.906 101.052 458.705 101.133ZM332.408 158.726C332.266 158.72 332.148 158.74 332.054 158.787C331.9 158.872 331.871 158.987 331.965 159.131L333.736 161.934C344.831 180.394 355.944 198.847 367.073 217.294C367.463 217.935 367.92 218.42 368.444 218.75C369.644 219.497 370.746 220.288 371.751 221.124C373.715 222.749 376.556 224.106 378.954 225.067C381.127 225.94 383.317 226.81 385.525 227.676C391.426 229.994 397.151 231.833 402.7 233.192C404.109 233.541 405.461 234.078 406.897 234.436C416.736 236.883 426.216 238.64 435.336 239.707C440.194 240.279 445.03 240.573 449.845 240.588C451.96 240.598 454.103 240.376 456.242 240.122C456.367 240.107 456.487 240.065 456.594 239.998C456.701 239.931 456.791 239.842 456.859 239.736C461.551 232.547 466.071 225.591 470.421 218.867C471.142 217.746 471.288 216.47 472.164 215.429C473.203 214.185 474.508 213.525 476.078 213.45C477.953 213.361 479.517 214.326 481.312 214.595C487.561 215.537 493.646 215.147 499.566 213.426C511.14 210.058 517.876 201.805 521.433 190.65C522.792 186.379 523.512 182.137 523.59 177.922C523.59 177.911 523.588 177.9 523.583 177.89C523.577 177.88 523.57 177.871 523.56 177.865C523.551 177.859 523.54 177.855 523.529 177.855C523.517 177.854 523.506 177.856 523.496 177.861C519.228 179.711 514.761 180.973 510.094 181.648C502.887 182.691 495.664 182.716 488.425 181.724C487.269 181.567 486.012 181.419 484.652 181.281C483.468 181.162 482.21 181.041 480.879 180.918C479.001 180.742 477.149 180.383 475.325 179.839C469.446 178.082 464.297 175.755 459.445 171.982C459.269 171.844 459.274 171.712 459.459 171.586C462.031 169.818 464.214 167.422 466.007 164.398C466.935 162.829 468.037 160.37 467.896 158.458C467.893 158.436 467.902 158.422 467.924 158.415C467.946 158.409 467.968 158.407 467.99 158.411C468.081 158.433 468.146 158.486 468.183 158.571C468.943 160.336 470.009 162.112 471.382 163.898C472.672 165.579 474.306 166.752 476.281 167.417C486.685 170.938 497.077 172.037 507.456 170.715C511.134 170.244 514.819 169.294 518.512 167.865C519.784 167.375 520.995 166.569 522.299 166.136C522.485 166.076 522.562 165.949 522.53 165.754C522.15 163.361 521.613 161.006 520.919 158.688C520.103 155.966 518.933 153.521 517.41 151.354C516.625 150.236 515.821 149.098 514.998 147.939C514.882 147.775 514.729 147.728 514.541 147.797C513.208 148.292 511.663 148.499 510.546 149.394C509.318 150.38 508.414 151.557 507.833 152.923C507.824 152.942 507.811 152.958 507.793 152.969C507.775 152.981 507.755 152.987 507.734 152.987C507.713 152.987 507.693 152.981 507.675 152.969C507.658 152.958 507.644 152.942 507.635 152.923L502.02 139.412C502.008 139.383 502.004 139.351 502.008 139.32C502.013 139.289 502.027 139.26 502.047 139.236C502.068 139.212 502.095 139.194 502.125 139.184C502.155 139.175 502.187 139.174 502.218 139.182C504.221 139.656 506.256 139.959 508.323 140.091C509.007 140.135 509.639 140.077 510.217 139.916C511.851 139.469 513.368 139.248 514.937 138.503C516.419 137.797 517.879 137.151 519.318 136.567C519.933 136.316 520.517 135.93 521.07 135.408C522.474 134.08 523.425 132.998 523.925 132.163C525.187 130.057 525.592 126.83 524.523 124.404C523.647 122.41 522.113 120.962 519.921 120.061C516.764 118.761 513.291 118.503 509.501 119.288C508.32 119.53 507.206 119.709 506.161 119.825C501.968 120.287 499.33 122.096 496.4 125.021C496.281 125.137 496.177 125.128 496.089 124.993C494.814 123.049 493.748 120.953 492.891 118.704C491.986 116.354 490.955 114.088 489.994 111.765C489.953 111.671 489.95 111.575 489.984 111.478C489.998 111.44 490.02 111.405 490.048 111.375C490.076 111.346 490.11 111.323 490.148 111.308C490.186 111.292 490.227 111.286 490.268 111.287C490.308 111.289 490.348 111.3 490.385 111.318C492.646 112.461 495.27 112.865 498.256 112.529C498.429 112.51 498.471 112.425 498.383 112.274L483.041 86.1064C482.921 85.9054 482.764 85.8678 482.57 85.9934L476.794 89.6818C476.754 89.7078 476.719 89.7421 476.693 89.7826C476.666 89.8231 476.649 89.8688 476.641 89.9168C476.634 89.9648 476.636 90.014 476.649 90.0611C476.661 90.1083 476.684 90.1524 476.714 90.1906C477.6 91.2787 478.264 92.2162 478.787 93.6058C479.239 94.8055 479.918 96.5249 480.822 98.764C483.193 104.627 484.481 110.789 484.685 117.249C485.08 129.869 480.139 142.884 467.576 147.505C464.953 148.469 462.113 148.893 459.054 148.777C442.713 148.16 429.424 134.146 422.871 120.259C422.796 120.095 422.678 120.055 422.518 120.136C393.265 134.893 363.228 147.757 332.408 158.726ZM376.815 236.438C376.63 236.278 376.433 236.218 376.226 236.259C376.207 236.221 376.187 236.184 376.165 236.146C376.14 236.099 376.102 236.064 376.052 236.042C373.508 234.981 371.076 233.778 368.755 232.434C368.629 232.359 368.537 232.387 368.477 232.519L357.737 255.799C357.709 255.86 357.701 255.928 357.714 255.994C357.728 256.059 357.762 256.118 357.812 256.162C364.921 262.309 374.083 266.638 383.32 269.86C390.679 272.423 398.151 274.389 405.739 275.758C405.905 275.79 406.013 275.725 406.064 275.565C406.375 274.629 406.532 273.613 406.535 272.517C406.539 271.551 406.912 270.68 406.977 269.686C407.018 269.001 407.103 268.298 407.232 267.576C407.367 266.803 407.463 266.024 407.519 265.239C407.62 263.908 407.935 262.54 408.466 261.136C409.502 258.413 410.501 256.185 413.685 255.667C416.031 255.286 418.194 256.718 419.451 258.602C422.598 263.328 425.858 268.292 429.231 273.492C429.244 273.512 429.261 273.528 429.281 273.539C429.301 273.551 429.324 273.558 429.347 273.559C429.371 273.561 429.394 273.556 429.415 273.547C429.437 273.538 429.456 273.524 429.471 273.506L447.555 252.012C447.678 251.867 447.643 251.792 447.452 251.785C442.216 251.613 437.424 251.256 433.075 250.716C416.832 248.687 400.946 245.034 385.417 239.754C383.787 239.199 380.92 238.093 376.815 236.438ZM293.083 395.993L292.061 398.396C291.995 398.546 292.032 398.667 292.174 398.758L294.482 400.242C303.503 406.347 313.701 411.275 323.881 415.218C326.585 416.267 328.955 417.108 330.99 417.742C332.276 418.143 333.449 418.708 334.711 419.123C357.925 426.792 382.279 430.956 406.822 432.685C433.239 434.547 459.757 433.726 486.376 430.221C486.539 430.199 486.649 430.113 486.706 429.962L496.942 403.86C496.986 403.749 496.99 403.625 496.951 403.512C496.912 403.399 496.833 403.303 496.73 403.243C483.961 395.709 470.766 387.94 457.146 379.935C455.811 379.153 454.646 378.583 453.651 378.225C451.471 377.44 448.761 377.094 445.52 377.188C444.47 377.221 443.495 377.641 442.458 377.857C442.107 377.933 442.036 377.823 442.246 377.527C444.107 374.927 446.246 372.261 447.918 369.444C448.879 367.833 449.461 366.724 449.666 366.118C450.633 363.267 451.577 360.308 452.497 357.243C452.644 356.744 452.776 356.749 452.892 357.257C453.703 360.781 455.643 363.796 457.735 366.811C458.115 367.36 458.603 367.811 459.2 368.163C476.808 378.514 494.276 388.802 511.602 399.027C511.862 399.181 512.115 399.355 512.36 399.55C512.577 399.723 512.804 399.878 513.043 400.016C519.694 403.854 526.439 407.5 533.275 410.954L535.291 411.873C537.245 412.956 539.33 413.49 541.547 413.475C544.383 413.456 547.261 413.098 549.631 411.897C550.215 411.601 550.777 411.276 551.317 410.921C552.806 409.938 555.447 408.291 559.241 405.98C567.048 401.225 584.582 390.333 611.845 373.302C623.131 366.409 634.357 359.429 645.521 352.363C647.522 351.097 649.767 349.413 652.258 347.309C653.344 346.388 654.098 345.44 654.519 344.463C655.043 342.252 654.793 340.335 653.77 338.712C643.456 322.384 633.143 306.081 622.83 289.801C622.703 289.598 622.502 289.453 622.269 289.396L616.287 287.888C616.04 287.827 615.779 287.852 615.547 287.959C584.702 302.081 553.836 316.21 522.95 330.345C520.808 331.325 518.784 331.085 516.877 329.625C515.266 328.395 513.787 327.043 512.534 325.333C495.152 301.604 477.777 277.883 460.411 254.169C460.405 254.161 460.398 254.154 460.39 254.15C460.381 254.145 460.372 254.142 460.362 254.142C460.353 254.141 460.343 254.143 460.334 254.147C460.325 254.151 460.318 254.157 460.312 254.164C452.322 263.633 444.193 273.283 435.925 283.116C435.119 284.077 434.196 284.873 433.404 285.834C432.889 286.469 432.277 287.057 431.567 287.601C430.39 288.499 429.262 289.551 428.185 290.757C427.94 291.033 427.709 291.021 427.492 290.719C424.079 285.87 420.783 280.938 417.605 275.923C417.435 275.656 417.379 275.678 417.435 275.989C417.487 276.286 417.473 276.465 417.379 276.752C417.074 277.65 416.941 278.633 416.978 279.701C416.984 279.864 416.947 280.017 416.865 280.158C416.727 280.397 416.656 280.654 416.653 280.93C416.606 283.176 416.842 285.481 417.36 287.846C417.47 288.354 417.481 288.866 417.393 289.381C417.361 289.548 417.262 289.625 417.096 289.612C413.408 289.353 409.959 287.987 406.384 287.412C405.249 287.229 404.179 286.861 403.063 286.654C388.516 283.988 373.546 279.145 361.086 271.999C358.335 270.421 355.598 268.617 353.087 266.657C352.915 266.519 352.781 266.55 352.687 266.751L293.083 395.993ZM643.317 300.988C643.251 300.985 643.218 301.031 643.218 301.125C643.215 301.166 643.229 301.211 643.26 301.262C644.83 303.783 646.454 306.315 648.131 308.855C649.12 309.483 650.193 309.834 651.348 309.906C654.756 310.116 658.425 310.069 662.357 309.764C665.105 309.639 667.087 309.411 668.302 309.081C672.187 308.023 676.064 306.833 679.933 305.511C679.982 305.494 680.026 305.468 680.065 305.433C680.103 305.398 680.133 305.356 680.154 305.308C680.176 305.255 680.099 305.209 679.923 305.172C680.005 305.15 680.047 305.11 680.051 305.054C680.051 304.991 680.022 304.947 679.966 304.922C679.13 304.567 678.265 304.353 677.37 304.281C676.604 304.222 675.789 304.074 674.925 303.838C672.19 303.094 669.326 302.259 666.333 301.332C666.28 301.317 666.28 301.31 666.333 301.314C667.303 301.361 668.264 301.474 669.221 301.412C671.915 301.243 674.643 301.398 677.356 301.017C681.517 300.433 685.584 299.453 689.557 298.077C690.643 297.7 691.661 297.265 692.609 296.772C694.409 295.84 696.321 294.888 698.399 295.006C701.946 295.204 705.196 294.46 708.602 294.276C710.97 294.15 713.038 293.911 714.806 293.56C717.277 293.07 719.65 292.503 721.924 291.859C724.32 291.181 726.019 289.958 727.021 288.19C727.958 286.541 727.666 284.916 725.947 283.974C723.365 282.556 720.171 281.924 717.237 281.825C711.957 281.653 706.272 282.019 700.179 282.923C696.571 283.46 693.146 284.454 689.618 285.104C687.994 285.402 686.473 285.3 685.053 284.798C684.064 284.452 682.965 283.702 681.756 282.546C677.361 278.349 671.939 275.339 665.923 273.987C665.549 273.868 665.195 273.83 664.859 273.874C664.218 273.676 663.546 273.546 662.842 273.483C651.914 272.517 641.037 277.266 632.868 284.327C632.736 284.44 632.716 284.57 632.807 284.718C636.196 290.113 639.581 295.46 642.963 300.758C643.014 300.836 643.131 300.913 643.317 300.988ZM757.235 280.671L749.608 279.724C745.501 279.272 741.275 279.07 736.932 279.117C736.765 279.12 736.721 279.194 736.8 279.338C739.052 283.389 739.3 287.612 737.544 292.005C737.466 292.206 737.533 292.3 737.747 292.288C744.182 291.946 750.989 291.214 758.168 290.093C760.78 289.688 763.164 289.149 765.318 288.477C767.064 287.937 768.376 286.979 769.252 285.603C769.376 285.411 769.436 285.184 769.424 284.955C769.411 284.726 769.326 284.508 769.181 284.332C768.826 283.892 768.361 283.562 767.787 283.342C764.269 282.004 760.752 281.114 757.235 280.671ZM131.804 587.539C131.348 587.909 131.398 588.556 131.954 589.479C133.126 592.667 134.35 595.467 135.629 597.879C139.79 605.73 145.017 613.617 151.31 621.54C160.81 633.505 171.346 644.362 182.919 654.11C184.408 655.363 186.155 656.244 187.517 657.652C188.12 658.277 188.774 658.855 189.481 659.386C193.711 662.573 197.767 665.383 201.649 667.813C204.404 669.537 207.608 671.629 209.883 671.615C232.139 671.483 255.52 671.357 280.025 671.238C280.647 671.233 281.339 671.318 281.947 671.408C282.311 671.461 282.65 671.404 282.964 671.238C286.252 669.46 289.153 667.389 291.665 665.025C291.688 665.003 291.705 664.976 291.714 664.945C291.722 664.915 291.722 664.883 291.713 664.852C291.704 664.822 291.687 664.794 291.664 664.773C291.64 664.752 291.611 664.738 291.58 664.732C280.008 662.531 268.925 659.121 258.332 654.501C245.175 648.768 232.937 640.986 223.068 630.547C221.919 629.329 220.973 627.98 220.232 626.501C220.151 626.344 220.025 626.245 219.855 626.204C204.301 622.506 190.079 614.319 178.161 603.527C166.893 593.323 157.166 580.388 153.157 565.917C153.107 565.731 153.014 565.708 152.879 565.846L131.804 587.539ZM539.724 637.637L559.537 658.698C559.597 658.763 559.673 658.81 559.758 658.835C559.843 658.859 559.933 658.859 560.018 658.835C574.838 654.694 588.287 647.388 601.199 638.861C617.709 627.952 632.567 615.082 645.898 600.611C646.985 599.43 648.096 598.223 649.233 596.988C650.703 595.401 652.097 593.686 653.548 592.037C657.361 587.7 661.224 582.735 665.137 577.142C666.239 575.566 667.25 573.901 668.17 572.149C668.191 572.109 668.202 572.063 668.2 572.018C668.199 571.972 668.185 571.928 668.162 571.889C668.138 571.85 668.105 571.818 668.065 571.796C668.025 571.774 667.98 571.762 667.935 571.763C667.332 571.767 666.682 571.579 666.074 571.598C661.828 571.711 657.705 571.678 653.704 571.499C652.418 571.442 651.085 571.122 649.864 570.623C649.473 570.464 649.052 570.382 648.626 570.382L610.667 570.34C610.362 570.34 610.171 570.488 610.092 570.783C604.651 591.722 590.256 610.046 572.77 622.624C562.356 630.114 551.369 635.027 539.809 637.364C539.781 637.37 539.755 637.384 539.733 637.403C539.712 637.423 539.696 637.448 539.687 637.476C539.679 637.503 539.678 637.533 539.684 637.561C539.691 637.589 539.704 637.615 539.724 637.637Z" fill="#E30002"/>
<path d="M444.23 93.9497C445.925 100.427 452.388 103.729 458.705 101.133C458.906 101.052 458.955 101.107 458.851 101.298C455.978 106.637 454.854 112.287 455.479 118.247C455.592 119.317 456.035 120.857 456.473 121.893C459.048 128.027 463.733 130.977 470.529 130.745C470.762 130.735 470.82 130.831 470.704 131.032C468.929 134.11 466.528 136.134 463.501 137.104C463.174 137.208 462.837 137.267 462.488 137.283C462.026 137.307 461.786 137.566 461.315 137.599C457.682 137.85 454.128 137.048 450.655 135.192C439.029 128.974 431.567 116.156 429.033 103.479C428.298 99.8019 428.158 96.7792 428.614 94.4113C429.38 90.4293 431.333 87.1789 434.474 84.6602C438.299 81.5858 442.496 80.3578 447.065 80.9765C447.27 81.0016 447.309 81.0974 447.183 81.2639C444.781 84.3917 443.664 87.9059 443.834 91.8063C443.856 92.312 443.988 93.0264 444.23 93.9497Z" fill="white"/>
<path d="M333.736 161.934L332.408 158.726C363.228 147.757 393.265 134.893 422.518 120.136C422.678 120.055 422.796 120.096 422.871 120.259C429.424 134.146 442.713 148.16 459.054 148.777C462.113 148.894 464.953 148.47 467.576 147.505C480.139 142.884 485.08 129.869 484.685 117.249C484.481 110.789 483.193 104.627 480.822 98.7641C479.918 96.525 479.239 94.8056 478.787 93.6059C478.264 92.2163 477.6 91.2789 476.714 90.1907C476.684 90.1525 476.661 90.1084 476.649 90.0613C476.636 90.0141 476.634 89.9649 476.641 89.9169C476.649 89.8689 476.666 89.8232 476.693 89.7827C476.719 89.7423 476.754 89.7079 476.794 89.682L482.57 85.9935C482.764 85.8679 482.921 85.9056 483.041 86.1065L498.383 112.274C498.471 112.425 498.429 112.51 498.256 112.529C495.27 112.865 492.646 112.461 490.385 111.318C490.348 111.3 490.308 111.289 490.268 111.287C490.227 111.286 490.186 111.293 490.148 111.308C490.11 111.323 490.076 111.346 490.048 111.375C490.02 111.405 489.998 111.44 489.984 111.478C489.95 111.576 489.953 111.671 489.994 111.766C490.955 114.088 491.986 116.354 492.891 118.704C493.748 120.953 494.814 123.049 496.089 124.993C496.177 125.128 496.281 125.138 496.4 125.021C499.33 122.096 501.968 120.287 506.161 119.826C507.206 119.709 508.32 119.53 509.501 119.289C513.291 118.503 516.764 118.761 519.921 120.061C522.113 120.962 523.647 122.41 524.523 124.404C525.592 126.83 525.187 130.057 523.925 132.163C523.425 132.998 522.474 134.08 521.07 135.408C520.517 135.93 519.933 136.316 519.318 136.567C517.879 137.151 516.419 137.797 514.937 138.503C513.368 139.248 511.851 139.469 510.217 139.917C509.639 140.077 509.008 140.135 508.323 140.091C506.256 139.959 504.221 139.656 502.218 139.182C502.187 139.174 502.155 139.175 502.125 139.184C502.095 139.194 502.068 139.212 502.047 139.236C502.027 139.26 502.013 139.289 502.008 139.32C502.004 139.351 502.008 139.383 502.02 139.413L507.635 152.923C507.644 152.942 507.658 152.958 507.675 152.969C507.693 152.981 507.713 152.987 507.734 152.987C507.755 152.987 507.775 152.981 507.793 152.969C507.811 152.958 507.824 152.942 507.833 152.923C508.414 151.557 509.318 150.381 510.546 149.394C511.663 148.499 513.208 148.292 514.541 147.798C514.729 147.728 514.882 147.776 514.998 147.939C515.821 149.098 516.625 150.236 517.41 151.354C518.933 153.521 520.103 155.966 520.919 158.689C521.613 161.006 522.15 163.362 522.53 165.755C522.562 165.949 522.485 166.076 522.299 166.136C520.995 166.57 519.784 167.375 518.512 167.865C514.819 169.294 511.134 170.244 507.456 170.715C497.077 172.037 486.685 170.938 476.281 167.417C474.306 166.752 472.673 165.579 471.382 163.899C470.009 162.112 468.943 160.336 468.183 158.571C468.146 158.486 468.081 158.433 467.99 158.411C467.968 158.408 467.946 158.409 467.924 158.415C467.902 158.422 467.893 158.436 467.896 158.458C468.037 160.37 466.935 162.829 466.007 164.398C464.214 167.422 462.031 169.818 459.459 171.586C459.274 171.712 459.269 171.844 459.445 171.982C464.297 175.755 469.446 178.082 475.325 179.84C477.149 180.383 479.001 180.742 480.879 180.918C482.21 181.041 483.468 181.162 484.652 181.281C486.012 181.419 487.269 181.567 488.425 181.724C495.664 182.716 502.887 182.691 510.094 181.648C514.761 180.973 519.228 179.711 523.496 177.861C523.506 177.856 523.517 177.854 523.529 177.855C523.54 177.856 523.551 177.859 523.56 177.865C523.57 177.871 523.577 177.88 523.583 177.89C523.588 177.9 523.591 177.911 523.59 177.922C523.512 182.137 522.793 186.379 521.433 190.651C517.876 201.805 511.14 210.058 499.566 213.427C493.646 215.148 487.561 215.537 481.312 214.595C479.517 214.326 477.953 213.361 476.078 213.45C474.508 213.526 473.203 214.185 472.164 215.429C471.288 216.47 471.142 217.746 470.421 218.867C466.071 225.591 461.551 232.547 456.859 239.736C456.791 239.842 456.701 239.931 456.594 239.998C456.487 240.065 456.367 240.107 456.242 240.122C454.103 240.376 451.96 240.598 449.845 240.588C445.03 240.573 440.194 240.279 435.336 239.707C426.216 238.64 416.736 236.883 406.897 234.436C405.461 234.078 404.109 233.541 402.7 233.193C397.151 231.833 391.426 229.994 385.525 227.676C383.317 226.81 381.127 225.94 378.954 225.067C376.556 224.106 373.715 222.749 371.751 221.124C370.746 220.288 369.644 219.497 368.444 218.75C367.92 218.42 367.463 217.935 367.073 217.294C355.944 198.847 344.831 180.394 333.736 161.934ZM391.724 181.408C387.772 176.858 386.18 169.471 389.906 164.337C391.291 162.427 393.024 161.446 395.107 161.393C395.889 161.374 396.689 161.341 397.509 161.294C399.341 161.195 400.872 162.278 401.749 163.762C401.766 163.793 401.793 163.818 401.824 163.835C401.855 163.852 401.891 163.86 401.926 163.858C401.962 163.856 401.996 163.844 402.026 163.824C402.055 163.804 402.078 163.776 402.093 163.743C402.865 161.958 403.119 160.116 403.463 158.227C403.645 157.235 403.785 156.25 403.883 155.273C404.175 152.403 404.564 149.641 405.051 146.987C405.101 146.73 405.024 146.684 404.82 146.851C402.995 148.349 400.799 149.296 398.23 149.691C397.212 149.851 396.101 149.972 394.895 150.054C387.899 150.539 382.35 154.407 379.086 160.761C375.793 167.173 375.986 175.086 378.859 181.597C383.396 191.852 393.142 198.268 404.25 199.426C405.038 199.508 405.841 199.511 406.657 199.436C414.577 198.704 420.161 194.79 423.408 187.692C427.004 179.838 426.004 172.755 420.408 166.442C419.937 165.912 419.635 165.371 419.503 164.822C419.261 163.804 418.998 162.784 418.712 161.76C418.702 161.728 418.685 161.699 418.662 161.675C418.639 161.652 418.611 161.634 418.58 161.623C418.548 161.612 418.515 161.609 418.482 161.614C418.449 161.619 418.418 161.632 418.391 161.652C417.402 162.377 416.399 163.022 415.518 163.908C414.937 164.495 414.312 165.026 413.643 165.5C412.545 166.282 411.933 167.493 410.845 168.289C410.437 168.59 410.074 168.959 409.757 169.396C409.126 170.263 408.16 170.932 407.312 171.577C406.809 171.963 406.874 172.156 407.505 172.156C409.502 172.156 411.055 172.725 412.164 173.862C413.737 175.477 414.632 177.753 414.223 180.051C413.309 185.181 409.926 188.818 404.288 188.13C399.272 187.518 395.085 185.277 391.724 181.408Z" fill="#FAED9A"/>
<path d="M391.724 181.408C395.085 185.277 399.272 187.518 404.288 188.13C409.926 188.818 413.309 185.181 414.222 180.051C414.632 177.752 413.737 175.477 412.164 173.861C411.055 172.725 409.502 172.156 407.505 172.156C406.874 172.156 406.809 171.963 407.312 171.577C408.16 170.931 409.126 170.263 409.757 169.396C410.074 168.959 410.437 168.59 410.845 168.289C411.933 167.493 412.545 166.282 413.643 165.5C414.312 165.026 414.937 164.495 415.518 163.908C416.399 163.022 417.402 162.377 418.391 161.651C418.418 161.632 418.449 161.619 418.482 161.614C418.515 161.609 418.548 161.612 418.58 161.623C418.611 161.633 418.639 161.651 418.662 161.675C418.685 161.699 418.702 161.728 418.712 161.76C418.998 162.784 419.261 163.804 419.503 164.822C419.635 165.371 419.937 165.911 420.408 166.442C426.004 172.754 427.004 179.838 423.408 187.692C420.161 194.789 414.577 198.704 406.657 199.436C405.841 199.511 405.038 199.508 404.25 199.426C393.142 198.267 383.396 191.852 378.859 181.596C375.986 175.086 375.793 167.172 379.086 160.761C382.35 154.406 387.899 150.539 394.895 150.054C396.101 149.972 397.212 149.851 398.23 149.691C400.799 149.295 402.995 148.348 404.82 146.85C405.024 146.684 405.101 146.73 405.051 146.987C404.564 149.641 404.175 152.403 403.883 155.273C403.785 156.25 403.645 157.234 403.463 158.227C403.119 160.116 402.865 161.958 402.093 163.743C402.078 163.776 402.055 163.804 402.026 163.824C401.996 163.844 401.962 163.856 401.926 163.858C401.891 163.86 401.855 163.852 401.824 163.835C401.793 163.818 401.766 163.793 401.749 163.762C400.872 162.278 399.341 161.194 397.509 161.293C396.689 161.34 395.889 161.373 395.107 161.392C393.024 161.446 391.291 162.427 389.906 164.336C386.18 169.471 387.772 176.857 391.724 181.408Z" fill="#E30002"/>
<path d="M701.988 178.045C706.44 170.376 714.085 163.837 723.017 162.551C734.774 160.86 743.437 168.016 746.231 179.161C747.251 183.228 747.496 187.736 746.966 192.685C745.868 202.936 741.859 212.612 736.663 221.981C732.273 229.911 727.093 237.131 721.123 243.641C716.28 248.923 711 253.971 705.281 258.786C703.001 260.703 701.583 262.191 698.658 261.876C695.718 261.565 693.744 260.703 691.714 258.771C683.649 251.112 676.833 243.426 671.265 235.713C665.769 228.097 661.412 219.954 658.193 211.283C658.118 211.085 658.07 210.881 658.052 210.671C658.03 210.423 657.937 210.203 657.774 210.011C657.67 209.889 657.614 209.747 657.604 209.587C657.592 209.371 657.526 209.074 657.406 208.697C653.397 196.101 652.149 177.927 663.158 168.232C666.217 165.541 669.718 163.804 673.663 163.022C685.859 160.601 696.194 167.366 701.663 178.035C701.767 178.233 701.875 178.236 701.988 178.045Z" fill="#E30002"/>
<path d="M376.226 236.259C376.123 236.356 376.049 236.452 376.005 236.546C375.911 236.754 375.969 236.812 376.179 236.721L376.815 236.438C380.92 238.093 383.787 239.199 385.417 239.754C400.946 245.034 416.832 248.687 433.075 250.716C437.424 251.256 442.216 251.613 447.452 251.785C447.643 251.792 447.678 251.867 447.555 252.012L429.471 273.506C429.456 273.524 429.437 273.538 429.415 273.547C429.394 273.556 429.371 273.561 429.347 273.559C429.324 273.558 429.301 273.551 429.281 273.539C429.261 273.528 429.244 273.512 429.231 273.492C425.858 268.292 422.598 263.328 419.451 258.602C418.194 256.718 416.031 255.286 413.686 255.667C410.501 256.185 409.502 258.413 408.466 261.136C407.935 262.54 407.62 263.908 407.519 265.239C407.463 266.024 407.367 266.803 407.232 267.576C407.103 268.298 407.018 269.001 406.978 269.686C406.912 270.68 406.539 271.551 406.535 272.517C406.532 273.613 406.375 274.629 406.064 275.565C406.013 275.725 405.905 275.79 405.739 275.758C398.151 274.389 390.679 272.423 383.321 269.86C374.083 266.638 364.921 262.309 357.812 256.162C357.762 256.118 357.728 256.059 357.714 255.994C357.701 255.928 357.709 255.86 357.737 255.799L368.477 232.519C368.537 232.387 368.629 232.359 368.755 232.434C371.076 233.778 373.508 234.981 376.052 236.042C376.102 236.064 376.14 236.099 376.165 236.146C376.187 236.184 376.207 236.221 376.226 236.259Z" fill="white"/>
<path d="M654.519 344.463C654.173 344.752 653.831 345.051 653.492 345.358C653.14 345.675 652.782 345.95 652.418 346.183C649.45 348.061 645.978 350.345 642.002 353.037C636.833 356.532 626.781 363.287 611.845 373.302C584.582 390.333 567.048 401.225 559.241 405.98C555.447 408.291 552.806 409.938 551.317 410.921C550.777 411.276 550.215 411.601 549.631 411.897C547.261 413.098 544.383 413.456 541.547 413.475C539.33 413.49 537.245 412.956 535.292 411.873C535.401 411.126 534.729 410.819 533.275 410.954C526.439 407.5 519.695 403.854 513.043 400.016C512.804 399.878 512.577 399.723 512.36 399.55C512.115 399.355 511.862 399.181 511.602 399.027C494.276 388.802 476.809 378.514 459.2 368.163C458.603 367.811 458.115 367.36 457.735 366.811C455.644 363.796 453.703 360.781 452.892 357.257C452.776 356.749 452.644 356.744 452.497 357.243C451.577 360.308 450.633 363.267 449.666 366.118C449.462 366.724 448.879 367.833 447.918 369.444C446.246 372.261 444.107 374.927 442.246 377.527C442.036 377.823 442.107 377.933 442.458 377.857C443.495 377.641 444.47 377.221 445.52 377.188C448.761 377.094 451.471 377.44 453.651 378.225C454.646 378.583 455.812 379.153 457.146 379.935C470.766 387.94 483.961 395.709 496.73 403.243C496.833 403.303 496.912 403.399 496.951 403.512C496.99 403.625 496.987 403.749 496.942 403.86L486.706 429.962C486.649 430.113 486.539 430.199 486.376 430.221C459.757 433.726 433.24 434.547 406.822 432.685C382.279 430.956 357.925 426.792 334.711 419.123C333.449 418.708 332.276 418.143 330.99 417.742C328.955 417.108 326.585 416.266 323.881 415.218C313.702 411.275 303.503 406.347 294.482 400.242C293.725 398.927 293.259 397.51 293.083 395.993L352.687 266.751C352.781 266.55 352.915 266.519 353.087 266.657C355.598 268.617 358.335 270.421 361.086 271.999C373.546 279.145 388.516 283.988 403.063 286.654C404.179 286.861 405.249 287.229 406.384 287.412C409.959 287.987 413.408 289.353 417.096 289.612C417.263 289.625 417.361 289.548 417.393 289.381C417.481 288.866 417.47 288.354 417.36 287.846C416.842 285.481 416.606 283.176 416.653 280.93C416.656 280.654 416.727 280.397 416.865 280.158C416.947 280.017 416.985 279.864 416.978 279.701C416.941 278.633 417.074 277.65 417.379 276.752C417.473 276.465 417.487 276.286 417.435 275.989C417.379 275.678 417.435 275.656 417.605 275.923C420.783 280.938 424.079 285.87 427.493 290.719C427.709 291.021 427.94 291.033 428.185 290.757C429.262 289.551 430.39 288.499 431.567 287.601C432.277 287.057 432.889 286.469 433.404 285.834C434.196 284.873 435.119 284.077 435.925 283.116C444.193 273.283 452.322 263.633 460.312 254.164C460.318 254.157 460.326 254.151 460.334 254.147C460.343 254.143 460.353 254.141 460.362 254.142C460.372 254.142 460.381 254.145 460.39 254.15C460.398 254.154 460.405 254.161 460.411 254.169C477.777 277.883 495.152 301.604 512.534 325.333C513.787 327.043 515.266 328.395 516.878 329.625C518.784 331.085 520.808 331.325 522.95 330.345C553.836 316.21 584.702 302.081 615.547 287.959C615.779 287.852 616.04 287.827 616.287 287.888L622.269 289.396C622.502 289.453 622.703 289.598 622.83 289.801C633.143 306.081 643.456 322.384 653.77 338.712C654.793 340.335 655.043 342.252 654.519 344.463Z" fill="white"/>
<path d="M664.859 273.874C664.893 274.031 664.953 274.145 665.038 274.218C665.119 274.29 665.234 274.304 665.381 274.26C665.564 274.207 665.744 274.116 665.923 273.987C671.939 275.339 677.361 278.349 681.756 282.546C682.965 283.702 684.064 284.452 685.053 284.798C686.473 285.3 687.994 285.402 689.618 285.104C693.146 284.454 696.571 283.46 700.179 282.923C706.272 282.019 711.957 281.653 717.237 281.825C720.171 281.924 723.365 282.556 725.947 283.973C727.666 284.916 727.958 286.541 727.021 288.19C726.019 289.958 724.32 291.181 721.924 291.859C719.65 292.503 717.277 293.07 714.806 293.56C713.038 293.911 710.97 294.15 708.602 294.276C705.196 294.459 701.946 295.204 698.399 295.006C696.321 294.888 694.409 295.84 692.609 296.772C691.661 297.265 690.643 297.7 689.557 298.077C685.584 299.453 681.517 300.433 677.356 301.017C674.643 301.398 671.915 301.243 669.221 301.412C668.264 301.474 667.303 301.361 666.333 301.313C666.28 301.31 666.28 301.317 666.333 301.332C669.326 302.259 672.19 303.094 674.925 303.838C675.789 304.074 676.604 304.222 677.37 304.281C678.265 304.353 679.13 304.567 679.966 304.922C680.408 305.11 680.131 305.462 680 305.5C677.111 306.338 677.5 306.5 673 308C669.5 309.5 664.889 309.764 662.357 309.764C658.414 309.764 654.756 310.116 651.348 309.906C650.193 309.834 649.12 309.483 648.131 308.855C646.446 306.032 644.5 303.5 642.963 300.758C639.581 295.46 636.196 290.113 632.807 284.718C632.716 284.57 632.736 284.44 632.868 284.327C641.037 277.265 651.914 272.517 662.842 273.483C663.546 273.546 664.218 273.676 664.859 273.874Z" fill="#FAED9A"/>
<path d="M749.608 279.724C751.769 281.113 754.311 281.428 757.235 280.671C760.752 281.114 764.269 282.004 767.787 283.342C768.361 283.562 768.826 283.892 769.181 284.331C769.326 284.508 769.411 284.726 769.424 284.955C769.436 285.184 769.376 285.411 769.252 285.603C768.376 286.979 767.064 287.937 765.318 288.477C763.164 289.149 760.78 289.688 758.168 290.093C750.988 291.214 744.182 291.945 737.747 292.288C737.533 292.3 737.466 292.206 737.544 292.005C739.3 287.612 739.052 283.389 736.8 279.338C736.721 279.194 736.765 279.12 736.932 279.117C741.275 279.07 745.501 279.272 749.608 279.724Z" fill="#FAED9A"/>
<path d="M131.954 589.48L131.803 587.539L152.879 565.846C153.014 565.708 153.107 565.731 153.157 565.917C157.166 580.388 166.893 593.323 178.161 603.527C190.079 614.319 204.301 622.506 219.855 626.204C220.025 626.245 220.151 626.344 220.232 626.501C220.973 627.98 221.919 629.329 223.068 630.547C232.937 640.986 245.175 648.768 258.332 654.501C268.925 659.121 280.008 662.531 291.58 664.733C291.611 664.738 291.64 664.752 291.664 664.773C291.687 664.795 291.704 664.822 291.713 664.852C291.722 664.883 291.722 664.915 291.714 664.945C291.705 664.976 291.688 665.003 291.665 665.025C289.153 667.389 286.252 669.461 282.964 671.238C282.65 671.404 282.311 671.461 281.947 671.408C281.339 671.318 280.647 671.233 280.025 671.238C255.52 671.357 232.139 671.483 209.883 671.615C207.608 671.629 204.404 669.537 201.649 667.813C197.767 665.383 193.711 662.574 189.481 659.386C188.774 658.855 188.12 658.277 187.517 657.652C186.155 656.244 184.408 655.363 182.919 654.11C171.346 644.362 160.81 633.506 151.31 621.54C145.017 613.617 139.79 605.73 135.629 597.879C134.35 595.467 133.126 592.667 131.954 589.48Z" fill="#FAED9A"/>
<path d="M539.724 637.637C539.705 637.615 539.691 637.589 539.684 637.561C539.678 637.533 539.679 637.503 539.688 637.475C539.696 637.448 539.712 637.423 539.733 637.403C539.755 637.383 539.781 637.37 539.809 637.363C551.369 635.027 562.356 630.114 572.77 622.624C590.256 610.046 604.651 591.722 610.092 570.783C610.171 570.488 610.362 570.34 610.667 570.34L648.626 570.382C649.052 570.382 649.473 570.464 649.865 570.623C651.085 571.122 652.418 571.442 653.704 571.499C657.705 571.678 661.828 571.711 666.074 571.598C666.682 571.579 667.332 571.767 667.935 571.763C667.98 571.762 668.025 571.774 668.065 571.796C668.105 571.818 668.138 571.85 668.162 571.889C668.185 571.928 668.199 571.972 668.2 572.018C668.202 572.063 668.191 572.109 668.17 572.149C667.25 573.901 666.239 575.566 665.137 577.142C661.224 582.735 657.361 587.7 653.548 592.037C652.097 593.686 650.703 595.401 649.233 596.988C648.096 598.222 646.985 599.43 645.898 600.611C632.567 615.082 617.709 627.951 601.199 638.861C588.287 647.388 574.838 654.694 560.018 658.835C559.933 658.859 559.843 658.859 559.758 658.834C559.673 658.81 559.597 658.763 559.537 658.698L539.724 637.637Z" fill="#FAED9A"/>
</g>
<defs>
<clipPath id="clip0_315_12325">
<rect width="662.321" height="683.99" fill="white" transform="translate(119)"/>
</clipPath>
</defs>
</svg>
