<svg width="900" height="609" viewBox="0 0 900 609" fill="none" xmlns="http://www.w3.org/2000/svg">
<g clip-path="url(#clip0_6_421)">
<path d="M472.89 362.39C476.01 376.45 479.273 390.727 482.68 405.22C487 423.63 500.71 427.13 517.26 422.17C522.46 420.61 528.07 417.27 533.2 414.45C572.86 392.64 622.19 379.11 667.51 387.72C689.33 391.86 709.32 402.16 723.21 419.88C723.263 419.947 723.336 419.995 723.418 420.018C723.5 420.041 723.587 420.039 723.668 420.01C723.748 419.981 723.817 419.928 723.866 419.859C723.915 419.789 723.941 419.705 723.94 419.62C723.39 383.33 722.39 346.94 722.08 310.56C721.83 281.44 720.21 252.38 719.68 223.27C719.52 214.32 709.17 208.19 701.73 206.26C698.13 205.32 692.65 205.32 689.46 204.35C682.34 202.183 678.483 197.52 677.89 190.36C677.22 182.18 683.54 175.57 690.53 172.37C690.877 172.21 690.967 171.963 690.8 171.63C673.91 136.92 675.52 95.98 697.22 63.43C697.286 63.3295 697.317 63.2096 697.308 63.0886C697.299 62.9676 697.251 62.8522 697.17 62.76C648.25 6.81002 557.17 -8.86999 495.43 36.09C486.8 42.37 479.15 48.66 473.59 56.83C463.837 71.1367 458.24 87.0233 456.8 104.49C456.803 104.628 456.75 104.761 456.655 104.861C456.559 104.96 456.428 105.017 456.29 105.02C456.152 105.023 456.019 104.97 455.919 104.875C455.82 104.779 455.763 104.648 455.76 104.51C454.1 90.21 449.3 72.2 439.17 61.31C398.95 18.08 327.72 8.00002 272.35 16.54C271.877 16.6134 271.663 16.8867 271.71 17.36L291.12 233.69C291.13 233.8 291.106 233.91 291.049 234.004C290.993 234.099 290.908 234.173 290.807 234.217C290.706 234.26 290.594 234.27 290.486 234.246C290.379 234.221 290.282 234.163 290.21 234.08L259.65 199C259.377 198.68 259.16 198.717 259 199.11L242.68 239.29C242.007 240.943 241.477 240.9 241.09 239.16L198.6 48.78C198.513 48.3867 198.317 48.32 198.01 48.58C186.41 58.36 177.35 73.68 179.06 89.44C191.78 207.147 204.5 324.863 217.22 442.59C217.224 442.622 217.236 442.652 217.255 442.677C217.275 442.703 217.3 442.723 217.33 442.735C217.359 442.747 217.392 442.751 217.423 442.747C217.455 442.742 217.485 442.73 217.51 442.71C276.69 396.7 358.37 383.97 427.39 415.15C438.88 420.34 458.9 428.45 467.08 413.31C468.127 411.383 468.787 408.41 469.06 404.39C470.013 390.477 471.073 376.49 472.24 362.43C472.248 362.352 472.283 362.28 472.34 362.226C472.396 362.171 472.47 362.139 472.548 362.134C472.626 362.129 472.703 362.152 472.766 362.199C472.829 362.246 472.873 362.314 472.89 362.39Z" stroke="#E30002" stroke-width="2"/>
<path d="M747.9 36.95C764.58 45.1634 781.29 45.1934 798.03 37.04C798.091 37.01 798.142 36.9623 798.175 36.9031C798.209 36.8439 798.224 36.7759 798.219 36.7081C798.213 36.6402 798.188 36.5755 798.145 36.5223C798.102 36.4692 798.045 36.4301 797.98 36.41C781.3 31.05 764.62 31.0367 747.94 36.37C747.447 36.53 747.433 36.7234 747.9 36.95Z" stroke="#E30002" stroke-width="2"/>
<path d="M827.91 81.63C830.823 92.6833 832.93 103.81 834.23 115.01C834.27 115.337 834.433 115.423 834.72 115.27C838.593 113.257 842.117 110.75 845.29 107.75" stroke="#E30002" stroke-width="2"/>
<path d="M845.29 107.75C848.99 104.62 854.19 98.22 852.43 93.04C844.87 70.7734 830.98 53.7634 810.76 42.01C809.39 41.21 808.14 41.31 807.46 42.81C807.327 43.1034 807.37 43.3667 807.59 43.6C817.86 54.65 823.15 67.6 827.91 81.63" stroke="#E30002" stroke-width="2"/>
<path d="M845.29 107.75C844.983 107.517 844.81 107.347 844.77 107.24C841.063 97.4333 835.443 88.8967 827.91 81.63" stroke="#FFEF9B" stroke-width="2"/>
<path d="M698.5 108.04C702.16 112.127 706.507 115.443 711.54 117.99C711.88 118.163 712.08 118.063 712.14 117.69C714.413 102.37 718.603 87.4733 724.71 73" stroke="#E30002" stroke-width="2"/>
<path d="M724.71 72.9999C729.203 63.3599 734.49 54.1599 740.57 45.3999C740.823 45.0399 740.77 44.7366 740.41 44.4899L736.5 41.7199C736.173 41.4933 735.84 41.4799 735.5 41.6799C714.973 53.6933 701.16 70.9699 694.06 93.5099C692.43 98.6599 695.23 104.15 698.5 108.04" stroke="#E30002" stroke-width="2"/>
<path d="M724.71 73C712.17 80.55 703.93 94.75 698.5 108.04" stroke="#FFEF9B" stroke-width="2"/>
<path d="M780.29 57L781.02 128.95C781.027 129.283 781.197 129.44 781.53 129.42C796.063 128.48 810.17 125.523 823.85 120.55C823.937 120.515 824.012 120.454 824.064 120.376C824.116 120.297 824.142 120.204 824.14 120.11C823.14 101.93 818.926 84.5467 811.5 67.96" stroke="#E30002" stroke-width="2"/>
<path d="M811.5 67.96C808.453 60.68 804.023 54.35 798.21 48.97C797.937 48.7167 797.627 48.6567 797.28 48.79C791.973 50.8234 786.506 52.2334 780.88 53.02C780.486 53.0734 780.29 53.3 780.29 53.7V57" stroke="#E30002" stroke-width="2"/>
<path d="M811.5 67.96C811.07 67.95 811.04 68.08 810.62 67.82C801.246 62.1467 791.136 58.54 780.29 57" stroke="#FFEF9B" stroke-width="2"/>
<path d="M741.95 62.36C731.157 80.8067 724.54 100.653 722.1 121.9C722.075 122.132 722.131 122.365 722.259 122.56C722.387 122.755 722.578 122.9 722.8 122.97C738.367 127.83 754.33 130.167 770.69 129.98C770.73 129.98 770.77 129.972 770.807 129.956C770.844 129.941 770.878 129.918 770.906 129.889C770.934 129.86 770.956 129.825 770.97 129.788C770.985 129.75 770.991 129.71 770.99 129.67C770.87 119.57 770.23 109.11 770.26 99.43C770.307 85.2833 770.207 71.14 769.96 57" stroke="#E30002" stroke-width="2"/>
<path d="M769.96 57C770.173 55.9067 770.15 54.8034 769.89 53.69C769.803 53.3034 769.56 53.1034 769.16 53.09C762.9 52.91 756.837 51.73 750.97 49.55C750.643 49.43 750.377 49.5067 750.17 49.78C747.157 53.7534 744.417 57.9467 741.95 62.36" stroke="#E30002" stroke-width="2"/>
<path d="M769.96 57C760.387 57.3467 751.05 59.1333 741.95 62.36" stroke="#FFEF9B" stroke-width="2"/>
<path d="M847.75 119.29C843.87 122.003 839.887 124.383 835.8 126.43C835.506 126.579 835.265 126.815 835.11 127.107C834.954 127.398 834.891 127.731 834.93 128.06C836.1 137.91 834.96 147.33 834.8 157.14C834.793 157.493 834.967 157.693 835.32 157.74C839.507 158.3 843.317 159.707 846.75 161.96" stroke="#E30002" stroke-width="2"/>
<path d="M846.75 161.96L849.14 163.7C849.191 163.738 849.251 163.764 849.314 163.776C849.377 163.788 849.442 163.785 849.504 163.767C849.566 163.75 849.623 163.718 849.671 163.676C849.719 163.633 849.756 163.58 849.78 163.52C856.687 146.867 859.03 129.527 856.81 111.5C856.803 111.443 856.781 111.389 856.745 111.344C856.71 111.299 856.662 111.265 856.608 111.245C856.554 111.225 856.496 111.221 856.44 111.232C856.384 111.244 856.332 111.271 856.29 111.31L847.75 119.29" stroke="#E30002" stroke-width="2"/>
<path d="M846.75 161.96C849.303 154.153 850.23 146.207 849.53 138.12C849.01 132.06 849.3 125.53 847.75 119.29" stroke="#FFEF9B" stroke-width="2"/>
<path d="M700.46 168C700.61 168.75 701.26 169.08 702.01 168.92C705.676 168.133 709.463 167.88 713.37 168.16C713.716 168.187 713.853 168.027 713.78 167.68C711.127 155.18 710.19 142.55 710.97 129.79C710.99 129.417 710.833 129.153 710.5 129C705.193 126.493 700.29 123.493 695.79 120" stroke="#E30002" stroke-width="2"/>
<path d="M695.79 120L690.62 114.83C690.32 114.53 690.15 114.59 690.11 115.01C688.45 133.71 691.9 151.373 700.46 168" stroke="#E30002" stroke-width="2"/>
<path d="M695.79 120C695.47 120.58 695.25 121.19 695.13 121.83C692.283 137.29 694.14 152.117 700.7 166.31C700.893 166.723 700.813 167.287 700.46 168" stroke="#FFEF9B" stroke-width="2"/>
<path d="M759.46 281.25C760.633 283.17 762.223 284.823 764.23 286.21M781.78 149.44C790.97 153.17 795.56 162.62 795.34 171.97C795.19 178.42 791.97 187.08 789.98 194.2C789.673 195.287 790.077 195.73 791.19 195.53C797.21 194.45 799.21 184.37 800.66 179.42C804.19 167.31 810.05 159.6 823.57 157.82C823.923 157.773 824.117 157.57 824.15 157.21C824.963 148.663 825.223 140.103 824.93 131.53C824.923 131.217 824.77 131.11 824.47 131.21C810.583 136.043 796.293 138.887 781.6 139.74C781.418 139.75 781.248 139.833 781.127 139.969C781.005 140.106 780.942 140.286 780.95 140.47L781.31 148.76C781.323 149.087 781.48 149.313 781.78 149.44ZM725.27 171.59C725.79 173.5 728.88 175.45 730.91 177.5C734.61 181.23 737.58 185.59 741.59 189.3C741.66 189.371 741.755 189.412 741.855 189.415C741.955 189.418 742.052 189.382 742.127 189.315C742.201 189.249 742.247 189.156 742.255 189.056C742.263 188.957 742.233 188.858 742.17 188.78C730.54 172.8 736.08 153.45 755.49 148.22C759.996 147.007 764.94 146.503 770.32 146.71C770.773 146.723 771 146.507 771 146.06V141.06C771 140.693 770.82 140.503 770.46 140.49C753.4 139.62 738.04 138.41 721.59 133.38C721.277 133.287 721.113 133.403 721.1 133.73C720.486 146.643 721.877 159.263 725.27 171.59Z" stroke="#E30002" stroke-width="2"/>
<path d="M764.23 286.21L767.16 289.79C767.486 290.19 767.423 290.263 766.97 290.01C759.416 285.883 752.603 280.763 746.53 274.65C746.27 274.39 746.077 274.43 745.95 274.77C742.52 284.05 749.78 292.04 757.61 295.91C769.537 301.81 782.007 302.137 795.02 296.89C801.76 294.17 807.78 289.14 808.71 281.5" stroke="#E30002" stroke-width="2"/>
<path d="M808.71 281.5C808.837 276.093 806.78 271.79 802.54 268.59C802.213 268.35 801.957 268.407 801.77 268.76L801 270.21" stroke="#E30002" stroke-width="2"/>
<path d="M801 270.21L792.54 286.36C792.253 286.907 792.163 286.873 792.27 286.26C794.483 273.14 799.1 260.957 806.12 249.71C810.24 243.1 818.6 243.59 821.19 236.69C822.537 233.123 823.737 230.477 824.79 228.75" stroke="#E30002" stroke-width="2"/>
<path d="M824.79 228.75C827.496 224.863 830.65 221.377 834.25 218.29" stroke="#E30002" stroke-width="2"/>
<path d="M834.25 218.29C839.797 213.61 846.173 210.473 853.38 208.88C853.445 208.866 853.507 208.839 853.562 208.8C853.617 208.762 853.664 208.712 853.699 208.655C853.735 208.599 853.758 208.535 853.769 208.469C853.779 208.403 853.776 208.335 853.76 208.27C852.22 202.263 848.427 198.513 842.38 197.02C842.047 196.94 841.727 196.977 841.42 197.13C833.16 201.25 825.95 212.18 822.85 220.25C822.723 220.577 822.507 220.657 822.2 220.49C817.553 218.037 812.593 216.543 807.32 216.01C807.251 216.003 807.185 215.979 807.128 215.939C807.072 215.9 807.025 215.847 806.994 215.784C806.962 215.722 806.946 215.653 806.947 215.582C806.948 215.511 806.966 215.442 807 215.38C815.03 201.31 831.57 190.89 845.09 182.85C845.377 182.683 845.577 182.44 845.69 182.12C847.98 175.69 842.87 170.51 837.23 168.7C833.94 167.65 828.11 167.82 825.04 168.06C806.48 169.52 812.76 192.79 800.23 202.26C798.22 203.77 795.27 204.97 792.74 206.13C792.373 206.297 792.22 206.58 792.28 206.98L793.48 214.32C793.553 214.747 793.373 214.96 792.94 214.96L778.06 214.95C777.72 214.95 777.553 214.78 777.56 214.44C777.887 202.287 779.937 190.473 783.71 179C784.277 177.28 784.61 175.53 784.71 173.75" stroke="#E30002" stroke-width="2"/>
<path d="M784.71 173.75C785.65 168.39 784.176 163.89 780.29 160.25" stroke="#E30002" stroke-width="2"/>
<path d="M780.29 160.25C771.89 155.49 758.88 155.67 751.21 161.67C743.86 167.42 745.75 176.53 750.56 182.95C757.8 192.597 762.006 203.297 763.18 215.05C763.213 215.357 763.076 215.53 762.77 215.57L749.98 217.23C749.48 217.297 749.226 217.077 749.22 216.57L749.09 203.21C749.083 202.777 748.863 202.533 748.43 202.48C736.77 201.08 730.88 193.59 724.13 185.37C720.843 181.37 716.873 179.103 712.22 178.57C705.67 177.82 695.49 180.06 690.26 184.73C686.32 188.26 688.07 194.06 693.44 194.66C697.93 195.16 702.58 195.52 706.67 197.05C717.21 200.99 725.136 208.243 730.45 218.81C734.97 227.803 738.366 236.773 740.64 245.72C744.17 259.61 749.71 270.61 759.46 281.25" stroke="#E30002" stroke-width="2"/>
<path d="M780.29 160.25L783.45 173.08C783.55 173.467 783.8 173.677 784.2 173.71L784.71 173.75M834.25 218.29L832.84 218.26C832.513 218.253 832.217 218.35 831.95 218.55C829.437 220.463 827.057 222.543 824.81 224.79C823.47 226.13 823.69 227.42 824.79 228.75M801 270.21C804.06 272.52 808.08 277.34 807.53 281.28C807.47 281.693 807.64 281.837 808.04 281.71L808.71 281.5M764.23 286.21C762.896 282.983 761.57 279.76 760.25 276.54C760.15 276.307 759.91 276.217 759.53 276.27C759.177 276.31 759.08 276.49 759.24 276.81C759.987 278.29 760.06 279.77 759.46 281.25" stroke="#FFEF9B" stroke-width="2"/>
<path d="M108.38 369.25C114.55 369.07 121.47 370.61 128.99 373.37C129.323 373.497 129.543 373.387 129.65 373.04C136.58 350.13 155.78 333.04 177.56 324.48C178.987 323.92 180.033 323.137 180.7 322.13C185.74 314.54 180.43 303.64 171.49 303.5C169.117 303.467 166.277 304.283 162.97 305.95C137.99 318.58 114.11 340.27 107.85 368.62C107.757 369.053 107.933 369.263 108.38 369.25ZM764.49 339.53C762.223 332.703 759.28 325.887 755.66 319.08C748.5 305.6 738.7 319.94 738.08 327.77C737.953 329.45 738.427 331.54 739.5 334.04C744.473 345.607 749.37 355.353 754.19 363.28C758.55 370.46 769.54 384.58 777.01 384.77C796.66 385.26 796.75 327.68 796.18 316.58C796.16 316.22 795.977 316.09 795.63 316.19C785.643 318.903 775.633 319.007 765.6 316.5C765.2 316.4 765 316.557 765 316.97V339.44C765 340.507 764.83 340.537 764.49 339.53Z" stroke="#E30002" stroke-width="2"/>
<path d="M93.7799 413.9C91.9399 419.69 84.2899 425.45 79.6399 428.3C79.3599 428.467 79.2032 428.713 79.1699 429.04C78.6799 433.43 79.1499 437.89 79.7999 442.24C79.8532 442.58 79.7866 442.893 79.5999 443.18C72.3199 454.52 64.9832 465.82 57.5899 477.08C51.9899 485.62 45.4999 499.05 52.2799 508.34C59.3499 518.02 70.3099 504.88 72.7599 498.75C77.6866 486.39 82.4765 472.56 87.1299 457.26C87.7099 455.34 87.3999 453.27 87.5199 451.21C87.5465 450.777 87.7666 450.63 88.1799 450.77L103.94 456.14C104.28 456.26 104.357 456.477 104.17 456.79C102.597 459.403 101.537 462.223 100.99 465.25C98.3232 480.077 95.6099 494.89 92.8499 509.69C88.9599 530.54 107.38 528.46 113.52 514.2C120.353 498.32 121.72 481.69 117.62 464.31C117.18 462.42 116.5 460.82 115.18 459.58C115.078 459.486 115.006 459.363 114.972 459.228C114.939 459.093 114.947 458.951 114.993 458.82C115.04 458.689 115.125 458.574 115.236 458.491C115.347 458.407 115.481 458.358 115.62 458.35L134.06 457.16C134.119 457.155 134.178 457.165 134.232 457.189C134.286 457.213 134.334 457.25 134.37 457.298C134.407 457.345 134.431 457.401 134.442 457.461C134.452 457.521 134.448 457.582 134.43 457.64C132.51 463.72 132.47 468.67 133.77 475.28C135.45 483.81 137.5 498.69 147.43 501.82C148.68 502.21 149.68 501.98 150.49 500.99C160.39 488.9 151.78 469.67 145.21 458.35C143.37 455.17 143.48 452.4 145.54 450.04C151.22 443.54 152.2 440.34 153.71 432.08C154.223 429.28 154.407 427.033 154.26 425.34C153.07 411.81 139.28 400.06 127.93 394.43C127.787 394.359 127.669 394.246 127.59 394.107C127.512 393.968 127.477 393.809 127.49 393.649C127.502 393.49 127.563 393.339 127.663 393.214C127.762 393.089 127.897 392.997 128.05 392.95C131.297 391.923 134.523 392.043 137.73 393.31C137.819 393.347 137.917 393.354 138.009 393.329C138.102 393.304 138.184 393.249 138.242 393.172C138.301 393.095 138.334 393.001 138.335 392.903C138.336 392.805 138.307 392.709 138.25 392.63C129.83 381.07 112.5 378.01 99.2899 380.41C95.7099 381.07 88.4899 383.93 90.6999 388.72C90.8599 389.067 91.1199 389.173 91.4799 389.04C97.6599 386.7 103.82 386.75 109.96 389.19C110.167 389.271 110.345 389.41 110.473 389.592C110.601 389.773 110.672 389.988 110.679 390.21C110.685 390.432 110.626 390.651 110.509 390.839C110.392 391.028 110.222 391.178 110.02 391.27C91.0699 400.11 75.2599 408.34 52.9899 409.08C49.2832 409.2 45.4866 409.39 41.5999 409.65C41.2266 409.677 41.0499 409.877 41.0699 410.25C41.3832 416.47 44.5099 420.683 50.4499 422.89C64.8099 428.21 81.5199 422.08 93.3099 413.56C93.8099 413.2 93.9666 413.313 93.7799 413.9Z" stroke="#E30002" stroke-width="2"/>
<path d="M583.21 597.87L745.98 598.92C746.573 598.927 746.75 598.66 746.51 598.12C727.99 555.54 675.39 535.39 633.89 557.14C629.51 559.44 627.66 564.21 626.57 568.77C626.545 568.874 626.5 568.972 626.438 569.058C626.375 569.145 626.296 569.218 626.205 569.274C626.114 569.33 626.012 569.367 625.907 569.383C625.801 569.4 625.694 569.395 625.59 569.37L612.53 566.17C612.077 566.063 611.903 565.783 612.01 565.33C613.297 559.563 613.713 555.037 613.26 551.75C608.947 520.537 601.613 490.073 591.26 460.36C588.17 451.48 583 437.85 572.66 436.93C561.43 435.94 561.22 452.4 562.36 459.33C562.907 462.663 564.313 468.847 566.58 477.88C576.36 516.89 581.53 557.09 582.69 597.36C582.703 597.693 582.877 597.863 583.21 597.87ZM330.02 574.43C329.9 574.443 329.778 574.43 329.663 574.392C329.548 574.355 329.442 574.293 329.353 574.212C329.263 574.131 329.192 574.032 329.143 573.921C329.094 573.811 329.069 573.691 329.07 573.57C329.09 564.96 325.05 557.68 316.83 554.86C276.22 540.9 219.92 560.1 201.1 600.15C200.92 600.537 201.043 600.73 201.47 600.73C254.143 600.777 306.82 600.777 359.5 600.73C362.77 600.73 366.59 600.18 370.19 600.25C370.537 600.257 370.713 600.087 370.72 599.74C370.98 590.92 370.96 581.68 371.58 573.37C374.007 540.783 379.863 508.82 389.15 477.48C391.07 470.99 394.37 460.28 391.76 454.23C384.89 438.34 366.33 451.81 360.98 461.27C360.287 462.49 359.45 464.39 358.47 466.97C356.55 471.99 354.38 476.55 353.09 481.59C349 497.51 344.25 514.9 343.35 530.95C342.577 544.697 343.49 558.397 346.09 572.05C346.107 572.138 346.106 572.229 346.086 572.317C346.066 572.405 346.028 572.488 345.974 572.56C345.921 572.633 345.853 572.693 345.774 572.738C345.696 572.783 345.609 572.811 345.52 572.82L330.02 574.43ZM523.327 187.218C532.714 186.495 541.163 178.605 546.815 165.282C552.467 151.959 554.859 134.295 553.465 116.176C552.071 98.0571 547.004 80.9672 539.381 68.666C531.757 56.3648 522.2 49.8598 512.813 50.582C503.426 51.3047 494.977 59.1952 489.325 72.5179C483.673 85.8407 481.281 103.504 482.675 121.623C483.365 130.595 484.964 139.408 487.381 147.56C489.797 155.712 492.984 163.043 496.759 169.134C500.534 175.225 504.823 179.957 509.382 183.06C513.94 186.163 518.679 187.576 523.327 187.218ZM391.759 197.194C396.622 196.862 401.319 194.793 405.582 191.104C409.845 187.415 413.589 182.178 416.602 175.693C419.615 169.208 421.837 161.601 423.141 153.307C424.445 145.013 424.807 136.195 424.204 127.355C422.987 109.502 417.918 92.6468 410.112 80.4965C402.306 68.3462 392.403 61.8964 382.581 62.566C377.717 62.8976 373.02 64.967 368.758 68.6562C364.495 72.3454 360.751 77.5821 357.738 84.0672C354.725 90.5524 352.503 98.159 351.199 106.453C349.894 114.747 349.533 123.565 350.136 132.405C351.353 150.258 356.422 167.113 364.228 179.264C372.034 191.414 381.937 197.864 391.759 197.194Z" stroke="#E30002" stroke-width="2"/>
<path d="M461.03 190.28C447.22 197.47 447.84 159.8 448.1 155.65C448.113 155.397 447.993 155.273 447.74 155.28L435.16 155.85C434.193 155.897 433.75 156.403 433.83 157.37C435.1 172 439.23 194.67 451.23 203.84C455.63 207.2 460.92 208.66 465.49 205.24C479.1 195.06 479.51 170.46 478.9 154.33C478.887 154.017 478.72 153.867 478.4 153.88L464.54 154.68C464.18 154.707 464.063 154.89 464.19 155.23C466.8 162.56 468.71 186.29 461.03 190.28ZM565.87 187.89C585.08 197.73 602.24 220.99 604.28 242.66C604.285 242.713 604.302 242.764 604.329 242.81C604.356 242.856 604.393 242.895 604.437 242.925C604.48 242.956 604.53 242.976 604.582 242.986C604.635 242.995 604.688 242.993 604.74 242.98L618.78 239.4C619.213 239.287 619.347 239.023 619.18 238.61C612.24 221.25 601.87 205.52 589.61 190.1C584.797 184.053 580.213 179.063 575.86 175.13C575.52 174.823 575.213 174.853 574.94 175.22L565.73 187.3C565.694 187.346 565.67 187.399 565.657 187.456C565.645 187.513 565.646 187.572 565.659 187.628C565.673 187.685 565.698 187.738 565.735 187.783C565.771 187.828 565.817 187.865 565.87 187.89ZM296.24 230.93L305.45 235.06C305.85 235.24 306.123 235.123 306.27 234.71C310.89 221.83 327.54 204.73 341.15 202.61C341.59 202.543 341.717 202.31 341.53 201.91L336.34 190.77C336.14 190.337 335.823 190.223 335.39 190.43C322.12 196.78 300.99 216.06 295.86 230.02C295.707 230.44 295.833 230.743 296.24 230.93Z" stroke="#E30002" stroke-width="2"/>
<path d="M321.26 290.38C329.64 301.33 344.13 310.28 356.94 316.03C383.153 327.79 410.837 334.39 439.99 335.83C452.11 336.43 469.4 334.92 487.27 332.95C504.89 331 524.92 324.31 538.92 317.66C565.24 305.16 591.47 282.76 591.37 250.97C591.31 231.88 581.21 210.2 563.18 201.8C545.45 193.54 523.05 200.74 508.76 212.84C495.22 224.32 483.78 234.96 466.14 237.37C446.03 240.12 427.14 233.34 408.87 225.76C391.93 218.72 375.41 212.58 356.87 211.44C353.297 211.22 349.937 211.52 346.79 212.34C326.49 217.62 313.67 231.42 310 252.07C307.66 265.27 313.36 280.04 321.26 290.38Z" stroke="#E30002" stroke-width="2"/>
<path d="M513.35 173.41C523.39 182.13 532.44 172.65 536.45 163.66C536.48 163.592 536.495 163.519 536.493 163.445C536.492 163.371 536.474 163.298 536.442 163.231C536.41 163.165 536.363 163.106 536.306 163.059C536.248 163.012 536.182 162.978 536.11 162.96C525.66 160.25 518.99 153.01 516.11 142.66C512.69 130.41 517.11 119.02 525.99 109.84C526.243 109.58 526.206 109.37 525.88 109.21C518.82 105.75 514.09 102.86 512.46 94.52C510.38 83.8 513.63 71.61 523.59 65.87C523.883 65.6966 523.906 65.49 523.66 65.25C516.63 58.34 509.19 60.38 503.82 67.35C485.46 91.17 490.09 153.2 513.35 173.41Z" stroke="#E30002" stroke-width="2"/>
<path d="M387.54 123.25L392.64 118.73C392.92 118.483 392.896 118.273 392.57 118.1L386.51 114.93" stroke="#E30002" stroke-width="2"/>
<path d="M386.51 114.93C381.27 111.11 378.647 106.157 378.64 100.07C378.62 90.16 386.08 83.16 393.19 77.15C393.463 76.9233 393.463 76.6967 393.19 76.47C376.79 63.26 365.34 88.78 362.76 100.5C357.35 125.06 359.87 164.87 380.68 183.01C389.67 190.84 399.38 185.42 404.62 176.4C404.827 176.033 404.723 175.83 404.31 175.79C395.09 174.797 388.417 170.537 384.29 163.01C376.643 149.083 377.727 135.83 387.54 123.25" stroke="#E30002" stroke-width="2"/>
<path d="M386.51 114.93C385.617 117.857 385.96 120.63 387.54 123.25M369.233 117.972C369.237 117.9 369.212 117.83 369.164 117.777C369.116 117.724 369.049 117.692 368.978 117.688L368.918 117.685C368.846 117.681 368.776 117.706 368.723 117.754C368.67 117.801 368.638 117.868 368.634 117.94L368.167 126.848C368.165 126.883 368.17 126.919 368.182 126.952C368.194 126.986 368.212 127.017 368.236 127.043C368.26 127.069 368.288 127.091 368.321 127.106C368.353 127.121 368.387 127.13 368.423 127.132L368.483 127.135C368.554 127.138 368.624 127.114 368.677 127.066C368.73 127.018 368.762 126.951 368.766 126.88L369.233 117.972ZM703.6 191.49L703.66 191.1C703.687 190.9 703.607 190.763 703.42 190.69C702.987 190.517 702.597 190.46 702.25 190.52C701.923 190.573 701.813 190.76 701.92 191.08C702.113 191.647 702.457 191.957 702.95 192.01C703.33 192.043 703.547 191.87 703.6 191.49Z" stroke="#FFEF9B" stroke-width="2"/>
<path d="M536.2 211.08L580.55 248.47C580.59 248.503 580.639 248.523 580.691 248.529C580.742 248.535 580.794 248.525 580.841 248.502C580.887 248.479 580.926 248.443 580.953 248.398C580.979 248.353 580.992 248.302 580.99 248.25C580.537 238.197 577.237 229.253 571.09 221.42C561.58 209.28 550.94 206.86 536.14 209.77C535.974 209.803 535.825 209.893 535.719 210.025C535.613 210.156 535.557 210.321 535.56 210.49C535.567 210.77 535.677 210.923 535.89 210.95C536.003 210.957 536.107 211 536.2 211.08ZM577.8 259.51C560.5 245.01 542.927 230.23 525.08 215.17C524.573 214.743 524.037 214.7 523.47 215.04C518.17 218.22 513.327 221.987 508.94 226.34C508.667 226.607 508.633 226.9 508.84 227.22L553.18 296.55C553.36 296.823 553.587 296.87 553.86 296.69C566.073 288.563 574.667 277.48 579.64 263.44C580.56 260.85 579.33 260.79 577.8 259.51ZM368.27 223.04C361.98 221.98 354.23 220.82 348.26 222.61C338.99 225.4 331.85 229.18 326.56 237.49C316.19 253.77 318.55 269.46 329.52 284.5C329.913 285.04 330.283 285.027 330.63 284.46L368.45 223.46C368.597 223.227 368.537 223.087 368.27 223.04ZM338.54 293.25C350.82 302.243 364.223 309.027 378.75 313.6C379.097 313.707 379.327 313.59 379.44 313.25L404.58 235.59C404.72 235.15 404.573 234.847 404.14 234.68L379.99 225.66C379.815 225.595 379.623 225.592 379.446 225.652C379.269 225.712 379.119 225.832 379.02 225.99L338.23 291.67C337.843 292.29 337.947 292.817 338.54 293.25ZM501.59 320.15C515.6 316.35 532.16 310.78 544.51 303.13C544.843 302.917 544.903 302.643 544.69 302.31L500.91 233.84C500.71 233.527 500.457 233.477 500.15 233.69C493.437 238.317 486.283 242.107 478.69 245.06C478.363 245.187 478.25 245.417 478.35 245.75L500.8 319.71C500.852 319.873 500.963 320.011 501.111 320.093C501.258 320.175 501.43 320.195 501.59 320.15ZM389.5 317.03C402.453 320.85 415.637 323.47 429.05 324.89C429.136 324.9 429.222 324.892 429.305 324.867C429.388 324.843 429.464 324.801 429.531 324.746C429.597 324.691 429.651 324.623 429.691 324.547C429.73 324.47 429.754 324.386 429.76 324.3L436.21 246.65C436.22 246.522 436.187 246.395 436.116 246.289C436.045 246.184 435.941 246.106 435.82 246.07L414.58 239.64C414.273 239.547 414.07 239.653 413.97 239.96L389.23 316.51C389.213 316.562 389.206 316.617 389.211 316.671C389.215 316.725 389.23 316.778 389.256 316.827C389.281 316.875 389.315 316.918 389.357 316.953C389.399 316.988 389.448 317.014 389.5 317.03ZM453.01 248.11C450.957 247.93 448.91 247.82 446.87 247.78C446.55 247.773 446.377 247.93 446.35 248.25L440.01 324.53C439.977 324.95 440.167 325.167 440.58 325.18C457.207 325.647 473.73 324.597 490.15 322.03C490.53 321.97 490.663 321.757 490.55 321.39L468.39 248.25C468.283 247.903 468.05 247.743 467.69 247.77C462.68 248.19 458.21 248.56 453.01 248.11Z" stroke="#E30002" stroke-width="2"/>
<path d="M760.44 609H686.19C648.87 608.34 611.193 608.103 573.16 608.29C573.03 608.291 572.901 608.267 572.781 608.217C572.661 608.168 572.552 608.095 572.461 608.003C572.369 607.91 572.297 607.8 572.249 607.68C572.201 607.559 572.177 607.43 572.18 607.3C572.433 594.147 572.02 580.96 570.94 567.74C568.487 537.587 563.62 507.833 556.34 478.48C552.993 464.993 548.617 452.437 543.21 440.81C541.517 437.157 539.087 433.62 535.92 430.2C535.68 429.94 535.393 429.873 535.06 430C521.21 435.24 507.17 443.59 496.17 453.53C488.59 460.37 476.86 461.4 468.54 455.58C455.81 446.67 438.06 441.34 422.96 438.15C421.86 437.917 420.817 437.53 419.83 436.99C419.406 436.757 418.908 436.697 418.442 436.822C417.976 436.946 417.577 437.247 417.33 437.66C398.96 468.39 390.73 507.17 385.37 542.12C382.037 563.9 380.587 585.837 381.02 607.93C381.027 608.27 380.863 608.46 380.53 608.5L375.69 609H187.44C189.747 598.593 194.213 589.2 200.84 580.82C229.87 544.13 286.91 528.47 329.77 548.96C329.798 548.975 329.83 548.983 329.863 548.983C329.895 548.982 329.926 548.974 329.954 548.958C329.983 548.942 330.006 548.919 330.023 548.891C330.039 548.864 330.049 548.832 330.05 548.8C333.87 510.41 342.85 470.51 359.93 435.7C359.966 435.627 359.981 435.545 359.974 435.464C359.968 435.382 359.939 435.304 359.891 435.237C359.843 435.17 359.778 435.116 359.702 435.081C359.627 435.047 359.543 435.033 359.46 435.04C323.44 438.88 286.39 456.99 269.64 490.21C269.621 490.248 269.591 490.279 269.553 490.299C269.516 490.32 269.474 490.328 269.431 490.324C269.389 490.32 269.349 490.303 269.317 490.275C269.284 490.248 269.261 490.211 269.25 490.17C266.337 478.61 264.44 466.883 263.56 454.99C263.556 454.94 263.538 454.891 263.508 454.851C263.479 454.81 263.438 454.779 263.391 454.76C263.344 454.741 263.293 454.736 263.243 454.745C263.194 454.754 263.148 454.776 263.11 454.81C253.29 463.5 248.89 474.22 246.76 486.96C246.751 487.037 246.717 487.108 246.662 487.163C246.607 487.217 246.535 487.251 246.458 487.26C246.381 487.268 246.304 487.249 246.239 487.208C246.174 487.166 246.125 487.103 246.1 487.03C244.647 483.283 243.31 479.51 242.09 475.71C238.78 465.44 236.83 454.34 234.84 443.65C234.773 443.29 234.583 443.207 234.27 443.4C225.137 449.08 217.24 456.143 210.58 464.59C210.522 464.667 210.443 464.725 210.353 464.756C210.262 464.787 210.164 464.791 210.07 464.767C209.977 464.742 209.892 464.69 209.826 464.618C209.76 464.546 209.716 464.456 209.7 464.36C208.113 454.5 206.8 444.637 205.76 434.77C202.147 400.33 198.493 365.737 194.8 330.99C194.791 330.906 194.764 330.824 194.721 330.751C194.678 330.677 194.621 330.614 194.552 330.564C194.483 330.514 194.405 330.479 194.322 330.461C194.239 330.443 194.153 330.443 194.07 330.46C169.56 335.6 145.32 352.88 139.04 378.17C139.004 378.312 139.012 378.461 139.062 378.598C139.112 378.735 139.202 378.854 139.32 378.94C145.38 383.33 150.08 389.95 148.78 397.84C148.727 398.18 148.833 398.457 149.1 398.67C165.52 411.75 169.21 438.5 155.33 454.73C155.25 454.824 155.201 454.939 155.189 455.062C155.176 455.186 155.201 455.31 155.26 455.42C163.86 470.75 170.68 490.62 159.25 506.52C150.17 519.17 135.05 509.34 129.99 498.81C129.523 497.837 129.197 497.88 129.01 498.94C127.897 505.32 125.903 511.753 123.03 518.24C118.55 528.35 106.44 539.25 94.6101 534.97C84.8401 531.44 81.1301 521.01 82.0101 511.24C82.2368 508.74 83.1768 504.34 84.8301 498.04C84.9101 497.727 84.7934 497.613 84.4801 497.7C84.2268 497.773 84.0601 497.947 83.9801 498.22C80.8701 508.59 72.3401 520.14 61.0501 521.78C52.5201 523.01 45.5701 518.6 41.7401 510.93C35.2801 498 41.2201 483.53 48.3201 472.44C55.0468 461.933 61.8767 451.487 68.8101 441.1C68.9967 440.82 69.0801 440.513 69.0601 440.18L68.7101 433.51C68.6901 433.083 68.4701 432.923 68.0501 433.03C53.6401 436.84 37.0101 432.51 31.7801 417.29C30.2901 412.97 30.1401 403.76 33.7601 400.73C37.4501 397.65 51.2001 399.21 56.1301 398.77C64.5501 398.017 72.7368 396.18 80.6901 393.26C81.0501 393.127 81.1634 392.88 81.0301 392.52C76.8501 381.12 85.7701 372.84 96.1701 370.55C96.5301 370.477 96.7501 370.257 96.8301 369.89C106.45 325.2 147.01 295.84 189.28 285.22C189.62 285.133 189.77 284.917 189.73 284.57C183.83 229.863 177.92 175.177 172 120.51C170.647 108.03 169.583 98.5434 168.81 92.05C168.27 87.5434 168.197 83.7867 168.59 80.78C175.04 30.88 239.14 10.08 280.77 5.06003C287.27 4.27336 292.49 3.91003 296.43 3.97003C297.59 3.99003 298.71 3.28003 299.81 3.28003C306.52 3.24003 313.57 2.77004 320.2 3.79004C323.98 4.37004 327.85 3.71003 331.79 4.37003C336.32 5.12003 341.11 5.62002 345.74 6.27002C380 11.06 424.02 26.32 446.22 54.57C451.81 61.68 460.97 57.43 465.38 51.64C503 2.28005 571.22 -9.84998 628.03 6.96002C657.603 15.7067 682.723 31.3934 703.39 54.02C703.45 54.0868 703.524 54.14 703.606 54.176C703.689 54.212 703.778 54.2302 703.869 54.2293C703.96 54.2283 704.049 54.2083 704.132 54.1705C704.215 54.1328 704.289 54.0781 704.35 54.01C718.7 37.57 739.05 25.41 760.93 22.86C762.7 22.66 764.29 22.06 766.05 21.99C818.23 19.69 859.01 57.79 866.75 108C870.283 130.907 866.75 152.87 856.15 173.89C856.01 174.17 855.98 174.46 856.06 174.76C857.6 180.333 856.567 185.29 852.96 189.63C852.74 189.903 852.777 190.137 853.07 190.33C861.503 195.963 865.097 203.957 863.85 214.31C863.823 214.548 863.735 214.776 863.595 214.972C863.455 215.168 863.268 215.325 863.05 215.43C858.12 217.81 851.96 219.38 847.85 221.63C841.82 224.93 834.82 230.57 832.44 237.29C830.673 242.283 827.73 246.423 823.61 249.71C818.71 253.63 812.98 253.58 809.63 259.73C809.463 260.037 809.51 260.303 809.77 260.53C823.63 272.62 821.7 292.12 806.64 302.21C806.428 302.352 806.257 302.549 806.146 302.779C806.035 303.009 805.988 303.265 806.01 303.52C807.7 323.97 809.25 384.94 783.97 394.06C761.33 402.23 740.43 362 733.68 346.48C733.644 346.393 733.579 346.321 733.496 346.277C733.412 346.233 733.316 346.22 733.223 346.24C733.131 346.261 733.049 346.313 732.992 346.388C732.935 346.463 732.906 346.556 732.91 346.65C733.36 380.63 734.37 414.58 734.22 448.58C734.219 448.643 734.197 448.705 734.159 448.756C734.12 448.807 734.066 448.844 734.006 448.861C733.945 448.878 733.881 448.875 733.824 448.851C733.767 448.827 733.72 448.785 733.69 448.73C727.17 438.117 719.357 428.547 710.25 420.02C710.21 419.979 710.159 419.952 710.103 419.941C710.047 419.93 709.99 419.936 709.937 419.959C709.885 419.982 709.841 420.02 709.811 420.068C709.782 420.117 709.767 420.173 709.77 420.23C709.81 424.99 709.18 429.57 709.48 434.24C709.947 441.613 709.917 448.917 709.39 456.15C709.382 456.216 709.354 456.278 709.309 456.327C709.265 456.376 709.206 456.41 709.141 456.424C709.076 456.439 709.009 456.432 708.948 456.407C708.887 456.381 708.835 456.337 708.8 456.28C703.25 446.49 695.61 440.47 685.9 434.97C685.587 434.79 685.403 434.88 685.35 435.24C685.123 436.733 685.093 437.99 685.26 439.01C686.473 446.683 686.18 454.303 684.38 461.87C684.28 462.303 684.067 462.37 683.74 462.07C681.69 460.18 680 458.16 677.75 456.68C650.74 438.87 619.9 426.52 587.45 423.71C587.369 423.705 587.287 423.721 587.214 423.757C587.141 423.793 587.079 423.848 587.034 423.916C586.99 423.985 586.964 424.064 586.959 424.145C586.955 424.226 586.973 424.308 587.01 424.38C591.883 433.593 596.087 443.147 599.62 453.04C610.067 482.313 617.687 512.3 622.48 543C622.74 544.69 622.97 547.99 623.36 550.49C623.44 550.97 623.69 551.087 624.11 550.84C676.42 519.72 746.26 548.56 760.53 608.17C760.57 608.357 760.563 608.54 760.51 608.72C760.483 608.8 760.46 608.893 760.44 609ZM472.89 362.39C476.01 376.45 479.273 390.727 482.68 405.22C487 423.63 500.71 427.13 517.26 422.17C522.46 420.61 528.07 417.27 533.2 414.45C572.86 392.64 622.19 379.11 667.51 387.72C689.33 391.86 709.32 402.16 723.21 419.88C723.263 419.947 723.336 419.995 723.418 420.018C723.5 420.041 723.587 420.039 723.668 420.01C723.748 419.981 723.817 419.928 723.866 419.859C723.915 419.789 723.941 419.705 723.94 419.62C723.39 383.33 722.39 346.94 722.08 310.56C721.83 281.44 720.21 252.38 719.68 223.27C719.52 214.32 709.17 208.19 701.73 206.26C698.13 205.32 692.65 205.32 689.46 204.35C682.34 202.183 678.483 197.52 677.89 190.36C677.22 182.18 683.54 175.57 690.53 172.37C690.877 172.21 690.967 171.963 690.8 171.63C673.91 136.92 675.52 95.98 697.22 63.43C697.286 63.3296 697.317 63.2097 697.308 63.0887C697.299 62.9677 697.251 62.8522 697.17 62.76C648.25 6.81004 557.17 -8.86997 495.43 36.09C486.8 42.37 479.15 48.66 473.59 56.83C463.837 71.1367 458.24 87.0234 456.8 104.49C456.803 104.628 456.75 104.761 456.655 104.861C456.559 104.96 456.428 105.017 456.29 105.02C456.152 105.023 456.019 104.97 455.919 104.875C455.82 104.779 455.763 104.648 455.76 104.51C454.1 90.21 449.3 72.2 439.17 61.31C398.95 18.08 327.72 8.00004 272.35 16.54C271.877 16.6134 271.663 16.8867 271.71 17.36L291.12 233.69C291.13 233.8 291.106 233.91 291.049 234.004C290.993 234.099 290.908 234.173 290.807 234.217C290.706 234.26 290.594 234.27 290.486 234.246C290.379 234.221 290.282 234.163 290.21 234.08L259.65 199C259.377 198.68 259.16 198.717 259 199.11L242.68 239.29C242.007 240.943 241.477 240.9 241.09 239.16L198.6 48.78C198.513 48.3867 198.317 48.32 198.01 48.58C186.41 58.36 177.35 73.68 179.06 89.44C191.78 207.147 204.5 324.863 217.22 442.59C217.224 442.622 217.236 442.652 217.255 442.677C217.275 442.703 217.3 442.723 217.33 442.735C217.359 442.747 217.392 442.751 217.423 442.747C217.455 442.742 217.485 442.73 217.51 442.71C276.69 396.7 358.37 383.97 427.39 415.15C438.88 420.34 458.9 428.45 467.08 413.31C468.127 411.383 468.787 408.41 469.06 404.39C470.013 390.477 471.073 376.49 472.24 362.43C472.248 362.352 472.283 362.28 472.34 362.226C472.396 362.171 472.47 362.139 472.548 362.134C472.626 362.129 472.703 362.152 472.766 362.199C472.829 362.246 472.873 362.314 472.89 362.39ZM747.9 36.95C764.58 45.1634 781.29 45.1934 798.03 37.04C798.091 37.01 798.142 36.9623 798.175 36.9031C798.209 36.8439 798.224 36.776 798.219 36.7081C798.213 36.6402 798.188 36.5755 798.145 36.5223C798.103 36.4692 798.045 36.4301 797.98 36.41C781.3 31.05 764.62 31.0367 747.94 36.37C747.447 36.53 747.433 36.7234 747.9 36.95ZM827.91 81.63C830.823 92.6834 832.93 103.81 834.23 115.01C834.27 115.337 834.433 115.423 834.72 115.27C838.593 113.257 842.117 110.75 845.29 107.75C848.99 104.62 854.19 98.22 852.43 93.04C844.87 70.7734 830.98 53.7634 810.76 42.01C809.39 41.21 808.14 41.31 807.46 42.81C807.327 43.1034 807.37 43.3667 807.59 43.6C817.86 54.65 823.15 67.6 827.91 81.63ZM698.5 108.04C702.16 112.127 706.507 115.443 711.54 117.99C711.88 118.163 712.08 118.063 712.14 117.69C714.413 102.37 718.603 87.4734 724.71 73C729.203 63.36 734.49 54.16 740.57 45.4C740.823 45.04 740.77 44.7367 740.41 44.49L736.5 41.72C736.173 41.4934 735.84 41.48 735.5 41.68C714.973 53.6934 701.16 70.97 694.06 93.51C692.43 98.66 695.23 104.15 698.5 108.04ZM780.29 57L781.02 128.95C781.027 129.283 781.197 129.44 781.53 129.42C796.063 128.48 810.17 125.523 823.85 120.55C823.938 120.515 824.012 120.454 824.064 120.376C824.116 120.297 824.143 120.204 824.14 120.11C823.14 101.93 818.927 84.5467 811.5 67.96C808.453 60.68 804.023 54.35 798.21 48.97C797.937 48.7167 797.627 48.6567 797.28 48.79C791.973 50.8234 786.507 52.2334 780.88 53.02C780.487 53.0734 780.29 53.3 780.29 53.7V57ZM741.95 62.36C731.157 80.8067 724.54 100.653 722.1 121.9C722.075 122.132 722.132 122.365 722.259 122.56C722.387 122.755 722.578 122.9 722.8 122.97C738.367 127.83 754.33 130.167 770.69 129.98C770.73 129.98 770.77 129.972 770.807 129.956C770.844 129.941 770.878 129.918 770.906 129.889C770.934 129.86 770.956 129.825 770.97 129.788C770.985 129.75 770.991 129.71 770.99 129.67C770.87 119.57 770.23 109.11 770.26 99.43C770.307 85.2834 770.207 71.14 769.96 57C770.173 55.9067 770.15 54.8034 769.89 53.69C769.803 53.3034 769.56 53.1034 769.16 53.09C762.9 52.91 756.837 51.73 750.97 49.55C750.643 49.43 750.377 49.5067 750.17 49.78C747.157 53.7534 744.417 57.9467 741.95 62.36ZM847.75 119.29C843.87 122.003 839.887 124.383 835.8 126.43C835.506 126.579 835.265 126.815 835.11 127.107C834.954 127.398 834.891 127.731 834.93 128.06C836.1 137.91 834.96 147.33 834.8 157.14C834.793 157.493 834.967 157.693 835.32 157.74C839.507 158.3 843.317 159.707 846.75 161.96L849.14 163.7C849.192 163.738 849.251 163.764 849.314 163.776C849.377 163.788 849.442 163.785 849.504 163.767C849.566 163.75 849.623 163.719 849.671 163.676C849.719 163.633 849.756 163.58 849.78 163.52C856.687 146.867 859.03 129.527 856.81 111.5C856.803 111.443 856.781 111.389 856.745 111.344C856.71 111.299 856.662 111.265 856.609 111.245C856.555 111.225 856.496 111.221 856.44 111.232C856.384 111.244 856.332 111.271 856.29 111.31L847.75 119.29ZM700.46 168C700.61 168.75 701.26 169.08 702.01 168.92C705.677 168.133 709.463 167.88 713.37 168.16C713.717 168.187 713.853 168.027 713.78 167.68C711.127 155.18 710.19 142.55 710.97 129.79C710.99 129.417 710.833 129.153 710.5 129C705.193 126.493 700.29 123.493 695.79 120L690.62 114.83C690.32 114.53 690.15 114.59 690.11 115.01C688.45 133.71 691.9 151.373 700.46 168ZM781.78 149.44C790.97 153.17 795.56 162.62 795.34 171.97C795.19 178.42 791.97 187.08 789.98 194.2C789.673 195.287 790.077 195.73 791.19 195.53C797.21 194.45 799.21 184.37 800.66 179.42C804.19 167.31 810.05 159.6 823.57 157.82C823.923 157.773 824.117 157.57 824.15 157.21C824.963 148.663 825.223 140.103 824.93 131.53C824.923 131.217 824.77 131.11 824.47 131.21C810.583 136.043 796.293 138.887 781.6 139.74C781.419 139.75 781.249 139.833 781.127 139.969C781.005 140.106 780.942 140.286 780.95 140.47L781.31 148.76C781.323 149.087 781.48 149.313 781.78 149.44ZM725.27 171.59C725.79 173.5 728.88 175.45 730.91 177.5C734.61 181.23 737.58 185.59 741.59 189.3C741.661 189.371 741.756 189.412 741.855 189.415C741.955 189.418 742.053 189.382 742.127 189.316C742.202 189.249 742.247 189.156 742.255 189.056C742.263 188.957 742.233 188.858 742.17 188.78C730.54 172.8 736.08 153.45 755.49 148.22C759.997 147.007 764.94 146.503 770.32 146.71C770.773 146.723 771 146.507 771 146.06V141.06C771 140.693 770.82 140.503 770.46 140.49C753.4 139.62 738.04 138.41 721.59 133.38C721.277 133.287 721.113 133.403 721.1 133.73C720.487 146.643 721.877 159.263 725.27 171.59ZM759.46 281.25C760.633 283.17 762.223 284.823 764.23 286.21L767.16 289.79C767.487 290.19 767.423 290.263 766.97 290.01C759.417 285.883 752.603 280.763 746.53 274.65C746.27 274.39 746.077 274.43 745.95 274.77C742.52 284.05 749.78 292.04 757.61 295.91C769.537 301.81 782.007 302.137 795.02 296.89C801.76 294.17 807.78 289.14 808.71 281.5C808.837 276.093 806.78 271.79 802.54 268.59C802.213 268.35 801.957 268.407 801.77 268.76L801 270.21L792.54 286.36C792.253 286.907 792.163 286.873 792.27 286.26C794.483 273.14 799.1 260.957 806.12 249.71C810.24 243.1 818.6 243.59 821.19 236.69C822.537 233.123 823.737 230.477 824.79 228.75C827.497 224.863 830.65 221.377 834.25 218.29C839.797 213.61 846.173 210.473 853.38 208.88C853.446 208.866 853.508 208.839 853.562 208.8C853.617 208.762 853.664 208.712 853.699 208.656C853.735 208.599 853.758 208.535 853.769 208.469C853.779 208.403 853.776 208.335 853.76 208.27C852.22 202.263 848.427 198.513 842.38 197.02C842.047 196.94 841.727 196.977 841.42 197.13C833.16 201.25 825.95 212.18 822.85 220.25C822.723 220.577 822.507 220.657 822.2 220.49C817.553 218.037 812.593 216.543 807.32 216.01C807.251 216.003 807.186 215.979 807.129 215.939C807.072 215.9 807.025 215.847 806.994 215.784C806.962 215.722 806.946 215.653 806.947 215.582C806.948 215.512 806.966 215.442 807 215.38C815.03 201.31 831.57 190.89 845.09 182.85C845.377 182.683 845.577 182.44 845.69 182.12C847.98 175.69 842.87 170.51 837.23 168.7C833.94 167.65 828.11 167.82 825.04 168.06C806.48 169.52 812.76 192.79 800.23 202.26C798.22 203.77 795.27 204.97 792.74 206.13C792.373 206.297 792.22 206.58 792.28 206.98L793.48 214.32C793.553 214.747 793.373 214.96 792.94 214.96L778.06 214.95C777.72 214.95 777.553 214.78 777.56 214.44C777.887 202.287 779.937 190.473 783.71 179C784.277 177.28 784.61 175.53 784.71 173.75C785.65 168.39 784.177 163.89 780.29 160.25C771.89 155.49 758.88 155.67 751.21 161.67C743.86 167.42 745.75 176.53 750.56 182.95C757.8 192.597 762.007 203.297 763.18 215.05C763.213 215.357 763.077 215.53 762.77 215.57L749.98 217.23C749.48 217.297 749.227 217.077 749.22 216.57L749.09 203.21C749.083 202.777 748.863 202.533 748.43 202.48C736.77 201.08 730.88 193.59 724.13 185.37C720.843 181.37 716.873 179.103 712.22 178.57C705.67 177.82 695.49 180.06 690.26 184.73C686.32 188.26 688.07 194.06 693.44 194.66C697.93 195.16 702.58 195.52 706.67 197.05C717.21 200.99 725.137 208.243 730.45 218.81C734.97 227.803 738.367 236.773 740.64 245.72C744.17 259.61 749.71 270.61 759.46 281.25ZM108.38 369.25C114.55 369.07 121.47 370.61 128.99 373.37C129.323 373.497 129.543 373.387 129.65 373.04C136.58 350.13 155.78 333.04 177.56 324.48C178.987 323.92 180.033 323.137 180.7 322.13C185.74 314.54 180.43 303.64 171.49 303.5C169.117 303.467 166.277 304.283 162.97 305.95C137.99 318.58 114.11 340.27 107.85 368.62C107.757 369.053 107.933 369.263 108.38 369.25ZM764.49 339.53C762.223 332.703 759.28 325.887 755.66 319.08C748.5 305.6 738.7 319.94 738.08 327.77C737.953 329.45 738.427 331.54 739.5 334.04C744.473 345.607 749.37 355.353 754.19 363.28C758.55 370.46 769.54 384.58 777.01 384.77C796.66 385.26 796.75 327.68 796.18 316.58C796.16 316.22 795.977 316.09 795.63 316.19C785.643 318.903 775.633 319.007 765.6 316.5C765.2 316.4 765 316.557 765 316.97V339.44C765 340.507 764.83 340.537 764.49 339.53ZM93.7801 413.9C91.9401 419.69 84.2901 425.45 79.6401 428.3C79.3601 428.467 79.2034 428.713 79.1701 429.04C78.6801 433.43 79.1501 437.89 79.8001 442.24C79.8534 442.58 79.7867 442.893 79.6001 443.18C72.3201 454.52 64.9834 465.82 57.5901 477.08C51.9901 485.62 45.5001 499.05 52.2801 508.34C59.3501 518.02 70.3101 504.88 72.7601 498.75C77.6868 486.39 82.4767 472.56 87.1301 457.26C87.7101 455.34 87.4001 453.27 87.5201 451.21C87.5467 450.777 87.7668 450.63 88.1801 450.77L103.94 456.14C104.28 456.26 104.357 456.477 104.17 456.79C102.597 459.403 101.537 462.223 100.99 465.25C98.3234 480.077 95.6101 494.89 92.8501 509.69C88.9601 530.54 107.38 528.46 113.52 514.2C120.353 498.32 121.72 481.69 117.62 464.31C117.18 462.42 116.5 460.82 115.18 459.58C115.078 459.486 115.006 459.363 114.973 459.228C114.939 459.093 114.947 458.951 114.994 458.82C115.041 458.689 115.125 458.574 115.236 458.491C115.348 458.407 115.481 458.358 115.62 458.35L134.06 457.16C134.119 457.155 134.178 457.165 134.232 457.189C134.286 457.213 134.334 457.25 134.37 457.298C134.407 457.345 134.432 457.401 134.442 457.461C134.452 457.521 134.448 457.582 134.43 457.64C132.51 463.72 132.47 468.67 133.77 475.28C135.45 483.81 137.5 498.69 147.43 501.82C148.68 502.21 149.68 501.98 150.49 500.99C160.39 488.9 151.78 469.67 145.21 458.35C143.37 455.17 143.48 452.4 145.54 450.04C151.22 443.54 152.2 440.34 153.71 432.08C154.223 429.28 154.407 427.033 154.26 425.34C153.07 411.81 139.28 400.06 127.93 394.43C127.787 394.359 127.669 394.246 127.59 394.107C127.512 393.968 127.477 393.809 127.49 393.649C127.503 393.49 127.563 393.339 127.663 393.214C127.763 393.089 127.898 392.997 128.05 392.95C131.297 391.923 134.523 392.043 137.73 393.31C137.819 393.347 137.917 393.354 138.009 393.329C138.102 393.304 138.184 393.249 138.243 393.172C138.301 393.095 138.334 393.001 138.335 392.903C138.337 392.805 138.307 392.709 138.25 392.63C129.83 381.07 112.5 378.01 99.2901 380.41C95.7101 381.07 88.4901 383.93 90.7001 388.72C90.8601 389.067 91.1201 389.173 91.4801 389.04C97.6601 386.7 103.82 386.75 109.96 389.19C110.167 389.271 110.345 389.41 110.473 389.592C110.601 389.773 110.672 389.988 110.679 390.21C110.685 390.432 110.626 390.651 110.509 390.839C110.392 391.028 110.222 391.178 110.02 391.27C91.0701 400.11 75.2601 408.34 52.9901 409.08C49.2834 409.2 45.4867 409.39 41.6001 409.65C41.2267 409.677 41.0501 409.877 41.0701 410.25C41.3834 416.47 44.5101 420.683 50.4501 422.89C64.8101 428.21 81.5201 422.08 93.3101 413.56C93.8101 413.2 93.9667 413.313 93.7801 413.9ZM583.21 597.87L745.98 598.92C746.573 598.927 746.75 598.66 746.51 598.12C727.99 555.54 675.39 535.39 633.89 557.14C629.51 559.44 627.66 564.21 626.57 568.77C626.545 568.874 626.5 568.972 626.438 569.058C626.375 569.145 626.296 569.218 626.205 569.274C626.114 569.33 626.013 569.367 625.907 569.383C625.802 569.4 625.694 569.395 625.59 569.37L612.53 566.17C612.077 566.063 611.903 565.783 612.01 565.33C613.297 559.563 613.713 555.037 613.26 551.75C608.947 520.537 601.613 490.073 591.26 460.36C588.17 451.48 583 437.85 572.66 436.93C561.43 435.94 561.22 452.4 562.36 459.33C562.907 462.663 564.313 468.847 566.58 477.88C576.36 516.89 581.53 557.09 582.69 597.36C582.703 597.693 582.877 597.863 583.21 597.87ZM330.02 574.43C329.9 574.443 329.778 574.43 329.663 574.392C329.548 574.355 329.443 574.293 329.353 574.212C329.263 574.131 329.192 574.032 329.143 573.921C329.094 573.811 329.069 573.691 329.07 573.57C329.09 564.96 325.05 557.68 316.83 554.86C276.22 540.9 219.92 560.1 201.1 600.15C200.92 600.537 201.043 600.73 201.47 600.73C254.143 600.777 306.82 600.777 359.5 600.73C362.77 600.73 366.59 600.18 370.19 600.25C370.537 600.257 370.713 600.087 370.72 599.74C370.98 590.92 370.96 581.68 371.58 573.37C374.007 540.783 379.863 508.82 389.15 477.48C391.07 470.99 394.37 460.28 391.76 454.23C384.89 438.34 366.33 451.81 360.98 461.27C360.287 462.49 359.45 464.39 358.47 466.97C356.55 471.99 354.38 476.55 353.09 481.59C349 497.51 344.25 514.9 343.35 530.95C342.577 544.697 343.49 558.397 346.09 572.05C346.107 572.138 346.106 572.23 346.086 572.317C346.066 572.405 346.028 572.488 345.974 572.56C345.921 572.633 345.853 572.693 345.775 572.738C345.696 572.783 345.61 572.811 345.52 572.82L330.02 574.43Z" fill="#E30002"/>
<path d="M472.89 362.39C472.873 362.314 472.829 362.246 472.766 362.199C472.703 362.152 472.626 362.129 472.548 362.134C472.47 362.139 472.396 362.171 472.34 362.226C472.283 362.28 472.248 362.352 472.24 362.43C471.073 376.49 470.013 390.477 469.06 404.39C468.787 408.41 468.127 411.383 467.08 413.31C458.9 428.45 438.88 420.34 427.39 415.15C358.37 383.97 276.69 396.7 217.51 442.71C217.485 442.73 217.455 442.742 217.423 442.747C217.392 442.751 217.359 442.747 217.33 442.735C217.3 442.723 217.275 442.703 217.255 442.677C217.236 442.652 217.224 442.622 217.22 442.59C204.5 324.863 191.78 207.147 179.06 89.44C177.35 73.68 186.41 58.36 198.01 48.58C198.317 48.32 198.513 48.3867 198.6 48.78L241.09 239.16C241.477 240.9 242.007 240.943 242.68 239.29L259 199.11C259.16 198.717 259.377 198.68 259.65 199L290.21 234.08C290.282 234.163 290.379 234.221 290.486 234.246C290.594 234.27 290.706 234.26 290.807 234.217C290.908 234.173 290.993 234.099 291.049 234.004C291.106 233.91 291.13 233.8 291.12 233.69L271.71 17.36C271.663 16.8867 271.877 16.6134 272.35 16.54C327.72 8.00002 398.95 18.08 439.17 61.31C449.3 72.2 454.1 90.21 455.76 104.51C455.763 104.648 455.82 104.779 455.919 104.875C456.019 104.97 456.152 105.023 456.29 105.02C456.428 105.017 456.559 104.96 456.655 104.861C456.75 104.761 456.803 104.628 456.8 104.49C458.24 87.0233 463.837 71.1367 473.59 56.83C479.15 48.66 486.8 42.37 495.43 36.09C557.17 -8.86999 648.25 6.81002 697.17 62.76C697.251 62.8522 697.299 62.9676 697.308 63.0886C697.317 63.2096 697.286 63.3295 697.22 63.43C675.52 95.98 673.91 136.92 690.8 171.63C690.967 171.963 690.877 172.21 690.53 172.37C683.54 175.57 677.22 182.18 677.89 190.36C678.483 197.52 682.34 202.183 689.46 204.35C692.65 205.32 698.13 205.32 701.73 206.26C709.17 208.19 719.52 214.32 719.68 223.27C720.21 252.38 721.83 281.44 722.08 310.56C722.39 346.94 723.39 383.33 723.94 419.62C723.941 419.705 723.915 419.789 723.866 419.859C723.817 419.928 723.748 419.981 723.668 420.01C723.587 420.039 723.5 420.041 723.418 420.018C723.336 419.995 723.263 419.947 723.21 419.88C709.32 402.16 689.33 391.86 667.51 387.72C622.19 379.11 572.86 392.64 533.2 414.45C528.07 417.27 522.46 420.61 517.26 422.17C500.71 427.13 487 423.63 482.68 405.22C479.273 390.727 476.01 376.45 472.89 362.39ZM523.327 187.218C532.714 186.495 541.163 178.605 546.815 165.282C552.467 151.959 554.859 134.295 553.465 116.176C552.071 98.0571 547.005 80.9672 539.381 68.666C531.757 56.3648 522.2 49.8598 512.813 50.582C503.426 51.3046 494.977 59.1952 489.325 72.5179C483.673 85.8406 481.281 103.504 482.675 121.623C483.365 130.595 484.964 139.408 487.381 147.56C489.797 155.712 492.984 163.043 496.759 169.134C500.534 175.225 504.823 179.957 509.382 183.06C513.94 186.163 518.679 187.576 523.327 187.218ZM391.759 197.194C396.622 196.862 401.319 194.793 405.582 191.104C409.845 187.415 413.589 182.178 416.602 175.693C419.615 169.208 421.837 161.601 423.141 153.307C424.446 145.013 424.807 136.195 424.204 127.355C422.987 109.502 417.918 92.6468 410.112 80.4965C402.306 68.3462 392.403 61.8964 382.581 62.566C377.718 62.8976 373.021 64.967 368.758 68.6562C364.495 72.3454 360.751 77.582 357.738 84.0672C354.725 90.5524 352.503 98.159 351.199 106.453C349.894 114.747 349.533 123.565 350.136 132.405C351.353 150.258 356.422 167.113 364.228 179.264C372.034 191.414 381.937 197.864 391.759 197.194ZM461.03 190.28C447.22 197.47 447.84 159.8 448.1 155.65C448.113 155.397 447.993 155.273 447.74 155.28L435.16 155.85C434.193 155.897 433.75 156.403 433.83 157.37C435.1 172 439.23 194.67 451.23 203.84C455.63 207.2 460.92 208.66 465.49 205.24C479.1 195.06 479.51 170.46 478.9 154.33C478.887 154.017 478.72 153.867 478.4 153.88L464.54 154.68C464.18 154.707 464.063 154.89 464.19 155.23C466.8 162.56 468.71 186.29 461.03 190.28ZM565.87 187.89C585.08 197.73 602.24 220.99 604.28 242.66C604.286 242.713 604.302 242.764 604.329 242.81C604.356 242.856 604.393 242.895 604.437 242.925C604.48 242.956 604.53 242.976 604.582 242.986C604.635 242.995 604.688 242.993 604.74 242.98L618.78 239.4C619.213 239.287 619.347 239.023 619.18 238.61C612.24 221.25 601.87 205.52 589.61 190.1C584.797 184.053 580.213 179.063 575.86 175.13C575.52 174.823 575.213 174.853 574.94 175.22L565.73 187.3C565.694 187.346 565.67 187.399 565.657 187.456C565.645 187.513 565.646 187.572 565.659 187.628C565.673 187.685 565.699 187.738 565.735 187.783C565.771 187.828 565.818 187.865 565.87 187.89ZM296.24 230.93L305.45 235.06C305.85 235.24 306.123 235.123 306.27 234.71C310.89 221.83 327.54 204.73 341.15 202.61C341.59 202.543 341.717 202.31 341.53 201.91L336.34 190.77C336.14 190.337 335.823 190.223 335.39 190.43C322.12 196.78 300.99 216.06 295.86 230.02C295.707 230.44 295.833 230.743 296.24 230.93ZM321.26 290.38C329.64 301.33 344.13 310.28 356.94 316.03C383.153 327.79 410.837 334.39 439.99 335.83C452.11 336.43 469.4 334.92 487.27 332.95C504.89 331 524.92 324.31 538.92 317.66C565.24 305.16 591.47 282.76 591.37 250.97C591.31 231.88 581.21 210.2 563.18 201.8C545.45 193.54 523.05 200.74 508.76 212.84C495.22 224.32 483.78 234.96 466.14 237.37C446.03 240.12 427.14 233.34 408.87 225.76C391.93 218.72 375.41 212.58 356.87 211.44C353.297 211.22 349.937 211.52 346.79 212.34C326.49 217.62 313.67 231.42 310 252.07C307.66 265.27 313.36 280.04 321.26 290.38Z" fill="#FFEF9B"/>
<path d="M747.9 36.95C747.433 36.7234 747.447 36.53 747.94 36.37C764.62 31.0367 781.3 31.05 797.98 36.41C798.045 36.4301 798.103 36.4692 798.145 36.5223C798.188 36.5755 798.213 36.6402 798.219 36.7081C798.224 36.7759 798.209 36.8439 798.175 36.9031C798.142 36.9623 798.091 37.01 798.03 37.04C781.29 45.1934 764.58 45.1634 747.9 36.95ZM845.29 107.75C844.983 107.517 844.81 107.347 844.77 107.24C841.063 97.4334 835.443 88.8967 827.91 81.63C823.15 67.6 817.86 54.65 807.59 43.6C807.37 43.3667 807.327 43.1034 807.46 42.81C808.14 41.31 809.39 41.21 810.76 42.01C830.98 53.7634 844.87 70.7734 852.43 93.04C854.19 98.22 848.99 104.62 845.29 107.75ZM724.71 73C712.17 80.55 703.93 94.75 698.5 108.04C695.23 104.15 692.43 98.66 694.06 93.51C701.16 70.97 714.973 53.6934 735.5 41.68C735.84 41.48 736.173 41.4934 736.5 41.72L740.41 44.49C740.77 44.7367 740.823 45.04 740.57 45.4C734.49 54.16 729.203 63.36 724.71 73ZM811.5 67.96C811.07 67.95 811.04 68.08 810.62 67.82C801.247 62.1467 791.137 58.54 780.29 57V53.7C780.29 53.3 780.487 53.0734 780.88 53.02C786.507 52.2334 791.973 50.8234 797.28 48.79C797.627 48.6567 797.937 48.7167 798.21 48.97C804.023 54.35 808.453 60.68 811.5 67.96ZM769.96 57C760.387 57.3467 751.05 59.1333 741.95 62.36C744.417 57.9467 747.157 53.7534 750.17 49.78C750.377 49.5067 750.643 49.43 750.97 49.55C756.837 51.73 762.9 52.91 769.16 53.09C769.56 53.1034 769.803 53.3034 769.89 53.69C770.15 54.8034 770.173 55.9067 769.96 57Z" fill="white"/>
<path d="M523.327 187.218C518.679 187.576 513.94 186.163 509.382 183.06C504.823 179.957 500.534 175.225 496.759 169.134C492.984 163.043 489.797 155.712 487.381 147.56C484.964 139.408 483.365 130.595 482.675 121.623C481.281 103.504 483.673 85.8407 489.325 72.5179C494.977 59.1952 503.426 51.3047 512.813 50.582C522.2 49.8598 531.757 56.3648 539.381 68.666C547.004 80.9672 552.071 98.0571 553.465 116.176C554.859 134.295 552.467 151.959 546.815 165.282C541.163 178.605 532.714 186.495 523.327 187.218ZM513.35 173.41C523.39 182.13 532.44 172.65 536.45 163.66C536.48 163.592 536.495 163.519 536.493 163.445C536.492 163.371 536.475 163.298 536.442 163.231C536.41 163.165 536.363 163.106 536.306 163.059C536.249 163.012 536.182 162.978 536.11 162.96C525.66 160.25 518.99 153.01 516.11 142.66C512.69 130.41 517.11 119.02 525.99 109.84C526.243 109.58 526.207 109.37 525.88 109.21C518.82 105.75 514.09 102.86 512.46 94.52C510.38 83.8 513.63 71.61 523.59 65.87C523.883 65.6967 523.907 65.49 523.66 65.25C516.63 58.34 509.19 60.38 503.82 67.35C485.46 91.17 490.09 153.2 513.35 173.41Z" fill="#E30002"/>
<path d="M769.96 57C770.207 71.14 770.307 85.2833 770.26 99.43C770.23 109.11 770.87 119.57 770.99 129.67C770.991 129.71 770.985 129.75 770.97 129.788C770.956 129.825 770.934 129.86 770.906 129.889C770.878 129.918 770.844 129.941 770.807 129.956C770.77 129.972 770.73 129.98 770.69 129.98C754.33 130.167 738.367 127.83 722.8 122.97C722.578 122.9 722.387 122.755 722.259 122.56C722.131 122.365 722.075 122.132 722.1 121.9C724.54 100.653 731.157 80.8067 741.95 62.36C751.05 59.1333 760.387 57.3467 769.96 57ZM780.29 57C791.137 58.54 801.247 62.1467 810.62 67.82C811.04 68.08 811.07 67.95 811.5 67.96C818.927 84.5467 823.14 101.93 824.14 120.11C824.143 120.204 824.116 120.297 824.064 120.376C824.012 120.454 823.938 120.515 823.85 120.55C810.17 125.523 796.063 128.48 781.53 129.42C781.197 129.44 781.027 129.283 781.02 128.95L780.29 57Z" fill="#FFEF9B"/>
<path d="M513.35 173.41C490.09 153.2 485.46 91.17 503.82 67.35C509.19 60.38 516.63 58.34 523.66 65.25C523.907 65.49 523.883 65.6966 523.59 65.87C513.63 71.61 510.38 83.8 512.46 94.52C514.09 102.86 518.82 105.75 525.88 109.21C526.207 109.37 526.243 109.58 525.99 109.84C517.11 119.02 512.69 130.41 516.11 142.66C518.99 153.01 525.66 160.25 536.11 162.96C536.182 162.978 536.249 163.012 536.306 163.059C536.363 163.106 536.41 163.165 536.442 163.231C536.475 163.298 536.492 163.371 536.493 163.445C536.495 163.519 536.48 163.592 536.45 163.66C532.44 172.65 523.39 182.13 513.35 173.41Z" fill="white"/>
<path d="M391.759 197.194C386.895 197.526 381.961 196.113 377.237 193.036C372.513 189.959 368.093 185.279 364.228 179.263C360.363 173.247 357.129 166.012 354.711 157.972C352.293 149.932 350.738 141.244 350.136 132.404C348.919 114.551 351.653 97.164 357.738 84.0669C363.823 70.9697 372.759 63.2356 382.581 62.566C387.444 62.2345 392.379 63.6473 397.103 66.7239C401.826 69.8005 406.247 74.4806 410.112 80.4969C413.977 86.5132 417.211 93.7479 419.629 101.788C422.047 109.828 423.601 118.516 424.204 127.356C425.421 145.209 422.686 162.596 416.602 175.693C410.517 188.79 401.581 196.524 391.759 197.194ZM387.54 123.25L392.64 118.73C392.92 118.483 392.897 118.273 392.57 118.1L386.51 114.93C381.27 111.11 378.647 106.157 378.64 100.07C378.62 90.16 386.08 83.16 393.19 77.15C393.463 76.9233 393.463 76.6967 393.19 76.47C376.79 63.26 365.34 88.78 362.76 100.5C357.35 125.06 359.87 164.87 380.68 183.01C389.67 190.84 399.38 185.42 404.62 176.4C404.827 176.033 404.723 175.83 404.31 175.79C395.09 174.797 388.417 170.537 384.29 163.01C376.643 149.083 377.727 135.83 387.54 123.25Z" fill="#E30002"/>
<path d="M386.51 114.93C385.617 117.857 385.96 120.63 387.54 123.25C377.727 135.83 376.643 149.083 384.29 163.01C388.417 170.537 395.09 174.797 404.31 175.79C404.723 175.83 404.827 176.033 404.62 176.4C399.38 185.42 389.67 190.84 380.68 183.01C359.87 164.87 357.35 125.06 362.76 100.5C365.34 88.78 376.79 63.26 393.19 76.47C393.463 76.6967 393.463 76.9233 393.19 77.15C386.08 83.16 378.62 90.16 378.64 100.07C378.647 106.157 381.27 111.11 386.51 114.93ZM369.233 117.972C369.237 117.901 369.212 117.83 369.164 117.777C369.116 117.724 369.049 117.692 368.978 117.688L368.918 117.685C368.846 117.681 368.776 117.706 368.723 117.754C368.67 117.802 368.638 117.869 368.634 117.94L368.167 126.848C368.165 126.883 368.17 126.919 368.182 126.952C368.194 126.986 368.212 127.017 368.236 127.043C368.26 127.07 368.289 127.091 368.321 127.106C368.353 127.121 368.387 127.13 368.423 127.132L368.483 127.135C368.554 127.139 368.624 127.114 368.677 127.066C368.73 127.018 368.762 126.951 368.766 126.88L369.233 117.972Z" fill="white"/>
<path d="M724.71 73C718.603 87.4733 714.413 102.37 712.14 117.69C712.08 118.063 711.88 118.163 711.54 117.99C706.507 115.443 702.16 112.127 698.5 108.04C703.93 94.75 712.17 80.55 724.71 73ZM827.91 81.63C835.443 88.8967 841.063 97.4333 844.77 107.24C844.81 107.347 844.983 107.517 845.29 107.75C842.117 110.75 838.593 113.257 834.72 115.27C834.433 115.423 834.27 115.337 834.23 115.01C832.93 103.81 830.823 92.6833 827.91 81.63Z" fill="#FFEF9B"/>
<path d="M846.75 161.96C849.303 154.153 850.23 146.207 849.53 138.12C849.01 132.06 849.3 125.53 847.75 119.29L856.29 111.31C856.332 111.271 856.384 111.244 856.44 111.232C856.496 111.221 856.555 111.225 856.609 111.245C856.662 111.265 856.71 111.299 856.745 111.344C856.781 111.389 856.803 111.443 856.81 111.5C859.03 129.527 856.687 146.867 849.78 163.52C849.756 163.58 849.719 163.633 849.671 163.676C849.623 163.718 849.566 163.75 849.504 163.767C849.442 163.785 849.377 163.788 849.314 163.776C849.251 163.764 849.192 163.738 849.14 163.7L846.75 161.96ZM695.79 120C695.47 120.58 695.25 121.19 695.13 121.83C692.283 137.29 694.14 152.117 700.7 166.31C700.893 166.723 700.813 167.287 700.46 168C691.9 151.373 688.45 133.71 690.11 115.01C690.15 114.59 690.32 114.53 690.62 114.83L695.79 120Z" fill="white"/>
<path d="M386.51 114.93L392.57 118.1C392.897 118.273 392.92 118.483 392.64 118.73L387.54 123.25C385.96 120.63 385.617 117.857 386.51 114.93Z" fill="#FFEF9B"/>
<path d="M368.977 117.688L368.918 117.685C368.769 117.677 368.642 117.791 368.634 117.94L368.167 126.848C368.159 126.997 368.274 127.124 368.422 127.132L368.482 127.135C368.631 127.143 368.758 127.028 368.766 126.88L369.233 117.972C369.241 117.823 369.126 117.696 368.977 117.688Z" fill="#FFEF9B"/>
<path d="M847.75 119.29C849.3 125.53 849.01 132.06 849.53 138.12C850.23 146.207 849.303 154.153 846.75 161.96C843.317 159.707 839.507 158.3 835.32 157.74C834.967 157.693 834.793 157.493 834.8 157.14C834.96 147.33 836.1 137.91 834.93 128.06C834.891 127.731 834.954 127.398 835.11 127.107C835.265 126.815 835.506 126.579 835.8 126.43C839.887 124.383 843.87 122.003 847.75 119.29ZM695.79 120C700.29 123.493 705.193 126.493 710.5 129C710.833 129.153 710.99 129.417 710.97 129.79C710.19 142.55 711.127 155.18 713.78 167.68C713.853 168.027 713.717 168.187 713.37 168.16C709.463 167.88 705.677 168.133 702.01 168.92C701.26 169.08 700.61 168.75 700.46 168C700.813 167.287 700.893 166.723 700.7 166.31C694.14 152.117 692.283 137.29 695.13 121.83C695.25 121.19 695.47 120.58 695.79 120ZM795.34 171.97C795.56 162.62 790.97 153.17 781.78 149.44C781.48 149.313 781.323 149.087 781.31 148.76L780.95 140.47C780.942 140.286 781.005 140.106 781.127 139.969C781.249 139.833 781.419 139.75 781.6 139.74C796.293 138.887 810.583 136.043 824.47 131.21C824.77 131.11 824.923 131.217 824.93 131.53C825.223 140.103 824.963 148.663 824.15 157.21C824.117 157.57 823.923 157.773 823.57 157.82C810.05 159.6 804.19 167.31 800.66 179.42C799.21 184.37 797.21 194.45 791.19 195.53C790.077 195.73 789.673 195.287 789.98 194.2C791.97 187.08 795.19 178.42 795.34 171.97ZM730.91 177.5C728.88 175.45 725.79 173.5 725.27 171.59C721.877 159.263 720.487 146.643 721.1 133.73C721.113 133.403 721.277 133.287 721.59 133.38C738.04 138.41 753.4 139.62 770.46 140.49C770.82 140.503 771 140.693 771 141.06V146.06C771 146.507 770.773 146.723 770.32 146.71C764.94 146.503 759.997 147.007 755.49 148.22C736.08 153.45 730.54 172.8 742.17 188.78C742.233 188.858 742.263 188.957 742.255 189.056C742.247 189.156 742.202 189.249 742.127 189.316C742.053 189.382 741.955 189.418 741.855 189.415C741.756 189.412 741.661 189.371 741.59 189.3C737.58 185.59 734.61 181.23 730.91 177.5Z" fill="#FFEF9B"/>
<path d="M461.03 190.28C468.71 186.29 466.8 162.56 464.19 155.23C464.063 154.89 464.18 154.707 464.54 154.68L478.4 153.88C478.72 153.867 478.887 154.017 478.9 154.33C479.51 170.46 479.1 195.06 465.49 205.24C460.92 208.66 455.63 207.2 451.23 203.84C439.23 194.67 435.1 172 433.83 157.37C433.75 156.403 434.193 155.897 435.16 155.85L447.74 155.28C447.993 155.273 448.113 155.397 448.1 155.65C447.84 159.8 447.22 197.47 461.03 190.28Z" fill="#E30002"/>
<path d="M780.29 160.25L783.45 173.08C783.55 173.467 783.8 173.677 784.2 173.71L784.71 173.75C784.61 175.53 784.277 177.28 783.71 179C779.937 190.473 777.887 202.287 777.56 214.44C777.553 214.78 777.72 214.95 778.06 214.95L792.94 214.96C793.373 214.96 793.553 214.747 793.48 214.32L792.28 206.98C792.22 206.58 792.373 206.297 792.74 206.13C795.27 204.97 798.22 203.77 800.23 202.26C812.76 192.79 806.48 169.52 825.04 168.06C828.11 167.82 833.94 167.65 837.23 168.7C842.87 170.51 847.98 175.69 845.69 182.12C845.577 182.44 845.377 182.683 845.09 182.85C831.57 190.89 815.03 201.31 807 215.38C806.966 215.442 806.948 215.511 806.947 215.582C806.946 215.653 806.962 215.722 806.994 215.784C807.025 215.847 807.072 215.9 807.129 215.939C807.186 215.979 807.251 216.003 807.32 216.01C812.593 216.543 817.553 218.037 822.2 220.49C822.507 220.657 822.723 220.577 822.85 220.25C825.95 212.18 833.16 201.25 841.42 197.13C841.727 196.977 842.047 196.94 842.38 197.02C848.427 198.513 852.22 202.263 853.76 208.27C853.776 208.335 853.779 208.403 853.769 208.469C853.758 208.535 853.735 208.599 853.699 208.655C853.664 208.712 853.617 208.762 853.562 208.8C853.508 208.839 853.446 208.866 853.38 208.88C846.173 210.473 839.797 213.61 834.25 218.29L832.84 218.26C832.513 218.253 832.217 218.35 831.95 218.55C829.437 220.463 827.057 222.543 824.81 224.79C823.47 226.13 823.69 227.42 824.79 228.75C823.737 230.477 822.537 233.123 821.19 236.69C818.6 243.59 810.24 243.1 806.12 249.71C799.1 260.957 794.483 273.14 792.27 286.26C792.163 286.873 792.253 286.907 792.54 286.36L801 270.21C804.06 272.52 808.08 277.34 807.53 281.28C807.47 281.693 807.64 281.837 808.04 281.71L808.71 281.5C807.78 289.14 801.76 294.17 795.02 296.89C782.007 302.137 769.537 301.81 757.61 295.91C749.78 292.04 742.52 284.05 745.95 274.77C746.077 274.43 746.27 274.39 746.53 274.65C752.603 280.763 759.417 285.883 766.97 290.01C767.423 290.263 767.487 290.19 767.16 289.79L764.23 286.21C762.897 282.983 761.57 279.76 760.25 276.54C760.15 276.307 759.91 276.217 759.53 276.27C759.177 276.31 759.08 276.49 759.24 276.81C759.987 278.29 760.06 279.77 759.46 281.25C749.71 270.61 744.17 259.61 740.64 245.72C738.367 236.773 734.97 227.803 730.45 218.81C725.137 208.243 717.21 200.99 706.67 197.05C702.58 195.52 697.93 195.16 693.44 194.66C688.07 194.06 686.32 188.26 690.26 184.73C695.49 180.06 705.67 177.82 712.22 178.57C716.873 179.103 720.843 181.37 724.13 185.37C730.88 193.59 736.77 201.08 748.43 202.48C748.863 202.533 749.083 202.777 749.09 203.21L749.22 216.57C749.227 217.077 749.48 217.297 749.98 217.23L762.77 215.57C763.077 215.53 763.213 215.357 763.18 215.05C762.007 203.297 757.8 192.597 750.56 182.95C745.75 176.53 743.86 167.42 751.21 161.67C758.88 155.67 771.89 155.49 780.29 160.25ZM703.6 191.49L703.66 191.1C703.687 190.9 703.607 190.763 703.42 190.69C702.987 190.517 702.597 190.46 702.25 190.52C701.923 190.573 701.813 190.76 701.92 191.08C702.113 191.647 702.457 191.957 702.95 192.01C703.33 192.043 703.547 191.87 703.6 191.49Z" fill="white"/>
<path d="M780.29 160.25C784.177 163.89 785.65 168.39 784.71 173.75L784.2 173.71C783.8 173.677 783.55 173.467 783.45 173.08L780.29 160.25Z" fill="#FFEF9B"/>
<path d="M565.87 187.89C565.817 187.865 565.771 187.828 565.735 187.783C565.698 187.738 565.673 187.685 565.659 187.628C565.646 187.572 565.645 187.513 565.657 187.456C565.67 187.399 565.694 187.346 565.73 187.3L574.94 175.22C575.213 174.853 575.52 174.823 575.86 175.13C580.213 179.063 584.797 184.053 589.61 190.1C601.87 205.52 612.24 221.25 619.18 238.61C619.347 239.023 619.213 239.287 618.78 239.4L604.74 242.98C604.688 242.993 604.635 242.995 604.582 242.986C604.53 242.976 604.48 242.956 604.437 242.925C604.393 242.895 604.356 242.856 604.329 242.81C604.302 242.764 604.285 242.713 604.28 242.66C602.24 220.99 585.08 197.73 565.87 187.89ZM295.86 230.02C300.99 216.06 322.12 196.78 335.39 190.43C335.823 190.223 336.14 190.337 336.34 190.77L341.53 201.91C341.717 202.31 341.59 202.543 341.15 202.61C327.54 204.73 310.89 221.83 306.27 234.71C306.123 235.123 305.85 235.24 305.45 235.06L296.24 230.93C295.833 230.743 295.707 230.44 295.86 230.02Z" fill="#E30002"/>
<path d="M703.6 191.49C703.547 191.87 703.33 192.043 702.95 192.01C702.457 191.957 702.113 191.647 701.92 191.08C701.813 190.76 701.923 190.573 702.25 190.52C702.597 190.46 702.987 190.517 703.42 190.69C703.607 190.763 703.687 190.9 703.66 191.1L703.6 191.49Z" fill="#FFEF9B"/>
<path d="M321.26 290.38C313.36 280.04 307.66 265.27 310 252.07C313.67 231.42 326.49 217.62 346.79 212.34C349.937 211.52 353.297 211.22 356.87 211.44C375.41 212.58 391.93 218.72 408.87 225.76C427.14 233.34 446.03 240.12 466.14 237.37C483.78 234.96 495.22 224.32 508.76 212.84C523.05 200.74 545.45 193.54 563.18 201.8C581.21 210.2 591.31 231.88 591.37 250.97C591.47 282.76 565.24 305.16 538.92 317.66C524.92 324.31 504.89 331 487.27 332.95C469.4 334.92 452.11 336.43 439.99 335.83C410.837 334.39 383.153 327.79 356.94 316.03C344.13 310.28 329.64 301.33 321.26 290.38ZM536.2 211.08L580.55 248.47C580.59 248.503 580.639 248.523 580.691 248.529C580.742 248.535 580.795 248.525 580.841 248.502C580.887 248.479 580.926 248.443 580.953 248.398C580.979 248.353 580.992 248.302 580.99 248.25C580.537 238.197 577.237 229.253 571.09 221.42C561.58 209.28 550.94 206.86 536.14 209.77C535.974 209.803 535.825 209.893 535.719 210.025C535.613 210.156 535.557 210.321 535.56 210.49C535.567 210.77 535.677 210.923 535.89 210.95C536.003 210.957 536.107 211 536.2 211.08ZM577.8 259.51C560.5 245.01 542.927 230.23 525.08 215.17C524.573 214.743 524.037 214.7 523.47 215.04C518.17 218.22 513.327 221.987 508.94 226.34C508.667 226.607 508.633 226.9 508.84 227.22L553.18 296.55C553.36 296.823 553.587 296.87 553.86 296.69C566.073 288.563 574.667 277.48 579.64 263.44C580.56 260.85 579.33 260.79 577.8 259.51ZM368.27 223.04C361.98 221.98 354.23 220.82 348.26 222.61C338.99 225.4 331.85 229.18 326.56 237.49C316.19 253.77 318.55 269.46 329.52 284.5C329.913 285.04 330.283 285.027 330.63 284.46L368.45 223.46C368.597 223.227 368.537 223.087 368.27 223.04ZM338.54 293.25C350.82 302.243 364.223 309.027 378.75 313.6C379.097 313.707 379.327 313.59 379.44 313.25L404.58 235.59C404.72 235.15 404.573 234.847 404.14 234.68L379.99 225.66C379.815 225.595 379.623 225.592 379.446 225.652C379.27 225.712 379.119 225.832 379.02 225.99L338.23 291.67C337.843 292.29 337.947 292.817 338.54 293.25ZM501.59 320.15C515.6 316.35 532.16 310.78 544.51 303.13C544.843 302.917 544.903 302.643 544.69 302.31L500.91 233.84C500.71 233.527 500.457 233.477 500.15 233.69C493.437 238.317 486.283 242.107 478.69 245.06C478.363 245.187 478.25 245.417 478.35 245.75L500.8 319.71C500.852 319.873 500.964 320.011 501.111 320.093C501.258 320.175 501.43 320.195 501.59 320.15ZM389.5 317.03C402.453 320.85 415.637 323.47 429.05 324.89C429.136 324.9 429.223 324.892 429.305 324.867C429.388 324.843 429.464 324.801 429.531 324.746C429.597 324.691 429.652 324.623 429.691 324.547C429.73 324.47 429.754 324.386 429.76 324.3L436.21 246.65C436.221 246.522 436.188 246.395 436.117 246.289C436.046 246.184 435.941 246.106 435.82 246.07L414.58 239.64C414.273 239.547 414.07 239.653 413.97 239.96L389.23 316.51C389.213 316.562 389.207 316.617 389.211 316.671C389.215 316.725 389.231 316.778 389.256 316.827C389.281 316.875 389.316 316.918 389.357 316.953C389.399 316.988 389.448 317.014 389.5 317.03ZM453.01 248.11C450.957 247.93 448.91 247.82 446.87 247.78C446.55 247.773 446.377 247.93 446.35 248.25L440.01 324.53C439.977 324.95 440.167 325.167 440.58 325.18C457.207 325.647 473.73 324.597 490.15 322.03C490.53 321.97 490.663 321.757 490.55 321.39L468.39 248.25C468.283 247.903 468.05 247.743 467.69 247.77C462.68 248.19 458.21 248.56 453.01 248.11Z" fill="#E30002"/>
<path d="M535.89 210.95C535.677 210.923 535.567 210.77 535.56 210.49C535.557 210.321 535.613 210.156 535.719 210.025C535.825 209.893 535.974 209.803 536.14 209.77C550.94 206.86 561.58 209.28 571.09 221.42C577.237 229.253 580.537 238.197 580.99 248.25C580.992 248.302 580.979 248.353 580.953 248.398C580.926 248.443 580.887 248.479 580.841 248.502C580.795 248.525 580.742 248.535 580.691 248.529C580.639 248.523 580.59 248.503 580.55 248.47L536.2 211.08C536.107 211 536.003 210.957 535.89 210.95ZM577.8 259.51C579.33 260.79 580.56 260.85 579.64 263.44C574.667 277.48 566.073 288.563 553.86 296.69C553.587 296.87 553.36 296.823 553.18 296.55L508.84 227.22C508.633 226.9 508.667 226.607 508.94 226.34C513.327 221.987 518.17 218.22 523.47 215.04C524.037 214.7 524.573 214.743 525.08 215.17C542.927 230.23 560.5 245.01 577.8 259.51Z" fill="white"/>
<path d="M834.25 218.29C830.65 221.377 827.497 224.863 824.79 228.75C823.69 227.42 823.47 226.13 824.81 224.79C827.057 222.543 829.437 220.463 831.95 218.55C832.217 218.35 832.513 218.253 832.84 218.26L834.25 218.29Z" fill="#FFEF9B"/>
<path d="M368.27 223.04C368.537 223.087 368.597 223.227 368.45 223.46L330.63 284.46C330.283 285.027 329.913 285.04 329.52 284.5C318.55 269.46 316.19 253.77 326.56 237.49C331.85 229.18 338.99 225.4 348.26 222.61C354.23 220.82 361.98 221.98 368.27 223.04ZM338.54 293.25C337.947 292.817 337.843 292.29 338.23 291.67L379.02 225.99C379.119 225.832 379.269 225.712 379.446 225.652C379.623 225.592 379.815 225.595 379.99 225.66L404.14 234.68C404.573 234.847 404.72 235.15 404.58 235.59L379.44 313.25C379.327 313.59 379.097 313.707 378.75 313.6C364.223 309.027 350.82 302.243 338.54 293.25ZM501.59 320.15C501.43 320.195 501.258 320.175 501.111 320.093C500.963 320.01 500.852 319.873 500.8 319.71L478.35 245.75C478.25 245.417 478.363 245.187 478.69 245.06C486.283 242.107 493.437 238.317 500.15 233.69C500.457 233.477 500.71 233.527 500.91 233.84L544.69 302.31C544.903 302.643 544.843 302.917 544.51 303.13C532.16 310.78 515.6 316.35 501.59 320.15ZM389.5 317.03C389.448 317.014 389.399 316.988 389.357 316.953C389.315 316.918 389.281 316.875 389.256 316.827C389.23 316.778 389.215 316.725 389.211 316.671C389.206 316.617 389.213 316.562 389.23 316.51L413.97 239.96C414.07 239.653 414.273 239.547 414.58 239.64L435.82 246.07C435.941 246.106 436.045 246.183 436.116 246.289C436.187 246.395 436.22 246.522 436.21 246.65L429.76 324.3C429.754 324.386 429.73 324.47 429.691 324.547C429.651 324.623 429.597 324.691 429.531 324.746C429.464 324.801 429.388 324.843 429.305 324.867C429.222 324.892 429.136 324.9 429.05 324.89C415.637 323.47 402.453 320.85 389.5 317.03ZM453.01 248.11C458.21 248.56 462.68 248.19 467.69 247.77C468.05 247.743 468.283 247.903 468.39 248.25L490.55 321.39C490.663 321.757 490.53 321.97 490.15 322.03C473.73 324.597 457.207 325.647 440.58 325.18C440.167 325.167 439.977 324.95 440.01 324.53L446.35 248.25C446.377 247.93 446.55 247.773 446.87 247.78C448.91 247.82 450.957 247.93 453.01 248.11Z" fill="white"/>
<path d="M808.71 281.5L808.04 281.71C807.64 281.837 807.47 281.693 807.53 281.28C808.08 277.34 804.06 272.52 801 270.21L801.77 268.76C801.957 268.407 802.213 268.35 802.54 268.59C806.78 271.79 808.837 276.093 808.71 281.5ZM764.23 286.21C762.223 284.823 760.633 283.17 759.46 281.25C760.06 279.77 759.987 278.29 759.24 276.81C759.08 276.49 759.177 276.31 759.53 276.27C759.91 276.217 760.15 276.307 760.25 276.54C761.57 279.76 762.897 282.983 764.23 286.21ZM128.99 373.37C121.47 370.61 114.55 369.07 108.38 369.25C107.933 369.263 107.757 369.053 107.85 368.62C114.11 340.27 137.99 318.58 162.97 305.95C166.277 304.283 169.117 303.467 171.49 303.5C180.43 303.64 185.74 314.54 180.7 322.13C180.033 323.137 178.987 323.92 177.56 324.48C155.78 333.04 136.58 350.13 129.65 373.04C129.543 373.387 129.323 373.497 128.99 373.37ZM765 339.44V316.97C765 316.557 765.2 316.4 765.6 316.5C775.633 319.007 785.643 318.903 795.63 316.19C795.977 316.09 796.16 316.22 796.18 316.58C796.75 327.68 796.66 385.26 777.01 384.77C769.54 384.58 758.55 370.46 754.19 363.28C749.37 355.353 744.473 345.607 739.5 334.04C738.427 331.54 737.953 329.45 738.08 327.77C738.7 319.94 748.5 305.6 755.66 319.08C759.28 325.887 762.223 332.703 764.49 339.53C764.83 340.537 765 340.507 765 339.44Z" fill="#FFEF9B"/>
<path d="M93.3099 413.56C81.5199 422.08 64.8099 428.21 50.4499 422.89C44.5099 420.683 41.3832 416.47 41.0699 410.25C41.0499 409.877 41.2266 409.677 41.5999 409.65C45.4866 409.39 49.2832 409.2 52.9899 409.08C75.2599 408.34 91.0699 400.11 110.02 391.27C110.222 391.178 110.392 391.028 110.509 390.839C110.626 390.651 110.685 390.432 110.679 390.21C110.672 389.988 110.601 389.773 110.473 389.592C110.345 389.41 110.167 389.271 109.96 389.19C103.82 386.75 97.6599 386.7 91.4799 389.04C91.1199 389.173 90.8599 389.067 90.6999 388.72C88.4899 383.93 95.7099 381.07 99.2899 380.41C112.5 378.01 129.83 381.07 138.25 392.63C138.307 392.709 138.336 392.805 138.335 392.903C138.334 393.001 138.301 393.095 138.242 393.172C138.184 393.249 138.102 393.304 138.009 393.329C137.917 393.354 137.819 393.347 137.73 393.31C134.523 392.043 131.297 391.923 128.05 392.95C127.897 392.997 127.762 393.089 127.663 393.214C127.563 393.339 127.502 393.49 127.49 393.649C127.477 393.809 127.512 393.968 127.59 394.107C127.669 394.246 127.787 394.359 127.93 394.43C139.28 400.06 153.07 411.81 154.26 425.34C154.407 427.033 154.223 429.28 153.71 432.08C152.2 440.34 151.22 443.54 145.54 450.04C143.48 452.4 143.37 455.17 145.21 458.35C151.78 469.67 160.39 488.9 150.49 500.99C149.68 501.98 148.68 502.21 147.43 501.82C137.5 498.69 135.45 483.81 133.77 475.28C132.47 468.67 132.51 463.72 134.43 457.64C134.448 457.582 134.452 457.521 134.442 457.461C134.431 457.401 134.407 457.345 134.37 457.298C134.334 457.25 134.286 457.213 134.232 457.189C134.178 457.165 134.119 457.155 134.06 457.16L115.62 458.35C115.481 458.358 115.347 458.407 115.236 458.491C115.125 458.574 115.04 458.689 114.993 458.82C114.947 458.951 114.939 459.093 114.972 459.228C115.006 459.363 115.078 459.486 115.18 459.58C116.5 460.82 117.18 462.42 117.62 464.31C121.72 481.69 120.353 498.32 113.52 514.2C107.38 528.46 88.9599 530.54 92.8499 509.69C95.6099 494.89 98.3232 480.077 100.99 465.25C101.537 462.223 102.597 459.403 104.17 456.79C104.357 456.477 104.28 456.26 103.94 456.14L88.1799 450.77C87.7666 450.63 87.5466 450.777 87.5199 451.21C87.3999 453.27 87.7099 455.34 87.1299 457.26C82.4766 472.56 77.6866 486.39 72.7599 498.75C70.3099 504.88 59.3499 518.02 52.2799 508.34C45.4999 499.05 51.9899 485.62 57.5899 477.08C64.9832 465.82 72.3199 454.52 79.5999 443.18C79.7866 442.893 79.8532 442.58 79.7999 442.24C79.1499 437.89 78.6799 433.43 79.1699 429.04C79.2032 428.713 79.3599 428.467 79.6399 428.3C84.2899 425.45 91.9399 419.69 93.7799 413.9C93.9666 413.313 93.8099 413.2 93.3099 413.56Z" fill="white"/>
<path d="M745.98 598.92L583.21 597.87C582.877 597.863 582.703 597.693 582.69 597.36C581.53 557.09 576.36 516.89 566.58 477.88C564.313 468.847 562.907 462.663 562.36 459.33C561.22 452.4 561.43 435.94 572.66 436.93C583 437.85 588.17 451.48 591.26 460.36C601.613 490.073 608.947 520.537 613.26 551.75C613.713 555.037 613.297 559.563 612.01 565.33C611.903 565.783 612.077 566.063 612.53 566.17L625.59 569.37C625.694 569.395 625.802 569.4 625.907 569.383C626.013 569.367 626.114 569.33 626.205 569.274C626.296 569.218 626.375 569.145 626.438 569.058C626.501 568.972 626.545 568.874 626.57 568.77C627.66 564.21 629.51 559.44 633.89 557.14C675.39 535.39 727.99 555.54 746.51 598.12C746.75 598.66 746.573 598.927 745.98 598.92ZM330.02 574.43L345.52 572.82C345.61 572.811 345.696 572.783 345.775 572.738C345.853 572.693 345.921 572.633 345.974 572.56C346.028 572.488 346.066 572.405 346.086 572.317C346.106 572.229 346.107 572.138 346.09 572.05C343.49 558.397 342.577 544.697 343.35 530.95C344.25 514.9 349 497.51 353.09 481.59C354.38 476.55 356.55 471.99 358.47 466.97C359.45 464.39 360.287 462.49 360.98 461.27C366.33 451.81 384.89 438.34 391.76 454.23C394.37 460.28 391.07 470.99 389.15 477.48C379.863 508.82 374.007 540.783 371.58 573.37C370.96 581.68 370.98 590.92 370.72 599.74C370.713 600.087 370.537 600.257 370.19 600.25C366.59 600.18 362.77 600.73 359.5 600.73C306.82 600.777 254.143 600.777 201.47 600.73C201.043 600.73 200.92 600.537 201.1 600.15C219.92 560.1 276.22 540.9 316.83 554.86C325.05 557.68 329.09 564.96 329.07 573.57C329.069 573.691 329.094 573.811 329.143 573.921C329.192 574.032 329.263 574.131 329.353 574.212C329.443 574.293 329.548 574.355 329.663 574.392C329.778 574.43 329.9 574.443 330.02 574.43Z" fill="#FFEF9B"/>
</g>
<defs>
<clipPath id="clip0_6_421">
<rect width="900" height="609" fill="white"/>
</clipPath>
</defs>
</svg>
