<svg xmlns="http://www.w3.org/2000/svg" width="900" height="649" fill="none"><g clip-path="url(#a)"><path stroke="#E30002" stroke-width="2" d="M368.64 78.41a.28.28 0 0 0 .21.46c5.74-.1 11.74-.59 17.21-.61 68.22-.293 136.437-.363 204.65-.21 14.53.03 30.35 2.01 37.53-14.29 4.7-10.673 5.057-21.853 1.07-33.54-3.21-9.38-10.46-18.31-21.31-18.23-26.78.193-60.28-.037-100.5-.69-40.13-.65-80.25.04-120.38-.52-6.54-.087-13.073.093-19.6.54-7.5.52-3.96 7.55-1.13 10.43 16.06 16.38 17.9 39.08 2.25 56.66Zm340.5-33.38c-1.18-6.18-7.13-19.22-13.72-7.86-4.19 7.23-6.15 16.52-6.39 24.85-.48 16.227-.15 32.48.99 48.76.027.4.223.517.59.35 5.77-2.71 10.91-5.89 17.49-5.9.373 0 .597-.183.67-.55.86-4.453 1.433-9.68 1.72-15.68.79-16.4 1.47-29.27-1.35-43.97Z"/><path stroke="#E30002" stroke-width="2" d="M344.19 89.33c12.54-9.22 27.06-25.82 24.57-41.94a.628.628 0 0 0-.153-.324.665.665 0 0 0-.307-.196c-46.51-12.86-87.67 22.58-95.31 66.73-1.04 6.04-1.373 12.68-1 19.92.71 13.8 2.71 27.01 8.01 40.08 12.947 31.973 30.72 61.087 53.32 87.34 17.55 20.39 48.99 51.97 70.72 78.52 14.26 17.43 24.18 35.86 27.71 58.3 4.97 31.62-.62 73.3-21.51 99.9-6.9 8.79 0 13.79 8.76 13.86 12.65.11 28.32-.46 41.82-.48 51.33-.06 102.7-1.3 154.02-1.04 5.84.033 10.41-.37 13.71-1.21 35.1-8.92 57.38-60.58 59.24-93.01 2.68-46.74-11.09-86.24-38.71-123.3-20.46-27.46-43.74-52.14-65.82-78.23-24.15-28.53-38.57-65.33-29.14-102.8 4.78-18.98-5.49-23.8-22.29-23.69-61.193.387-122.39.877-183.59 1.47-1.33.02-2.56.47-3.89.54-.54.027-.593-.12-.16-.44Zm374.04 58.32c.55 2.76 4.53 15.19 9.29 11.61 10.86-8.19 12.6-28.7 10-41.49-.72-3.55-4.64-14.66-9.86-12.4-3.447 1.487-5.907 4.27-7.38 8.35a1.51 1.51 0 0 0-.04.94c1.51 5.71.98 11.47-1.9 16.61-2.36 4.22-.9 12.42-.11 16.38Z"/><path stroke="#E30002" stroke-width="2" d="M726.09 190.98a.776.776 0 0 1-.468-.774.778.778 0 0 1 .578-.696c4.307-1.113 8.473-.8 12.5.94.407.18.693.063.86-.35l3.8-9.24a.541.541 0 0 0-.43-.74c-6.247-.753-10.41-4.08-12.49-9.98-.1-.293-.307-.42-.62-.38l-6.04.87a.44.44 0 0 0-.39.37c-.5 2.587-.22 5.04.84 7.36.207.453.06.673-.44.66l-10.81-.41c-.353-.013-.503-.193-.45-.54 1.5-10.66-1.797-19.497-9.89-26.51-7.91-6.86-15.86-4.93-25.39-7.09-5.14-1.17-6.32-7.57-1.91-9.61 1.067-.493 2.85-.523 5.35-.09 6.727 1.167 12.73.97 18.01-.59 3.78-1.11 10.59-6.05 11.81-10.58 1.93-7.12-2.28-9.36-8.33-6.56-6.99 3.22-13.51 6.88-21.19 7.94-5.04.693-10.32 1.033-15.84 1.02-13.66-.02-13.27 13.46-9.36 22.74 3.553 8.453 8.08 15.253 13.58 20.4 7.78 7.29 17.03 14.8 27.13 18.5.46.167.52.423.18.77l-8.06 8.42c-.3.313-.603.317-.91.01l-2.54-2.55a.988.988 0 0 0-.97-.27c-3.64.86-8.39 1.99-10.29 5.31-3.74 6.53 4.66 12.24 10.63 12.58.313.02.49-.13.53-.45.673-5.247 3.457-8.83 8.35-10.75 10.05-3.94 30.14-4.42 32.36 10.11.053.347.25.54.59.58 9.42 1.15 15.57-7.37 7.97-14.81-2.513-2.46-5.263-4.33-8.25-5.61Zm16.6-21.33c1.62.12 2.897-.267 3.83-1.16 7.387-7.053 10.3-15.97 8.74-26.75-.4-2.71-3.18-7.1-6.55-4.21-.273.24-.43.537-.47.89-.96 8.813-3.943 16.837-8.95 24.07-.2.293-.27.613-.21.96.333 2.187 1.22 4.097 2.66 5.73.253.287.57.443.95.47ZM140.03 333.53c7.06 7.24 11.51 11.7 20.97 12.37 9.36.65 8.81-12.63 8.49-18.61-.16-3.02-1.063-7.263-2.71-12.73-15.32-50.84-21.82-102.55-17.25-155.56.3-3.493-.907-6.55-3.62-9.17a1.498 1.498 0 0 0-.81-.41c-5.59-.88-14.44 13.48-17 17.96-14.967 26.24-21.627 54.393-19.98 84.46 1.62 29.66 10.76 60.03 31.91 81.69Zm43.28-12.85c1.51 4.16 6.83 6.98 11.02 6.49 5.33-.62 7.74-5.05 8.88-9.92 2.84-12.1 4.43-22.28 3.23-34.32-.71-7.1-1.08-14.2-3.31-21.05-11.11-34.2-27.7-65.71-36.19-101.06-.34-1.413-1.117-2.577-2.33-3.49a.982.982 0 0 0-.82-.19c-2.2.453-3.38 1.49-3.54 3.11-.793 7.84-1.21 13.007-1.25 15.5-.753 49.86 7.35 98.17 24.31 144.93Z"/><path stroke="#E30002" stroke-width="2" d="M665.7 266.72c-7.77 2.94-16.05 15.76-2.37 18.97 16.66 3.9 31.07-6.95 40.29-19.81 7.767-10.82 12.163-22.843 13.19-36.07.29-3.86.21-12.52-2.31-15.64-4.2-5.17-10.5-7.2-16.07-2.73-3.49 2.81-.94 8.37-1.13 12.24-1.027 21.107-11.56 35.453-31.6 43.04Zm-382.68 91.79c-.29 7.5 10.82-.82 12.63-2.3a220.32 220.32 0 0 1 52.59-32.16c3.33-1.45 11.03-7.8 6.45-11.76-5.93-5.14-18.49-2.89-24.99 1.04a246.312 246.312 0 0 0-40.47 30.65c-3.9 3.647-5.97 8.49-6.21 14.53Zm-49.97-2.48c-4.773 8.193-8.16 16.89-10.16 26.09-1.7 7.81-1.33 20.51 6.44 25.3 11.11 6.84 12.81-18.29 14.35-23.62 1.58-5.47 4.08-9.45 7.6-14.33 9.71-13.5 12.88-32.73-7.02-39.37-13.37-4.47-25.77 27.08-31.63 38.65-1.14 2.24-2.92 4.23-4.45 6.27-.213.28-.24.573-.08.88 1.22 2.35 2.46 5.86 5.79 5.01.353-.093.597-.31.73-.65 3.9-9.76 9.953-17.913 18.16-24.46.507-.407.597-.33.27.23Zm44.47 39.25-10.61 15.59a1.06 1.06 0 0 0 .19 1.4c4.71 3.98 13.27 7.7 16.46-.63 5.14-13.42-9.75-33.63-18.56-42.61a.426.426 0 0 0-.337-.13.43.43 0 0 0-.313.18c-3.38 4.76-9.73 12.34-10.8 17.98-2.4 12.65-4.38 31.67-20.87 31.76-.48 0-.607.21-.38.63l7.39 13.6a.52.52 0 0 0 .92-.01c7.93-15.52 21.24-30.31 36.62-38.1a.233.233 0 0 1 .279.056.232.232 0 0 1 .011.284Zm-125.58 14.28c9.86 6.89 20.64 8.82 32.5 8.01 9.38-.647 16.907-4.687 22.58-12.12 3.12-4.09 6.95-12.23-.19-14.98-9.35-3.6-19.27-4.76-29.82-5.48-11.43-.78-23.93 2.78-28 14.64-1.5 4.39-.84 7.3 2.93 9.93Zm68.9 19.19c-3.11 4.82-6.53 9.48-8.12 15-2.78 9.72-8.57 33.03-3.14 41.93 5.07 8.32 12.14 5.15 14.21-2.99 3.37-13.21 5.2-25.38 11.14-38.7a.842.842 0 0 0-.1-.88l-20.96-28.54c-.253-.333-.533-.357-.84-.07-13.72 12.83-22.37 13.86-40.78 13.44a1.434 1.434 0 0 0-.92.3c-13.83 10.53-16.11 29.92-1.01 40.93 5.34 3.9 10.67.75 13.37-4.31 1.6-3.01 1.13-7.02.73-10.42-1.23-10.52 5.65-19.66 14.79-24.4a75.151 75.151 0 0 0 12.7-8.3c.267-.213.537-.217.81-.01l7.96 6.09c.347.26.4.57.16.93Zm124.1 76.31c12.28 9.96 28.67 7.43 41.49-.14 17.13-10.12 28.25-30.63 32.43-50.37 2.45-11.54-3.13-20.8-15.1-20.89-22.593-.187-45.2-.443-67.82-.77a.952.952 0 0 0-.83.44c-1.407 2.127-2.503 4.62-3.29 7.48-5.6 20.17-4.68 49.82 13.12 64.25Zm119.04 110.23c-5.32-7.87-11.56-14.3-20.05-18.75-10.64-5.57-24.04-9.3-36.18-8.15-28.21 2.68-45.8 21.67-47.42 49.46a.452.452 0 0 0 .128.338.452.452 0 0 0 .332.142l130.03-.28a.48.48 0 0 0 .47-.37l27.53-110.67c.093-.373-.05-.55-.43-.53-13.733.807-23.273 7.48-28.62 20.02-6.033 14.147-12.067 28.287-18.1 42.42-3.14 7.353-2.303 13.92 2.51 19.7.233.28.197.52-.11.72l-9.37 6.1c-.293.187-.533.137-.72-.15Zm74.57 6.13-8.59-8.58c-.273-.273-.26-.537.04-.79 8.68-7.207 13.837-16.143 15.47-26.81.7-4.553 2.033-15.14 4-31.76 1.44-12.15-8.77-22.42-19.65-25.6-.333-.093-.54.027-.62.36l-27.15 109.23c-.087.353.05.53.41.53h126.52a.809.809 0 0 0 .75-.51c4.55-11.57 4.31-26.66-7.05-34.45-21.22-14.57-61.27-4.24-77.88 12.76a426.063 426.063 0 0 0-5.39 5.61c-.28.3-.567.303-.86.01Zm-56.11-408.61c12.547 10.9 24.5 10.973 35.86.22 14.73-13.94 16.4-42.6 12.87-61.04-.22-1.17.49-2.4-.05-3.91-3.95-10.99-6.65-20.64-14.22-30.73-6.33-8.44-17.15-15.98-28.21-13.88-22.37 4.25-28.71 35.54-27.89 53.78.9 20.04 6.66 42.55 21.64 55.56Zm-74.737 17.169c4.983-1.132 9.594-3.675 13.57-7.485 3.975-3.809 7.238-8.81 9.601-14.717 2.363-5.906 3.781-12.603 4.172-19.708.391-7.105-.252-14.479-1.893-21.7-3.313-14.584-10.489-27.662-19.947-36.358-9.459-8.695-20.426-12.296-30.489-10.01-4.983 1.132-9.594 3.675-13.569 7.485-3.976 3.809-7.239 8.81-9.602 14.717-2.363 5.906-3.781 12.603-4.172 19.708-.391 7.105.252 14.479 1.893 21.7 3.314 14.584 10.489 27.662 19.947 36.358 9.459 8.695 20.426 12.296 30.489 10.01Zm46.587-20.439c7.507 3.987 11.903 9.907 13.19 17.76 1.03 6.27-2.7 12.95-9.99 11.43-6.64-1.38-12.49-8.43-15.6-14.08-.16-.3-.343-.313-.55-.04l-8.33 10.9a.517.517 0 0 0-.102.362.495.495 0 0 0 .172.328c11.24 9.7 35.64 21.86 43.74.39 4.82-12.74-5.51-29.11-14.94-37.9-.213-.207-.41-.19-.59.05l-7.28 9.5c-.42.547-.327.98.28 1.3Zm-43.04 72.25c-7.63 18.67 6.03 37.98 22.07 46.64 23.31 12.57 48.46 15.37 74.32 10.78 29.55-5.25 62.78-25.21 60.54-60.01-1.2-18.42-8.88-38.84-30.09-40.25-20.02-1.34-34.2 17.61-50.56 25.38-12.98 6.167-26.58 7.063-40.8 2.69-15.35-4.71-29.07-.91-35.48 14.77Zm214.16 39.96c-4.79-3.3-11.04-5.74-16.88-3.96-8.973 2.747-12.723 8.91-11.25 18.49 2.49 16.23 19.11 31.08 32.84 38.37.32.173.627.153.92-.06 7.853-5.66 14.427-12.517 19.72-20.57 5.64-8.58 6.86-22.95.23-31.25-6.04-7.57-17.38-6.92-24.75-1.05-.273.213-.55.223-.83.03Zm-73.77 63.46c-6.2 6.36-12.6 11.1-16.42 19.49-3.09 6.79-3.8 20.73 6.67 21.37 2.19.13 3.95-1.09 5.76-2.23.34-.213.603-.143.79.21 3.42 6.5 9.91 4.22 12.77-1.19.173-.327.4-.37.68-.13 5.04 4.38 11.4 1.71 14.76-3.17.207-.3.483-.503.83-.61 2.693-.8 4.853-2.363 6.48-4.69.26-.367.587-.443.98-.23 4.173 2.233 8.603 2.837 13.29 1.81.527-.12.687.07.48.57-3.51 8.63 5.74 11.52 12.06 9.69 9.487-2.733 18.977-5.44 28.47-8.12 3.7-1.04 9.37-1.53 14.23-1.12 4.22.36 5.7-5.16 3.01-7.46-6.31-5.39-39.04 5.76-47.06 8.23a.397.397 0 0 1-.455-.183.4.4 0 0 1 .065-.487c2.81-2.74 5.79-3.07 9.25-4.6 7.03-3.1 3.46-10.44-3.29-8.87a962.05 962.05 0 0 1-17.42 3.86c-7.373 1.56-11.183-1.3-11.43-8.58-.14-4.32-7.55-5.55-8.93-.42-.89 3.29 2.36 7.2.05 10.27-.213.287-.49.363-.83.23-5.62-2.34-6.66 2.28-7.14 6.48-.033.307-.203.437-.51.39l-.46-.06c-.433-.067-.663-.32-.69-.76-.247-3.827.077-8.79.97-14.89.91-6.18-7.24-7.01-8.39-2.27a245.023 245.023 0 0 1-5.21 18.29.322.322 0 0 1-.341.23.345.345 0 0 1-.309-.29c-.54-4.07-.22-13.11-5.11-14.17a1.513 1.513 0 0 0-1.05.14c-.18.087-.36.1-.54.04-.36-.133-.407-.34-.14-.62 4.74-4.97 18.37-14.38 12.14-22.56-4.58-6.01-16.56-1.23-21.63 1.66-4.547 2.593-7.957 6.18-10.23 10.76-3.33 6.7 4.25 10.38 6.39 6.2 3.78-7.387 9.523-11.607 17.23-12.66.513-.073.59.077.23.45Zm-69 23.68c.9-3.207.493-6.173-1.22-8.9a1.808 1.808 0 0 0-.92-.74c-3.86-1.433-6.607-.287-8.24 3.44-.093.22-.26.323-.5.31-.1 0-.203.007-.31.02-.387.047-.517-.113-.39-.48 1.77-5.29 5.65-17.95-1.37-21.28-5.78-2.74-11.18 4.27-13.21 9.24-3.473 8.48-4 17.16-1.58 26.04.087.327.043.633-.13.92-2.43 3.93-7.17 10.24-3.75 12.95 4.67 3.69 7.35-2.14 9.2-5.19.2-.327.46-.383.78-.17 2.26 1.527 4.76 2.173 7.5 1.94.36-.033.587.127.68.48.613 2.393 1.247 3.897 1.9 4.51 8.07 7.52 14.72-5.81 16.9-12.36.173-.527.417-.563.73-.11 2.28 3.34 5.06 3.743 8.34 1.21.287-.22.537-.183.75.11 1.86 2.593 4.157 2.983 6.89 1.17.327-.22.593-.493.8-.82l.95-1.51c.347-.54.637-.513.87.08 2.06 5.17 1.51 8.62 7.59 10.7 5.9 2.03 9.53-7.57 1.77-10.06-.347-.113-.53-.35-.55-.71l-.17-2.49a1.84 1.84 0 0 0-.37-.99c-3.01-4.02-4.91-10.9-11.82-6.75-.3.18-.527.117-.68-.19-2.113-4.113-5.187-4.87-9.22-2.27-.28.18-.527.147-.74-.1-4.38-5.09-7.1-1.05-9.9 2.31-.667.793-.86.69-.58-.31Zm184.72 5.55a4.322 4.322 0 0 0-7.375-3.055 4.332 4.332 0 0 0-1.265 3.055 4.32 4.32 0 1 0 8.64 0Zm-193.01 64.4c-2.873 3.893-2.427 7.18 1.34 9.86.28.2.593.3.94.3 2.3.01 4.27.27 6.44-.72 8.41-3.81 13.52-8.78 20.14-14.04.287-.227.52-.183.7.13 2.23 3.9 8.64 12.55 13.89 11.74 4.513-.7 9.65-2.82 15.41-6.36.353-.213.627-.133.82.24 2.34 4.573 5.943 5.8 10.81 3.68a.957.957 0 0 1 1.01.1c2.71 1.95 4.81 1.51 7.85-.04a70.21 70.21 0 0 1 9.98-4.15c10.39-3.4 2.94-14.9-2.77-8.06a1.37 1.37 0 0 1-.73.45 40.852 40.852 0 0 0-9.3 3.51c-.333.18-.647.153-.94-.08-2.633-2.08-5.31-2.087-8.03-.02-.3.233-.523.173-.67-.18-3.46-8.41-11.96-3.37-16.82-.3a.432.432 0 0 1-.638-.25.428.428 0 0 1 .008-.26c1.7-4.54 3.56-13.46-2.48-15.69-5.14-1.89-9.68 3.65-11.28 7.94-.14.36-.363.427-.67.2-7.96-5.94-15.79 4.34-21.63 8.99a.334.334 0 0 1-.195.066.337.337 0 0 1-.196-.063.338.338 0 0 1-.121-.167.337.337 0 0 1 .002-.206c1.61-4.65-.58-11.48-6.57-10.58-1.227.18-3.033 1.007-5.42 2.48a161.256 161.256 0 0 1-15.66 8.53.93.93 0 0 1-1.32-.84v-1.42c0-.353.1-.673.3-.96 4.13-6.11 11.68-20.22 9.67-26.81-1.52-4.98-7.19-5.01-10.06-1.15-5.06 6.81-7.48 16.48-9.13 26.03-.24 1.39-1.22 2.56-2 3.68-.2.287-.47.463-.81.53-11.4 2.3-2.11 15.97 5.37 6.99.24-.293.507-.32.8-.08 7.18 5.77 15.01-.16 21.53-3.53.86-.447 1.003-.277.43.51Zm138.76-6.62c-1.74-9.76-9.61-4.27-13 .02a.426.426 0 0 1-.494.124.426.426 0 0 1-.266-.434c.46-5.66 1.13-11.31 2.01-16.95.76-4.85.52-11.82-5.15-12.63-12.86-1.82-19.07 26.6-20.67 34.9-1.26 6.54 7.8 6.78 8.58 1.27 1.227-8.667 3.89-16.81 7.99-24.43a.49.49 0 0 1 .92.33c-1.32 6.6-6.34 30.39 7.98 27.91 1.173-.2 2.76-1.477 4.76-3.83.253-.307.507-.307.76 0 4.81 5.9 10.83 1.86 16.33-.08.307-.107.603-.077.89.09 2.32 1.393 4.88 1.77 7.68 1.13a47.128 47.128 0 0 1 14.35-1.03c8.05.65 7.87-7.91 1.96-8.56-5.32-.58-11-.217-17.04 1.09-.347.073-.627-.03-.84-.31-3.49-4.52-11.88.19-16.09 1.77-.373.14-.593.013-.66-.38Z"/><path stroke="#E30002" stroke-width="2" d="M481.5 195.26c4.16 8.07 13.74 17.86 23.58 14.21m0 0c4.973-2.08 8.61-5.66 10.91-10.74.14-.32.047-.543-.28-.67l-6.17-2.31m0 0-2.29-1.21m0 0c-19.39-11.3-19.96-36.61.91-46.7.44-.213.427-.387-.04-.52-6.28-1.81-10.49-3.11-14.3-8.14-6.45-8.52 2.2-17.3 9.97-19.89.373-.12.423-.323.15-.61-5.31-5.39-12.83-6.83-19.25-2.43-9.16 6.28-13.18 23.71-13.53 34.26-.51 15.59 2.39 31.09 10.34 44.75"/><path stroke="#FFEF9B" stroke-width="2" d="M507.25 194.54c-4.94 3.8-8.34 1.25-12.7-1.37-.807-.487-.897-.38-.27.32 3.73 4.18 10.79 7.63 15.26 2.26m-4.46 13.72c-7.413-.747-13.207-3.39-17.38-7.93-2.933-3.187-5-5.28-6.2-6.28"/><path stroke="#E30002" stroke-width="2" d="M372.07 195.37c4.71 10.35 15.82 24.29 28.47 24.67 7.947.24 13.97-3.393 18.07-10.9.18-.32.097-.55-.25-.69-8-3.14-14.46-6.99-18.84-14.46-8.8-15.01-1.97-29.07 9.74-39.66.44-.393.363-.57-.23-.53-5.58.38-11.1.17-15.79-2.93-7.67-5.08-6.54-13.8-1.35-20.18a.536.536 0 0 0-.107-.775.556.556 0 0 0-.273-.105c-16.54-1.5-24.37 15.68-25.46 29.71-1.013 12.873.993 24.823 6.02 35.85Zm116.18 80.17-3.06 1.02c-.393.133-.523.393-.39.78l1.41 4.16m0 0c1.553 4.507 4.233 8.187 8.04 11.04m0 0c5.667 4.333 11.583 4.667 17.75 1"/><path stroke="#E30002" stroke-width="2" d="M512 293.54c12.33-8.35 14.21-25.36 8.51-38.12-.16-.36-.4-.427-.72-.2-10.45 7.25-19.82 15.13-31.54 20.32"/><path stroke="#FFEF9B" stroke-width="2" d="M512 293.54c-3.62-.033-6.77-1.203-9.45-3.51-.273-.233-.553-.243-.84-.03-2.22 1.607-4.707 2.453-7.46 2.54m-8.04-11.04 2.1-1.04c.353-.173.46-.447.32-.82a7.664 7.664 0 0 1-.38-4.1"/><path stroke="#E30002" stroke-width="2" d="M443.11 299.4c15.86 13.6 35.37-.73 31.14-19.52-.073-.32-.27-.45-.59-.39-11.453 1.973-22.513.717-33.18-3.77-1.36-.573-3.58-.71-6.66-.41-.34.033-.52.22-.54.56-.58 9.567 2.697 17.41 9.83 23.53Zm185.6 65.35c1.033 1.193 2.277 1.173 3.73-.06 8.26-7.04 12.983-15.617 14.17-25.73"/><path stroke="#E30002" stroke-width="2" d="M646.61 338.96c1.37-8.28-3.79-16.52-13.14-11.7-3.85 1.98-1.84 6.19.11 8.97.327.473.203.737-.37.79l-10.47.92c-.567.047-.757-.197-.57-.73l.7-2c.093-.26.113-.527.06-.8-1.76-8.96-15.3-12.12-17.41-3.47-3.19 13.16 14.2 27.53 23.19 33.81"/><path stroke="#FFEF9B" stroke-width="2" d="M646.61 338.96c-2.373 6.287-5.62 12.6-9.74 18.94-2.1 3.24-4.82 5.523-8.16 6.85"/><path fill="#E30002" d="M495.69 649H351.44c-.693-.5-1.093-1.397-1.2-2.69-1.83-21.7 5.45-42.48 22.79-55.63 25.48-19.32 59.87-15.39 84.89 2.25a.52.52 0 0 0 .77-.22l30.32-70.96a.35.35 0 0 0-.33-.49c-41.54.633-83.083.937-124.63.91-30.03-.02-42.97-26.65-45.54-52.44-1.687-16.9 2-32.447 11.06-46.64.2-.313.487-.47.86-.47l92.05.5c.149 0 .291-.06.396-.167a.576.576 0 0 0 .164-.403c-.07-28.08-6.33-50.43-23.98-72.37-8.747-10.86-15.21-18.67-19.39-23.43a.97.97 0 0 0-.91-.33c-34.07 5.25-67.45 27.41-91.27 51.71a1.042 1.042 0 0 0-.11 1.33c7.96 11.28 11.32 23.73 5.46 36.62-6.08 13.36-20.35 16.39-31.5 6.9-.287-.247-.557-.233-.81.04-2.06 2.23-15.66 19.18-13.62 22.64a1785.755 1785.755 0 0 0 19.01 31.61 2.228 2.228 0 0 1-.04 2.41c-1.19 1.78-2.69 1.7-3.99.07a652.021 652.021 0 0 1-19.49-25.41.335.335 0 0 0-.138-.112c-.056-.024-.116-.032-.176-.024a.328.328 0 0 0-.266.216c-3.09 8.51-4.55 17.11-6.56 25.87-1.92 8.36-4.35 14.92-11.33 18.88-7.23 4.11-14.4 1.57-19.91-3.78-5.82-5.64-7.68-15.32-7.04-23.15a166.665 166.665 0 0 1 7-36.01.232.232 0 0 0-.094-.259.246.246 0 0 0-.142-.044.262.262 0 0 0-.144.043c-8.6 6.45-9.3 13.58-8.33 23.78.44 4.54-1.093 8.997-4.6 13.37-9.37 11.68-21.45 10.26-31.14.52-10.78-10.82-13.37-26.02-6.04-39.95.853-1.613 2.65-4.33 5.39-8.15.253-.353.173-.6-.24-.74-11.9-4.05-24.12-12.58-20.14-26.75 4.75-16.91 20.31-23.93 36.75-23.37 4.353.147 8.793.35 13.32.61a.895.895 0 0 0 .793-.39.904.904 0 0 0 .077-.88l-4.34-9.56c-.133-.293-.363-.437-.69-.43-14.827.307-27.82-3.6-38.98-11.72-48.3-35.15-57.59-109.03-39.28-161.83 3.47-10.02 9.29-19.72 14.82-29.12 1.093-1.86 2.63-4.123 4.61-6.79 8.52-11.5 17.67-22.54 25.31-34.65 5.58-8.85 10.6-19.77 15.66-29.75a.23.23 0 0 1 .44.11c0 12.75 1.98 26.78 3.34 36.21 1.42 9.84 4.71 20.09 6.84 30.73 6.21 30.97 20.9 58.77 31.44 88.27 2.29 6.41 4.89 13.1 6.08 19.62a158.204 158.204 0 0 1 2.46 22.4c.85 21.85-5.84 50.12-18.98 67.9a.717.717 0 0 0-.07.8l4.19 8.33c.18.367.39.383.63.05a28.028 28.028 0 0 0 2.52-4.4c6.57-14.27 20.18-47.19 41.72-40.09 13.007 4.28 20.627 13.523 22.86 27.73.01.062.038.12.079.168a.342.342 0 0 0 .501.012c21.39-22.9 47.84-43.03 76.77-55.37a.352.352 0 0 0 .201-.415.353.353 0 0 0-.081-.145 6669.99 6669.99 0 0 1-17.71-19.6c-29.387-32.66-51.27-69.763-65.65-111.31-.113-.32-.14-.65-.08-.99.14-.827.11-1.887-.09-3.18-3.9-24.63-4.06-51.45 1.02-76.5 8.71-42.99 42.07-73.32 85.45-79.06 4.11-.55 8.39-1.45 12.47-1.45 21.48.05 42.94.65 64.41.71 48.293.14 96.587.277 144.88.41 2.54.01 5.22.6 7.52.61 9.7.04 19.4.05 29.1.03 20.53-.05 32.24 21.1 33.21 39.42 0 .053.19 1.223.57 3.51.31 1.85-.44 3.65-.51 5.34-.54 14.23-8.19 31-22.47 35.83-2.727.92-6.723 1.383-11.99 1.39-10.433.013-20.86.017-31.28.01a.806.806 0 0 0-.72.39c-8.84 13.94-13.473 28.31-13.9 43.11-.18 5.99-.24 15.04 1.42 21.89 5.82 23.93 17.01 42.06 32.87 60.47a2475.004 2475.004 0 0 0 34.6 39.3 6.585 6.585 0 0 0 2.18 1.59c21.42 9.77 45.62 2.65 52.98-21.25.9-2.927 1.303-6.307 1.21-10.14-.007-.373-.193-.55-.56-.53-5.693.227-10.643-1.113-14.85-4.02-11.33-7.8-12.38-24.99 1.6-31.34.48-.213.51-.48.09-.8-14.22-10.78-24.88-22.88-29.33-40.64-1.3-5.2-1.143-10.343.47-15.43 5.49-17.3 21-13.83 34.79-14.94.38-.027.56-.23.54-.61-.86-15.44-1.34-29.617-1.44-42.53-.09-12.88 2.98-50.62 22.99-49.33 18.21 1.17 19.53 26.86 20.36 39.62.49 7.48-.62 14.93-.58 22.23.027 4.233-.197 8.457-.67 12.67-.04.353.097.447.41.28 5.353-2.86 10.283-3.1 14.79-.72 9.83 5.19 12.64 18.85 13.56 29.09.027.353.217.523.57.51 11.49-.43 16.24 10.19 16.29 19.95.06 11.373-3.873 21.237-11.8 29.59a1.3 1.3 0 0 0-.38.94c-.107 8.327-2.887 15.587-8.34 21.78-.247.287-.317.607-.21.96 4.44 14.74-3.99 21.88-17.7 22.63-.36.02-.533.207-.52.56.8 32.92-18.3 66.58-51.65 74.97-2.61.66-5.29.52-7.99.5a.281.281 0 0 0-.242.14.255.255 0 0 0 .012.27c18.25 27.17 27.89 59.25 31.8 90.77.007.033.117 1.59.33 4.67.15 2.15.81 4.06.65 6.21-1.01 14.24-1.63 26.59-5.32 41.98-2.02 8.407-5.097 16.867-9.23 25.38-1.77 3.66-4.59 6.57-6.24 9.64-11.92 22.27-31.65 40.84-57.62 43.66-1.32.14-2.44-.46-3.65-.45-17.747.187-35.49.407-53.23.66-.407.007-.633.21-.68.61l-9.17 73.55c-.067.54.15.697.65.47 9.873-4.533 20.127-7.603 30.76-9.21 6.92-1.04 13.84-.41 20.76-.14 2.733.107 6.963 1.33 12.69 3.67 21.94 8.99 27.94 29.12 19.96 50.93a1.964 1.964 0 0 0-.1.96c.58 4.02-1.49 6.19-5.58 6.21-66.027.187-111.1.357-135.22.51-.74 0-1.76.17-3.06.51ZM368.64 78.41a.28.28 0 0 0 .21.46c5.74-.1 11.74-.59 17.21-.61 68.22-.293 136.437-.363 204.65-.21 14.53.03 30.35 2.01 37.53-14.29 4.7-10.673 5.057-21.853 1.07-33.54-3.21-9.38-10.46-18.31-21.31-18.23-26.78.193-60.28-.037-100.5-.69-40.13-.65-80.25.04-120.38-.52-6.54-.087-13.073.093-19.6.54-7.5.52-3.96 7.55-1.13 10.43 16.06 16.38 17.9 39.08 2.25 56.66Zm340.5-33.38c-1.18-6.18-7.13-19.22-13.72-7.86-4.19 7.23-6.15 16.52-6.39 24.85-.48 16.227-.15 32.48.99 48.76.027.4.223.517.59.35 5.77-2.71 10.91-5.89 17.49-5.9.373 0 .597-.183.67-.55.86-4.453 1.433-9.68 1.72-15.68.79-16.4 1.47-29.27-1.35-43.97Zm-364.95 44.3c12.54-9.22 27.06-25.82 24.57-41.94a.627.627 0 0 0-.153-.324.664.664 0 0 0-.307-.196c-46.51-12.86-87.67 22.58-95.31 66.73-1.04 6.04-1.373 12.68-1 19.92.71 13.8 2.71 27.01 8.01 40.08 12.947 31.973 30.72 61.087 53.32 87.34 17.55 20.39 48.99 51.97 70.72 78.52 14.26 17.43 24.18 35.86 27.71 58.3 4.97 31.62-.62 73.3-21.51 99.9-6.9 8.79 0 13.79 8.76 13.86 12.65.11 28.32-.46 41.82-.48 51.33-.06 102.7-1.3 154.02-1.04 5.84.033 10.41-.37 13.71-1.21 35.1-8.92 57.38-60.58 59.24-93.01 2.68-46.74-11.09-86.24-38.71-123.3-20.46-27.46-43.74-52.14-65.82-78.23-24.15-28.53-38.57-65.33-29.14-102.8 4.78-18.98-5.49-23.8-22.29-23.69-61.193.387-122.39.877-183.59 1.47-1.33.02-2.56.47-3.89.54-.54.027-.593-.12-.16-.44Zm374.04 58.32c.55 2.76 4.53 15.19 9.29 11.61 10.86-8.19 12.6-28.7 10-41.49-.72-3.55-4.64-14.66-9.86-12.4-3.447 1.487-5.907 4.27-7.38 8.35a1.51 1.51 0 0 0-.04.94c1.51 5.71.98 11.47-1.9 16.61-2.36 4.22-.9 12.42-.11 16.38Zm7.86 43.33a.782.782 0 0 1-.29-1.215.776.776 0 0 1 .4-.255c4.307-1.113 8.473-.8 12.5.94.407.18.693.063.86-.35l3.8-9.24a.541.541 0 0 0-.43-.74c-6.247-.753-10.41-4.08-12.49-9.98-.1-.293-.307-.42-.62-.38l-6.04.87a.44.44 0 0 0-.39.37c-.5 2.587-.22 5.04.84 7.36.207.453.06.673-.44.66l-10.81-.41c-.353-.013-.503-.193-.45-.54 1.5-10.66-1.797-19.497-9.89-26.51-7.91-6.86-15.86-4.93-25.39-7.09-5.14-1.17-6.32-7.57-1.91-9.61 1.067-.493 2.85-.523 5.35-.09 6.727 1.167 12.73.97 18.01-.59 3.78-1.11 10.59-6.05 11.81-10.58 1.93-7.12-2.28-9.36-8.33-6.56-6.99 3.22-13.51 6.88-21.19 7.94-5.04.693-10.32 1.033-15.84 1.02-13.66-.02-13.27 13.46-9.36 22.74 3.553 8.453 8.08 15.253 13.58 20.4 7.78 7.29 17.03 14.8 27.13 18.5.46.167.52.423.18.77l-8.06 8.42c-.3.313-.603.317-.91.01l-2.54-2.55a.988.988 0 0 0-.97-.27c-3.64.86-8.39 1.99-10.29 5.31-3.74 6.53 4.66 12.24 10.63 12.58.313.02.49-.13.53-.45.673-5.247 3.457-8.83 8.35-10.75 10.05-3.94 30.14-4.42 32.36 10.11.053.347.25.54.59.58 9.42 1.15 15.57-7.37 7.97-14.81-2.513-2.46-5.263-4.33-8.25-5.61Zm16.6-21.33c1.62.12 2.897-.267 3.83-1.16 7.387-7.053 10.3-15.97 8.74-26.75-.4-2.71-3.18-7.1-6.55-4.21-.273.24-.43.537-.47.89-.96 8.813-3.943 16.837-8.95 24.07-.2.293-.27.613-.21.96.333 2.187 1.22 4.097 2.66 5.73.253.287.57.443.95.47ZM140.03 333.53c7.06 7.24 11.51 11.7 20.97 12.37 9.36.65 8.81-12.63 8.49-18.61-.16-3.02-1.063-7.263-2.71-12.73-15.32-50.84-21.82-102.55-17.25-155.56.3-3.493-.907-6.55-3.62-9.17a1.498 1.498 0 0 0-.81-.41c-5.59-.88-14.44 13.48-17 17.96-14.967 26.24-21.627 54.393-19.98 84.46 1.62 29.66 10.76 60.03 31.91 81.69Zm43.28-12.85c1.51 4.16 6.83 6.98 11.02 6.49 5.33-.62 7.74-5.05 8.88-9.92 2.84-12.1 4.43-22.28 3.23-34.32-.71-7.1-1.08-14.2-3.31-21.05-11.11-34.2-27.7-65.71-36.19-101.06-.34-1.413-1.117-2.577-2.33-3.49a.982.982 0 0 0-.82-.19c-2.2.453-3.38 1.49-3.54 3.11-.793 7.84-1.21 13.007-1.25 15.5-.753 49.86 7.35 98.17 24.31 144.93Zm482.39-53.96c-7.77 2.94-16.05 15.76-2.37 18.97 16.66 3.9 31.07-6.95 40.29-19.81 7.767-10.82 12.163-22.843 13.19-36.07.29-3.86.21-12.52-2.31-15.64-4.2-5.17-10.5-7.2-16.07-2.73-3.49 2.81-.94 8.37-1.13 12.24-1.027 21.107-11.56 35.453-31.6 43.04Zm-382.68 91.79c-.29 7.5 10.82-.82 12.63-2.3a220.32 220.32 0 0 1 52.59-32.16c3.33-1.45 11.03-7.8 6.45-11.76-5.93-5.14-18.49-2.89-24.99 1.04a246.312 246.312 0 0 0-40.47 30.65c-3.9 3.647-5.97 8.49-6.21 14.53Zm-49.97-2.48c-4.773 8.193-8.16 16.89-10.16 26.09-1.7 7.81-1.33 20.51 6.44 25.3 11.11 6.84 12.81-18.29 14.35-23.62 1.58-5.47 4.08-9.45 7.6-14.33 9.71-13.5 12.88-32.73-7.02-39.37-13.37-4.47-25.77 27.08-31.63 38.65-1.14 2.24-2.92 4.23-4.45 6.27-.213.28-.24.573-.08.88 1.22 2.35 2.46 5.86 5.79 5.01.353-.093.597-.31.73-.65 3.9-9.76 9.953-17.913 18.16-24.46.507-.407.597-.33.27.23Zm44.47 39.25-10.61 15.59a1.06 1.06 0 0 0 .19 1.4c4.71 3.98 13.27 7.7 16.46-.63 5.14-13.42-9.75-33.63-18.56-42.61a.435.435 0 0 0-.154-.103.426.426 0 0 0-.496.153c-3.38 4.76-9.73 12.34-10.8 17.98-2.4 12.65-4.38 31.67-20.87 31.76-.48 0-.607.21-.38.63l7.39 13.6a.52.52 0 0 0 .92-.01c7.93-15.52 21.24-30.31 36.62-38.1a.232.232 0 0 1 .278.056.23.23 0 0 1 .012.284Zm-125.58 14.28c9.86 6.89 20.64 8.82 32.5 8.01 9.38-.647 16.907-4.687 22.58-12.12 3.12-4.09 6.95-12.23-.19-14.98-9.35-3.6-19.27-4.76-29.82-5.48-11.43-.78-23.93 2.78-28 14.64-1.5 4.39-.84 7.3 2.93 9.93Zm68.9 19.19c-3.11 4.82-6.53 9.48-8.12 15-2.78 9.72-8.57 33.03-3.14 41.93 5.07 8.32 12.14 5.15 14.21-2.99 3.37-13.21 5.2-25.38 11.14-38.7a.842.842 0 0 0-.1-.88l-20.96-28.54c-.253-.333-.533-.357-.84-.07-13.72 12.83-22.37 13.86-40.78 13.44a1.434 1.434 0 0 0-.92.3c-13.83 10.53-16.11 29.92-1.01 40.93 5.34 3.9 10.67.75 13.37-4.31 1.6-3.01 1.13-7.02.73-10.42-1.23-10.52 5.65-19.66 14.79-24.4a75.151 75.151 0 0 0 12.7-8.3c.267-.213.537-.217.81-.01l7.96 6.09c.347.26.4.57.16.93Zm124.1 76.31c12.28 9.96 28.67 7.43 41.49-.14 17.13-10.12 28.25-30.63 32.43-50.37 2.45-11.54-3.13-20.8-15.1-20.89-22.593-.187-45.2-.443-67.82-.77a.952.952 0 0 0-.83.44c-1.407 2.127-2.503 4.62-3.29 7.48-5.6 20.17-4.68 49.82 13.12 64.25Zm119.04 110.23c-5.32-7.87-11.56-14.3-20.05-18.75-10.64-5.57-24.04-9.3-36.18-8.15-28.21 2.68-45.8 21.67-47.42 49.46a.452.452 0 0 0 .127.338.456.456 0 0 0 .333.142l130.03-.28a.48.48 0 0 0 .47-.37l27.53-110.67c.093-.373-.05-.55-.43-.53-13.733.807-23.273 7.48-28.62 20.02-6.033 14.147-12.067 28.287-18.1 42.42-3.14 7.353-2.303 13.92 2.51 19.7.233.28.197.52-.11.72l-9.37 6.1c-.293.187-.533.137-.72-.15Zm74.57 6.13-8.59-8.58c-.273-.273-.26-.537.04-.79 8.68-7.207 13.837-16.143 15.47-26.81.7-4.553 2.033-15.14 4-31.76 1.44-12.15-8.77-22.42-19.65-25.6-.333-.093-.54.027-.62.36l-27.15 109.23c-.087.353.05.53.41.53h126.52a.809.809 0 0 0 .75-.51c4.55-11.57 4.31-26.66-7.05-34.45-21.22-14.57-61.27-4.24-77.88 12.76a426.063 426.063 0 0 0-5.39 5.61c-.28.3-.567.303-.86.01Z"/><path fill="#FFEF9B" d="M368.64 78.41c15.65-17.58 13.81-40.28-2.25-56.66-2.83-2.88-6.37-9.91 1.13-10.43 6.527-.447 13.06-.627 19.6-.54 40.13.56 80.25-.13 120.38.52 40.22.653 73.72.883 100.5.69 10.85-.08 18.1 8.85 21.31 18.23 3.987 11.687 3.63 22.867-1.07 33.54-7.18 16.3-23 14.32-37.53 14.29-68.213-.153-136.43-.083-204.65.21-5.47.02-11.47.51-17.21.61a.282.282 0 0 1-.25-.164.281.281 0 0 1 .04-.296Z"/><path fill="#fff" d="M695.42 37.17c6.59-11.36 12.54 1.68 13.72 7.86 2.82 14.7 2.14 27.57 1.35 43.97-.287 6-.86 11.227-1.72 15.68-.073.367-.297.55-.67.55-6.58.01-11.72 3.19-17.49 5.9-.367.167-.563.05-.59-.35a490.138 490.138 0 0 1-.99-48.76c.24-8.33 2.2-17.62 6.39-24.85Z"/><path fill="#FFEF9B" d="M344.35 89.77c1.33-.07 2.56-.52 3.89-.54 61.2-.593 122.397-1.083 183.59-1.47 16.8-.11 27.07 4.71 22.29 23.69-9.43 37.47 4.99 74.27 29.14 102.8 22.08 26.09 45.36 50.77 65.82 78.23 27.62 37.06 41.39 76.56 38.71 123.3-1.86 32.43-24.14 84.09-59.24 93.01-3.3.84-7.87 1.243-13.71 1.21-51.32-.26-102.69.98-154.02 1.04-13.5.02-29.17.59-41.82.48-8.76-.07-15.66-5.07-8.76-13.86 20.89-26.6 26.48-68.28 21.51-99.9-3.53-22.44-13.45-40.87-27.71-58.3-21.73-26.55-53.17-58.13-70.72-78.52-22.6-26.253-40.373-55.367-53.32-87.34-5.3-13.07-7.3-26.28-8.01-40.08-.373-7.24-.04-13.88 1-19.92 7.64-44.15 48.8-79.59 95.31-66.73a.664.664 0 0 1 .307.196.627.627 0 0 1 .153.324c2.49 16.12-12.03 32.72-24.57 41.94-.433.32-.38.467.16.44Zm138.09 123.04c12.547 10.9 24.5 10.973 35.86.22 14.73-13.94 16.4-42.6 12.87-61.04-.22-1.17.49-2.4-.05-3.91-3.95-10.99-6.65-20.64-14.22-30.73-6.33-8.44-17.15-15.98-28.21-13.88-22.37 4.25-28.71 35.54-27.89 53.78.9 20.04 6.66 42.55 21.64 55.56Zm-74.737 17.169c4.983-1.132 9.594-3.675 13.569-7.485 3.976-3.809 7.239-8.81 9.602-14.717 2.363-5.906 3.781-12.603 4.172-19.708.391-7.105-.252-14.479-1.893-21.7-3.313-14.584-10.489-27.662-19.947-36.358-9.459-8.695-20.426-12.296-30.489-10.01-4.983 1.132-9.594 3.675-13.569 7.485-3.976 3.809-7.239 8.81-9.602 14.717-2.363 5.906-3.781 12.603-4.172 19.708-.391 7.105.252 14.479 1.893 21.7 3.313 14.584 10.489 27.662 19.947 36.358 9.459 8.695 20.426 12.296 30.489 10.01Zm46.587-20.439c7.507 3.987 11.903 9.907 13.19 17.76 1.03 6.27-2.7 12.95-9.99 11.43-6.64-1.38-12.49-8.43-15.6-14.08-.16-.3-.343-.313-.55-.04l-8.33 10.9a.517.517 0 0 0-.102.362.498.498 0 0 0 .172.328c11.24 9.7 35.64 21.86 43.74.39 4.82-12.74-5.51-29.11-14.94-37.9-.213-.207-.41-.19-.59.05l-7.28 9.5c-.42.547-.327.98.28 1.3Zm-43.04 72.25c-7.63 18.67 6.03 37.98 22.07 46.64 23.31 12.57 48.46 15.37 74.32 10.78 29.55-5.25 62.78-25.21 60.54-60.01-1.2-18.42-8.88-38.84-30.09-40.25-20.02-1.34-34.2 17.61-50.56 25.38-12.98 6.167-26.58 7.063-40.8 2.69-15.35-4.71-29.07-.91-35.48 14.77Zm214.16 39.96c-4.79-3.3-11.04-5.74-16.88-3.96-8.973 2.747-12.723 8.91-11.25 18.49 2.49 16.23 19.11 31.08 32.84 38.37.32.173.627.153.92-.06 7.853-5.66 14.427-12.517 19.72-20.57 5.64-8.58 6.86-22.95.23-31.25-6.04-7.57-17.38-6.92-24.75-1.05-.273.213-.55.223-.83.03Zm-73.77 63.46c-6.2 6.36-12.6 11.1-16.42 19.49-3.09 6.79-3.8 20.73 6.67 21.37 2.19.13 3.95-1.09 5.76-2.23.34-.213.603-.143.79.21 3.42 6.5 9.91 4.22 12.77-1.19.173-.327.4-.37.68-.13 5.04 4.38 11.4 1.71 14.76-3.17.207-.3.483-.503.83-.61 2.693-.8 4.853-2.363 6.48-4.69.26-.367.587-.443.98-.23 4.173 2.233 8.603 2.837 13.29 1.81.527-.12.687.07.48.57-3.51 8.63 5.74 11.52 12.06 9.69 9.487-2.733 18.977-5.44 28.47-8.12 3.7-1.04 9.37-1.53 14.23-1.12 4.22.36 5.7-5.16 3.01-7.46-6.31-5.39-39.04 5.76-47.06 8.23a.397.397 0 0 1-.455-.183.4.4 0 0 1 .065-.487c2.81-2.74 5.79-3.07 9.25-4.6 7.03-3.1 3.46-10.44-3.29-8.87a962.05 962.05 0 0 1-17.42 3.86c-7.373 1.56-11.183-1.3-11.43-8.58-.14-4.32-7.55-5.55-8.93-.42-.89 3.29 2.36 7.2.05 10.27-.213.287-.49.363-.83.23-5.62-2.34-6.66 2.28-7.14 6.48-.033.307-.203.437-.51.39l-.46-.06c-.433-.067-.663-.32-.69-.76-.247-3.827.077-8.79.97-14.89.91-6.18-7.24-7.01-8.39-2.27a245.023 245.023 0 0 1-5.21 18.29.324.324 0 0 1-.341.229.338.338 0 0 1-.203-.091.351.351 0 0 1-.106-.198c-.54-4.07-.22-13.11-5.11-14.17a1.513 1.513 0 0 0-1.05.14c-.18.087-.36.1-.54.04-.36-.133-.407-.34-.14-.62 4.74-4.97 18.37-14.38 12.14-22.56-4.58-6.01-16.56-1.23-21.63 1.66-4.547 2.593-7.957 6.18-10.23 10.76-3.33 6.7 4.25 10.38 6.39 6.2 3.78-7.387 9.523-11.607 17.23-12.66.513-.073.59.077.23.45Zm-69 23.68c.9-3.207.493-6.173-1.22-8.9a1.808 1.808 0 0 0-.92-.74c-3.86-1.433-6.607-.287-8.24 3.44-.093.22-.26.323-.5.31-.1 0-.203.007-.31.02-.387.047-.517-.113-.39-.48 1.77-5.29 5.65-17.95-1.37-21.28-5.78-2.74-11.18 4.27-13.21 9.24-3.473 8.48-4 17.16-1.58 26.04.087.327.043.633-.13.92-2.43 3.93-7.17 10.24-3.75 12.95 4.67 3.69 7.35-2.14 9.2-5.19.2-.327.46-.383.78-.17 2.26 1.527 4.76 2.173 7.5 1.94.36-.033.587.127.68.48.613 2.393 1.247 3.897 1.9 4.51 8.07 7.52 14.72-5.81 16.9-12.36.173-.527.417-.563.73-.11 2.28 3.34 5.06 3.743 8.34 1.21.287-.22.537-.183.75.11 1.86 2.593 4.157 2.983 6.89 1.17.327-.22.593-.493.8-.82l.95-1.51c.347-.54.637-.513.87.08 2.06 5.17 1.51 8.62 7.59 10.7 5.9 2.03 9.53-7.57 1.77-10.06-.347-.113-.53-.35-.55-.71l-.17-2.49a1.84 1.84 0 0 0-.37-.99c-3.01-4.02-4.91-10.9-11.82-6.75-.3.18-.527.117-.68-.19-2.113-4.113-5.187-4.87-9.22-2.27-.28.18-.527.147-.74-.1-4.38-5.09-7.1-1.05-9.9 2.31-.667.793-.86.69-.58-.31Zm184.72 5.55a4.32 4.32 0 1 0-8.64 0 4.32 4.32 0 0 0 8.64 0Zm-193.01 64.4c-2.873 3.893-2.427 7.18 1.34 9.86.28.2.593.3.94.3 2.3.01 4.27.27 6.44-.72 8.41-3.81 13.52-8.78 20.14-14.04.287-.227.52-.183.7.13 2.23 3.9 8.64 12.55 13.89 11.74 4.513-.7 9.65-2.82 15.41-6.36.353-.213.627-.133.82.24 2.34 4.573 5.943 5.8 10.81 3.68a.957.957 0 0 1 1.01.1c2.71 1.95 4.81 1.51 7.85-.04a70.21 70.21 0 0 1 9.98-4.15c10.39-3.4 2.94-14.9-2.77-8.06a1.37 1.37 0 0 1-.73.45 40.852 40.852 0 0 0-9.3 3.51c-.333.18-.647.153-.94-.08-2.633-2.08-5.31-2.087-8.03-.02-.3.233-.523.173-.67-.18-3.46-8.41-11.96-3.37-16.82-.3a.432.432 0 0 1-.638-.25.42.42 0 0 1 .008-.26c1.7-4.54 3.56-13.46-2.48-15.69-5.14-1.89-9.68 3.65-11.28 7.94-.14.36-.363.427-.67.2-7.96-5.94-15.79 4.34-21.63 8.99a.326.326 0 0 1-.195.065.327.327 0 0 1-.317-.229.33.33 0 0 1 .002-.206c1.61-4.65-.58-11.48-6.57-10.58-1.227.18-3.033 1.007-5.42 2.48a161.256 161.256 0 0 1-15.66 8.53.93.93 0 0 1-1.32-.84v-1.42c0-.353.1-.673.3-.96 4.13-6.11 11.68-20.22 9.67-26.81-1.52-4.98-7.19-5.01-10.06-1.15-5.06 6.81-7.48 16.48-9.13 26.03-.24 1.39-1.22 2.56-2 3.68-.2.287-.47.463-.81.53-11.4 2.3-2.11 15.97 5.37 6.99.24-.293.507-.32.8-.08 7.18 5.77 15.01-.16 21.53-3.53.86-.447 1.003-.277.43.51Zm138.76-6.62c-1.74-9.76-9.61-4.27-13 .02a.425.425 0 0 1-.227.143.426.426 0 0 1-.533-.453c.46-5.66 1.13-11.31 2.01-16.95.76-4.85.52-11.82-5.15-12.63-12.86-1.82-19.07 26.6-20.67 34.9-1.26 6.54 7.8 6.78 8.58 1.27 1.227-8.667 3.89-16.81 7.99-24.43a.49.49 0 0 1 .92.33c-1.32 6.6-6.34 30.39 7.98 27.91 1.173-.2 2.76-1.477 4.76-3.83.253-.307.507-.307.76 0 4.81 5.9 10.83 1.86 16.33-.08.307-.107.603-.077.89.09 2.32 1.393 4.88 1.77 7.68 1.13a47.128 47.128 0 0 1 14.35-1.03c8.05.65 7.87-7.91 1.96-8.56-5.32-.58-11-.217-17.04 1.09-.347.073-.627-.03-.84-.31-3.49-4.52-11.88.19-16.09 1.77-.373.14-.593.013-.66-.38Z"/><path fill="#E30002" d="M482.44 212.81c-14.98-13.01-20.74-35.52-21.64-55.56-.82-18.24 5.52-49.53 27.89-53.78 11.06-2.1 21.88 5.44 28.21 13.88 7.57 10.09 10.27 19.74 14.22 30.73.54 1.51-.17 2.74.05 3.91 3.53 18.44 1.86 47.1-12.87 61.04-11.36 10.753-23.313 10.68-35.86-.22Zm-.94-17.55c4.16 8.07 13.74 17.86 23.58 14.21 4.973-2.08 8.61-5.66 10.91-10.74.14-.32.047-.543-.28-.67l-6.17-2.31-2.29-1.21c-19.39-11.3-19.96-36.61.91-46.7.44-.213.427-.387-.04-.52-6.28-1.81-10.49-3.11-14.3-8.14-6.45-8.52 2.2-17.3 9.97-19.89.373-.12.423-.323.15-.61-5.31-5.39-12.83-6.83-19.25-2.43-9.16 6.28-13.18 23.71-13.53 34.26-.51 15.59 2.39 31.09 10.34 44.75Z"/><path fill="#fff" d="M727.52 159.26c-4.76 3.58-8.74-8.85-9.29-11.61-.79-3.96-2.25-12.16.11-16.38 2.88-5.14 3.41-10.9 1.9-16.61a1.51 1.51 0 0 1 .04-.94c1.473-4.08 3.933-6.863 7.38-8.35 5.22-2.26 9.14 8.85 9.86 12.4 2.6 12.79.86 33.3-10 41.49Zm-220.27 35.28c-4.94 3.8-8.34 1.25-12.7-1.37-.807-.487-.897-.38-.27.32 3.73 4.18 10.79 7.63 15.26 2.26l6.17 2.31c.327.127.42.35.28.67-2.3 5.08-5.937 8.66-10.91 10.74-7.413-.747-13.207-3.39-17.38-7.93-2.933-3.187-5-5.28-6.2-6.28-7.95-13.66-10.85-29.16-10.34-44.75.35-10.55 4.37-27.98 13.53-34.26 6.42-4.4 13.94-2.96 19.25 2.43.273.287.223.49-.15.61-7.77 2.59-16.42 11.37-9.97 19.89 3.81 5.03 8.02 6.33 14.3 8.14.467.133.48.307.04.52-20.87 10.09-20.3 35.4-.91 46.7Z"/><path fill="#fff" d="M726.09 190.98c2.987 1.28 5.737 3.15 8.25 5.61 7.6 7.44 1.45 15.96-7.97 14.81-.34-.04-.537-.233-.59-.58-2.22-14.53-22.31-14.05-32.36-10.11-4.893 1.92-7.677 5.503-8.35 10.75-.04.32-.217.47-.53.45-5.97-.34-14.37-6.05-10.63-12.58 1.9-3.32 6.65-4.45 10.29-5.31a.988.988 0 0 1 .97.27l2.54 2.55c.307.307.61.303.91-.01l8.06-8.42c.34-.347.28-.603-.18-.77-10.1-3.7-19.35-11.21-27.13-18.5-5.5-5.147-10.027-11.947-13.58-20.4-3.91-9.28-4.3-22.76 9.36-22.74 5.52.013 10.8-.327 15.84-1.02 7.68-1.06 14.2-4.72 21.19-7.94 6.05-2.8 10.26-.56 8.33 6.56-1.22 4.53-8.03 9.47-11.81 10.58-5.28 1.56-11.283 1.757-18.01.59-2.5-.433-4.283-.403-5.35.09-4.41 2.04-3.23 8.44 1.91 9.61 9.53 2.16 17.48.23 25.39 7.09 8.093 7.013 11.39 15.85 9.89 26.51-.053.347.097.527.45.54l10.81.41c.5.013.647-.207.44-.66-1.06-2.32-1.34-4.773-.84-7.36a.44.44 0 0 1 .39-.37l6.04-.87c.313-.04.52.087.62.38 2.08 5.9 6.243 9.227 12.49 9.98a.541.541 0 0 1 .43.74l-3.8 9.24c-.167.413-.453.53-.86.35-4.027-1.74-8.193-2.053-12.5-.94a.776.776 0 0 0-.578.696.78.78 0 0 0 .468.774Z"/><path fill="#E30002" d="M407.703 229.979c-10.063 2.286-21.03-1.315-30.489-10.01-9.458-8.696-16.634-21.774-19.947-36.358-1.641-7.221-2.284-14.595-1.893-21.7.391-7.105 1.809-13.802 4.172-19.708 2.363-5.907 5.626-10.908 9.602-14.717 3.975-3.81 8.586-6.353 13.569-7.485 4.983-1.132 10.24-.831 15.471.887 5.232 1.718 10.335 4.818 15.018 9.124 4.683 4.305 8.855 9.732 12.278 15.971 3.422 6.238 6.028 13.166 7.669 20.387 3.313 14.584 2.493 29.479-2.279 41.408-4.773 11.929-13.108 19.915-23.171 22.201ZM372.07 195.37c4.71 10.35 15.82 24.29 28.47 24.67 7.947.24 13.97-3.393 18.07-10.9.18-.32.097-.55-.25-.69-8-3.14-14.46-6.99-18.84-14.46-8.8-15.01-1.97-29.07 9.74-39.66.44-.393.363-.57-.23-.53-5.58.38-11.1.17-15.79-2.93-7.67-5.08-6.54-13.8-1.35-20.18a.536.536 0 0 0-.107-.775.556.556 0 0 0-.273-.105c-16.54-1.5-24.37 15.68-25.46 29.71-1.013 12.873.993 24.823 6.02 35.85Z"/><path fill="#fff" d="M400.54 220.04c-12.65-.38-23.76-14.32-28.47-24.67-5.027-11.027-7.033-22.977-6.02-35.85 1.09-14.03 8.92-31.21 25.46-29.71a.552.552 0 0 1 .494.617.536.536 0 0 1-.114.263c-5.19 6.38-6.32 15.1 1.35 20.18 4.69 3.1 10.21 3.31 15.79 2.93.593-.04.67.137.23.53-11.71 10.59-18.54 24.65-9.74 39.66 4.38 7.47 10.84 11.32 18.84 14.46.347.14.43.37.25.69-4.1 7.507-10.123 11.14-18.07 10.9Zm341.2-50.86c-1.44-1.633-2.327-3.543-2.66-5.73-.06-.347.01-.667.21-.96 5.007-7.233 7.99-15.257 8.95-24.07.04-.353.197-.65.47-.89 3.37-2.89 6.15 1.5 6.55 4.21 1.56 10.78-1.353 19.697-8.74 26.75-.933.893-2.21 1.28-3.83 1.16a1.348 1.348 0 0 1-.95-.47ZM140.03 333.53c-21.15-21.66-30.29-52.03-31.91-81.69-1.647-30.067 5.013-58.22 19.98-84.46 2.56-4.48 11.41-18.84 17-17.96.313.053.583.19.81.41 2.713 2.62 3.92 5.677 3.62 9.17-4.57 53.01 1.93 104.72 17.25 155.56 1.647 5.467 2.55 9.71 2.71 12.73.32 5.98.87 19.26-8.49 18.61-9.46-.67-13.91-5.13-20.97-12.37Zm54.3-6.36c-4.19.49-9.51-2.33-11.02-6.49-16.96-46.76-25.063-95.07-24.31-144.93.04-2.493.457-7.66 1.25-15.5.16-1.62 1.34-2.657 3.54-3.11.3-.06.573.003.82.19 1.213.913 1.99 2.077 2.33 3.49 8.49 35.35 25.08 66.86 36.19 101.06 2.23 6.85 2.6 13.95 3.31 21.05 1.2 12.04-.39 22.22-3.23 34.32-1.14 4.87-3.55 9.3-8.88 9.92Z"/><path fill="#FFEF9B" d="m507.25 194.54 2.29 1.21c-4.47 5.37-11.53 1.92-15.26-2.26-.627-.7-.537-.807.27-.32 4.36 2.62 7.76 5.17 12.7 1.37Zm-25.75.72c1.2 1 3.267 3.093 6.2 6.28 4.173 4.54 9.967 7.183 17.38 7.93-9.84 3.65-19.42-6.14-23.58-14.21Z"/><path fill="#E30002" d="M454.29 209.54c-.607-.32-.7-.753-.28-1.3l7.28-9.5c.18-.24.377-.257.59-.05 9.43 8.79 19.76 25.16 14.94 37.9-8.1 21.47-32.5 9.31-43.74-.39a.498.498 0 0 1-.172-.328.517.517 0 0 1 .102-.362l8.33-10.9c.207-.273.39-.26.55.04 3.11 5.65 8.96 12.7 15.6 14.08 7.29 1.52 11.02-5.16 9.99-11.43-1.287-7.853-5.683-13.773-13.19-17.76Z"/><path fill="#FFEF9B" d="M663.33 285.69c-13.68-3.21-5.4-16.03 2.37-18.97 20.04-7.587 30.573-21.933 31.6-43.04.19-3.87-2.36-9.43 1.13-12.24 5.57-4.47 11.87-2.44 16.07 2.73 2.52 3.12 2.6 11.78 2.31 15.64-1.027 13.227-5.423 25.25-13.19 36.07-9.22 12.86-23.63 23.71-40.29 19.81Z"/><path fill="#E30002" d="M433.32 328.43c-16.04-8.66-29.7-27.97-22.07-46.64 6.41-15.68 20.13-19.48 35.48-14.77 14.22 4.373 27.82 3.477 40.8-2.69 16.36-7.77 30.54-26.72 50.56-25.38 21.21 1.41 28.89 21.83 30.09 40.25 2.24 34.8-30.99 54.76-60.54 60.01-25.86 4.59-51.01 1.79-74.32-10.78Zm54.93-52.89-3.06 1.02c-.393.133-.523.393-.39.78l1.41 4.16c1.553 4.507 4.233 8.187 8.04 11.04 5.667 4.333 11.583 4.667 17.75 1 12.33-8.35 14.21-25.36 8.51-38.12-.16-.36-.4-.427-.72-.2-10.45 7.25-19.82 15.13-31.54 20.32Zm-45.14 23.86c15.86 13.6 35.37-.73 31.14-19.52-.073-.32-.27-.45-.59-.39-11.453 1.973-22.513.717-33.18-3.77-1.36-.573-3.58-.71-6.66-.41-.34.033-.52.22-.54.56-.58 9.567 2.697 17.41 9.83 23.53Z"/><path fill="#fff" d="M512 293.54c-3.62-.033-6.77-1.203-9.45-3.51-.273-.233-.553-.243-.84-.03-2.22 1.607-4.707 2.453-7.46 2.54-3.807-2.853-6.487-6.533-8.04-11.04l2.1-1.04c.353-.173.46-.447.32-.82a7.664 7.664 0 0 1-.38-4.1c11.72-5.19 21.09-13.07 31.54-20.32.32-.227.56-.16.72.2 5.7 12.76 3.82 29.77-8.51 38.12Zm-68.89 5.86c-7.133-6.12-10.41-13.963-9.83-23.53.02-.34.2-.527.54-.56 3.08-.3 5.3-.163 6.66.41 10.667 4.487 21.727 5.743 33.18 3.77.32-.06.517.07.59.39 4.23 18.79-15.28 33.12-31.14 19.52Z"/><path fill="#FFEF9B" d="M488.25 275.54a7.664 7.664 0 0 0 .38 4.1c.14.373.033.647-.32.82l-2.1 1.04-1.41-4.16c-.133-.387-.003-.647.39-.78l3.06-1.02Zm23.75 18c-6.167 3.667-12.083 3.333-17.75-1 2.753-.087 5.24-.933 7.46-2.54.287-.213.567-.203.84.03 2.68 2.307 5.83 3.477 9.45 3.51Zm-216.35 62.67c-1.81 1.48-12.92 9.8-12.63 2.3.24-6.04 2.31-10.883 6.21-14.53a246.312 246.312 0 0 1 40.47-30.65c6.5-3.93 19.06-6.18 24.99-1.04 4.58 3.96-3.12 10.31-6.45 11.76a220.32 220.32 0 0 0-52.59 32.16Z"/><path fill="#E30002" d="M626.24 321.72c7.37-5.87 18.71-6.52 24.75 1.05 6.63 8.3 5.41 22.67-.23 31.25-5.293 8.053-11.867 14.91-19.72 20.57-.293.213-.6.233-.92.06-13.73-7.29-30.35-22.14-32.84-38.37-1.473-9.58 2.277-15.743 11.25-18.49 5.84-1.78 12.09.66 16.88 3.96.28.193.557.183.83-.03Zm2.47 43.03c1.033 1.193 2.277 1.173 3.73-.06 8.26-7.04 12.983-15.617 14.17-25.73 1.37-8.28-3.79-16.52-13.14-11.7-3.85 1.98-1.84 6.19.11 8.97.327.473.203.737-.37.79l-10.47.92c-.567.047-.757-.197-.57-.73l.7-2c.093-.26.113-.527.06-.8-1.76-8.96-15.3-12.12-17.41-3.47-3.19 13.16 14.2 27.53 23.19 33.81Z"/><path fill="#fff" d="M646.61 338.96c-2.373 6.287-5.62 12.6-9.74 18.94-2.1 3.24-4.82 5.523-8.16 6.85-8.99-6.28-26.38-20.65-23.19-33.81 2.11-8.65 15.65-5.49 17.41 3.47.053.273.033.54-.06.8l-.7 2c-.187.533.003.777.57.73l10.47-.92c.573-.053.697-.317.37-.79-1.95-2.78-3.96-6.99-.11-8.97 9.35-4.82 14.51 3.42 13.14 11.7ZM232.78 355.8c-8.207 6.547-14.26 14.7-18.16 24.46-.133.34-.377.557-.73.65-3.33.85-4.57-2.66-5.79-5.01-.16-.307-.133-.6.08-.88 1.53-2.04 3.31-4.03 4.45-6.27 5.86-11.57 18.26-43.12 31.63-38.65 19.9 6.64 16.73 25.87 7.02 39.37-3.52 4.88-6.02 8.86-7.6 14.33-1.54 5.33-3.24 30.46-14.35 23.62-7.77-4.79-8.14-17.49-6.44-25.3 2-9.2 5.387-17.897 10.16-26.09.327-.56.237-.637-.27-.23Z"/><path fill="#FFEF9B" d="M646.61 338.96c-1.187 10.113-5.91 18.69-14.17 25.73-1.453 1.233-2.697 1.253-3.73.06 3.34-1.327 6.06-3.61 8.16-6.85 4.12-6.34 7.367-12.653 9.74-18.94Z"/><path fill="#fff" d="M277.52 395.28a.23.23 0 0 0-.141-.36.232.232 0 0 0-.149.02c-15.38 7.79-28.69 22.58-36.62 38.1a.525.525 0 0 1-.457.283.517.517 0 0 1-.463-.273l-7.39-13.6c-.227-.42-.1-.63.38-.63 16.49-.09 18.47-19.11 20.87-31.76 1.07-5.64 7.42-13.22 10.8-17.98a.428.428 0 0 1 .313-.18.439.439 0 0 1 .183.027.435.435 0 0 1 .154.103c8.81 8.98 23.7 29.19 18.56 42.61-3.19 8.33-11.75 4.61-16.46.63a1.059 1.059 0 0 1-.19-1.4l10.61-15.59Z"/><path fill="#E30002" d="M551.41 384.76c-7.707 1.053-13.45 5.273-17.23 12.66-2.14 4.18-9.72.5-6.39-6.2 2.273-4.58 5.683-8.167 10.23-10.76 5.07-2.89 17.05-7.67 21.63-1.66 6.23 8.18-7.4 17.59-12.14 22.56-.267.28-.22.487.14.62.18.06.36.047.54-.04.333-.173.683-.22 1.05-.14 4.89 1.06 4.57 10.1 5.11 14.17a.345.345 0 0 0 .309.289.324.324 0 0 0 .341-.229 245.023 245.023 0 0 0 5.21-18.29c1.15-4.74 9.3-3.91 8.39 2.27-.893 6.1-1.217 11.063-.97 14.89.027.44.257.693.69.76l.46.06c.307.047.477-.083.51-.39.48-4.2 1.52-8.82 7.14-6.48.34.133.617.057.83-.23 2.31-3.07-.94-6.98-.05-10.27 1.38-5.13 8.79-3.9 8.93.42.247 7.28 4.057 10.14 11.43 8.58a962.05 962.05 0 0 0 17.42-3.86c6.75-1.57 10.32 5.77 3.29 8.87-3.46 1.53-6.44 1.86-9.25 4.6a.403.403 0 0 0-.065.487.397.397 0 0 0 .455.183c8.02-2.47 40.75-13.62 47.06-8.23 2.69 2.3 1.21 7.82-3.01 7.46-4.86-.41-10.53.08-14.23 1.12a5552.962 5552.962 0 0 0-28.47 8.12c-6.32 1.83-15.57-1.06-12.06-9.69.207-.5.047-.69-.48-.57-4.687 1.027-9.117.423-13.29-1.81-.393-.213-.72-.137-.98.23-1.627 2.327-3.787 3.89-6.48 4.69-.347.107-.623.31-.83.61-3.36 4.88-9.72 7.55-14.76 3.17-.28-.24-.507-.197-.68.13-2.86 5.41-9.35 7.69-12.77 1.19-.187-.353-.45-.423-.79-.21-1.81 1.14-3.57 2.36-5.76 2.23-10.47-.64-9.76-14.58-6.67-21.37 3.82-8.39 10.22-13.13 16.42-19.49.36-.373.283-.523-.23-.45Zm-8.32 23.23a18.59 18.59 0 0 0-1.05 8.31c.053.5.293.617.72.35 2.11-1.36 1.35-6.59 1.16-8.56-.12-1.247-.397-1.28-.83-.1Zm-59.87 1.21c2.8-3.36 5.52-7.4 9.9-2.31.213.247.46.28.74.1 4.033-2.6 7.107-1.843 9.22 2.27.153.307.38.37.68.19 6.91-4.15 8.81 2.73 11.82 6.75.22.293.343.623.37.99l.17 2.49c.02.36.203.597.55.71 7.76 2.49 4.13 12.09-1.77 10.06-6.08-2.08-5.53-5.53-7.59-10.7-.233-.593-.523-.62-.87-.08l-.95 1.51c-.207.327-.473.6-.8.82-2.733 1.813-5.03 1.423-6.89-1.17-.213-.293-.463-.33-.75-.11-3.28 2.533-6.06 2.13-8.34-1.21-.313-.453-.557-.417-.73.11-2.18 6.55-8.83 19.88-16.9 12.36-.653-.613-1.287-2.117-1.9-4.51-.093-.353-.32-.513-.68-.48-2.74.233-5.24-.413-7.5-1.94-.32-.213-.58-.157-.78.17-1.85 3.05-4.53 8.88-9.2 5.19-3.42-2.71 1.32-9.02 3.75-12.95.173-.287.217-.593.13-.92-2.42-8.88-1.893-17.56 1.58-26.04 2.03-4.97 7.43-11.98 13.21-9.24 7.02 3.33 3.14 15.99 1.37 21.28-.127.367.003.527.39.48.107-.013.21-.02.31-.02.24.013.407-.09.5-.31 1.633-3.727 4.38-4.873 8.24-3.44.393.147.7.393.92.74 1.713 2.727 2.12 5.693 1.22 8.9-.28 1-.087 1.103.58.31ZM464.05 397a.547.547 0 0 0-.359-.489.553.553 0 0 0-.591.139c-.44.48-.41.87.09 1.17.413.24.68.13.8-.33.04-.167.06-.33.06-.49Zm1.44 20.77c2.24.6 3.28.1 3.61-2.28a85.88 85.88 0 0 1 2.48-11.81c.353-1.247.173-1.33-.54-.25-1.22 1.83-1.87 4.84-2.51 6.18a211.468 211.468 0 0 1-3.51 7.11.72.72 0 0 0-.02.635.745.745 0 0 0 .49.415Zm14.07.3.38-.38c.12-.127.12-.253 0-.38l-.24-.24c-.113-.107-.207-.093-.28.04l-2.55 4.47c-.093.167-.05.28.13.34.1.033.2.063.3.09.233.067.397-.01.49-.23l1.38-3.15c.093-.213.223-.4.39-.56Z"/><path fill="#fff" d="M151.94 409.56c-3.77-2.63-4.43-5.54-2.93-9.93 4.07-11.86 16.57-15.42 28-14.64 10.55.72 20.47 1.88 29.82 5.48 7.14 2.75 3.31 10.89.19 14.98-5.673 7.433-13.2 11.473-22.58 12.12-11.86.81-22.64-1.12-32.5-8.01Z"/><path fill="#E30002" d="M663.04 418.76a4.32 4.32 0 1 0 0-8.64 4.32 4.32 0 0 0 0 8.64Z"/><path fill="#fff" d="m220.68 427.82-7.96-6.09c-.273-.207-.543-.203-.81.01a75.151 75.151 0 0 1-12.7 8.3c-9.14 4.74-16.02 13.88-14.79 24.4.4 3.4.87 7.41-.73 10.42-2.7 5.06-8.03 8.21-13.37 4.31-15.1-11.01-12.82-30.4 1.01-40.93.273-.207.58-.307.92-.3 18.41.42 27.06-.61 40.78-13.44.307-.287.587-.263.84.07l20.96 28.54c.2.273.233.567.1.88-5.94 13.32-7.77 25.49-11.14 38.7-2.07 8.14-9.14 11.31-14.21 2.99-5.43-8.9.36-32.21 3.14-41.93 1.59-5.52 5.01-10.18 8.12-15 .24-.36.187-.67-.16-.93Z"/><path fill="#FFEF9B" d="M344.94 505.06c-17.8-14.43-18.72-44.08-13.12-64.25.787-2.86 1.883-5.353 3.29-7.48.2-.293.477-.44.83-.44 22.62.327 45.227.583 67.82.77 11.97.09 17.55 9.35 15.1 20.89-4.18 19.74-15.3 40.25-32.43 50.37-12.82 7.57-29.21 10.1-41.49.14Z"/><path fill="#E30002" d="M473.92 478.33c-6.52 3.37-14.35 9.3-21.53 3.53-.293-.24-.56-.213-.8.08-7.48 8.98-16.77-4.69-5.37-6.99.34-.067.61-.243.81-.53.78-1.12 1.76-2.29 2-3.68 1.65-9.55 4.07-19.22 9.13-26.03 2.87-3.86 8.54-3.83 10.06 1.15 2.01 6.59-5.54 20.7-9.67 26.81-.2.287-.3.607-.3.96v1.42a.934.934 0 0 0 .868.924.938.938 0 0 0 .452-.084c5.4-2.567 10.62-5.41 15.66-8.53 2.387-1.473 4.193-2.3 5.42-2.48 5.99-.9 8.18 5.93 6.57 10.58a.337.337 0 0 0-.002.206.338.338 0 0 0 .121.167.337.337 0 0 0 .196.063.334.334 0 0 0 .195-.066c5.84-4.65 13.67-14.93 21.63-8.99.307.227.53.16.67-.2 1.6-4.29 6.14-9.83 11.28-7.94 6.04 2.23 4.18 11.15 2.48 15.69a.428.428 0 0 0 .135.478.43.43 0 0 0 .495.032c4.86-3.07 13.36-8.11 16.82.3.147.353.37.413.67.18 2.72-2.067 5.397-2.06 8.03.02.293.233.607.26.94.08a40.852 40.852 0 0 1 9.3-3.51 1.37 1.37 0 0 0 .73-.45c5.71-6.84 13.16 4.66 2.77 8.06a70.21 70.21 0 0 0-9.98 4.15c-3.04 1.55-5.14 1.99-7.85.04a.957.957 0 0 0-1.01-.1c-4.867 2.12-8.47.893-10.81-3.68-.193-.373-.467-.453-.82-.24-5.76 3.54-10.897 5.66-15.41 6.36-5.25.81-11.66-7.84-13.89-11.74-.18-.313-.413-.357-.7-.13-6.62 5.26-11.73 10.23-20.14 14.04-2.17.99-4.14.73-6.44.72-.347 0-.66-.1-.94-.3-3.767-2.68-4.213-5.967-1.34-9.86.573-.787.43-.957-.43-.51Zm139.85-5.73c4.21-1.58 12.6-6.29 16.09-1.77.213.28.493.383.84.31 6.04-1.307 11.72-1.67 17.04-1.09 5.91.65 6.09 9.21-1.96 8.56a47.128 47.128 0 0 0-14.35 1.03c-2.8.64-5.36.263-7.68-1.13a1.023 1.023 0 0 0-.89-.09c-5.5 1.94-11.52 5.98-16.33.08-.253-.307-.507-.307-.76 0-2 2.353-3.587 3.63-4.76 3.83-14.32 2.48-9.3-21.31-7.98-27.91a.492.492 0 0 0-.665-.582.49.49 0 0 0-.255.252c-4.1 7.62-6.763 15.763-7.99 24.43-.78 5.51-9.84 5.27-8.58-1.27 1.6-8.3 7.81-36.72 20.67-34.9 5.67.81 5.91 7.78 5.15 12.63-.88 5.64-1.55 11.29-2.01 16.95a.428.428 0 0 0 .534.453.426.426 0 0 0 .226-.143c3.39-4.29 11.26-9.78 13-.02.067.393.287.52.66.38Z"/><path fill="#FFEF9B" d="m464.7 615.44 9.37-6.1c.307-.2.343-.44.11-.72-4.813-5.78-5.65-12.347-2.51-19.7 6.033-14.133 12.067-28.273 18.1-42.42 5.347-12.54 14.887-19.213 28.62-20.02.38-.02.523.157.43.53l-27.53 110.67a.48.48 0 0 1-.47.37l-130.03.28a.451.451 0 0 1-.333-.142.452.452 0 0 1-.127-.338c1.62-27.79 19.21-46.78 47.42-49.46 12.14-1.15 25.54 2.58 36.18 8.15 8.49 4.45 14.73 10.88 20.05 18.75.187.287.427.337.72.15Zm74.71 5.97a426.063 426.063 0 0 1 5.39-5.61c16.61-17 56.66-27.33 77.88-12.76 11.36 7.79 11.6 22.88 7.05 34.45a.809.809 0 0 1-.75.51H502.46c-.36 0-.497-.177-.41-.53l27.15-109.23c.08-.333.287-.453.62-.36 10.88 3.18 21.09 13.45 19.65 25.6-1.967 16.62-3.3 27.207-4 31.76-1.633 10.667-6.79 19.603-15.47 26.81-.3.253-.313.517-.04.79l8.59 8.58c.293.293.58.29.86-.01Z"/></g><defs><clipPath id="a"><path fill="#fff" d="M0 0h900v649H0z"/></clipPath></defs></svg>