<svg width="900" height="610" viewBox="0 0 900 610" fill="none" xmlns="http://www.w3.org/2000/svg">
<path d="M472.89 363.39C476.01 377.45 479.273 391.727 482.68 406.22C487 424.63 500.71 428.13 517.26 423.17C522.46 421.61 528.07 418.27 533.2 415.45C572.86 393.64 622.19 380.11 667.51 388.72C689.33 392.86 709.32 403.16 723.21 420.88C723.263 420.947 723.336 420.995 723.418 421.018C723.5 421.041 723.587 421.039 723.667 421.01C723.748 420.981 723.817 420.928 723.866 420.859C723.915 420.789 723.941 420.705 723.94 420.62C723.39 384.33 722.39 347.94 722.08 311.56C721.83 282.44 720.21 253.38 719.68 224.27C719.52 215.32 709.17 209.19 701.73 207.26C698.13 206.32 692.65 206.32 689.46 205.35C682.34 203.183 678.483 198.52 677.89 191.36C677.22 183.18 683.54 176.57 690.53 173.37C690.877 173.21 690.967 172.963 690.8 172.63C673.91 137.92 675.52 96.98 697.22 64.43C697.286 64.3295 697.317 64.2096 697.308 64.0886C697.299 63.9676 697.25 63.8522 697.17 63.76C648.25 7.81002 557.17 -7.86999 495.43 37.09C486.8 43.37 479.15 49.66 473.59 57.83C463.837 72.1367 458.24 88.0233 456.8 105.49C456.803 105.628 456.75 105.761 456.655 105.861C456.559 105.96 456.428 106.017 456.29 106.02C456.152 106.023 456.019 105.97 455.919 105.875C455.82 105.779 455.763 105.648 455.76 105.51C454.1 91.21 449.3 73.2 439.17 62.31C398.95 19.08 327.72 9.00002 272.35 17.54C271.877 17.6134 271.663 17.8867 271.71 18.36L291.12 234.69C291.13 234.8 291.105 234.91 291.049 235.004C290.993 235.099 290.908 235.173 290.807 235.217C290.706 235.26 290.593 235.27 290.486 235.246C290.379 235.221 290.282 235.163 290.21 235.08L259.65 200C259.377 199.68 259.16 199.717 259 200.11L242.68 240.29C242.007 241.943 241.477 241.9 241.09 240.16L198.6 49.78C198.513 49.3867 198.317 49.32 198.01 49.58C186.41 59.36 177.35 74.68 179.06 90.44C191.78 208.147 204.5 325.863 217.22 443.59C217.224 443.622 217.236 443.652 217.255 443.677C217.275 443.703 217.3 443.723 217.33 443.735C217.359 443.747 217.392 443.751 217.423 443.747C217.455 443.742 217.485 443.73 217.51 443.71C276.69 397.7 358.37 384.97 427.39 416.15C438.88 421.34 458.9 429.45 467.08 414.31C468.127 412.383 468.787 409.41 469.06 405.39C470.013 391.477 471.073 377.49 472.24 363.43C472.248 363.352 472.283 363.28 472.34 363.226C472.396 363.171 472.47 363.139 472.548 363.134C472.626 363.129 472.703 363.152 472.766 363.199C472.829 363.246 472.872 363.314 472.89 363.39Z" stroke="#E30002" stroke-width="2"/>
<path d="M747.9 37.95C764.58 46.1634 781.29 46.1934 798.03 38.04C798.091 38.01 798.142 37.9623 798.175 37.9031C798.209 37.8439 798.224 37.7759 798.219 37.7081C798.213 37.6402 798.188 37.5755 798.145 37.5223C798.103 37.4692 798.045 37.4301 797.98 37.41C781.3 32.05 764.62 32.0367 747.94 37.37C747.447 37.53 747.433 37.7234 747.9 37.95Z" stroke="#E30002" stroke-width="2"/>
<path d="M827.91 82.63C830.823 93.6833 832.93 104.81 834.23 116.01C834.27 116.337 834.433 116.423 834.72 116.27C838.593 114.257 842.117 111.75 845.29 108.75" stroke="#E30002" stroke-width="2"/>
<path d="M845.29 108.75C848.99 105.62 854.19 99.22 852.43 94.04C844.87 71.7734 830.98 54.7634 810.76 43.01C809.39 42.21 808.14 42.31 807.46 43.81C807.327 44.1034 807.37 44.3667 807.59 44.6C817.86 55.65 823.15 68.6 827.91 82.63" stroke="#E30002" stroke-width="2"/>
<path d="M845.29 108.75C844.983 108.517 844.81 108.347 844.77 108.24C841.063 98.4333 835.443 89.8967 827.91 82.63" stroke="#FAED9A" stroke-width="2"/>
<path d="M698.5 109.04C702.16 113.127 706.507 116.443 711.54 118.99C711.88 119.163 712.08 119.063 712.14 118.69C714.413 103.37 718.603 88.4733 724.71 74" stroke="#E30002" stroke-width="2"/>
<path d="M724.71 74C729.203 64.36 734.49 55.16 740.57 46.4C740.823 46.04 740.77 45.7367 740.41 45.49L736.5 42.72C736.173 42.4933 735.84 42.48 735.5 42.68C714.973 54.6933 701.16 71.97 694.06 94.51C692.43 99.66 695.23 105.15 698.5 109.04" stroke="#E30002" stroke-width="2"/>
<path d="M724.71 74C712.17 81.55 703.93 95.75 698.5 109.04" stroke="#FAED9A" stroke-width="2"/>
<path d="M780.29 58L781.02 129.95C781.027 130.283 781.197 130.44 781.53 130.42C796.063 129.48 810.17 126.523 823.85 121.55C823.937 121.515 824.012 121.454 824.064 121.376C824.116 121.297 824.142 121.204 824.14 121.11C823.14 102.93 818.927 85.5467 811.5 68.96" stroke="#E30002" stroke-width="2"/>
<path d="M811.5 68.96C808.453 61.68 804.023 55.35 798.21 49.97C797.937 49.7167 797.627 49.6567 797.28 49.79C791.973 51.8234 786.507 53.2334 780.88 54.02C780.487 54.0734 780.29 54.3 780.29 54.7V58" stroke="#E30002" stroke-width="2"/>
<path d="M811.5 68.96C811.07 68.95 811.04 69.08 810.62 68.82C801.247 63.1467 791.137 59.54 780.29 58" stroke="#FAED9A" stroke-width="2"/>
<path d="M741.95 63.36C731.157 81.8067 724.54 101.653 722.1 122.9C722.075 123.132 722.131 123.365 722.259 123.56C722.387 123.755 722.578 123.9 722.8 123.97C738.367 128.83 754.33 131.167 770.69 130.98C770.73 130.98 770.77 130.972 770.807 130.956C770.844 130.941 770.878 130.918 770.906 130.889C770.934 130.86 770.955 130.825 770.97 130.788C770.984 130.75 770.991 130.71 770.99 130.67C770.87 120.57 770.23 110.11 770.26 100.43C770.307 86.2833 770.207 72.14 769.96 58" stroke="#E30002" stroke-width="2"/>
<path d="M769.96 58C770.173 56.9067 770.15 55.8034 769.89 54.69C769.803 54.3034 769.56 54.1034 769.16 54.09C762.9 53.91 756.837 52.73 750.97 50.55C750.643 50.43 750.377 50.5067 750.17 50.78C747.157 54.7534 744.417 58.9467 741.95 63.36" stroke="#E30002" stroke-width="2"/>
<path d="M769.96 58C760.387 58.3467 751.05 60.1333 741.95 63.36" stroke="#FAED9A" stroke-width="2"/>
<path d="M847.75 120.29C843.87 123.003 839.887 125.383 835.8 127.43C835.506 127.579 835.265 127.815 835.11 128.107C834.954 128.398 834.891 128.731 834.93 129.06C836.1 138.91 834.96 148.33 834.8 158.14C834.793 158.493 834.967 158.693 835.32 158.74C839.507 159.3 843.317 160.707 846.75 162.96" stroke="#E30002" stroke-width="2"/>
<path d="M846.75 162.96L849.14 164.7C849.191 164.738 849.251 164.764 849.314 164.776C849.377 164.788 849.442 164.785 849.504 164.767C849.566 164.75 849.623 164.718 849.671 164.676C849.719 164.633 849.756 164.58 849.78 164.52C856.687 147.867 859.03 130.527 856.81 112.5C856.803 112.443 856.781 112.389 856.745 112.344C856.71 112.299 856.662 112.265 856.608 112.245C856.554 112.225 856.496 112.221 856.44 112.232C856.384 112.244 856.332 112.271 856.29 112.31L847.75 120.29" stroke="#E30002" stroke-width="2"/>
<path d="M846.75 162.96C849.303 155.153 850.23 147.207 849.53 139.12C849.01 133.06 849.3 126.53 847.75 120.29" stroke="#FAED9A" stroke-width="2"/>
<path d="M700.46 169C700.61 169.75 701.26 170.08 702.01 169.92C705.677 169.133 709.463 168.88 713.37 169.16C713.717 169.187 713.853 169.027 713.78 168.68C711.127 156.18 710.19 143.55 710.97 130.79C710.99 130.417 710.833 130.153 710.5 130C705.193 127.493 700.29 124.493 695.79 121" stroke="#E30002" stroke-width="2"/>
<path d="M695.79 121L690.62 115.83C690.32 115.53 690.15 115.59 690.11 116.01C688.45 134.71 691.9 152.373 700.46 169" stroke="#E30002" stroke-width="2"/>
<path d="M695.79 121C695.47 121.58 695.25 122.19 695.13 122.83C692.283 138.29 694.14 153.117 700.7 167.31C700.893 167.723 700.813 168.287 700.46 169" stroke="#FAED9A" stroke-width="2"/>
<path d="M759.46 282.25C760.633 284.17 762.223 285.823 764.23 287.21M781.78 150.44C790.97 154.17 795.56 163.62 795.34 172.97C795.19 179.42 791.97 188.08 789.98 195.2C789.673 196.287 790.077 196.73 791.19 196.53C797.21 195.45 799.21 185.37 800.66 180.42C804.19 168.31 810.05 160.6 823.57 158.82C823.923 158.773 824.117 158.57 824.15 158.21C824.963 149.663 825.223 141.103 824.93 132.53C824.923 132.217 824.77 132.11 824.47 132.21C810.583 137.043 796.293 139.887 781.6 140.74C781.418 140.75 781.249 140.833 781.127 140.969C781.005 141.106 780.942 141.286 780.95 141.47L781.31 149.76C781.323 150.087 781.48 150.313 781.78 150.44ZM725.27 172.59C725.79 174.5 728.88 176.45 730.91 178.5C734.61 182.23 737.58 186.59 741.59 190.3C741.66 190.371 741.755 190.412 741.855 190.415C741.955 190.418 742.052 190.382 742.127 190.315C742.201 190.249 742.247 190.156 742.255 190.056C742.263 189.957 742.233 189.858 742.17 189.78C730.54 173.8 736.08 154.45 755.49 149.22C759.997 148.007 764.94 147.503 770.32 147.71C770.773 147.723 771 147.507 771 147.06V142.06C771 141.693 770.82 141.503 770.46 141.49C753.4 140.62 738.04 139.41 721.59 134.38C721.277 134.287 721.113 134.403 721.1 134.73C720.487 147.643 721.877 160.263 725.27 172.59Z" stroke="#E30002" stroke-width="2"/>
<path d="M764.23 287.21L767.16 290.79C767.486 291.19 767.423 291.263 766.97 291.01C759.416 286.883 752.603 281.763 746.53 275.65C746.27 275.39 746.077 275.43 745.95 275.77C742.52 285.05 749.78 293.04 757.61 296.91C769.537 302.81 782.007 303.137 795.02 297.89C801.76 295.17 807.78 290.14 808.71 282.5" stroke="#E30002" stroke-width="2"/>
<path d="M808.71 282.5C808.837 277.093 806.78 272.79 802.54 269.59C802.213 269.35 801.957 269.407 801.77 269.76L801 271.21" stroke="#E30002" stroke-width="2"/>
<path d="M801 271.21L792.54 287.36C792.253 287.907 792.163 287.873 792.27 287.26C794.483 274.14 799.1 261.957 806.12 250.71C810.24 244.1 818.6 244.59 821.19 237.69C822.537 234.123 823.737 231.477 824.79 229.75" stroke="#E30002" stroke-width="2"/>
<path d="M824.79 229.75C827.497 225.863 830.65 222.377 834.25 219.29" stroke="#E30002" stroke-width="2"/>
<path d="M834.25 219.29C839.797 214.61 846.173 211.473 853.38 209.88C853.445 209.866 853.507 209.839 853.562 209.8C853.617 209.762 853.664 209.712 853.699 209.656C853.735 209.599 853.758 209.535 853.769 209.469C853.779 209.403 853.776 209.335 853.76 209.27C852.22 203.263 848.427 199.513 842.38 198.02C842.047 197.94 841.727 197.977 841.42 198.13C833.16 202.25 825.95 213.18 822.85 221.25C822.723 221.577 822.507 221.657 822.2 221.49C817.553 219.037 812.593 217.543 807.32 217.01C807.251 217.003 807.185 216.979 807.128 216.939C807.072 216.9 807.025 216.847 806.994 216.784C806.962 216.722 806.946 216.653 806.947 216.582C806.948 216.512 806.966 216.442 807 216.38C815.03 202.31 831.57 191.89 845.09 183.85C845.377 183.683 845.577 183.44 845.69 183.12C847.98 176.69 842.87 171.51 837.23 169.7C833.94 168.65 828.11 168.82 825.04 169.06C806.48 170.52 812.76 193.79 800.23 203.26C798.22 204.77 795.27 205.97 792.74 207.13C792.373 207.297 792.22 207.58 792.28 207.98L793.48 215.32C793.553 215.747 793.373 215.96 792.94 215.96L778.06 215.95C777.72 215.95 777.553 215.78 777.56 215.44C777.887 203.287 779.937 191.473 783.71 180C784.277 178.28 784.61 176.53 784.71 174.75" stroke="#E30002" stroke-width="2"/>
<path d="M784.71 174.75C785.65 169.39 784.177 164.89 780.29 161.25" stroke="#E30002" stroke-width="2"/>
<path d="M780.29 161.25C771.89 156.49 758.88 156.67 751.21 162.67C743.86 168.42 745.75 177.53 750.56 183.95C757.8 193.597 762.007 204.297 763.18 216.05C763.213 216.357 763.077 216.53 762.77 216.57L749.98 218.23C749.48 218.297 749.226 218.077 749.22 217.57L749.09 204.21C749.083 203.777 748.863 203.533 748.43 203.48C736.77 202.08 730.88 194.59 724.13 186.37C720.843 182.37 716.873 180.103 712.22 179.57C705.67 178.82 695.49 181.06 690.26 185.73C686.32 189.26 688.07 195.06 693.44 195.66C697.93 196.16 702.58 196.52 706.67 198.05C717.21 201.99 725.137 209.243 730.45 219.81C734.97 228.803 738.367 237.773 740.64 246.72C744.17 260.61 749.71 271.61 759.46 282.25" stroke="#E30002" stroke-width="2"/>
<path d="M780.29 161.25L783.45 174.08C783.55 174.467 783.8 174.677 784.2 174.71L784.71 174.75M834.25 219.29L832.84 219.26C832.513 219.253 832.217 219.35 831.95 219.55C829.437 221.463 827.057 223.543 824.81 225.79C823.47 227.13 823.69 228.42 824.79 229.75M801 271.21C804.06 273.52 808.08 278.34 807.53 282.28C807.47 282.693 807.64 282.837 808.04 282.71L808.71 282.5M764.23 287.21C762.897 283.983 761.57 280.76 760.25 277.54C760.15 277.307 759.91 277.217 759.53 277.27C759.177 277.31 759.08 277.49 759.24 277.81C759.987 279.29 760.06 280.77 759.46 282.25" stroke="#FAED9A" stroke-width="2"/>
<path d="M108.38 370.25C114.55 370.07 121.47 371.61 128.99 374.37C129.323 374.497 129.543 374.387 129.65 374.04C136.58 351.13 155.78 334.04 177.56 325.48C178.987 324.92 180.033 324.137 180.7 323.13C185.74 315.54 180.43 304.64 171.49 304.5C169.117 304.467 166.277 305.283 162.97 306.95C137.99 319.58 114.11 341.27 107.85 369.62C107.757 370.053 107.933 370.263 108.38 370.25ZM764.49 340.53C762.223 333.703 759.28 326.887 755.66 320.08C748.5 306.6 738.7 320.94 738.08 328.77C737.953 330.45 738.427 332.54 739.5 335.04C744.473 346.607 749.37 356.353 754.19 364.28C758.55 371.46 769.54 385.58 777.01 385.77C796.66 386.26 796.75 328.68 796.18 317.58C796.16 317.22 795.977 317.09 795.63 317.19C785.643 319.903 775.633 320.007 765.6 317.5C765.2 317.4 765 317.557 765 317.97V340.44C765 341.507 764.83 341.537 764.49 340.53Z" stroke="#E30002" stroke-width="2"/>
<path d="M93.7799 414.9C91.9399 420.69 84.2899 426.45 79.6399 429.3C79.3599 429.467 79.2032 429.713 79.1699 430.04C78.6799 434.43 79.1499 438.89 79.7999 443.24C79.8532 443.58 79.7866 443.893 79.5999 444.18C72.3199 455.52 64.9832 466.82 57.5899 478.08C51.9899 486.62 45.4999 500.05 52.2799 509.34C59.3499 519.02 70.3099 505.88 72.7599 499.75C77.6866 487.39 82.4765 473.56 87.1299 458.26C87.7099 456.34 87.3999 454.27 87.5199 452.21C87.5465 451.777 87.7666 451.63 88.1799 451.77L103.94 457.14C104.28 457.26 104.357 457.477 104.17 457.79C102.597 460.403 101.537 463.223 100.99 466.25C98.3232 481.077 95.6099 495.89 92.8499 510.69C88.9599 531.54 107.38 529.46 113.52 515.2C120.353 499.32 121.72 482.69 117.62 465.31C117.18 463.42 116.5 461.82 115.18 460.58C115.078 460.485 115.006 460.363 114.972 460.228C114.939 460.093 114.947 459.951 114.993 459.82C115.04 459.688 115.125 459.574 115.236 459.491C115.347 459.407 115.481 459.358 115.62 459.35L134.06 458.16C134.119 458.155 134.178 458.165 134.232 458.189C134.286 458.213 134.334 458.25 134.37 458.298C134.407 458.345 134.431 458.401 134.442 458.461C134.452 458.521 134.448 458.582 134.43 458.64C132.51 464.72 132.47 469.67 133.77 476.28C135.45 484.81 137.5 499.69 147.43 502.82C148.68 503.21 149.68 502.98 150.49 501.99C160.39 489.9 151.78 470.67 145.21 459.35C143.37 456.17 143.48 453.4 145.54 451.04C151.22 444.54 152.2 441.34 153.71 433.08C154.223 430.28 154.407 428.033 154.26 426.34C153.07 412.81 139.28 401.06 127.93 395.43C127.787 395.359 127.669 395.246 127.59 395.107C127.512 394.968 127.477 394.809 127.49 394.649C127.502 394.49 127.563 394.339 127.663 394.214C127.762 394.089 127.897 393.997 128.05 393.95C131.297 392.923 134.523 393.043 137.73 394.31C137.819 394.347 137.917 394.354 138.009 394.329C138.102 394.304 138.184 394.249 138.242 394.172C138.301 394.095 138.334 394.001 138.335 393.903C138.336 393.805 138.307 393.709 138.25 393.63C129.83 382.07 112.5 379.01 99.2899 381.41C95.7099 382.07 88.4899 384.93 90.6999 389.72C90.8599 390.067 91.1199 390.173 91.4799 390.04C97.6599 387.7 103.82 387.75 109.96 390.19C110.167 390.271 110.345 390.41 110.473 390.592C110.601 390.773 110.672 390.988 110.679 391.21C110.685 391.432 110.626 391.651 110.509 391.839C110.392 392.028 110.222 392.178 110.02 392.27C91.0699 401.11 75.2599 409.34 52.9899 410.08C49.2832 410.2 45.4866 410.39 41.5999 410.65C41.2266 410.677 41.0499 410.877 41.0699 411.25C41.3832 417.47 44.5099 421.683 50.4499 423.89C64.8099 429.21 81.5199 423.08 93.3099 414.56C93.8099 414.2 93.9666 414.313 93.7799 414.9Z" stroke="#E30002" stroke-width="2"/>
<path d="M583.21 598.87L745.98 599.92C746.573 599.927 746.75 599.66 746.51 599.12C727.99 556.54 675.39 536.39 633.89 558.14C629.51 560.44 627.66 565.21 626.57 569.77C626.545 569.874 626.5 569.972 626.438 570.058C626.375 570.145 626.296 570.218 626.205 570.274C626.114 570.33 626.012 570.367 625.907 570.383C625.801 570.4 625.694 570.395 625.59 570.37L612.53 567.17C612.077 567.063 611.903 566.783 612.01 566.33C613.297 560.563 613.713 556.037 613.26 552.75C608.947 521.537 601.613 491.073 591.26 461.36C588.17 452.48 583 438.85 572.66 437.93C561.43 436.94 561.22 453.4 562.36 460.33C562.907 463.663 564.313 469.847 566.58 478.88C576.36 517.89 581.53 558.09 582.69 598.36C582.703 598.693 582.877 598.863 583.21 598.87ZM330.02 575.43C329.9 575.443 329.778 575.43 329.663 575.392C329.548 575.355 329.442 575.293 329.353 575.212C329.263 575.131 329.192 575.032 329.143 574.921C329.094 574.811 329.069 574.691 329.07 574.57C329.09 565.96 325.05 558.68 316.83 555.86C276.22 541.9 219.92 561.1 201.1 601.15C200.92 601.537 201.043 601.73 201.47 601.73C254.143 601.777 306.82 601.777 359.5 601.73C362.77 601.73 366.59 601.18 370.19 601.25C370.537 601.257 370.713 601.087 370.72 600.74C370.98 591.92 370.96 582.68 371.58 574.37C374.007 541.783 379.863 509.82 389.15 478.48C391.07 471.99 394.37 461.28 391.76 455.23C384.89 439.34 366.33 452.81 360.98 462.27C360.287 463.49 359.45 465.39 358.47 467.97C356.55 472.99 354.38 477.55 353.09 482.59C349 498.51 344.25 515.9 343.35 531.95C342.577 545.697 343.49 559.397 346.09 573.05C346.107 573.138 346.106 573.229 346.086 573.317C346.066 573.405 346.028 573.488 345.974 573.56C345.921 573.633 345.853 573.693 345.774 573.738C345.696 573.783 345.609 573.811 345.52 573.82L330.02 575.43ZM523.327 188.218C532.714 187.495 541.163 179.605 546.815 166.282C552.467 152.959 554.859 135.295 553.465 117.176C552.071 99.0571 547.004 81.9672 539.381 69.666C531.757 57.3648 522.2 50.8598 512.813 51.582C503.426 52.3047 494.977 60.1952 489.325 73.5179C483.673 86.8407 481.281 104.504 482.675 122.623C483.365 131.595 484.964 140.408 487.381 148.56C489.797 156.712 492.984 164.043 496.759 170.134C500.534 176.225 504.823 180.957 509.382 184.06C513.94 187.163 518.679 188.576 523.327 188.218ZM391.759 198.194C396.622 197.862 401.319 195.793 405.582 192.104C409.845 188.415 413.589 183.178 416.602 176.693C419.615 170.208 421.837 162.601 423.141 154.307C424.445 146.013 424.807 137.195 424.204 128.355C422.987 110.502 417.918 93.6468 410.112 81.4965C402.306 69.3462 392.403 62.8964 382.581 63.566C377.717 63.8976 373.02 65.967 368.758 69.6562C364.495 73.3454 360.751 78.5821 357.738 85.0672C354.725 91.5524 352.503 99.159 351.199 107.453C349.894 115.747 349.533 124.565 350.136 133.405C351.353 151.258 356.422 168.113 364.228 180.264C372.034 192.414 381.937 198.864 391.759 198.194Z" stroke="#E30002" stroke-width="2"/>
<path d="M461.03 191.28C447.22 198.47 447.84 160.8 448.1 156.65C448.113 156.397 447.993 156.273 447.74 156.28L435.16 156.85C434.193 156.897 433.75 157.403 433.83 158.37C435.1 173 439.23 195.67 451.23 204.84C455.63 208.2 460.92 209.66 465.49 206.24C479.1 196.06 479.51 171.46 478.9 155.33C478.887 155.017 478.72 154.867 478.4 154.88L464.54 155.68C464.18 155.707 464.063 155.89 464.19 156.23C466.8 163.56 468.71 187.29 461.03 191.28ZM565.87 188.89C585.08 198.73 602.24 221.99 604.28 243.66C604.285 243.713 604.302 243.764 604.329 243.81C604.356 243.856 604.393 243.895 604.437 243.925C604.48 243.956 604.53 243.976 604.582 243.986C604.635 243.995 604.688 243.993 604.74 243.98L618.78 240.4C619.213 240.287 619.347 240.023 619.18 239.61C612.24 222.25 601.87 206.52 589.61 191.1C584.797 185.053 580.213 180.063 575.86 176.13C575.52 175.823 575.213 175.853 574.94 176.22L565.73 188.3C565.694 188.346 565.67 188.399 565.657 188.456C565.645 188.513 565.646 188.572 565.659 188.628C565.673 188.685 565.698 188.738 565.735 188.783C565.771 188.828 565.817 188.865 565.87 188.89ZM296.24 231.93L305.45 236.06C305.85 236.24 306.123 236.123 306.27 235.71C310.89 222.83 327.54 205.73 341.15 203.61C341.59 203.543 341.717 203.31 341.53 202.91L336.34 191.77C336.14 191.337 335.823 191.223 335.39 191.43C322.12 197.78 300.99 217.06 295.86 231.02C295.707 231.44 295.833 231.743 296.24 231.93Z" stroke="#E30002" stroke-width="2"/>
<path d="M321.26 291.38C329.64 302.33 344.13 311.28 356.94 317.03C383.153 328.79 410.837 335.39 439.99 336.83C452.11 337.43 469.4 335.92 487.27 333.95C504.89 332 524.92 325.31 538.92 318.66C565.24 306.16 591.47 283.76 591.37 251.97C591.31 232.88 581.21 211.2 563.18 202.8C545.45 194.54 523.05 201.74 508.76 213.84C495.22 225.32 483.78 235.96 466.14 238.37C446.03 241.12 427.14 234.34 408.87 226.76C391.93 219.72 375.41 213.58 356.87 212.44C353.297 212.22 349.937 212.52 346.79 213.34C326.49 218.62 313.67 232.42 310 253.07C307.66 266.27 313.36 281.04 321.26 291.38Z" stroke="#E30002" stroke-width="2"/>
<path d="M513.35 174.41C523.39 183.13 532.44 173.65 536.45 164.66C536.48 164.592 536.495 164.519 536.493 164.445C536.492 164.371 536.474 164.298 536.442 164.231C536.41 164.165 536.363 164.106 536.306 164.059C536.248 164.012 536.182 163.978 536.11 163.96C525.66 161.25 518.99 154.01 516.11 143.66C512.69 131.41 517.11 120.02 525.99 110.84C526.243 110.58 526.207 110.37 525.88 110.21C518.82 106.75 514.09 103.86 512.46 95.52C510.38 84.8 513.63 72.61 523.59 66.87C523.883 66.6966 523.907 66.49 523.66 66.25C516.63 59.34 509.19 61.38 503.82 68.35C485.46 92.17 490.09 154.2 513.35 174.41Z" stroke="#E30002" stroke-width="2"/>
<path d="M387.54 124.25L392.64 119.73C392.92 119.483 392.897 119.273 392.57 119.1L386.51 115.93" stroke="#E30002" stroke-width="2"/>
<path d="M386.51 115.93C381.27 112.11 378.647 107.157 378.64 101.07C378.62 91.16 386.08 84.16 393.19 78.15C393.463 77.9233 393.463 77.6967 393.19 77.47C376.79 64.26 365.34 89.78 362.76 101.5C357.35 126.06 359.87 165.87 380.68 184.01C389.67 191.84 399.38 186.42 404.62 177.4C404.827 177.033 404.723 176.83 404.31 176.79C395.09 175.797 388.417 171.537 384.29 164.01C376.643 150.083 377.727 136.83 387.54 124.25" stroke="#E30002" stroke-width="2"/>
<path d="M386.51 115.93C385.617 118.857 385.96 121.63 387.54 124.25M369.233 118.972C369.237 118.901 369.212 118.83 369.164 118.777C369.116 118.724 369.049 118.692 368.978 118.688L368.918 118.685C368.846 118.681 368.776 118.706 368.723 118.754C368.67 118.802 368.638 118.869 368.634 118.94L368.167 127.848C368.165 127.883 368.17 127.919 368.182 127.952C368.194 127.986 368.212 128.017 368.236 128.043C368.26 128.07 368.288 128.091 368.321 128.106C368.353 128.121 368.387 128.13 368.423 128.132L368.483 128.135C368.554 128.139 368.624 128.114 368.677 128.066C368.73 128.018 368.762 127.951 368.766 127.88L369.233 118.972ZM703.6 192.49L703.66 192.1C703.687 191.9 703.607 191.763 703.42 191.69C702.987 191.517 702.597 191.46 702.25 191.52C701.923 191.573 701.813 191.76 701.92 192.08C702.113 192.647 702.457 192.957 702.95 193.01C703.33 193.043 703.547 192.87 703.6 192.49Z" stroke="#FAED9A" stroke-width="2"/>
<path d="M536.2 212.08L580.55 249.47C580.59 249.503 580.639 249.523 580.691 249.529C580.742 249.535 580.794 249.525 580.841 249.502C580.887 249.479 580.926 249.443 580.952 249.398C580.979 249.353 580.992 249.302 580.99 249.25C580.537 239.197 577.237 230.253 571.09 222.42C561.58 210.28 550.94 207.86 536.14 210.77C535.974 210.803 535.825 210.893 535.719 211.025C535.613 211.156 535.557 211.321 535.56 211.49C535.567 211.77 535.677 211.923 535.89 211.95C536.003 211.957 536.107 212 536.2 212.08ZM577.8 260.51C560.5 246.01 542.927 231.23 525.08 216.17C524.573 215.743 524.037 215.7 523.47 216.04C518.17 219.22 513.327 222.987 508.94 227.34C508.667 227.607 508.633 227.9 508.84 228.22L553.18 297.55C553.36 297.823 553.587 297.87 553.86 297.69C566.073 289.563 574.667 278.48 579.64 264.44C580.56 261.85 579.33 261.79 577.8 260.51ZM368.27 224.04C361.98 222.98 354.23 221.82 348.26 223.61C338.99 226.4 331.85 230.18 326.56 238.49C316.19 254.77 318.55 270.46 329.52 285.5C329.913 286.04 330.283 286.027 330.63 285.46L368.45 224.46C368.597 224.227 368.537 224.087 368.27 224.04ZM338.54 294.25C350.82 303.243 364.223 310.027 378.75 314.6C379.097 314.707 379.327 314.59 379.44 314.25L404.58 236.59C404.72 236.15 404.573 235.847 404.14 235.68L379.99 226.66C379.815 226.595 379.623 226.592 379.446 226.652C379.269 226.712 379.119 226.832 379.02 226.99L338.23 292.67C337.843 293.29 337.947 293.817 338.54 294.25ZM501.59 321.15C515.6 317.35 532.16 311.78 544.51 304.13C544.843 303.917 544.903 303.643 544.69 303.31L500.91 234.84C500.71 234.527 500.457 234.477 500.15 234.69C493.437 239.317 486.283 243.107 478.69 246.06C478.363 246.187 478.25 246.417 478.35 246.75L500.8 320.71C500.852 320.873 500.963 321.011 501.111 321.093C501.258 321.175 501.43 321.195 501.59 321.15ZM389.5 318.03C402.453 321.85 415.637 324.47 429.05 325.89C429.136 325.9 429.222 325.892 429.305 325.867C429.387 325.843 429.464 325.801 429.531 325.746C429.597 325.691 429.651 325.623 429.691 325.547C429.73 325.47 429.754 325.386 429.76 325.3L436.21 247.65C436.22 247.522 436.187 247.395 436.116 247.289C436.045 247.184 435.941 247.106 435.82 247.07L414.58 240.64C414.273 240.547 414.07 240.653 413.97 240.96L389.23 317.51C389.213 317.562 389.206 317.617 389.211 317.671C389.215 317.725 389.23 317.778 389.256 317.827C389.281 317.875 389.315 317.918 389.357 317.953C389.399 317.988 389.448 318.014 389.5 318.03ZM453.01 249.11C450.957 248.93 448.91 248.82 446.87 248.78C446.55 248.773 446.377 248.93 446.35 249.25L440.01 325.53C439.977 325.95 440.167 326.167 440.58 326.18C457.207 326.647 473.73 325.597 490.15 323.03C490.53 322.97 490.663 322.757 490.55 322.39L468.39 249.25C468.283 248.903 468.05 248.743 467.69 248.77C462.68 249.19 458.21 249.56 453.01 249.11Z" stroke="#E30002" stroke-width="2"/>
<path d="M760.44 610H686.19C648.87 609.34 611.193 609.103 573.16 609.29C573.03 609.291 572.901 609.267 572.781 609.217C572.661 609.168 572.552 609.095 572.461 609.003C572.369 608.91 572.297 608.8 572.249 608.68C572.201 608.559 572.177 608.43 572.18 608.3C572.433 595.147 572.02 581.96 570.94 568.74C568.487 538.587 563.62 508.833 556.34 479.48C552.993 465.993 548.617 453.437 543.21 441.81C541.517 438.157 539.087 434.62 535.92 431.2C535.68 430.94 535.393 430.873 535.06 431C521.21 436.24 507.17 444.59 496.17 454.53C488.59 461.37 476.86 462.4 468.54 456.58C455.81 447.67 438.06 442.34 422.96 439.15C421.86 438.917 420.817 438.53 419.83 437.99C419.406 437.757 418.908 437.697 418.442 437.822C417.976 437.946 417.577 438.247 417.33 438.66C398.96 469.39 390.73 508.17 385.37 543.12C382.037 564.9 380.587 586.837 381.02 608.93C381.027 609.27 380.863 609.46 380.53 609.5L375.69 610H187.44C189.747 599.593 194.213 590.2 200.84 581.82C229.87 545.13 286.91 529.47 329.77 549.96C329.798 549.975 329.83 549.983 329.863 549.983C329.895 549.982 329.926 549.974 329.954 549.958C329.983 549.942 330.006 549.919 330.023 549.891C330.039 549.864 330.049 549.832 330.05 549.8C333.87 511.41 342.85 471.51 359.93 436.7C359.966 436.627 359.981 436.545 359.974 436.464C359.968 436.382 359.939 436.304 359.891 436.237C359.843 436.17 359.778 436.116 359.702 436.081C359.627 436.047 359.543 436.033 359.46 436.04C323.44 439.88 286.39 457.99 269.64 491.21C269.621 491.248 269.591 491.279 269.553 491.299C269.516 491.32 269.474 491.328 269.431 491.324C269.389 491.32 269.349 491.303 269.317 491.275C269.284 491.248 269.261 491.211 269.25 491.17C266.337 479.61 264.44 467.883 263.56 455.99C263.556 455.94 263.538 455.891 263.508 455.851C263.479 455.81 263.438 455.779 263.391 455.76C263.344 455.741 263.293 455.736 263.243 455.745C263.194 455.754 263.148 455.776 263.11 455.81C253.29 464.5 248.89 475.22 246.76 487.96C246.751 488.037 246.717 488.108 246.662 488.163C246.607 488.217 246.535 488.251 246.458 488.26C246.381 488.268 246.304 488.249 246.239 488.208C246.174 488.166 246.125 488.103 246.1 488.03C244.647 484.283 243.31 480.51 242.09 476.71C238.78 466.44 236.83 455.34 234.84 444.65C234.773 444.29 234.583 444.207 234.27 444.4C225.137 450.08 217.24 457.143 210.58 465.59C210.522 465.667 210.443 465.725 210.353 465.756C210.262 465.787 210.164 465.791 210.07 465.767C209.977 465.742 209.892 465.69 209.826 465.618C209.76 465.546 209.716 465.456 209.7 465.36C208.113 455.5 206.8 445.637 205.76 435.77C202.147 401.33 198.493 366.737 194.8 331.99C194.791 331.906 194.764 331.824 194.721 331.751C194.678 331.677 194.621 331.614 194.552 331.564C194.483 331.514 194.405 331.479 194.322 331.461C194.239 331.443 194.153 331.443 194.07 331.46C169.56 336.6 145.32 353.88 139.04 379.17C139.004 379.312 139.012 379.461 139.062 379.598C139.112 379.735 139.202 379.854 139.32 379.94C145.38 384.33 150.08 390.95 148.78 398.84C148.727 399.18 148.833 399.457 149.1 399.67C165.52 412.75 169.21 439.5 155.33 455.73C155.25 455.824 155.201 455.939 155.189 456.062C155.176 456.186 155.201 456.31 155.26 456.42C163.86 471.75 170.68 491.62 159.25 507.52C150.17 520.17 135.05 510.34 129.99 499.81C129.523 498.837 129.197 498.88 129.01 499.94C127.897 506.32 125.903 512.753 123.03 519.24C118.55 529.35 106.44 540.25 94.6101 535.97C84.8401 532.44 81.1301 522.01 82.0101 512.24C82.2368 509.74 83.1768 505.34 84.8301 499.04C84.9101 498.727 84.7934 498.613 84.4801 498.7C84.2268 498.773 84.0601 498.947 83.9801 499.22C80.8701 509.59 72.3401 521.14 61.0501 522.78C52.5201 524.01 45.5701 519.6 41.7401 511.93C35.2801 499 41.2201 484.53 48.3201 473.44C55.0467 462.933 61.8767 452.487 68.8101 442.1C68.9967 441.82 69.0801 441.513 69.0601 441.18L68.7101 434.51C68.6901 434.083 68.4701 433.923 68.0501 434.03C53.6401 437.84 37.0101 433.51 31.7801 418.29C30.2901 413.97 30.1401 404.76 33.7601 401.73C37.4501 398.65 51.2001 400.21 56.1301 399.77C64.5501 399.017 72.7368 397.18 80.6901 394.26C81.0501 394.127 81.1634 393.88 81.0301 393.52C76.8501 382.12 85.7701 373.84 96.1701 371.55C96.5301 371.477 96.7501 371.257 96.8301 370.89C106.45 326.2 147.01 296.84 189.28 286.22C189.62 286.133 189.77 285.917 189.73 285.57C183.83 230.863 177.92 176.177 172 121.51C170.647 109.03 169.583 99.5434 168.81 93.05C168.27 88.5434 168.197 84.7867 168.59 81.78C175.04 31.88 239.14 11.08 280.77 6.06003C287.27 5.27336 292.49 4.91003 296.43 4.97003C297.59 4.99003 298.71 4.28003 299.81 4.28003C306.52 4.24003 313.57 3.77004 320.2 4.79004C323.98 5.37004 327.85 4.71003 331.79 5.37003C336.32 6.12003 341.11 6.62002 345.74 7.27002C380 12.06 424.02 27.32 446.22 55.57C451.81 62.68 460.97 58.43 465.38 52.64C503 3.28005 571.22 -8.84998 628.03 7.96002C657.603 16.7067 682.723 32.3934 703.39 55.02C703.45 55.0868 703.524 55.14 703.606 55.176C703.689 55.212 703.778 55.2302 703.869 55.2293C703.96 55.2283 704.049 55.2083 704.132 55.1705C704.215 55.1328 704.289 55.0781 704.35 55.01C718.7 38.57 739.05 26.41 760.93 23.86C762.7 23.66 764.29 23.06 766.05 22.99C818.23 20.69 859.01 58.79 866.75 109C870.283 131.907 866.75 153.87 856.15 174.89C856.01 175.17 855.98 175.46 856.06 175.76C857.6 181.333 856.567 186.29 852.96 190.63C852.74 190.903 852.777 191.137 853.07 191.33C861.503 196.963 865.097 204.957 863.85 215.31C863.823 215.548 863.735 215.776 863.595 215.972C863.455 216.168 863.268 216.325 863.05 216.43C858.12 218.81 851.96 220.38 847.85 222.63C841.82 225.93 834.82 231.57 832.44 238.29C830.673 243.283 827.73 247.423 823.61 250.71C818.71 254.63 812.98 254.58 809.63 260.73C809.463 261.037 809.51 261.303 809.77 261.53C823.63 273.62 821.7 293.12 806.64 303.21C806.428 303.352 806.257 303.549 806.146 303.779C806.035 304.009 805.988 304.265 806.01 304.52C807.7 324.97 809.25 385.94 783.97 395.06C761.33 403.23 740.43 363 733.68 347.48C733.644 347.393 733.579 347.321 733.496 347.277C733.412 347.233 733.316 347.22 733.223 347.24C733.131 347.261 733.049 347.313 732.992 347.388C732.935 347.463 732.906 347.556 732.91 347.65C733.36 381.63 734.37 415.58 734.22 449.58C734.219 449.643 734.197 449.705 734.159 449.756C734.12 449.807 734.066 449.844 734.006 449.861C733.945 449.878 733.881 449.875 733.824 449.851C733.767 449.827 733.72 449.785 733.69 449.73C727.17 439.117 719.357 429.547 710.25 421.02C710.21 420.979 710.159 420.952 710.103 420.941C710.047 420.93 709.99 420.936 709.937 420.959C709.885 420.982 709.841 421.02 709.811 421.068C709.782 421.117 709.767 421.173 709.77 421.23C709.81 425.99 709.18 430.57 709.48 435.24C709.947 442.613 709.917 449.917 709.39 457.15C709.382 457.216 709.354 457.278 709.309 457.327C709.265 457.376 709.206 457.41 709.141 457.424C709.076 457.439 709.009 457.432 708.948 457.407C708.887 457.381 708.835 457.337 708.8 457.28C703.25 447.49 695.61 441.47 685.9 435.97C685.587 435.79 685.403 435.88 685.35 436.24C685.123 437.733 685.093 438.99 685.26 440.01C686.473 447.683 686.18 455.303 684.38 462.87C684.28 463.303 684.067 463.37 683.74 463.07C681.69 461.18 680 459.16 677.75 457.68C650.74 439.87 619.9 427.52 587.45 424.71C587.369 424.704 587.287 424.721 587.214 424.757C587.141 424.793 587.079 424.848 587.034 424.916C586.99 424.985 586.964 425.064 586.959 425.145C586.955 425.226 586.973 425.308 587.01 425.38C591.883 434.593 596.087 444.147 599.62 454.04C610.067 483.313 617.687 513.3 622.48 544C622.74 545.69 622.97 548.99 623.36 551.49C623.44 551.97 623.69 552.087 624.11 551.84C676.42 520.72 746.26 549.56 760.53 609.17C760.57 609.357 760.563 609.54 760.51 609.72C760.483 609.8 760.46 609.893 760.44 610ZM472.89 363.39C476.01 377.45 479.273 391.727 482.68 406.22C487 424.63 500.71 428.13 517.26 423.17C522.46 421.61 528.07 418.27 533.2 415.45C572.86 393.64 622.19 380.11 667.51 388.72C689.33 392.86 709.32 403.16 723.21 420.88C723.263 420.947 723.336 420.995 723.418 421.018C723.5 421.041 723.587 421.039 723.668 421.01C723.748 420.981 723.817 420.928 723.866 420.859C723.915 420.789 723.941 420.705 723.94 420.62C723.39 384.33 722.39 347.94 722.08 311.56C721.83 282.44 720.21 253.38 719.68 224.27C719.52 215.32 709.17 209.19 701.73 207.26C698.13 206.32 692.65 206.32 689.46 205.35C682.34 203.183 678.483 198.52 677.89 191.36C677.22 183.18 683.54 176.57 690.53 173.37C690.877 173.21 690.967 172.963 690.8 172.63C673.91 137.92 675.52 96.98 697.22 64.43C697.286 64.3296 697.317 64.2097 697.308 64.0887C697.299 63.9677 697.251 63.8522 697.17 63.76C648.25 7.81004 557.17 -7.86997 495.43 37.09C486.8 43.37 479.15 49.66 473.59 57.83C463.837 72.1367 458.24 88.0234 456.8 105.49C456.803 105.628 456.75 105.761 456.655 105.861C456.559 105.96 456.428 106.017 456.29 106.02C456.152 106.023 456.019 105.97 455.919 105.875C455.82 105.779 455.763 105.648 455.76 105.51C454.1 91.21 449.3 73.2 439.17 62.31C398.95 19.08 327.72 9.00004 272.35 17.54C271.877 17.6134 271.663 17.8867 271.71 18.36L291.12 234.69C291.13 234.8 291.106 234.91 291.049 235.004C290.993 235.099 290.908 235.173 290.807 235.217C290.706 235.26 290.594 235.27 290.486 235.246C290.379 235.221 290.282 235.163 290.21 235.08L259.65 200C259.377 199.68 259.16 199.717 259 200.11L242.68 240.29C242.007 241.943 241.477 241.9 241.09 240.16L198.6 49.78C198.513 49.3867 198.317 49.32 198.01 49.58C186.41 59.36 177.35 74.68 179.06 90.44C191.78 208.147 204.5 325.863 217.22 443.59C217.224 443.622 217.236 443.652 217.255 443.677C217.275 443.703 217.3 443.723 217.33 443.735C217.359 443.747 217.392 443.751 217.423 443.747C217.455 443.742 217.485 443.73 217.51 443.71C276.69 397.7 358.37 384.97 427.39 416.15C438.88 421.34 458.9 429.45 467.08 414.31C468.127 412.383 468.787 409.41 469.06 405.39C470.013 391.477 471.073 377.49 472.24 363.43C472.248 363.352 472.283 363.28 472.34 363.226C472.396 363.171 472.47 363.139 472.548 363.134C472.626 363.129 472.703 363.152 472.766 363.199C472.829 363.246 472.873 363.314 472.89 363.39ZM747.9 37.95C764.58 46.1634 781.29 46.1934 798.03 38.04C798.091 38.01 798.142 37.9623 798.175 37.9031C798.209 37.8439 798.224 37.776 798.219 37.7081C798.214 37.6402 798.188 37.5755 798.145 37.5223C798.103 37.4692 798.045 37.4301 797.98 37.41C781.3 32.05 764.62 32.0367 747.94 37.37C747.447 37.53 747.433 37.7234 747.9 37.95ZM827.91 82.63C830.823 93.6834 832.93 104.81 834.23 116.01C834.27 116.337 834.433 116.423 834.72 116.27C838.593 114.257 842.117 111.75 845.29 108.75C848.99 105.62 854.19 99.22 852.43 94.04C844.87 71.7734 830.98 54.7634 810.76 43.01C809.39 42.21 808.14 42.31 807.46 43.81C807.327 44.1034 807.37 44.3667 807.59 44.6C817.86 55.65 823.15 68.6 827.91 82.63ZM698.5 109.04C702.16 113.127 706.507 116.443 711.54 118.99C711.88 119.163 712.08 119.063 712.14 118.69C714.413 103.37 718.603 88.4734 724.71 74C729.203 64.36 734.49 55.16 740.57 46.4C740.823 46.04 740.77 45.7367 740.41 45.49L736.5 42.72C736.173 42.4934 735.84 42.48 735.5 42.68C714.973 54.6934 701.16 71.97 694.06 94.51C692.43 99.66 695.23 105.15 698.5 109.04ZM780.29 58L781.02 129.95C781.027 130.283 781.197 130.44 781.53 130.42C796.063 129.48 810.17 126.523 823.85 121.55C823.938 121.515 824.012 121.454 824.064 121.376C824.116 121.297 824.143 121.204 824.14 121.11C823.14 102.93 818.927 85.5467 811.5 68.96C808.453 61.68 804.023 55.35 798.21 49.97C797.937 49.7167 797.627 49.6567 797.28 49.79C791.973 51.8234 786.507 53.2334 780.88 54.02C780.487 54.0734 780.29 54.3 780.29 54.7V58ZM741.95 63.36C731.157 81.8067 724.54 101.653 722.1 122.9C722.075 123.132 722.132 123.365 722.259 123.56C722.387 123.755 722.578 123.9 722.8 123.97C738.367 128.83 754.33 131.167 770.69 130.98C770.73 130.98 770.77 130.972 770.807 130.956C770.844 130.941 770.878 130.918 770.906 130.889C770.934 130.86 770.956 130.825 770.97 130.788C770.985 130.75 770.991 130.71 770.99 130.67C770.87 120.57 770.23 110.11 770.26 100.43C770.307 86.2834 770.207 72.14 769.96 58C770.173 56.9067 770.15 55.8034 769.89 54.69C769.803 54.3034 769.56 54.1034 769.16 54.09C762.9 53.91 756.837 52.73 750.97 50.55C750.643 50.43 750.377 50.5067 750.17 50.78C747.157 54.7534 744.417 58.9467 741.95 63.36ZM847.75 120.29C843.87 123.003 839.887 125.383 835.8 127.43C835.506 127.579 835.265 127.815 835.11 128.107C834.954 128.398 834.891 128.731 834.93 129.06C836.1 138.91 834.96 148.33 834.8 158.14C834.793 158.493 834.967 158.693 835.32 158.74C839.507 159.3 843.317 160.707 846.75 162.96L849.14 164.7C849.192 164.738 849.251 164.764 849.314 164.776C849.377 164.788 849.442 164.785 849.504 164.767C849.566 164.75 849.623 164.719 849.671 164.676C849.719 164.633 849.756 164.58 849.78 164.52C856.687 147.867 859.03 130.527 856.81 112.5C856.803 112.443 856.781 112.389 856.745 112.344C856.71 112.299 856.662 112.265 856.609 112.245C856.555 112.225 856.496 112.221 856.44 112.232C856.384 112.244 856.332 112.271 856.29 112.31L847.75 120.29ZM700.46 169C700.61 169.75 701.26 170.08 702.01 169.92C705.677 169.133 709.463 168.88 713.37 169.16C713.717 169.187 713.853 169.027 713.78 168.68C711.127 156.18 710.19 143.55 710.97 130.79C710.99 130.417 710.833 130.153 710.5 130C705.193 127.493 700.29 124.493 695.79 121L690.62 115.83C690.32 115.53 690.15 115.59 690.11 116.01C688.45 134.71 691.9 152.373 700.46 169ZM781.78 150.44C790.97 154.17 795.56 163.62 795.34 172.97C795.19 179.42 791.97 188.08 789.98 195.2C789.673 196.287 790.077 196.73 791.19 196.53C797.21 195.45 799.21 185.37 800.66 180.42C804.19 168.31 810.05 160.6 823.57 158.82C823.923 158.773 824.117 158.57 824.15 158.21C824.963 149.663 825.223 141.103 824.93 132.53C824.923 132.217 824.77 132.11 824.47 132.21C810.583 137.043 796.293 139.887 781.6 140.74C781.419 140.75 781.249 140.833 781.127 140.969C781.005 141.106 780.942 141.286 780.95 141.47L781.31 149.76C781.323 150.087 781.48 150.313 781.78 150.44ZM725.27 172.59C725.79 174.5 728.88 176.45 730.91 178.5C734.61 182.23 737.58 186.59 741.59 190.3C741.661 190.371 741.756 190.412 741.855 190.415C741.955 190.418 742.053 190.382 742.127 190.316C742.202 190.249 742.247 190.156 742.255 190.056C742.263 189.957 742.233 189.858 742.17 189.78C730.54 173.8 736.08 154.45 755.49 149.22C759.997 148.007 764.94 147.503 770.32 147.71C770.773 147.723 771 147.507 771 147.06V142.06C771 141.693 770.82 141.503 770.46 141.49C753.4 140.62 738.04 139.41 721.59 134.38C721.277 134.287 721.113 134.403 721.1 134.73C720.487 147.643 721.877 160.263 725.27 172.59ZM759.46 282.25C760.633 284.17 762.223 285.823 764.23 287.21L767.16 290.79C767.487 291.19 767.423 291.263 766.97 291.01C759.417 286.883 752.603 281.763 746.53 275.65C746.27 275.39 746.077 275.43 745.95 275.77C742.52 285.05 749.78 293.04 757.61 296.91C769.537 302.81 782.007 303.137 795.02 297.89C801.76 295.17 807.78 290.14 808.71 282.5C808.837 277.093 806.78 272.79 802.54 269.59C802.213 269.35 801.957 269.407 801.77 269.76L801 271.21L792.54 287.36C792.253 287.907 792.163 287.873 792.27 287.26C794.483 274.14 799.1 261.957 806.12 250.71C810.24 244.1 818.6 244.59 821.19 237.69C822.537 234.123 823.737 231.477 824.79 229.75C827.497 225.863 830.65 222.377 834.25 219.29C839.797 214.61 846.173 211.473 853.38 209.88C853.446 209.866 853.508 209.839 853.562 209.8C853.617 209.762 853.664 209.712 853.699 209.656C853.735 209.599 853.758 209.535 853.769 209.469C853.779 209.403 853.776 209.335 853.76 209.27C852.22 203.263 848.427 199.513 842.38 198.02C842.047 197.94 841.727 197.977 841.42 198.13C833.16 202.25 825.95 213.18 822.85 221.25C822.723 221.577 822.507 221.657 822.2 221.49C817.553 219.037 812.593 217.543 807.32 217.01C807.251 217.003 807.186 216.979 807.129 216.939C807.072 216.9 807.025 216.847 806.994 216.784C806.962 216.722 806.946 216.653 806.947 216.582C806.948 216.512 806.966 216.442 807 216.38C815.03 202.31 831.57 191.89 845.09 183.85C845.377 183.683 845.577 183.44 845.69 183.12C847.98 176.69 842.87 171.51 837.23 169.7C833.94 168.65 828.11 168.82 825.04 169.06C806.48 170.52 812.76 193.79 800.23 203.26C798.22 204.77 795.27 205.97 792.74 207.13C792.373 207.297 792.22 207.58 792.28 207.98L793.48 215.32C793.553 215.747 793.373 215.96 792.94 215.96L778.06 215.95C777.72 215.95 777.553 215.78 777.56 215.44C777.887 203.287 779.937 191.473 783.71 180C784.277 178.28 784.61 176.53 784.71 174.75C785.65 169.39 784.177 164.89 780.29 161.25C771.89 156.49 758.88 156.67 751.21 162.67C743.86 168.42 745.75 177.53 750.56 183.95C757.8 193.597 762.007 204.297 763.18 216.05C763.213 216.357 763.077 216.53 762.77 216.57L749.98 218.23C749.48 218.297 749.227 218.077 749.22 217.57L749.09 204.21C749.083 203.777 748.863 203.533 748.43 203.48C736.77 202.08 730.88 194.59 724.13 186.37C720.843 182.37 716.873 180.103 712.22 179.57C705.67 178.82 695.49 181.06 690.26 185.73C686.32 189.26 688.07 195.06 693.44 195.66C697.93 196.16 702.58 196.52 706.67 198.05C717.21 201.99 725.137 209.243 730.45 219.81C734.97 228.803 738.367 237.773 740.64 246.72C744.17 260.61 749.71 271.61 759.46 282.25ZM108.38 370.25C114.55 370.07 121.47 371.61 128.99 374.37C129.323 374.497 129.543 374.387 129.65 374.04C136.58 351.13 155.78 334.04 177.56 325.48C178.987 324.92 180.033 324.137 180.7 323.13C185.74 315.54 180.43 304.64 171.49 304.5C169.117 304.467 166.277 305.283 162.97 306.95C137.99 319.58 114.11 341.27 107.85 369.62C107.757 370.053 107.933 370.263 108.38 370.25ZM764.49 340.53C762.223 333.703 759.28 326.887 755.66 320.08C748.5 306.6 738.7 320.94 738.08 328.77C737.953 330.45 738.427 332.54 739.5 335.04C744.473 346.607 749.37 356.353 754.19 364.28C758.55 371.46 769.54 385.58 777.01 385.77C796.66 386.26 796.75 328.68 796.18 317.58C796.16 317.22 795.977 317.09 795.63 317.19C785.643 319.903 775.633 320.007 765.6 317.5C765.2 317.4 765 317.557 765 317.97V340.44C765 341.507 764.83 341.537 764.49 340.53ZM93.7801 414.9C91.9401 420.69 84.2901 426.45 79.6401 429.3C79.3601 429.467 79.2034 429.713 79.1701 430.04C78.6801 434.43 79.1501 438.89 79.8001 443.24C79.8534 443.58 79.7868 443.893 79.6001 444.18C72.3201 455.52 64.9834 466.82 57.5901 478.08C51.9901 486.62 45.5001 500.05 52.2801 509.34C59.3501 519.02 70.3101 505.88 72.7601 499.75C77.6868 487.39 82.4767 473.56 87.1301 458.26C87.7101 456.34 87.4001 454.27 87.5201 452.21C87.5467 451.777 87.7668 451.63 88.1801 451.77L103.94 457.14C104.28 457.26 104.357 457.477 104.17 457.79C102.597 460.403 101.537 463.223 100.99 466.25C98.3234 481.077 95.6101 495.89 92.8501 510.69C88.9601 531.54 107.38 529.46 113.52 515.2C120.353 499.32 121.72 482.69 117.62 465.31C117.18 463.42 116.5 461.82 115.18 460.58C115.078 460.486 115.006 460.363 114.973 460.228C114.939 460.093 114.947 459.951 114.994 459.82C115.041 459.689 115.125 459.574 115.236 459.491C115.348 459.407 115.481 459.358 115.62 459.35L134.06 458.16C134.119 458.155 134.178 458.165 134.232 458.189C134.286 458.213 134.334 458.25 134.37 458.298C134.407 458.345 134.432 458.401 134.442 458.461C134.452 458.521 134.448 458.582 134.43 458.64C132.51 464.72 132.47 469.67 133.77 476.28C135.45 484.81 137.5 499.69 147.43 502.82C148.68 503.21 149.68 502.98 150.49 501.99C160.39 489.9 151.78 470.67 145.21 459.35C143.37 456.17 143.48 453.4 145.54 451.04C151.22 444.54 152.2 441.34 153.71 433.08C154.223 430.28 154.407 428.033 154.26 426.34C153.07 412.81 139.28 401.06 127.93 395.43C127.787 395.359 127.669 395.246 127.59 395.107C127.512 394.968 127.477 394.809 127.49 394.649C127.503 394.49 127.563 394.339 127.663 394.214C127.763 394.089 127.898 393.997 128.05 393.95C131.297 392.923 134.523 393.043 137.73 394.31C137.819 394.347 137.917 394.354 138.009 394.329C138.102 394.304 138.184 394.249 138.243 394.172C138.301 394.095 138.334 394.001 138.335 393.903C138.337 393.805 138.307 393.709 138.25 393.63C129.83 382.07 112.5 379.01 99.2901 381.41C95.7101 382.07 88.4901 384.93 90.7001 389.72C90.8601 390.067 91.1201 390.173 91.4801 390.04C97.6601 387.7 103.82 387.75 109.96 390.19C110.167 390.271 110.345 390.41 110.473 390.592C110.601 390.773 110.672 390.988 110.679 391.21C110.685 391.432 110.626 391.651 110.509 391.839C110.392 392.028 110.222 392.178 110.02 392.27C91.0701 401.11 75.2601 409.34 52.9901 410.08C49.2834 410.2 45.4867 410.39 41.6001 410.65C41.2267 410.677 41.0501 410.877 41.0701 411.25C41.3834 417.47 44.5101 421.683 50.4501 423.89C64.8101 429.21 81.5201 423.08 93.3101 414.56C93.8101 414.2 93.9668 414.313 93.7801 414.9ZM583.21 598.87L745.98 599.92C746.573 599.927 746.75 599.66 746.51 599.12C727.99 556.54 675.39 536.39 633.89 558.14C629.51 560.44 627.66 565.21 626.57 569.77C626.545 569.874 626.5 569.972 626.438 570.058C626.375 570.145 626.296 570.218 626.205 570.274C626.114 570.33 626.013 570.367 625.907 570.383C625.802 570.4 625.694 570.395 625.59 570.37L612.53 567.17C612.077 567.063 611.903 566.783 612.01 566.33C613.297 560.563 613.713 556.037 613.26 552.75C608.947 521.537 601.613 491.073 591.26 461.36C588.17 452.48 583 438.85 572.66 437.93C561.43 436.94 561.22 453.4 562.36 460.33C562.907 463.663 564.313 469.847 566.58 478.88C576.36 517.89 581.53 558.09 582.69 598.36C582.703 598.693 582.877 598.863 583.21 598.87ZM330.02 575.43C329.9 575.443 329.778 575.43 329.663 575.392C329.548 575.355 329.443 575.294 329.353 575.212C329.263 575.131 329.192 575.032 329.143 574.921C329.094 574.811 329.069 574.691 329.07 574.57C329.09 565.96 325.05 558.68 316.83 555.86C276.22 541.9 219.92 561.1 201.1 601.15C200.92 601.537 201.043 601.73 201.47 601.73C254.143 601.777 306.82 601.777 359.5 601.73C362.77 601.73 366.59 601.18 370.19 601.25C370.537 601.257 370.713 601.087 370.72 600.74C370.98 591.92 370.96 582.68 371.58 574.37C374.007 541.783 379.863 509.82 389.15 478.48C391.07 471.99 394.37 461.28 391.76 455.23C384.89 439.34 366.33 452.81 360.98 462.27C360.287 463.49 359.45 465.39 358.47 467.97C356.55 472.99 354.38 477.55 353.09 482.59C349 498.51 344.25 515.9 343.35 531.95C342.577 545.697 343.49 559.397 346.09 573.05C346.107 573.138 346.106 573.23 346.086 573.317C346.066 573.405 346.028 573.488 345.974 573.56C345.921 573.633 345.853 573.693 345.775 573.738C345.696 573.783 345.61 573.811 345.52 573.82L330.02 575.43Z" fill="#E30002"/>
<path d="M472.89 363.39C472.873 363.314 472.829 363.246 472.766 363.199C472.703 363.152 472.626 363.129 472.548 363.134C472.47 363.139 472.396 363.171 472.34 363.226C472.283 363.28 472.248 363.352 472.24 363.43C471.073 377.49 470.013 391.477 469.06 405.39C468.787 409.41 468.127 412.383 467.08 414.31C458.9 429.45 438.88 421.34 427.39 416.15C358.37 384.97 276.69 397.7 217.51 443.71C217.485 443.73 217.455 443.742 217.423 443.747C217.392 443.751 217.359 443.747 217.33 443.735C217.3 443.723 217.275 443.703 217.255 443.677C217.236 443.652 217.224 443.622 217.22 443.59C204.5 325.863 191.78 208.147 179.06 90.44C177.35 74.68 186.41 59.36 198.01 49.58C198.317 49.32 198.513 49.3867 198.6 49.78L241.09 240.16C241.477 241.9 242.007 241.943 242.68 240.29L259 200.11C259.16 199.717 259.377 199.68 259.65 200L290.21 235.08C290.282 235.163 290.379 235.221 290.486 235.246C290.594 235.27 290.706 235.26 290.807 235.217C290.908 235.173 290.993 235.099 291.049 235.004C291.106 234.91 291.13 234.8 291.12 234.69L271.71 18.36C271.663 17.8867 271.877 17.6134 272.35 17.54C327.72 9.00002 398.95 19.08 439.17 62.31C449.3 73.2 454.1 91.21 455.76 105.51C455.763 105.648 455.82 105.779 455.919 105.875C456.019 105.97 456.152 106.023 456.29 106.02C456.428 106.017 456.559 105.96 456.655 105.861C456.75 105.761 456.803 105.628 456.8 105.49C458.24 88.0233 463.837 72.1367 473.59 57.83C479.15 49.66 486.8 43.37 495.43 37.09C557.17 -7.86999 648.25 7.81002 697.17 63.76C697.25 63.8522 697.299 63.9676 697.308 64.0886C697.317 64.2096 697.286 64.3295 697.22 64.43C675.52 96.98 673.91 137.92 690.8 172.63C690.967 172.963 690.877 173.21 690.53 173.37C683.54 176.57 677.22 183.18 677.89 191.36C678.483 198.52 682.34 203.183 689.46 205.35C692.65 206.32 698.13 206.32 701.73 207.26C709.17 209.19 719.52 215.32 719.68 224.27C720.21 253.38 721.83 282.44 722.08 311.56C722.39 347.94 723.39 384.33 723.94 420.62C723.941 420.705 723.915 420.789 723.866 420.859C723.817 420.928 723.748 420.981 723.668 421.01C723.587 421.039 723.5 421.041 723.418 421.018C723.336 420.995 723.263 420.947 723.21 420.88C709.32 403.16 689.33 392.86 667.51 388.72C622.19 380.11 572.86 393.64 533.2 415.45C528.07 418.27 522.46 421.61 517.26 423.17C500.71 428.13 487 424.63 482.68 406.22C479.273 391.727 476.01 377.45 472.89 363.39ZM523.327 188.218C532.714 187.495 541.163 179.605 546.815 166.282C552.467 152.959 554.859 135.295 553.465 117.176C552.071 99.0571 547.005 81.9672 539.381 69.666C531.757 57.3648 522.2 50.8598 512.813 51.582C503.426 52.3046 494.977 60.1952 489.325 73.5179C483.673 86.8406 481.281 104.504 482.675 122.623C483.365 131.595 484.964 140.408 487.381 148.56C489.797 156.712 492.984 164.043 496.759 170.134C500.534 176.225 504.823 180.957 509.382 184.06C513.94 187.163 518.679 188.576 523.327 188.218ZM391.759 198.194C396.622 197.862 401.319 195.793 405.582 192.104C409.845 188.415 413.589 183.178 416.602 176.693C419.615 170.208 421.837 162.601 423.141 154.307C424.446 146.013 424.807 137.195 424.204 128.355C422.987 110.502 417.918 93.6468 410.112 81.4965C402.306 69.3462 392.403 62.8964 382.581 63.566C377.718 63.8976 373.021 65.967 368.758 69.6562C364.495 73.3454 360.751 78.582 357.738 85.0672C354.725 91.5524 352.503 99.159 351.199 107.453C349.894 115.747 349.533 124.565 350.136 133.405C351.353 151.258 356.422 168.113 364.228 180.264C372.034 192.414 381.937 198.864 391.759 198.194ZM461.03 191.28C447.22 198.47 447.84 160.8 448.1 156.65C448.113 156.397 447.993 156.273 447.74 156.28L435.16 156.85C434.193 156.897 433.75 157.403 433.83 158.37C435.1 173 439.23 195.67 451.23 204.84C455.63 208.2 460.92 209.66 465.49 206.24C479.1 196.06 479.51 171.46 478.9 155.33C478.887 155.017 478.72 154.867 478.4 154.88L464.54 155.68C464.18 155.707 464.063 155.89 464.19 156.23C466.8 163.56 468.71 187.29 461.03 191.28ZM565.87 188.89C585.08 198.73 602.24 221.99 604.28 243.66C604.286 243.713 604.302 243.764 604.329 243.81C604.356 243.856 604.393 243.895 604.437 243.925C604.48 243.956 604.53 243.976 604.582 243.986C604.635 243.995 604.688 243.993 604.74 243.98L618.78 240.4C619.213 240.287 619.347 240.023 619.18 239.61C612.24 222.25 601.87 206.52 589.61 191.1C584.797 185.053 580.213 180.063 575.86 176.13C575.52 175.823 575.213 175.853 574.94 176.22L565.73 188.3C565.694 188.346 565.67 188.399 565.657 188.456C565.645 188.513 565.646 188.572 565.659 188.628C565.673 188.685 565.699 188.738 565.735 188.783C565.771 188.828 565.818 188.865 565.87 188.89ZM296.24 231.93L305.45 236.06C305.85 236.24 306.123 236.123 306.27 235.71C310.89 222.83 327.54 205.73 341.15 203.61C341.59 203.543 341.717 203.31 341.53 202.91L336.34 191.77C336.14 191.337 335.823 191.223 335.39 191.43C322.12 197.78 300.99 217.06 295.86 231.02C295.707 231.44 295.833 231.743 296.24 231.93ZM321.26 291.38C329.64 302.33 344.13 311.28 356.94 317.03C383.153 328.79 410.837 335.39 439.99 336.83C452.11 337.43 469.4 335.92 487.27 333.95C504.89 332 524.92 325.31 538.92 318.66C565.24 306.16 591.47 283.76 591.37 251.97C591.31 232.88 581.21 211.2 563.18 202.8C545.45 194.54 523.05 201.74 508.76 213.84C495.22 225.32 483.78 235.96 466.14 238.37C446.03 241.12 427.14 234.34 408.87 226.76C391.93 219.72 375.41 213.58 356.87 212.44C353.297 212.22 349.937 212.52 346.79 213.34C326.49 218.62 313.67 232.42 310 253.07C307.66 266.27 313.36 281.04 321.26 291.38Z" fill="#FAED9A"/>
<path d="M747.9 37.95C747.433 37.7234 747.447 37.53 747.94 37.37C764.62 32.0367 781.3 32.05 797.98 37.41C798.045 37.4301 798.103 37.4692 798.145 37.5223C798.188 37.5755 798.213 37.6402 798.219 37.7081C798.224 37.7759 798.209 37.8439 798.175 37.9031C798.142 37.9623 798.091 38.01 798.03 38.04C781.29 46.1934 764.58 46.1634 747.9 37.95ZM845.29 108.75C844.983 108.517 844.81 108.347 844.77 108.24C841.063 98.4334 835.443 89.8967 827.91 82.63C823.15 68.6 817.86 55.65 807.59 44.6C807.37 44.3667 807.327 44.1034 807.46 43.81C808.14 42.31 809.39 42.21 810.76 43.01C830.98 54.7634 844.87 71.7734 852.43 94.04C854.19 99.22 848.99 105.62 845.29 108.75ZM724.71 74C712.17 81.55 703.93 95.75 698.5 109.04C695.23 105.15 692.43 99.66 694.06 94.51C701.16 71.97 714.973 54.6934 735.5 42.68C735.84 42.48 736.173 42.4934 736.5 42.72L740.41 45.49C740.77 45.7367 740.823 46.04 740.57 46.4C734.49 55.16 729.203 64.36 724.71 74ZM811.5 68.96C811.07 68.95 811.04 69.08 810.62 68.82C801.247 63.1467 791.137 59.54 780.29 58V54.7C780.29 54.3 780.487 54.0734 780.88 54.02C786.507 53.2334 791.973 51.8234 797.28 49.79C797.627 49.6567 797.937 49.7167 798.21 49.97C804.023 55.35 808.453 61.68 811.5 68.96ZM769.96 58C760.387 58.3467 751.05 60.1333 741.95 63.36C744.417 58.9467 747.157 54.7534 750.17 50.78C750.377 50.5067 750.643 50.43 750.97 50.55C756.837 52.73 762.9 53.91 769.16 54.09C769.56 54.1034 769.803 54.3034 769.89 54.69C770.15 55.8034 770.173 56.9067 769.96 58Z" fill="white"/>
<path d="M523.327 188.218C518.679 188.576 513.94 187.163 509.382 184.06C504.823 180.957 500.534 176.225 496.759 170.134C492.984 164.043 489.797 156.712 487.381 148.56C484.964 140.408 483.365 131.595 482.675 122.623C481.281 104.504 483.673 86.8407 489.325 73.5179C494.977 60.1952 503.426 52.3047 512.813 51.582C522.2 50.8598 531.757 57.3648 539.381 69.666C547.004 81.9672 552.071 99.0571 553.465 117.176C554.859 135.295 552.467 152.959 546.815 166.282C541.163 179.605 532.714 187.495 523.327 188.218ZM513.35 174.41C523.39 183.13 532.44 173.65 536.45 164.66C536.48 164.592 536.495 164.519 536.493 164.445C536.492 164.371 536.475 164.298 536.442 164.231C536.41 164.165 536.363 164.106 536.306 164.059C536.249 164.012 536.182 163.978 536.11 163.96C525.66 161.25 518.99 154.01 516.11 143.66C512.69 131.41 517.11 120.02 525.99 110.84C526.243 110.58 526.207 110.37 525.88 110.21C518.82 106.75 514.09 103.86 512.46 95.52C510.38 84.8 513.63 72.61 523.59 66.87C523.883 66.6967 523.907 66.49 523.66 66.25C516.63 59.34 509.19 61.38 503.82 68.35C485.46 92.17 490.09 154.2 513.35 174.41Z" fill="#E30002"/>
<path d="M769.96 58C770.207 72.14 770.307 86.2833 770.26 100.43C770.23 110.11 770.87 120.57 770.99 130.67C770.991 130.71 770.985 130.75 770.97 130.788C770.956 130.825 770.934 130.86 770.906 130.889C770.878 130.918 770.844 130.941 770.807 130.956C770.77 130.972 770.73 130.98 770.69 130.98C754.33 131.167 738.367 128.83 722.8 123.97C722.578 123.9 722.387 123.755 722.259 123.56C722.131 123.365 722.075 123.132 722.1 122.9C724.54 101.653 731.157 81.8067 741.95 63.36C751.05 60.1333 760.387 58.3467 769.96 58ZM780.29 58C791.137 59.54 801.247 63.1467 810.62 68.82C811.04 69.08 811.07 68.95 811.5 68.96C818.927 85.5467 823.14 102.93 824.14 121.11C824.143 121.204 824.116 121.297 824.064 121.376C824.012 121.454 823.938 121.515 823.85 121.55C810.17 126.523 796.063 129.48 781.53 130.42C781.197 130.44 781.027 130.283 781.02 129.95L780.29 58Z" fill="#FAED9A"/>
<path d="M513.35 174.41C490.09 154.2 485.46 92.17 503.82 68.35C509.19 61.38 516.63 59.34 523.66 66.25C523.907 66.49 523.883 66.6966 523.59 66.87C513.63 72.61 510.38 84.8 512.46 95.52C514.09 103.86 518.82 106.75 525.88 110.21C526.207 110.37 526.243 110.58 525.99 110.84C517.11 120.02 512.69 131.41 516.11 143.66C518.99 154.01 525.66 161.25 536.11 163.96C536.182 163.978 536.249 164.012 536.306 164.059C536.363 164.106 536.41 164.165 536.442 164.231C536.475 164.298 536.492 164.371 536.493 164.445C536.495 164.519 536.48 164.592 536.45 164.66C532.44 173.65 523.39 183.13 513.35 174.41Z" fill="white"/>
<path d="M391.759 198.194C386.895 198.526 381.961 197.113 377.237 194.036C372.513 190.959 368.093 186.279 364.228 180.263C360.363 174.247 357.129 167.012 354.711 158.972C352.293 150.932 350.738 142.244 350.136 133.404C348.919 115.551 351.653 98.164 357.738 85.0669C363.823 71.9697 372.759 64.2356 382.581 63.566C387.444 63.2345 392.379 64.6473 397.103 67.7239C401.826 70.8005 406.247 75.4806 410.112 81.4969C413.977 87.5132 417.211 94.7479 419.629 102.788C422.047 110.828 423.601 119.516 424.204 128.356C425.421 146.209 422.686 163.596 416.602 176.693C410.517 189.79 401.581 197.524 391.759 198.194ZM387.54 124.25L392.64 119.73C392.92 119.483 392.897 119.273 392.57 119.1L386.51 115.93C381.27 112.11 378.647 107.157 378.64 101.07C378.62 91.16 386.08 84.16 393.19 78.15C393.463 77.9233 393.463 77.6967 393.19 77.47C376.79 64.26 365.34 89.78 362.76 101.5C357.35 126.06 359.87 165.87 380.68 184.01C389.67 191.84 399.38 186.42 404.62 177.4C404.827 177.033 404.723 176.83 404.31 176.79C395.09 175.797 388.417 171.537 384.29 164.01C376.643 150.083 377.727 136.83 387.54 124.25Z" fill="#E30002"/>
<path d="M386.51 115.93C385.617 118.857 385.96 121.63 387.54 124.25C377.727 136.83 376.643 150.083 384.29 164.01C388.417 171.537 395.09 175.797 404.31 176.79C404.723 176.83 404.827 177.033 404.62 177.4C399.38 186.42 389.67 191.84 380.68 184.01C359.87 165.87 357.35 126.06 362.76 101.5C365.34 89.78 376.79 64.26 393.19 77.47C393.463 77.6967 393.463 77.9233 393.19 78.15C386.08 84.16 378.62 91.16 378.64 101.07C378.647 107.157 381.27 112.11 386.51 115.93ZM369.233 118.972C369.237 118.901 369.212 118.83 369.164 118.777C369.116 118.724 369.049 118.692 368.978 118.688L368.918 118.685C368.846 118.681 368.776 118.706 368.723 118.754C368.67 118.802 368.638 118.869 368.634 118.94L368.167 127.848C368.165 127.883 368.17 127.919 368.182 127.952C368.194 127.986 368.212 128.017 368.236 128.043C368.26 128.07 368.289 128.091 368.321 128.106C368.353 128.121 368.387 128.13 368.423 128.132L368.483 128.135C368.554 128.139 368.624 128.114 368.677 128.066C368.73 128.018 368.762 127.951 368.766 127.88L369.233 118.972Z" fill="white"/>
<path d="M724.71 74C718.603 88.4733 714.413 103.37 712.14 118.69C712.08 119.063 711.88 119.163 711.54 118.99C706.507 116.443 702.16 113.127 698.5 109.04C703.93 95.75 712.17 81.55 724.71 74ZM827.91 82.63C835.443 89.8967 841.063 98.4333 844.77 108.24C844.81 108.347 844.983 108.517 845.29 108.75C842.117 111.75 838.593 114.257 834.72 116.27C834.433 116.423 834.27 116.337 834.23 116.01C832.93 104.81 830.823 93.6833 827.91 82.63Z" fill="#FAED9A"/>
<path d="M846.75 162.96C849.303 155.153 850.23 147.207 849.53 139.12C849.01 133.06 849.3 126.53 847.75 120.29L856.29 112.31C856.332 112.271 856.384 112.244 856.44 112.232C856.496 112.221 856.555 112.225 856.609 112.245C856.662 112.265 856.71 112.299 856.745 112.344C856.781 112.389 856.803 112.443 856.81 112.5C859.03 130.527 856.687 147.867 849.78 164.52C849.756 164.58 849.719 164.633 849.671 164.676C849.623 164.718 849.566 164.75 849.504 164.767C849.442 164.785 849.377 164.788 849.314 164.776C849.251 164.764 849.192 164.738 849.14 164.7L846.75 162.96ZM695.79 121C695.47 121.58 695.25 122.19 695.13 122.83C692.283 138.29 694.14 153.117 700.7 167.31C700.893 167.723 700.813 168.287 700.46 169C691.9 152.373 688.45 134.71 690.11 116.01C690.15 115.59 690.32 115.53 690.62 115.83L695.79 121Z" fill="white"/>
<path d="M386.51 115.93L392.57 119.1C392.897 119.273 392.92 119.483 392.64 119.73L387.54 124.25C385.96 121.63 385.617 118.857 386.51 115.93Z" fill="#FAED9A"/>
<path d="M368.977 118.688L368.918 118.685C368.769 118.677 368.642 118.791 368.634 118.94L368.167 127.848C368.159 127.997 368.274 128.124 368.422 128.132L368.482 128.135C368.631 128.143 368.758 128.028 368.766 127.88L369.233 118.972C369.241 118.823 369.126 118.696 368.977 118.688Z" fill="#FAED9A"/>
<path d="M847.75 120.29C849.3 126.53 849.01 133.06 849.53 139.12C850.23 147.207 849.303 155.153 846.75 162.96C843.317 160.707 839.507 159.3 835.32 158.74C834.967 158.693 834.793 158.493 834.8 158.14C834.96 148.33 836.1 138.91 834.93 129.06C834.891 128.731 834.954 128.398 835.11 128.107C835.265 127.815 835.506 127.579 835.8 127.43C839.887 125.383 843.87 123.003 847.75 120.29ZM695.79 121C700.29 124.493 705.193 127.493 710.5 130C710.833 130.153 710.99 130.417 710.97 130.79C710.19 143.55 711.127 156.18 713.78 168.68C713.853 169.027 713.717 169.187 713.37 169.16C709.463 168.88 705.677 169.133 702.01 169.92C701.26 170.08 700.61 169.75 700.46 169C700.813 168.287 700.893 167.723 700.7 167.31C694.14 153.117 692.283 138.29 695.13 122.83C695.25 122.19 695.47 121.58 695.79 121ZM795.34 172.97C795.56 163.62 790.97 154.17 781.78 150.44C781.48 150.313 781.323 150.087 781.31 149.76L780.95 141.47C780.942 141.286 781.005 141.106 781.127 140.969C781.249 140.833 781.419 140.75 781.6 140.74C796.293 139.887 810.583 137.043 824.47 132.21C824.77 132.11 824.923 132.217 824.93 132.53C825.223 141.103 824.963 149.663 824.15 158.21C824.117 158.57 823.923 158.773 823.57 158.82C810.05 160.6 804.19 168.31 800.66 180.42C799.21 185.37 797.21 195.45 791.19 196.53C790.077 196.73 789.673 196.287 789.98 195.2C791.97 188.08 795.19 179.42 795.34 172.97ZM730.91 178.5C728.88 176.45 725.79 174.5 725.27 172.59C721.877 160.263 720.487 147.643 721.1 134.73C721.113 134.403 721.277 134.287 721.59 134.38C738.04 139.41 753.4 140.62 770.46 141.49C770.82 141.503 771 141.693 771 142.06V147.06C771 147.507 770.773 147.723 770.32 147.71C764.94 147.503 759.997 148.007 755.49 149.22C736.08 154.45 730.54 173.8 742.17 189.78C742.233 189.858 742.263 189.957 742.255 190.056C742.247 190.156 742.202 190.249 742.127 190.316C742.053 190.382 741.955 190.418 741.855 190.415C741.756 190.412 741.661 190.371 741.59 190.3C737.58 186.59 734.61 182.23 730.91 178.5Z" fill="#FAED9A"/>
<path d="M461.03 191.28C468.71 187.29 466.8 163.56 464.19 156.23C464.063 155.89 464.18 155.707 464.54 155.68L478.4 154.88C478.72 154.867 478.887 155.017 478.9 155.33C479.51 171.46 479.1 196.06 465.49 206.24C460.92 209.66 455.63 208.2 451.23 204.84C439.23 195.67 435.1 173 433.83 158.37C433.75 157.403 434.193 156.897 435.16 156.85L447.74 156.28C447.993 156.273 448.113 156.397 448.1 156.65C447.84 160.8 447.22 198.47 461.03 191.28Z" fill="#E30002"/>
<path d="M780.29 161.25L783.45 174.08C783.55 174.467 783.8 174.677 784.2 174.71L784.71 174.75C784.61 176.53 784.277 178.28 783.71 180C779.937 191.473 777.887 203.287 777.56 215.44C777.553 215.78 777.72 215.95 778.06 215.95L792.94 215.96C793.373 215.96 793.553 215.747 793.48 215.32L792.28 207.98C792.22 207.58 792.373 207.297 792.74 207.13C795.27 205.97 798.22 204.77 800.23 203.26C812.76 193.79 806.48 170.52 825.04 169.06C828.11 168.82 833.94 168.65 837.23 169.7C842.87 171.51 847.98 176.69 845.69 183.12C845.577 183.44 845.377 183.683 845.09 183.85C831.57 191.89 815.03 202.31 807 216.38C806.966 216.442 806.948 216.511 806.947 216.582C806.946 216.653 806.962 216.722 806.994 216.784C807.025 216.847 807.072 216.9 807.129 216.939C807.186 216.979 807.251 217.003 807.32 217.01C812.593 217.543 817.553 219.037 822.2 221.49C822.507 221.657 822.723 221.577 822.85 221.25C825.95 213.18 833.16 202.25 841.42 198.13C841.727 197.977 842.047 197.94 842.38 198.02C848.427 199.513 852.22 203.263 853.76 209.27C853.776 209.335 853.779 209.403 853.769 209.469C853.758 209.535 853.735 209.599 853.699 209.655C853.664 209.712 853.617 209.762 853.562 209.8C853.508 209.839 853.446 209.866 853.38 209.88C846.173 211.473 839.797 214.61 834.25 219.29L832.84 219.26C832.513 219.253 832.217 219.35 831.95 219.55C829.437 221.463 827.057 223.543 824.81 225.79C823.47 227.13 823.69 228.42 824.79 229.75C823.737 231.477 822.537 234.123 821.19 237.69C818.6 244.59 810.24 244.1 806.12 250.71C799.1 261.957 794.483 274.14 792.27 287.26C792.163 287.873 792.253 287.907 792.54 287.36L801 271.21C804.06 273.52 808.08 278.34 807.53 282.28C807.47 282.693 807.64 282.837 808.04 282.71L808.71 282.5C807.78 290.14 801.76 295.17 795.02 297.89C782.007 303.137 769.537 302.81 757.61 296.91C749.78 293.04 742.52 285.05 745.95 275.77C746.077 275.43 746.27 275.39 746.53 275.65C752.603 281.763 759.417 286.883 766.97 291.01C767.423 291.263 767.487 291.19 767.16 290.79L764.23 287.21C762.897 283.983 761.57 280.76 760.25 277.54C760.15 277.307 759.91 277.217 759.53 277.27C759.177 277.31 759.08 277.49 759.24 277.81C759.987 279.29 760.06 280.77 759.46 282.25C749.71 271.61 744.17 260.61 740.64 246.72C738.367 237.773 734.97 228.803 730.45 219.81C725.137 209.243 717.21 201.99 706.67 198.05C702.58 196.52 697.93 196.16 693.44 195.66C688.07 195.06 686.32 189.26 690.26 185.73C695.49 181.06 705.67 178.82 712.22 179.57C716.873 180.103 720.843 182.37 724.13 186.37C730.88 194.59 736.77 202.08 748.43 203.48C748.863 203.533 749.083 203.777 749.09 204.21L749.22 217.57C749.227 218.077 749.48 218.297 749.98 218.23L762.77 216.57C763.077 216.53 763.213 216.357 763.18 216.05C762.007 204.297 757.8 193.597 750.56 183.95C745.75 177.53 743.86 168.42 751.21 162.67C758.88 156.67 771.89 156.49 780.29 161.25ZM703.6 192.49L703.66 192.1C703.687 191.9 703.607 191.763 703.42 191.69C702.987 191.517 702.597 191.46 702.25 191.52C701.923 191.573 701.813 191.76 701.92 192.08C702.113 192.647 702.457 192.957 702.95 193.01C703.33 193.043 703.547 192.87 703.6 192.49Z" fill="white"/>
<path d="M780.29 161.25C784.177 164.89 785.65 169.39 784.71 174.75L784.2 174.71C783.8 174.677 783.55 174.467 783.45 174.08L780.29 161.25Z" fill="#FAED9A"/>
<path d="M565.87 188.89C565.817 188.865 565.771 188.828 565.735 188.783C565.698 188.738 565.673 188.685 565.659 188.628C565.646 188.572 565.645 188.513 565.657 188.456C565.67 188.399 565.694 188.346 565.73 188.3L574.94 176.22C575.213 175.853 575.52 175.823 575.86 176.13C580.213 180.063 584.797 185.053 589.61 191.1C601.87 206.52 612.24 222.25 619.18 239.61C619.347 240.023 619.213 240.287 618.78 240.4L604.74 243.98C604.688 243.993 604.635 243.995 604.582 243.986C604.53 243.976 604.48 243.956 604.437 243.925C604.393 243.895 604.356 243.856 604.329 243.81C604.302 243.764 604.285 243.713 604.28 243.66C602.24 221.99 585.08 198.73 565.87 188.89ZM295.86 231.02C300.99 217.06 322.12 197.78 335.39 191.43C335.823 191.223 336.14 191.337 336.34 191.77L341.53 202.91C341.717 203.31 341.59 203.543 341.15 203.61C327.54 205.73 310.89 222.83 306.27 235.71C306.123 236.123 305.85 236.24 305.45 236.06L296.24 231.93C295.833 231.743 295.707 231.44 295.86 231.02Z" fill="#E30002"/>
<path d="M703.6 192.49C703.547 192.87 703.33 193.043 702.95 193.01C702.457 192.957 702.113 192.647 701.92 192.08C701.813 191.76 701.923 191.573 702.25 191.52C702.597 191.46 702.987 191.517 703.42 191.69C703.607 191.763 703.687 191.9 703.66 192.1L703.6 192.49Z" fill="#FAED9A"/>
<path d="M321.26 291.38C313.36 281.04 307.66 266.27 310 253.07C313.67 232.42 326.49 218.62 346.79 213.34C349.937 212.52 353.297 212.22 356.87 212.44C375.41 213.58 391.93 219.72 408.87 226.76C427.14 234.34 446.03 241.12 466.14 238.37C483.78 235.96 495.22 225.32 508.76 213.84C523.05 201.74 545.45 194.54 563.18 202.8C581.21 211.2 591.31 232.88 591.37 251.97C591.47 283.76 565.24 306.16 538.92 318.66C524.92 325.31 504.89 332 487.27 333.95C469.4 335.92 452.11 337.43 439.99 336.83C410.837 335.39 383.153 328.79 356.94 317.03C344.13 311.28 329.64 302.33 321.26 291.38ZM536.2 212.08L580.55 249.47C580.59 249.503 580.639 249.523 580.691 249.529C580.742 249.535 580.795 249.525 580.841 249.502C580.887 249.479 580.926 249.443 580.953 249.398C580.979 249.353 580.992 249.302 580.99 249.25C580.537 239.197 577.237 230.253 571.09 222.42C561.58 210.28 550.94 207.86 536.14 210.77C535.974 210.803 535.825 210.893 535.719 211.025C535.613 211.156 535.557 211.321 535.56 211.49C535.567 211.77 535.677 211.923 535.89 211.95C536.003 211.957 536.107 212 536.2 212.08ZM577.8 260.51C560.5 246.01 542.927 231.23 525.08 216.17C524.573 215.743 524.037 215.7 523.47 216.04C518.17 219.22 513.327 222.987 508.94 227.34C508.667 227.607 508.633 227.9 508.84 228.22L553.18 297.55C553.36 297.823 553.587 297.87 553.86 297.69C566.073 289.563 574.667 278.48 579.64 264.44C580.56 261.85 579.33 261.79 577.8 260.51ZM368.27 224.04C361.98 222.98 354.23 221.82 348.26 223.61C338.99 226.4 331.85 230.18 326.56 238.49C316.19 254.77 318.55 270.46 329.52 285.5C329.913 286.04 330.283 286.027 330.63 285.46L368.45 224.46C368.597 224.227 368.537 224.087 368.27 224.04ZM338.54 294.25C350.82 303.243 364.223 310.027 378.75 314.6C379.097 314.707 379.327 314.59 379.44 314.25L404.58 236.59C404.72 236.15 404.573 235.847 404.14 235.68L379.99 226.66C379.815 226.595 379.623 226.592 379.446 226.652C379.27 226.712 379.119 226.832 379.02 226.99L338.23 292.67C337.843 293.29 337.947 293.817 338.54 294.25ZM501.59 321.15C515.6 317.35 532.16 311.78 544.51 304.13C544.843 303.917 544.903 303.643 544.69 303.31L500.91 234.84C500.71 234.527 500.457 234.477 500.15 234.69C493.437 239.317 486.283 243.107 478.69 246.06C478.363 246.187 478.25 246.417 478.35 246.75L500.8 320.71C500.852 320.873 500.964 321.011 501.111 321.093C501.258 321.175 501.43 321.195 501.59 321.15ZM389.5 318.03C402.453 321.85 415.637 324.47 429.05 325.89C429.136 325.9 429.223 325.892 429.305 325.867C429.388 325.843 429.465 325.801 429.531 325.746C429.597 325.691 429.652 325.623 429.691 325.547C429.73 325.47 429.754 325.386 429.76 325.3L436.21 247.65C436.221 247.522 436.188 247.395 436.117 247.289C436.046 247.184 435.941 247.106 435.82 247.07L414.58 240.64C414.273 240.547 414.07 240.653 413.97 240.96L389.23 317.51C389.213 317.562 389.207 317.617 389.211 317.671C389.215 317.725 389.231 317.778 389.256 317.827C389.281 317.875 389.316 317.918 389.357 317.953C389.399 317.988 389.448 318.014 389.5 318.03ZM453.01 249.11C450.957 248.93 448.91 248.82 446.87 248.78C446.55 248.773 446.377 248.93 446.35 249.25L440.01 325.53C439.977 325.95 440.167 326.167 440.58 326.18C457.207 326.647 473.73 325.597 490.15 323.03C490.53 322.97 490.663 322.757 490.55 322.39L468.39 249.25C468.283 248.903 468.05 248.743 467.69 248.77C462.68 249.19 458.21 249.56 453.01 249.11Z" fill="#E30002"/>
<path d="M535.89 211.95C535.677 211.923 535.567 211.77 535.56 211.49C535.557 211.321 535.613 211.156 535.719 211.025C535.825 210.893 535.974 210.803 536.14 210.77C550.94 207.86 561.58 210.28 571.09 222.42C577.237 230.253 580.537 239.197 580.99 249.25C580.992 249.302 580.979 249.353 580.953 249.398C580.926 249.443 580.887 249.479 580.841 249.502C580.795 249.525 580.742 249.535 580.691 249.529C580.639 249.523 580.59 249.503 580.55 249.47L536.2 212.08C536.107 212 536.003 211.957 535.89 211.95ZM577.8 260.51C579.33 261.79 580.56 261.85 579.64 264.44C574.667 278.48 566.073 289.563 553.86 297.69C553.587 297.87 553.36 297.823 553.18 297.55L508.84 228.22C508.633 227.9 508.667 227.607 508.94 227.34C513.327 222.987 518.17 219.22 523.47 216.04C524.037 215.7 524.573 215.743 525.08 216.17C542.927 231.23 560.5 246.01 577.8 260.51Z" fill="white"/>
<path d="M834.25 219.29C830.65 222.377 827.497 225.863 824.79 229.75C823.69 228.42 823.47 227.13 824.81 225.79C827.057 223.543 829.437 221.463 831.95 219.55C832.217 219.35 832.513 219.253 832.84 219.26L834.25 219.29Z" fill="#FAED9A"/>
<path d="M368.27 224.04C368.537 224.087 368.597 224.227 368.45 224.46L330.63 285.46C330.283 286.027 329.913 286.04 329.52 285.5C318.55 270.46 316.19 254.77 326.56 238.49C331.85 230.18 338.99 226.4 348.26 223.61C354.23 221.82 361.98 222.98 368.27 224.04ZM338.54 294.25C337.947 293.817 337.843 293.29 338.23 292.67L379.02 226.99C379.119 226.832 379.269 226.712 379.446 226.652C379.623 226.592 379.815 226.595 379.99 226.66L404.14 235.68C404.573 235.847 404.72 236.15 404.58 236.59L379.44 314.25C379.327 314.59 379.097 314.707 378.75 314.6C364.223 310.027 350.82 303.243 338.54 294.25ZM501.59 321.15C501.43 321.195 501.258 321.175 501.111 321.093C500.963 321.01 500.852 320.873 500.8 320.71L478.35 246.75C478.25 246.417 478.363 246.187 478.69 246.06C486.283 243.107 493.437 239.317 500.15 234.69C500.457 234.477 500.71 234.527 500.91 234.84L544.69 303.31C544.903 303.643 544.843 303.917 544.51 304.13C532.16 311.78 515.6 317.35 501.59 321.15ZM389.5 318.03C389.448 318.014 389.399 317.988 389.357 317.953C389.315 317.918 389.281 317.875 389.256 317.827C389.23 317.778 389.215 317.725 389.211 317.671C389.206 317.617 389.213 317.562 389.23 317.51L413.97 240.96C414.07 240.653 414.273 240.547 414.58 240.64L435.82 247.07C435.941 247.106 436.045 247.183 436.116 247.289C436.187 247.395 436.22 247.522 436.21 247.65L429.76 325.3C429.754 325.386 429.73 325.47 429.691 325.547C429.651 325.623 429.597 325.691 429.531 325.746C429.464 325.801 429.388 325.843 429.305 325.867C429.222 325.892 429.136 325.9 429.05 325.89C415.637 324.47 402.453 321.85 389.5 318.03ZM453.01 249.11C458.21 249.56 462.68 249.19 467.69 248.77C468.05 248.743 468.283 248.903 468.39 249.25L490.55 322.39C490.663 322.757 490.53 322.97 490.15 323.03C473.73 325.597 457.207 326.647 440.58 326.18C440.167 326.167 439.977 325.95 440.01 325.53L446.35 249.25C446.377 248.93 446.55 248.773 446.87 248.78C448.91 248.82 450.957 248.93 453.01 249.11Z" fill="white"/>
<path d="M808.71 282.5L808.04 282.71C807.64 282.837 807.47 282.693 807.53 282.28C808.08 278.34 804.06 273.52 801 271.21L801.77 269.76C801.957 269.407 802.213 269.35 802.54 269.59C806.78 272.79 808.837 277.093 808.71 282.5ZM764.23 287.21C762.223 285.823 760.633 284.17 759.46 282.25C760.06 280.77 759.987 279.29 759.24 277.81C759.08 277.49 759.177 277.31 759.53 277.27C759.91 277.217 760.15 277.307 760.25 277.54C761.57 280.76 762.897 283.983 764.23 287.21ZM128.99 374.37C121.47 371.61 114.55 370.07 108.38 370.25C107.933 370.263 107.757 370.053 107.85 369.62C114.11 341.27 137.99 319.58 162.97 306.95C166.277 305.283 169.117 304.467 171.49 304.5C180.43 304.64 185.74 315.54 180.7 323.13C180.033 324.137 178.987 324.92 177.56 325.48C155.78 334.04 136.58 351.13 129.65 374.04C129.543 374.387 129.323 374.497 128.99 374.37ZM765 340.44V317.97C765 317.557 765.2 317.4 765.6 317.5C775.633 320.007 785.643 319.903 795.63 317.19C795.977 317.09 796.16 317.22 796.18 317.58C796.75 328.68 796.66 386.26 777.01 385.77C769.54 385.58 758.55 371.46 754.19 364.28C749.37 356.353 744.473 346.607 739.5 335.04C738.427 332.54 737.953 330.45 738.08 328.77C738.7 320.94 748.5 306.6 755.66 320.08C759.28 326.887 762.223 333.703 764.49 340.53C764.83 341.537 765 341.507 765 340.44Z" fill="#FAED9A"/>
<path d="M93.3099 414.56C81.5199 423.08 64.8099 429.21 50.4499 423.89C44.5099 421.683 41.3832 417.47 41.0699 411.25C41.0499 410.877 41.2266 410.677 41.5999 410.65C45.4866 410.39 49.2832 410.2 52.9899 410.08C75.2599 409.34 91.0699 401.11 110.02 392.27C110.222 392.178 110.392 392.028 110.509 391.839C110.626 391.651 110.685 391.432 110.679 391.21C110.672 390.988 110.601 390.773 110.473 390.592C110.345 390.41 110.167 390.271 109.96 390.19C103.82 387.75 97.6599 387.7 91.4799 390.04C91.1199 390.173 90.8599 390.067 90.6999 389.72C88.4899 384.93 95.7099 382.07 99.2899 381.41C112.5 379.01 129.83 382.07 138.25 393.63C138.307 393.709 138.336 393.805 138.335 393.903C138.334 394.001 138.301 394.095 138.242 394.172C138.184 394.249 138.102 394.304 138.009 394.329C137.917 394.354 137.819 394.347 137.73 394.31C134.523 393.043 131.297 392.923 128.05 393.95C127.897 393.997 127.762 394.089 127.663 394.214C127.563 394.339 127.502 394.49 127.49 394.649C127.477 394.809 127.512 394.968 127.59 395.107C127.669 395.246 127.787 395.359 127.93 395.43C139.28 401.06 153.07 412.81 154.26 426.34C154.407 428.033 154.223 430.28 153.71 433.08C152.2 441.34 151.22 444.54 145.54 451.04C143.48 453.4 143.37 456.17 145.21 459.35C151.78 470.67 160.39 489.9 150.49 501.99C149.68 502.98 148.68 503.21 147.43 502.82C137.5 499.69 135.45 484.81 133.77 476.28C132.47 469.67 132.51 464.72 134.43 458.64C134.448 458.582 134.452 458.521 134.442 458.461C134.431 458.401 134.407 458.345 134.37 458.298C134.334 458.25 134.286 458.213 134.232 458.189C134.178 458.165 134.119 458.155 134.06 458.16L115.62 459.35C115.481 459.358 115.347 459.407 115.236 459.491C115.125 459.574 115.04 459.689 114.993 459.82C114.947 459.951 114.939 460.093 114.972 460.228C115.006 460.363 115.078 460.486 115.18 460.58C116.5 461.82 117.18 463.42 117.62 465.31C121.72 482.69 120.353 499.32 113.52 515.2C107.38 529.46 88.9599 531.54 92.8499 510.69C95.6099 495.89 98.3232 481.077 100.99 466.25C101.537 463.223 102.597 460.403 104.17 457.79C104.357 457.477 104.28 457.26 103.94 457.14L88.1799 451.77C87.7666 451.63 87.5466 451.777 87.5199 452.21C87.3999 454.27 87.7099 456.34 87.1299 458.26C82.4766 473.56 77.6866 487.39 72.7599 499.75C70.3099 505.88 59.3499 519.02 52.2799 509.34C45.4999 500.05 51.9899 486.62 57.5899 478.08C64.9832 466.82 72.3199 455.52 79.5999 444.18C79.7866 443.893 79.8532 443.58 79.7999 443.24C79.1499 438.89 78.6799 434.43 79.1699 430.04C79.2032 429.713 79.3599 429.467 79.6399 429.3C84.2899 426.45 91.9399 420.69 93.7799 414.9C93.9666 414.313 93.8099 414.2 93.3099 414.56Z" fill="white"/>
<path d="M745.98 599.92L583.21 598.87C582.877 598.863 582.703 598.693 582.69 598.36C581.53 558.09 576.36 517.89 566.58 478.88C564.313 469.847 562.907 463.663 562.36 460.33C561.22 453.4 561.43 436.94 572.66 437.93C583 438.85 588.17 452.48 591.26 461.36C601.613 491.073 608.947 521.537 613.26 552.75C613.713 556.037 613.297 560.563 612.01 566.33C611.903 566.783 612.077 567.063 612.53 567.17L625.59 570.37C625.694 570.395 625.802 570.4 625.907 570.383C626.013 570.367 626.114 570.33 626.205 570.274C626.296 570.218 626.375 570.145 626.438 570.058C626.501 569.972 626.545 569.874 626.57 569.77C627.66 565.21 629.51 560.44 633.89 558.14C675.39 536.39 727.99 556.54 746.51 599.12C746.75 599.66 746.573 599.927 745.98 599.92ZM330.02 575.43L345.52 573.82C345.61 573.811 345.696 573.783 345.775 573.738C345.853 573.693 345.921 573.633 345.974 573.56C346.028 573.488 346.066 573.405 346.086 573.317C346.106 573.229 346.107 573.138 346.09 573.05C343.49 559.397 342.577 545.697 343.35 531.95C344.25 515.9 349 498.51 353.09 482.59C354.38 477.55 356.55 472.99 358.47 467.97C359.45 465.39 360.287 463.49 360.98 462.27C366.33 452.81 384.89 439.34 391.76 455.23C394.37 461.28 391.07 471.99 389.15 478.48C379.863 509.82 374.007 541.783 371.58 574.37C370.96 582.68 370.98 591.92 370.72 600.74C370.713 601.087 370.537 601.257 370.19 601.25C366.59 601.18 362.77 601.73 359.5 601.73C306.82 601.777 254.143 601.777 201.47 601.73C201.043 601.73 200.92 601.537 201.1 601.15C219.92 561.1 276.22 541.9 316.83 555.86C325.05 558.68 329.09 565.96 329.07 574.57C329.069 574.691 329.094 574.811 329.143 574.921C329.192 575.032 329.263 575.131 329.353 575.212C329.443 575.293 329.548 575.355 329.663 575.392C329.778 575.43 329.9 575.443 330.02 575.43Z" fill="#FAED9A"/>
</svg>
